<svg xmlns="http://www.w3.org/2000/svg" xmlns:xlink="http://www.w3.org/1999/xlink" viewBox="0 0 491.7 1000"><defs><filter id="b" x="12.9" y="-8639.22" width="21.47" height="32766" filterUnits="userSpaceOnUse" color-interpolation-filters="sRGB"><feFlood flood-color="#fff" result="bg"/><feBlend in="SourceGraphic" in2="bg"/></filter><mask id="a" x="12.9" y="-8639.22" width="21.47" height="32766" maskUnits="userSpaceOnUse"><g filter="url(#b)"/></mask><linearGradient id="c" x1="12.9" y1="499.01" x2="33.81" y2="499.01" gradientUnits="userSpaceOnUse"><stop offset="0" stop-color="#fff"/><stop offset="0.23" stop-color="#888"/><stop offset="0.77"/></linearGradient><filter id="e" x="20.96" y="-8639.22" width="447.42" height="32766" filterUnits="userSpaceOnUse" color-interpolation-filters="sRGB"><feFlood flood-color="#fff" result="bg"/><feBlend in="SourceGraphic" in2="bg"/></filter><mask id="d" x="20.96" y="-8639.22" width="447.42" height="32766" maskUnits="userSpaceOnUse"><g filter="url(#e)"/></mask><linearGradient id="f" x1="-2274.97" y1="10.89" x2="-2274.97" y2="-2.73" gradientTransform="translate(-2030.3 999.3) rotate(180)" gradientUnits="userSpaceOnUse"><stop offset="0"/><stop offset="1" stop-color="#fff"/></linearGradient><filter id="h" x="453.97" y="-8639.22" width="21.47" height="32766" filterUnits="userSpaceOnUse" color-interpolation-filters="sRGB"><feFlood flood-color="#fff" result="bg"/><feBlend in="SourceGraphic" in2="bg"/></filter><mask id="g" x="453.97" y="-8639.22" width="21.47" height="32766" maskUnits="userSpaceOnUse"><g filter="url(#h)"/></mask><linearGradient id="i" x1="-2374.9" y1="302.6" x2="-2354" y2="302.6" gradientTransform="translate(-1899.5 801.6) rotate(180)" gradientUnits="userSpaceOnUse"><stop offset="0" stop-color="#fff"/><stop offset="1"/></linearGradient><filter id="k" x="1.82" y="-8639.22" width="18.6" height="32766" filterUnits="userSpaceOnUse" color-interpolation-filters="sRGB"><feFlood flood-color="#fff" result="bg"/><feBlend in="SourceGraphic" in2="bg"/></filter><mask id="j" x="1.82" y="-8639.22" width="18.6" height="32766" maskUnits="userSpaceOnUse"><g filter="url(#k)"/></mask><linearGradient id="l" x1="1.82" y1="500.22" x2="19.93" y2="500.22" gradientTransform="matrix(1, 0, 0, 1, 0, 0)" xlink:href="#i"/><filter id="n" x="469.12" y="-8639.22" width="18.6" height="32766" filterUnits="userSpaceOnUse" color-interpolation-filters="sRGB"><feFlood flood-color="#fff" result="bg"/><feBlend in="SourceGraphic" in2="bg"/></filter><mask id="m" x="469.12" y="-8639.22" width="18.6" height="32766" maskUnits="userSpaceOnUse"><g filter="url(#n)"/></mask><linearGradient id="o" x1="-2426.83" y1="302.65" x2="-2408.71" y2="302.65" gradientTransform="translate(-1939.1 802.9) rotate(180)" xlink:href="#i"/><linearGradient id="r" x1="244.67" y1="11.76" x2="244.67" y2="-1.86" gradientTransform="matrix(1, 0, 0, 1, 0, 0)" xlink:href="#f"/><linearGradient id="s" x1="198.32" y1="923.25" x2="287.02" y2="948.64" gradientUnits="userSpaceOnUse"><stop offset="0" stop-color="#fff"/><stop offset="0.05" stop-color="#303030"/><stop offset="0.97" stop-color="#303030"/><stop offset="1" stop-color="#fff"/></linearGradient><filter id="u" x="12.9" y="16.06" width="21.47" height="965.89" filterUnits="userSpaceOnUse" color-interpolation-filters="sRGB"><feFlood flood-color="#fff" result="bg"/><feBlend in="SourceGraphic" in2="bg"/></filter><mask id="t" x="12.9" y="16.06" width="21.47" height="965.89" maskUnits="userSpaceOnUse"><g mask="url(#a)" filter="url(#u)"><path d="M22.8,956.6c-.5-8.8-.5-906.4,0-915.2a30.5,30.5,0,0,1,5-15.9c3.9-5.7,6.9-7,6.5-8.8s-6.4.1-9.8,2.7A29.8,29.8,0,0,0,13.2,41.9c-.4,15.4-.4,898.8,0,914.2a30.1,30.1,0,0,0,11.3,22.6c3.4,2.5,9.5,4.3,9.8,2.6s-2.6-3.1-6.5-8.8A30.3,30.3,0,0,1,22.8,956.6Z" fill="url(#c)" style="mix-blend-mode:multiply"/></g></mask><linearGradient id="v" x1="12.9" y1="499.01" x2="33.81" y2="499.01" gradientUnits="userSpaceOnUse"><stop offset="0" stop-color="#fff"/><stop offset="0.23" stop-color="#fff"/><stop offset="0.77" stop-color="#fff"/></linearGradient><filter id="x" x="453.97" y="16.06" width="21.47" height="965.89" filterUnits="userSpaceOnUse" color-interpolation-filters="sRGB"><feFlood flood-color="#fff" result="bg"/><feBlend in="SourceGraphic" in2="bg"/></filter><mask id="w" x="453.97" y="16.06" width="21.47" height="965.89" maskUnits="userSpaceOnUse"><g mask="url(#g)" filter="url(#x)"><path d="M465.5,41.4c.5,8.8.5,906.4,0,915.2a30.3,30.3,0,0,1-5,15.9c-3.9,5.7-6.8,7.1-6.5,8.8s6.5-.1,9.8-2.7a29.4,29.4,0,0,0,11.3-22.5c.4-15.4.4-898.8,0-914.2a29.5,29.5,0,0,0-11.3-22.5c-3.3-2.6-9.5-4.4-9.8-2.7s2.6,3.1,6.5,8.8A30.5,30.5,0,0,1,465.5,41.4Z" fill="url(#i)" style="mix-blend-mode:multiply"/></g></mask><linearGradient id="y" x1="-2374.9" y1="302.6" x2="-2354" y2="302.6" gradientTransform="translate(-1899.5 801.6) rotate(180)" gradientUnits="userSpaceOnUse"><stop offset="0" stop-color="#fff"/><stop offset="1" stop-color="#fff"/></linearGradient><filter id="aa" x="1.82" y="13.22" width="18.6" height="974.01" filterUnits="userSpaceOnUse" color-interpolation-filters="sRGB"><feFlood flood-color="#fff" result="bg"/><feBlend in="SourceGraphic" in2="bg"/></filter><mask id="z" x="1.82" y="13.22" width="18.6" height="974.01" maskUnits="userSpaceOnUse"><g mask="url(#j)" filter="url(#aa)"><path d="M20.4,13.2S1.8,24.5,1.8,46.5v909s.4,16.8,16.4,31.7c-6.4-10.8-12.1-14.7-12.1-37.4s.2-903.7.2-903.7S5.5,26.4,20.4,13.2Z" fill="url(#l)" style="mix-blend-mode:multiply"/></g></mask><linearGradient id="ab" x1="1.82" y1="500.22" x2="19.93" y2="500.22" gradientTransform="matrix(1, 0, 0, 1, 0, 0)" xlink:href="#y"/><filter id="ad" x="469.12" y="13.22" width="18.6" height="974.01" filterUnits="userSpaceOnUse" color-interpolation-filters="sRGB"><feFlood flood-color="#fff" result="bg"/><feBlend in="SourceGraphic" in2="bg"/></filter><mask id="ac" x="469.12" y="13.22" width="18.6" height="974.01" maskUnits="userSpaceOnUse"><g mask="url(#m)" filter="url(#ad)"><path d="M469.1,987.2s18.6-11.2,18.6-33.3V44.9s-.4-16.8-16.3-31.7c6.3,10.9,12,14.7,12,37.4s-.2,903.7-.2,903.7S484,974,469.1,987.2Z" fill="url(#o)" style="mix-blend-mode:multiply"/></g></mask><linearGradient id="ae" x1="-2426.83" y1="302.65" x2="-2408.71" y2="302.65" gradientTransform="translate(-1939.1 802.9) rotate(180)" xlink:href="#y"/><filter id="ag" x="20.96" y="1.08" width="447.42" height="13.22" filterUnits="userSpaceOnUse" color-interpolation-filters="sRGB"><feFlood flood-color="#fff" result="bg"/><feBlend in="SourceGraphic" in2="bg"/></filter><mask id="af" x="20.96" y="1.08" width="447.42" height="13.22" maskUnits="userSpaceOnUse"><g mask="url(#d)" filter="url(#ag)"><path d="M21,12.2s3-5.5,32.6-5.8,391.3,0,391.3,0,9.4-2,23.5,7.9c-.5-5.2-14.2-13.2-38-13.2H52.7S28.2,1.1,21,12.2Z" fill="url(#r)" style="mix-blend-mode:multiply"/></g></mask><linearGradient id="ah" x1="244.67" y1="11.76" x2="244.67" y2="-1.86" gradientTransform="matrix(1, 0, 0, 1, 0, 0)" xlink:href="#y"/><filter id="aj" x="20.96" y="985.86" width="447.42" height="13.22" filterUnits="userSpaceOnUse" color-interpolation-filters="sRGB"><feFlood flood-color="#fff" result="bg"/><feBlend in="SourceGraphic" in2="bg"/></filter><mask id="ai" x="20.96" y="985.86" width="447.42" height="13.22" maskUnits="userSpaceOnUse"><g mask="url(#d)" filter="url(#aj)"><path d="M468.4,988s-3.1,5.5-32.7,5.8-391.3,0-391.3,0-9.3,1.9-23.4-7.9c.5,5.2,14.1,13.2,37.9,13.2H436.7S461.2,999.1,468.4,988Z" fill="url(#f)" style="mix-blend-mode:multiply"/></g></mask><linearGradient id="ak" x1="-2274.97" y1="10.89" x2="-2274.97" y2="-2.73" gradientTransform="translate(-2030.3 999.3) rotate(180)" xlink:href="#y"/><linearGradient id="al" x1="150.89" y1="61.88" x2="150.89" y2="52.06" gradientUnits="userSpaceOnUse"><stop offset="0" stop-color="#3b3b3b"/><stop offset="1" stop-color="#161616"/></linearGradient><linearGradient id="am" x1="360.39" y1="54.52" x2="436.37" y2="54.52" gradientUnits="userSpaceOnUse"><stop offset="0" stop-color="#858585"/><stop offset="1" stop-color="#575757"/></linearGradient><linearGradient id="an" x1="360.38" y1="54.5" x2="436.38" y2="54.5" xlink:href="#am"/><linearGradient id="ao" x1="360.39" y1="54.52" x2="436.37" y2="54.52" xlink:href="#am"/><linearGradient id="ap" x1="360.32" y1="54.52" x2="436.39" y2="54.52" xlink:href="#am"/><linearGradient id="aq" x1="360.4" y1="54.52" x2="436.37" y2="54.52" xlink:href="#am"/><radialGradient id="ar" cx="245.85" cy="677.89" r="216.38" gradientTransform="translate(-1.2 209.4) scale(1 0.68)" gradientUnits="userSpaceOnUse"><stop offset="0" stop-color="#1c3192"/><stop offset="1" stop-color="#00257e"/></radialGradient><linearGradient id="as" x1="243.65" y1="723.09" x2="243.65" y2="99.51" gradientUnits="userSpaceOnUse"><stop offset="0" stop-color="#ffd03b"/><stop offset="1" stop-color="#d19918"/></linearGradient><linearGradient id="at" x1="197.58" y1="565.35" x2="464.7" y2="565.35" gradientUnits="userSpaceOnUse"><stop offset="0" stop-color="#149bd4"/><stop offset="1" stop-color="#0f55a8"/></linearGradient><linearGradient id="au" x1="31.52" y1="469.86" x2="197.58" y2="469.86" gradientUnits="userSpaceOnUse"><stop offset="0" stop-color="#0356bb"/><stop offset="1" stop-color="#037bd2"/></linearGradient><linearGradient id="av" x1="481.43" y1="195.82" x2="326.77" y2="463.69" gradientUnits="userSpaceOnUse"><stop offset="0" stop-color="#021c55"/><stop offset="1" stop-color="#042e8e"/></linearGradient><linearGradient id="aw" x1="333.53" y1="703.94" x2="339.65" y2="695.81" gradientUnits="userSpaceOnUse"><stop offset="0" stop-color="#00225c" stop-opacity="0"/><stop offset="0.19" stop-color="#00225c" stop-opacity="0.06"/><stop offset="0.41" stop-color="#00225c" stop-opacity="0.22"/><stop offset="0.65" stop-color="#00225c" stop-opacity="0.48"/><stop offset="0.91" stop-color="#00225c" stop-opacity="0.85"/><stop offset="1" stop-color="#00225c"/></linearGradient></defs><title>Android</title><rect x="1.3" y="2.6" width="487" height="994.79" rx="48"/><path d="M441.3,0H48.2A48.2,48.2,0,0,0,0,48.2V951.8A48.2,48.2,0,0,0,48.2,1000H441.3a48.2,48.2,0,0,0,48.2-48.2V48.2A48.2,48.2,0,0,0,441.3,0Zm38.5,951.8a38.6,38.6,0,0,1-38.5,38.5H48.2A38.6,38.6,0,0,1,9.7,951.8V48.2A38.6,38.6,0,0,1,48.2,9.7H441.3a38.6,38.6,0,0,1,38.5,38.5Z" fill="#6b6b6b"/><rect x="196.2" y="921.7" width="94.9" height="29.13" rx="9" fill="url(#s)"/><rect x="197.3" y="922.7" width="92.7" height="26.98" rx="7.9"/><g mask="url(#t)"><path d="M22.8,956.6c-.5-8.8-.5-906.4,0-915.2a30.5,30.5,0,0,1,5-15.9c3.9-5.7,6.9-7,6.5-8.8s-6.4.1-9.8,2.7A29.8,29.8,0,0,0,13.2,41.9c-.4,15.4-.4,898.8,0,914.2a30.1,30.1,0,0,0,11.3,22.6c3.4,2.5,9.5,4.3,9.8,2.6s-2.6-3.1-6.5-8.8A30.3,30.3,0,0,1,22.8,956.6Z" opacity="0.6" fill="url(#v)"/></g><g mask="url(#w)"><path d="M465.5,41.4c.5,8.8.5,906.4,0,915.2a30.3,30.3,0,0,1-5,15.9c-3.9,5.7-6.8,7.1-6.5,8.8s6.5-.1,9.8-2.7a29.4,29.4,0,0,0,11.3-22.5c.4-15.4.4-898.8,0-914.2a29.5,29.5,0,0,0-11.3-22.5c-3.3-2.6-9.5-4.4-9.8-2.7s2.6,3.1,6.5,8.8A30.5,30.5,0,0,1,465.5,41.4Z" opacity="0.6" fill="url(#y)"/></g><g mask="url(#z)"><path d="M20.4,13.2S1.8,24.5,1.8,46.5v909s.4,16.8,16.4,31.7c-6.4-10.8-12.1-14.7-12.1-37.4s.2-903.7.2-903.7S5.5,26.4,20.4,13.2Z" fill="url(#ab)"/></g><g mask="url(#ac)"><path d="M469.1,987.2s18.6-11.2,18.6-33.3V44.9s-.4-16.8-16.3-31.7c6.3,10.9,12,14.7,12,37.4s-.2,903.7-.2,903.7S484,974,469.1,987.2Z" fill="url(#ae)"/></g><g mask="url(#af)"><path d="M21,12.2s3-5.5,32.6-5.8,391.3,0,391.3,0,9.4-2,23.5,7.9c-.5-5.2-14.2-13.2-38-13.2H52.7S28.2,1.1,21,12.2Z" fill="url(#ah)"/></g><g mask="url(#ai)"><path d="M468.4,988s-3.1,5.5-32.7,5.8-391.3,0-391.3,0-9.3,1.9-23.4-7.9c.5,5.2,14.1,13.2,37.9,13.2H436.7S461.2,999.1,468.4,988Z" fill="url(#ak)"/></g><path d="M163,53.2A12.2,12.2,0,1,1,150.9,41,12.2,12.2,0,0,1,163,53.2Z" fill="url(#al)"/><path d="M156.1,53.2a5.2,5.2,0,1,1-5.2-5.2A5.2,5.2,0,0,1,156.1,53.2Z" fill="#141414"/><circle cx="150.9" cy="53.2" r="3.9" fill="#2a2a2a"/><path d="M153.6,53.2a2.7,2.7,0,1,1-2.7-2.7A2.7,2.7,0,0,1,153.6,53.2Z" fill="#131313"/><path d="M152.1,53.9c.7-.6,1.6-.7,2-.2s.2,1.3-.5,1.9-1.6.8-2,.3A1.5,1.5,0,0,1,152.1,53.9Z" fill="#404040"/><path d="M152.5,54.9c.3-.2.7-.3.9-.1a.8.8,0,0,1-.2.9.6.6,0,0,1-.9.1C152.1,55.6,152.2,55.2,152.5,54.9Z" fill="#4d4d4d"/><path d="M150.8,51.8a.9.9,0,0,1-.8.8.8.8,0,0,1-.8-.8.7.7,0,0,1,.8-.8A.8.8,0,0,1,150.8,51.8Z" fill="#767676"/><path d="M149.6,53.3a.5.5,0,0,1-.5.5c-.4,0-.6-.2-.6-.5a.5.5,0,0,1,.6-.6C149.4,52.7,149.6,52.9,149.6,53.3Z" fill="#888"/><path d="M149.6,52.5a.4.4,0,1,1-.8,0,.4.4,0,1,1,.8,0Z" fill="#959595"/><path d="M363.7,60.1h-3.8V48.9h6.6l7.5,8.4V48.9h3.8V60.1h-6.4l-7.7-8.5Z" fill="url(#am)"/><path d="M396.1,56.7a3.3,3.3,0,0,1-.9,2.6c-.8.7-2,1-4.2,1h-6.5c-2.3,0-3.5-.3-4.3-1a3.3,3.3,0,0,1-.8-2.6V52.3a3.3,3.3,0,0,1,.8-2.6c.8-.7,2-1,4.3-1H391c2.2,0,3.4.3,4.2,1a3.3,3.3,0,0,1,.9,2.6Zm-5.3.7c.9,0,1.2,0,1.4-.2s.3-.3.3-1V52.8c0-.7-.1-.9-.3-1s-.5-.2-1.4-.2h-6.2c-.9,0-1.2,0-1.4.2s-.3.3-.3,1v3.4c0,.7.1.9.3,1s.5.2,1.4.2Z" fill="url(#an)"/><path d="M401.6,48.9V60.1h-4V48.9Zm6.7,0h5.3l-7.1,5.3,8,5.9h-5.6l-7.3-5.8Z" fill="url(#ao)"/><path d="M419.2,48.9V60.1h-4V48.9Z" fill="url(#ap)"/><path d="M434.4,60.1l-1.2-1.9h-7.7l-1.2,1.9h-4.4L427,48.9h4.9L439,60.1Zm-7.5-4.4h4.9l-2.5-4Z" fill="url(#aq)"/><path d="M259.1,79a7,7,0,0,1-7,7H237.2a7,7,0,0,1-7-7h0a7,7,0,0,1,7-7h14.9a7,7,0,0,1,7,7Z" fill="#101010"/><path d="M326,53.9a2.7,2.7,0,1,1-2.7-2.6A2.6,2.6,0,0,1,326,53.9Z" fill="#191919"/><path d="M283.5,53.8a6.1,6.1,0,0,1-6.2,6.1H212a6.1,6.1,0,0,1-6.1-6.1h0a6.1,6.1,0,0,1,6.1-6.1h65.3a6.2,6.2,0,0,1,6.2,6.1Z" fill="#1a1a1a"/><path d="M212,57.8a4,4,0,0,1,0-7.9h65.3a4,4,0,1,1,0,7.9Z" fill="#0b0b0b"/><path d="M212,56.7a2.9,2.9,0,0,1-2.9-2.9A2.8,2.8,0,0,1,212,51h65.3a2.8,2.8,0,0,1,2.9,2.8,2.9,2.9,0,0,1-2.9,2.9Z" fill="#181818"/><path d="M277.8,49.3a.7.7,0,0,1-.7.6H212.7a.6.6,0,0,1-.6-.6h0a.6.6,0,0,1,.6-.6h64.4a.7.7,0,0,1,.7.6Z" fill="#282828"/><path d="M282.1,56.7a.8.8,0,0,1-1.6,0,.8.8,0,0,1,1.6,0Zm-1.9.5a.6.6,0,0,0,0,1.2.6.6,0,0,0,0-1.2Zm-1.4,1.2a.3.3,0,0,0-.3.3c0,.1.1.2.3.2s.3-.1.3-.2A.3.3,0,0,0,278.8,58.4Zm-71.5-3.6a.9.9,0,0,0-.8.8.8.8,0,0,0,1.6,0A.9.9,0,0,0,207.3,54.8Zm.8,1.9c-.4,0-.6.2-.6.5a.6.6,0,0,0,.6.6.6.6,0,0,0,.5-.6A.5.5,0,0,0,208.1,56.7Zm1,1.1a.3.3,0,0,0-.3.3.5.5,0,0,0,.3.3.3.3,0,0,0,.3-.3A.3.3,0,0,0,209.1,57.8Z" fill="#d0d0d0"/><rect x="361.1" y="928.5" width="15.5" height="15.5" rx="2.6" fill="none" stroke="#717171" stroke-miterlimit="10" stroke-width="0.96"/><polygon points="122.4 945.1 107.1 936.2 122.4 927.4 122.4 945.1" fill="none" stroke="#717171" stroke-miterlimit="10" stroke-width="0.96"/><rect x="9.7" y="9.7" width="470.1" height="980.55" rx="38.5" fill="none" stroke="#b1b1b1" stroke-miterlimit="10" stroke-width="1.93"/><path d="M489.5,143.2h0V257.5h0a2.4,2.4,0,0,0,2.2-2.3V145.4A2.2,2.2,0,0,0,489.5,143.2Z" fill="#6b6b6b"/><path d="M489.5,265.3h0v58.3h0a2.4,2.4,0,0,0,2.2-2.3V267.6A2.4,2.4,0,0,0,489.5,265.3Z" fill="#6b6b6b"/><rect x="480.3" y="62.7" width="9.2" height="12.77" fill="#fff" opacity="0.3"/><rect x="480.3" y="922.1" width="9.2" height="12.77" fill="#fff" opacity="0.3"/><rect y="62.7" width="9.2" height="12.77" fill="#fff" opacity="0.3"/><rect y="922.1" width="9.2" height="12.77" fill="#fff" opacity="0.3"/><rect x="355" width="16.6" height="8.43" fill="#fff" opacity="0.3"/><rect x="22.6" y="467.1" width="442.1" height="411.73" fill="url(#ar)"/><polygon points="22.6 99.5 464.7 99.5 464.7 186 31.6 458.2 212.9 597.6 22.6 723.1 22.6 99.5" fill="url(#as)"/><polygon points="211.2 345.3 197.6 353.9 197.6 585.8 464.7 785.4 464.7 543.3 211.2 345.3" fill="url(#at)"/><polygon points="197.6 585.8 197.6 353.9 31.5 458.2 197.6 585.8" fill="url(#au)"/><polygon points="464.7 543.3 211.2 345.3 464.7 186.2 464.7 543.3 464.7 543.3" fill="url(#av)"/><polygon points="198.4 607.1 464.7 806 464.7 785.4 213.5 597.3 198.4 607.1" fill="url(#aw)"/><circle cx="232.5" cy="770.9" r="3.9" fill="#fff"/><circle cx="245.8" cy="770.9" r="5.1" fill="#fff"/><circle cx="259.1" cy="770.9" r="3.9" fill="#fff"/><rect x="32.4" y="138.8" width="421.8" height="58.91" rx="2" fill="#fff"/><path d="M125,163.7c4.4,0,5.5,4.3,5.5,4.3l-8.2,3.3a3,3,0,0,0,3,1.7,3.9,3.9,0,0,0,3-1.6l2.1,1.4a6.4,6.4,0,0,1-5.1,2.5,5.9,5.9,0,0,1-6-5.7C119.3,167.4,120.7,163.7,125,163.7Zm-.2,2.2a2.8,2.8,0,0,1,2.6,1.2l-5.5,2.2S121.5,166.5,124.8,165.9Z" fill="#ef4131" fill-rule="evenodd"/><rect x="115.4" y="157.9" width="2.7" height="17.15" fill="#31aa52"/><ellipse cx="94.7" cy="169.5" rx="4.9" ry="4.7" fill="none" stroke="#fdbe07" stroke-miterlimit="10" stroke-width="2.4"/><ellipse cx="81.3" cy="169.5" rx="4.9" ry="4.7" fill="none" stroke="#ef4131" stroke-miterlimit="10" stroke-width="2.4"/><path d="M111.1,164v1.1a4.1,4.1,0,0,0-3.4-1.4,5.7,5.7,0,0,0-5.8,5.8,5.8,5.8,0,0,0,5.8,5.8,4.1,4.1,0,0,0,3.4-1.5V175a3.1,3.1,0,0,1-3.2,3.3,3.3,3.3,0,0,1-3.2-2.1l-2.3.9a5.7,5.7,0,0,0,5.4,3.4,5.4,5.4,0,0,0,5.8-5.6V164Zm-3.2,9.1a3.6,3.6,0,1,1,3.3-3.6A3.5,3.5,0,0,1,107.9,173.1Z" fill="#3182f6"/><path d="M65.4,165.5v2.4h6.2a6.8,6.8,0,0,1-6.5,4.9,6.5,6.5,0,1,1,0-13,6.9,6.9,0,0,1,4.8,1.9l1.7-1.7a9,9,0,0,0-6.6-2.7,9,9,0,1,0,9.3,9,1.9,1.9,0,0,0-.1-.8Z" fill="#3182f6"/><path d="M264.4,172.1a1.9,1.9,0,0,0-.1-.8,1.6,1.6,0,0,0-.4-.7l-.8-.6-1.3-.6-1.6-.6-1.2-.9a4.1,4.1,0,0,1-.7-1.1,3.7,3.7,0,0,1-.3-1.5,4,4,0,0,1,.3-1.5,2.5,2.5,0,0,1,.8-1.2,4.3,4.3,0,0,1,2.9-1.1,3.4,3.4,0,0,1,1.8.4,3,3,0,0,1,1.3.9,3.2,3.2,0,0,1,.8,1.4,4,4,0,0,1,.3,1.5h-1.8a3.1,3.1,0,0,0-.1-1,1.9,1.9,0,0,0-.5-.9,2,2,0,0,0-.7-.6L262,163l-1,.2a1.8,1.8,0,0,0-.7.5,1.6,1.6,0,0,0-.4.7,2.8,2.8,0,0,0-.1.9,2,2,0,0,0,.6,1.5,5.3,5.3,0,0,0,2,1l1.7.8a3.8,3.8,0,0,1,1.2.9,3.5,3.5,0,0,1,.7,1.2,5.9,5.9,0,0,1,.2,1.4,4.1,4.1,0,0,1-.3,1.6,4.4,4.4,0,0,1-.8,1.1,3.5,3.5,0,0,1-1.3.8,4.7,4.7,0,0,1-1.7.3,4.1,4.1,0,0,1-1.6-.3,7.1,7.1,0,0,1-1.5-.8,6.4,6.4,0,0,1-1-1.3,5.8,5.8,0,0,1-.4-1.9h1.8a3.7,3.7,0,0,0,.2,1.2,2,2,0,0,0,.6.9l.8.5h1.1a2.2,2.2,0,0,0,1.7-.5A2.4,2.4,0,0,0,264.4,172.1Zm9.2,3.6-.2-.5v-.7l-.4.5-.6.5-.6.2-.7.2-1.3-.2-.9-.6a2.1,2.1,0,0,1-.6-1,4.4,4.4,0,0,1-.2-1.3,5.1,5.1,0,0,1,.2-1.3,3.1,3.1,0,0,1,.8-1.1,4.1,4.1,0,0,1,1.3-.8l1.8-.2h1.1v-1.1a1.8,1.8,0,0,0-.4-1.4,1.9,1.9,0,0,0-1.2-.3h-.8l-.5.3-.3.5a1.4,1.4,0,0,0-.2.7h-1.6a2,2,0,0,1,.2-1.1,3.6,3.6,0,0,1,.7-1,2.6,2.6,0,0,1,1.1-.7,3.3,3.3,0,0,1,1.5-.3l1.3.2,1,.5a3.6,3.6,0,0,1,.7,1,6.1,6.1,0,0,1,.2,1.5v5.6a1.3,1.3,0,0,1,.1.6,4.3,4.3,0,0,0,.1.5c.1.2.1.4.2.5v.2Zm-2.3-1.4h.7l.6-.3.4-.4c.2-.1.3-.2.3-.4v-2.5h-.9l-1.1.2-.8.4a1,1,0,0,0-.5.6,1.1,1.1,0,0,0-.2.8,1.9,1.9,0,0,0,.1.8.5.5,0,0,0,.3.5c.1.2.2.3.4.3Zm9-1.5,1.9-7.5H284l-3.4,12-.3.8a5.6,5.6,0,0,1-.5.8l-.8.7a1.7,1.7,0,0,1-1,.3h-.5c-.1,0-.2,0-.2-.1h-.2v-1.4h1a.5.5,0,0,0,.5-.3,1,1,0,0,0,.4-.5l.3-.8.3-1-3-10.3h1.8Zm9.6-8.6a13616113593765.8,13616113593765.8,0,0,0,.4-1.8l.5-.9a2.3,2.3,0,0,1,.7-.7l.9.6-.6,1.3a7.7,7.7,0,0,0-.2,1.5v1.2h-1.7Zm2.8,0a2.8,2.8,0,0,1,.1-.9,1.6,1.6,0,0,1,.3-.9l.4-.9a2.3,2.3,0,0,1,.7-.7l.9.6a11.2,11.2,0,0,0-.5,1.3,3.9,3.9,0,0,0-.2,1.5v1.2h-1.7Zm13.3,5.7a9.8,9.8,0,0,1-.3,2.6,5.6,5.6,0,0,1-.9,1.9,4.2,4.2,0,0,1-1.5,1.1,5.8,5.8,0,0,1-1.9.4,6.5,6.5,0,0,1-2-.4,4.9,4.9,0,0,1-1.4-1.1,4.4,4.4,0,0,1-1-1.9,9.8,9.8,0,0,1-.3-2.6v-2.4a9.8,9.8,0,0,1,.3-2.6,4.8,4.8,0,0,1,.9-1.9,3.9,3.9,0,0,1,1.5-1.1,4.1,4.1,0,0,1,1.9-.4,4.2,4.2,0,0,1,2,.4,3.3,3.3,0,0,1,1.5,1.1,4.8,4.8,0,0,1,.9,1.9,9.8,9.8,0,0,1,.3,2.6Zm-1.7-2.4a10.3,10.3,0,0,0-.2-2,3,3,0,0,0-.6-1.4,2.4,2.4,0,0,0-.9-.8l-1.3-.2-1.2.2a3.4,3.4,0,0,0-.9.8,3,3,0,0,0-.6,1.4,10.3,10.3,0,0,0-.2,2v2.4a11.2,11.2,0,0,0,.2,2,3,3,0,0,0,.6,1.4,2.9,2.9,0,0,0,2.2,1,2.4,2.4,0,0,0,1.2-.3,1.6,1.6,0,0,0,.9-.7,3,3,0,0,0,.6-1.4,11.2,11.2,0,0,0,.2-2Zm6.8,3.4-.9,1.1v3.7h-1.7V160.9h1.7v8.8l.8-1,2.4-3.4h2.1l-3.3,4.3,3.7,6.1h-2Zm19.7,3-.5.6-.7.6-1.2.5a4.8,4.8,0,0,1-1.8.3,6.5,6.5,0,0,1-2-.4,5.3,5.3,0,0,1-1.5-1.1,7.7,7.7,0,0,1-1-1.8,10.3,10.3,0,0,1-.3-2.6v-2.6c0-3.9,1.5-5.9,4.6-5.9a5.8,5.8,0,0,1,1.9.3,5.7,5.7,0,0,1,1.3.8,3.9,3.9,0,0,1,.8,1.4,4.8,4.8,0,0,1,.4,1.8h-1.7a3.4,3.4,0,0,0-.8-2,2.2,2.2,0,0,0-1.8-.8,2.9,2.9,0,0,0-1.4.3,1.8,1.8,0,0,0-.9.8,4.6,4.6,0,0,0-.5,1.4,9,9,0,0,0-.2,1.8V170a10.1,10.1,0,0,0,.2,1.9,4.6,4.6,0,0,0,.7,1.4,2,2,0,0,0,1,.8,2.4,2.4,0,0,0,1.2.3h1.1l.6-.3.5-.3.3-.3v-3.2h-2.6v-1.5h4.3Zm2.3-3.9a6.6,6.6,0,0,1,.3-2.1,6,6,0,0,1,.8-1.6,3.8,3.8,0,0,1,1.3-.9,4.1,4.1,0,0,1,1.6-.3,3.7,3.7,0,0,1,1.5.3,3,3,0,0,1,1.3.9,4.2,4.2,0,0,1,.9,1.6,6.6,6.6,0,0,1,.3,2.1v1a6.6,6.6,0,0,1-.3,2.1,3.8,3.8,0,0,1-.9,1.5,3.4,3.4,0,0,1-1.2.9,3.2,3.2,0,0,1-1.6.4,2.9,2.9,0,0,1-1.6-.4,3.8,3.8,0,0,1-1.3-.9,5.3,5.3,0,0,1-.8-1.5,6.6,6.6,0,0,1-.3-2.1Zm1.7,1a7.1,7.1,0,0,0,.1,1.5,4.6,4.6,0,0,0,.5,1,2.7,2.7,0,0,0,.8.7l.9.2c1.5,0,2.3-1.1,2.3-3.4v-1a6.1,6.1,0,0,0-.2-1.5,3.7,3.7,0,0,0-.5-1.1,1.3,1.3,0,0,0-.7-.6,1.5,1.5,0,0,0-.9-.2c-.4,0-.7,0-.9.2a1.6,1.6,0,0,0-.8.6,11.7,11.7,0,0,0-.5,1.1,6.6,6.6,0,0,0-.1,1.5Zm8.1-1a6.6,6.6,0,0,1,.3-2.1,4.2,4.2,0,0,1,.9-1.6,3,3,0,0,1,1.3-.9,3.7,3.7,0,0,1,1.5-.3,4.1,4.1,0,0,1,1.6.3,3.8,3.8,0,0,1,1.3.9,6,6,0,0,1,.8,1.6,6.6,6.6,0,0,1,.3,2.1v1a6.6,6.6,0,0,1-.3,2.1,5.3,5.3,0,0,1-.8,1.5,3.8,3.8,0,0,1-1.3.9,2.9,2.9,0,0,1-1.6.4,2.6,2.6,0,0,1-1.5-.4,3,3,0,0,1-1.3-.9,3.8,3.8,0,0,1-.9-1.5,6.6,6.6,0,0,1-.3-2.1Zm1.7,1a6.8,6.8,0,0,0,.2,1.5,3.3,3.3,0,0,0,1.2,1.7l.9.2c1.6,0,2.3-1.1,2.3-3.4v-1a6.6,6.6,0,0,0-.1-1.5,11.7,11.7,0,0,0-.5-1.1,1.6,1.6,0,0,0-.8-.6,1.3,1.3,0,0,0-.9-.2,1.5,1.5,0,0,0-.9.2,1.3,1.3,0,0,0-.7.6,3.7,3.7,0,0,0-.5,1.1,6.1,6.1,0,0,0-.2,1.5Zm8.2-1a13.8,13.8,0,0,1,.2-2.2,5.2,5.2,0,0,1,.7-1.5,3.1,3.1,0,0,1,1.1-.9,3.2,3.2,0,0,1,1.4-.3,3.3,3.3,0,0,1,1.5.3,2.8,2.8,0,0,1,.9,1v-1.1h1.6v10.4a4.8,4.8,0,0,1-.3,1.8,2.9,2.9,0,0,1-.8,1.3,3.5,3.5,0,0,1-1.2.7,3.4,3.4,0,0,1-1.5.2h-.7l-.9-.3-.8-.4a2,2,0,0,1-.7-.6l.7-1.1,1.1.8,1.2.2h.9a1.8,1.8,0,0,0,.7-.5c.2-.1.3-.4.4-.7a3.7,3.7,0,0,0,.2-1.2v-1.2a2.8,2.8,0,0,1-1,.9,2.9,2.9,0,0,1-1.4.4,3.2,3.2,0,0,1-1.4-.3,3.5,3.5,0,0,1-1.1-1,5.2,5.2,0,0,1-.7-1.5,12.5,12.5,0,0,1-.2-2.1Zm1.7,1a5.2,5.2,0,0,0,.5,2.5,1.8,1.8,0,0,0,1.7.9,1.8,1.8,0,0,0,1.1-.4,3.4,3.4,0,0,0,.8-.9v-5.2a2.4,2.4,0,0,0-.8-.9,1.5,1.5,0,0,0-1.1-.4,1.9,1.9,0,0,0-1.7.8,5.7,5.7,0,0,0-.5,2.6Zm10.1,4.7h-1.7V160.9h1.7Zm6.4.2a4.7,4.7,0,0,1-1.7-.3,3.8,3.8,0,0,1-1.3-.9,4.7,4.7,0,0,1-.8-1.4,12.5,12.5,0,0,1-.2-2.1v-1.1a8.3,8.3,0,0,1,.3-2.4,5.3,5.3,0,0,1,.8-1.5,2.6,2.6,0,0,1,1.3-.8,3.2,3.2,0,0,1,1.4-.3,4.7,4.7,0,0,1,1.7.3,2.6,2.6,0,0,1,1.1,1,3.4,3.4,0,0,1,.6,1.5,6.8,6.8,0,0,1,.2,2.1v1h-5.8v.2a3.8,3.8,0,0,0,.7,2.4,1.9,1.9,0,0,0,1.8.8h.8l.6-.2.5-.4.5-.5.8,1.1-.5.6-.7.5-.9.3Zm-.2-9.3H370a1.2,1.2,0,0,0-.7.5,1.9,1.9,0,0,0-.4.9,5.2,5.2,0,0,0-.2,1.4h4v-.2a3.7,3.7,0,0,0-.1-1.1l-.3-.9a1,1,0,0,0-.6-.5C371.5,166.6,371.2,166.6,370.8,166.6Zm7.4-4.4c0,.3-.1.6-.1.9l-.3.9a4.1,4.1,0,0,1-.5.9l-.6.7-1-.7a3.1,3.1,0,0,0,.6-1.3,5.9,5.9,0,0,0,.2-1.4v-1.3h1.7Zm2.6,0a2.8,2.8,0,0,1-.1.9,1.6,1.6,0,0,1-.3.9,3.6,3.6,0,0,1-.4.9,2.3,2.3,0,0,1-.7.7l-.9-.7.6-1.3a5.9,5.9,0,0,0,.2-1.4v-1.3h1.6Z" fill="#b0b0b0" fill-rule="evenodd"/><path d="M419.9,172a3.8,3.8,0,0,0,3.7-4v-8a3.7,3.7,0,1,0-7.4,0v8A3.8,3.8,0,0,0,419.9,172Z" fill="#4086f8" fill-rule="evenodd"/><path d="M426.4,168.3a6.5,6.5,0,0,1-13,0h-2.1a8.5,8.5,0,0,0,7.4,8.2v4.1h2.4v-4.1a8.5,8.5,0,0,0,7.4-8.2Z" fill="#ef4131"/><path d="M414.6,174.7l1.1-1.6a6,6,0,0,1-2.3-4.8h-2.1A8,8,0,0,0,414.6,174.7Z" fill="#f3ab0b" fill-rule="evenodd"/><rect x="418.7" y="176.5" width="2.5" height="4.05" fill="#31aa52"/><rect x="22.6" y="99.6" width="442.1" height="25.77" fill="#a18123"/><polygon points="372.1 118.8 384.8 118.8 384.8 106.1 372.1 118.8" fill="#fff" fill-opacity="0.9" fill-rule="evenodd"/><rect x="399.5" y="109.8" width="8.4" height="9.52" fill="#fff" fill-opacity="0.9"/><polygon points="405.9 106.6 405.9 105.6 401.7 105.6 401.7 106.6 399.5 106.6 399.5 109.8 408 109.8 408 106.6 405.9 106.6" fill="#fff" fill-opacity="0.3" fill-rule="evenodd"/><path d="M420.6,117.3h-1.3v-8.2l-2.5.9v-1.1l3.6-1.4h.2Zm5.4-5.4h.9a2.6,2.6,0,0,0,1.4-.5,1.7,1.7,0,0,0,.5-1.2,1.5,1.5,0,0,0-1.7-1.7,1.8,1.8,0,0,0-1.3.4,1.7,1.7,0,0,0-.5,1.2h-1.2a2.7,2.7,0,0,1,.8-1.9,3.4,3.4,0,0,1,4.4,0,2.6,2.6,0,0,1,.8,2,2.1,2.1,0,0,1-.5,1.2,2,2,0,0,1-1.1.9,2.5,2.5,0,0,1,1.3.9,2.3,2.3,0,0,1,.4,1.4,2.6,2.6,0,0,1-.9,2.1,3.4,3.4,0,0,1-4.4,0,2.3,2.3,0,0,1-.9-1.9h1.3a1.3,1.3,0,0,0,.5,1.2,1.7,1.7,0,0,0,1.3.5,1.7,1.7,0,0,0,1.9-1.9,1.6,1.6,0,0,0-.6-1.3,2.1,2.1,0,0,0-1.5-.4H426Zm6,4.8a.8.8,0,0,1,.2-.5.6.6,0,0,1,.6-.3.5.5,0,0,1,.5.3c.2.1.2.3.2.5s0,.4-.2.5l-.5.2-.6-.2A.8.8,0,0,1,432,116.7Zm0-5.9a1.4,1.4,0,0,1,.2-.6l.6-.2.5.2a.7.7,0,0,1,.2.6.6.6,0,0,1-.2.5l-.5.2-.6-.2C432.1,111.1,432,111,432,110.8Zm9.4,2.4a5.6,5.6,0,0,1-.8,3.2,2.7,2.7,0,0,1-2.3,1.1,2.6,2.6,0,0,1-2.3-1.1,5.2,5.2,0,0,1-.8-3.1v-1.6a5.6,5.6,0,0,1,.7-3.2,2.8,2.8,0,0,1,2.4-1.1,2.7,2.7,0,0,1,2.3,1.1,5.8,5.8,0,0,1,.8,3.1Zm-1.3-1.7a4.5,4.5,0,0,0-.4-2.3,1.5,1.5,0,0,0-1.4-.7,1.4,1.4,0,0,0-1.4.7,4.2,4.2,0,0,0-.5,2.2v2a4.6,4.6,0,0,0,.5,2.3,1.6,1.6,0,0,0,1.4.8,1.6,1.6,0,0,0,1.3-.7,4.6,4.6,0,0,0,.5-2.3Zm9,1.7a5.6,5.6,0,0,1-.8,3.2,2.7,2.7,0,0,1-2.3,1.1,2.6,2.6,0,0,1-2.3-1.1,5.2,5.2,0,0,1-.8-3.1v-1.6a5.6,5.6,0,0,1,.7-3.2,2.8,2.8,0,0,1,2.4-1.1,2.7,2.7,0,0,1,2.3,1.1,5.8,5.8,0,0,1,.8,3.1Zm-1.3-1.7a4.5,4.5,0,0,0-.4-2.3,1.5,1.5,0,0,0-1.4-.7,1.4,1.4,0,0,0-1.4.7,4.2,4.2,0,0,0-.5,2.2v2a4.6,4.6,0,0,0,.5,2.3,1.6,1.6,0,0,0,1.4.8,1.7,1.7,0,0,0,1.4-.7,4.7,4.7,0,0,0,.4-2.3Z" fill="#fff" fill-opacity="0.9"/><path d="M40.6,117.3H39.3l-5-7.5v7.5H33v-9.7h1.3l5,7.5v-7.5h1.3Zm1.7-3.7a5.8,5.8,0,0,1,.4-1.9,3.7,3.7,0,0,1,1.2-1.3,3.3,3.3,0,0,1,1.7-.4,3,3,0,0,1,2.4,1,4,4,0,0,1,.9,2.7h0a4.1,4.1,0,0,1-.4,1.9,2.5,2.5,0,0,1-1.2,1.3,3.1,3.1,0,0,1-1.7.5,3.3,3.3,0,0,1-2.4-1,4.1,4.1,0,0,1-.9-2.8Zm1.3.2a2.9,2.9,0,0,0,.5,1.9,1.8,1.8,0,0,0,3,0,3.3,3.3,0,0,0,.6-2.1,3.1,3.1,0,0,0-.6-1.9,2,2,0,0,0-3,0A3.3,3.3,0,0,0,43.6,113.8ZM57,113a5.3,5.3,0,0,1-2.5-1.2,2.1,2.1,0,0,1-.7-1.7,2.3,2.3,0,0,1,.9-1.9,3.6,3.6,0,0,1,2.4-.8,4.8,4.8,0,0,1,1.8.4,4.3,4.3,0,0,1,1.2,1.1,3,3,0,0,1,.5,1.5H59.3a1.7,1.7,0,0,0-.6-1.4,2.5,2.5,0,0,0-1.6-.5,2.4,2.4,0,0,0-1.5.4,1.7,1.7,0,0,0-.5,1.2,1.4,1.4,0,0,0,.5,1,5.4,5.4,0,0,0,1.7.8,5.8,5.8,0,0,1,1.9.7,2.4,2.4,0,0,1,1,1,1.8,1.8,0,0,1,.4,1.3,2.2,2.2,0,0,1-1,1.9,4.3,4.3,0,0,1-2.4.7,5.8,5.8,0,0,1-1.9-.4,3.8,3.8,0,0,1-1.4-1.1,2.4,2.4,0,0,1-.4-1.5h1.3a1.7,1.7,0,0,0,.6,1.4,2.6,2.6,0,0,0,1.8.5,2.1,2.1,0,0,0,1.5-.4,1.3,1.3,0,0,0,.6-1.1,1.3,1.3,0,0,0-.5-1.1A5.1,5.1,0,0,0,57,113Zm6.6,4.3H62.3v-9.7h1.3Zm4-9.7,3.2,7.9,3.2-7.9h1.7v9.7H74.4v-7.9l-3.2,7.9h-1l-3.2-7.8.2,4v3.8H66v-9.7Z" fill="#fff"/><path d="M354.7,118.8,348,108a13,13,0,0,1,13.5,0Z" fill="#fff"/><path d="M437.6,810.8a4.7,4.7,0,0,1,4.7,4.7v1.4l-6.5,4.6-22.1,15.2-22.1-15.4v30.8H390a4.7,4.7,0,0,1-4.7-4.7V815.5a4.7,4.7,0,0,1,4.7-4.7l23.7,17.6,23.9-17.6Z" fill="#e75a4d"/><path d="M391.6,821.3v30.8h44.2V821.5l-22.1,15.2Z" fill="#f7f5ed"/><path d="M391.6,852.1l22.1-15.4h-.1l-22,15.1Z" fill="#b8b7ae"/><path d="M435.8,821.5v30.6l-22.1-15.4Z" fill="#b7b6ad"/><path d="M442.3,816.9v30.5c-.1,3.4-1.6,4.6-6.5,4.7V821.5l6.5-4.6Z" fill="#b2392f"/><path d="M390,810.8l23.7,17.6,23.9-17.6Z" fill="#f7f5ed"/><path d="M304.6,807.6a2.3,2.3,0,0,1,2.2-2.3h6a2.3,2.3,0,0,1,2.3,2.3v3.6a2.3,2.3,0,0,1-2.3,2.3h-6a2.2,2.2,0,0,1-2.2-2.3Z" fill="#848484"/><path d="M300.7,813a3.7,3.7,0,0,1,3.8-3.7h48.6a3.6,3.6,0,0,1,3.7,3.7v35.6a3.6,3.6,0,0,1-3.7,3.7H304.5a3.7,3.7,0,0,1-3.8-3.7Z" fill="#e4e4e4"/><path d="M333.8,833.5l-21-.5s2.8,11.3,13.7,12.8Z" fill="#92c654" fill-rule="evenodd"/><path d="M332.7,828s3.3,2.1.7,6.1-7.1,11.5-7.1,11.5,7.4,3.5,13.8-5.4Z" fill="#5d84c3" fill-rule="evenodd"/><path d="M327.8,836.2l-10.4-18.3s-8.2,8.3-3.9,18.3Z" fill="#fec226" fill-rule="evenodd"/><path d="M323.9,833l10.7-18.1s-11.2-3-17.8,5.7Z" fill="#ec7835" fill-rule="evenodd"/><path d="M324.5,827.8h21s-3-11.2-13.9-12.5Z" fill="#de5245" fill-rule="evenodd"/><path d="M328.5,825.6l10.3,18.3s8.2-8.3,4-18.3Z" fill="#4e5eaa" fill-rule="evenodd"/><path d="M329.1,816.8a14.4,14.4,0,1,1-14,14.3,14.1,14.1,0,0,1,14-14.3m0-3.6a18,18,0,1,0,17.6,17.9,17.8,17.8,0,0,0-17.6-17.9Z" fill="#f2f2f2"/><ellipse cx="350.3" cy="816" rx="2.7" ry="2.8" fill="#888"/><ellipse cx="329" cy="831" rx="5.3" ry="5.4" fill="#f2f2f2"/><path d="M272.8,828.8a29,29,0,1,1-29-29A29,29,0,0,1,272.8,828.8Zm-38.3-5.9a3.3,3.3,0,1,1-3.3-3.3A3.3,3.3,0,0,1,234.5,822.9Zm9.9,3.3a3.3,3.3,0,1,0-3.3-3.3A3.3,3.3,0,0,0,244.4,826.2Zm16.5-3.3a3.3,3.3,0,1,1-3.3-3.3A3.3,3.3,0,0,1,260.9,822.9Zm-3.3,16.5a3.3,3.3,0,1,0-3.3-3.3A3.3,3.3,0,0,0,257.6,839.4Zm-9.9-3.3a3.3,3.3,0,1,1-3.3-3.3A3.3,3.3,0,0,1,247.7,836.1Zm-16.5,3.3a3.3,3.3,0,1,0-3.2-3.3A3.3,3.3,0,0,0,231.2,839.4Z" fill="#f5f5f5" fill-rule="evenodd"/><path d="M181.1,813l5.8-7.3a1.8,1.8,0,0,0-1.5-2.9H148.7a4.7,4.7,0,0,0-4.7,4.7v29a4.7,4.7,0,0,0,4.7,4.7h27.7a4.7,4.7,0,0,0,4.7-4.7Z" fill="#e2e2e2" fill-rule="evenodd"/><path d="M173.8,812.3H151.3v3.6h22.5Zm0,7.3H151.3v3.6h22.5Zm-14.9,7.2h14.9v3.7H158.9Z" fill="#a7a7a7" fill-rule="evenodd"/><path d="M136.4,827.9c-.7-.9-3.6-4.6-5.8-7.2a1.9,1.9,0,0,1,1.5-3h36.7a4.7,4.7,0,0,1,4.7,4.7v27.8a4.7,4.7,0,0,1-4.7,4.7H141.1a4.7,4.7,0,0,1-4.7-4.7Z" fill="#00acf8" fill-rule="evenodd"/><path d="M143.6,827.2h22.6v3.7H143.6Zm0,7.3h22.6v3.6H143.6Zm14.9,7.3H143.6v3.6h14.9Z" fill="#eee" fill-rule="evenodd"/><path d="M88.9,853.6c.6-1.8,1.1-3.7,1.6-5.5a41.5,41.5,0,0,1-35.6-36.4,49.3,49.3,0,0,1-5.7.7C51.8,833.7,68.1,850.6,88.9,853.6Z" fill="#3767d6"/><path d="M50.1,818a94.8,94.8,0,0,1-1.4-10.7,3.5,3.5,0,0,1,3.4-3.6h9.3a2.7,2.7,0,0,1,2.7,2.7c0,1.6.1,3.5.2,4.3a39.9,39.9,0,0,0,1.6,6.4,2.3,2.3,0,0,1-.6,2.2L54.6,829.5A58.8,58.8,0,0,1,50.1,818Zm34.3,34.6A97.9,97.9,0,0,0,95.1,854a3.4,3.4,0,0,0,3.6-3.4v-9.3a2.7,2.7,0,0,0-2.7-2.7l-4.3-.2c-1.5-.2-4.6-1.1-6.4-1.6a2.1,2.1,0,0,0-2.1.6L72.8,848.2A63.9,63.9,0,0,0,84.4,852.6Z" fill="#4785f4" fill-rule="evenodd"/></svg>