<svg xmlns="http://www.w3.org/2000/svg" xmlns:xlink="http://www.w3.org/1999/xlink" viewBox="0 0 470.1 1000"><defs><filter id="b" x="7.87" y="-8632.75" width="398.22" height="32766" filterUnits="userSpaceOnUse" color-interpolation-filters="sRGB"><feFlood flood-color="#fff" result="bg"/><feBlend in="SourceGraphic" in2="bg"/></filter><mask id="a" x="7.87" y="-8632.75" width="398.22" height="32766" maskUnits="userSpaceOnUse"><g filter="url(#b)"/></mask><linearGradient id="c" x1="-16.56" y1="74.82" x2="106.22" y2="178.84" gradientUnits="userSpaceOnUse"><stop offset="0.01" stop-color="#fff"/><stop offset="0.69"/></linearGradient><filter id="e" x="464.85" y="-8632.75" width="3.15" height="32766" filterUnits="userSpaceOnUse" color-interpolation-filters="sRGB"><feFlood flood-color="#fff" result="bg"/><feBlend in="SourceGraphic" in2="bg"/></filter><mask id="d" x="464.85" y="-8632.75" width="3.15" height="32766" maskUnits="userSpaceOnUse"><g filter="url(#e)"/></mask><linearGradient id="f" x1="467.52" y1="261.28" x2="463.96" y2="261.28" gradientUnits="userSpaceOnUse"><stop offset="0.31"/><stop offset="0.36" stop-color="#343434"/><stop offset="0.42" stop-color="#696969"/><stop offset="0.48" stop-color="#979797"/><stop offset="0.54" stop-color="#bdbdbd"/><stop offset="0.6" stop-color="#dadada"/><stop offset="0.66" stop-color="#eee"/><stop offset="0.72" stop-color="#fbfbfb"/><stop offset="0.77" stop-color="#fff"/></linearGradient><linearGradient id="i" x1="467.52" y1="431.27" x2="463.96" y2="431.27" xlink:href="#f"/><clipPath id="j"><path d="M261.3,38.8a4.2,4.2,0,0,1-4.2,4.2H212a4.1,4.1,0,0,1-4.2-4.2h0a4.2,4.2,0,0,1,4.2-4.2h45.1a4.2,4.2,0,0,1,4.2,4.2Z" fill="none"/></clipPath><linearGradient id="k" x1="234.52" y1="41.15" x2="234.52" y2="34.62" gradientUnits="userSpaceOnUse"><stop offset="0" stop-color="#464646"/><stop offset="1" stop-color="#151515"/></linearGradient><linearGradient id="l" x1="234.52" y1="43.04" x2="234.52" y2="37.76" xlink:href="#k"/><linearGradient id="m" x1="108.64" y1="244.72" x2="108.64" y2="229.53" gradientTransform="matrix(0.95, -0.3, 0.3, 0.95, -55.28, -148.02)" xlink:href="#k"/><linearGradient id="n" x1="59.99" y1="381.31" x2="59.99" y2="372.2" gradientTransform="translate(-128 -246.7) rotate(-31.6)" xlink:href="#k"/><linearGradient id="o" x1="119.09" y1="44.76" x2="119.09" y2="39.29" xlink:href="#k"/><linearGradient id="p" x1="-28.15" y1="56.48" x2="433.17" y2="464.02" gradientUnits="userSpaceOnUse"><stop offset="0.01" stop-color="#bebebe"/><stop offset="0.05" stop-color="#a6a6a6"/><stop offset="0.45" stop-color="#151515"/></linearGradient><filter id="r" x="7.87" y="7.58" width="398.22" height="510.78" filterUnits="userSpaceOnUse" color-interpolation-filters="sRGB"><feFlood flood-color="#fff" result="bg"/><feBlend in="SourceGraphic" in2="bg"/></filter><mask id="q" x="7.87" y="7.58" width="398.22" height="510.78" maskUnits="userSpaceOnUse"><g mask="url(#a)" filter="url(#r)"><path d="M12.1,76.6c0-19.2,6.9-35.9,16.2-46.2S54.1,12.1,73.5,12.1c0,0,237.1-1.6,332.6-1.6C357.8,6.3,70.3,7.9,70.3,7.9c-20.6,0-36.4,5.9-47,17.6S7.9,53.2,7.9,73.5l.5,444.9Z" fill="url(#c)" style="mix-blend-mode:multiply"/></g></mask><linearGradient id="s" x1="-16.56" y1="74.82" x2="106.22" y2="178.84" gradientUnits="userSpaceOnUse"><stop offset="0.01" stop-color="#a6a6a6"/><stop offset="0.69" stop-color="#131313"/></linearGradient><linearGradient id="t" x1="467.47" y1="295.91" x2="467.47" y2="226.65" gradientUnits="userSpaceOnUse"><stop offset="0" stop-color="#7b7b7b"/><stop offset="0.05" stop-color="#9f9f9f"/><stop offset="0.08" stop-color="#9f9f9f"/><stop offset="0.95" stop-color="#9f9f9f"/><stop offset="0.95" stop-color="#9d9d9d"/><stop offset="0.97" stop-color="#8a8a8a"/><stop offset="0.98" stop-color="#7f7f7f"/><stop offset="1" stop-color="#7b7b7b"/></linearGradient><filter id="v" x="464.85" y="226.65" width="3.15" height="69.26" filterUnits="userSpaceOnUse" color-interpolation-filters="sRGB"><feFlood flood-color="#fff" result="bg"/><feBlend in="SourceGraphic" in2="bg"/></filter><mask id="u" x="464.85" y="226.65" width="3.15" height="69.26" maskUnits="userSpaceOnUse"><g mask="url(#d)" filter="url(#v)"><path d="M468,226.7c-2.1,0-3.2,4.1-3.2,7.3v52.5c0,4.2,1.1,9.4,3.2,9.4Z" fill="url(#f)" style="mix-blend-mode:multiply"/></g></mask><linearGradient id="w" x1="467.52" y1="261.28" x2="463.96" y2="261.28" gradientUnits="userSpaceOnUse"><stop offset="0.31" stop-color="#9f9f9f"/><stop offset="0.46" stop-color="#8c8c8c"/><stop offset="0.62" stop-color="#7f7f7f"/><stop offset="0.77" stop-color="#7b7b7b"/></linearGradient><linearGradient id="x" x1="467.47" y1="499.47" x2="467.47" y2="363.06" gradientUnits="userSpaceOnUse"><stop offset="0" stop-color="#1a1a1a"/><stop offset="0.04" stop-color="#393939"/><stop offset="0.07" stop-color="#393939"/><stop offset="0.96" stop-color="#393939"/><stop offset="0.97" stop-color="#292929"/><stop offset="0.99" stop-color="#1e1e1e"/><stop offset="1" stop-color="#1a1a1a"/></linearGradient><filter id="z" x="464.85" y="363.06" width="3.15" height="136.41" filterUnits="userSpaceOnUse" color-interpolation-filters="sRGB"><feFlood flood-color="#fff" result="bg"/><feBlend in="SourceGraphic" in2="bg"/></filter><mask id="y" x="464.85" y="363.06" width="3.15" height="136.41" maskUnits="userSpaceOnUse"><g mask="url(#d)" filter="url(#z)"><path d="M468,363.1c-2.1,0-3.2,4.2-3.2,7.3V490c0,4.2,1.1,9.5,3.2,9.5Z" fill="url(#i)" style="mix-blend-mode:multiply"/></g></mask><linearGradient id="aa" x1="467.52" y1="431.27" x2="463.96" y2="431.27" gradientUnits="userSpaceOnUse"><stop offset="0.31" stop-color="#676767"/><stop offset="0.41" stop-color="#525252"/><stop offset="0.53" stop-color="#3e3e3e"/><stop offset="0.65" stop-color="#313131"/><stop offset="0.77" stop-color="#2d2d2d"/></linearGradient></defs><title>Android8+</title><path d="M466.9,934.9c0,35.4-27.2,65.1-62.9,65.1H65.1C30.4,1000,0,974.8,0,934.9V73.5C0,29.4,23.1,0,70.3,0H393.5c50.4,0,73.4,31.5,73.4,67.2Z" fill="#3d3d3d"/><path d="M446.8,23c-12.4-12.6-31-19.3-53.6-19.3H70.6c-22,0-39.1,6.5-50.8,19.3S3.1,52.8,3.1,74.4V934c0,18.2,6.5,34,18.7,45.5s27,16.8,43.6,16.8H403.6a58.5,58.5,0,0,0,42.9-18.4A63,63,0,0,0,463.8,934V68.1C463.8,50.3,457.8,34.3,446.8,23Z" fill="#131313"/><path d="M447.2,22c-12.4-12.7-31-19.4-53.7-19.4H70.3C48.2,2.6,31,9.1,19.4,22S2.6,51.8,2.6,73.5V934.9c0,18.3,6.5,34,18.7,45.6s27.1,16.9,43.8,16.9H404a58.6,58.6,0,0,0,42.9-18.5,62.9,62.9,0,0,0,17.4-44V67.2C464.3,49.3,458.3,33.3,447.2,22Zm16.1,914.9a60.3,60.3,0,0,1-16.6,41.9,56,56,0,0,1-40.9,17.5H65.3a60.6,60.6,0,0,1-41.7-16c-11.7-11-17.8-26-17.8-43.4V73.6c0-20.9,5.5-38,16-49.5S49.3,5.8,70.6,5.8H395.3c21.9,0,39.8,6.4,51.7,18.5s16.3,25.9,16.3,43Z" fill="#6f6f6f"/><rect x="19.4" y="65.1" width="428.1" height="903.46" rx="44.1" fill="#252525"/><g clip-path="url(#j)"><path d="M261.3,36.7v-1h-1.1V33.6h-1v2.1h-1.1V33.6h-1v2.1H256V33.6h-1v2.1h-1.1V33.6h-1v2.1h-1.1V33.6h-1v2.1h-1.1V33.6h-1v2.1h-1.1V33.6h-1v2.1h-1.1V33.6h-1v2.1h-1.1V33.6h-1v2.1h-1.1V33.6h-1v2.1h-1.1V33.6h-1v2.1h-1.1V33.6h-1v2.1H235V33.6h-1v2.1h-1.1V33.6h-1v2.1h-1.1V33.6h-1v2.1h-1V33.6h-1.1v2.1h-1V33.6h-1.1v2.1h-1V33.6h-1.1v2.1h-1V33.6h-1.1v2.1h-1V33.6h-1.1v2.1h-1V33.6h-1.1v2.1h-1V33.6h-1.1v2.1h-1V33.6H213v2.1h-1V33.6h-1.1v2.1h-1V33.6h-1.1v2.1h-1v1h1v1.1h-1v1h1v1.1h-1v1h1V42h-1v1h1v1.1h1.1V43h1v1.1H212V43h1v1.1h1.1V43h1v1.1h1.1V43h1v1.1h1.1V43h1v1.1h1.1V43h1v1.1h1.1V43h1v1.1h1.1V43h1v1.1h1.1V43h1v1.1h1.1V43h1v1.1h1V43h1.1v1.1h1V43H234v1.1h1V43h1.1v1.1h1V43h1.1v1.1h1V43h1.1v1.1h1V43h1.1v1.1h1V43h1.1v1.1h1V43h1.1v1.1h1V43h1.1v1.1h1V43h1.1v1.1h1V43h1.1v1.1h1V43H255v1.1h1V43h1.1v1.1h1V43h1.1v1.1h1V43h1.1V42h-1.1V40.9h1.1v-1h-1.1V38.8h1.1v-1h-1.1V36.7Zm-4.2,0v1.1H256V36.7Zm-43,2.1h1v1.1h-1ZM213,39.9h-1V38.8h1Zm3.2-1.1h1v1.1h-1Zm2.1,0h1v1.1h-1Zm2.1,0h1v1.1h-1Zm2.1,0h1v1.1h-1Zm2.1,0h1v1.1h-1Zm2.1,0h1v1.1h-1Zm2.1,0h1v1.1h-1Zm2,0h1.1v1.1h-1.1Zm2.1,0H234v1.1h-1.1Zm2.1,0h1.1v1.1H235Zm2.1,0h1.1v1.1h-1.1Zm2.1,0h1.1v1.1h-1.1Zm2.1,0h1.1v1.1h-1.1Zm2.1,0h1.1v1.1h-1.1Zm2.1,0h1.1v1.1h-1.1Zm2.1,0h1.1v1.1h-1.1Zm2.1,0h1.1v1.1h-1.1Zm2.1,0h1.1v1.1h-1.1Zm2.1,0H255v1.1h-1.1Zm2.1,0h1.1v1.1H256Zm-1-2.1v1.1h-1.1V36.7Zm-2.1,0v1.1h-1.1V36.7Zm-2.1,0v1.1h-1.1V36.7Zm-2.1,0v1.1h-1.1V36.7Zm-2.1,0v1.1h-1.1V36.7Zm-2.1,0v1.1h-1.1V36.7Zm-2.1,0v1.1h-1.1V36.7Zm-2.1,0v1.1h-1.1V36.7Zm-2.1,0v1.1h-1.1V36.7Zm-2.1,0v1.1H235V36.7Zm-2.1,0v1.1h-1.1V36.7Zm-2.1,0v1.1h-1.1V36.7Zm-2.1,0v1.1h-1V36.7Zm-2.1,0v1.1h-1V36.7Zm-2.1,0v1.1h-1V36.7Zm-2.1,0v1.1h-1V36.7Zm-2.1,0v1.1h-1V36.7Zm-2.1,0v1.1h-1V36.7Zm-2.1,0v1.1h-1V36.7Zm-2.1,0v1.1h-1V36.7Zm-2.1,0v1.1h-1V36.7Zm-3.1,0h1v1.1h-1Zm0,2.1h1v1.1h-1Zm0,3.2V40.9h1V42Zm2.1,0V40.9h1V42Zm2.1,0V40.9h1V42Zm2.1,0V40.9h1V42Zm2.1,0V40.9h1V42Zm2.1,0V40.9h1V42Zm2.1,0V40.9h1V42Zm2.1,0V40.9h1V42Zm2.1,0V40.9h1V42Zm2.1,0V40.9h1V42Zm2,0V40.9h1.1V42Zm2.1,0V40.9H234V42Zm2.1,0V40.9h1.1V42Zm2.1,0V40.9h1.1V42Zm2.1,0V40.9h1.1V42Zm2.1,0V40.9h1.1V42Zm2.1,0V40.9h1.1V42Zm2.1,0V40.9h1.1V42Zm2.1,0V40.9h1.1V42Zm2.1,0V40.9h1.1V42Zm2.1,0V40.9h1.1V42Zm2.1,0V40.9H255V42Zm2.1,0V40.9h1.1V42Zm3.2,0h-1.1V40.9h1.1Zm0-2.1h-1.1V38.8h1.1Zm0-2.1h-1.1V36.7h1.1Z" fill="url(#k)"/></g><path d="M257.1,34.6H212a4.2,4.2,0,0,0-4.2,4.2A4.1,4.1,0,0,0,212,43h45.1a4.2,4.2,0,0,0,4.2-4.2A4.2,4.2,0,0,0,257.1,34.6Zm0,7.6H212a3.4,3.4,0,1,1,0-6.7h45.1a3.4,3.4,0,0,1,0,6.7Z" fill="url(#l)"/><path d="M130.6,36.7a12.1,12.1,0,1,1-15.2-7.8A12.1,12.1,0,0,1,130.6,36.7Z" fill="url(#m)"/><path d="M126.3,36.7A7.8,7.8,0,0,1,113,44.9a7.9,7.9,0,0,1,2.6-10.8A7.8,7.8,0,0,1,126.3,36.7Z" fill="#131313" opacity="0.3"/><path d="M125.3,36.6a7.3,7.3,0,1,1-10-2.4A7.3,7.3,0,0,1,125.3,36.6Z" fill="url(#n)"/><path d="M123.4,40.4a4.3,4.3,0,0,1-4.3,4.3,4.3,4.3,0,1,1,0-8.6A4.3,4.3,0,0,1,123.4,40.4Z" fill="url(#o)"/><path d="M119.6,38.5a1.5,1.5,0,0,1-1.5,1.4,1.4,1.4,0,0,1-1.4-1.4,1.5,1.5,0,0,1,1.4-1.5A1.5,1.5,0,0,1,119.6,38.5Z" fill="#515151"/><path d="M123.2,41.7a3.3,3.3,0,0,0-2.2-.8,3.4,3.4,0,0,0-3.4,3.4.3.3,0,0,1,.1.2l1.4.2A4.2,4.2,0,0,0,123.2,41.7Z" fill="#515151"/><path d="M12.1,76.6c0-19.2,6.9-35.9,16.2-46.2S54.1,12.1,73.5,12.1c0,0,237.1-1.6,332.6-1.6C357.8,6.3,70.3,7.9,70.3,7.9c-20.6,0-36.4,5.9-47,17.6S7.9,53.2,7.9,73.5l.5,444.9Z" fill="url(#p)"/><g mask="url(#q)"><path d="M12.1,76.6c0-19.2,6.9-35.9,16.2-46.2S54.1,12.1,73.5,12.1c0,0,237.1-1.6,332.6-1.6C357.8,6.3,70.3,7.9,70.3,7.9c-20.6,0-36.4,5.9-47,17.6S7.9,53.2,7.9,73.5l.5,444.9Z" fill="url(#s)"/></g><path d="M404,987.9H65.1c-20-.5-32.4-5.1-32.4-5.1a59.6,59.6,0,0,0,32.4,9.3H404a53.8,53.8,0,0,0,30.8-9.6A74.3,74.3,0,0,1,404,987.9Z" fill="#676767"/><path d="M456.1,42.9A189.5,189.5,0,0,1,458,70.3V934.9a128.1,128.1,0,0,1-2.8,24.9,58.1,58.1,0,0,0,5.5-24.9V67.2A63.7,63.7,0,0,0,456.1,42.9Z" fill="#676767"/><path d="M468,226.7c-2.1,0-3.2,4.1-3.2,7.3v52.5c0,4.2,1.1,9.4,3.2,9.4a2.2,2.2,0,0,0,2.1-2.1v-65A2.2,2.2,0,0,0,468,226.7Z" fill="url(#t)"/><g mask="url(#u)"><path d="M468,226.7c-2.1,0-3.2,4.1-3.2,7.3v52.5c0,4.2,1.1,9.4,3.2,9.4Z" fill="url(#w)"/></g><path d="M468,363.1c-2.1,0-3.2,4.2-3.2,7.3V490c0,4.2,1.1,9.5,3.2,9.5a2.3,2.3,0,0,0,2.1-2.1V365.2A2.2,2.2,0,0,0,468,363.1Z" fill="url(#x)"/><g mask="url(#y)"><path d="M468,363.1c-2.1,0-3.2,4.2-3.2,7.3V490c0,4.2,1.1,9.5,3.2,9.5Z" fill="url(#aa)"/></g><path d="M22.4,93.1V442.8H140.6V70.5H42.3A44,44,0,0,0,22.4,93.1Z" fill="#f9bc04" fill-rule="evenodd"/><rect x="140.4" y="70.5" width="66.1" height="372.57" fill="#153066"/><rect x="22.4" y="443" width="117.7" height="198.06" fill="#e94235"/><polygon points="22.4 443 140.4 443 22.4 169.4 22.4 443" fill="#4285f3" fill-rule="evenodd"/><path d="M206.3,70.5V443c104.1-1.3,188-84.2,188-186.2S310.4,71.8,206.3,70.5Z" fill="#34a753"/><polygon points="225.9 698.3 357.2 698.3 357.2 531.5 225.9 698.3" fill="#153066"/><rect x="343.8" y="382.6" width="98.5" height="307.13" fill="#f9bc04"/><rect x="102.2" y="689.7" width="340.2" height="68.68" fill="#34a753"/><path d="M343.8,968.5h59.7a43.9,43.9,0,0,0,38.8-23.3V758.4H343.8Z" fill="#e94235" fill-rule="evenodd"/><polygon points="344 382.7 344 567.8 248 689.7 102.2 689.7 344 382.7" fill="#4285f3"/><rect x="48.7" y="878.1" width="369.5" height="46.37" rx="23.2" fill="#fff" opacity="0.66"/><circle cx="386.2" cy="897.4" r="6.8" fill="#4285f4"/><path d="M401.8,898.1a1.5,1.5,0,0,1-1.4,1.4,1.4,1.4,0,0,1-1.4-1.4,1.4,1.4,0,0,1,1.4-1.4A1.4,1.4,0,0,1,401.8,898.1Z" fill="#34a853"/><path d="M399.3,901.5a2.9,2.9,0,0,1-2.8,2.8,2.8,2.8,0,0,1-2.8-2.8,2.7,2.7,0,0,1,2.8-2.8A2.8,2.8,0,0,1,399.3,901.5Z" fill="#ea4335"/><path d="M399.8,908.7a3.4,3.4,0,0,1-6.7,0,3.4,3.4,0,1,1,6.7,0Z" fill="#fbbc05"/><path d="M67.8,903.9l-.9,3.3H63.7a12.1,12.1,0,0,1-1.5-6,13.1,13.1,0,0,1,1.4-5.9h0l2.9.6,1.3,2.8a7,7,0,0,0-.5,2.5A10.9,10.9,0,0,0,67.8,903.9Z" fill="#fbbb00"/><path d="M87.4,898.9a19.4,19.4,0,0,1,.2,2.4,10.9,10.9,0,0,1-.3,2.6,12.9,12.9,0,0,1-4.4,7.3h0l-3.7-.2-.5-3.2a7.5,7.5,0,0,0,3.3-3.9H75.2v-5H87.4Z" fill="#518ef8"/><path d="M82.9,911.2h0a13.2,13.2,0,0,1-8,2.8,12.8,12.8,0,0,1-11.2-6.7l4.1-3.4a7.6,7.6,0,0,0,7.1,4.9,7,7,0,0,0,3.8-1Z" fill="#28b446"/><path d="M83,891.5l-4.1,3.4a7,7,0,0,0-4-1.2,7.6,7.6,0,0,0-7.1,5.1l-4.2-3.4h0A12.8,12.8,0,0,1,83,891.5Z" fill="#f14336"/><circle cx="298.6" cy="169" r="9" fill="#ffd32a"/><path d="M120.2,161.5h-5.8v16.1H112V161.5h-5.8v-1.9h14Zm9.5,14.8a4.8,4.8,0,0,1-4,1.6,3.8,3.8,0,0,1-3.2-1.3,5,5,0,0,1-1.2-3.7v-8.7h2.3v8.7c0,2,.8,3,2.5,3s2.9-.6,3.5-1.9v-9.8h2.3v13.4h-2.2Zm11.3,1.6a6,6,0,0,1-4.5-1.8,6.9,6.9,0,0,1-1.7-4.8v-.4a8,8,0,0,1,.8-3.6,6.4,6.4,0,0,1,2.1-2.5,5.2,5.2,0,0,1,3-.8,4.7,4.7,0,0,1,4,1.7,7.2,7.2,0,0,1,1.5,4.9v1h-9.1a4.4,4.4,0,0,0,1.2,3.2,3.5,3.5,0,0,0,2.8,1.2,3.9,3.9,0,0,0,2-.5,4.7,4.7,0,0,0,1.5-1.3l1.4,1.1A5.6,5.6,0,0,1,141,177.9Zm-.3-12.1a3.2,3.2,0,0,0-2.4,1.1,4.5,4.5,0,0,0-1.1,2.8h6.7v-.2a4.8,4.8,0,0,0-.9-2.7A3.3,3.3,0,0,0,140.7,165.8Zm16,8.3a2.1,2.1,0,0,0-.7-1.5,9.6,9.6,0,0,0-2.5-.9,7.7,7.7,0,0,1-2.7-.9,4,4,0,0,1-1.6-1.2,3.1,3.1,0,0,1-.4-1.7,3.4,3.4,0,0,1,1.4-2.8,5.1,5.1,0,0,1,3.5-1.1,5.4,5.4,0,0,1,3.7,1.1,3.7,3.7,0,0,1,1.5,3.1h-2.4a2,2,0,0,0-.8-1.7,3.2,3.2,0,0,0-2-.7,2.7,2.7,0,0,0-1.9.6,1.6,1.6,0,0,0-.7,1.4,1.5,1.5,0,0,0,.6,1.3,9.3,9.3,0,0,0,2.4.8,9.2,9.2,0,0,1,2.8.9,5.3,5.3,0,0,1,1.6,1.3,3.5,3.5,0,0,1,.5,1.8,3.4,3.4,0,0,1-1.5,2.9,6,6,0,0,1-3.7,1.1,6.8,6.8,0,0,1-2.9-.6,4.9,4.9,0,0,1-1.9-1.6,3.6,3.6,0,0,1-.7-2.2h2.3a2,2,0,0,0,.9,1.8,3.5,3.5,0,0,0,2.3.7,4.1,4.1,0,0,0,2.1-.5A1.7,1.7,0,0,0,156.7,174.1Zm4.7-3.3a7.8,7.8,0,0,1,1.5-5,4.6,4.6,0,0,1,3.8-1.8,4.8,4.8,0,0,1,3.8,1.6v-7h2.2v19h-2.1v-1.4a4.9,4.9,0,0,1-7.6-.2,8,8,0,0,1-1.5-5Zm2.3.3a5.2,5.2,0,0,0,1,3.5,2.8,2.8,0,0,0,2.6,1.3,3.4,3.4,0,0,0,3.2-1.9v-6.2a3.4,3.4,0,0,0-3.2-1.9,2.9,2.9,0,0,0-2.6,1.3A6.3,6.3,0,0,0,163.7,171.1Zm20.9,6.5a6.1,6.1,0,0,1-.3-1.4,5.3,5.3,0,0,1-3.8,1.7,4.9,4.9,0,0,1-3.3-1.1,3.9,3.9,0,0,1-1.3-2.9,3.8,3.8,0,0,1,1.6-3.2,7.5,7.5,0,0,1,4.5-1.2h2.2v-1.1a2.5,2.5,0,0,0-.7-1.9,2.8,2.8,0,0,0-2.1-.7,3.7,3.7,0,0,0-2.1.6,1.9,1.9,0,0,0-.8,1.5h-2.3a3,3,0,0,1,.7-1.9,5.3,5.3,0,0,1,2-1.5,5.8,5.8,0,0,1,2.6-.5,5.3,5.3,0,0,1,3.7,1.1,4.1,4.1,0,0,1,1.3,3.2v6.2a7.6,7.6,0,0,0,.5,2.9v.2Zm-3.8-1.7a3.6,3.6,0,0,0,2-.6,2.4,2.4,0,0,0,1.4-1.4v-2.8h-1.8c-2.8,0-4.2.8-4.2,2.5a2.4,2.4,0,0,0,.7,1.7A2.9,2.9,0,0,0,180.8,175.9Zm13.6-1.6,3.1-10.1h2.4l-5.4,15.5c-.8,2.2-2.1,3.4-3.9,3.4h-1.3V181h.6a3,3,0,0,0,1.8-.5,3.8,3.8,0,0,0,1.1-1.7l.5-1.4-4.8-13.3H191Zm6.2,6.9-1.3-.9a5.4,5.4,0,0,0,1.2-3.3v-2.1h2.2v1.8a5.4,5.4,0,0,1-.6,2.5A5.3,5.3,0,0,1,200.6,181.2Zm25.6-12a10.8,10.8,0,0,1-.9,4.6,6.8,6.8,0,0,1-2.5,3,7,7,0,0,1-3.8,1.1,6.8,6.8,0,0,1-3.8-1.1,7,7,0,0,1-2.6-3,10.6,10.6,0,0,1-.9-4.5V168a11.4,11.4,0,0,1,.9-4.6,6.8,6.8,0,0,1,2.5-3,7.3,7.3,0,0,1,3.8-1.1,7.1,7.1,0,0,1,3.9,1.1,6.8,6.8,0,0,1,2.5,3,11.1,11.1,0,0,1,.9,4.6Zm-2.4-1.2a8.4,8.4,0,0,0-1.2-4.9,4.3,4.3,0,0,0-3.7-1.7,3.9,3.9,0,0,0-3.5,1.7,8.1,8.1,0,0,0-1.4,4.8v1.3a7.9,7.9,0,0,0,1.4,4.9,4,4,0,0,0,3.6,1.8,4.1,4.1,0,0,0,3.5-1.7,7.6,7.6,0,0,0,1.3-4.8Zm11,8a3.4,3.4,0,0,0,2.2-.7,3,3,0,0,0,1-1.9h2.2a4.5,4.5,0,0,1-.8,2.2,5.5,5.5,0,0,1-2,1.7,5.8,5.8,0,0,1-2.6.6,5.4,5.4,0,0,1-4.3-1.8,7.5,7.5,0,0,1-1.7-5.1v-.3a7.8,7.8,0,0,1,.8-3.5,5.2,5.2,0,0,1,2-2.4,5.7,5.7,0,0,1,3.2-.8,5.5,5.5,0,0,1,3.8,1.3,5,5,0,0,1,1.6,3.5H238a3.2,3.2,0,0,0-1-2.1,2.9,2.9,0,0,0-2.2-.9,3.2,3.2,0,0,0-2.7,1.3,6.2,6.2,0,0,0-1,3.6v.5a6.4,6.4,0,0,0,1,3.6A3.2,3.2,0,0,0,234.8,176Zm11.1-15.1v3.3h2.5V166h-2.5v8.3a1.7,1.7,0,0,0,.3,1.2,1.2,1.2,0,0,0,1.1.4h1.1v1.8l-1.7.3a3.1,3.1,0,0,1-2.4-.9,4.3,4.3,0,0,1-.7-2.7V166h-2.5v-1.8h2.5v-3.3Zm18.8,16.7h-2.4V162.3l-4.6,1.7v-2.1l6.6-2.4h.4Zm7.7-9,1-9h9.2v2.1h-7.3l-.5,4.9a6.1,6.1,0,0,1,3-.8,5.1,5.1,0,0,1,3.9,1.7,6.2,6.2,0,0,1,1.5,4.4,6.3,6.3,0,0,1-1.5,4.4,6.5,6.5,0,0,1-8.2.3,5.4,5.4,0,0,1-1.7-3.7H274a3.4,3.4,0,0,0,1.1,2.3,3.6,3.6,0,0,0,2.3.8,3.1,3.1,0,0,0,2.5-1.1,4,4,0,0,0,1-3,4.4,4.4,0,0,0-1-2.9,3.7,3.7,0,0,0-2.7-1.1,3.9,3.9,0,0,0-2.3.6l-.6.5Zm47.5-9.1v2h-.5a5.9,5.9,0,0,0-4.2,1.6,6.6,6.6,0,0,0-1.9,4.3,5,5,0,0,1,3.9-1.6,4.6,4.6,0,0,1,3.8,1.6,6.9,6.9,0,0,1,1.4,4.3,6.4,6.4,0,0,1-1.5,4.5,5.6,5.6,0,0,1-8.3-.3,7.6,7.6,0,0,1-1.6-5.1v-.9c0-3.4.7-5.9,2.1-7.7s3.5-2.6,6.4-2.7Zm-3.1,8.2a3.3,3.3,0,0,0-2.1.7,4,4,0,0,0-1.4,1.8v.8a5.7,5.7,0,0,0,1,3.6,3.1,3.1,0,0,0,2.5,1.4,3,3,0,0,0,2.5-1.2,5.7,5.7,0,0,0-.1-6A3,3,0,0,0,316.8,167.7Zm19.3-3.4a4,4,0,0,1-.7,2.4,4.6,4.6,0,0,1-2,1.6,5.2,5.2,0,0,1,2.3,1.8,5,5,0,0,1,.8,2.7,4.6,4.6,0,0,1-1.6,3.7,6,6,0,0,1-4.1,1.4,6.1,6.1,0,0,1-4.2-1.4,4.6,4.6,0,0,1-1.6-3.7,5,5,0,0,1,.8-2.7,5.5,5.5,0,0,1,2.2-1.8,4.9,4.9,0,0,1-1.9-1.6,4.8,4.8,0,0,1-.7-2.4,4.5,4.5,0,0,1,1.5-3.6,5.6,5.6,0,0,1,3.9-1.4,5.4,5.4,0,0,1,3.8,1.4A4.5,4.5,0,0,1,336.1,164.3Zm-1.9,8.4a3.7,3.7,0,0,0-.9-2.5,3.7,3.7,0,0,0-2.6-.9,3.2,3.2,0,0,0-2.4.9,3.3,3.3,0,0,0-1,2.5,3.2,3.2,0,0,0,.9,2.4,3.6,3.6,0,0,0,2.6.9,3.5,3.5,0,0,0,2.5-.9A3.2,3.2,0,0,0,334.2,172.7Zm-3.4-11.5a3.1,3.1,0,0,0-2.2.8,3.2,3.2,0,0,0-.9,2.3,2.8,2.8,0,0,0,.9,2.2,2.7,2.7,0,0,0,2.2.9,2.9,2.9,0,0,0,2.2-.9,3.1,3.1,0,0,0,.8-2.2,2.8,2.8,0,0,0-.9-2.2A2.7,2.7,0,0,0,330.8,161.2Zm8.7,1.3a3.1,3.1,0,0,1,.9-2.2,3,3,0,0,1,2.3-1,2.8,2.8,0,0,1,2.2,1,3.1,3.1,0,0,1,.9,2.2,3.2,3.2,0,0,1-.9,2.3,3.1,3.1,0,0,1-2.2.9,2.9,2.9,0,0,1-2.2-.9A2.9,2.9,0,0,1,339.5,162.5Zm3.2,1.6a1.5,1.5,0,0,0,1.1-.4,1.7,1.7,0,0,0,.5-1.2,1.7,1.7,0,0,0-1.6-1.6,1.7,1.7,0,0,0-1.2.5,1.5,1.5,0,0,0-.4,1.1,1.4,1.4,0,0,0,1.6,1.6Zm16.8,5.6h-7.6v7.9h-2.4v-18h11.2v1.9h-8.8v6.2h7.6Z" fill="#fff"/><path d="M300.1,169a2.8,2.8,0,0,0-1.6.5,4.6,4.6,0,0,0-4.4-3.5,4.5,4.5,0,0,0-4.5,4.5,4.5,4.5,0,0,0,4.5,4.5h6a2.9,2.9,0,0,0,3-3A3,3,0,0,0,300.1,169Z" fill="#fff"/><polygon points="411.4 95.7 402.4 95.7 402.4 82.3 405.4 82.3 405.4 80.8 408.4 80.8 408.4 82.3 411.4 82.3 411.4 95.7" fill="#fff"/><polyline points="396.4 82.3 396.4 95.7 382.9 95.7" fill="#fff"/><path d="M358.8,93.8V84.3h1.6v8h4.3v1.5Zm10.2-8v8h-1.6v-8h-2.8V84.3h7.3v1.5Zm11.2-1.5v1.5h-5v2.5h4.5v1.4h-4.5v2.6h5.2v1.5h-6.8V84.3Z" fill="#fff"/><path d="M43.8,84.3h3.4v9.5H45.7v-8H43.8Zm6.5,8.2a5.2,5.2,0,0,1-1-3.5,5.7,5.7,0,0,1,1-3.6,3.4,3.4,0,0,1,2.8-1.3A3.5,3.5,0,0,1,56,85.4,5.7,5.7,0,0,1,57,89a5.2,5.2,0,0,1-1,3.5,3.3,3.3,0,0,1-2.9,1.4A3.2,3.2,0,0,1,50.3,92.5Zm1.1-6.1a5,5,0,0,0-.6,2.6,4.6,4.6,0,0,0,.6,2.5,1.9,1.9,0,0,0,1.7,1,1.9,1.9,0,0,0,1.8-1,5.5,5.5,0,0,0,.5-2.5,6.3,6.3,0,0,0-.5-2.6,2,2,0,0,0-1.8-.9A2,2,0,0,0,51.4,86.4ZM59,90.3a1.1,1.1,0,0,1-.3-.7.8.8,0,0,1,.3-.7,1.1,1.1,0,0,1,.7-.3,1.1,1.1,0,0,1,.8.3,1.2,1.2,0,0,1,.2.7,1.9,1.9,0,0,1-.2.7,1.1,1.1,0,0,1-.8.3A1.1,1.1,0,0,1,59,90.3Zm0,3.3a1.1,1.1,0,0,1-.3-.7.8.8,0,0,1,.3-.7,1.1,1.1,0,0,1,.7-.3,1.1,1.1,0,0,1,.8.3,1.2,1.2,0,0,1,.2.7,1.9,1.9,0,0,1-.2.7,1.1,1.1,0,0,1-.8.3A1.1,1.1,0,0,1,59,93.6Zm4.5-1.1a5.2,5.2,0,0,1-1-3.5,5.7,5.7,0,0,1,1-3.6,3.4,3.4,0,0,1,2.8-1.3,3.5,3.5,0,0,1,2.9,1.3,5.7,5.7,0,0,1,1,3.6,5.2,5.2,0,0,1-1,3.5,3.3,3.3,0,0,1-2.9,1.4A3.2,3.2,0,0,1,63.5,92.5Zm1.1-6.1A5,5,0,0,0,64,89a4.6,4.6,0,0,0,.6,2.5,1.9,1.9,0,0,0,1.7,1,1.9,1.9,0,0,0,1.8-1,5.5,5.5,0,0,0,.5-2.5,6.3,6.3,0,0,0-.5-2.6,2,2,0,0,0-1.8-.9A2,2,0,0,0,64.6,86.4Zm8.1,6.1a5.8,5.8,0,0,1-.9-3.5,6.4,6.4,0,0,1,.9-3.6,3.6,3.6,0,0,1,2.9-1.3,3.5,3.5,0,0,1,2.9,1.3,6.4,6.4,0,0,1,.9,3.6,5.8,5.8,0,0,1-.9,3.5,3.3,3.3,0,0,1-2.9,1.4A3.4,3.4,0,0,1,72.7,92.5Zm1.2-6.1a5,5,0,0,0-.6,2.6,4.6,4.6,0,0,0,.6,2.5,1.9,1.9,0,0,0,3.4,0,4.4,4.4,0,0,0,.6-2.5,5,5,0,0,0-.6-2.6,2.1,2.1,0,0,0-3.4,0Z" fill="#fff"/><circle cx="76.2" cy="807.9" r="30.7" fill="#fff"/><rect x="60.8" y="792.6" width="30.7" height="30.67" fill="#eceff1"/><polygon points="76.2 811.1 91.5 823.2 91.5 799.3 76.2 811.1" fill="#cfd8dc"/><path d="M92.8,792.6H91.5L76.2,804.7,60.8,792.6H59.6a3.8,3.8,0,0,0-3.9,3.8v23a3.8,3.8,0,0,0,3.9,3.8h1.2V799.3l15.4,11.8,15.3-11.8v23.9h1.3a3.8,3.8,0,0,0,3.8-3.8v-23A3.8,3.8,0,0,0,92.8,792.6Z" fill="#f44336"/><circle cx="181.1" cy="807.9" r="30.7" fill="#fff"/><path d="M181.1,780.8v13.8H167.3l-13.8,13.8h13.8v13.8L181.1,836V822.2h13.8l13.7-13.8H194.9V794.6Z" opacity="0.2" style="isolation:isolate"/><path d="M181.1,807.4H153.5l13.8-13.8h13.8" fill="#fec006"/><path d="M181.1,807.4V779.8l13.8,13.8v13.8" fill="#f34235"/><path d="M167.3,807.4v13.8L181.1,835V807.4" fill="#4bae4f"/><path d="M181.1,807.4h27.5l-13.7,13.8H181.1" fill="#2095f2"/><path d="M181.1,807.4v1h26.6l.9-1Z" fill="#fff" opacity="0.2" style="isolation:isolate"/><path d="M181.1,807.4l13.8-13.8v13.8Z" fill="#9c27b0"/><path d="M181.1,807.4l-13.8,13.8V807.4Z" fill="#1ea362"/><path d="M194.9,821.2l-13.8-13.8v13.8Z" fill="#3e50b4"/><path d="M167.3,793.6l13.8,13.8V793.6Z" fill="#fe9700"/><path d="M181.1,779.8v1l13.8,13.8v-1Zm-13.8,13.8-13.8,13.8h1l12.8-12.8h13.8v-1Z" fill="#fff" opacity="0.2" style="isolation:isolate"/><path d="M181.1,801.5l-2.5,5.4-5.4,2.5,5.4,2.4,2.5,5.5,2.4-5.5,5.4-2.4-5.4-2.5Z" opacity="0.2" style="isolation:isolate"/><path d="M181.1,799.5l-2.5,5.5-5.4,2.4,5.4,2.5,2.5,5.4,2.4-5.4,5.4-2.5-5.4-2.4Z" fill="#fff"/><path d="M173.2,807.4l5.4,2.5,2.5,5.4v-7.9Z" fill="#ebebeb"/><path d="M188.9,807.4l-5.4,2.5-2.4,5.4v-7.9Z" fill="#dfdfdf"/><path d="M285.9,807.9h0V792.6h26.6c-6.6-10.8-16.7-15.4-26.5-15.4a30.6,30.6,0,0,0-26.6,15.4l13.3,23Z" fill="#db4437"/><path d="M285.9,792.6v15.3h0l13.3,7.7-13.3,23h0a30.7,30.7,0,0,0,30.7-30.7,31.9,31.9,0,0,0-4.1-15.3Z" fill="#ffcd40"/><path d="M285.9,807.9h0l-13.2,7.7-13.3-23a30.7,30.7,0,0,0,26.5,46l13.3-23Z" fill="#0f9d58"/><polygon points="286 799.6 286 792.6 312.4 792.6 286 799.6" fill="#c24437"/><polygon points="286 838.5 293.1 812.1 299.2 815.5 286 838.5" fill="#ffbe40"/><polygon points="259.4 792.6 278.7 812.1 272.7 815.6 259.4 792.6" fill="#00944e"/><circle cx="286" cy="807.9" r="13.3" fill="#4285f4"/><path d="M286,796.7a11.3,11.3,0,1,1-11.3,11.2A11.2,11.2,0,0,1,286,796.7m0-4.1a15.4,15.4,0,1,0,15.3,15.3A15.3,15.3,0,0,0,286,792.6Z" fill="#fff"/><circle cx="390.8" cy="807.9" r="30.7" fill="#fff"/><path d="M410.3,798.2a5,5,0,0,0-3.6-3.6c-3.2-.9-15.9-.9-15.9-.9s-12.7,0-15.8.8a5.4,5.4,0,0,0-3.6,3.7c-.8,3.1-.8,9.7-.8,9.7s0,6.6.8,9.8a4.9,4.9,0,0,0,3.6,3.5c3.2.9,15.8.9,15.8.9s12.7,0,15.9-.8a5.4,5.4,0,0,0,3.6-3.6c.8-3.2.8-9.8.8-9.8S411.2,801.3,410.3,798.2ZM386.8,814V801.8l10.6,6.1Z" fill="#f44336"/><circle cx="285.5" cy="500" r="30.7" fill="#fff"/></svg>