<svg xmlns="http://www.w3.org/2000/svg" xmlns:xlink="http://www.w3.org/1999/xlink" viewBox="0 0 500.6 1000"><linearGradient id="a" x1="-148.9" x2="-69.5" y1="-37.9" y2="-37.9" gradientTransform="matrix(1.64 0 0 1 224.3 75.2)" gradientUnits="userSpaceOnUse"><stop offset=".1"/><stop offset=".2" stop-color="#1d1d1d"/><stop offset=".4" stop-color="#fff"/><stop offset=".6" stop-color="#fff"/><stop offset=".8"/></linearGradient><linearGradient id="j" x1="407" x2="486.4" y1="490.3" y2="490.3" gradientTransform="matrix(0 1.64 -1 0 950.5 -687.9)" xlink:href="#a"/><linearGradient id="m" x1="1045.3" x2="1124.7" y1="1430.7" y2="1430.7" gradientTransform="matrix(0 -1.64 1 0 -1390.5 2732.4)" xlink:href="#a"/><linearGradient id="o" x1="812" x2="891.4" y1="1936.6" y2="1936.6" gradientTransform="matrix(1.64 0 0 -1 -933.1 2893.7)" xlink:href="#a"/><linearGradient id="q" x1="5.5" x2="494.9" y1="500" y2="500" gradientUnits="userSpaceOnUse"><stop offset="0" stop-color="#c9c9c9"/><stop offset="0" stop-color="#fff"/><stop offset=".7" stop-color="#fff"/><stop offset="1" stop-color="#fff"/><stop offset="1" stop-color="#c9c9c9"/></linearGradient><filter id="b" color-interpolation-filters="sRGB" filterUnits="userSpaceOnUse"><feColorMatrix values="-1 0 0 0 1 0 -1 0 0 1 0 0 -1 0 1 0 0 0 1 0"/></filter><linearGradient id="s" x1="1.8" x2="1.8" y1="173.1" y2="134.8" gradientUnits="userSpaceOnUse"><stop offset="0" stop-color="#181818"/><stop offset=".1" stop-color="#5a5a5a"/><stop offset=".2" stop-color="#f2f2f2"/><stop offset=".5" stop-color="#e6e6e6"/><stop offset=".9" stop-color="#f2f2f2"/><stop offset=".9" stop-color="#5a5a5a"/><stop offset="1"/></linearGradient><linearGradient id="t" x1=".9" x2=".9" y1="173.1" y2="134.9" gradientUnits="userSpaceOnUse"><stop offset="0" stop-color="#181818"/><stop offset=".1" stop-color="#5a5a5a"/><stop offset=".2" stop-color="#f2f2f2"/><stop offset=".5" stop-color="#e6e6e6"/><stop offset=".8" stop-color="#f2f2f2"/><stop offset=".9" stop-color="#5a5a5a"/><stop offset="1"/></linearGradient><linearGradient id="c" x1=".3" x2=".3" y1="172.3" y2="135.7" gradientUnits="userSpaceOnUse"><stop offset="0" stop-color="#323232"/><stop offset=".2" stop-color="#707070"/><stop offset=".8" stop-color="#707070"/><stop offset="1" stop-color="#323232"/></linearGradient><linearGradient id="d" x1="1.8" x2="1.8" y1="278.9" y2="206.3" gradientUnits="userSpaceOnUse"><stop offset="0" stop-color="#181818"/><stop offset="0" stop-color="#5a5a5a"/><stop offset=".1" stop-color="#f2f2f2"/><stop offset=".5" stop-color="#e6e6e6"/><stop offset=".9" stop-color="#f2f2f2"/><stop offset="1" stop-color="#5a5a5a"/><stop offset="1"/></linearGradient><linearGradient id="e" x1=".9" x2=".9" y1="278.8" y2="206.4" gradientUnits="userSpaceOnUse"><stop offset="0" stop-color="#181818"/><stop offset="0" stop-color="#5a5a5a"/><stop offset=".1" stop-color="#f2f2f2"/><stop offset=".5" stop-color="#e6e6e6"/><stop offset=".9" stop-color="#f2f2f2"/><stop offset=".9" stop-color="#5a5a5a"/><stop offset="1"/></linearGradient><linearGradient id="u" x1=".3" x2=".3" y1="278" y2="207.2" xlink:href="#c"/><linearGradient id="v" x1="2.4" x2="2.4" y1="370.5" y2="298" xlink:href="#d"/><linearGradient id="w" x1="1.8" x2="1.8" y1="370.5" y2="298.1" xlink:href="#e"/><linearGradient id="x" x1="1.1" x2="1.1" y1="369.7" y2="298.9" xlink:href="#c"/><linearGradient id="y" x1="1278.6" x2="1278.6" y1="-150.4" y2="-264.6" gradientTransform="rotate(180 888.5 40.5)" xlink:href="#d"/><linearGradient id="z" x1="1277.7" x2="1277.7" y1="-150.5" y2="-264.5" gradientTransform="rotate(180 888.5 40.5)" xlink:href="#e"/><linearGradient id="A" x1="1276.8" x2="1276.8" y1="-151.6" y2="-263.4" gradientTransform="rotate(180 888.5 40.5)" xlink:href="#c"/><linearGradient id="B" x1="451.8" x2="485.4" y1="499.9" y2="499.9" gradientUnits="userSpaceOnUse"><stop offset="0" stop-color="#545454"/><stop offset="1" stop-color="#bbb"/></linearGradient><linearGradient id="f" x1="48.8" x2="456.1" y1="22.1" y2="22.1" gradientUnits="userSpaceOnUse"><stop offset="0"/><stop offset=".2" stop-color="#545454"/><stop offset=".8" stop-color="#545454"/><stop offset="1"/></linearGradient><linearGradient id="C" x1="44.8" x2="456.5" y1="978.3" y2="978.3" xlink:href="#f"/><linearGradient id="D" x1="15.5" x2="49.1" y1="499.9" y2="499.9" gradientUnits="userSpaceOnUse"><stop offset="0" stop-color="#bbb"/><stop offset="1" stop-color="#545454"/></linearGradient><linearGradient id="g" x1="27.3" x2="42.1" y1="25.6" y2="25" gradientUnits="userSpaceOnUse"><stop offset="0" stop-color="#191919"/><stop offset=".4" stop-color="#363636"/><stop offset="1" stop-color="#545454"/></linearGradient><linearGradient id="E" x1="459.6" x2="473.6" y1="26.4" y2="24.6" gradientUnits="userSpaceOnUse"><stop offset="0" stop-color="#545454"/><stop offset=".6" stop-color="#363636"/><stop offset="1" stop-color="#191919"/></linearGradient><linearGradient id="F" x1="473.6" x2="463.8" y1="976.8" y2="972.3" xlink:href="#g"/><linearGradient id="G" x1="26" x2="33.9" y1="976.1" y2="973.8" xlink:href="#g"/><filter id="h" width="158.7" height="151.2" x="-33.6" y="-38.3" color-interpolation-filters="sRGB" filterUnits="userSpaceOnUse"><feFlood flood-color="#fff" result="bg"/><feBlend in="SourceGraphic" in2="bg"/></filter><mask id="H" width="158.7" height="151.2" x="-33.6" y="-38.3" maskUnits="userSpaceOnUse"><g filter="url(#h)"><path fill="url(#a)" d="M-19.1-8.4h129.8V83H-19.1z" transform="rotate(-37.1 45.7 37.2)"/></g></mask><radialGradient id="k" cx="57.7" cy="55.1" r="42.2" gradientTransform="matrix(.74664 .66523 -.93797 1.05276 66.2 -41.1)" gradientUnits="userSpaceOnUse"><stop offset=".8" stop-color="#fff"/><stop offset="1"/></radialGradient><filter id="i" width="151.2" height="158.7" x="384.6" y="-36.6" color-interpolation-filters="sRGB" filterUnits="userSpaceOnUse"><feFlood flood-color="#fff" result="bg"/><feBlend in="SourceGraphic" in2="bg"/></filter><mask id="I" width="151.2" height="158.7" x="384.6" y="-36.6" maskUnits="userSpaceOnUse"><g filter="url(#i)"><path fill="url(#j)" d="M414.5-22.2h91.4v129.8h-91.4z" transform="rotate(-37.1 460 42.8)"/></g></mask><radialGradient id="J" cx="1101.5" cy="-71.6" r="42.2" gradientTransform="matrix(-.66523 .74664 -1.05276 -.93797 1099.7 -834.9)" xlink:href="#k"/><filter id="l" width="151.2" height="158.7" x="-35.4" y="878.4" color-interpolation-filters="sRGB" filterUnits="userSpaceOnUse"><feFlood flood-color="#fff" result="bg"/><feBlend in="SourceGraphic" in2="bg"/></filter><mask id="K" width="151.2" height="158.7" x="-35.4" y="878.4" maskUnits="userSpaceOnUse"><g filter="url(#l)"><path fill="url(#m)" d="M-5.6 892.8h91.4v129.8H-5.6z" transform="rotate(-37.1 39.9 957.2)"/></g></mask><radialGradient id="L" cx="2501.4" cy="49.2" r="42.2" gradientTransform="matrix(.66523 -.74664 1.05276 .93797 -1657.3 2767.8)" xlink:href="#k"/><filter id="n" width="151.2" height="158.7" x="384.4" y="877.9" color-interpolation-filters="sRGB" filterUnits="userSpaceOnUse"><feFlood flood-color="#fff" result="bg"/><feBlend in="SourceGraphic" in2="bg"/></filter><mask id="M" width="151.2" height="158.7" x="384.4" y="877.9" maskUnits="userSpaceOnUse"><g filter="url(#n)"><path fill="url(#o)" d="M395 911.5h129.8v91.4H395z" transform="rotate(-52.9 460.4 957.5)"/></g></mask><radialGradient id="N" cx="2501.9" cy="682.9" r="42.2" gradientTransform="matrix(-.67 -.75 -1.05 .94 2823.5 2174.8)" xlink:href="#k"/><linearGradient id="O" x1="250" x2="250" y1="35.3" y2="43.9" gradientUnits="userSpaceOnUse"><stop offset="0" stop-color="#404040"/><stop offset="1" stop-color="#202020"/></linearGradient><linearGradient id="P" x1="250" x2="250" y1="44.7" y2="34.5" gradientUnits="userSpaceOnUse"><stop offset="0" stop-color="#636363"/><stop offset="1" stop-color="#404040"/></linearGradient><linearGradient id="Q" x1="304" x2="304" y1="46.9" y2="31.8" gradientUnits="userSpaceOnUse"><stop offset="0" stop-color="#231f20"/><stop offset="1" stop-color="#231f20"/></linearGradient><linearGradient id="R" x1="304" x2="304" y1="46.9" y2="31.8" gradientUnits="userSpaceOnUse"><stop offset="0" stop-color="#808184" stop-opacity="0"/><stop offset="0" stop-color="#7b7c7f" stop-opacity=".1"/><stop offset=".3" stop-color="#4a484a" stop-opacity=".6"/><stop offset=".7" stop-color="#2d292a" stop-opacity=".9"/><stop offset="1" stop-color="#231f20"/></linearGradient><linearGradient id="S" x1="304" x2="304" y1="46.9" y2="31.8" gradientUnits="userSpaceOnUse"><stop offset="0" stop-color="#bbb"/><stop offset="1" stop-color="#231f20"/></linearGradient><radialGradient id="T" cx="304" cy="39.4" r="6" gradientUnits="userSpaceOnUse"><stop offset="0" stop-color="#929497"/><stop offset=".2" stop-color="#b6b7b9" stop-opacity=".7"/><stop offset=".5" stop-color="#d5d6d7" stop-opacity=".4"/><stop offset=".7" stop-color="#ececed" stop-opacity=".2"/><stop offset=".9" stop-color="#fafafa" stop-opacity=".1"/><stop offset="1" stop-color="#fff" stop-opacity="0"/></radialGradient><radialGradient id="U" cx="299.4" cy="42.5" r="4.7" gradientUnits="userSpaceOnUse"><stop offset="0" stop-color="#fff"/><stop offset=".1" stop-color="#fff" stop-opacity=".8"/><stop offset=".2" stop-color="#fff" stop-opacity=".6"/><stop offset=".4" stop-color="#fff" stop-opacity=".4"/><stop offset=".5" stop-color="#fff" stop-opacity=".3"/><stop offset=".6" stop-color="#fff" stop-opacity=".1"/><stop offset=".8" stop-color="#fff" stop-opacity=".1"/><stop offset=".9" stop-color="#fff" stop-opacity="0"/><stop offset="1" stop-color="#fff" stop-opacity="0"/></radialGradient><linearGradient id="p" x1="299.1" x2="298.6" y1="870.9" y2="933.8" gradientUnits="userSpaceOnUse"><stop offset="0" stop-color="#88fd70"/><stop offset=".2" stop-color="#66f758"/><stop offset=".4" stop-color="#40f13e"/><stop offset=".7" stop-color="#24ec2b"/><stop offset=".8" stop-color="#14e91f"/><stop offset="1" stop-color="#0ee81b"/></linearGradient><linearGradient id="V" x1="396.7" x2="396.3" y1="870.9" y2="933.8" gradientUnits="userSpaceOnUse"><stop offset="0" stop-color="#1e59ef"/><stop offset=".2" stop-color="#1d7cf3"/><stop offset=".6" stop-color="#1bb3f9"/><stop offset=".8" stop-color="#19d6fd"/><stop offset="1" stop-color="#19e3fe"/></linearGradient><linearGradient id="W" x1="104.2" x2="103.8" y1="870.9" y2="933.8" xlink:href="#p"/><radialGradient id="X" cx="354.7" cy="172.4" r="28.8" gradientTransform="matrix(1.08 0 0 -1.08 -181.9 1084.4)" gradientUnits="userSpaceOnUse"><stop offset="0" stop-color="#06c2e7"/><stop offset=".3" stop-color="#0db8ec"/><stop offset=".5" stop-color="#12aef1"/><stop offset=".8" stop-color="#1f86f9"/><stop offset="1" stop-color="#107ddd"/></radialGradient><path d="M497.5 93.1c0-32.5-3.4-52.7-23.9-72.9S425 0 415.2 0H85.1c-9.7 0-38.4.7-58.3 20.2S2.9 60.6 2.9 93.1v813.8c0 32.5 3.3 52.7 23.9 72.9s48.6 20.2 58.3 20.2h330.1c9.8 0 38.5-.7 58.4-20.2s23.9-40.4 23.9-72.9z"/><path fill="url(#q)" d="M471.7 22c-9-8.8-26.2-19.4-56.5-19.4H85.1C54.8 2.6 37.7 13.2 28.7 22 9 41.3 5.5 60.3 5.5 93.1v813.8c0 32.8 3.5 51.8 23.2 71.1 9 8.8 26.1 19.4 56.4 19.4h330.2c30.3 0 47.4-10.6 56.4-19.4 19.7-19.3 23.2-38.3 23.2-71.1V93.1c0-32.8-3.5-51.8-23.2-71.1zm18.4 884.9c0 32.1-3.1 49.5-21.7 67.7-8.4 8.2-24.4 18-53.1 18H85.1c-28.7 0-44.7-9.8-53.1-18-18.6-18.2-21.7-35.6-21.7-67.7V93.1c0-32.1 3.1-49.5 21.7-67.7 8.4-8.2 24.4-18 53.1-18h330.1c28.7 0 44.8 9.8 53.2 18C487 43.6 490.1 61 490.1 93.1z"/><g mask="url(#r)"><path fill="#969696" d="M471.7 22c-9-8.8-26.2-19.4-56.5-19.4H85.1C54.8 2.6 37.7 13.2 28.7 22 9 41.3 5.5 60.3 5.5 93.1v813.8c0 32.8 3.5 51.8 23.2 71.1 9 8.8 26.1 19.4 56.4 19.4h330.2c30.3 0 47.4-10.6 56.4-19.4 19.7-19.3 23.2-38.3 23.2-71.1V93.1c0-32.8-3.5-51.8-23.2-71.1zm18.4 884.9c0 32.1-3.1 49.5-21.7 67.7-8.4 8.2-24.4 18-53.1 18H85.1c-28.7 0-44.7-9.8-53.1-18-18.6-18.2-21.7-35.6-21.7-67.7V93.1c0-32.1 3.1-49.5 21.7-67.7 8.4-8.2 24.4-18 53.1-18h330.1c28.7 0 44.8 9.8 53.2 18C487 43.6 490.1 61 490.1 93.1z" opacity=".8"/></g><path fill="#545454" d="M467.3 26.6c-8.2-8-23.9-17.6-52.1-17.6H85.1c-28.1 0-43.8 9.6-52 17.6C15 44.4 11.9 61.5 11.9 93.1v813.8c0 31.6 3.1 48.7 21.2 66.5 8.2 8 23.9 17.6 52 17.6h330.2c28.1 0 43.8-9.6 52-17.6 18.1-17.8 21.2-34.9 21.2-66.5V93.1c0-31.6-3.1-48.7-21.2-66.5zm19.2 880.3c0 31-2.9 47.8-20.6 65.1-7.9 7.8-23.2 17-50.6 17H85.1c-27.5 0-42.7-9.2-50.6-17-17.7-17.3-20.6-34.1-20.6-65.1V93.1c0-31 2.9-47.8 20.6-65.1 7.9-7.8 23.1-17 50.6-17h330.1c27.5 0 42.8 9.2 50.7 17 17.7 17.3 20.6 34.1 20.6 65.1z"/><path fill="none" d="M85.1 987.4c-26.9 0-41.7-9-49.5-16.6-17.2-16.9-20.1-33.4-20.1-63.9V93.1c0-30.5 2.9-47 20.1-63.9 7.8-7.6 22.6-16.6 49.5-16.6h330.1c27 0 41.8 9 49.5 16.6 17.3 16.9 20.2 33.4 20.2 63.9v813.8c0 30.5-2.9 47-20.2 63.9-7.7 7.6-22.5 16.6-49.4 16.6z"/><path d="M85.1 978.7c-24 0-36.8-7.6-43.4-14-15.1-14.9-17.5-29.2-17.5-57.8V93.1c0-28.6 2.4-42.9 17.5-57.8 6.6-6.4 19.4-14 43.4-14h330.1c24.1 0 36.9 7.6 43.5 14 15.1 14.9 17.5 29.2 17.5 57.8v813.8c0 28.6-2.4 42.9-17.5 57.8-6.6 6.4-19.4 14-43.4 14z"/><path fill="url(#s)" d="M3.5 173.1H2.3a2.3 2.3 0 01-2.3-2.3v-33.7a2.3 2.3 0 012.3-2.3h1.2z"/><path fill="url(#t)" d="M1.8 134.9a2.3 2.3 0 00-1.8 2.2v33.7a2.5 2.5 0 001.8 2.3z"/><path fill="url(#c)" d="M.5 135.7a2.4 2.4 0 00-.5 1.4v33.7a2.5 2.5 0 00.5 1.5z"/><path fill="url(#d)" d="M3.5 278.9H2.3a2.3 2.3 0 01-2.3-2.4v-67.9a2.3 2.3 0 012.3-2.3h1.2z"/><path fill="url(#e)" d="M1.8 206.4a2.4 2.4 0 00-1.8 2.2v67.9a2.5 2.5 0 001.8 2.3z"/><path fill="url(#u)" d="M.5 207.2a2.4 2.4 0 00-.5 1.4v67.9a2.5 2.5 0 00.5 1.5z"/><path fill="url(#v)" d="M3.9 370.5h-.7a2.3 2.3 0 01-2.3-2.3v-67.9a2.3 2.3 0 012.3-2.3h.7z"/><path fill="url(#w)" d="M2.7 298.1a2.2 2.2 0 00-1.8 2.2v67.9a2.3 2.3 0 001.8 2.3z"/><path fill="url(#x)" d="M1.4 298.9a2.4 2.4 0 00-.5 1.4v67.9a2.5 2.5 0 00.5 1.5z"/><path fill="url(#y)" d="M496.4 231.5h1a3.2 3.2 0 013.2 3.2v107.8a3.2 3.2 0 01-3.2 3.2h-1z"/><path fill="url(#z)" d="M498.2 345.6a3.1 3.1 0 002.4-3.1V234.7a3.2 3.2 0 00-2.4-3.1z"/><path fill="url(#A)" d="M499.9 344.5a3.1 3.1 0 00.7-2V234.7a3.1 3.1 0 00-.7-2z"/><path fill="url(#B)" d="M469.5 954.3c1.9-3.2 3.2-7.8 4-12.8 2.6-9.2 3.2-20 3.2-34.6V93.1c0-17.9-2.1-29.8-5.3-40.6s-8.7-18-15-25.1a27.5 27.5 0 01-4.6-7.6 48.1 48.1 0 0113.4 9.4c17.3 16.9 20.2 33.4 20.2 63.9v813.8c0 30.5-2.9 47-20.2 63.9a50.4 50.4 0 01-13.2 9.3c.4-3.8 10.2-13.2 17.5-25.8z"/><path fill="url(#f)" d="M85.1 12.6A83 83 0 0051 19l-1.9 5.4c-1.6 3.2 2.8.2 11.5-1.7s13.1-2.9 23.4-2.9h333.1a69.6 69.6 0 0133.3 9.4l3.2 1.9c4.5 2.3 2.2-5.3-2-9.8l-2.3-2.4a84.9 84.9 0 00-34.1-6.3z"/><path fill="url(#C)" d="M415.3 987.4a53.3 53.3 0 0041.2-18.1c-13 10.4-37.7 10.8-37.7 10.8H80.2c-24.9-.1-35.4-10-35.4-10s9.6 14.1 40.3 17.3z"/><path fill="url(#D)" d="M31.4 954.3a37.9 37.9 0 01-4-12.8c-2.6-9.2-3.2-20-3.2-34.6V93.1c0-17.9 2.1-29.8 5.3-40.6s8.7-18 15-25.1a27.5 27.5 0 004.6-7.6 50.3 50.3 0 00-13.5 9.4C18.4 46.1 15.5 62.6 15.5 93.1v813.8c0 30.5 2.9 47 20.1 63.9a52.9 52.9 0 0013.3 9.3c-.4-3.8-10.2-13.2-17.5-25.8z"/><g fill="#9d9d9d"><path d="M2.9 898h7.9v6.3H2.9zM489.6 898h7.9v6.3h-7.9zM2.9 95.5h7.9v6.3H2.9zM489.6 95.5h7.9v6.3h-7.9z" opacity=".5"/></g><path fill="url(#g)" d="M34.9 22.8a58.2 58.2 0 0114-8.6A61 61 0 0031.8 19a83.3 83.3 0 00-15.1 17.5c5.7-6.2 12-10.2 18.2-13.7z"/><path fill="url(#E)" d="M465.5 22.8a57.4 57.4 0 00-13.9-8.6 49 49 0 0116.7 4.6l3.6 3.2a81.5 81.5 0 0112 14.5 71.5 71.5 0 00-18.4-13.7z"/><path fill="url(#F)" d="M465.9 976.8a60.7 60.7 0 01-13.8 8.6c4.4 0 10.8-2.1 16.7-4.5l3.6-3.2a79.7 79.7 0 0011.7-14.6 68.5 68.5 0 01-18.2 13.7z"/><path fill="url(#G)" d="M34.3 976.7a60.3 60.3 0 0014 8.7 51 51 0 01-16.7-4.5l-3.7-3.2a78.9 78.9 0 01-11.6-14.6 68.9 68.9 0 0018 13.6z"/><g mask="url(#H)"><path fill="url(#k)" d="M28.7 22C10.9 39.5 6.3 56.6 5.6 84l4.8.4c.6-26.7 4.8-42.5 21.6-59 8.3-8.1 24.1-17.8 52.1-18l8.5-4.8h-7.5C54.8 2.6 37.7 13.2 28.7 22z" opacity=".4"/></g><g mask="url(#I)"><path fill="url(#J)" d="M476.2 25.4C458.8 7.6 438.2 2 413.5 2.6l-.4 4.7c26.7.7 41.8 5.8 58.3 22.6 8.1 8.3 18.5 23.2 18.7 51.2l4.8 8.5v-7.5c0-30.3-9.8-47.7-18.7-56.7z" opacity=".4"/></g><g mask="url(#K)"><path fill="url(#L)" d="M24.2 975.1c17.4 17.8 37.9 23.4 62.7 22.8l.4-4.8c-26.7-.6-41.8-5.7-58.3-22.5-8.1-8.3-18.5-23.2-18.7-51.2l-4.8-8.5v7.5c0 30.3 9.8 47.7 18.7 56.7z" opacity=".4"/></g><g mask="url(#M)"><path fill="url(#N)" d="M476 974.6c-17.5 17.8-38 23.4-62.7 22.8l-.5-4.8c26.7-.6 41.8-5.7 58.3-22.6 8.2-8.3 18.5-23.1 18.7-51.2l4.8-8.5v7.5c0 30.3-9.8 47.8-18.6 56.8z" opacity=".4"/></g><path fill="url(#O)" d="M280.5 39.6c0 2.3-1.6 4.3-3.5 4.3h-54c-1.9 0-3.5-2-3.5-4.3 0-2.4 1.6-4.3 3.5-4.3h54c1.9 0 3.5 1.9 3.5 4.3z"/><path fill="url(#P)" d="M277 35.3c1.9 0 3.5 1.9 3.5 4.3s-1.6 4.3-3.5 4.3h-54c-1.9 0-3.5-2-3.5-4.3s1.6-4.3 3.5-4.3zm0-.8h-54c-2.3 0-4.3 2.3-4.3 5.1s2 5.1 4.3 5.1h54c2.3 0 4.3-2.3 4.3-5.1s-2-5.1-4.3-5.1z"/><path fill="#161616" d="M238.2 42.9l.5.6h-2.3l2.1-2.5-2.2-2.8 1.7-2.1-.4-.4h2.1l-2.1 2.5 2.2 2.7zm8.5-2l-2.2-2.7 2.1-2.5h-2.1l.4.4-1.7 2.1 2.2 2.8-2 2.5h2.2l-.5-.6zm-4.6 0l-2.2-2.7 2.1-2.5h-2.1l.3.4-1.7 2.1 2.3 2.8-2.1 2.5h2.3l-.5-.6zm2.3 0l-2.2-2.7 2.2-2.5h-2.2l.4.4-1.7 2.1 2.2 2.8-2.1 2.5h2.4l-.5-.6zm6.9 0l-2.3-2.7 2.2-2.5h-2.1l.4.4-1.7 2.1L250 41l-2 2.5h2.2l-.5-.6zm-2.3 0l-2.2-2.7 2.2-2.5h-2.2l.3.4-1.7 2.1 2.3 2.8-2.1 2.5h2.4l-.5-.6zm4.3 0l-2.2-2.7 2.2-2.5h-2l.4.4-1.7 2.1 2.2 2.8-2 2.5h2.1l-.6-.6zm-24.8 0l-2.2-2.7 2.1-2.5h-2l.4.4-1.7 2.1 2.2 2.8-2.1 2.5h2.2l-.5-.6zm2.3 0l-2.3-2.7 2.2-2.5h-2.1l.4.4-1.7 2.1 2.2 2.8-2.1 2.5h2.3l-.5-.6zm-4.5 0l-2.2-2.7 2.1-2.5h-2l.3.4-1.7 2.1 2.3 2.8-2.1 2.5h2.2l-.5-.6zm8.9 0l-2.2-2.7 2.1-2.5h-2l.3.4-1.7 2.1L234 41l-2.1 2.5h2.3l-.6-.6zm-2.2 0l-2.2-2.7 2.1-2.5h-2.1l.4.4-1.7 2.1 2.2 2.8-2 2.5h2.2l-.5-.6zm4.5 0l-2.2-2.7 2.1-2.5h-2.1l.4.4-1.7 2.1 2.2 2.8-2 2.5h2.2l-.5-.6zm17.9 0l-2.2-2.7 2.1-2.5h-1.9l.4.4-1.7 2.1 2.2 2.8-2 2.5h2l-.5-.6zm21.7 0l-2.2-2.7 2.1-2.5h-1.9l.3.4-1.7 2.1L276 41l-2.1 2.5h2.1l-.5-.6zm-6.3 0l-2.2-2.7 2.1-2.5h-1.9l.4.4-1.7 2.1 2.2 2.8-2.1 2.5h2.1l-.5-.6zm2.1 0l-2.2-2.7 2.2-2.5h-2l.4.4-1.7 2.1 2.2 2.8-2.1 2.5h2.2l-.5-.6zm2.1 0l-2.2-2.7 2.1-2.5H273l.4.4-1.7 2.1 2.2 2.8-2 2.5h2l-.5-.6zm4.8-3.4a2.2 2.2 0 00-.5-.8l-1.3 1.5 2.2 2.7a5.1 5.1 0 00.2-1.3l-1.2-1.4zm-.5 3.4l-2.3-2.7 1.7-2a2.5 2.5 0 00-1.5-.5l.4.4-1.7 2.1 2.2 2.8-2.1 2.5h1.2l.8-.2-.3-.4zm-55.2 0l-2.2-2.7 2.1-2.5h-2l.3.3-1.7 2.1 2.2 2.8-1.7 2a2.4 2.4 0 001.4.5h.5l-.5-.6zm38 0l-2.2-2.7 2.1-2.5h-2.1l.4.4-1.7 2.1 2.2 2.8-2 2.5h2.2l-.5-.6zm-4.5 0l-2.2-2.7 2.1-2.5h-2l.3.4-1.7 2.1 2.3 2.8-2.1 2.5h2.3l-.6-.6zm6.7 0l-2.2-2.7 2.1-2.5h-2l.3.4-1.7 2.1 2.3 2.8-2.1 2.5h2.2l-.5-.6zm4.4 0l-2.2-2.7 2.1-2.5h-2l.4.4-1.7 2.1 2.2 2.8-2.1 2.5h2.2l-.5-.6zm-2.2 0l-2.2-2.7 2.1-2.5h-2l.4.4-1.7 2.1 2.2 2.8-2.1 2.5h2.2l-.5-.6zm-6.7 0l-2.2-2.7 2.1-2.5h-2l.4.4-1.7 2.1 2.2 2.8-2 2.5h2.2l-.6-.6zm-40.2-2.7l1.9-2.3a4.1 4.1 0 00-2.2 3.6l1.2 1.5-.6.7.6.8 1.3-1.6zm60.6 2.8l-1.8 2.2a3.7 3.7 0 001.8-2.2z"/><circle cx="304" cy="39.4" r="7.6" fill="url(#Q)"/><circle cx="304" cy="39.4" r="7.6" fill="url(#R)"/><circle cx="304" cy="39.4" r="7.5" fill="url(#S)" opacity=".3"/><circle cx="304.1" cy="39.3" r="5.9" fill="#0c1327"/><path fill="url(#T)" d="M310 39.4a6 6 0 11-6-6.1 6 6 0 016 6.1z"/><path fill="url(#U)" d="M304.1 42.5a4.7 4.7 0 11-9.3 0 4.7 4.7 0 019.3 0z" opacity=".5"/><circle cx="304.1" cy="39.3" r="3.4" fill="#231f20"/><path fill="#262261" d="M303.6 44.5c-2.8 1-9.1-4.8-2.3-10.1 2-1.5 4.5.8 2.7 2.5-5.6 5.5-.4 7.6-.4 7.6z"/><path fill="#262261" d="M304.6 34.1c2.8-1 9.1 5.1 2.3 10.4-2 1.5-4.4-.8-2.7-2.5 5.6-5.5.4-7.9.4-7.9z"/><path fill="#92cbe9" d="M452.6 41.5c-5.4-5.3-16.3-11.6-37.4-11.6h-37.6c-1.9.3-4.7 1.4-5 6-.4 6.3-1.1 14.7-7.4 21.1a24.2 24.2 0 01-17.6 7.2H153.7a24 24 0 01-17.5-7.2c-6.3-6.4-7.1-14.8-7.5-21.1-.2-4.6-3-5.7-4.9-6H85.1c-21.1 0-31.9 6.3-37.3 11.6-12.7 12.5-15 24.4-15 51.6v813.8c0 27.2 2.3 39.1 15 51.6 5.4 5.3 16.3 11.6 37.3 11.6h330.2c21 0 31.9-6.3 37.3-11.6 12.7-12.5 15-24.4 15-51.6V93.1c0-27.2-2.3-39.1-15-51.6z"/><path fill="#f0bb4b" d="M32.8 615.2l434.8-165.3v-44.8L32.8 570.4z"/><path fill="#77b756" d="M32.8 570.4l434.8-165.3v-44.8L32.8 525.5z"/><path fill="#cd4744" d="M32.8 704.8l434.8-165.2v-44.9L32.8 660z"/><path fill="#e8873a" d="M32.8 660l434.8-165.3v-44.8L32.8 615.2z"/><path fill="#469ad6" d="M32.8 794.4l434.8-165.2v-44.8L32.8 749.6z"/><path fill="#8a4192" d="M32.8 749.6l434.8-165.2v-44.9L32.8 704.8z"/><rect width="396.3" height="104.8" x="52" y="849.8" fill="#b1d7e9" rx="32.3"/><rect width="66.9" height="66.9" x="265.4" y="868.8" fill="url(#p)" rx="14.7"/><path fill="#fff" d="M299.2 880.6c-13.6 0-24.6 9.1-24.6 20.3 0 7.5 5 14.1 12.3 17.6a10.4 10.4 0 01-3.2 5.3s5.8 0 7.9-3.5a31 31 0 007.6 1c13.5 0 24.5-9.2 24.5-20.4s-11-20.3-24.5-20.3z"/><rect width="66.9" height="66.9" x="363" y="868.8" fill="url(#V)" rx="14.7"/><path fill="#fff" d="M387.3 902.1l-13.2 13.6v-27.4zm18 0l13.3 13.6v-27.4zm-3.1 2.9c-2.6 2.6-4.1 4.1-6 4.1s-3.5-1.6-6.1-4.2l-1.9-1.9-13.4 13.8h43.4l-13.7-14.1zm-1-1l16.5-16.4h-42.9l16.3 16.3c5.1 5.1 5.2 5 10.1.1z"/><rect width="66.9" height="66.9" x="70.6" y="868.8" fill="url(#W)" rx="14.7"/><path fill="#fff" d="M84.7 882.9c-3.8 3.4-4.5 7.7 2.6 17.5s16.8 17.9 23.7 21.3 10 1.6 11.9-1.1 2-4.8-1-7-7.1-6.5-10.9-3.4-6.4-.2-7.5-1.4l-7.9-8a4.8 4.8 0 01-.1-6.5c2.2-2.3-.7-6.5-1.5-7.4s-4.2-8.6-9.3-4z"/><rect width="66.9" height="66.9" x="168" y="868.8" fill="#fff" rx="14.7"/><path fill="url(#X)" d="M230.1 902.2a28.7 28.7 0 01-28.7 28.7 28.7 28.7 0 01-28.6-28.7 28.7 28.7 0 0128.6-28.7 28.7 28.7 0 0128.7 28.7z"/><path fill="none" stroke="#fff" stroke-linecap="round" stroke-miterlimit="2.7" stroke-width=".9" d="M201.5 875.8v4.5m0 48.3v-4.5m2.6-48.2l-.2 1.9m-5.1 50.7l.2-1.9m29.5-24.4h-4.6m-49.5 0h4.6m49.4 2.6l-2-.2m-51.9-5l2 .2m44.1-16.3l-3.3 3.2m-35 34.2l3.3-3.2m36.8-32.3l-1.5 1.3M180.5 919l1.5-1.3m38.6 3.2l-3.3-3.2m-35-34.2l3.3 3.2m33 35.9l-1.2-1.5m-33.1-39.3l1.2 1.5m26.3-5.5l-1.7 4.1m-19 44.7l1.8-4.1m21.3-43.6l-.9 1.7m-24.6 44.9l.9-1.7m36.9-11.5l-4.3-1.7m-45.8-18.5l4.3 1.7m44.6 20.9l-1.7-1m-46-24l1.7 1m47.2 1.4l-4.3 1.7m-45.8 18.5l4.3-1.7m46.7-16.1l-1.9.6m-50 14.8l1.9-.6m34.4 17.3l-1.7-4.1m-19-44.7l1.8 4.1m16.4 45.6l-.6-1.9m-15.1-48.7l.6 1.8m12.5-2.4l-.9 4.4m-9.6 47.4l.9-4.4m12.2-46.8l-.6 1.8m-15.1 48.8l.6-1.9m33.8-18.2l-4.5-.9m-48.6-9.5l4.5.9m48 12l-1.9-.6m-50-14.8l1.9.6m46.6-7.6l-3.9 2.5m-41.2 26.9l3.9-2.5m42.5-24.7l-1.7 1m-46 24l1.7-1m37.2 10.5l-2.6-3.8m-27.5-40.2l2.6 3.8m25.2 41.5l-.9-1.7m-24.6-44.9l.9 1.7m26.9-.4l-2.6 3.8m-27.5 40.2l2.6-3.8m29.6-38.6l-1.2 1.5m-33.1 39.3l1.2-1.5m38.5-4.2l-3.9-2.5m-41.2-26.9l3.9 2.5m39.6 29l-1.5-1.3m-40.4-32.3l1.5 1.3m46 10.3l-4.5.9m-48.6 9.5l4.5-.9m49-6.9l-2 .2m-51.9 5l2-.2m30.2 23.5l-.9-4.4m-9.6-47.4l.9 4.4m7 47.8l-.2-1.9m-5.1-50.7l.2 1.9"/><path fill="#ff5150" d="M204.7 905.6l-6.5-6.8 23.2-15.7z"/><path fill="#f1f1f1" d="M204.7 905.6l-6.5-6.8-16.7 22.5z"/><circle cx="250.2" cy="834.2" r="4.2" fill="#b1d7e9"/><circle cx="268.9" cy="834.2" r="4.2" fill="#fff"/><circle cx="231.4" cy="834.2" r="4.2" fill="#b1d7e9"/><path fill="#fbfbfb" d="M75.1 59.7a2.1 2.1 0 002.1 1.2c2.2 0 3.1-2.2 3-4.9h-.1a3.1 3.1 0 01-3.1 1.9 3.9 3.9 0 01-4.1-4.2 4.2 4.2 0 014.5-4.4c2.3 0 4.7 1.4 4.7 6.4s-1.6 6.9-5 6.9-3.7-1.4-3.9-2.9zm2.2-8.7a2.5 2.5 0 00-2.5 2.7 2.6 2.6 0 105.1 0 2.5 2.5 0 00-2.6-2.7zm9 2.4a1.4 1.4 0 011.4 1.4 1.4 1.4 0 11-2.8 0 1.4 1.4 0 011.4-1.4zm0 6.2a1.4 1.4 0 011.4 1.5 1.4 1.4 0 01-2.8 0 1.4 1.4 0 011.4-1.5zm11.9-10v8.5h1.7v1.7h-1.7v2.5h-1.8v-2.5h-6.2v-1.7c1.6-2.9 3.5-5.7 5.2-8.5zm-1.8 8.5v-6.9h-.1L92.1 58h4.3zm8.7 4.2V51.7h-.1l-2.9 2.1v-2l3-2.2h1.9v12.7zM392.8 61.8a.5.5 0 01-.5.5h-1.8a.5.5 0 01-.5-.5V50.2c0-.4.2-.6.5-.6h1.8c.3 0 .5.2.5.6zm-5.2-8.5a.6.6 0 00-.6-.6h-1.7a.6.6 0 00-.6.6v8.5c0 .3.2.5.6.5h1.7a.6.6 0 00.6-.5zm-5.3 2.6a.6.6 0 00-.6-.6H380a.6.6 0 00-.6.6v5.9a.6.6 0 00.6.5h1.7a.6.6 0 00.6-.5zm-5.3 2c0-.3-.2-.5-.6-.5h-1.7a.6.6 0 00-.6.5v3.9a.6.6 0 00.6.5h1.7c.4 0 .6-.2.6-.5z"/><path fill="#fbfbfb" fill-rule="evenodd" d="M401.5 55.4a23.9 23.9 0 00-2.3-2.2 12.9 12.9 0 0118 0l-2.3 2.2a9.7 9.7 0 00-13.4 0zm10.1 3.4l2.2-2.3a8 8 0 00-11.2 0l2.2 2.2a5.1 5.1 0 016.8.1zm-5.6 1.1l2.2 2.2 2.2-2.2a3.2 3.2 0 00-4.4 0z"/><path fill="#b1d7e9" d="M445.9 49.3h-19.7a2.8 2.8 0 00-2.9 2.8v7.7a2.9 2.9 0 002.9 2.9h19.7a2.9 2.9 0 002.8-2.9v-7.7a2.8 2.8 0 00-2.8-2.8zm1.7 10.5a1.8 1.8 0 01-1.7 1.7h-19.7a1.7 1.7 0 01-1.7-1.7v-7.7a1.7 1.7 0 011.7-1.7h19.7a1.8 1.8 0 011.7 1.7z"/><rect width="20.8" height="8.8" x="425.6" y="51.5" fill="#fbfbfb" rx=".6"/><path fill="#fbfbfb" d="M451.5 56a1.6 1.6 0 01-1.6 1.5v-3.1a1.6 1.6 0 011.6 1.6z"/><rect width="61.8" height="61.8" x="270.5" y="469.1" rx="13.6"/></svg>