<svg xmlns="http://www.w3.org/2000/svg" xmlns:xlink="http://www.w3.org/1999/xlink" viewBox="0 0 1296.9 1000"><defs><linearGradient id="a" x1="648.6" y1="952.26" x2="648.6" y2="1004.7" gradientTransform="matrix(-1, 0, 0, 1, 1296.9, 0)" gradientUnits="userSpaceOnUse"><stop offset="0" stop-color="#404040"/><stop offset="0.48" stop-color="#333"/><stop offset="1" stop-color="#212121"/></linearGradient><linearGradient id="b" x1="648.45" y1="1002.38" x2="648.45" y2="971.6" gradientTransform="matrix(-1, 0, 0, 1, 1296.9, 0)" gradientUnits="userSpaceOnUse"><stop offset="0" stop-color="#404040"/><stop offset="0.02" stop-color="#3f3f3f"/><stop offset="0.57" stop-color="#292929"/><stop offset="0.93" stop-color="#212121"/></linearGradient><linearGradient id="c" x1="858.28" y1="845.75" x2="659.47" y2="1102.69" gradientTransform="matrix(-1, 0, 0, 1, 1296.9, 0)" gradientUnits="userSpaceOnUse"><stop offset="0" stop-color="#fff"/><stop offset="0.07" stop-color="#f9f9f9"/><stop offset="0.16" stop-color="#e7e7e7"/><stop offset="0.27" stop-color="#cacaca"/><stop offset="0.4" stop-color="#a2a2a2"/><stop offset="0.53" stop-color="#6e6e6e"/><stop offset="0.66" stop-color="#303030"/><stop offset="0.69" stop-color="#212121"/></linearGradient><linearGradient id="d" x1="601.14" y1="902.72" x2="695.75" y2="902.72" gradientUnits="userSpaceOnUse"><stop offset="0" stop-color="#292929"/><stop offset="0.15" stop-color="#4a4a4a"/><stop offset="0.45" stop-color="#292929"/><stop offset="0.88" stop-color="#333"/><stop offset="1" stop-color="#272727"/></linearGradient><linearGradient id="e" x1="648.45" y1="963.84" x2="648.45" y2="849.32" gradientUnits="userSpaceOnUse"><stop offset="0" stop-opacity="0"/><stop offset="1" stop-opacity="0.6"/></linearGradient><linearGradient id="f" x1="11330.7" y1="-11587.86" x2="11330.7" y2="-7379.13" gradientTransform="matrix(0.2, 0, 0, -0.2, -1581.43, -1446.58)" gradientUnits="userSpaceOnUse"><stop offset="0" stop-color="#202020"/><stop offset="1" stop-color="#343434"/></linearGradient><linearGradient id="g" x1="11330.7" y1="-11443.78" x2="11330.7" y2="-7559.78" gradientTransform="matrix(0.2, 0, 0, -0.2, -1581.43, -1446.58)" gradientUnits="userSpaceOnUse"><stop offset="0" stop-color="#616161"/><stop offset="1" stop-color="#202020"/></linearGradient><radialGradient id="h" cx="-6599.73" cy="2178.07" r="7.18" gradientTransform="translate(-4222.3 -454.4) rotate(-135) scale(0.59 0.98)" gradientUnits="userSpaceOnUse"><stop offset="0" stop-color="#ccc"/><stop offset="1" stop-color="#c1c1c1" stop-opacity="0"/></radialGradient><radialGradient id="i" cx="-1084.98" cy="-1164.28" r="7.21" gradientTransform="matrix(0.42, -0.42, -0.69, -0.69, 903.19, -454.43)" xlink:href="#h"/><linearGradient id="j" x1="8091.18" y1="-7366.15" x2="11210.57" y2="-7366.15" gradientTransform="matrix(0.2, 0, 0, -0.2, -1581.43, -1446.58)" gradientUnits="userSpaceOnUse"><stop offset="0" stop-color="#afafaf"/><stop offset="1" stop-color="#707070"/></linearGradient><linearGradient id="k" x1="8054.64" y1="-10417.94" x2="11210.57" y2="-10417.94" gradientTransform="matrix(0.2, 0, 0, -0.2, -1581.43, -1204.01)" gradientUnits="userSpaceOnUse"><stop offset="0" stop-color="#929292"/><stop offset="1" stop-color="#8a8a8a"/></linearGradient><linearGradient id="l" x1="11330.7" y1="-10435.23" x2="11330.7" y2="-10414.35" gradientTransform="matrix(0.2, 0, 0, -0.2, -1581.43, -1204.01)" gradientUnits="userSpaceOnUse"><stop offset="0" stop-color="#5a5a5a"/><stop offset="1" stop-color="#8a8a8a" stop-opacity="0"/></linearGradient><linearGradient id="m" x1="11330.7" y1="-10433.6" x2="11330.7" y2="-10402.24" gradientTransform="matrix(0.2, 0, 0, -0.2, -1581.43, -1204.01)" gradientUnits="userSpaceOnUse"><stop offset="0" stop-color="#6f6f6f" stop-opacity="0"/><stop offset="1" stop-color="#ebebeb"/></linearGradient><linearGradient id="n" x1="648.46" y1="803.63" x2="648.46" y2="45.86" gradientUnits="userSpaceOnUse"><stop offset="0" stop-color="#2c0225"/><stop offset="0.26" stop-color="#400444"/><stop offset="0.5" stop-color="#5e0c5a"/><stop offset="0.75" stop-color="#7e1854"/><stop offset="1" stop-color="#b12b26"/></linearGradient><linearGradient id="o" x1="648.46" y1="603.62" x2="648.46" y2="46.19" gradientUnits="userSpaceOnUse"><stop offset="0.5"/><stop offset="1" stop-opacity="0"/></linearGradient><linearGradient id="p" x1="68.89" y1="803.5" x2="68.89" y2="64.83" gradientUnits="userSpaceOnUse"><stop offset="0" stop-color="#21151f"/><stop offset="1" stop-color="#461f20"/></linearGradient><linearGradient id="q" x1="-3635.55" y1="1316.62" x2="-3602.42" y2="1355.35" gradientTransform="matrix(0, -1, -1, 0, 1401.33, -3430.67)" gradientUnits="userSpaceOnUse"><stop offset="0" stop-color="#f37e40"/><stop offset="1" stop-color="#f34f17"/></linearGradient><clipPath id="r"><path d="M84.2,185.5c0-6.2-.6-6.9-6.8-6.8H60.2c-6.2-.1-6.8.6-6.8,6.8v11.6c0,6.2.6,6.8,6.8,6.8H77.4c6.2,0,6.8-.6,6.8-6.8Z" fill="none"/></clipPath><linearGradient id="s" x1="68.82" y1="804.71" x2="68.82" y2="779.47" gradientTransform="matrix(1, 0, 0, -1, 0, 983.38)" gradientUnits="userSpaceOnUse"><stop offset="0" stop-color="#fff"/><stop offset="0.13" stop-color="#fff" stop-opacity="0.1"/><stop offset="0.93" stop-color="#fff" stop-opacity="0.1"/><stop offset="1" stop-color="#fff" stop-opacity="0.5"/></linearGradient><linearGradient id="t" x1="540.42" y1="4466.19" x2="574.08" y2="4499.85" gradientTransform="matrix(0, 1, 1, 0, -4414.05, -417.95)" gradientUnits="userSpaceOnUse"><stop offset="0" stop-color="#948b74"/><stop offset="1" stop-color="#aea795"/></linearGradient><linearGradient id="u" x1="541.81" y1="4483.02" x2="572.67" y2="4483.02" gradientTransform="matrix(0, 1, 1, 0, -4414.05, -417.95)" xlink:href="#s"/><linearGradient id="v" x1="77.6" y1="905.06" x2="51.16" y2="879.54" gradientTransform="matrix(1, 0, 0, -1, 3.7, 983.37)" gradientUnits="userSpaceOnUse"><stop offset="0.05" stop-color="#fff44f"/><stop offset="0.11" stop-color="#ffe847"/><stop offset="0.23" stop-color="#ffc830"/><stop offset="0.37" stop-color="#ff980e"/><stop offset="0.4" stop-color="#ff8b16"/><stop offset="0.46" stop-color="#ff672a"/><stop offset="0.53" stop-color="#ff3647"/><stop offset="0.7" stop-color="#e31587"/></linearGradient><radialGradient id="w" cx="-7898.62" cy="9430.5" r="33.21" gradientTransform="matrix(1, 0, 0, -1, 7978.7, 9507.37)" gradientUnits="userSpaceOnUse"><stop offset="0.13" stop-color="#ffbd4f"/><stop offset="0.19" stop-color="#ffac31"/><stop offset="0.25" stop-color="#ff9d17"/><stop offset="0.28" stop-color="#ff980e"/><stop offset="0.4" stop-color="#ff563b"/><stop offset="0.47" stop-color="#ff3750"/><stop offset="0.71" stop-color="#f5156c"/><stop offset="0.78" stop-color="#eb0878"/><stop offset="0.86" stop-color="#e50080"/></radialGradient><radialGradient id="x" cx="-7910.75" cy="9416.92" r="33.21" gradientTransform="matrix(1, 0, 0, -1, 7978.7, 9507.37)" gradientUnits="userSpaceOnUse"><stop offset="0.3" stop-color="#960e18"/><stop offset="0.35" stop-color="#b11927" stop-opacity="0.74"/><stop offset="0.43" stop-color="#db293d" stop-opacity="0.34"/><stop offset="0.5" stop-color="#f5334b" stop-opacity="0.09"/><stop offset="0.53" stop-color="#ff3750" stop-opacity="0"/></radialGradient><radialGradient id="y" cx="-7906.75" cy="9438.03" r="24.06" gradientTransform="matrix(1, 0, 0, -1, 7978.7, 9507.37)" gradientUnits="userSpaceOnUse"><stop offset="0.13" stop-color="#fff44f"/><stop offset="0.25" stop-color="#ffdc3e"/><stop offset="0.51" stop-color="#ff9d12"/><stop offset="0.53" stop-color="#ff980e"/></radialGradient><radialGradient id="z" cx="-7914.43" cy="9408.25" r="15.81" gradientTransform="matrix(1, 0, 0, -1, 7978.7, 9507.37)" gradientUnits="userSpaceOnUse"><stop offset="0.35" stop-color="#3a8ee6"/><stop offset="0.47" stop-color="#5c79f0"/><stop offset="0.67" stop-color="#9059ff"/><stop offset="1" stop-color="#c139e6"/></radialGradient><radialGradient id="aa" cx="-8448.75" cy="9396.24" r="8.38" gradientTransform="matrix(0.97, -0.23, -0.28, -1.14, 10865.91, 8795.19)" gradientUnits="userSpaceOnUse"><stop offset="0.21" stop-color="#9059ff" stop-opacity="0"/><stop offset="0.28" stop-color="#8c4ff3" stop-opacity="0.06"/><stop offset="0.75" stop-color="#7716a8" stop-opacity="0.45"/><stop offset="0.97" stop-color="#6e008b" stop-opacity="0.6"/></radialGradient><radialGradient id="ab" cx="-7911.17" cy="9431.86" r="11.37" gradientTransform="matrix(1, 0, 0, -1, 7978.7, 9507.37)" gradientUnits="userSpaceOnUse"><stop offset="0" stop-color="#ffe226"/><stop offset="0.12" stop-color="#ffdb27"/><stop offset="0.29" stop-color="#ffc82a"/><stop offset="0.5" stop-color="#ffa930"/><stop offset="0.73" stop-color="#ff7e37"/><stop offset="0.79" stop-color="#ff7139"/></radialGradient><radialGradient id="ac" cx="-7902.23" cy="9439.07" r="48.53" gradientTransform="matrix(1, 0, 0, -1, 7978.7, 9507.37)" gradientUnits="userSpaceOnUse"><stop offset="0.11" stop-color="#fff44f"/><stop offset="0.46" stop-color="#ff980e"/><stop offset="0.62" stop-color="#ff5634"/><stop offset="0.72" stop-color="#ff3647"/><stop offset="0.9" stop-color="#e31587"/></radialGradient><radialGradient id="ad" cx="-7509.03" cy="14013.43" r="35.55" gradientTransform="matrix(0.1, 1, 0.65, -0.07, -8289.95, 8509.41)" gradientUnits="userSpaceOnUse"><stop offset="0" stop-color="#fff44f"/><stop offset="0.06" stop-color="#ffe847"/><stop offset="0.17" stop-color="#ffc830"/><stop offset="0.3" stop-color="#ff980e"/><stop offset="0.36" stop-color="#ff8b16"/><stop offset="0.46" stop-color="#ff672a"/><stop offset="0.57" stop-color="#ff3647"/><stop offset="0.74" stop-color="#e31587"/></radialGradient><radialGradient id="ae" cx="-7911.44" cy="9427.64" r="30.3" gradientTransform="matrix(1, 0, 0, -1, 7978.7, 9507.37)" gradientUnits="userSpaceOnUse"><stop offset="0.14" stop-color="#fff44f"/><stop offset="0.48" stop-color="#ff980e"/><stop offset="0.59" stop-color="#ff5634"/><stop offset="0.66" stop-color="#ff3647"/><stop offset="0.9" stop-color="#e31587"/></radialGradient><radialGradient id="af" cx="-7903.44" cy="9425.87" r="33.16" gradientTransform="matrix(1, 0, 0, -1, 7978.7, 9507.37)" gradientUnits="userSpaceOnUse"><stop offset="0.09" stop-color="#fff44f"/><stop offset="0.23" stop-color="#ffe141"/><stop offset="0.51" stop-color="#ffaf1e"/><stop offset="0.63" stop-color="#ff980e"/></radialGradient><linearGradient id="ag" x1="77.28" y1="905.19" x2="54.78" y2="882.69" gradientTransform="matrix(1, 0, 0, -1, 3.7, 983.37)" gradientUnits="userSpaceOnUse"><stop offset="0.17" stop-color="#fff44f" stop-opacity="0.8"/><stop offset="0.27" stop-color="#fff44f" stop-opacity="0.63"/><stop offset="0.49" stop-color="#fff44f" stop-opacity="0.22"/><stop offset="0.6" stop-color="#fff44f" stop-opacity="0"/></linearGradient><linearGradient id="ah" x1="719.95" y1="494.23" x2="693.5" y2="468.72" xlink:href="#v"/><radialGradient id="ai" cx="-7256.27" cy="9019.67" r="33.21" xlink:href="#w"/><radialGradient id="aj" cx="-7268.41" cy="9006.1" r="33.21" xlink:href="#x"/><radialGradient id="ak" cx="-7264.4" cy="9027.21" r="24.06" xlink:href="#y"/><radialGradient id="al" cx="-7272.08" cy="8997.43" r="15.81" xlink:href="#z"/><radialGradient id="am" cx="-7920.87" cy="8926.22" r="8.38" xlink:href="#aa"/><radialGradient id="an" cx="-7268.83" cy="9021.03" r="11.37" xlink:href="#ab"/><radialGradient id="ao" cx="-7259.89" cy="9028.25" r="48.53" xlink:href="#ac"/><radialGradient id="ap" cx="-7033.23" cy="14920.61" r="35.55" xlink:href="#ad"/><radialGradient id="aq" cx="-7269.1" cy="9016.82" r="30.3" xlink:href="#ae"/><radialGradient id="ar" cx="-7261.1" cy="9015.05" r="33.16" xlink:href="#af"/><linearGradient id="as" x1="719.63" y1="494.37" x2="697.13" y2="471.87" xlink:href="#ag"/><linearGradient id="at" x1="-234.38" y1="113.14" x2="-202.12" y2="143.29" gradientTransform="matrix(1, 0, 0, -1, 800, 623.38)" gradientUnits="userSpaceOnUse"><stop offset="0" stop-color="#2c001e"/><stop offset="0.11" stop-color="#2c001e"/><stop offset="0.19" stop-color="#370626"/><stop offset="0.3" stop-color="#55163b"/><stop offset="0.37" stop-color="#772953"/><stop offset="0.45" stop-color="#7c2b51"/><stop offset="0.52" stop-color="#8b314b"/><stop offset="0.6" stop-color="#8b314b"/><stop offset="0.67" stop-color="#a33a41"/><stop offset="0.8" stop-color="#c44732"/><stop offset="0.91" stop-color="#e65524"/><stop offset="1" stop-color="#e65524"/></linearGradient><linearGradient id="au" x1="-230.4" y1="134.09" x2="-198.14" y2="109.55" gradientTransform="matrix(1, 0, 0, -1, 800, 623.38)" gradientUnits="userSpaceOnUse"><stop offset="0" stop-color="#666"/><stop offset="1" stop-color="#7a7a7a"/></linearGradient></defs><title>Linux</title><g style="isolation:isolate"><path d="M381.7,980c0,5.1.8,14.2,4.3,14.2H910.6c3.5,0,4.3-9.1,4.3-14.2l-11.7-16.2c-3.8-6.8-11.1-7.5-14.6-7.5H408c-3.5,0-9.9.6-13.8,6.8Z" fill="url(#a)"/><path d="M381.5,995.1c0,2.7,2.8,4.9,6.3,4.9H909.1c3.5,0,6.3-2.2,6.3-4.9V982.6c0-2.7-2.8-4.9-6.3-4.9H387.8c-3.5,0-6.3,2.2-6.3,4.9Z" fill="url(#b)"/><path d="M679.8,959.2,543.5,976.5h-157l13.3-16s1.7-2.7,11.6-2.7Z" opacity="0.5" fill="url(#c)" style="mix-blend-mode:screen"/><g opacity="0.5" style="mix-blend-mode:screen"><path d="M908.2,976.2H385.7a3.6,3.6,0,0,0-3.4,3.7v.8c2.1,1,529.1.1,529.1.1,1.9,0,1.8-1.3,1.8-1.3C913.2,977.6,910.1,976.2,908.2,976.2Z" fill="#212121" opacity="0"/><path d="M386,976.5a3.2,3.2,0,0,0-3.2,3.4v.7c1.9.9,528.3.1,530-1.1.1-1.9-2.8-3.2-4.6-3.2Z" fill="#2e2e2e" opacity="0.08"/><path d="M386.3,976.6a2.9,2.9,0,0,0-3.1,3.1c.1,0,.1.7.1.7,1.7.8,527.5.1,529-1s-2.3-3-4.2-3Z" fill="#3b3b3b" opacity="0.15"/><path d="M386.6,976.7c-1.9,0-3.2,1.3-2.9,2.9,0,0,0,.6.1.6s526.8,0,528.1-.9-2-2.8-3.8-2.8Z" fill="#484848" opacity="0.23"/><path d="M386.8,976.8c-1.8,0-3.1,1.2-2.7,2.6s.1.6.1.6c1.5.7,526.1,0,527.3-.8s-1.6-2.6-3.5-2.6Z" fill="#545454" opacity="0.31"/><path d="M387.1,976.9c-1.8,0-3,1.1-2.5,2.4v.5c1.3.6,525.3,0,526.3-.8s-1.1-2.3-3-2.3Z" fill="#616161" opacity="0.38"/><path d="M387.4,977c-1.8,0-3,1-2.4,2.2s.1.4.2.4,524.5,0,525.4-.7-.8-2.1-2.6-2.1Z" fill="#6e6e6e" opacity="0.46"/><path d="M387.7,977.1c-1.8,0-2.9.9-2.2,1.9s.1.4.2.4,523.7,0,524.5-.6-.4-1.9-2.3-1.9Z" fill="#7b7b7b" opacity="0.54"/><path d="M388,977.2c-1.8,0-2.8.8-2.1,1.7s.2.3.3.3,522.9,0,523.6-.5-.1-1.7-1.9-1.7Z" fill="#888" opacity="0.62"/><path d="M388.3,977.3c-1.8,0-2.8.8-1.9,1.4s.2.3.3.3,522.1-.1,522.6-.4.4-1.5-1.5-1.5Z" fill="#949494" opacity="0.69"/><path d="M388.5,977.4c-1.7,0-2.6.7-1.7,1.2l.3.2c.5.2,521.4-.1,521.8-.4s.7-1.2-1.1-1.2Z" fill="#a1a1a1" opacity="0.77"/><path d="M388.8,977.5c-1.7,0-2.6.6-1.5,1h.3c.3.1,520.6-.1,520.9-.3s1.1-1-.7-1Z" fill="#aeaeae" opacity="0.85"/><path d="M389.1,977.6c-1.7,0-2.5.5-1.4.7h.4c.1.1,519.8-.1,519.9-.2,1.7-.2,1.5-.8-.3-.8Z" fill="#bbb" opacity="0.92"/><path d="M907.7,977.5l-518.3.2c-1.8,0-2.6.5-.8.5h519C909.4,978.1,909.5,977.5,907.7,977.5Z" fill="#c8c8c8"/></g><rect x="601.1" y="841.6" width="94.6" height="122.23" rx="9.7" fill="url(#d)"/><rect x="601.1" y="849.3" width="94.6" height="114.51" fill="url(#e)"/><rect y="6.2" width="1296.9" height="837.61" rx="3.7" fill="url(#f)"/><rect x="39" y="42" width="1218.8" height="765.91" rx="3.7" fill="url(#g)"/><path d="M40.7,800.5a9.6,9.6,0,0,0-1.7,2.6c0,3.5,1.1,5.1,6,4.8l1.7-1.3c5.3-5.4-3-1-3.1-8.2a11.2,11.2,0,0,0-2.9,2.1Z" fill="url(#h)"/><path d="M1256,800.5a12.1,12.1,0,0,1,1.9,2.3c.2,3.3-.9,5.6-6.2,5.1l-1.7-1.3c-5.6-5.4,3-.6,3.1-8.2a11.2,11.2,0,0,1,2.9,2.1Z" fill="url(#i)"/><rect x="1" width="1294.8" height="6.16" rx="1.3" fill="url(#j)"/><rect x="1" y="843.2" width="1294.8" height="6.16" rx="1.3" fill="url(#k)"/><rect x="1" y="843.2" width="1294.8" height="6.16" rx="1.3" fill="url(#l)"/><rect x="1" y="843.2" width="1294.8" height="6.16" rx="1.3" opacity="0.66" fill="url(#m)" style="isolation:isolate"/><rect x="43.6" y="45.9" width="1209.6" height="757.77" rx="4.3" fill="url(#n)"/><path d="M317.8,603.6,43.6,298.4V46.2H87Zm661.3,0,274.2-305.2V46.2h-43.4Z" opacity="0.04" fill="url(#o)"/><path d="M400.6,803.7,317.8,603.6,497.5,803.7Zm495.7,0,82.8-200.1L799.4,803.7ZM43.6,46.2V486.8l391-440.6Zm1209.7,0V486.8L862.3,46.2Z" fill="#fff" opacity="0.02"/><path d="M894.3,387.2l-18.5-15.5,62.7-10.3.9-.2-.7-3.8-66.9,11-23.4-19.6,38-92.3,2.2-39.1,24.1-74.9-54.1-14-46.2,23.3L765,196.7l-27.7-13.4-81-10.1L586.4,191l-62.2-70.7-31.3,21-1.6,67.5,9.9,23.2L468.3,332.9l7.1,40.3L458,391.1v18.3l3.7,5.7L193.2,314.8l-1.4,3.6L465.2,420.6l1.2,1.8-3.8,7.7L257.9,406.9h-.8V408h-.4l-.2,2.2h.3v.6l204.2,23-4.8,9.6L315.8,458.8l.3,3.9,137.8-15.1-3.5,7.1.8,2.2-76.5,31.5,1.5,3.7,76.2-31.5,4.4,13.2-61,43.8,2.2,3.2,60.1-43.2,5.7,17.1,12.1,3.1L505,533l59.2,7.5,11.3-6.5.3,29.6h3.9l-.3-31.9L601.3,519h.2l2.5,22.6,4.2-.7-2.5-21,36.3,7.9L662.1,603l5.2,124.6L739.2,713l136-87.7.3-.2,77.4-92.2,31.8-73.8ZM646.1,523.5,605,514.6V514l39.5-12.7,29.6,30.3,2.8-2.8L648.7,500l77-24.6,38.9,14.3-98.2,110Zm-138.9,4.9-27.9-33.8,11.5,2.2,2.1.4h0l3.7-8.1,34.8,4.2,5.9,6.8h0l37.8-4.2.3,32.2-12.7,7.3Zm-39.9-37.8-11.8-35.4,9-18.1,12.9,21.3.3-.2h0l19.9,4.6,8.4,1.9-14,30.8-20.6-3.9Zm511.2-29.9-28.4,66.4-42-102.3-12.3-29.9ZM925.9,472l23.4,57-.5,1-75.6,90.1L793.4,440.2l99.2,8.2h.8l.5-4L793.1,436l37.7-56.8,38.3-6.4,22,18.4,2.4,1.8ZM767.4,486.6l-35.6-13.2,24.1-7.7,33.2-25.9-21,46ZM505.8,353.5H544l13.3,10.6-58.1,25.2-18.4-14.6-.5-2.7,3.1-4.1ZM639.2,244.3l20.1,50.6-24.2,19.9H635l-6.9,65.5-54,9.2-.7-14.4,15.7-74.8Zm21.2,51.6,60.3,2.2h.3l35.2-34.7h.1L791,198.3l5.5,32.1,4.7,26.3,4.4,27h0l-8.3,96.9L653.1,404.5l-23.6-23.6,6.9-65.2Zm-40,136.4L619,436l20.1,7.4-7.7,19.5-30.2-35.1,27.7-45.4,22.4,22.4L623,409.5l.6,3.8,29.2-4.8-6.1,15.4L623.5,422h-.8l-.5,3.9,23,1.9-4.7,11.9Zm-18.3,57.5-2.5-20.7-3.8.7,2.5,22.1L578.9,494l-.2-21.5h-3.9l.2,21.9-37.1,4.1-29.4-33.6,23.4-2.1h.3l6.7-5.2h0l38.4-29.8,22.7.8,30.6,35.6-9,8L608,458.3l-2.8,2.7,13.5,13.9-13.1,11.7Zm-63.2-73.2,3.5,6.1,20.8-9.6,10.7-21.8,53.4-9.1L600,427.1l-23-.7h-.2l-38.6,29.9-16.8-31.8Zm61.5,11.3Zm185.3,7.5L661.3,407.1l167.5-27.6-37.4,56.4Zm-128-27.7,117.7,26.9L648.3,424.1l6.2-15.8Zm-85.1-17.2L562.1,412,543,420.8l-9.2-16L514,413.6l23,43.6-5.5,4.2-23.8,2.1-.4-3.9-7.4-69,58.7-25.5,13.3,10.6Zm29.7,101.1,13.6-12.3,3.8-3.4,23.7,24.3-38.6,12.3Zm20.4-18.3,9.7-8.7h0l8.1-20.7,83,30.6-75.9,24.3Zm132.6-8.9-25.8,8.2-87.6-32.4,4.9-12.3L787,439.6Zm77.9-89.6,10.1-23.5,21.9,18.2Zm-1.9.3-32.6,5.4,8.3-96.2,73.4-26.1-35.9,86.5ZM807.8,163l-17.1,32.5h0v.2h0L757,258.9l9.1-56.1Zm-72,25.3,28.9,14L755,262.6l-34.6,34-59.8-2.1-20.2-51.3,93.9-55.1Zm-96.7,54-51.2,57.5h-.1l-15.6,74.2L544.5,352H505.4L485,365.2l34.1-62.6,10.7-60.3,55.3-45.7,71.5-18.2,75.3,9.4ZM537.6,208.1l-14.1-27.7,1.3-51.7,57.5,65.4Zm-31.1,24,30.8-22.3,46.2-14.4.4.4-55.4,45.8-10.6,59.6-24.7-28.4Zm-13.8,42.3,24.6,28.4-35,64.2h.1l-2.5,3.1-6.5-36.6ZM462.9,393.3l17-17.3,18.4,14.6,7.9,72.7-19.6-4.5-7.1-1.6,12.9-43.9-18.7-10.2L469.2,418l-6.3-10Zm7.5,26.6,1.5-5.2,15.3,11.4-8.8,29.8-13.1-20.4,6.6-13.3ZM579,495.5l19.5-2.2,2.3,20.4h-.3l-21.2,12.3Zm189.9-8.4.4-.4,20.5-44.8-9.6,49.4ZM737.3,708.4l-65.2,13.1-5-119-.3-1.2,99.3-111,13.3,4.9L737.9,707.9Zm43.5-212.7,10.9,4,1.3-3.6-11.5-4.3L791.6,440h0l80.2,180.6.3.8L739.6,706.8Z" fill="#e99d82" opacity="0.16"/><path d="M398.6,359.7a1.3,1.3,0,0,1,1.1-1.6h0a1.3,1.3,0,0,1,1.6,1.1h0a1.3,1.3,0,0,1-1.1,1.6h-.3A1.4,1.4,0,0,1,398.6,359.7Zm11.2-1.9a1.3,1.3,0,0,1,1.1-1.6h0a1.3,1.3,0,0,1,1.6,1.1h0a1.4,1.4,0,0,1-1.1,1.6h-.2A1.4,1.4,0,0,1,409.8,357.8Zm11.2-1.9a1.3,1.3,0,0,1,1.1-1.6h0a1.4,1.4,0,0,1,1.6,1.2h0a1.4,1.4,0,0,1-1.1,1.6h-.3A1.4,1.4,0,0,1,421,355.9Zm11.1-1.9a1.4,1.4,0,0,1,1.2-1.6h0a1.4,1.4,0,0,1,1.6,1.2h0a1.4,1.4,0,0,1-1.1,1.6h-.3A1.6,1.6,0,0,1,432.1,354Zm11.2-2a1.5,1.5,0,0,1,1.2-1.6h0a1.4,1.4,0,0,1,1.6,1.1h0a1.4,1.4,0,0,1-1.1,1.6h-.3A1.4,1.4,0,0,1,443.3,352Zm11.2-1.9a1.5,1.5,0,0,1,1.1-1.6h.1a1.5,1.5,0,0,1,1.6,1.1h0a1.5,1.5,0,0,1-1.2,1.6h-.2A1.4,1.4,0,0,1,454.5,350.1Zm11.2-1.9a1.5,1.5,0,0,1,1.1-1.6h0a1.6,1.6,0,0,1,1.7,1.1h0a1.5,1.5,0,0,1-1.2,1.6h-.2A1.4,1.4,0,0,1,465.7,348.2Zm11.2-1.9a1.4,1.4,0,0,1,1.1-1.6h0a1.4,1.4,0,0,1,1.6,1.1h0a1.4,1.4,0,0,1-1.1,1.7h-.2A1.4,1.4,0,0,1,476.9,346.3Zm11.2-1.9a1.4,1.4,0,0,1,1.1-1.6h0a1.4,1.4,0,0,1,1.6,1.1h0a1.3,1.3,0,0,1-1.1,1.6h-.3A1.2,1.2,0,0,1,488.1,344.4Zm11.2-1.9a1.3,1.3,0,0,1,1.1-1.6h0A1.4,1.4,0,0,1,502,342h0a1.3,1.3,0,0,1-1.1,1.6h-.3a1.3,1.3,0,0,1-1.3-1.2Zm11.2-1.9a1.3,1.3,0,0,1,1.1-1.6h0a1.4,1.4,0,0,1,1.6,1.1h0a1.4,1.4,0,0,1-1.1,1.6h-.3A1.4,1.4,0,0,1,510.5,340.6Zm11.2-1.9a1.3,1.3,0,0,1,1.1-1.6h0a1.3,1.3,0,0,1,1.6,1.1h0a1.4,1.4,0,0,1-1.1,1.6H523A1.3,1.3,0,0,1,521.7,338.7Zm11.1-1.9a1.4,1.4,0,0,1,1.2-1.6h0a1.3,1.3,0,0,1,1.6,1.1h0a1.4,1.4,0,0,1-1.1,1.6h-.3A1.6,1.6,0,0,1,532.8,336.8Zm11.2-1.9a1.5,1.5,0,0,1,1.2-1.7h0a1.4,1.4,0,0,1,1.6,1.2h0a1.4,1.4,0,0,1-1.2,1.6h-.2A1.5,1.5,0,0,1,544,334.9Zm11.2-2a1.5,1.5,0,0,1,1.2-1.6h0a1.4,1.4,0,0,1,1.6,1.2h0a1.4,1.4,0,0,1-1.2,1.6h-.2A1.4,1.4,0,0,1,555.2,332.9Zm11.2-1.9a1.5,1.5,0,0,1,1.2-1.6h0a1.5,1.5,0,0,1,1.6,1.2h0a1.5,1.5,0,0,1-1.2,1.6h-.2A1.4,1.4,0,0,1,566.4,331Zm11.2-1.9a1.5,1.5,0,0,1,1.1-1.6h0a1.5,1.5,0,0,1,1.7,1.2h0a1.5,1.5,0,0,1-1.2,1.6H579a1.4,1.4,0,0,1-1.4-1.2Zm11.2-1.9a1.4,1.4,0,0,1,1.1-1.6h0a1.4,1.4,0,0,1,1.6,1.1h0a1.4,1.4,0,0,1-1.1,1.7h-.3a1.4,1.4,0,0,1-1.3-1.2Zm11.2-1.9a1.3,1.3,0,0,1,1.1-1.6h0a1.4,1.4,0,0,1,1.6,1.1h0a1.4,1.4,0,0,1-1.1,1.7h-.3a1.4,1.4,0,0,1-1.3-1.2Zm11.2-1.9a1.3,1.3,0,0,1,1.1-1.6h0a1.4,1.4,0,0,1,1.6,1.1h0a1.6,1.6,0,0,1-1.1,1.7h-.3a1.4,1.4,0,0,1-1.3-1.2Zm11.1-1.9a1.4,1.4,0,0,1,1.2-1.6h0a1.4,1.4,0,0,1,1.6,1.1h0a1.6,1.6,0,0,1-1.1,1.7h-.3a1.5,1.5,0,0,1-1.4-1.2ZM308,345.4a1.6,1.6,0,0,1,1.1-1.7h0a1.5,1.5,0,0,1,1.7,1.2h0a1.5,1.5,0,0,1-1.1,1.6h-.3A1.5,1.5,0,0,1,308,345.4Zm11.2-2.2a1.4,1.4,0,0,1,1.1-1.7h0a1.4,1.4,0,0,1,1.7,1.1h0a1.4,1.4,0,0,1-1.2,1.6h-.2a1.2,1.2,0,0,1-1.4-1Zm11.2-2.3a1.3,1.3,0,0,1,1.1-1.6h0a1.3,1.3,0,0,1,1.6,1.1h0A1.3,1.3,0,0,1,332,342h-.3a1.4,1.4,0,0,1-1.4-1Zm11.2-2.2a1.4,1.4,0,0,1,1.1-1.7h0a1.4,1.4,0,0,1,1.6,1.1h0a1.4,1.4,0,0,1-1,1.7h-.4a1.5,1.5,0,0,1-1.5-1Zm11.2-2.3a1.3,1.3,0,0,1,1.1-1.6h0a1.4,1.4,0,0,1,1.6,1.1h0a1.3,1.3,0,0,1-1,1.6h-.4a1.2,1.2,0,0,1-1.5-.9Zm11.2-2.2a1.3,1.3,0,0,1,1-1.6h.1a1.3,1.3,0,0,1,1.6,1.1h0a1.5,1.5,0,0,1-1.1,1.6H365a1.4,1.4,0,0,1-1.3-.9Zm11.1-2.2a1.6,1.6,0,0,1,1.1-1.7h0a1.6,1.6,0,0,1,1.7,1.1h0a1.6,1.6,0,0,1-1.1,1.7h-.6a1.4,1.4,0,0,1-1.3-.9Zm11.2-2.3a1.4,1.4,0,0,1,1.1-1.6h0a1.4,1.4,0,0,1,1.7,1.1h0a1.4,1.4,0,0,1-1.1,1.6h-.6a1.3,1.3,0,0,1-1.4-.8Zm11.2-2.2a1.4,1.4,0,0,1,1.1-1.6h0a1.4,1.4,0,0,1,1.7,1h0a1.6,1.6,0,0,1-1.1,1.7h-.6a1.4,1.4,0,0,1-1.5-.8Zm11.2-2.3a1.4,1.4,0,0,1,1.1-1.6h0a1.6,1.6,0,0,1,1.7,1.1h0a1.4,1.4,0,0,1-1.2,1.6h-.2a1.4,1.4,0,0,1-1.8-.7Zm11.2-2.2a1.3,1.3,0,0,1,1-1.6h.1a1.3,1.3,0,0,1,1.6,1h0a1.3,1.3,0,0,1-.2,1.9,1.2,1.2,0,0,1-1.4.1h-.3a1.4,1.4,0,0,1-1.3-1.1Zm11.2-2.2a1.5,1.5,0,0,1,1.1-1.7h0a1.4,1.4,0,0,1,1.6,1.1h0a1.4,1.4,0,0,1-.3,2,1.7,1.7,0,0,1-1.4.1h-.3a1.5,1.5,0,0,1-1.3-1.1Zm11.2-2.3a1.3,1.3,0,0,1,1.1-1.6h0A1.3,1.3,0,0,1,445,318h0a1.3,1.3,0,0,1-.5,1.9,1.6,1.6,0,0,1-1.2.2H443a1.4,1.4,0,0,1-1.3-1.1Zm11.2-2.2a1.4,1.4,0,0,1,1.1-1.7h0a1.4,1.4,0,0,1,1.6,1.1h0a1.5,1.5,0,0,1-1.1,1.7h-.3a1.4,1.4,0,0,1-1.9-.4c0-.1-.1-.1-.1-.2Zm11.2-2.2a1.4,1.4,0,0,1,1-1.7h.1a1.5,1.5,0,0,1,1.6,1.1h0a1.6,1.6,0,0,1-1.1,1.7H466a1.3,1.3,0,0,1-1.9-.4c-.1,0-.1-.1-.1-.2Z" fill="#fff" opacity="0.26"/><path d="M692.3,296.7h0l-32.2-1.5-24.8,20.4-1.4,10.9L631,355.6l15.3-13.9h31.3L705.3,314,721,297.9ZM660,336a33.1,33.1,0,0,1-4.4-17.1,29.3,29.3,0,0,1,5.5-17.1,33.3,33.3,0,0,1,5.1,17.4A26,26,0,0,1,660,336ZM502.5,313.7c0-7.4,1.9-10.8,3.9-13.5,3.8,5.6,3.8,16.3,3.8,16.3l7.8-14.1-17.3-18.9-10.2,30.4,7.1,26.7,7.6-14.4A52.6,52.6,0,0,1,502.5,313.7Z" fill="#fff" opacity="0.26"/><path d="M43.6,64.8H94.1a0,0,0,0,1,0,0V803.5a0,0,0,0,1,0,0H47.8a4.2,4.2,0,0,1-4.2-4.2V64.8A0,0,0,0,1,43.6,64.8Z" fill="url(#p)"/><path d="M60,767.7c-1.1,0-1.7,0-1.7,1.3v1.6c0,1.3.6,1.3,1.7,1.3h.9c1.1,0,1.7,0,1.7-1.3V769c0-1.2-.6-1.3-1.7-1.3Zm8.5,0c-1.1,0-1.7,0-1.7,1.3v1.6c0,1.3.6,1.3,1.7,1.3h.8c1.1,0,1.7,0,1.7-1.3V769c0-1.2-.6-1.3-1.7-1.3Zm8.4,0c-1.1,0-1.7,0-1.7,1.3v1.6c0,1.3.6,1.3,1.7,1.3h.9c1.1,0,1.7,0,1.7-1.3V769c0-1.2-.6-1.3-1.7-1.3ZM60,776.1c-1.1,0-1.7,0-1.7,1.4V779c0,1.4.6,1.4,1.7,1.4h.9c1.1,0,1.7,0,1.7-1.4v-1.5c0-1.3-.6-1.4-1.7-1.4Zm8.5,0c-1.1,0-1.7,0-1.7,1.4V779c0,1.4.6,1.4,1.7,1.4h.8c1.1,0,1.7,0,1.7-1.4v-1.5c0-1.3-.6-1.4-1.7-1.4Zm8.4,0c-1.1,0-1.7,0-1.7,1.4V779c0,1.4.6,1.4,1.7,1.4h.9c1.1,0,1.7,0,1.7-1.4v-1.5c0-1.3-.6-1.4-1.7-1.4ZM60,784.6c-1.1,0-1.7,0-1.7,1.3v1.6c0,1.3.6,1.3,1.7,1.3h.9c1.1,0,1.7,0,1.7-1.3v-1.6c0-1.3-.6-1.3-1.7-1.3Zm8.5,0c-1.1,0-1.7,0-1.7,1.3v1.6c0,1.3.6,1.3,1.7,1.3h.8c1.1,0,1.7,0,1.7-1.3v-1.6c0-1.3-.6-1.3-1.7-1.3Zm8.4,0c-1.1,0-1.7,0-1.7,1.3v1.6c0,1.3.6,1.3,1.7,1.3h.9c1.1,0,1.7,0,1.7-1.3v-1.6c0-1.3-.6-1.3-1.7-1.3Z" fill="#fff"/><path d="M85.3,185.8a21.2,21.2,0,0,0-.2-3.8,3.8,3.8,0,0,0-3.5-3.5,21.8,21.8,0,0,0-3.8-.2H59.9a20.6,20.6,0,0,0-3.8.2,4.8,4.8,0,0,0-2.5,1.1,4.5,4.5,0,0,0-1.1,2.4,37.9,37.9,0,0,0-.2,3.8v12.3a36.3,36.3,0,0,0,.2,3.8,3.8,3.8,0,0,0,3.6,3.6l3.8.2H77.8l3.8-.2a4.5,4.5,0,0,0,2.4-1.1,4.8,4.8,0,0,0,1.1-2.5,20.6,20.6,0,0,0,.2-3.8Z" opacity="0.1" style="isolation:isolate"/><path d="M53,197.4c0,5.8.7,6.9,6.9,6.9H77.8c6.2,0,6.8-1.1,6.8-6.9V185.1c0-5.7-.6-6.8-6.8-6.8H59.9c-6.2,0-6.9,1.1-6.9,6.8Z" fill="url(#q)"/><path d="M53,191.3v6.1c0,6.8,1.3,6.9,8.3,6.9h15c7,0,8.3-.2,8.3-6.9v-6.1Z" fill="#fff" opacity="0.1" style="isolation:isolate"/><path d="M67,183.6c-.7,1.4-1.2,2.4-1.8,3.9s-1.3,3-1.9,4.5-.5,1.3-.8,1.9a11.4,11.4,0,0,1-.6,1.5c-.4,1.2-.7,1.9-1.2,3.2l-.7,1.9h3.7l1.6-4.4,3.5-.2h3.5l1.6,4.4h3.7l-.7-1.9c-.5-1.3-.8-2-1.2-3.2l-.6-1.5-.7-1.9c-.7-1.5-1.2-2.6-1.8-4.1l-1.2-2.8-.2-.3h0a5.4,5.4,0,0,1-.5-1.1H67Zm1.8,3.5h.1l1.5,3.6.5,1.5a8.9,8.9,0,0,1,.6,1.5H66.1l1.2-3,1.5-3.6h0Z" opacity="0.2" style="isolation:isolate"/><path d="M67,182.9c-.7,1.4-1.2,2.4-1.8,3.9s-1.3,3-1.9,4.5-.5,1.3-.8,1.9a11.4,11.4,0,0,1-.6,1.5c-.4,1.2-.7,1.9-1.2,3.2l-.7,1.9h3.7l1.6-4.4,3.5-.2,3.5.2,1.6,4.4h3.7l-.7-1.9c-.5-1.3-.8-2-1.2-3.2l-.6-1.5-.7-1.9c-.7-1.5-1.2-2.6-1.8-4.1l-1.9-4.3H67Zm1.8,3.5h.1l1.5,3.6c.5,1.5.6,1.4,1.1,3H66.1l1.2-3,1.5-3.6h0Z" fill="#fff9f2"/><path d="M70.6,183l-1.8,3.4,1.6,3.7c.5,1.5.6,1.4,1.1,3h-.9l.7,2.1h1l1.6,4.4h3.7l-.7-1.9c-.5-1.3-.8-2-1.2-3.2l-.6-1.5-.7-1.9c-.7-1.5-1.2-2.6-1.8-4.1s-.9-2.1-1.4-3.1Z" fill="#f34f17" opacity="0.1" style="isolation:isolate"/><path d="M60.7,193.4H76.9a1.8,1.8,0,0,1,1.7,1.7h0a1.8,1.8,0,0,1-1.7,1.8H60.7a1.7,1.7,0,0,1-1.7-1.8h0A1.7,1.7,0,0,1,60.7,193.4Z" opacity="0.2" style="isolation:isolate"/><path d="M60.7,192.7H76.9a1.8,1.8,0,0,1,1.7,1.7h0a1.8,1.8,0,0,1-1.7,1.8H60.7a1.7,1.7,0,0,1-1.7-1.8h0A1.7,1.7,0,0,1,60.7,192.7Z" fill="#fff"/><path d="M61,194.1c-.3,0-.6.1-.6.3s.3.4.6.4H76.7c.3,0,.5-.2.5-.3h0c0-.2-.2-.3-.5-.3H61Z" fill="#f34f17" opacity="0.2" style="isolation:isolate"/><path d="M84.6,185.1c0-5.7-.6-6.8-6.8-6.8H59.9c-6.2,0-6.9,1.1-6.9,6.8v12.3c0,5.8.7,6.9,6.9,6.9H77.8c6.2,0,6.8-1.1,6.8-6.9Z" fill="none" stroke="#000" stroke-width="0.7" opacity="0.4" style="isolation:isolate"/><g clip-path="url(#r)"><path d="M84.2,185.5c0-6.2-.6-6.9-6.8-6.8H60.2c-6.2-.1-6.8.6-6.8,6.8v11.6c0,6.2.6,6.8,6.8,6.8H77.4c6.2,0,6.8-.6,6.8-6.8Z" fill="none" stroke-width="1.4" opacity="0.7" stroke="url(#s)" style="isolation:isolate"/></g><path d="M63.9,180.1s0-4.9,4.9-4.9,4.9,4.9,4.9,4.9" fill="none" stroke="#fee8bc" stroke-linecap="round" stroke-width="1.4"/><path d="M61.7,123.9a29.6,29.6,0,0,0-4.5.2,5,5,0,0,0-2.8,1,4.1,4.1,0,0,0-1.3,2.4,19,19,0,0,0-.3,3.7v17.5a19.4,19.4,0,0,0,.3,3.8,3.8,3.8,0,0,0,1.3,2.3,5,5,0,0,0,2.8,1.1,29.6,29.6,0,0,0,4.5.2H76.2a29,29,0,0,0,4.5-.2,5.1,5.1,0,0,0,2.9-1.1,3.8,3.8,0,0,0,1.3-2.3,20.6,20.6,0,0,0,.2-3.8V131.2a20,20,0,0,0-.2-3.7,4.1,4.1,0,0,0-1.3-2.4,5,5,0,0,0-2.9-1,29,29,0,0,0-4.5-.2Z" opacity="0.1" style="isolation:isolate"/><path d="M61.5,123.5c-7,0-8.3.6-8.3,6.8v17.9c0,6.2,1.3,6.9,8.3,6.9h15c7,0,8.3-.7,8.3-6.9V130.3c0-6.2-1.3-6.8-8.3-6.8Z" fill="url(#t)"/><path d="M77.7,123.5,53.2,146.7v1.5c0,6.2,1.3,6.9,8.3,6.9h15c7,0,8.3-.7,8.3-6.9V130.3C84.8,124.6,83.6,123.6,77.7,123.5Z" fill="#fff" opacity="0.05" style="isolation:isolate"/><path d="M62,130.2c-1.4,0-2.3-.1-3.1.4a2.2,2.2,0,0,0-.9,1,4.4,4.4,0,0,0-.2,1.7v13.4a4.7,4.7,0,0,0,.2,1.7,2.2,2.2,0,0,0,.9,1,4,4,0,0,0,2,.4H76a7.1,7.1,0,0,0,3.1-.4,2.2,2.2,0,0,0,.9-1,8.8,8.8,0,0,0,.2-1.7V135.4a7.9,7.9,0,0,0-.2-1.7l-.6-.8-.3-.2-.7-.3H68.9l-2.1-2.1Z" opacity="0.3" style="isolation:isolate"/><path d="M62,129.5c-1.4,0-2.3-.1-3.1.4a2.2,2.2,0,0,0-.9,1,4.4,4.4,0,0,0-.2,1.7v6H80.2v-3.9A7.9,7.9,0,0,0,80,133a2.2,2.2,0,0,0-.9-1c-.8-.5-1.8-.4-3.1-.4H68.9l-2.1-2.1Z" fill="#e3dfd5"/><path d="M76,131.6c1.3,0,2.3-.1,3.1.4a2.2,2.2,0,0,1,.9,1,7.9,7.9,0,0,1,.2,1.7v11.2a7.2,7.2,0,0,1-.2,1.7,2,2,0,0,1-.9,1.1,7.1,7.1,0,0,1-3.1.4H60.9a4,4,0,0,1-2-.4,2.2,2.2,0,0,1-.9-1,5,5,0,0,1-.2-1.8v-9.1a4.4,4.4,0,0,1,.2-1.7,2.2,2.2,0,0,1,.9-1c.8-.5,1.7-.4,3.1-.4h4.9l2.1-2.1Z" fill="#faf8f6"/><path d="M62,129.5c-1.4,0-2.3-.1-3.1.4a2.2,2.2,0,0,0-.9,1,4.4,4.4,0,0,0-.2,1.7v.7a4.4,4.4,0,0,1,.2-1.7,2.2,2.2,0,0,1,.9-1c.8-.5,1.7-.4,3.1-.4h4.8l1.8,1.8.4-.4h-.1l-2.1-2.1Z" fill="#fff" opacity="0.4" style="isolation:isolate"/><path d="M69,131.6l-2.1,2.1H62c-1.4,0-2.3-.1-3.1.4a2.2,2.2,0,0,0-.9,1,4.4,4.4,0,0,0-.2,1.7v.7a4.4,4.4,0,0,1,.2-1.7,2.2,2.2,0,0,1,.9-1c.8-.5,1.7-.4,3.1-.4h4.9l2.1-2.1h7c1.3,0,2.3-.1,3.1.4a2.2,2.2,0,0,1,.9,1,7.9,7.9,0,0,1,.2,1.7v-.7A7.9,7.9,0,0,0,80,133a2.2,2.2,0,0,0-.9-1c-.8-.5-1.8-.4-3.1-.4H69Z" fill="#fdfdfd"/><path d="M61.5,123.5c-7,0-8.3.6-8.3,6.8v17.9c0,6.2,1.3,6.9,8.3,6.9h15c7,0,8.3-.7,8.3-6.9V130.3c0-6.2-1.3-6.8-8.3-6.8Z" fill="none" stroke="#000" stroke-width="0.7" opacity="0.4" style="isolation:isolate"/><path d="M61.5,123.9c-3.5,0-5.5.2-6.6,1a3.3,3.3,0,0,0-1.1,1.8,17.3,17.3,0,0,0-.3,3.6v17.9a16.6,16.6,0,0,0,.3,3.6,3.2,3.2,0,0,0,1.1,1.9c1.1.8,3.1,1,6.6,1h15c3.5,0,5.5-.2,6.5-1a3.2,3.2,0,0,0,1.1-1.9,16.6,16.6,0,0,0,.3-3.6V130.3a17.3,17.3,0,0,0-.3-3.6,3.3,3.3,0,0,0-1.1-1.8c-1-.8-3-1-6.5-1Zm1.7.7H77.8a9.8,9.8,0,0,1,4.5.6,3,3,0,0,1,1.2,2.5,36.9,36.9,0,0,1,.1,4.7c.1,5.9.1,11.9,0,17.8-.1,1.1-.3,2.4-1.3,2.9a7.7,7.7,0,0,1-3.7.7h-20a7.2,7.2,0,0,1-3.2-.8,3.9,3.9,0,0,1-1.1-2.9v-19c.1-1.6-.2-3.4.5-5a3.2,3.2,0,0,1,2.8-1.4c1.8-.2,3.7-.1,5.6-.2Z" fill="url(#u)"/><path d="M83.4,84.3a9.2,9.2,0,0,0-3.2-4.1,16.6,16.6,0,0,1,1.6,4.9h0C80,80.6,77,78.8,74.5,74.8l-.4-.6-.2-.3a1.4,1.4,0,0,1-.2-.6h-.1a12,12,0,0,0-5.5,8.9,8,8,0,0,0-4.4,1.7l-.4-.3a8.6,8.6,0,0,1,0-3.9,11,11,0,0,0-3.8,2.9h-.1c-.6-.8-.5-3.4-.5-4l-.5.3a10.7,10.7,0,0,0-1.6,1.4l-1.5,1.7h0a14.3,14.3,0,0,0-2.1,4.9h0a3,3,0,0,0-.2,1h0l-.3,2.2h0a16,16,0,0,0,31.7,2.7v-.6A15.5,15.5,0,0,0,83.4,84.3ZM65.1,96.7h0ZM81.8,85.1Z" fill="url(#v)"/><path d="M83.4,84.3a9.2,9.2,0,0,0-3.2-4.1,16.6,16.6,0,0,1,1.6,4.9h0a13.7,13.7,0,0,1-.5,10.7,13.5,13.5,0,0,1-13.1,7.8,16,16,0,0,1-15.3-13,7.8,7.8,0,0,1,.1-2.7,16.6,16.6,0,0,0-.3,2.2h0a16,16,0,0,0,31.7,2.7v-.6A15.5,15.5,0,0,0,83.4,84.3Z" fill="url(#w)"/><path d="M83.4,84.3a9.2,9.2,0,0,0-3.2-4.1,16.6,16.6,0,0,1,1.6,4.9h0a13.7,13.7,0,0,1-.5,10.7,13.5,13.5,0,0,1-13.1,7.8,16,16,0,0,1-15.3-13,7.8,7.8,0,0,1,.1-2.7,16.6,16.6,0,0,0-.3,2.2h0a16,16,0,0,0,31.7,2.7v-.6A15.5,15.5,0,0,0,83.4,84.3Z" fill="url(#x)"/><path d="M75.7,86.1a.1.1,0,0,0,.1.1,7,7,0,0,0-1.5-1.9,8.1,8.1,0,0,1-.7-11.1h0a12,12,0,0,0-5.5,8.9h.6A8.4,8.4,0,0,1,75.7,86.1Z" fill="url(#y)"/><path d="M68.7,87.1a3.7,3.7,0,0,1-1.9,1.8c-4.5,0-5.3,2.7-5.3,2.7a6.6,6.6,0,0,0,3.8,5.2l.2.2H66a5.2,5.2,0,0,0,2.1.4,6.5,6.5,0,0,0,3.7-12.3,5.4,5.4,0,0,1,3.9.9,8.4,8.4,0,0,0-7-4.1h-.6a8,8,0,0,0-4.4,1.7,4.4,4.4,0,0,1,1.1,1C65.9,85.9,68.7,87,68.7,87.1Z" fill="url(#z)"/><path d="M68.7,87.1a3.7,3.7,0,0,1-1.9,1.8c-4.5,0-5.3,2.7-5.3,2.7a6.6,6.6,0,0,0,3.8,5.2l.2.2H66a5.2,5.2,0,0,0,2.1.4,6.5,6.5,0,0,0,3.7-12.3,5.4,5.4,0,0,1,3.9.9,8.4,8.4,0,0,0-7-4.1h-.6a8,8,0,0,0-4.4,1.7,4.4,4.4,0,0,1,1.1,1C65.9,85.9,68.7,87,68.7,87.1Z" fill="url(#aa)"/><path d="M63,83.2l.3.3a8.6,8.6,0,0,1,0-3.9,11,11,0,0,0-3.8,2.9A8.8,8.8,0,0,1,63,83.2Z" fill="url(#ab)"/><path d="M52.9,90.6a16,16,0,0,0,15.3,13,13.5,13.5,0,0,0,13.1-7.8,13.7,13.7,0,0,0,.5-10.7h0c.6,3.7-1.3,7.2-4.2,9.7h0c-5.7,4.6-11.2,2.8-12.3,2h-.2c-3.4-1.6-4.8-4.6-4.5-7.2a3.9,3.9,0,0,1-3.7-2.4,5.7,5.7,0,0,1,5.8-.2,8.3,8.3,0,0,0,6,.2c0-.1-2.8-1.2-3.9-2.3l-1-1-.5-.3-.3-.3a8.8,8.8,0,0,0-3.5-.7h0c-.7-.8-.6-3.4-.6-4l-.5.3a10.7,10.7,0,0,0-1.6,1.4l-1.5,1.7h0a14.3,14.3,0,0,0-2.1,4.9A11.4,11.4,0,0,0,52.9,90.6Z" fill="url(#ac)"/><path d="M74.3,84.3a7,7,0,0,1,1.5,1.9l.2.2c3.6,3.3,1.7,8,1.6,8.4,2.9-2.5,4.8-6,4.2-9.7S77,78.8,74.5,74.8l-.4-.6-.2-.3a1.4,1.4,0,0,1-.2-.6h-.1A8.1,8.1,0,0,0,74.3,84.3Z" fill="url(#ad)"/><path d="M76,86.4l-.2-.2a.1.1,0,0,1-.1-.1,5.4,5.4,0,0,0-3.9-.9,6.5,6.5,0,0,1-3.7,12.3,5.2,5.2,0,0,1-2.1-.4h-.5l-.2-.2h0c1.1.8,6.6,2.6,12.3-2h0C77.7,94.4,79.6,89.7,76,86.4Z" fill="url(#ae)"/><path d="M61.5,91.6s.8-2.7,5.3-2.7a3.7,3.7,0,0,0,1.9-1.8,8.3,8.3,0,0,1-6-.2,5.7,5.7,0,0,0-5.8.2,3.9,3.9,0,0,0,3.7,2.4c-.3,2.6,1.1,5.6,4.5,7.2h.2A6.6,6.6,0,0,1,61.5,91.6Z" fill="url(#af)"/><path d="M83.4,84.3a9.2,9.2,0,0,0-3.2-4.1,16.6,16.6,0,0,1,1.6,4.9h0C80,80.6,77,78.8,74.5,74.8l-.4-.6-.2-.3a1.4,1.4,0,0,1-.2-.6h-.1a12,12,0,0,0-5.5,8.9h.6a8.4,8.4,0,0,1,7,4.1,5.4,5.4,0,0,0-3.9-.9,6.5,6.5,0,0,1-3.7,12.3,5.2,5.2,0,0,1-2.1-.4h-.5l-.2-.2h0a6.6,6.6,0,0,1-3.8-5.2s.8-2.7,5.3-2.7a3.7,3.7,0,0,0,1.9-1.8c0-.1-2.8-1.2-3.9-2.3a4.4,4.4,0,0,0-1.1-1l-.4-.3a8.6,8.6,0,0,1,0-3.9,11,11,0,0,0-3.8,2.9h-.1c-.6-.8-.5-3.4-.5-4l-.5.3a10.7,10.7,0,0,0-1.6,1.4l-1.5,1.7h0a14.3,14.3,0,0,0-2.1,4.9h0a3,3,0,0,0-.2,1h0l-.3,2.2h0a16,16,0,0,0,31.7,2.7v-.6A15.5,15.5,0,0,0,83.4,84.3Zm-1.6.8Z" fill="url(#ag)"/><path d="M47.9,45.9H1249a4.3,4.3,0,0,1,4.3,4.3V64.8a0,0,0,0,1,0,0H43.6a0,0,0,0,1,0,0V50.2a4.3,4.3,0,0,1,4.3-4.3Z" fill="#1d1d1d"/><path d="M57.9,59.6a3.6,3.6,0,0,1-.4-.9l-.3-1H53.9l-.7,1.9h-1a10.2,10.2,0,0,1,.8-2.1,10.7,10.7,0,0,1,.7-1.9,8.7,8.7,0,0,1,.7-1.7,11.1,11.1,0,0,1,.7-1.6H56l.8,1.6c.2.5.4,1.1.7,1.7s.4,1.2.7,1.9l.8,2.1Zm-1-2.7a13.4,13.4,0,0,0-.7-1.8,11.1,11.1,0,0,0-.7-1.6,11.1,11.1,0,0,1-.7,1.6l-.6,1.8Zm5.2,2.8a2,2,0,0,1-1.1-.2,1.8,1.8,0,0,1-.9-.6,1.9,1.9,0,0,1-.5-.9,3.7,3.7,0,0,1-.1-1.1,4.9,4.9,0,0,1,.1-1.2,4.7,4.7,0,0,1,.6-.9l.8-.6,1.1-.2h.7l.7.2-.2.8-.5-.2h-.6a1.4,1.4,0,0,0-1.3.5,2.1,2.1,0,0,0-.4,1.5,2.2,2.2,0,0,0,.1.8.9.9,0,0,0,.3.6,1,1,0,0,0,.5.4l.9.2H63l.5-.2v.9H62.1Zm3.5-5.6h2V55h-2v3.2c.1.1.1.3.2.4l.3.2h1.2l.4-.2v.8l-.5.2H65.6a1,1,0,0,1-.6-.5.8.8,0,0,1-.3-.7,2.2,2.2,0,0,1-.1-.9V52.6l1-.2Zm3.8-1h-.5a.7.7,0,0,1,0-1h.9a.7.7,0,0,1,0,1Zm.5,6.5h-1V54.1h1Zm5.9-5.5a26.4,26.4,0,0,1-1,3c-.3.9-.7,1.8-1,2.5h-.9l-1.1-2.5a26.3,26.3,0,0,1-.9-3h1l.3,1.1c.1.4.3.8.4,1.2a4.9,4.9,0,0,0,.4,1.1,3,3,0,0,0,.4,1l.3-1a4.9,4.9,0,0,0,.4-1.1,5.6,5.6,0,0,0,.4-1.2l.3-1.1Zm1.5-1h-.4c-.2-.1-.2-.3-.2-.5s0-.4.2-.5h.9a1.3,1.3,0,0,1,0,1Zm.5,6.5h-1V54.1h1Zm2.6-5.5h2.1V55H80.4v2.5a1.5,1.5,0,0,0,.1.7c0,.1.1.3.1.4l.4.2h1.1l.4-.2.2.8-.5.2H80.4l-.6-.5a2.4,2.4,0,0,1-.3-.7,2.2,2.2,0,0,1-.1-.9V52.6l1-.2Zm3.8-1h-.5a1.3,1.3,0,0,1,0-1h.9c.2.1.2.3.2.5s0,.4-.2.5Zm.5,6.5h-1V54.1h1Zm1.4-2.7a2.7,2.7,0,0,1,.2-1.3,1.9,1.9,0,0,1,.5-.9l.8-.5,1-.2a2.1,2.1,0,0,1,1.7.7,3.6,3.6,0,0,1,.5,2.1h0v.2H87.1a1.7,1.7,0,0,0,1.8,1.8h.9l.5-.2.2.8-.7.2h-1a2.2,2.2,0,0,1-1.2-.2,1.8,1.8,0,0,1-.9-.6,1.9,1.9,0,0,1-.5-.9A3.7,3.7,0,0,1,86.1,56.9Zm3.7-.6a1.5,1.5,0,0,0-.3-1,1.2,1.2,0,0,0-1-.5L88,55a.9.9,0,0,0-.5.3l-.3.5a4.3,4.3,0,0,1-.1.5Zm3.7,2.6.9-.2a.5.5,0,0,0,.3-.5.5.5,0,0,0-.3-.5l-.9-.5-.6-.3-.5-.3a.8.8,0,0,1-.4-.4c0-.2-.1-.4-.1-.6a1.4,1.4,0,0,1,.6-1.2,2,2,0,0,1,1.4-.4h1.5l-.2.9-.5-.2h-.8l-.7.2a.5.5,0,0,0-.3.5.4.4,0,0,0,.1.3c0,.1.1.2.2.3l.3.2.5.2.7.2.5.4c.2.1.3.3.4.4a1.5,1.5,0,0,1,.1.7,1.1,1.1,0,0,1-.6,1.1,2.4,2.4,0,0,1-1.6.4H92.4l-.6-.2.2-.8.5.2Z" fill="#fff"/><path d="M122.8,50.3a4,4,0,0,0-2,.3,1.1,1.1,0,0,0-.6.7,3.1,3.1,0,0,0-.2,1.1V58a3.1,3.1,0,0,0,.2,1.1,1.1,1.1,0,0,0,.6.7,4,4,0,0,0,2,.3h5.7a4,4,0,0,0,2-.3,1.1,1.1,0,0,0,.6-.7,3.1,3.1,0,0,0,.2-1.1V53.8a3.1,3.1,0,0,0-.2-1.1c0-.1,0-.1-.1-.1h0a1.2,1.2,0,0,0-.5-.5,4,4,0,0,0-2-.3h-2.2l-1.4-1.4Zm0,.7h1.8l1.3,1.2-.9.9h-2.2a4,4,0,0,0-2,.3h-.1v-1c0-.4.1-.7.1-.9l.3-.3a3.7,3.7,0,0,1,1.7-.2Zm3.9,1.4h1.7a3.9,3.9,0,0,1,1.8.2c.1,0,.2.1.2.3a2,2,0,0,1,.2.9V58a2,2,0,0,1-.2.9c0,.2-.1.3-.2.3a3.9,3.9,0,0,1-1.8.2h-5.6a3.7,3.7,0,0,1-1.7-.2l-.3-.3c0-.2-.1-.5-.1-.9V55.2c0-.4.1-.7.1-.9l.3-.3a3.7,3.7,0,0,1,1.7-.2h2.5Z" fill="#fff"/><path d="M136.2,59.6V52.3h4.4v.9h-3.4v2.2h3v.8h-3v3.4Zm6.1-6.5h-.5a.7.7,0,0,1,0-1h.9a.7.7,0,0,1,0,1Zm.5,6.5h-1V54.1h1Zm3.3.1a1.7,1.7,0,0,1-1.3-.4,1.6,1.6,0,0,1-.4-1.1V51.6l1-.2V58c0,.2,0,.3.1.4a.4.4,0,0,0,.1.3h.6Zm.9-2.8a5.1,5.1,0,0,1,.2-1.3,3.5,3.5,0,0,1,.6-.9l.8-.5.9-.2a2.1,2.1,0,0,1,1.7.7,2.9,2.9,0,0,1,.6,2.1h0v.2H148a2.2,2.2,0,0,0,.5,1.3,2,2,0,0,0,1.4.5h.8l.6-.2v.8l-.6.2h-1a2.7,2.7,0,0,1-1.3-.2,1.6,1.6,0,0,1-.8-.6,1.9,1.9,0,0,1-.5-.9A3.6,3.6,0,0,1,147,56.9Zm3.8-.6a1.2,1.2,0,0,0-.4-1,1.1,1.1,0,0,0-.9-.5l-.6.2c-.2,0-.3.2-.4.3s-.2.3-.3.5a1.1,1.1,0,0,0-.1.5Zm3.7,2.6.9-.2a.5.5,0,0,0,.3-.5.5.5,0,0,0-.3-.5l-1-.5-.6-.3-.5-.3-.3-.4a1.3,1.3,0,0,1-.1-.6,1.3,1.3,0,0,1,.5-1.2,2.2,2.2,0,0,1,1.5-.4h1.4v.9l-.5-.2h-.8l-.8.2a.5.5,0,0,0-.3.5c0,.1.1.2.1.3l.2.3.4.2.5.2.7.2.5.4.3.4a1.5,1.5,0,0,1,.1.7c0,.5-.1.9-.5,1.1a2.5,2.5,0,0,1-1.6.4h-1.2l-.5-.2.2-.8.5.2Z" fill="#fff"/><path d="M161.1,53.9h6.2L164.2,58l-3.1-4.1Z" fill="gray"/><path d="M623.2,53.4a2,2,0,0,1-.1.7,4.3,4.3,0,0,0-.4.7l-.6.6-.6.7c-.2.1-.3.3-.4.4l-.5.5c-.1.2-.3.4-.3.5s-.2.3-.2.4h3.4v.9H619v-.2a2.9,2.9,0,0,1,.2-.9c.1-.3.3-.5.4-.8l.6-.7.7-.7.5-.5.4-.5.3-.5a4.3,4.3,0,0,0,.1-.5,1.3,1.3,0,0,0-.1-.6l-.3-.3a.5.5,0,0,0-.4-.2h-1l-.5.2-.3.2c-.1.1-.2.1-.2.2l-.5-.7.3-.3.4-.3.6-.2h.7a2.4,2.4,0,0,1,1.8.6A2.1,2.1,0,0,1,623.2,53.4Zm3.4,4.7a2.6,2.6,0,0,0,1.4-.4,1.8,1.8,0,0,0,.4-1,1.4,1.4,0,0,0-.2-.7l-.4-.4-.7-.2h-1v-.8h1.4c.2-.1.3-.3.4-.4a1.4,1.4,0,0,0,.2-.6.8.8,0,0,0-.2-.5.5.5,0,0,0-.2-.4l-.4-.2h-1.4l-.6.3-.3-.7c0-.1.2-.1.3-.2l.4-.2h1.1l1,.2.7.4a.9.9,0,0,1,.4.6,1.9,1.9,0,0,1,.2.7,1.3,1.3,0,0,1-.4,1,1.2,1.2,0,0,1-.8.6l.6.3.5.4.3.5c0,.2.1.5.1.7a2.9,2.9,0,0,1-.2.9,1.8,1.8,0,0,1-.5.7l-.8.5h-3.1l.2-.9.6.2Zm11.8.7a6.9,6.9,0,0,0-.4-1l-.3-.9h-3.3l-.6,1.9h-1.1c.3-.8.5-1.5.8-2.2l.7-1.8c.2-.6.5-1.2.7-1.7s.5-1.1.7-1.6h1c.2.5.5,1,.7,1.6s.5,1.1.7,1.7l.7,1.8c.3.7.5,1.4.8,2.2Zm-1-2.7-.6-1.8-.7-1.6a7.7,7.7,0,0,0-.7,1.6,13.4,13.4,0,0,0-.7,1.8Zm7.8,0a3.7,3.7,0,0,1-.1,1.1,1.9,1.9,0,0,1-.5.9,1.6,1.6,0,0,1-.8.6l-1,.2h-.9l-.5-.3v2.2h-1V53.5l.9-.2h1.2l1.1.2a1.5,1.5,0,0,1,.9.6,1.9,1.9,0,0,1,.5.9A2.2,2.2,0,0,1,645.2,56.1Zm-1,0a1.7,1.7,0,0,0-.5-1.5,1.3,1.3,0,0,0-1.2-.5h-1.1v3.4l.5.3h1.5l.5-.4a1.4,1.4,0,0,0,.2-.7A1.7,1.7,0,0,0,644.2,56.1Zm4.4-2.9h.9c.1,0,.2,0,.2.1v.8h-2v4.6h-1V53.5l.9-.2Zm4.2,1.9a5.5,5.5,0,0,1,.6-2.8,2.4,2.4,0,0,1,1.8-1,2.1,2.1,0,0,1,1.8,1,4.7,4.7,0,0,1,.7,2.8,4.5,4.5,0,0,1-.7,2.8,1.9,1.9,0,0,1-1.8,1,2.1,2.1,0,0,1-1.8-1A5.3,5.3,0,0,1,652.8,55.1Zm3.8,0V54c-.1-.4-.1-.7-.3-.9a1.6,1.6,0,0,0-.4-.7l-.7-.2-.6.2a1.8,1.8,0,0,0-.5.7,2,2,0,0,0-.2.9,4.1,4.1,0,0,0-.1,1.1,4.9,4.9,0,0,0,.1,1.2,2.9,2.9,0,0,0,.2.9,1,1,0,0,0,.5.6.7.7,0,0,0,.6.3.9.9,0,0,0,.7-.3.9.9,0,0,0,.4-.6,3.2,3.2,0,0,0,.3-.9Zm2.6-2.1,1.1-.6a3.1,3.1,0,0,0,1.1-.9h.7v7.3h-1v-6l-.3.3-.4.2-.5.3h-.4Zm6.9,1c0,.2,0,.4-.2.5l-.5.2-.5-.2a.8.8,0,0,1-.2-.5c0-.2.1-.3.2-.5l.5-.2.5.2A.6.6,0,0,1,666.1,54Zm0,4.2c0,.2,0,.4-.2.5l-.5.2-.5-.2a.8.8,0,0,1-.2-.5c0-.2.1-.3.2-.5l.5-.2.5.2A.6.6,0,0,1,666.1,58.2Zm1.6-5.2,1.2-.6a4.1,4.1,0,0,0,1-.9h.7v7.3h-1v-6l-.3.3a.5.5,0,0,1-.4.2l-.4.3H668Zm6.7,5.8a5.7,5.7,0,0,1,.3-1.8,6.4,6.4,0,0,1,.6-1.8,7.7,7.7,0,0,1,.7-1.6l.8-1.3h-3.5v-.8h4.6v.8a5.2,5.2,0,0,0-.7,1.1,8,8,0,0,0-.8,1.6,9.6,9.6,0,0,0-.7,1.8,6.9,6.9,0,0,0-.3,2Z" fill="#fff"/><path d="M1189.3,52.8l.2.2-5.4,7-5.2-6.8v-.4a9.2,9.2,0,0,1,5.2-1.7A8.7,8.7,0,0,1,1189.3,52.8Z" fill="#fff"/><path d="M1203.6,59.9l-2.4-2.6h-1.8a3.5,3.5,0,0,1,0-4.2h1.8l2.4-2.6Zm1.8-6.8-.5.5.3.2a2,2,0,0,1,.6,1.5,2.2,2.2,0,0,1-.6,1.5l-.3.2.5.5.3-.2a3.2,3.2,0,0,0,.8-2,2.8,2.8,0,0,0-.8-2Zm1.5-1.5-.5.5.3.2a4.4,4.4,0,0,1,0,6l-.3.2.5.5.3-.2a5.2,5.2,0,0,0,1.4-3.5,5,5,0,0,0-1.4-3.5Z" fill="#fff"/><path d="M1222.9,58.8V53.9h4.2v4.9Zm-1.4-.5V52.2h0a4.5,4.5,0,0,1,.1-1.3.7.7,0,0,1,.5-.4h1.5v-.7h2.8v.7h1.4a.7.7,0,0,1,.5.4,2.4,2.4,0,0,1,.2,1.3h0v6.1h0a3,3,0,0,1-.2,1.4,1,1,0,0,1-.5.4h-5.7a1,1,0,0,1-.5-.4,5.7,5.7,0,0,1-.1-1.4Zm.7,0a2.8,2.8,0,0,0,.1,1.1h.1c0,.1.2.1.5.1h4.8a10.4,10.4,0,0,0,.1-1.1h0V52.2a5.8,5.8,0,0,0-.1-1h-5.3a.1.1,0,0,0-.1.1c-.1.1-.1.4-.1,1v6.1Z" fill="#fff"/><path d="M1236.4,53.8h6.3l-3.1,4.1-3.2-4.1Z" fill="#fff"/><path d="M695,530.2v-7.3h4.4v.9h-3.3V526h3v.8h-3v3.4Zm6.1-6.5c-.2,0-.3,0-.4-.2s-.2-.2-.2-.4,0-.4.2-.5a.5.5,0,0,1,.4-.2l.5.2a.7.7,0,0,1,.1.5c0,.2,0,.3-.1.4A.6.6,0,0,1,701.1,523.7Zm.5,6.5h-1v-5.5h1Zm3.7-5.6h1.1l-.2.9h-1.9v4.6h-1v-5.3l.9-.2Zm1.7,2.8a2.4,2.4,0,0,1,.3-1.2,1.9,1.9,0,0,1,.5-.9,2.4,2.4,0,0,1,.8-.6h.9a1.9,1.9,0,0,1,1.7.7,2.9,2.9,0,0,1,.6,2.1h0v.2h-3.7a1.7,1.7,0,0,0,.5,1.3,1.7,1.7,0,0,0,1.3.4h1.4v.8l-.6.2h-1l-1.2-.2-.9-.6a4.1,4.1,0,0,1-.5-.9A4.3,4.3,0,0,1,707,527.4Zm3.8-.5a2,2,0,0,0-.3-1.1,1.3,1.3,0,0,0-1-.4h-.6l-.4.4-.3.5a4.3,4.3,0,0,0-.1.5Zm4.6-4.9h1.1v.8h-1a1.2,1.2,0,0,0-.9.3,1.7,1.7,0,0,0-.3,1v.5h2.1v.8h-2.1v4.7h-1v-6a2.5,2.5,0,0,1,.5-1.6A2.2,2.2,0,0,1,715.4,522Zm6.7,5.4a2.2,2.2,0,0,1-.2,1.2,1.9,1.9,0,0,1-.5.9,1.6,1.6,0,0,1-.8.6l-1,.2-1.1-.2a1.6,1.6,0,0,1-.8-.6,1.9,1.9,0,0,1-.5-.9,3.7,3.7,0,0,1-.2-1.2,3.6,3.6,0,0,1,.2-1.1,1.9,1.9,0,0,1,.5-.9,1.6,1.6,0,0,1,.8-.6,2,2,0,0,1,1.1-.2,1.8,1.8,0,0,1,1,.2,1.6,1.6,0,0,1,.8.6,1.9,1.9,0,0,1,.5.9A2,2,0,0,1,722.1,527.4Zm-1,0a2,2,0,0,0-.4-1.4,1.4,1.4,0,0,0-1.1-.6,1.4,1.4,0,0,0-1.2.6,2,2,0,0,0-.4,1.4,2.2,2.2,0,0,0,.4,1.5,1.3,1.3,0,0,0,1.2.5,1.3,1.3,0,0,0,1.1-.5A2.2,2.2,0,0,0,721.1,527.4Zm5.5,2.8-.3-.5a2.1,2.1,0,0,0-.4-.6,2.1,2.1,0,0,0-.4-.6l-.4-.6-.4.6-.4.6a2.1,2.1,0,0,1-.4.6c-.1.2-.2.3-.2.5h-1.1l.9-1.5,1-1.4-1.8-2.6h1.1l1.3,1.9,1.4-1.9h1l-1.8,2.5,1.1,1.5.9,1.5Z" fill="#fff"/><path d="M725.8,495.1a9.2,9.2,0,0,0-3.2-4.1,21.6,21.6,0,0,1,1.6,4.9h0c-1.8-4.5-4.9-6.3-7.4-10.2l-.3-.6c-.1-.2-.2-.3-.2-.4l-.3-.6h0a11.4,11.4,0,0,0-5.5,8.8,8,8,0,0,0-4.4,1.7l-.4-.3a7.4,7.4,0,0,1-.1-3.9,13.3,13.3,0,0,0-3.8,2.9h0c-.6-.8-.6-3.4-.6-3.9l-.5.2a10,10,0,0,0-1.5,1.4,6.5,6.5,0,0,0-1.5,1.8h0a12.3,12.3,0,0,0-2.2,4.8h0c0,.1-.1.8-.1,1h-.1a16.4,16.4,0,0,0-.2,2.2h0a15.9,15.9,0,0,0,31.6,2.7c0-.2.1-.4.1-.6A16.7,16.7,0,0,0,725.8,495.1Zm-18.4,12.4.2.2h0Zm16.8-11.6Z" fill="url(#ah)"/><path d="M725.8,495.1a9.2,9.2,0,0,0-3.2-4.1,21.6,21.6,0,0,1,1.6,4.9h0a14.9,14.9,0,0,1-.5,10.8,13.7,13.7,0,0,1-13.2,7.7,16.1,16.1,0,0,1-15.3-13,8,8,0,0,1,.1-2.7,16.4,16.4,0,0,0-.2,2.2h0a15.9,15.9,0,0,0,31.6,2.7c0-.2.1-.4.1-.6A16.7,16.7,0,0,0,725.8,495.1Z" fill="url(#ai)"/><path d="M725.8,495.1a9.2,9.2,0,0,0-3.2-4.1,21.6,21.6,0,0,1,1.6,4.9h0a14.9,14.9,0,0,1-.5,10.8,13.7,13.7,0,0,1-13.2,7.7,16.1,16.1,0,0,1-15.3-13,8,8,0,0,1,.1-2.7,16.4,16.4,0,0,0-.2,2.2h0a15.9,15.9,0,0,0,31.6,2.7c0-.2.1-.4.1-.6A16.7,16.7,0,0,0,725.8,495.1Z" fill="url(#aj)"/><path d="M718,496.9h.1a9,9,0,0,0-1.5-1.9c-4.9-5-1.3-10.7-.6-11h0a11.4,11.4,0,0,0-5.5,8.8h.5A8,8,0,0,1,718,496.9Z" fill="url(#ak)"/><path d="M711,497.9a3.7,3.7,0,0,1-1.9,1.8c-4.5,0-5.2,2.7-5.2,2.7a7.1,7.1,0,0,0,3.7,5.3h.3l.5.2,2,.4a6.6,6.6,0,0,0,3.8-12.4,5.7,5.7,0,0,1,3.8.9,8,8,0,0,0-7-4h-.5a8,8,0,0,0-4.4,1.7l1.1,1C708.3,496.7,711,497.8,711,497.9Z" fill="url(#al)"/><path d="M711,497.9a3.7,3.7,0,0,1-1.9,1.8c-4.5,0-5.2,2.7-5.2,2.7a7.1,7.1,0,0,0,3.7,5.3h.3l.5.2,2,.4a6.6,6.6,0,0,0,3.8-12.4,5.7,5.7,0,0,1,3.8.9,8,8,0,0,0-7-4h-.5a8,8,0,0,0-4.4,1.7l1.1,1C708.3,496.7,711,497.8,711,497.9Z" fill="url(#am)"/><path d="M705.4,494.1l.3.2a7.4,7.4,0,0,1-.1-3.9,13.3,13.3,0,0,0-3.8,2.9A7.9,7.9,0,0,1,705.4,494.1Z" fill="url(#an)"/><path d="M695.2,501.4a16.1,16.1,0,0,0,15.3,13,13.7,13.7,0,0,0,13.2-7.7,14.9,14.9,0,0,0,.5-10.8h0a10.8,10.8,0,0,1-4.3,9.7h0c-5.7,4.7-11.2,2.8-12.3,2.1l-.2-.2a7.2,7.2,0,0,1-4.4-7.2,4.2,4.2,0,0,1-3.8-2.4,6.5,6.5,0,0,1,5.9-.2,7.8,7.8,0,0,0,6,.2,18.4,18.4,0,0,1-3.9-2.3l-1.1-1-.4-.3-.3-.2a7.4,7.4,0,0,0-3.6-.7h0c-.6-.8-.6-3.5-.5-4l-.6.2a10,10,0,0,0-1.5,1.4,6.5,6.5,0,0,0-1.5,1.8h0a12.3,12.3,0,0,0-2.2,4.8A15.1,15.1,0,0,0,695.2,501.4Z" fill="url(#ao)"/><path d="M716.6,495.1a9,9,0,0,1,1.5,1.9l.3.2c3.6,3.3,1.7,8.1,1.5,8.4a10.8,10.8,0,0,0,4.3-9.7c-1.8-4.5-4.9-6.3-7.4-10.2l-.3-.6c-.1-.2-.2-.3-.2-.4l-.3-.6h0C715.3,484.4,711.7,490.1,716.6,495.1Z" fill="url(#ap)"/><path d="M718.4,497.2l-.3-.2a.1.1,0,0,1-.1-.1,5.7,5.7,0,0,0-3.8-.9,6.6,6.6,0,0,1-3.8,12.4l-2-.4-.5-.2h-.3c1.1.7,6.6,2.6,12.3-2.1h0C720.1,505.3,722,500.5,718.4,497.2Z" fill="url(#aq)"/><path d="M703.9,502.4s.7-2.7,5.2-2.7a3.7,3.7,0,0,0,1.9-1.8,7.6,7.6,0,0,1-5.9-.2,6.2,6.2,0,0,0-5.9.2,4.2,4.2,0,0,0,3.8,2.4,7.2,7.2,0,0,0,4.4,7.2l.2.2A7.1,7.1,0,0,1,703.9,502.4Z" fill="url(#ar)"/><path d="M725.8,495.1a9.2,9.2,0,0,0-3.2-4.1,21.6,21.6,0,0,1,1.6,4.9h0c-1.8-4.5-4.9-6.3-7.4-10.2l-.3-.6c-.1-.2-.2-.3-.2-.4l-.3-.6h0a11.4,11.4,0,0,0-5.5,8.8h.5a8,8,0,0,1,7,4,5.7,5.7,0,0,0-3.8-.9,6.6,6.6,0,0,1-3.8,12.4l-2-.4-.5-.2h-.3l-.2-.2.2.2a7.1,7.1,0,0,1-3.7-5.3s.7-2.7,5.2-2.7a3.7,3.7,0,0,0,1.9-1.8c0-.1-2.7-1.2-3.8-2.3l-1.1-1-.4-.3a7.4,7.4,0,0,1-.1-3.9,13.3,13.3,0,0,0-3.8,2.9h0c-.6-.8-.6-3.4-.6-3.9l-.5.2a10,10,0,0,0-1.5,1.4,6.5,6.5,0,0,0-1.5,1.8h0a12.3,12.3,0,0,0-2.2,4.8h0c0,.1-.2.8-.2,1h0a16.4,16.4,0,0,0-.2,2.2h0a15.9,15.9,0,0,0,31.6,2.7c0-.2.1-.4.1-.6A16.7,16.7,0,0,0,725.8,495.1Zm-1.6.8Z" fill="url(#as)"/><path d="M578.3,529.3v.9h-4.4v-7.3h1v6.4Zm1.5-5.6a.6.6,0,0,1-.5-.2c-.1-.1-.1-.2-.1-.4a.7.7,0,0,1,.1-.5l.5-.2a.5.5,0,0,1,.4.2c.2.1.2.3.2.5s0,.3-.2.4S580,523.7,579.8,523.7Zm.5,6.5h-1v-5.5h1Zm1.7-5.3.9-.2h1.2a1.8,1.8,0,0,1,1.1.2,1.8,1.8,0,0,1,.7.5,2,2,0,0,1,.4.8,3.1,3.1,0,0,1,.1,1v3.1h-1v-2.9a2.8,2.8,0,0,0-.1-.9.8.8,0,0,0-.2-.5c-.1-.2-.2-.3-.4-.3l-.7-.2h-1.1v4.6H582Zm10.4,5.1-.9.2h-1.3l-1.1-.2a1.8,1.8,0,0,1-.7-.5,1.9,1.9,0,0,1-.3-.8,3.6,3.6,0,0,1-.2-1v-3.1h1v2.9a2.6,2.6,0,0,0,.3,1.4,1.2,1.2,0,0,0,1.1.4h1.1v-4.6h1Zm4.9.2-.3-.5-.3-.6a2.1,2.1,0,0,1-.4-.6l-.5-.6a2.1,2.1,0,0,1-.4.6,2.1,2.1,0,0,1-.4.6l-.3.6-.3.5h-1a10.9,10.9,0,0,1,.8-1.5l1.1-1.4-1.8-2.6h1.1l1.3,1.9,1.3-1.9h1l-1.7,2.5,1,1.5.9,1.5Z" fill="#fff"/><path d="M575.8,485.1c-2,0-3.5-.1-4.7.7a4,4,0,0,0-1.1,1.9,10.2,10.2,0,0,0-.3,3.2v17.5a28.2,28.2,0,0,0,.1,3.2,4.1,4.1,0,0,0,1,2.1,4.4,4.4,0,0,0,2.1.7h25.8a4,4,0,0,0,2-.7,3,3,0,0,0,1-2.1,14.2,14.2,0,0,0,.2-3.2V495h0v-1.4a29.1,29.1,0,0,0-.1-3.1,4.4,4.4,0,0,0-.7-2.1,3,3,0,0,0-2.1-1,14.7,14.7,0,0,0-3.2-.2H584.6l-2.1-2.1Z" opacity="0.1" style="isolation:isolate"/><path d="M575.8,484.4c-2,0-3.5-.1-4.7.7A4,4,0,0,0,570,487a10.2,10.2,0,0,0-.3,3.2v6.1h32.2v-2h0v-1.4a29.1,29.1,0,0,0-.1-3.1,4.4,4.4,0,0,0-.7-2.1,3,3,0,0,0-2.1-1,14.7,14.7,0,0,0-3.2-.2H584.6l-2.1-2.1Z" fill="url(#at)"/><path d="M585,489.3l-2.1,2.1h-7.1c-4.8,0-5.4,0-5.4,5.4v.7c0-5.4.6-5.4,5.4-5.4h7.1L585,490h10.8c4.7,0,5.4,0,5.4,5.4v-.7c0-5.4-.7-5.4-5.4-5.4Z" fill="#fff" opacity="0.3" style="isolation:isolate"/><path d="M595.8,489.3c2,0,3.5-.1,4.7.7a3.9,3.9,0,0,1,1.1,2,13,13,0,0,1,.3,3.1v12.6a14.2,14.2,0,0,1-.2,3.2,3.4,3.4,0,0,1-.9,2.1,4.8,4.8,0,0,1-2.1.7H572.9a4,4,0,0,1-2-.7,3,3,0,0,1-1-2.1,14.2,14.2,0,0,1-.2-3.2v-8.5h0v-4.5a3.9,3.9,0,0,1,.8-2.1,3,3,0,0,1,2-1,8.5,8.5,0,0,1,3.3-.2h6.9l2.1-2.1Z" fill="url(#au)"/><path d="M601.9,504.7l-8.4,8.4h3.2c4.7,0,5.2-.5,5.2-5.1Z" fill="#fff" opacity="0.05" style="isolation:isolate"/><path d="M569.7,507v.7a28.2,28.2,0,0,0,.1,3.2,4.1,4.1,0,0,0,1,2.1,4.4,4.4,0,0,0,2.1.7h25.8a4,4,0,0,0,2-.7,3,3,0,0,0,1-2.1,14.2,14.2,0,0,0,.2-3.2V507a14.2,14.2,0,0,1-.2,3.2,3,3,0,0,1-1,2.1,4,4,0,0,1-2,.7H572.9a3.6,3.6,0,0,1-2.1-.8,3.4,3.4,0,0,1-1-2A28.2,28.2,0,0,1,569.7,507Z" opacity="0.2" style="isolation:isolate"/><path d="M584.8,489.3l-2.1,2.1h-6.9a8.5,8.5,0,0,0-3.3.2,3,3,0,0,0-2,1,3.9,3.9,0,0,0-.8,2.1v1.6h0v-.9a3.9,3.9,0,0,1,.8-2.1,3,3,0,0,1,2-1,8.5,8.5,0,0,1,3.3-.2h6.9l2.1-2.1h11c2,0,3.5-.1,4.7.7a3.9,3.9,0,0,1,1.1,2,13,13,0,0,1,.3,3.1v-.7a13,13,0,0,0-.3-3.1,3.9,3.9,0,0,0-1.1-2c-1.2-.8-2.7-.7-4.7-.7Z" fill="#fff" opacity="0.2" style="isolation:isolate"/><path d="M584.8,488.6l-2.1,2.1h-6.9a8.5,8.5,0,0,0-3.3.2,3,3,0,0,0-2,1,3.9,3.9,0,0,0-.8,2.1v1.6h0v-.9a3.9,3.9,0,0,1,.8-2.1,3,3,0,0,1,2-1,8.5,8.5,0,0,1,3.3-.2h6.9l2.1-2.1h11c2,0,3.5-.1,4.7.7a3.9,3.9,0,0,1,1.1,2,13,13,0,0,1,.3,3.1v-.7a13,13,0,0,0-.3-3.1,3.9,3.9,0,0,0-1.1-2c-1.2-.8-2.7-.7-4.7-.7Z" fill="#732206" opacity="0.1" style="isolation:isolate"/><path d="M575.8,484.4c-2,0-3.5-.1-4.7.7A4,4,0,0,0,570,487a10.2,10.2,0,0,0-.3,3.2v.7a10.2,10.2,0,0,1,.3-3.2,4,4,0,0,1,1.1-1.9c1.2-.8,2.7-.7,4.7-.7h6.7l2.1,2.1h11.2a14.7,14.7,0,0,1,3.2.2,3,3,0,0,1,2.1,1,4.4,4.4,0,0,1,.7,2.1,6.1,6.1,0,0,1,.1,1.4,13.4,13.4,0,0,0-.1-2.1,4.4,4.4,0,0,0-.7-2.1,3,3,0,0,0-2.1-1,14.7,14.7,0,0,0-3.2-.2H584.6l-2.1-2.1Zm26.1,10v.6h0v-.6Z" fill="#fff" opacity="0.2" style="isolation:isolate"/><rect x="580.1" y="496.3" width="11.2" height="11.22" fill="none"/><path d="M590,499.8v-1.4h-1.5Z" fill="#fff"/><path d="M581.5,501.2v5.6h6.3v-.7h-5.6v-5.4Zm7.8-.7v6.3h.7v-5.6Z" fill="#fff"/><path d="M585.7,502.6h1.6l.3.3a.5.5,0,0,1,.2.4v3h-2.1Z" fill="#fff"/><path d="M585.7,496.5l-5.5,5.5.5.5,5-5,5.1,5,.5-.5Z" fill="#fff" fill-rule="evenodd"/></g></svg>