<svg xmlns="http://www.w3.org/2000/svg" xmlns:xlink="http://www.w3.org/1999/xlink" viewBox="0 0 1296.9 1000"><linearGradient id="n" x1="648.6" x2="648.6" y1="952.3" y2="1004.7" gradientTransform="matrix(-1 0 0 1 1296.9 0)" gradientUnits="userSpaceOnUse"><stop offset="0" stop-color="#404040"/><stop offset=".5" stop-color="#333"/><stop offset="1" stop-color="#212121"/></linearGradient><linearGradient id="o" x1="648.5" x2="648.5" y1="1002.4" y2="971.6" gradientTransform="matrix(-1 0 0 1 1296.9 0)" gradientUnits="userSpaceOnUse"><stop offset="0" stop-color="#404040"/><stop offset="0" stop-color="#3f3f3f"/><stop offset=".6" stop-color="#292929"/><stop offset=".9" stop-color="#212121"/></linearGradient><linearGradient id="p" x1="858.3" x2="659.5" y1="845.8" y2="1102.7" gradientTransform="matrix(-1 0 0 1 1296.9 0)" gradientUnits="userSpaceOnUse"><stop offset="0" stop-color="#fff"/><stop offset=".1" stop-color="#f9f9f9"/><stop offset=".2" stop-color="#e7e7e7"/><stop offset=".3" stop-color="#cacaca"/><stop offset=".4" stop-color="#a2a2a2"/><stop offset=".5" stop-color="#6e6e6e"/><stop offset=".7" stop-color="#303030"/><stop offset=".7" stop-color="#212121"/></linearGradient><linearGradient id="q" x1="601.1" x2="695.8" y1="902.7" y2="902.7" gradientUnits="userSpaceOnUse"><stop offset="0" stop-color="#292929"/><stop offset=".1" stop-color="#4a4a4a"/><stop offset=".5" stop-color="#292929"/><stop offset=".9" stop-color="#333"/><stop offset="1" stop-color="#272727"/></linearGradient><linearGradient id="r" x1="648.5" x2="648.5" y1="963.8" y2="849.3" gradientUnits="userSpaceOnUse"><stop offset="0" stop-opacity="0"/><stop offset="1" stop-opacity=".6"/></linearGradient><linearGradient id="s" x1="11330.7" x2="11330.7" y1="-11587.9" y2="-7379.1" gradientTransform="matrix(.2 0 0 -.2 -1581.4 -1446.6)" gradientUnits="userSpaceOnUse"><stop offset="0" stop-color="#202020"/><stop offset="1" stop-color="#343434"/></linearGradient><linearGradient id="t" x1="11330.7" x2="11330.7" y1="-11443.8" y2="-7559.8" gradientTransform="matrix(.2 0 0 -.2 -1581.4 -1446.6)" gradientUnits="userSpaceOnUse"><stop offset="0" stop-color="#616161"/><stop offset="1" stop-color="#202020"/></linearGradient><radialGradient id="a" cx="-6599.7" cy="2178.1" r="7.2" gradientTransform="rotate(-135 -2205.3 647.3) scale(.59 .98)" gradientUnits="userSpaceOnUse"><stop offset="0" stop-color="#ccc"/><stop offset="1" stop-color="#c1c1c1" stop-opacity="0"/></radialGradient><radialGradient id="u" cx="-1085" cy="-1164.3" r="7.2" gradientTransform="matrix(.42 -.42 -.69 -.69 903.2 -454.4)" xlink:href="#a"/><linearGradient id="v" x1="8091.2" x2="11210.6" y1="-7366.1" y2="-7366.1" gradientTransform="matrix(.2 0 0 -.2 -1581.4 -1446.6)" gradientUnits="userSpaceOnUse"><stop offset="0" stop-color="#afafaf"/><stop offset="1" stop-color="#707070"/></linearGradient><linearGradient id="w" x1="8054.6" x2="11210.6" y1="-10417.9" y2="-10417.9" gradientTransform="matrix(.2 0 0 -.2 -1581.4 -1204)" gradientUnits="userSpaceOnUse"><stop offset="0" stop-color="#929292"/><stop offset="1" stop-color="#8a8a8a"/></linearGradient><linearGradient id="x" x1="11330.7" x2="11330.7" y1="-10435.2" y2="-10414.4" gradientTransform="matrix(.2 0 0 -.2 -1581.4 -1204)" gradientUnits="userSpaceOnUse"><stop offset="0" stop-color="#5a5a5a"/><stop offset="1" stop-color="#8a8a8a" stop-opacity="0"/></linearGradient><linearGradient id="y" x1="11330.7" x2="11330.7" y1="-10433.6" y2="-10402.2" gradientTransform="matrix(.2 0 0 -.2 -1581.4 -1204)" gradientUnits="userSpaceOnUse"><stop offset="0" stop-color="#6f6f6f" stop-opacity="0"/><stop offset="1" stop-color="#ebebeb"/></linearGradient><linearGradient id="z" x1="648.5" x2="648.5" y1="803.6" y2="45.9" gradientUnits="userSpaceOnUse"><stop offset="0" stop-color="#2c0225"/><stop offset=".3" stop-color="#400444"/><stop offset=".5" stop-color="#5e0c5a"/><stop offset=".8" stop-color="#7e1854"/><stop offset="1" stop-color="#b12b26"/></linearGradient><linearGradient id="A" x1="648.5" x2="648.5" y1="603.6" y2="46.2" gradientUnits="userSpaceOnUse"><stop offset=".5"/><stop offset="1" stop-opacity="0"/></linearGradient><linearGradient id="B" x1="68.9" x2="68.9" y1="803.5" y2="64.8" gradientUnits="userSpaceOnUse"><stop offset="0" stop-color="#21151f"/><stop offset="1" stop-color="#461f20"/></linearGradient><linearGradient id="C" x1="-3635.6" x2="-3602.4" y1="1316.6" y2="1355.3" gradientTransform="matrix(0 -1 -1 0 1401.3 -3430.7)" gradientUnits="userSpaceOnUse"><stop offset="0" stop-color="#f37e40"/><stop offset="1" stop-color="#f34f17"/></linearGradient><linearGradient id="D" x1="68.8" x2="68.8" y1="203.9" y2="178.7" gradientUnits="userSpaceOnUse"><stop offset="0" stop-color="#fee8bc" stop-opacity=".5"/><stop offset=".1" stop-color="#fee8bc" stop-opacity="0"/><stop offset=".9" stop-color="#fee8bc" stop-opacity="0"/><stop offset="1" stop-color="#fee8bc" stop-opacity=".5"/></linearGradient><linearGradient id="E" x1="540.4" x2="574.1" y1="4466.2" y2="4499.9" gradientTransform="matrix(0 1 1 0 -4414 -418)" gradientUnits="userSpaceOnUse"><stop offset="0" stop-color="#948b74"/><stop offset="1" stop-color="#aea795"/></linearGradient><linearGradient id="F" x1="541.8" x2="572.7" y1="4483" y2="4483" gradientTransform="matrix(0 1 1 0 -4414 -418)" gradientUnits="userSpaceOnUse"><stop offset="0" stop-color="#fff"/><stop offset=".1" stop-color="#fff" stop-opacity=".1"/><stop offset=".9" stop-color="#fff" stop-opacity=".1"/><stop offset="1" stop-color="#fff" stop-opacity=".5"/></linearGradient><linearGradient id="b" x1="77.6" x2="51.2" y1="905.1" y2="879.5" gradientTransform="matrix(1 0 0 -1 3.7 983.4)" gradientUnits="userSpaceOnUse"><stop offset=".1" stop-color="#fff44f"/><stop offset=".1" stop-color="#ffe847"/><stop offset=".2" stop-color="#ffc830"/><stop offset=".4" stop-color="#ff980e"/><stop offset=".4" stop-color="#ff8b16"/><stop offset=".5" stop-color="#ff672a"/><stop offset=".5" stop-color="#ff3647"/><stop offset=".7" stop-color="#e31587"/></linearGradient><radialGradient id="c" cx="-7898.6" cy="9430.5" r="33.2" gradientTransform="matrix(1 0 0 -1 7978.7 9507.4)" gradientUnits="userSpaceOnUse"><stop offset=".1" stop-color="#ffbd4f"/><stop offset=".2" stop-color="#ffac31"/><stop offset=".3" stop-color="#ff9d17"/><stop offset=".3" stop-color="#ff980e"/><stop offset=".4" stop-color="#ff563b"/><stop offset=".5" stop-color="#ff3750"/><stop offset=".7" stop-color="#f5156c"/><stop offset=".8" stop-color="#eb0878"/><stop offset=".9" stop-color="#e50080"/></radialGradient><radialGradient id="d" cx="-7910.8" cy="9416.9" r="33.2" gradientTransform="matrix(1 0 0 -1 7978.7 9507.4)" gradientUnits="userSpaceOnUse"><stop offset=".3" stop-color="#960e18"/><stop offset=".3" stop-color="#b11927" stop-opacity=".7"/><stop offset=".4" stop-color="#db293d" stop-opacity=".3"/><stop offset=".5" stop-color="#f5334b" stop-opacity=".1"/><stop offset=".5" stop-color="#ff3750" stop-opacity="0"/></radialGradient><radialGradient id="e" cx="-7906.8" cy="9438" r="24.1" gradientTransform="matrix(1 0 0 -1 7978.7 9507.4)" gradientUnits="userSpaceOnUse"><stop offset=".1" stop-color="#fff44f"/><stop offset=".3" stop-color="#ffdc3e"/><stop offset=".5" stop-color="#ff9d12"/><stop offset=".5" stop-color="#ff980e"/></radialGradient><radialGradient id="f" cx="-7914.4" cy="9408.3" r="15.8" gradientTransform="matrix(1 0 0 -1 7978.7 9507.4)" gradientUnits="userSpaceOnUse"><stop offset=".3" stop-color="#3a8ee6"/><stop offset=".5" stop-color="#5c79f0"/><stop offset=".7" stop-color="#9059ff"/><stop offset="1" stop-color="#c139e6"/></radialGradient><radialGradient id="g" cx="-8448.8" cy="9396.2" r="8.4" gradientTransform="matrix(.97 -.23 -.28 -1.14 10866 8795.2)" gradientUnits="userSpaceOnUse"><stop offset=".2" stop-color="#9059ff" stop-opacity="0"/><stop offset=".3" stop-color="#8c4ff3" stop-opacity=".1"/><stop offset=".8" stop-color="#7716a8" stop-opacity=".5"/><stop offset="1" stop-color="#6e008b" stop-opacity=".6"/></radialGradient><radialGradient id="h" cx="-7911.2" cy="9431.9" r="11.4" gradientTransform="matrix(1 0 0 -1 7978.7 9507.4)" gradientUnits="userSpaceOnUse"><stop offset="0" stop-color="#ffe226"/><stop offset=".1" stop-color="#ffdb27"/><stop offset=".3" stop-color="#ffc82a"/><stop offset=".5" stop-color="#ffa930"/><stop offset=".7" stop-color="#ff7e37"/><stop offset=".8" stop-color="#ff7139"/></radialGradient><radialGradient id="i" cx="-7902.2" cy="9439.1" r="48.5" gradientTransform="matrix(1 0 0 -1 7978.7 9507.4)" gradientUnits="userSpaceOnUse"><stop offset=".1" stop-color="#fff44f"/><stop offset=".5" stop-color="#ff980e"/><stop offset=".6" stop-color="#ff5634"/><stop offset=".7" stop-color="#ff3647"/><stop offset=".9" stop-color="#e31587"/></radialGradient><radialGradient id="j" cx="-7509" cy="14013.4" r="35.5" gradientTransform="matrix(.1 1 .65 -.07 -8290 8509.4)" gradientUnits="userSpaceOnUse"><stop offset="0" stop-color="#fff44f"/><stop offset=".1" stop-color="#ffe847"/><stop offset=".2" stop-color="#ffc830"/><stop offset=".3" stop-color="#ff980e"/><stop offset=".4" stop-color="#ff8b16"/><stop offset=".5" stop-color="#ff672a"/><stop offset=".6" stop-color="#ff3647"/><stop offset=".7" stop-color="#e31587"/></radialGradient><radialGradient id="k" cx="-7911.4" cy="9427.6" r="30.3" gradientTransform="matrix(1 0 0 -1 7978.7 9507.4)" gradientUnits="userSpaceOnUse"><stop offset=".1" stop-color="#fff44f"/><stop offset=".5" stop-color="#ff980e"/><stop offset=".6" stop-color="#ff5634"/><stop offset=".7" stop-color="#ff3647"/><stop offset=".9" stop-color="#e31587"/></radialGradient><radialGradient id="l" cx="-7903.4" cy="9425.9" r="33.2" gradientTransform="matrix(1 0 0 -1 7978.7 9507.4)" gradientUnits="userSpaceOnUse"><stop offset=".1" stop-color="#fff44f"/><stop offset=".2" stop-color="#ffe141"/><stop offset=".5" stop-color="#ffaf1e"/><stop offset=".6" stop-color="#ff980e"/></radialGradient><linearGradient id="m" x1="77.3" x2="54.8" y1="905.2" y2="882.7" gradientTransform="matrix(1 0 0 -1 3.7 983.4)" gradientUnits="userSpaceOnUse"><stop offset=".2" stop-color="#fff44f" stop-opacity=".8"/><stop offset=".3" stop-color="#fff44f" stop-opacity=".6"/><stop offset=".5" stop-color="#fff44f" stop-opacity=".2"/><stop offset=".6" stop-color="#fff44f" stop-opacity="0"/></linearGradient><linearGradient id="G" x1="720" x2="693.5" y1="494.2" y2="468.7" xlink:href="#b"/><radialGradient id="H" cx="-7256.3" cy="9019.7" r="33.2" xlink:href="#c"/><radialGradient id="I" cx="-7268.4" cy="9006.1" r="33.2" xlink:href="#d"/><radialGradient id="J" cx="-7264.4" cy="9027.2" r="24.1" xlink:href="#e"/><radialGradient id="K" cx="-7272.1" cy="8997.4" r="15.8" xlink:href="#f"/><radialGradient id="L" cx="-7920.9" cy="8926.2" r="8.4" xlink:href="#g"/><radialGradient id="M" cx="-7268.8" cy="9021" r="11.4" xlink:href="#h"/><radialGradient id="N" cx="-7259.9" cy="9028.3" r="48.5" xlink:href="#i"/><radialGradient id="O" cx="-7033.2" cy="14920.6" r="35.5" xlink:href="#j"/><radialGradient id="P" cx="-7269.1" cy="9016.8" r="30.3" xlink:href="#k"/><radialGradient id="Q" cx="-7261.1" cy="9015" r="33.2" xlink:href="#l"/><linearGradient id="R" x1="719.6" x2="697.1" y1="494.4" y2="471.9" xlink:href="#m"/><linearGradient id="S" x1="-234.4" x2="-202.1" y1="113.1" y2="143.3" gradientTransform="matrix(1 0 0 -1 800 623.4)" gradientUnits="userSpaceOnUse"><stop offset="0" stop-color="#2c001e"/><stop offset=".1" stop-color="#2c001e"/><stop offset=".2" stop-color="#370626"/><stop offset=".3" stop-color="#55163b"/><stop offset=".4" stop-color="#772953"/><stop offset=".5" stop-color="#7c2b51"/><stop offset=".5" stop-color="#8b314b"/><stop offset=".6" stop-color="#8b314b"/><stop offset=".7" stop-color="#a33a41"/><stop offset=".8" stop-color="#c44732"/><stop offset=".9" stop-color="#e65524"/><stop offset="1" stop-color="#e65524"/></linearGradient><linearGradient id="T" x1="-230.4" x2="-198.1" y1="134.1" y2="109.5" gradientTransform="matrix(1 0 0 -1 800 623.4)" gradientUnits="userSpaceOnUse"><stop offset="0" stop-color="#666"/><stop offset="1" stop-color="#7a7a7a"/></linearGradient><path fill="url(#n)" d="M381.7 980c0 5.1.8 14.2 4.3 14.2h524.6c3.5 0 4.3-9.1 4.3-14.2l-11.7-16.2c-3.8-6.8-11.1-7.5-14.6-7.5H408c-3.5 0-9.9.6-13.8 6.8z"/><path fill="url(#o)" d="M381.5 995.1c0 2.7 2.8 4.9 6.3 4.9h521.3c3.5 0 6.3-2.2 6.3-4.9v-12.5c0-2.7-2.8-4.9-6.3-4.9H387.8c-3.5 0-6.3 2.2-6.3 4.9z"/><path fill="url(#p)" d="M679.8 959.2l-136.3 17.3h-157l13.3-16s1.7-2.7 11.6-2.7z" opacity=".5"/><g opacity=".5"><path fill="#2e2e2e" d="M386 976.5a3.2 3.2 0 00-3.2 3.4v.7c1.9.9 528.3.1 530-1.1.1-1.9-2.8-3.2-4.6-3.2z" opacity=".1"/><path fill="#3b3b3b" d="M386.3 976.6a2.9 2.9 0 00-3.1 3.1l.1.7c1.7.8 527.5.1 529-1s-2.3-3-4.2-3z" opacity=".1"/><path fill="#484848" d="M386.6 976.7c-1.9 0-3.2 1.3-2.9 2.9l.1.6c.1 0 526.8 0 528.1-.9s-2-2.8-3.8-2.8z" opacity=".2"/><path fill="#545454" d="M386.8 976.8c-1.8 0-3.1 1.2-2.7 2.6s.1.6.1.6c1.5.7 526.1 0 527.3-.8s-1.6-2.6-3.5-2.6z" opacity=".3"/><path fill="#616161" d="M387.1 976.9c-1.8 0-3 1.1-2.5 2.4v.5c1.3.6 525.3 0 526.3-.8s-1.1-2.3-3-2.3z" opacity=".4"/><path fill="#6e6e6e" d="M387.4 977c-1.8 0-3 1-2.4 2.2l.2.4c.1 0 524.5 0 525.4-.7s-.8-2.1-2.6-2.1z" opacity=".5"/><path fill="#7b7b7b" d="M387.7 977.1c-1.8 0-2.9.9-2.2 1.9s.1.4.2.4 523.7 0 524.5-.6-.4-1.9-2.3-1.9z" opacity=".5"/><path fill="#888" d="M388 977.2c-1.8 0-2.8.8-2.1 1.7s.2.3.3.3 522.9 0 523.6-.5-.1-1.7-1.9-1.7z" opacity=".6"/><path fill="#949494" d="M388.3 977.3c-1.8 0-2.8.8-1.9 1.4s.2.3.3.3 522.1-.1 522.6-.4.4-1.5-1.5-1.5z" opacity=".7"/><path fill="#a1a1a1" d="M388.5 977.4c-1.7 0-2.6.7-1.7 1.2l.3.2c.5.2 521.4-.1 521.8-.4s.7-1.2-1.1-1.2z" opacity=".8"/><path fill="#aeaeae" d="M388.8 977.5c-1.7 0-2.6.6-1.5 1h.3c.3.1 520.6-.1 520.9-.3s1.1-1-.7-1z" opacity=".8"/><path fill="#bbb" d="M389.1 977.6c-1.7 0-2.5.5-1.4.7h.4c.1.1 519.8-.1 519.9-.2 1.7-.2 1.5-.8-.3-.8z" opacity=".9"/><path fill="#c8c8c8" d="M907.7 977.5l-518.3.2c-1.8 0-2.6.5-.8.5h519c1.8-.1 1.9-.7.1-.7z"/></g><rect width="94.6" height="122.2" x="601.1" y="841.6" fill="url(#q)" rx="9.7"/><path fill="url(#r)" d="M601.1 849.3h94.6v114.5h-94.6z"/><rect width="1296.9" height="837.6" y="6.2" fill="url(#s)" rx="3.7"/><rect width="1218.8" height="765.9" x="39" y="42" fill="url(#t)" rx="3.7"/><path fill="url(#a)" d="M40.7 800.5a9.6 9.6 0 00-1.7 2.6c0 3.5 1.1 5.1 6 4.8l1.7-1.3c5.3-5.4-3-1-3.1-8.2a11.2 11.2 0 00-2.9 2.1z"/><path fill="url(#u)" d="M1256 800.5a12.1 12.1 0 011.9 2.3c.2 3.3-.9 5.6-6.2 5.1l-1.7-1.3c-5.6-5.4 3-.6 3.1-8.2a11.2 11.2 0 012.9 2.1z"/><rect width="1294.8" height="6.2" x="1" fill="url(#v)" rx="1.3"/><rect width="1294.8" height="6.2" x="1" y="843.2" fill="url(#w)" rx="1.3"/><rect width="1294.8" height="6.2" x="1" y="843.2" fill="url(#x)" rx="1.3"/><rect width="1294.8" height="6.2" x="1" y="843.2" fill="url(#y)" opacity=".7" rx="1.3"/><rect width="1209.6" height="757.8" x="43.6" y="45.9" fill="url(#z)" rx="4.3"/><path fill="#e99d82" d="M894.3 387.2l-18.5-15.5 62.7-10.3.9-.2-.7-3.8-66.9 11-23.4-19.6 38-92.3 2.2-39.1 24.1-74.9-54.1-14-46.2 23.3-47.4 44.9-27.7-13.4-81-10.1-69.9 17.8-62.2-70.7-31.3 21-1.6 67.5 9.9 23.2-32.9 100.9 7.1 40.3-17.4 17.9v18.3l3.7 5.7-268.5-100.3-1.4 3.6 273.4 102.2 1.2 1.8-3.8 7.7-204.7-23.2h-.8v1.1h-.4l-.2 2.2h.3v.6l204.2 23-4.8 9.6-140.4 15.4.3 3.9 137.8-15.1-3.5 7.1.8 2.2-76.5 31.5 1.5 3.7 76.2-31.5 4.4 13.2-61 43.8 2.2 3.2 60.1-43.2 5.7 17.1 12.1 3.1L505 533l59.2 7.5 11.3-6.5.3 29.6h3.9l-.3-31.9 21.9-12.7h.2l2.5 22.6 4.2-.7-2.5-21 36.3 7.9 20.1 75.2 5.2 124.6 71.9-14.6 136-87.7.3-.2 77.4-92.2 31.8-73.8zM646.1 523.5l-41.1-8.9v-.6l39.5-12.7 29.6 30.3 2.8-2.8-28.2-28.8 77-24.6 38.9 14.3-98.2 110zm-138.9 4.9l-27.9-33.8 11.5 2.2 2.1.4 3.7-8.1 34.8 4.2 5.9 6.8 37.8-4.2.3 32.2-12.7 7.3zm-39.9-37.8l-11.8-35.4 9-18.1 12.9 21.3.3-.2 19.9 4.6 8.4 1.9-14 30.8-20.6-3.9zm511.2-29.9l-28.4 66.4-42-102.3-12.3-29.9zM925.9 472l23.4 57-.5 1-75.6 90.1-79.8-179.9 99.2 8.2h.8l.5-4-100.8-8.4 37.7-56.8 38.3-6.4 22 18.4 2.4 1.8zm-158.5 14.6l-35.6-13.2 24.1-7.7 33.2-25.9-21 46zM505.8 353.5H544l13.3 10.6-58.1 25.2-18.4-14.6-.5-2.7 3.1-4.1zm133.4-109.2l20.1 50.6-24.2 19.9h-.1l-6.9 65.5-54 9.2-.7-14.4 15.7-74.8zm21.2 51.6l60.3 2.2h.3l35.2-34.7h.1l34.7-65.1 5.5 32.1 4.7 26.3 4.4 27-8.3 96.9-144.2 23.9-23.6-23.6 6.9-65.2zm-40 136.4L619 436l20.1 7.4-7.7 19.5-30.2-35.1 27.7-45.4 22.4 22.4-28.3 4.7.6 3.8 29.2-4.8-6.1 15.4-23.2-1.9h-.8l-.5 3.9 23 1.9-4.7 11.9zm-18.3 57.5l-2.5-20.7-3.8.7 2.5 22.1-19.4 2.1-.2-21.5h-3.9l.2 21.9-37.1 4.1-29.4-33.6 23.4-2.1h.3l6.7-5.2 38.4-29.8 22.7.8 30.6 35.6-9 8-13.6-13.9-2.8 2.7 13.5 13.9-13.1 11.7zm-63.2-73.2l3.5 6.1 20.8-9.6 10.7-21.8 53.4-9.1-27.3 44.9-23-.7h-.2l-38.6 29.9-16.8-31.8zm246.8 18.8l-124.4-28.3 167.5-27.6-37.4 56.4zm-128-27.7l117.7 26.9-127.1-10.5 6.2-15.8zm-85.1-17.2L562.1 412l-19.1 8.8-9.2-16-19.8 8.8 23 43.6-5.5 4.2-23.8 2.1-.4-3.9-7.4-69 58.7-25.5 13.3 10.6zm29.7 101.1l13.6-12.3 3.8-3.4 23.7 24.3-38.6 12.3zm20.4-18.3l9.7-8.7 8.1-20.7 83 30.6-75.9 24.3zm132.6-8.9l-25.8 8.2-87.6-32.4 4.9-12.3L787 439.6zm77.9-89.6l10.1-23.5 21.9 18.2zm-1.9.3l-32.6 5.4 8.3-96.2 73.4-26.1-35.9 86.5zM807.8 163l-17.1 32.5v.2L757 258.9l9.1-56.1zm-72 25.3l28.9 14-9.7 60.3-34.6 34-59.8-2.1-20.2-51.3 93.9-55.1zm-96.7 54l-51.2 57.5h-.1L572.2 374l-27.7-22h-39.1L485 365.2l34.1-62.6 10.7-60.3 55.3-45.7 71.5-18.2 75.3 9.4zm-101.5-34.2l-14.1-27.7 1.3-51.7 57.5 65.4zm-31.1 24l30.8-22.3 46.2-14.4.4.4-55.4 45.8-10.6 59.6-24.7-28.4zm-13.8 42.3l24.6 28.4-35 64.2h.1l-2.5 3.1-6.5-36.6zm-29.8 118.9l17-17.3 18.4 14.6 7.9 72.7-19.6-4.5-7.1-1.6 12.9-43.9-18.7-10.2-4.5 14.9-6.3-10zm7.5 26.6l1.5-5.2 15.3 11.4-8.8 29.8-13.1-20.4 6.6-13.3zM579 495.5l19.5-2.2 2.3 20.4h-.3L579.3 526zm189.9-8.4l.4-.4 20.5-44.8-9.6 49.4zm-31.6 221.3l-65.2 13.1-5-119-.3-1.2 99.3-111 13.3 4.9-41.5 212.7zm43.5-212.7l10.9 4 1.3-3.6-11.5-4.3 10.1-51.8 80.2 180.6.3.8-132.5 85.4z" opacity=".2"/><path fill="#fff" d="M398.6 359.7a1.3 1.3 0 011.1-1.6 1.3 1.3 0 011.6 1.1 1.3 1.3 0 01-1.1 1.6h-.3a1.4 1.4 0 01-1.3-1.1zm11.2-1.9a1.3 1.3 0 011.1-1.6 1.3 1.3 0 011.6 1.1 1.4 1.4 0 01-1.1 1.6h-.2a1.4 1.4 0 01-1.4-1.1zm11.2-1.9a1.3 1.3 0 011.1-1.6 1.4 1.4 0 011.6 1.2 1.4 1.4 0 01-1.1 1.6h-.3a1.4 1.4 0 01-1.3-1.2zm11.1-1.9a1.4 1.4 0 011.2-1.6 1.4 1.4 0 011.6 1.2 1.4 1.4 0 01-1.1 1.6h-.3a1.6 1.6 0 01-1.4-1.2zm11.2-2a1.5 1.5 0 011.2-1.6 1.4 1.4 0 011.6 1.1 1.4 1.4 0 01-1.1 1.6h-.3a1.4 1.4 0 01-1.4-1.1zm11.2-1.9a1.5 1.5 0 011.1-1.6h.1a1.5 1.5 0 011.6 1.1 1.5 1.5 0 01-1.2 1.6h-.2a1.4 1.4 0 01-1.4-1.1zm11.2-1.9a1.5 1.5 0 011.1-1.6 1.6 1.6 0 011.7 1.1 1.5 1.5 0 01-1.2 1.6h-.2a1.4 1.4 0 01-1.4-1.1zm11.2-1.9a1.4 1.4 0 011.1-1.6 1.4 1.4 0 011.6 1.1 1.4 1.4 0 01-1.1 1.7h-.2a1.4 1.4 0 01-1.4-1.2zm11.2-1.9a1.4 1.4 0 011.1-1.6 1.4 1.4 0 011.6 1.1 1.3 1.3 0 01-1.1 1.6h-.3a1.2 1.2 0 01-1.3-1.1zm11.2-1.9a1.3 1.3 0 011.1-1.6 1.4 1.4 0 011.6 1.1 1.3 1.3 0 01-1.1 1.6h-.3a1.3 1.3 0 01-1.3-1.2zm11.2-1.9a1.3 1.3 0 011.1-1.6 1.4 1.4 0 011.6 1.1 1.4 1.4 0 01-1.1 1.6h-.3a1.4 1.4 0 01-1.3-1.1zm11.2-1.9a1.3 1.3 0 011.1-1.6 1.3 1.3 0 011.6 1.1 1.4 1.4 0 01-1.1 1.6h-.3a1.3 1.3 0 01-1.3-1.1zm11.1-1.9a1.4 1.4 0 011.2-1.6 1.3 1.3 0 011.6 1.1 1.4 1.4 0 01-1.1 1.6h-.3a1.6 1.6 0 01-1.4-1.1zm11.2-1.9a1.5 1.5 0 011.2-1.7 1.4 1.4 0 011.6 1.2 1.4 1.4 0 01-1.2 1.6h-.2a1.5 1.5 0 01-1.4-1.1zm11.2-2a1.5 1.5 0 011.2-1.6 1.4 1.4 0 011.6 1.2 1.4 1.4 0 01-1.2 1.6h-.2a1.4 1.4 0 01-1.4-1.2zm11.2-1.9a1.5 1.5 0 011.2-1.6 1.5 1.5 0 011.6 1.2 1.5 1.5 0 01-1.2 1.6h-.2a1.4 1.4 0 01-1.4-1.2zm11.2-1.9a1.5 1.5 0 011.1-1.6 1.5 1.5 0 011.7 1.2 1.5 1.5 0 01-1.2 1.6h-.2a1.4 1.4 0 01-1.4-1.2zm11.2-1.9a1.4 1.4 0 011.1-1.6 1.4 1.4 0 011.6 1.1 1.4 1.4 0 01-1.1 1.7h-.3a1.4 1.4 0 01-1.3-1.2zm11.2-1.9a1.3 1.3 0 011.1-1.6 1.4 1.4 0 011.6 1.1 1.4 1.4 0 01-1.1 1.7h-.3a1.4 1.4 0 01-1.3-1.2zm11.2-1.9a1.3 1.3 0 011.1-1.6 1.4 1.4 0 011.6 1.1 1.6 1.6 0 01-1.1 1.7h-.3a1.4 1.4 0 01-1.3-1.2zm11.1-1.9a1.4 1.4 0 011.2-1.6 1.4 1.4 0 011.6 1.1 1.6 1.6 0 01-1.1 1.7h-.3a1.5 1.5 0 01-1.4-1.2zM308 345.4a1.6 1.6 0 011.1-1.7 1.5 1.5 0 011.7 1.2 1.5 1.5 0 01-1.1 1.6h-.3a1.5 1.5 0 01-1.4-1.1zm11.2-2.2a1.4 1.4 0 011.1-1.7 1.4 1.4 0 011.7 1.1 1.4 1.4 0 01-1.2 1.6h-.2a1.2 1.2 0 01-1.4-1zm11.2-2.3a1.3 1.3 0 011.1-1.6 1.3 1.3 0 011.6 1.1 1.3 1.3 0 01-1.1 1.6h-.3a1.4 1.4 0 01-1.4-1zm11.2-2.2a1.4 1.4 0 011.1-1.7 1.4 1.4 0 011.6 1.1 1.4 1.4 0 01-1 1.7h-.4a1.5 1.5 0 01-1.5-1zm11.2-2.3a1.3 1.3 0 011.1-1.6 1.4 1.4 0 011.6 1.1 1.3 1.3 0 01-1 1.6h-.4a1.2 1.2 0 01-1.5-.9zm11.2-2.2a1.3 1.3 0 011-1.6h.1a1.3 1.3 0 011.6 1.1 1.5 1.5 0 01-1.1 1.6h-.6a1.4 1.4 0 01-1.3-.9zm11.1-2.2a1.6 1.6 0 011.1-1.7 1.6 1.6 0 011.7 1.1 1.6 1.6 0 01-1.1 1.7h-.6a1.4 1.4 0 01-1.3-.9zm11.2-2.3a1.4 1.4 0 011.1-1.6 1.4 1.4 0 011.7 1.1 1.4 1.4 0 01-1.1 1.6h-.6a1.3 1.3 0 01-1.4-.8zm11.2-2.2a1.4 1.4 0 011.1-1.6 1.4 1.4 0 011.7 1 1.6 1.6 0 01-1.1 1.7h-.6a1.4 1.4 0 01-1.5-.8zm11.2-2.3a1.4 1.4 0 011.1-1.6 1.6 1.6 0 011.7 1.1 1.4 1.4 0 01-1.2 1.6h-.2a1.4 1.4 0 01-1.8-.7zm11.2-2.2a1.3 1.3 0 011-1.6h.1a1.3 1.3 0 011.6 1 1.3 1.3 0 01-.2 1.9 1.2 1.2 0 01-1.4.1h-.3a1.4 1.4 0 01-1.3-1.1zm11.2-2.2a1.5 1.5 0 011.1-1.7 1.4 1.4 0 011.6 1.1 1.4 1.4 0 01-.3 2 1.7 1.7 0 01-1.4.1h-.3a1.5 1.5 0 01-1.3-1.1zm11.2-2.3a1.3 1.3 0 011.1-1.6 1.3 1.3 0 011.6 1.1 1.3 1.3 0 01-.5 1.9 1.6 1.6 0 01-1.2.2h-.3a1.4 1.4 0 01-1.3-1.1zm11.2-2.2a1.4 1.4 0 011.1-1.7 1.4 1.4 0 011.6 1.1 1.5 1.5 0 01-1.1 1.7h-.3a1.4 1.4 0 01-1.9-.4l-.1-.2zm11.2-2.2a1.4 1.4 0 011-1.7h.1a1.5 1.5 0 011.6 1.1 1.6 1.6 0 01-1.1 1.7h-.3a1.3 1.3 0 01-1.9-.4l-.1-.2zM692.3 296.7l-32.2-1.5-24.8 20.4-1.4 10.9-2.9 29.1 15.3-13.9h31.3l27.7-27.7 15.7-16.1zM660 336a33.1 33.1 0 01-4.4-17.1 29.3 29.3 0 015.5-17.1 33.3 33.3 0 015.1 17.4A26 26 0 01660 336zm-157.5-22.3c0-7.4 1.9-10.8 3.9-13.5 3.8 5.6 3.8 16.3 3.8 16.3l7.8-14.1-17.3-18.9-10.2 30.4 7.1 26.7 7.6-14.4a52.6 52.6 0 01-2.7-12.5z" opacity=".3"/><path fill="url(#B)" d="M43.6 64.8h50.5v738.7H47.8a4.2 4.2 0 01-4.2-4.2V64.8z"/><path fill="#fff" d="M60 767.7c-1.1 0-1.7 0-1.7 1.3v1.6c0 1.3.6 1.3 1.7 1.3h.9c1.1 0 1.7 0 1.7-1.3V769c0-1.2-.6-1.3-1.7-1.3zm8.5 0c-1.1 0-1.7 0-1.7 1.3v1.6c0 1.3.6 1.3 1.7 1.3h.8c1.1 0 1.7 0 1.7-1.3V769c0-1.2-.6-1.3-1.7-1.3zm8.4 0c-1.1 0-1.7 0-1.7 1.3v1.6c0 1.3.6 1.3 1.7 1.3h.9c1.1 0 1.7 0 1.7-1.3V769c0-1.2-.6-1.3-1.7-1.3zM60 776.1c-1.1 0-1.7 0-1.7 1.4v1.5c0 1.4.6 1.4 1.7 1.4h.9c1.1 0 1.7 0 1.7-1.4v-1.5c0-1.3-.6-1.4-1.7-1.4zm8.5 0c-1.1 0-1.7 0-1.7 1.4v1.5c0 1.4.6 1.4 1.7 1.4h.8c1.1 0 1.7 0 1.7-1.4v-1.5c0-1.3-.6-1.4-1.7-1.4zm8.4 0c-1.1 0-1.7 0-1.7 1.4v1.5c0 1.4.6 1.4 1.7 1.4h.9c1.1 0 1.7 0 1.7-1.4v-1.5c0-1.3-.6-1.4-1.7-1.4zM60 784.6c-1.1 0-1.7 0-1.7 1.3v1.6c0 1.3.6 1.3 1.7 1.3h.9c1.1 0 1.7 0 1.7-1.3v-1.6c0-1.3-.6-1.3-1.7-1.3zm8.5 0c-1.1 0-1.7 0-1.7 1.3v1.6c0 1.3.6 1.3 1.7 1.3h.8c1.1 0 1.7 0 1.7-1.3v-1.6c0-1.3-.6-1.3-1.7-1.3zm8.4 0c-1.1 0-1.7 0-1.7 1.3v1.6c0 1.3.6 1.3 1.7 1.3h.9c1.1 0 1.7 0 1.7-1.3v-1.6c0-1.3-.6-1.3-1.7-1.3z"/><path d="M85.3 185.8a21.2 21.2 0 00-.2-3.8 3.8 3.8 0 00-3.5-3.5 21.8 21.8 0 00-3.8-.2H59.9a20.6 20.6 0 00-3.8.2 4.8 4.8 0 00-2.5 1.1 4.5 4.5 0 00-1.1 2.4 37.9 37.9 0 00-.2 3.8v12.3a36.3 36.3 0 00.2 3.8 3.8 3.8 0 003.6 3.6l3.8.2h17.9l3.8-.2a4.5 4.5 0 002.4-1.1 4.8 4.8 0 001.1-2.5 20.6 20.6 0 00.2-3.8z" opacity=".1"/><path fill="url(#C)" d="M53 197.4c0 5.8.7 6.9 6.9 6.9h17.9c6.2 0 6.8-1.1 6.8-6.9v-12.3c0-5.7-.6-6.8-6.8-6.8H59.9c-6.2 0-6.9 1.1-6.9 6.8z"/><path fill="#fff" d="M53 191.3v6.1c0 6.8 1.3 6.9 8.3 6.9h15c7 0 8.3-.2 8.3-6.9v-6.1z" opacity=".1"/><path d="M67 183.6l-1.8 3.9-1.9 4.5-.8 1.9a11.4 11.4 0 01-.6 1.5l-1.2 3.2-.7 1.9h3.7l1.6-4.4 3.5-.2h3.5l1.6 4.4h3.7l-.7-1.9-1.2-3.2-.6-1.5-.7-1.9a73 73 0 01-1.8-4.1l-1.2-2.8-.2-.3a5.4 5.4 0 01-.5-1.1H67zm1.8 3.5h.1l1.5 3.6.5 1.5a8.9 8.9 0 01.6 1.5h-5.4l1.2-3z" opacity=".2"/><path fill="#fff9f2" d="M67 182.9l-1.8 3.9-1.9 4.5-.8 1.9a11.4 11.4 0 01-.6 1.5l-1.2 3.2-.7 1.9h3.7l1.6-4.4 3.5-.2 3.5.2 1.6 4.4h3.7l-.7-1.9-1.2-3.2-.6-1.5-.7-1.9a73 73 0 01-1.8-4.1l-1.9-4.3zm1.8 3.5h.1l1.5 3.6 1.1 3h-5.4l1.2-3z"/><path fill="#f34f17" d="M70.6 183l-1.8 3.4 1.6 3.7 1.1 3h-.9l.7 2.1h1l1.6 4.4h3.7l-.7-1.9-1.2-3.2-.6-1.5-.7-1.9a73 73 0 01-3.2-7.2z" opacity=".1"/><path d="M60.7 193.4h16.2a1.8 1.8 0 011.7 1.7 1.8 1.8 0 01-1.7 1.8H60.7a1.7 1.7 0 01-1.7-1.8 1.7 1.7 0 011.7-1.7z" opacity=".2"/><path fill="#fff" d="M60.7 192.7h16.2a1.8 1.8 0 011.7 1.7 1.8 1.8 0 01-1.7 1.8H60.7a1.7 1.7 0 01-1.7-1.8 1.7 1.7 0 011.7-1.7z"/><path fill="#f34f17" d="M61 194.1c-.3 0-.6.1-.6.3s.3.4.6.4h15.7c.3 0 .5-.2.5-.3 0-.2-.2-.3-.5-.3H61z" opacity=".2"/><path fill="none" stroke="#000" stroke-width=".7" d="M84.6 185.1c0-5.7-.6-6.8-6.8-6.8H59.9c-6.2 0-6.9 1.1-6.9 6.8v12.3c0 5.8.7 6.9 6.9 6.9h17.9c6.2 0 6.8-1.1 6.8-6.9z" opacity=".4"/><path fill="url(#D)" d="M84.2 185.5c0-6.2-.6-6.9-6.8-6.8H60.2c-6.2-.1-6.8.6-6.8 6.8v11.6c0 6.2.6 6.8 6.8 6.8h17.2c6.2 0 6.8-.6 6.8-6.8z"/><path fill="none" stroke="#fee8bc" stroke-linecap="round" stroke-width="1.4" d="M63.9 180.1s0-4.9 4.9-4.9 4.9 4.9 4.9 4.9"/><path d="M61.7 123.9a29.6 29.6 0 00-4.5.2 5 5 0 00-2.8 1 4.1 4.1 0 00-1.3 2.4 19 19 0 00-.3 3.7v17.5a19.4 19.4 0 00.3 3.8 3.8 3.8 0 001.3 2.3 5 5 0 002.8 1.1 29.6 29.6 0 004.5.2h14.5a29 29 0 004.5-.2 5.1 5.1 0 002.9-1.1 3.8 3.8 0 001.3-2.3 20.6 20.6 0 00.2-3.8v-17.5a20 20 0 00-.2-3.7 4.1 4.1 0 00-1.3-2.4 5 5 0 00-2.9-1 29 29 0 00-4.5-.2z" opacity=".1"/><path fill="url(#E)" d="M61.5 123.5c-7 0-8.3.6-8.3 6.8v17.9c0 6.2 1.3 6.9 8.3 6.9h15c7 0 8.3-.7 8.3-6.9v-17.9c0-6.2-1.3-6.8-8.3-6.8z"/><path fill="#fff" d="M77.7 123.5l-24.5 23.2v1.5c0 6.2 1.3 6.9 8.3 6.9h15c7 0 8.3-.7 8.3-6.9v-17.9c0-5.7-1.2-6.7-7.1-6.8z" opacity=".1"/><path d="M62 130.2c-1.4 0-2.3-.1-3.1.4a2.2 2.2 0 00-.9 1 4.4 4.4 0 00-.2 1.7v13.4a4.7 4.7 0 00.2 1.7 2.2 2.2 0 00.9 1 4 4 0 002 .4H76a7.1 7.1 0 003.1-.4 2.2 2.2 0 00.9-1 8.8 8.8 0 00.2-1.7v-11.3a7.9 7.9 0 00-.2-1.7l-.6-.8-.3-.2-.7-.3h-9.5l-2.1-2.1z" opacity=".3"/><path fill="#e3dfd5" d="M62 129.5c-1.4 0-2.3-.1-3.1.4a2.2 2.2 0 00-.9 1 4.4 4.4 0 00-.2 1.7v6h22.4v-3.9a7.9 7.9 0 00-.2-1.7 2.2 2.2 0 00-.9-1c-.8-.5-1.8-.4-3.1-.4h-7.1l-2.1-2.1z"/><path fill="#faf8f6" d="M76 131.6c1.3 0 2.3-.1 3.1.4a2.2 2.2 0 01.9 1 7.9 7.9 0 01.2 1.7v11.2a7.2 7.2 0 01-.2 1.7 2 2 0 01-.9 1.1 7.1 7.1 0 01-3.1.4H60.9a4 4 0 01-2-.4 2.2 2.2 0 01-.9-1 5 5 0 01-.2-1.8v-9.1a4.4 4.4 0 01.2-1.7 2.2 2.2 0 01.9-1c.8-.5 1.7-.4 3.1-.4h4.9l2.1-2.1z"/><path fill="#fff" d="M62 129.5c-1.4 0-2.3-.1-3.1.4a2.2 2.2 0 00-.9 1 4.4 4.4 0 00-.2 1.7v.7a4.4 4.4 0 01.2-1.7 2.2 2.2 0 01.9-1c.8-.5 1.7-.4 3.1-.4h4.8l1.8 1.8.4-.4h-.1l-2.1-2.1z" opacity=".4"/><path fill="#fdfdfd" d="M69 131.6l-2.1 2.1H62c-1.4 0-2.3-.1-3.1.4a2.2 2.2 0 00-.9 1 4.4 4.4 0 00-.2 1.7v.7a4.4 4.4 0 01.2-1.7 2.2 2.2 0 01.9-1c.8-.5 1.7-.4 3.1-.4h4.9l2.1-2.1h7c1.3 0 2.3-.1 3.1.4a2.2 2.2 0 01.9 1 7.9 7.9 0 01.2 1.7v-.7a7.9 7.9 0 00-.2-1.7 2.2 2.2 0 00-.9-1c-.8-.5-1.8-.4-3.1-.4z"/><path fill="none" stroke="#000" stroke-width=".7" d="M61.5 123.5c-7 0-8.3.6-8.3 6.8v17.9c0 6.2 1.3 6.9 8.3 6.9h15c7 0 8.3-.7 8.3-6.9v-17.9c0-6.2-1.3-6.8-8.3-6.8z" opacity=".4"/><path fill="url(#F)" d="M61.5 123.9c-3.5 0-5.5.2-6.6 1a3.3 3.3 0 00-1.1 1.8 17.3 17.3 0 00-.3 3.6v17.9a16.6 16.6 0 00.3 3.6 3.2 3.2 0 001.1 1.9c1.1.8 3.1 1 6.6 1h15c3.5 0 5.5-.2 6.5-1a3.2 3.2 0 001.1-1.9 16.6 16.6 0 00.3-3.6v-17.9a17.3 17.3 0 00-.3-3.6 3.3 3.3 0 00-1.1-1.8c-1-.8-3-1-6.5-1zm1.7.7h14.6a9.8 9.8 0 014.5.6 3 3 0 011.2 2.5 36.9 36.9 0 01.1 4.7v17.8c-.1 1.1-.3 2.4-1.3 2.9a7.7 7.7 0 01-3.7.7h-20a7.2 7.2 0 01-3.2-.8 3.9 3.9 0 01-1.1-2.9v-19c.1-1.6-.2-3.4.5-5a3.2 3.2 0 012.8-1.4c1.8-.2 3.7-.1 5.6-.2z"/><path fill="url(#b)" d="M83.4 84.3a9.2 9.2 0 00-3.2-4.1 16.6 16.6 0 011.6 4.9c-1.8-4.5-4.8-6.3-7.3-10.3l-.4-.6-.2-.3a1.4 1.4 0 01-.2-.6h-.1a12 12 0 00-5.5 8.9 8 8 0 00-4.4 1.7l-.4-.3a8.6 8.6 0 010-3.9 11 11 0 00-3.8 2.9h-.1c-.6-.8-.5-3.4-.5-4l-.5.3a10.7 10.7 0 00-1.6 1.4L55.3 82a14.3 14.3 0 00-2.1 4.9 3 3 0 00-.2 1l-.3 2.2a16 16 0 0031.7 2.7v-.6a15.5 15.5 0 00-1-7.9z"/><path fill="url(#c)" d="M83.4 84.3a9.2 9.2 0 00-3.2-4.1 16.6 16.6 0 011.6 4.9 13.7 13.7 0 01-.5 10.7 13.5 13.5 0 01-13.1 7.8 16 16 0 01-15.3-13 7.8 7.8 0 01.1-2.7 16.6 16.6 0 00-.3 2.2 16 16 0 0031.7 2.7v-.6a15.5 15.5 0 00-1-7.9z"/><path fill="url(#d)" d="M83.4 84.3a9.2 9.2 0 00-3.2-4.1 16.6 16.6 0 011.6 4.9 13.7 13.7 0 01-.5 10.7 13.5 13.5 0 01-13.1 7.8 16 16 0 01-15.3-13 7.8 7.8 0 01.1-2.7 16.6 16.6 0 00-.3 2.2 16 16 0 0031.7 2.7v-.6a15.5 15.5 0 00-1-7.9z"/><path fill="url(#e)" d="M75.7 86.1a.1.1 0 00.1.1 7 7 0 00-1.5-1.9 8.1 8.1 0 01-.7-11.1 12 12 0 00-5.5 8.9h.6a8.4 8.4 0 017 4z"/><path fill="url(#f)" d="M68.7 87.1a3.7 3.7 0 01-1.9 1.8c-4.5 0-5.3 2.7-5.3 2.7a6.6 6.6 0 003.8 5.2l.2.2h.5a5.2 5.2 0 002.1.4 6.5 6.5 0 003.7-12.3 5.4 5.4 0 013.9.9 8.4 8.4 0 00-7-4.1h-.6a8 8 0 00-4.4 1.7 4.4 4.4 0 011.1 1c1.1 1.3 3.9 2.4 3.9 2.5z"/><path fill="url(#g)" d="M68.7 87.1a3.7 3.7 0 01-1.9 1.8c-4.5 0-5.3 2.7-5.3 2.7a6.6 6.6 0 003.8 5.2l.2.2h.5a5.2 5.2 0 002.1.4 6.5 6.5 0 003.7-12.3 5.4 5.4 0 013.9.9 8.4 8.4 0 00-7-4.1h-.6a8 8 0 00-4.4 1.7 4.4 4.4 0 011.1 1c1.1 1.3 3.9 2.4 3.9 2.5z"/><path fill="url(#h)" d="M63 83.2l.3.3a8.6 8.6 0 010-3.9 11 11 0 00-3.8 2.9 8.8 8.8 0 013.5.7z"/><path fill="url(#i)" d="M52.9 90.6a16 16 0 0015.3 13 13.5 13.5 0 0013.1-7.8 13.7 13.7 0 00.5-10.7c.6 3.7-1.3 7.2-4.2 9.7-5.7 4.6-11.2 2.8-12.3 2h-.2c-3.4-1.6-4.8-4.6-4.5-7.2a3.9 3.9 0 01-3.7-2.4 5.7 5.7 0 015.8-.2 8.3 8.3 0 006 .2c0-.1-2.8-1.2-3.9-2.3l-1-1-.5-.3-.3-.3a8.8 8.8 0 00-3.5-.7c-.7-.8-.6-3.4-.6-4l-.5.3a10.7 10.7 0 00-1.6 1.4L55.3 82a14.3 14.3 0 00-2.1 4.9 11.4 11.4 0 00-.3 3.7z"/><path fill="url(#j)" d="M74.3 84.3a7 7 0 011.5 1.9l.2.2c3.6 3.3 1.7 8 1.6 8.4 2.9-2.5 4.8-6 4.2-9.7s-4.8-6.3-7.3-10.3l-.4-.6-.2-.3a1.4 1.4 0 01-.2-.6h-.1a8.1 8.1 0 00.7 11z"/><path fill="url(#k)" d="M76 86.4l-.2-.2a.1.1 0 01-.1-.1 5.4 5.4 0 00-3.9-.9 6.5 6.5 0 01-3.7 12.3 5.2 5.2 0 01-2.1-.4h-.5l-.2-.2c1.1.8 6.6 2.6 12.3-2 .1-.5 2-5.2-1.6-8.5z"/><path fill="url(#l)" d="M61.5 91.6s.8-2.7 5.3-2.7a3.7 3.7 0 001.9-1.8 8.3 8.3 0 01-6-.2 5.7 5.7 0 00-5.8.2 3.9 3.9 0 003.7 2.4c-.3 2.6 1.1 5.6 4.5 7.2h.2a6.6 6.6 0 01-3.8-5.1z"/><path fill="url(#m)" d="M83.4 84.3a9.2 9.2 0 00-3.2-4.1 16.6 16.6 0 011.6 4.9c-1.8-4.5-4.8-6.3-7.3-10.3l-.4-.6-.2-.3a1.4 1.4 0 01-.2-.6h-.1a12 12 0 00-5.5 8.9h.6a8.4 8.4 0 017 4.1 5.4 5.4 0 00-3.9-.9 6.5 6.5 0 01-3.7 12.3 5.2 5.2 0 01-2.1-.4h-.5l-.2-.2a6.6 6.6 0 01-3.8-5.2s.8-2.7 5.3-2.7a3.7 3.7 0 001.9-1.8c0-.1-2.8-1.2-3.9-2.3a4.4 4.4 0 00-1.1-1l-.4-.3a8.6 8.6 0 010-3.9 11 11 0 00-3.8 2.9h-.1c-.6-.8-.5-3.4-.5-4l-.5.3a10.7 10.7 0 00-1.6 1.4l-1.5 1.7a14.3 14.3 0 00-2.1 4.9 3 3 0 00-.2 1l-.3 2.2A16 16 0 0084.4 93v-.6a15.5 15.5 0 00-1-8.1z"/><path fill="#1d1d1d" d="M47.9 45.9H1249a4.3 4.3 0 014.3 4.3v14.6H43.6V50.2a4.3 4.3 0 014.3-4.3z"/><path fill="#fff" d="M57.9 59.6a3.6 3.6 0 01-.4-.9l-.3-1h-3.3l-.7 1.9h-1a10.2 10.2 0 01.8-2.1 10.7 10.7 0 01.7-1.9 8.7 8.7 0 01.7-1.7 11.1 11.1 0 01.7-1.6h.9l.8 1.6.7 1.7.7 1.9.8 2.1zm-1-2.7a13.4 13.4 0 00-.7-1.8 11.1 11.1 0 00-.7-1.6 11.1 11.1 0 01-.7 1.6l-.6 1.8zm5.2 2.8a2 2 0 01-1.1-.2 1.8 1.8 0 01-.9-.6 1.9 1.9 0 01-.5-.9 3.7 3.7 0 01-.1-1.1 4.9 4.9 0 01.1-1.2 4.7 4.7 0 01.6-.9l.8-.6 1.1-.2h.7l.7.2-.2.8-.5-.2h-.6a1.4 1.4 0 00-1.3.5 2.1 2.1 0 00-.4 1.5 2.2 2.2 0 00.1.8.9.9 0 00.3.6 1 1 0 00.5.4l.9.2h.7l.5-.2v.9h-1.4zm3.5-5.6h2v.9h-2v3.2l.2.4.3.2h1.2l.4-.2v.8l-.5.2h-1.6a1 1 0 01-.6-.5.8.8 0 01-.3-.7 2.2 2.2 0 01-.1-.9v-4.9l1-.2zm3.8-1h-.5a.7.7 0 010-1h.9a.7.7 0 010 1zm.5 6.5h-1v-5.5h1zm5.9-5.5a26.4 26.4 0 01-1 3l-1 2.5h-.9l-1.1-2.5a26.3 26.3 0 01-.9-3h1l.3 1.1.4 1.2a4.9 4.9 0 00.4 1.1 3 3 0 00.4 1l.3-1a4.9 4.9 0 00.4-1.1 5.6 5.6 0 00.4-1.2l.3-1.1zm1.5-1h-.4c-.2-.1-.2-.3-.2-.5s0-.4.2-.5h.9a1.3 1.3 0 010 1zm.5 6.5h-1v-5.5h1zm2.6-5.5h2.1v.9h-2.1v2.5a1.5 1.5 0 00.1.7l.1.4.4.2h1.1l.4-.2.2.8-.5.2h-1.8l-.6-.5a2.4 2.4 0 01-.3-.7 2.2 2.2 0 01-.1-.9v-4.9l1-.2zm3.8-1h-.5a1.3 1.3 0 010-1h.9c.2.1.2.3.2.5s0 .4-.2.5zm.5 6.5h-1v-5.5h1zm1.4-2.7a2.7 2.7 0 01.2-1.3 1.9 1.9 0 01.5-.9l.8-.5 1-.2a2.1 2.1 0 011.7.7 3.6 3.6 0 01.5 2.1v.2h-3.7a1.7 1.7 0 001.8 1.8h.9l.5-.2.2.8-.7.2h-1a2.2 2.2 0 01-1.2-.2 1.8 1.8 0 01-.9-.6 1.9 1.9 0 01-.5-.9 3.7 3.7 0 01-.1-1zm3.7-.6a1.5 1.5 0 00-.3-1 1.2 1.2 0 00-1-.5l-.5.2a.9.9 0 00-.5.3l-.3.5a4.3 4.3 0 01-.1.5zm3.7 2.6l.9-.2a.5.5 0 00.3-.5.5.5 0 00-.3-.5l-.9-.5-.6-.3-.5-.3a.8.8 0 01-.4-.4l-.1-.6a1.4 1.4 0 01.6-1.2 2 2 0 011.4-.4h1.5l-.2.9-.5-.2h-.8l-.7.2a.5.5 0 00-.3.5.4.4 0 00.1.3l.2.3.3.2.5.2.7.2.5.4.4.4a1.5 1.5 0 01.1.7 1.1 1.1 0 01-.6 1.1 2.4 2.4 0 01-1.6.4h-1.1l-.6-.2.2-.8.5.2zM122.8 50.3a4 4 0 00-2 .3 1.1 1.1 0 00-.6.7 3.1 3.1 0 00-.2 1.1V58a3.1 3.1 0 00.2 1.1 1.1 1.1 0 00.6.7 4 4 0 002 .3h5.7a4 4 0 002-.3 1.1 1.1 0 00.6-.7 3.1 3.1 0 00.2-1.1v-4.2a3.1 3.1 0 00-.2-1.1l-.1-.1a1.2 1.2 0 00-.5-.5 4 4 0 00-2-.3h-2.2l-1.4-1.4zm0 .7h1.8l1.3 1.2-.9.9h-2.2a4 4 0 00-2 .3h-.1v-1l.1-.9.3-.3a3.7 3.7 0 011.7-.2zm3.9 1.4h1.7a3.9 3.9 0 011.8.2c.1 0 .2.1.2.3a2 2 0 01.2.9V58a2 2 0 01-.2.9c0 .2-.1.3-.2.3a3.9 3.9 0 01-1.8.2h-5.6a3.7 3.7 0 01-1.7-.2l-.3-.3-.1-.9v-2.8l.1-.9.3-.3a3.7 3.7 0 011.7-.2h2.5zM136.2 59.6v-7.3h4.4v.9h-3.4v2.2h3v.8h-3v3.4zm6.1-6.5h-.5a.7.7 0 010-1h.9a.7.7 0 010 1zm.5 6.5h-1v-5.5h1zm3.3.1a1.7 1.7 0 01-1.3-.4 1.6 1.6 0 01-.4-1.1v-6.6l1-.2V58l.1.4a.4.4 0 00.1.3h.6zm.9-2.8a5.1 5.1 0 01.2-1.3 3.5 3.5 0 01.6-.9l.8-.5.9-.2a2.1 2.1 0 011.7.7 2.9 2.9 0 01.6 2.1v.2H148a2.2 2.2 0 00.5 1.3 2 2 0 001.4.5h.8l.6-.2v.8l-.6.2h-1a2.7 2.7 0 01-1.3-.2 1.6 1.6 0 01-.8-.6 1.9 1.9 0 01-.5-.9 3.6 3.6 0 01-.1-1zm3.8-.6a1.2 1.2 0 00-.4-1 1.1 1.1 0 00-.9-.5l-.6.2c-.2 0-.3.2-.4.3l-.3.5a1.1 1.1 0 00-.1.5zm3.7 2.6l.9-.2a.5.5 0 00.3-.5.5.5 0 00-.3-.5l-1-.5-.6-.3-.5-.3-.3-.4a1.3 1.3 0 01-.1-.6 1.3 1.3 0 01.5-1.2 2.2 2.2 0 011.5-.4h1.4v.9l-.5-.2h-.8l-.8.2a.5.5 0 00-.3.5l.1.3.2.3.4.2.5.2.7.2.5.4.3.4a1.5 1.5 0 01.1.7c0 .5-.1.9-.5 1.1a2.5 2.5 0 01-1.6.4h-1.2l-.5-.2.2-.8.5.2z"/><path fill="gray" d="M161.1 53.9h6.2l-3.1 4.1z"/><g fill="#fff"><path d="M623.2 53.4a2 2 0 01-.1.7 4.3 4.3 0 00-.4.7l-.6.6-.6.7-.4.4-.5.5-.3.5-.2.4h3.4v.9H619v-.2a2.9 2.9 0 01.2-.9l.4-.8.6-.7.7-.7.5-.5.4-.5.3-.5a4.3 4.3 0 00.1-.5 1.3 1.3 0 00-.1-.6l-.3-.3a.5.5 0 00-.4-.2h-1l-.5.2-.3.2-.2.2-.5-.7.3-.3.4-.3.6-.2h.7a2.4 2.4 0 011.8.6 2.1 2.1 0 01.5 1.3zm3.4 4.7a2.6 2.6 0 001.4-.4 1.8 1.8 0 00.4-1 1.4 1.4 0 00-.2-.7l-.4-.4-.7-.2h-1v-.8h1.4l.4-.4a1.4 1.4 0 00.2-.6.8.8 0 00-.2-.5.5.5 0 00-.2-.4l-.4-.2h-1.4l-.6.3-.3-.7.3-.2.4-.2h1.1l1 .2.7.4a.9.9 0 01.4.6 1.9 1.9 0 01.2.7 1.3 1.3 0 01-.4 1 1.2 1.2 0 01-.8.6l.6.3.5.4.3.5.1.7a2.9 2.9 0 01-.2.9 1.8 1.8 0 01-.5.7l-.8.5h-3.1l.2-.9.6.2zm11.8.7a6.9 6.9 0 00-.4-1l-.3-.9h-3.3l-.6 1.9h-1.1l.8-2.2.7-1.8.7-1.7.7-1.6h1l.7 1.6.7 1.7.7 1.8.8 2.2zm-1-2.7l-.6-1.8-.7-1.6a7.7 7.7 0 00-.7 1.6 13.4 13.4 0 00-.7 1.8zm7.8 0a3.7 3.7 0 01-.1 1.1 1.9 1.9 0 01-.5.9 1.6 1.6 0 01-.8.6l-1 .2h-.9l-.5-.3v2.2h-1v-7.3l.9-.2h1.2l1.1.2a1.5 1.5 0 01.9.6 1.9 1.9 0 01.5.9 2.2 2.2 0 01.2 1.1zm-1 0a1.7 1.7 0 00-.5-1.5 1.3 1.3 0 00-1.2-.5h-1.1v3.4l.5.3h1.5l.5-.4a1.4 1.4 0 00.2-.7 1.7 1.7 0 00.1-.6zm4.4-2.9h.9l.2.1v.8h-2v4.6h-1v-5.2l.9-.2zm4.2 1.9a5.5 5.5 0 01.6-2.8 2.4 2.4 0 011.8-1 2.1 2.1 0 011.8 1 4.7 4.7 0 01.7 2.8 4.5 4.5 0 01-.7 2.8 1.9 1.9 0 01-1.8 1 2.1 2.1 0 01-1.8-1 5.3 5.3 0 01-.6-2.8zm3.8 0V54c-.1-.4-.1-.7-.3-.9a1.6 1.6 0 00-.4-.7l-.7-.2-.6.2a1.8 1.8 0 00-.5.7 2 2 0 00-.2.9 4.1 4.1 0 00-.1 1.1 4.9 4.9 0 00.1 1.2 2.9 2.9 0 00.2.9 1 1 0 00.5.6.7.7 0 00.6.3.9.9 0 00.7-.3.9.9 0 00.4-.6 3.2 3.2 0 00.3-.9zm2.6-2.1l1.1-.6a3.1 3.1 0 001.1-.9h.7v7.3h-1v-6l-.3.3-.4.2-.5.3h-.4zm6.9 1c0 .2 0 .4-.2.5l-.5.2-.5-.2a.8.8 0 01-.2-.5l.2-.5.5-.2.5.2a.6.6 0 01.2.5zm0 4.2c0 .2 0 .4-.2.5l-.5.2-.5-.2a.8.8 0 01-.2-.5l.2-.5.5-.2.5.2a.6.6 0 01.2.5zm1.6-5.2l1.2-.6a4.1 4.1 0 001-.9h.7v7.3h-1v-6l-.3.3a.5.5 0 01-.4.2l-.4.3h-.5zm6.7 5.8a5.7 5.7 0 01.3-1.8 6.4 6.4 0 01.6-1.8 7.7 7.7 0 01.7-1.6l.8-1.3h-3.5v-.8h4.6v.8a5.2 5.2 0 00-.7 1.1 8 8 0 00-.8 1.6 9.6 9.6 0 00-.7 1.8 6.9 6.9 0 00-.3 2zM1189.3 52.8l.2.2-5.4 7-5.2-6.8v-.4a9.2 9.2 0 015.2-1.7 8.7 8.7 0 015.2 1.7zM1203.6 59.9l-2.4-2.6h-1.8a3.5 3.5 0 010-4.2h1.8l2.4-2.6zm1.8-6.8l-.5.5.3.2a2 2 0 01.6 1.5 2.2 2.2 0 01-.6 1.5l-.3.2.5.5.3-.2a3.2 3.2 0 00.8-2 2.8 2.8 0 00-.8-2zm1.5-1.5l-.5.5.3.2a4.4 4.4 0 010 6l-.3.2.5.5.3-.2a5.2 5.2 0 001.4-3.5 5 5 0 00-1.4-3.5zM1222.9 58.8v-4.9h4.2v4.9zm-1.4-.5v-6.1a4.5 4.5 0 01.1-1.3.7.7 0 01.5-.4h1.5v-.7h2.8v.7h1.4a.7.7 0 01.5.4 2.4 2.4 0 01.2 1.3v6.1a3 3 0 01-.2 1.4 1 1 0 01-.5.4h-5.7a1 1 0 01-.5-.4 5.7 5.7 0 01-.1-1.4zm.7 0a2.8 2.8 0 00.1 1.1h.1l.5.1h4.8a10.4 10.4 0 00.1-1.1v-6.2a5.8 5.8 0 00-.1-1h-5.3a.1.1 0 00-.1.1l-.1 1v6.1zM1236.4 53.8h6.3l-3.1 4.1zM695 530.2v-7.3h4.4v.9h-3.3v2.2h3v.8h-3v3.4zm6.1-6.5c-.2 0-.3 0-.4-.2l-.2-.4c0-.2 0-.4.2-.5a.5.5 0 01.4-.2l.5.2a.7.7 0 01.1.5l-.1.4a.6.6 0 01-.5.2zm.5 6.5h-1v-5.5h1zm3.7-5.6h1.1l-.2.9h-1.9v4.6h-1v-5.3l.9-.2zm1.7 2.8a2.4 2.4 0 01.3-1.2 1.9 1.9 0 01.5-.9 2.4 2.4 0 01.8-.6h.9a1.9 1.9 0 011.7.7 2.9 2.9 0 01.6 2.1v.2h-3.7a1.7 1.7 0 00.5 1.3 1.7 1.7 0 001.3.4h1.4v.8l-.6.2h-1l-1.2-.2-.9-.6a4.1 4.1 0 01-.5-.9 4.3 4.3 0 01-.1-1.3zm3.8-.5a2 2 0 00-.3-1.1 1.3 1.3 0 00-1-.4h-.6l-.4.4-.3.5a4.3 4.3 0 00-.1.5zm4.6-4.9h1.1v.8h-1a1.2 1.2 0 00-.9.3 1.7 1.7 0 00-.3 1v.5h2.1v.8h-2.1v4.7h-1v-6a2.5 2.5 0 01.5-1.6 2.2 2.2 0 011.6-.5zm6.7 5.4a2.2 2.2 0 01-.2 1.2 1.9 1.9 0 01-.5.9 1.6 1.6 0 01-.8.6l-1 .2-1.1-.2a1.6 1.6 0 01-.8-.6 1.9 1.9 0 01-.5-.9 3.7 3.7 0 01-.2-1.2 3.6 3.6 0 01.2-1.1 1.9 1.9 0 01.5-.9 1.6 1.6 0 01.8-.6 2 2 0 011.1-.2 1.8 1.8 0 011 .2 1.6 1.6 0 01.8.6 1.9 1.9 0 01.5.9 2 2 0 01.2 1.1zm-1 0a2 2 0 00-.4-1.4 1.4 1.4 0 00-1.1-.6 1.4 1.4 0 00-1.2.6 2 2 0 00-.4 1.4 2.2 2.2 0 00.4 1.5 1.3 1.3 0 001.2.5 1.3 1.3 0 001.1-.5 2.2 2.2 0 00.4-1.5zm5.5 2.8l-.3-.5a2.1 2.1 0 00-.4-.6 2.1 2.1 0 00-.4-.6l-.4-.6-.4.6-.4.6a2.1 2.1 0 01-.4.6l-.2.5h-1.1l.9-1.5 1-1.4-1.8-2.6h1.1l1.3 1.9 1.4-1.9h1l-1.8 2.5 1.1 1.5.9 1.5z"/></g><path fill="url(#G)" d="M725.8 495.1a9.2 9.2 0 00-3.2-4.1 21.6 21.6 0 011.6 4.9c-1.8-4.5-4.9-6.3-7.4-10.2l-.3-.6-.2-.4-.3-.6a11.4 11.4 0 00-5.5 8.8 8 8 0 00-4.4 1.7l-.4-.3a7.4 7.4 0 01-.1-3.9 13.3 13.3 0 00-3.8 2.9c-.6-.8-.6-3.4-.6-3.9l-.5.2a10 10 0 00-1.5 1.4 6.5 6.5 0 00-1.5 1.8 12.3 12.3 0 00-2.2 4.8l-.1 1h-.1a16.4 16.4 0 00-.2 2.2 15.9 15.9 0 0031.6 2.7l.1-.6a16.7 16.7 0 00-1-7.8zm-18.4 12.4l.2.2z"/><path fill="url(#H)" d="M725.8 495.1a9.2 9.2 0 00-3.2-4.1 21.6 21.6 0 011.6 4.9 14.9 14.9 0 01-.5 10.8 13.7 13.7 0 01-13.2 7.7 16.1 16.1 0 01-15.3-13 8 8 0 01.1-2.7 16.4 16.4 0 00-.2 2.2 15.9 15.9 0 0031.6 2.7l.1-.6a16.7 16.7 0 00-1-7.9z"/><path fill="url(#I)" d="M725.8 495.1a9.2 9.2 0 00-3.2-4.1 21.6 21.6 0 011.6 4.9 14.9 14.9 0 01-.5 10.8 13.7 13.7 0 01-13.2 7.7 16.1 16.1 0 01-15.3-13 8 8 0 01.1-2.7 16.4 16.4 0 00-.2 2.2 15.9 15.9 0 0031.6 2.7l.1-.6a16.7 16.7 0 00-1-7.9z"/><path fill="url(#J)" d="M718 496.9h.1a9 9 0 00-1.5-1.9c-4.9-5-1.3-10.7-.6-11a11.4 11.4 0 00-5.5 8.8h.5a8 8 0 017 4.1z"/><path fill="url(#K)" d="M711 497.9a3.7 3.7 0 01-1.9 1.8c-4.5 0-5.2 2.7-5.2 2.7a7.1 7.1 0 003.7 5.3h.3l.5.2 2 .4a6.6 6.6 0 003.8-12.4 5.7 5.7 0 013.8.9 8 8 0 00-7-4h-.5a8 8 0 00-4.4 1.7l1.1 1c1.1 1.2 3.8 2.3 3.8 2.4z"/><path fill="url(#L)" d="M711 497.9a3.7 3.7 0 01-1.9 1.8c-4.5 0-5.2 2.7-5.2 2.7a7.1 7.1 0 003.7 5.3h.3l.5.2 2 .4a6.6 6.6 0 003.8-12.4 5.7 5.7 0 013.8.9 8 8 0 00-7-4h-.5a8 8 0 00-4.4 1.7l1.1 1c1.1 1.2 3.8 2.3 3.8 2.4z"/><path fill="url(#M)" d="M705.4 494.1l.3.2a7.4 7.4 0 01-.1-3.9 13.3 13.3 0 00-3.8 2.9 7.9 7.9 0 013.6.8z"/><path fill="url(#N)" d="M695.2 501.4a16.1 16.1 0 0015.3 13 13.7 13.7 0 0013.2-7.7 14.9 14.9 0 00.5-10.8 10.8 10.8 0 01-4.3 9.7c-5.7 4.7-11.2 2.8-12.3 2.1l-.2-.2a7.2 7.2 0 01-4.4-7.2 4.2 4.2 0 01-3.8-2.4 6.5 6.5 0 015.9-.2 7.8 7.8 0 006 .2 18.4 18.4 0 01-3.9-2.3l-1.1-1-.4-.3-.3-.2a7.4 7.4 0 00-3.6-.7c-.6-.8-.6-3.5-.5-4l-.6.2a10 10 0 00-1.5 1.4 6.5 6.5 0 00-1.5 1.8 12.3 12.3 0 00-2.2 4.8 15.1 15.1 0 00-.3 3.8z"/><path fill="url(#O)" d="M716.6 495.1a9 9 0 011.5 1.9l.3.2c3.6 3.3 1.7 8.1 1.5 8.4a10.8 10.8 0 004.3-9.7c-1.8-4.5-4.9-6.3-7.4-10.2l-.3-.6-.2-.4-.3-.6c-.7.3-4.3 6 .6 11z"/><path fill="url(#P)" d="M718.4 497.2l-.3-.2a.1.1 0 01-.1-.1 5.7 5.7 0 00-3.8-.9 6.6 6.6 0 01-3.8 12.4l-2-.4-.5-.2h-.3c1.1.7 6.6 2.6 12.3-2.1.2-.4 2.1-5.2-1.5-8.5z"/><path fill="url(#Q)" d="M703.9 502.4s.7-2.7 5.2-2.7a3.7 3.7 0 001.9-1.8 7.6 7.6 0 01-5.9-.2 6.2 6.2 0 00-5.9.2 4.2 4.2 0 003.8 2.4 7.2 7.2 0 004.4 7.2l.2.2a7.1 7.1 0 01-3.7-5.3z"/><path fill="url(#R)" d="M725.8 495.1a9.2 9.2 0 00-3.2-4.1 21.6 21.6 0 011.6 4.9c-1.8-4.5-4.9-6.3-7.4-10.2l-.3-.6-.2-.4-.3-.6a11.4 11.4 0 00-5.5 8.8h.5a8 8 0 017 4 5.7 5.7 0 00-3.8-.9 6.6 6.6 0 01-3.8 12.4l-2-.4-.5-.2h-.3l-.2-.2.2.2a7.1 7.1 0 01-3.7-5.3s.7-2.7 5.2-2.7a3.7 3.7 0 001.9-1.8c0-.1-2.7-1.2-3.8-2.3l-1.1-1-.4-.3a7.4 7.4 0 01-.1-3.9 13.3 13.3 0 00-3.8 2.9c-.6-.8-.6-3.4-.6-3.9l-.5.2a10 10 0 00-1.5 1.4 6.5 6.5 0 00-1.5 1.8 12.3 12.3 0 00-2.2 4.8l-.2 1a16.4 16.4 0 00-.2 2.2 15.9 15.9 0 0031.6 2.7l.1-.6a16.7 16.7 0 00-1-7.9z"/><path fill="#fff" d="M578.3 529.3v.9h-4.4v-7.3h1v6.4zm1.5-5.6a.6.6 0 01-.5-.2l-.1-.4a.7.7 0 01.1-.5l.5-.2a.5.5 0 01.4.2c.2.1.2.3.2.5s0 .3-.2.4l-.4.2zm.5 6.5h-1v-5.5h1zm1.7-5.3l.9-.2h1.2a1.8 1.8 0 011.1.2 1.8 1.8 0 01.7.5 2 2 0 01.4.8 3.1 3.1 0 01.1 1v3.1h-1v-2.9a2.8 2.8 0 00-.1-.9.8.8 0 00-.2-.5c-.1-.2-.2-.3-.4-.3l-.7-.2h-1.1v4.6h-.9zm10.4 5.1l-.9.2h-1.3l-1.1-.2a1.8 1.8 0 01-.7-.5 1.9 1.9 0 01-.3-.8 3.6 3.6 0 01-.2-1v-3.1h1v2.9a2.6 2.6 0 00.3 1.4 1.2 1.2 0 001.1.4h1.1v-4.6h1zm4.9.2l-.3-.5-.3-.6a2.1 2.1 0 01-.4-.6l-.5-.6a2.1 2.1 0 01-.4.6 2.1 2.1 0 01-.4.6l-.3.6-.3.5h-1a10.9 10.9 0 01.8-1.5l1.1-1.4-1.8-2.6h1.1l1.3 1.9 1.3-1.9h1l-1.7 2.5 1 1.5.9 1.5z"/><path d="M575.8 485.1c-2 0-3.5-.1-4.7.7a4 4 0 00-1.1 1.9 10.2 10.2 0 00-.3 3.2v17.5a28.2 28.2 0 00.1 3.2 4.1 4.1 0 001 2.1 4.4 4.4 0 002.1.7h25.8a4 4 0 002-.7 3 3 0 001-2.1 14.2 14.2 0 00.2-3.2v-14.8a29.1 29.1 0 00-.1-3.1 4.4 4.4 0 00-.7-2.1 3 3 0 00-2.1-1 14.7 14.7 0 00-3.2-.2h-11.2l-2.1-2.1z" opacity=".1"/><path fill="url(#S)" d="M575.8 484.4c-2 0-3.5-.1-4.7.7a4 4 0 00-1.1 1.9 10.2 10.2 0 00-.3 3.2v6.1h32.2v-3.4a29.1 29.1 0 00-.1-3.1 4.4 4.4 0 00-.7-2.1 3 3 0 00-2.1-1 14.7 14.7 0 00-3.2-.2h-11.2l-2.1-2.1z"/><path fill="#fff" d="M585 489.3l-2.1 2.1h-7.1c-4.8 0-5.4 0-5.4 5.4v.7c0-5.4.6-5.4 5.4-5.4h7.1l2.1-2.1h10.8c4.7 0 5.4 0 5.4 5.4v-.7c0-5.4-.7-5.4-5.4-5.4z" opacity=".3"/><path fill="url(#T)" d="M595.8 489.3c2 0 3.5-.1 4.7.7a3.9 3.9 0 011.1 2 13 13 0 01.3 3.1v12.6a14.2 14.2 0 01-.2 3.2 3.4 3.4 0 01-.9 2.1 4.8 4.8 0 01-2.1.7h-25.8a4 4 0 01-2-.7 3 3 0 01-1-2.1 14.2 14.2 0 01-.2-3.2v-13a3.9 3.9 0 01.8-2.1 3 3 0 012-1 8.5 8.5 0 013.3-.2h6.9l2.1-2.1z"/><path fill="#fff" d="M601.9 504.7l-8.4 8.4h3.2c4.7 0 5.2-.5 5.2-5.1z" opacity=".1"/><path d="M569.7 507v.7a28.2 28.2 0 00.1 3.2 4.1 4.1 0 001 2.1 4.4 4.4 0 002.1.7h25.8a4 4 0 002-.7 3 3 0 001-2.1 14.2 14.2 0 00.2-3.2v-.7a14.2 14.2 0 01-.2 3.2 3 3 0 01-1 2.1 4 4 0 01-2 .7h-25.8a3.6 3.6 0 01-2.1-.8 3.4 3.4 0 01-1-2 28.2 28.2 0 01-.1-3.2z" opacity=".2"/><path fill="#fff" d="M584.8 489.3l-2.1 2.1h-6.9a8.5 8.5 0 00-3.3.2 3 3 0 00-2 1 3.9 3.9 0 00-.8 2.1v1.6-.9a3.9 3.9 0 01.8-2.1 3 3 0 012-1 8.5 8.5 0 013.3-.2h6.9l2.1-2.1h11c2 0 3.5-.1 4.7.7a3.9 3.9 0 011.1 2 13 13 0 01.3 3.1v-.7a13 13 0 00-.3-3.1 3.9 3.9 0 00-1.1-2c-1.2-.8-2.7-.7-4.7-.7z" opacity=".2"/><path fill="#732206" d="M584.8 488.6l-2.1 2.1h-6.9a8.5 8.5 0 00-3.3.2 3 3 0 00-2 1 3.9 3.9 0 00-.8 2.1v1.6-.9a3.9 3.9 0 01.8-2.1 3 3 0 012-1 8.5 8.5 0 013.3-.2h6.9l2.1-2.1h11c2 0 3.5-.1 4.7.7a3.9 3.9 0 011.1 2 13 13 0 01.3 3.1v-.7a13 13 0 00-.3-3.1 3.9 3.9 0 00-1.1-2c-1.2-.8-2.7-.7-4.7-.7z" opacity=".1"/><path fill="#fff" d="M575.8 484.4c-2 0-3.5-.1-4.7.7a4 4 0 00-1.1 1.9 10.2 10.2 0 00-.3 3.2v.7a10.2 10.2 0 01.3-3.2 4 4 0 011.1-1.9c1.2-.8 2.7-.7 4.7-.7h6.7l2.1 2.1h11.2a14.7 14.7 0 013.2.2 3 3 0 012.1 1 4.4 4.4 0 01.7 2.1 6.1 6.1 0 01.1 1.4 13.4 13.4 0 00-.1-2.1 4.4 4.4 0 00-.7-2.1 3 3 0 00-2.1-1 14.7 14.7 0 00-3.2-.2h-11.2l-2.1-2.1zm26.1 10v.6z" opacity=".2"/><path fill="none" d="M580.1 496.3h11.2v11.2h-11.2z"/><path fill="#fff" d="M590 499.8v-1.4h-1.5zM581.5 501.2v5.6h6.3v-.7h-5.6v-5.4zm7.8-.7v6.3h.7v-5.6z"/><path fill="#fff" d="M585.7 502.6h1.6l.3.3a.5.5 0 01.2.4v3h-2.1z"/><path fill="#fff" fill-rule="evenodd" d="M585.7 496.5l-5.5 5.5.5.5 5-5 5.1 5 .5-.5z"/></svg>