<svg xmlns="http://www.w3.org/2000/svg" xmlns:xlink="http://www.w3.org/1999/xlink" viewBox="0 0 1000 572.17"><defs><linearGradient id="d" x1="928.02" x2="630.31" y1="360.76" y2="264.03" gradientUnits="userSpaceOnUse"><stop offset="0" stop-color="#88aec5"/><stop offset=".25" stop-color="#88aec5"/><stop offset=".83" stop-color="#698799"/><stop offset="1" stop-color="#4c6278"/></linearGradient><linearGradient id="e" x1="665.3" x2="156.07" y1="287.67" y2="287.67" gradientUnits="userSpaceOnUse"><stop offset="0" stop-color="#b37f2c"/><stop offset=".7" stop-color="#c99036"/></linearGradient><linearGradient id="f" x1="475.79" x2="163.85" y1="350.11" y2="123.16" gradientUnits="userSpaceOnUse"><stop offset="0" stop-color="#cfcbc0"/><stop offset="1" stop-color="#d9ceca"/></linearGradient><linearGradient id="g" x1="132.68" x2="394.85" y1="21.58" y2="152.66" gradientUnits="userSpaceOnUse"><stop offset="0" stop-color="#ff9d60"/><stop offset="1" stop-color="#f6673d"/></linearGradient><linearGradient id="h" x1="500" x2="500" y1="572.17" y2="554.53" gradientUnits="userSpaceOnUse"><stop offset="0" stop-color="#7c7c7c"/><stop offset=".31" stop-color="#b7b7b7"/><stop offset=".62" stop-color="#d1d1d1"/><stop offset=".87" stop-color="#888"/></linearGradient><linearGradient id="i" x2="1000" y1="554.53" y2="554.53" gradientUnits="userSpaceOnUse"><stop offset="0" stop-color="#bebebe"/><stop offset=".01" stop-color="#5d5d5d"/><stop offset=".03" stop-color="#cbcbcb"/><stop offset=".26" stop-color="#b6b6b6"/><stop offset=".5" stop-color="#b6b6b6"/><stop offset=".81" stop-color="#b6b6b6"/><stop offset=".97" stop-color="#ccc"/><stop offset=".99" stop-color="#4d4d4d"/><stop offset="1" stop-color="#bdbdbd"/></linearGradient><linearGradient id="j" x1="415.92" x2="584.84" y1="555.63" y2="555.63" gradientUnits="userSpaceOnUse"><stop offset="0" stop-color="#b5b5b5"/><stop offset=".03" stop-color="#4f4f4f"/><stop offset=".05" stop-color="#c6c6c6"/><stop offset=".49" stop-color="#b4b4b4"/><stop offset=".93" stop-color="#c3c3c3"/><stop offset=".98" stop-color="#4a4a4a"/><stop offset="1" stop-color="#b7b7b7"/></linearGradient><linearGradient id="k" x1="422.42" x2="422.42" y1="512.24" y2="492.38" gradientUnits="userSpaceOnUse"><stop offset="0" stop-color="#2276e6"/><stop offset="1" stop-color="#2bcdfc"/></linearGradient><linearGradient id="a" x1="448.14" x2="448.14" y1="512.24" y2="492.38" gradientUnits="userSpaceOnUse"><stop offset="0" stop-color="#d1d1d1"/><stop offset="1" stop-color="#fff"/></linearGradient><linearGradient id="m" x1="473.85" x2="473.85" y1="512.24" y2="492.38" xlink:href="#a"/><linearGradient id="n" x1="473.85" x2="473.85" y1="497.36" y2="492.38" gradientUnits="userSpaceOnUse"><stop offset="0" stop-color="#f5c945"/><stop offset="1" stop-color="#f9de73"/></linearGradient><linearGradient id="o" x1="473.85" x2="473.85" y1="498.15" y2="497.36" gradientUnits="userSpaceOnUse"><stop offset=".37" stop-color="#f1f1f1"/><stop offset="1" stop-color="#a3a2a2"/></linearGradient><linearGradient id="p" x1="499.57" x2="499.57" y1="512.39" y2="492.64" gradientUnits="userSpaceOnUse"><stop offset="0" stop-color="#262626"/><stop offset="1" stop-color="#d6e6ed"/></linearGradient><linearGradient id="q" x1="521.28" x2="528.99" y1="105.26" y2="94.44" gradientTransform="matrix(1 0 0 -1 0 602.96)" gradientUnits="userSpaceOnUse"><stop offset="0" stop-color="#fc5c57"/><stop offset=".61" stop-color="#865ef6"/><stop offset="1" stop-color="#40aafa"/></linearGradient><linearGradient id="r" x1="554.14" x2="564.33" y1="502.29" y2="502.29" gradientUnits="userSpaceOnUse"><stop offset="0" stop-color="#585858"/><stop offset="1" stop-color="#2c2c2c"/></linearGradient><linearGradient id="s" x1="557.63" x2="557.63" y1="508.62" y2="506.58" gradientUnits="userSpaceOnUse"><stop offset="0" stop-color="#727272"/><stop offset=".05" stop-color="#7d7d7d"/><stop offset=".17" stop-color="#979797"/><stop offset=".31" stop-color="#ababab"/><stop offset=".46" stop-color="#b8b8b8"/><stop offset=".66" stop-color="#c1c1c1"/><stop offset="1" stop-color="#c3c3c3"/></linearGradient><linearGradient id="b" x1="562.25" x2="562.25" y1="508.62" y2="506.58" gradientUnits="userSpaceOnUse"><stop offset="0" stop-color="#a15823"/><stop offset="1" stop-color="#fd9a40"/></linearGradient><linearGradient id="t" x1="562.25" x2="562.25" y1="505.58" y2="503.54" xlink:href="#b"/><linearGradient id="u" x1="562.25" x2="562.25" y1="502.54" y2="500.5" xlink:href="#b"/><linearGradient id="c" x1="557.68" x2="557.68" y1="505.58" y2="503.54" gradientUnits="userSpaceOnUse"><stop offset="0" stop-color="#727272"/><stop offset="1" stop-color="#c3c3c3"/></linearGradient><linearGradient id="v" x1="557.68" x2="557.68" y1="502.54" y2="500.5" xlink:href="#c"/><linearGradient id="w" x1="584.95" x2="584.95" y1="512.47" y2="492.61" gradientUnits="userSpaceOnUse"><stop offset="0" stop-color="#1e65dd"/><stop offset="1" stop-color="#29b9ee"/></linearGradient><radialGradient id="l" cx="590.14" cy="238.76" r="8.54" gradientTransform="matrix(1.08 0 0 -1.08 -188.79 758.78)" gradientUnits="userSpaceOnUse"><stop offset="0" stop-color="#06c2e7"/><stop offset=".25" stop-color="#0db8ec"/><stop offset=".5" stop-color="#12aef1"/><stop offset=".75" stop-color="#1f86f9"/><stop offset="1" stop-color="#107ddd"/></radialGradient></defs><g style="isolation:isolate"><rect width="814.74" height="563.57" x="93.76" y="1" rx="21.96"/><path fill="#939598" d="M886.54 2a21 21 0 0121 21v519.61a21 21 0 01-21 21H115.72a21 21 0 01-21-21V23a21 21 0 0121-21h770.82m0-2H115.72a23 23 0 00-23 23v519.61a23 23 0 0023 23h770.82a23 23 0 0023-23V23a23 23 0 00-23-23z"/><path fill="url(#d)" d="M744.82 23.68L515.49 551.66h375.17V23.68H744.82z"/><path fill="url(#e)" d="M667.66 23.68L139.88 551.66h375.61L744.82 23.68h-77.16z"/><path fill="url(#f)" d="M490.2 23.68L112.26 188.02v363.64h27.62L667.66 23.68H490.2z"/><path fill="url(#g)" d="M112.26 23.68v164.34L490.2 23.68H112.26z"/><path fill="#1b1b1b" d="M94.76 542.61a20.91 20.91 0 002.07 9h808.59a20.78 20.78 0 002.08-9v-9.34H94.76z"/><path fill="#bcbcbc" d="M475.09 547.29H474v-7.17l-3 7.1h-1l-3-7.1v7.17h-1.08V538h1.35l3.21 7.76h.05l3.21-7.76h1.34zm1.34-2c0-1.19.92-1.89 2.6-2l2-.11v-.58c0-.87-.57-1.34-1.59-1.34a1.43 1.43 0 00-1.54 1.07h-1.08a2.39 2.39 0 012.63-2.07c1.64 0 2.7.87 2.7 2.24v4.77H481v-1.21a2.45 2.45 0 01-2.23 1.27 2.08 2.08 0 01-2.34-2.02zm4.55-.66v-.56l-1.82.11c-1 .07-1.58.45-1.58 1.12s.56 1.06 1.43 1.06a1.8 1.8 0 001.99-1.71zm7.24-2a1.67 1.67 0 00-1.8-1.32c-1.21 0-2 1-2 2.54s.84 2.53 2.05 2.53a1.65 1.65 0 001.8-1.28h1.11a2.73 2.73 0 01-2.92 2.28c-1.9 0-3.18-1.35-3.18-3.53s1.27-3.54 3.17-3.54a2.74 2.74 0 012.91 2.32zm2.33 4.69V538h3.64a2.38 2.38 0 012.67 2.32 2.08 2.08 0 01-1.61 2 2.23 2.23 0 012.08 2.29c0 1.64-1.18 2.61-3.15 2.61zm1.16-5.29h1.85c1.38 0 2.12-.55 2.12-1.55s-.63-1.43-1.76-1.43h-2.21zm2.29 4.26c1.4 0 2.13-.56 2.13-1.64s-.76-1.62-2.24-1.62h-2.18v3.26zm4.15-2.44c0-2.16 1.25-3.54 3.2-3.54s3.2 1.38 3.2 3.54-1.25 3.53-3.2 3.53-3.2-1.38-3.2-3.56zm5.26 0c0-1.6-.76-2.54-2.06-2.54s-2.06.94-2.06 2.54.77 2.53 2.06 2.53 2.06-.97 2.06-2.56zm2 0c0-2.16 1.25-3.54 3.2-3.54s3.2 1.38 3.2 3.54-1.25 3.53-3.2 3.53-3.22-1.38-3.22-3.56zm5.26 0c0-1.6-.77-2.54-2.06-2.54s-2.06.94-2.06 2.54.77 2.53 2.06 2.53 2.04-.97 2.04-2.56zm6.61-3.48h1.37l-3 3 3.13 3.95h-1.31l-2.6-3.26-.66.62v2.64H513v-9.71h1.12v5.87zm10.72 4.26h-3.69l-.94 2.66h-1.22l3.43-9.3h1.15l3.42 9.3h-1.21zm-3.35-1h3l-1.49-4.24zm6.34-5.13a.71.71 0 01.71-.71.71.71 0 010 1.42.71.71 0 01-.7-.7zm.14 1.83h1.12v6.95h-1.15zm2.71 0h1.05v1.13a1.68 1.68 0 011.68-1.19 2.34 2.34 0 01.46 0v1.1a2.26 2.26 0 00-.61-.07 1.48 1.48 0 00-1.49 1.64v4.3h-1.12z"/><path d="M94.84 521.29h812.58v11.98H94.84zM907.42 23a20.78 20.78 0 00-2.08-9H96.91a20.91 20.91 0 00-2.07 9v9.3h812.58z"/><path fill="url(#h)" d="M0 557.41s22.66 9.37 63.47 13.18c11.77 1.16 16.2 1.58 52.9 1.58h779s88.26-2.79 104.62-14.76c0-3.21-3.72-2.87-3.72-2.87H1.4a3.88 3.88 0 00-1.4 2.87z"/><path fill="url(#i)" d="M0 551.66h1000v5.74H0z"/><path fill="url(#j)" d="M415.92 551.66v5.74a21.09 21.09 0 014.75.47c2 .6 3.77 1.32 5.08 1.53.7.11 3.22.2 3.22.2H571.8s2.52-.09 3.22-.2c1.31-.21 3.05-.93 5.07-1.53a21.14 21.14 0 014.75-.47v-5.74z"/><path fill="#8a8a8a" d="M1000 551.66H0v5.74s22.66 9.37 63.47 13.18c11.77 1.16 16.2 1.58 52.9 1.58h779s88.26-2.79 104.62-14.76z" style="mix-blend-mode:overlay"/><path fill="#fafafa" fill-opacity=".8" d="M112.26 32.3h778.4v13.38h-778.4z" opacity=".5"/><path fill-opacity=".75" d="M865.73 36H867v1.21h-1.22zm2.43 0h8.52v1.21h-8.52zm-2.43 2.43H867v1.17h-1.22zm2.43 0h6.69v1.17h-6.69zm-2.43 2.43H867V42h-1.22zm2.43 0h8.52V42h-8.52z"/><path fill="none" stroke="#000" stroke-width=".91" d="M847.49 38.07a3.35 3.35 0 113.34 3.35 3.34 3.34 0 01-3.34-3.35zm8.21 4.87l-2.5-2.5"/><path d="M799.54 36.59h1l2 4.93 2-4.93h1v6h-.79v-2.31l.07-2.55-2 4.91h-.61l-2-4.89.08 2.53v2.36h-.8zm7 3.81v-.06a2.68 2.68 0 01.25-1.18 1.9 1.9 0 011.78-1.1 1.91 1.91 0 011.49.63 2.43 2.43 0 01.57 1.69 2.7 2.7 0 01-.26 1.19 1.92 1.92 0 01-.71.81 2 2 0 01-1.07.29 1.88 1.88 0 01-1.49-.64 2.4 2.4 0 01-.59-1.63zm.77 0a1.91 1.91 0 00.35 1.21 1.18 1.18 0 001.86 0 2.13 2.13 0 00.34-1.29 1.86 1.86 0 00-.36-1.19 1.16 1.16 0 00-1.84 0 2 2 0 00-.38 1.3zm4.16 1.8a.52.52 0 01.11-.33.45.45 0 01.36-.13.43.43 0 01.48.46.44.44 0 01-.12.32.48.48 0 01-.36.13.45.45 0 01-.36-.13.48.48 0 01-.14-.29zm7.75-3.18v1a3.47 3.47 0 01-.46 2 1.62 1.62 0 01-1.44.66 1.66 1.66 0 01-1.44-.64 3.43 3.43 0 01-.48-1.92v-1a3.48 3.48 0 01.46-2 1.68 1.68 0 011.45-.65 1.66 1.66 0 011.44.63 3.28 3.28 0 01.44 1.95zm-.76 1.21V39a2.85 2.85 0 00-.28-1.43 1.06 1.06 0 00-1.73 0 2.67 2.67 0 00-.27 1.36v1.23a3.05 3.05 0 00.27 1.46 1 1 0 00.87.46.92.92 0 00.84-.44 2.68 2.68 0 00.27-1.38zM823 40a1.71 1.71 0 01-.58.45 1.49 1.49 0 01-.73.18 1.61 1.61 0 01-.91-.25 1.73 1.73 0 01-.6-.73 2.69 2.69 0 010-2.13 1.68 1.68 0 01.65-.74 1.93 1.93 0 011-.26 1.69 1.69 0 011.41.67 3 3 0 01.51 1.84v.21a4 4 0 01-.69 2.59 2.69 2.69 0 01-2.11.83h-.15V42h.2a1.82 1.82 0 002-2zm-1.19 0a1.2 1.2 0 00.72-.24 1.37 1.37 0 00.48-.59v-.3a2.14 2.14 0 00-.33-1.24 1 1 0 00-1.65-.08 1.64 1.64 0 00-.3 1 1.66 1.66 0 00.29 1 1 1 0 00.77.45zm2.94 2.25a.47.47 0 01.11-.33.56.56 0 01.72 0 .48.48 0 01.12.33.44.44 0 01-.12.32.56.56 0 01-.72 0 .43.43 0 01-.13-.34zm0-3.67a.48.48 0 01.12-.33.42.42 0 01.35-.13.45.45 0 01.36.13.49.49 0 01.13.33.44.44 0 01-.13.32.45.45 0 01-.36.13.42.42 0 01-.35-.13.44.44 0 01-.14-.34zm5.1-2v4h.84v.63h-.84v1.41h-.77v-1.39h-2.75v-.45l2.7-4.19zM829 37.8l-1.79 2.8h1.88v-3zm4.78-1.25v6.09H833v-5.13l-1.55.57v-.7l2.2-.83z"/><path fill="none" stroke="#000" stroke-linecap="round" stroke-width=".61" d="M789 35.64a4.69 4.69 0 010 6.36m-2-.91a3 3 0 000-4.26"/><path d="M781.2 37.16h1.8l2.43-1.82v7.3L783 40.81h-1.8a.61.61 0 01-.61-.61v-2.43a.62.62 0 01.61-.61z"/><path fill="none" stroke="#000" stroke-linecap="square" stroke-width=".73" d="M762.23 37.1a8.52 8.52 0 0111.76 0m-1.7 1.74a6.08 6.08 0 00-8.32 0m6.59 1.73a3.66 3.66 0 00-4.85 0"/><path d="M768.13 43.24l1.2-.93a1.53 1.53 0 00-1.2-.59 1.5 1.5 0 00-1.22.62zM747.45 40.2a.91.91 0 000-1.82.91.91 0 100 1.82zm2.43 0a.91.91 0 10-.91-.91.91.91 0 00.91.91zm2.44 0a.91.91 0 10-.92-.91.91.91 0 00.92.91z"/><path fill="none" stroke="#000" stroke-width=".61" d="M750.8 40.2l1.52 1.22-2.44 2.13v-3m.92-2.13l1.52-1.22-2.44-2.2v3m-2.73-1.21l1.85 1.59m-1.82 3.34L749 40.2" opacity=".5" style="isolation:isolate"/><path fill="#474747" fill-rule="evenodd" d="M130.42 35a2.1 2.1 0 00.54-1.53 2.06 2.06 0 00-1.47.74 1.93 1.93 0 00-.49 1.5 1.68 1.68 0 001.42-.71zm.49.83a12.29 12.29 0 00-1.86.44c-.39 0-1-.47-1.59-.44a2.41 2.41 0 00-2 1.23 3.27 3.27 0 00-.42 1.75 6.15 6.15 0 001 3.17c.41.59.88 1.22 1.55 1.22s.82-.4 1.6-.4 1 .4 1.59.4 1.1-.6 1.49-1.2a5 5 0 00.69-1.39 2.19 2.19 0 01-1.33-1.95 2.21 2.21 0 011.08-1.87 2.16 2.16 0 00-1.8-.92z"/><path fill="#484848" d="M178.57 39.23v.84h-2.44v2.57h-1v-6h3.85v.84h-2.8v1.8zm2-1.09v4.5h-1v-4.5zM179.52 37a.5.5 0 01.15-.38.63.63 0 01.84 0 .51.51 0 01.16.38.53.53 0 01-.16.38.66.66 0 01-.84 0 .52.52 0 01-.15-.38zm3.1-.72v6.39h-1v-6.42zm2.94 6.47a2.11 2.11 0 01-1.56-.6 2.22 2.22 0 01-.6-1.62v-.12a2.71 2.71 0 01.26-1.2 2 2 0 01.73-.83 1.91 1.91 0 011.05-.29 1.78 1.78 0 011.42.58 2.49 2.49 0 01.5 1.66v.41h-2.94a1.39 1.39 0 00.37.88 1.16 1.16 0 00.83.32 1.37 1.37 0 001.13-.56l.54.52a1.83 1.83 0 01-.72.63 2.23 2.23 0 01-1.01.19zm-.12-3.85a.84.84 0 00-.68.29 1.5 1.5 0 00-.32.81h1.92v-.08a1.23 1.23 0 00-.26-.76.83.83 0 00-.66-.29zm15.49.23v.84h-2.48v1.83h2.9v.84h-4v-6h3.93v.84h-2.87v1.62zm.77 1.26a2.67 2.67 0 01.48-1.67 1.57 1.57 0 011.3-.63 1.44 1.44 0 011.15.5v-2.34h1v6.39h-.91l-.06-.47a1.47 1.47 0 01-1.21.55 1.52 1.52 0 01-1.27-.64 2.73 2.73 0 01-.48-1.72zm1 .08a1.9 1.9 0 00.26 1.07.86.86 0 00.76.38.94.94 0 00.9-.55v-1.94a.92.92 0 00-.9-.55.86.86 0 00-.75.39 2.06 2.06 0 00-.26 1.17zm4.91-2.3v4.5h-1v-4.5zM206.55 37a.5.5 0 01.15-.38.54.54 0 01.42-.16.51.51 0 01.42.16.48.48 0 01.16.38.49.49 0 01-.16.38.54.54 0 01-.42.15.57.57 0 01-.42-.15.52.52 0 01-.15-.38zm2.28.08h1v1.09h.8v.74h-.8v2.49a.53.53 0 00.11.37.46.46 0 00.36.11 1.34 1.34 0 00.35 0v.78a2.25 2.25 0 01-.66.1q-1.17 0-1.17-1.29v-2.59h-.73v-.74h.73zm12.44-.46l1.53 4.73 1.53-4.73h1.16l-2.18 6h-1l-2.17-6zm5.73 1.52v4.5h-1v-4.5zM225.93 37a.54.54 0 01.14-.38.66.66 0 01.86 0 .54.54 0 01.14.38.56.56 0 01-.14.38.69.69 0 01-.86 0 .56.56 0 01-.14-.38zm4 5.75a2.11 2.11 0 01-1.56-.6 2.22 2.22 0 01-.6-1.62v-.12a2.71 2.71 0 01.26-1.2 2 2 0 01.73-.83 1.91 1.91 0 011-.29 1.78 1.78 0 011.42.58 2.49 2.49 0 01.5 1.66v.41h-2.88a1.35 1.35 0 00.38.88 1.12 1.12 0 00.82.32 1.35 1.35 0 001.13-.56l.54.52a1.83 1.83 0 01-.72.63 2.23 2.23 0 01-1.01.19zm-.13-3.85a.82.82 0 00-.66.29 1.43 1.43 0 00-.33.81h1.92v-.08a1.17 1.17 0 00-.27-.76.8.8 0 00-.65-.29zm5.59-.73l.93 3.1.71-3.1h1l-1.22 4.5H236l-1-3.09-.95 3.09h-.83L232 38.14h1l.73 3.07.93-3.07zm16.16-1.55l1.14 4.55.93-4.55h1.05l-1.4 6h-1l-1.15-4.43-1.12 4.45h-1l-1.4-6h1.05l.93 4.54 1.16-4.54zm4.72 1.55v4.5h-1v-4.5zM255.21 37a.5.5 0 01.15-.38.63.63 0 01.84 0 .5.5 0 01.15.38.52.52 0 01-.15.38.66.66 0 01-.84 0 .52.52 0 01-.15-.38zm2 1.17h1v.52a1.62 1.62 0 011.31-.6c.94 0 1.42.53 1.43 1.6v3h-1v-2.97a.93.93 0 00-.18-.63.79.79 0 00-.61-.21 1 1 0 00-.91.56v3.2h-1zm4.42 2.22a2.67 2.67 0 01.48-1.67 1.54 1.54 0 011.29-.63 1.44 1.44 0 011.16.5v-2.34h1v6.39h-.91l-.05-.47a1.5 1.5 0 01-1.21.55 1.55 1.55 0 01-1.29-.64 2.79 2.79 0 01-.46-1.72zm1 .08a1.82 1.82 0 00.26 1.07.85.85 0 00.75.38 1 1 0 00.91-.55v-1.94a.94.94 0 00-.9-.55.87.87 0 00-.76.39 2.16 2.16 0 00-.24 1.17zm3.65 0v-.06a2.69 2.69 0 01.26-1.18 1.91 1.91 0 01.74-.82 2.08 2.08 0 011.09-.28 2 2 0 011.47.58 2.3 2.3 0 01.62 1.56v.23a2.67 2.67 0 01-.26 1.19 1.94 1.94 0 01-.73.82 2.07 2.07 0 01-1.1.28 2 2 0 01-1.52-.63 2.45 2.45 0 01-.55-1.76zm1 0a1.81 1.81 0 00.29 1.09 1 1 0 001.59 0 2 2 0 00.29-1.17 1.72 1.72 0 00-.3-1.07 1 1 0 00-1.58 0 2 2 0 00-.26 1.11zm6.9-2.29l.93 3.1.72-3.1h1l-1.22 4.5h-.84l-1-3.09-.95 3.09H272l-1.23-4.5h1l.73 3.07.93-3.07zm17.37-1.55v6h-1.05V40h-2.71v2.69h-1.05v-6h1.05v2.41h2.71v-2.51zm3 6.13a2.09 2.09 0 01-1.56-.6 2.22 2.22 0 01-.6-1.62v-.12a2.71 2.71 0 01.26-1.2 2 2 0 01.73-.83 1.91 1.91 0 011.05-.29 1.78 1.78 0 011.42.58 2.49 2.49 0 01.5 1.66v.41h-2.94a1.34 1.34 0 00.37.88 1.15 1.15 0 00.83.32 1.35 1.35 0 001.13-.56l.54.52a1.8 1.8 0 01-.73.63 2.19 2.19 0 01-.99.18zm-.13-3.85a.84.84 0 00-.67.29 1.43 1.43 0 00-.32.81h1.92v-.08a1.17 1.17 0 00-.27-.76.83.83 0 00-.65-.3zm3.65-2.62v6.39h-1v-6.43zm4.93 4.08v.06a2.67 2.67 0 01-.48 1.67 1.65 1.65 0 01-2.46.13v2.13h-1v-6.22h.94v.46a1.48 1.48 0 011.21-.54 1.52 1.52 0 011.29.61 2.75 2.75 0 01.5 1.7zm-1 0a1.85 1.85 0 00-.27-1.06.88.88 0 00-.76-.4 1 1 0 00-.9.51v2a1 1 0 00.9.52.88.88 0 00.76-.39 2.08 2.08 0 00.27-1.21zm-152.86-3.94a.54.54 0 00-.42.16.5.5 0 00-.15.38.52.52 0 00.15.38.57.57 0 00.42.15.61.61 0 00.43-.15.52.52 0 00.15-.38.5.5 0 00-.15-.38.57.57 0 00-.43-.16zm-.5 6.21h1v-4.5h-1zm-4.5 0h1.05v-2.57h2.44v-.84h-2.44v-1.8H148v-.84h-3.84zM158 38.56a1.42 1.42 0 00-1.15-.5 1.57 1.57 0 00-1.3.63 2.67 2.67 0 00-.48 1.67 2.73 2.73 0 00.49 1.72 1.53 1.53 0 001.28.64 1.48 1.48 0 001.21-.55l.05.47h.9v-6.39h-1zm0 2.78a.94.94 0 01-.9.55.86.86 0 01-.76-.38 1.9 1.9 0 01-.26-1.07 2.06 2.06 0 01.27-1.17.86.86 0 01.75-.39.93.93 0 01.9.54zm-5-3.28a1.62 1.62 0 00-1.31.6v-.52h-1v4.5h1v-3.2a1 1 0 01.91-.56.75.75 0 01.6.21.88.88 0 01.19.63v2.92h1v-3c-.02-1.05-.49-1.58-1.39-1.58zm8.82 0a1.88 1.88 0 00-1 .29 2 2 0 00-.74.83 2.71 2.71 0 00-.25 1.2v.12a2.21 2.21 0 00.59 1.62 2.11 2.11 0 001.56.6 2.23 2.23 0 001-.22 1.83 1.83 0 00.72-.63l-.54-.52a1.35 1.35 0 01-1.13.56 1.16 1.16 0 01-.83-.32 1.39 1.39 0 01-.37-.88h3v-.41a2.44 2.44 0 00-.51-1.66 1.75 1.75 0 00-1.54-.58zm.93 1.91h-1.93a1.59 1.59 0 01.32-.81.86.86 0 01.68-.29.8.8 0 01.65.26 1.23 1.23 0 01.28.76zm3.85-1.81a1 1 0 00-.5.14 2 2 0 00-.5.59v-.63h-1.08v4.4h1.05V41.3a7.36 7.36 0 01.09-1.47 1.06 1.06 0 01.39-.49.63.63 0 01.41-.13 1 1 0 01.55.19l.36-1a1.43 1.43 0 00-.81-.24z"/><rect width="192.97" height="29.02" x="406.56" y="488.7" fill="#fafafa" fill-opacity=".8" opacity=".5" rx="7.34"/><path d="M422.42 516.68a1 1 0 10-1-1 1 1 0 001 1zM499.71 516.68a1 1 0 10-1-1 1 1 0 001 1z"/><path fill="#565b75" d="M543 491.61h.51v23.19H543z"/><rect width="19.86" height="19.86" x="412.49" y="492.38" fill="url(#k)" rx="4.65"/><path fill="#dce0eb" d="M427.7 492.38h-4.92a21.85 21.85 0 00-1.86 6.55 31.42 31.42 0 00-.44 5h3.13s.08 3.09.18 4.39c.08 1 .45 3 .61 3.93h3.3a4.65 4.65 0 004.65-4.65V497a4.65 4.65 0 00-4.65-4.62z"/><path fill="none" stroke="#000" stroke-linecap="round" stroke-opacity=".8" stroke-width=".84" d="M418.08 497.82v1.31M426.66 497.82v1.31"/><path fill="none" stroke="#000" stroke-linecap="round" stroke-opacity=".8" stroke-width=".7" d="M416.79 504.6s1.63 2.27 5.57 2.27a7.18 7.18 0 005.68-2.32"/><rect width="19.86" height="19.86" x="438.2" y="492.38" fill="url(#a)" rx="4.65"/><path fill="url(#l)" d="M456.63 502.31a8.49 8.49 0 01-8.49 8.49 8.5 8.5 0 01-8.5-8.49 8.5 8.5 0 018.5-8.49 8.49 8.49 0 018.49 8.49z"/><path fill="none" stroke="#fff" stroke-linecap="round" stroke-miterlimit="2.68" stroke-width=".25" d="M448.14 494.49v1.33m0 14.32v-1.33m.78-14.29l-.06.57m-1.51 15l.06-.57m8.75-7.22h-1.37m-14.68 0h1.36m14.65.77l-.58-.06m-15.39-1.48l.58.06m13.08-4.82l-1 .94m-10.38 10.13l1-.94m10.91-9.56l-.45.36m-12 9.57l.46-.36m11.42.93l-1-.94m-10.38-10.13l1 .94m9.79 10.64l-.36-.44m-9.81-11.66l.37.44m7.79-1.62l-.53 1.23m-5.61 13.24l.52-1.24m6.33-12.9l-.28.5m-7.28 13.31l.27-.51m10.92-3.4l-1.26-.51m-13.56-5.48l1.26.51m13.26 6.18l-.51-.27m-13.64-7.11l.52.27m14 .43l-1.26.51m-13.56 5.48l1.26-.51m13.79-4.8l-.56.17m-14.79 4.37l.56-.16m10.19 5.13l-.53-1.24m-5.61-13.23l.52 1.23m4.88 13.49l-.17-.54m-4.49-14.44l.17.55m3.72-.73l-.26 1.3m-2.87 14.1l.27-1.3m3.63-13.87l-.17.55m-4.49 14.43l.17-.54m10-5.42l-1.33-.26m-14.4-2.79l1.34.26m14.2 3.54l-.56-.17M440.46 500l.56.17m13.79-2.17l-1.14.73m-12.2 8l1.13-.74m12.61-7.3l-.51.27M441.06 506l.52-.27m11 3.08l-.75-1.1m-8.16-11.92l.76 1.11m7.48 12.31l-.28-.51m-7.28-13.3l.27.5m8-.11l-.75 1.11m-8.16 11.91l.76-1.1m8.78-11.46l-.36.44m-9.81 11.66l.37-.44m11.39-1.26l-1.14-.74M441.47 498l1.13.73m11.74 8.58l-.45-.36m-12-9.57l.46.36m13.65 3.05l-1.33.26m-14.4 2.79l1.34-.26m14.51-2l-.58.05m-15.39 1.48l.58-.05m9 7l-.26-1.3m-2.87-14.05l.27 1.3m2.08 14.16l-.05-.56m-1.52-15l.06.56"/><path d="M453.94 497.36l-6.78 3.94-4.28 6.7 6.27-4.64z" opacity=".41" style="isolation:isolate"/><path fill="#ff5150" d="M449.11 503.33l-1.95-2 6.89-4.64z"/><path fill="#f1f1f1" d="M449.11 503.33l-1.95-2-4.94 6.67z"/><path d="M442.22 508l6.89-4.63 4.94-6.67z" opacity=".24" style="isolation:isolate"/><rect width="19.86" height="19.86" x="463.92" y="492.38" fill="url(#m)" rx="4.53"/><path fill="url(#n)" d="M468.45 492.38h10.81a4.53 4.53 0 014.53 4.53v.45h-19.87v-.45a4.53 4.53 0 014.53-4.53z"/><path fill="url(#o)" d="M463.92 497.36h19.86v.79h-19.86z"/><path fill="#c7c7cc" d="M464.16 498.42h19.32"/><path fill="none" stroke="#d1d3d4" stroke-linecap="round" stroke-linejoin="round" stroke-width=".4" d="M464.16 498.42h0"/><path fill="none" stroke="#d1d3d4" stroke-dasharray="0 .84" stroke-linecap="round" stroke-linejoin="round" stroke-width=".4" d="M465 498.42h18.06"/><path fill="none" stroke="#d1d3d4" stroke-linecap="round" stroke-linejoin="round" stroke-width=".4" d="M483.48 498.42h0"/><path fill="none" stroke="#bcbec0" stroke-miterlimit="10" stroke-width=".22" d="M463.92 502.31h19.86m-19.86 5h19.86"/><rect width="15.74" height="15.73" x="491.7" y="494.65" fill="#262626" rx="2.66"/><path fill="url(#p)" d="M504.78 494.65a2.67 2.67 0 012.66 2.66v10.41a2.67 2.67 0 01-2.66 2.66h-10.42a2.66 2.66 0 01-2.66-2.66v-10.41a2.66 2.66 0 012.66-2.66h10.42m0-2h-10.42a4.68 4.68 0 00-4.67 4.67v10.41a4.68 4.68 0 004.67 4.67h10.42a4.67 4.67 0 004.66-4.67v-10.42a4.67 4.67 0 00-4.66-4.67z"/><path d="M504.78 494.65a2.67 2.67 0 012.66 2.66v10.41a2.67 2.67 0 01-2.66 2.66h-10.42a2.66 2.66 0 01-2.66-2.66v-10.41a2.66 2.66 0 012.66-2.66h10.42m0-1.44h-10.42a4.1 4.1 0 00-4.09 4.1v10.41a4.09 4.09 0 004.09 4.09h10.42a4.09 4.09 0 004.09-4.09v-10.41a4.1 4.1 0 00-4.09-4.1z"/><path fill="#fff" fill-rule="evenodd" d="M499.29 500.3v-.56h-2.79v.56zm-3.4-2.2v-.69l-2.62-1.25v.84l1.7.78-1.7.79v.82z"/><path fill="#fff" d="M520 492.61h10.59a4.65 4.65 0 014.65 4.65v10.59a4.62 4.62 0 01-4.62 4.62H520a4.62 4.62 0 01-4.62-4.62v-10.62a4.62 4.62 0 014.62-4.62z"/><path fill="url(#q)" d="M522.73 497.26l6.33-1.26a.49.49 0 01.58.48l.05 9.5a1.81 1.81 0 01-1.56 1.71c-1.56.32-1.92-.39-2.06-.84a1.59 1.59 0 01.21-1.51 2.14 2.14 0 011.33-.69c.28-.07 1-.08 1.17-.34a1.75 1.75 0 00.15-.8v-3.79a.48.48 0 00-.58-.47l-4.82.94a.5.5 0 00-.4.48v6a3.61 3.61 0 01-.25 1.35 1.4 1.4 0 01-.79.84 3 3 0 01-1.77.14 1.53 1.53 0 01-.43-2.54 3.53 3.53 0 011.6-.6c.4-.06.73 0 .84-.54s0-6 0-7.6a.48.48 0 01.4-.46z"/><rect width="19.86" height="19.86" x="549.26" y="492.38" fill="#dbdbdb" rx="4.65"/><rect width="10.19" height="14.82" x="554.14" y="494.88" fill="url(#r)" rx="1.32"/><path fill="url(#s)" d="M555.14 507.6a1 1 0 011-1h2.94a1 1 0 010 2h-2.94a1 1 0 01-1-1z"/><rect width="8.13" height="3.44" x="555.14" y="496.06" fill="#6f6f6f" rx=".67"/><circle cx="562.25" cy="507.6" r="1.02" fill="url(#b)"/><circle cx="562.25" cy="504.56" r="1.02" fill="url(#t)"/><circle cx="562.25" cy="501.52" r="1.02" fill="url(#u)"/><path fill="url(#c)" d="M560.21 504.56a1 1 0 11-2 0 1 1 0 012 0zm-4.05-1a1 1 0 101 1 1 1 0 00-1-1.02z"/><path fill="url(#v)" d="M557.19 501.52a1 1 0 11-1-1 1 1 0 011 1zm2-1a1 1 0 101 1 1 1 0 00-1-1.02z"/><rect width="19.86" height="19.86" x="575.02" y="492.61" fill="url(#w)" rx="4.65"/><path fill="#f2f2f2" d="M588.94 504.21h2.35a.91.91 0 01.92.92.9.9 0 01-.9.89H590l.89 1.54a.91.91 0 11-1.57.91l-3.32-5.82a2.5 2.5 0 01.32-3.07l2.67 4.63zm-7.51 2.79l-.79 1.36s-.54.92-1.34.47a1 1 0 01-.39-1.11l.72-1.24a1.75 1.75 0 011.8.52zm3.5-9.7l-.4-.7a.9.9 0 00-1.24-.33.89.89 0 00-.33 1.24l.92 1.6-3 5.14h-2.3a.92.92 0 00-.93.92.91.91 0 00.91.89h8.26a1.25 1.25 0 00-1-1.81H583l3.9-6.74a.91.91 0 00-1.58-.91z"/><circle cx="500" cy="285.68" r="9.48" fill="#fff"/></g></svg>