<svg xmlns="http://www.w3.org/2000/svg" xmlns:xlink="http://www.w3.org/1999/xlink" viewBox="0 0 1000 572.2"><defs><linearGradient id="d" x1="928" x2="630.3" y1="360.8" y2="264" gradientUnits="userSpaceOnUse"><stop offset="0" stop-color="#88aec5"/><stop offset=".3" stop-color="#88aec5"/><stop offset=".8" stop-color="#698799"/><stop offset="1" stop-color="#4c6278"/></linearGradient><linearGradient id="e" x1="665.3" x2="156.1" y1="287.7" y2="287.7" gradientUnits="userSpaceOnUse"><stop offset="0" stop-color="#b37f2c"/><stop offset=".7" stop-color="#c99036"/></linearGradient><linearGradient id="f" x1="475.8" x2="163.8" y1="350.1" y2="123.2" gradientUnits="userSpaceOnUse"><stop offset="0" stop-color="#cfcbc0"/><stop offset="1" stop-color="#d9ceca"/></linearGradient><linearGradient id="g" x1="132.7" x2="394.9" y1="21.6" y2="152.7" gradientUnits="userSpaceOnUse"><stop offset="0" stop-color="#ff9d60"/><stop offset="1" stop-color="#f6673d"/></linearGradient><linearGradient id="h" x1="500" x2="500" y1="572.2" y2="554.5" gradientUnits="userSpaceOnUse"><stop offset="0" stop-color="#7c7c7c"/><stop offset=".3" stop-color="#b7b7b7"/><stop offset=".6" stop-color="#d1d1d1"/><stop offset=".9" stop-color="#888"/></linearGradient><linearGradient id="i" x2="1000" y1="554.5" y2="554.5" gradientUnits="userSpaceOnUse"><stop offset="0" stop-color="#bebebe"/><stop offset="0" stop-color="#5d5d5d"/><stop offset="0" stop-color="#cbcbcb"/><stop offset=".3" stop-color="#b6b6b6"/><stop offset=".5" stop-color="#b6b6b6"/><stop offset=".8" stop-color="#b6b6b6"/><stop offset="1" stop-color="#ccc"/><stop offset="1" stop-color="#4d4d4d"/><stop offset="1" stop-color="#bdbdbd"/></linearGradient><linearGradient id="j" x1="415.9" x2="584.8" y1="555.6" y2="555.6" gradientUnits="userSpaceOnUse"><stop offset="0" stop-color="#b5b5b5"/><stop offset="0" stop-color="#4f4f4f"/><stop offset=".1" stop-color="#c6c6c6"/><stop offset=".5" stop-color="#b4b4b4"/><stop offset=".9" stop-color="#c3c3c3"/><stop offset="1" stop-color="#4a4a4a"/><stop offset="1" stop-color="#b7b7b7"/></linearGradient><linearGradient id="k" x1="422.4" x2="422.4" y1="512.2" y2="492.4" gradientUnits="userSpaceOnUse"><stop offset="0" stop-color="#2276e6"/><stop offset="1" stop-color="#2bcdfc"/></linearGradient><linearGradient id="a" x1="448.1" x2="448.1" y1="512.2" y2="492.4" gradientUnits="userSpaceOnUse"><stop offset="0" stop-color="#d1d1d1"/><stop offset="1" stop-color="#fff"/></linearGradient><linearGradient id="m" x1="473.9" x2="473.9" y1="512.2" y2="492.4" xlink:href="#a"/><linearGradient id="n" x1="473.9" x2="473.9" y1="497.4" y2="492.4" gradientUnits="userSpaceOnUse"><stop offset="0" stop-color="#f5c945"/><stop offset="1" stop-color="#f9de73"/></linearGradient><linearGradient id="o" x1="473.9" x2="473.9" y1="498.1" y2="497.4" gradientUnits="userSpaceOnUse"><stop offset=".4" stop-color="#f1f1f1"/><stop offset="1" stop-color="#a3a2a2"/></linearGradient><linearGradient id="p" x1="499.6" x2="499.6" y1="512.4" y2="492.6" gradientUnits="userSpaceOnUse"><stop offset="0" stop-color="#262626"/><stop offset="1" stop-color="#d6e6ed"/></linearGradient><linearGradient id="q" x1="521.3" x2="529" y1="105.3" y2="94.4" gradientTransform="matrix(1 0 0 -1 0 603)" gradientUnits="userSpaceOnUse"><stop offset="0" stop-color="#fc5c57"/><stop offset=".6" stop-color="#865ef6"/><stop offset="1" stop-color="#40aafa"/></linearGradient><linearGradient id="r" x1="554.1" x2="564.3" y1="502.3" y2="502.3" gradientUnits="userSpaceOnUse"><stop offset="0" stop-color="#585858"/><stop offset="1" stop-color="#2c2c2c"/></linearGradient><linearGradient id="s" x1="557.6" x2="557.6" y1="508.6" y2="506.6" gradientUnits="userSpaceOnUse"><stop offset="0" stop-color="#727272"/><stop offset=".1" stop-color="#7d7d7d"/><stop offset=".2" stop-color="#979797"/><stop offset=".3" stop-color="#ababab"/><stop offset=".5" stop-color="#b8b8b8"/><stop offset=".7" stop-color="#c1c1c1"/><stop offset="1" stop-color="#c3c3c3"/></linearGradient><linearGradient id="b" x1="562.3" x2="562.3" y1="508.6" y2="506.6" gradientUnits="userSpaceOnUse"><stop offset="0" stop-color="#a15823"/><stop offset="1" stop-color="#fd9a40"/></linearGradient><linearGradient id="t" x1="562.3" x2="562.3" y1="505.6" y2="503.5" xlink:href="#b"/><linearGradient id="u" x1="562.3" x2="562.3" y1="502.5" y2="500.5" xlink:href="#b"/><linearGradient id="c" x1="557.7" x2="557.7" y1="505.6" y2="503.5" gradientUnits="userSpaceOnUse"><stop offset="0" stop-color="#727272"/><stop offset="1" stop-color="#c3c3c3"/></linearGradient><linearGradient id="v" x1="557.7" x2="557.7" y1="502.5" y2="500.5" xlink:href="#c"/><linearGradient id="w" x1="585" x2="585" y1="512.5" y2="492.6" gradientUnits="userSpaceOnUse"><stop offset="0" stop-color="#1e65dd"/><stop offset="1" stop-color="#29b9ee"/></linearGradient><radialGradient id="l" cx="590.1" cy="238.8" r="8.5" gradientTransform="matrix(1.08 0 0 -1.08 -188.8 758.8)" gradientUnits="userSpaceOnUse"><stop offset="0" stop-color="#06c2e7"/><stop offset=".3" stop-color="#0db8ec"/><stop offset=".5" stop-color="#12aef1"/><stop offset=".8" stop-color="#1f86f9"/><stop offset="1" stop-color="#107ddd"/></radialGradient></defs><g style="isolation:isolate"><rect width="814.7" height="563.6" x="93.8" y="1" rx="22"/><path fill="#939598" d="M886.5 2a21 21 0 0121 21v519.6a21 21 0 01-21 21H115.7a20.9 20.9 0 01-20.9-21V23a20.9 20.9 0 0120.9-21h770.8m0-2H115.7a23 23 0 00-22.9 23v519.6a23 23 0 0022.9 23h770.8a23 23 0 0023-23V23a23 23 0 00-23-23z"/><path fill="url(#d)" d="M744.8 23.7l-229.3 528h375.2v-528H744.8z"/><path fill="url(#e)" d="M667.7 23.7l-527.8 528h375.6l229.3-528h-77.1z"/><path fill="url(#f)" d="M490.2 23.7L112.3 188v363.7h27.6l527.8-528H490.2z"/><path fill="url(#g)" d="M112.3 23.7V188L490.2 23.7H112.3z"/><path fill="#1b1b1b" d="M94.8 542.6a21.3 21.3 0 002 9.1h808.6a21.3 21.3 0 002.1-9.1v-9.3H94.8z"/><path fill="#bcbcbc" d="M475.1 547.3H474v-7.2l-3 7.1h-1l-2.9-7.1h-.1v7.2h-1.1V538h1.4l3.2 7.7 3.2-7.7h1.4zm1.3-2c0-1.2.9-1.9 2.6-2h2v-.6c0-.8-.6-1.3-1.6-1.3a1.6 1.6 0 00-1.6 1h-1c0-1.1 1.1-2 2.6-2s2.7.9 2.7 2.2v4.8H481v-1.2a2.5 2.5 0 01-2.2 1.3 2.2 2.2 0 01-2.4-2.2zm4.6-.7v-.5h-1.8c-1.1.1-1.6.4-1.6 1.1s.5 1.1 1.4 1.1a1.9 1.9 0 002-1.7zm7.2-2a1.6 1.6 0 00-1.8-1.3c-1.2 0-2 1-2 2.5s.8 2.6 2 2.6a1.7 1.7 0 001.8-1.3h1.1a2.8 2.8 0 01-2.9 2.3c-1.9 0-3.2-1.4-3.2-3.6a3.2 3.2 0 013.2-3.5 2.7 2.7 0 012.9 2.3zm2.3 4.7V538h3.7c1.6 0 2.7.9 2.7 2.3a2.1 2.1 0 01-1.6 2 2.2 2.2 0 012 2.3c0 1.6-1.1 2.6-3.1 2.6zm1.2-5.3h1.9c1.3 0 2.1-.5 2.1-1.6s-.6-1.4-1.8-1.4h-2.2zm2.3 4.3c1.4 0 2.1-.6 2.1-1.7s-.7-1.6-2.2-1.6h-2.2v3.3zm4.2-2.5c0-2.1 1.2-3.5 3.2-3.5a3.2 3.2 0 013.2 3.5c0 2.2-1.3 3.6-3.2 3.6s-3.2-1.4-3.2-3.6zm5.2 0c0-1.6-.8-2.5-2-2.5s-2.1.9-2.1 2.5.8 2.6 2.1 2.6 2-1 2-2.6zm2 0c0-2.1 1.2-3.5 3.2-3.5a3.2 3.2 0 013.2 3.5c0 2.2-1.3 3.6-3.2 3.6s-3.2-1.4-3.2-3.6zm5.2 0c0-1.6-.7-2.5-2-2.5s-2.1.9-2.1 2.5.8 2.6 2.1 2.6 2-1 2-2.6zm6.7-3.5h1.3l-3 3 3.1 4h-1.3l-2.6-3.3-.7.7v2.6H513v-9.7h1.1v5.8zm10.7 4.3h-3.7l-1 2.7h-1.2l3.5-9.3h1.1l3.4 9.3h-1.2zm-3.4-1h3l-1.5-4.2zm6.4-5.1a.7.7 0 11.7.7.7.7 0 01-.7-.7zm.1 1.8h1.1v7h-1.1zm2.7 0h1.1v1.2a1.6 1.6 0 011.7-1.2h.4v1.1h-.6a1.4 1.4 0 00-1.5 1.6v4.3h-1.1z"/><path d="M94.8 521.3h812.6v12H94.8zM907.4 23a20 20 0 00-2.1-9.1H96.9a21.3 21.3 0 00-2.1 9.1v9.3h812.6z"/><path fill="url(#h)" d="M0 557.4s22.7 9.4 63.5 13.2c11.7 1.1 16.2 1.6 52.9 1.6h779s88.2-2.8 104.6-14.8c0-3.2-3.7-2.9-3.7-2.9H1.4a4 4 0 00-1.4 2.9z"/><path fill="url(#i)" d="M0 551.7h1000v5.7H0z"/><path fill="url(#j)" d="M415.9 551.7v5.7a22.5 22.5 0 014.8.5 49.3 49.3 0 005 1.5l3.3.2h142.8l3.2-.2a50 50 0 005.1-1.5 21.2 21.2 0 014.7-.5v-5.7z"/><path fill="#8a8a8a" d="M1000 551.7H0v5.7s22.7 9.4 63.5 13.2c11.7 1.1 16.2 1.6 52.9 1.6h779s88.2-2.8 104.6-14.8z" style="mix-blend-mode:overlay"/><path fill="#fafafa" fill-opacity=".8" d="M112.3 32.3h778.4v13.4H112.3z" opacity=".5"/><path fill-opacity=".8" d="M865.7 35.9h1.2v1.3h-1.2zm2.5 0h8.5v1.3h-8.5zm-2.5 2.5h1.2v1.2h-1.2zm2.5 0h6.7v1.2h-6.7zm-2.5 2.4h1.2V42h-1.2zm2.5 0h8.5V42h-8.5z"/><path fill="none" stroke="#000" stroke-width=".9" d="M847.5 38.1a3.4 3.4 0 113.3 3.3 3.4 3.4 0 01-3.3-3.3zm8.2 4.8l-2.5-2.5"/><path d="M799.5 36.6h1.1l1.9 4.9 2-4.9h1.1v6h-.8v-4.9l-1.9 4.9h-.7l-1.9-4.9v4.9h-.8zm7 3.8a2 2 0 01.3-1.1 1.6 1.6 0 01.7-.9l1-.2a1.8 1.8 0 011.5.6 2.4 2.4 0 01.6 1.7 2.1 2.1 0 01-.3 1.2 1.4 1.4 0 01-.7.8 1.7 1.7 0 01-1 .3 1.8 1.8 0 01-1.5-.6 2.4 2.4 0 01-.6-1.8zm.8 0a2.1 2.1 0 00.3 1.2 1.4 1.4 0 001 .5 1.2 1.2 0 00.9-.5 2.3 2.3 0 00.3-1.3 2.7 2.7 0 00-.3-1.2 1.3 1.3 0 00-1-.4 1.2 1.2 0 00-.9.4 2.5 2.5 0 00-.3 1.3zm4.1 1.8l.2-.3.3-.1h.4a.4.4 0 01.1.3l-.1.4h-.7a.5.5 0 01-.2-.3zm7.8-3.1v1a3.7 3.7 0 01-.5 2 1.7 1.7 0 01-1.4.6 1.6 1.6 0 01-1.4-.6 2.9 2.9 0 01-.5-1.9v-1.1a3.2 3.2 0 01.4-1.9 1.6 1.6 0 011.5-.7 1.7 1.7 0 011.4.6 3.4 3.4 0 01.5 2zm-.8 1.2V39a4.6 4.6 0 00-.2-1.4 1.1 1.1 0 00-1.8 0 2.3 2.3 0 00-.3 1.3v1.3a2.6 2.6 0 00.3 1.4 1.1 1.1 0 00.9.5.9.9 0 00.8-.4 2.6 2.6 0 00.3-1.4zm4.6-.3l-.6.4a1 1 0 01-.7.2l-.9-.2a1.6 1.6 0 01-.6-.8 1.7 1.7 0 01-.3-1 2 2 0 01.3-1.1 1.1 1.1 0 01.6-.7 1.7 1.7 0 011-.3 1.5 1.5 0 011.4.7 2.4 2.4 0 01.6 1.8v.2a4.3 4.3 0 01-.7 2.6 2.9 2.9 0 01-2.2.8h-.1V42h.2a2 2 0 001.4-.5 1.8 1.8 0 00.6-1.5zm-1.2 0a.9.9 0 00.7-.3 1.2 1.2 0 00.5-.5v-.4a2.1 2.1 0 00-.3-1.2c-.3-.3-.5-.5-.9-.5a1.2 1.2 0 00-.8.4 1.8 1.8 0 00-.3 1.1 1.7 1.7 0 00.3 1 1.2 1.2 0 00.8.4zm2.9 2.2l.1-.3h.8l.1.3-.1.4h-.8l-.1-.4zm0-3.6l.1-.4h.8l.1.4-.1.3h-.8l-.1-.3zm5.1-2v4h.9v.6h-.9v1.4h-.7v-1.4h-2.8v-.4l2.7-4.2zm-.8 1.2l-1.8 2.8h1.9v-2.8zm4.8-1.2v6h-.8v-5.1l-1.6.6v-.7l2.2-.8z"/><path fill="none" stroke="#000" stroke-linecap="round" stroke-width=".6" d="M789 35.6a5.3 5.3 0 011.2 3.3A4.3 4.3 0 01789 42m-2-.9a3.1 3.1 0 00.9-2.1 2.6 2.6 0 00-.9-2.1"/><path d="M781.2 37.2h1.8l2.5-1.9v7.3l-2.5-1.8h-1.8a.6.6 0 01-.6-.6v-2.4a.6.6 0 01.6-.6z"/><path fill="none" stroke="#000" stroke-linecap="square" stroke-width=".7" d="M762.2 37.1a8.5 8.5 0 015.9-2.4 8.3 8.3 0 015.9 2.4m-1.7 1.7a6.3 6.3 0 00-4.2-1.6 6 6 0 00-4.1 1.6m6.6 1.7a3.7 3.7 0 00-2.5-.9 3.6 3.6 0 00-2.4.9"/><path d="M768.1 43.2l1.2-.9a1.6 1.6 0 00-1.2-.6 1.7 1.7 0 00-1.2.6zM747.5 40.2a.9.9 0 000-1.8.9.9 0 100 1.8zm2.4 0a.9.9 0 10-.9-.9.9.9 0 00.9.9zm2.4 0a.9.9 0 10-.9-.9.9.9 0 00.9.9z"/><path fill="none" stroke="#000" stroke-width=".6" d="M750.8 40.2l1.5 1.2-2.4 2.1v-3m.9-2.1l1.5-1.2-2.4-2.2v3.1m-2.8-1.2l1.9 1.5m-1.9 3.3l1.9-1.5" opacity=".5" style="isolation:isolate"/><path fill="#474747" fill-rule="evenodd" d="M130.4 35a2 2 0 00.6-1.5 2.3 2.3 0 00-1.5.7 2.1 2.1 0 00-.5 1.5 1.4 1.4 0 001.4-.7zm.5.9a10.1 10.1 0 00-1.8.4c-.4 0-1-.5-1.6-.4a2.6 2.6 0 00-2.1 1.2 3.3 3.3 0 00-.4 1.7 7.5 7.5 0 001 3.2c.5.6.9 1.2 1.6 1.2s.8-.4 1.6-.4 1 .4 1.6.4 1.1-.6 1.5-1.2l.7-1.3a2.4 2.4 0 01-1.4-2 2.5 2.5 0 011.1-1.9 2.2 2.2 0 00-1.8-.9z"/><path fill="#484848" d="M178.6 39.2v.9h-2.5v2.5h-1v-6h3.8v.8h-2.8v1.8zm2-1.1v4.5h-1v-4.5zm-1.1-1.1a.5.5 0 01.2-.4l.4-.2a.7.7 0 01.6.6l-.2.4h-.8l-.2-.4zm3.1-.7v6.3h-1v-6.3zm3 6.4a2.1 2.1 0 01-2.2-2.2 2.1 2.1 0 01.3-1.2 1.6 1.6 0 01.7-.9l1-.2a2.3 2.3 0 011.5.5 2.9 2.9 0 01.5 1.7v.4h-3a1.9 1.9 0 00.4.9 1.1 1.1 0 00.8.3 1.3 1.3 0 001.1-.5l.6.5c-.2.2-.4.5-.7.6zm-.2-3.8a.7.7 0 00-.6.3 1.5 1.5 0 00-.4.8h2c-.1-.3-.1-.6-.3-.8zm15.5.2v.8h-2.5v1.9h3v.8h-4v-6h3.9v.8h-2.9v1.7zm.8 1.3a2.9 2.9 0 01.5-1.7 1.5 1.5 0 011.3-.6 1.2 1.2 0 011.1.5v-2.3h1v6.3h-.9v-.4a1.7 1.7 0 01-1.2.5 1.5 1.5 0 01-1.3-.6 2.9 2.9 0 01-.5-1.7zm1 0a1.6 1.6 0 00.3 1.1.7.7 0 00.7.4 1 1 0 00.9-.6v-1.9a1.1 1.1 0 00-.9-.5.8.8 0 00-.7.4 1.6 1.6 0 00-.3 1.1zm4.9-2.3v4.5h-1v-4.5zm-1-1.1l.1-.4.4-.2a.7.7 0 01.6.6l-.2.4h-.8a.8.8 0 01-.1-.4zm2.2 0h1v1.1h.8v.8h-.8v2.5l.1.4h.8v.8h-.7c-.8 0-1.2-.4-1.2-1.3v-2.4h-.7v-.8h.7zm12.5-.4l1.5 4.7 1.5-4.7h1.2l-2.2 6h-1l-2.2-6zm5.7 1.5v4.5h-1v-4.5zm-1.1-1.1a.5.5 0 01.2-.4l.4-.2.4.2a.5.5 0 01.2.4l-.2.4h-.8l-.2-.4zm4 5.7a2 2 0 01-1.5-.6 2.1 2.1 0 01-.6-1.6 3.7 3.7 0 01.2-1.2 2.4 2.4 0 01.8-.9l1-.2a2 2 0 011.4.5 2.3 2.3 0 01.5 1.7v.4h-2.9a1.3 1.3 0 00.4.9 1.1 1.1 0 00.8.3 1.4 1.4 0 001.1-.5l.6.5a2.4 2.4 0 01-.8.6zm-.1-3.8a.9.9 0 00-.7.3 3.4 3.4 0 00-.3.8h1.9a1.9 1.9 0 00-.2-.8zm5.6-.8l.9 3.1.7-3.1h1l-1.2 4.5h-.8l-1-3.1-.9 3.1h-.9l-1.2-4.5h1l.7 3.1.9-3.1zm16.2-1.5l1.1 4.5.9-4.5h1.1l-1.4 6h-1l-1.2-4.4-1.2 4.4h-1l-1.4-6h1.1l.9 4.5 1.2-4.5zm4.7 1.5v4.5h-1v-4.5zm-1.1-1.1a.6.6 0 011.2 0l-.2.4h-.8l-.2-.4zm2 1.1h1v.6a1.6 1.6 0 011.3-.6c1 0 1.4.5 1.4 1.6v2.9h-1v-2.9c0-.3 0-.5-.2-.6l-.6-.2a1.1 1.1 0 00-.9.5v3.2h-1zm4.4 2.3a2.9 2.9 0 01.5-1.7 1.6 1.6 0 011.3-.6 1.3 1.3 0 011.2.5v-2.3h1v6.3h-.9v-.4a1.7 1.7 0 01-1.2.5 1.8 1.8 0 01-1.3-.6 2.9 2.9 0 01-.6-1.7zm1 0a1.6 1.6 0 00.3 1.1.8.8 0 00.8.4 1 1 0 00.9-.6v-1.9a1.1 1.1 0 00-.9-.5.8.8 0 00-.8.4 1.6 1.6 0 00-.3 1.1zm3.7 0a2 2 0 01.3-1.1 1.6 1.6 0 01.7-.9l1.1-.2a2.5 2.5 0 011.5.5 3.4 3.4 0 01.6 1.6v.2a2.1 2.1 0 01-.3 1.2 1.4 1.4 0 01-.7.8 2.2 2.2 0 01-2.6-.3 2.4 2.4 0 01-.6-1.8zm1 0a1.6 1.6 0 00.3 1.1 1 1 0 001.6 0 1.9 1.9 0 00.3-1.2 1.5 1.5 0 00-.3-1 1 1 0 00-1.6 0 1.6 1.6 0 00-.3 1.1zm6.9-2.3l.9 3.1.8-3.1h.9l-1.2 4.5h-.8l-1-3.1-.9 3.1h-.9l-1.2-4.5h1l.7 3.1.9-3.1zm17.4-1.5v6h-1.1v-2.7h-2.7v2.7h-1v-6h1v2.5h2.7v-2.5zm3 6.1a2.1 2.1 0 01-2.2-2.2 2.1 2.1 0 01.3-1.2 1.6 1.6 0 01.7-.9l1-.2a2.3 2.3 0 011.5.5 2.9 2.9 0 01.5 1.7v.4h-3a1.9 1.9 0 00.4.9 1.1 1.1 0 00.8.3 1.3 1.3 0 001.1-.5l.6.5c-.2.2-.4.5-.7.6zm-.2-3.8a.7.7 0 00-.6.3 1.5 1.5 0 00-.4.8h2l-.3-.8zm3.7-2.6v6.3h-1v-6.3zm4.9 4.1a2.9 2.9 0 01-.5 1.7 1.5 1.5 0 01-1.3.6 1.3 1.3 0 01-1.2-.5v2.2h-1v-6.3h1v.5a1.3 1.3 0 011.2-.5 1.5 1.5 0 011.3.6 2.6 2.6 0 01.5 1.7zm-1-.1a1.5 1.5 0 00-.3-1 .8.8 0 00-.8-.4 1.1 1.1 0 00-.9.5v2a1.1 1.1 0 00.9.5.8.8 0 00.8-.4 1.7 1.7 0 00.3-1.2zm-152.9-3.9l-.4.2-.1.4a.8.8 0 00.1.4h.9a.8.8 0 00.1-.4l-.1-.4zm-.5 6.2h1v-4.5h-1zm-4.5 0h1.1v-2.5h2.4v-.9h-2.4v-1.8h2.8v-.8h-3.9zm13.9-4a1.3 1.3 0 00-1.1-.5 1.5 1.5 0 00-1.3.6 2.3 2.3 0 00-.5 1.7 2.3 2.3 0 00.5 1.7 1.5 1.5 0 001.3.6 1.7 1.7 0 001.2-.5v.4h.9v-6.3h-1zm0 2.7a1 1 0 01-.9.6.7.7 0 01-.7-.4 2.2 2.2 0 010-2.2.7.7 0 01.7-.4 1.1 1.1 0 01.9.5zm-5-3.2a1.8 1.8 0 00-1.4.6v-.6h-.9v4.5h1v-3.2a1.1 1.1 0 01.9-.5.7.7 0 01.8.8v2.9h1v-2.9c0-1.1-.5-1.6-1.4-1.6zm8.8 0l-1.1.2a2.2 2.2 0 00-.7.9 2.1 2.1 0 00-.3 1.2 2.1 2.1 0 00.6 1.6 2.3 2.3 0 001.6.6l1-.2a1.4 1.4 0 00.7-.6l-.5-.5a1.6 1.6 0 01-1.1.5 1.4 1.4 0 01-.9-.3 1.2 1.2 0 01-.3-.9h2.9v-.4a2.9 2.9 0 00-.5-1.7 2 2 0 00-1.4-.4zm.9 1.9h-1.9a1 1 0 01.3-.8.9.9 0 01.7-.3l.6.2a1.1 1.1 0 01.3.8zm3.9-1.8h-.5a1 1 0 00-.5.6v-.6h-1.1v4.4h1v-1.3l.1-1.5.4-.5h.4l.6.2.3-1a1 1 0 00-.7-.3z"/><rect width="193" height="29" x="406.6" y="488.7" fill="#fafafa" fill-opacity=".8" opacity=".5" rx="7.3"/><path d="M422.4 516.7a1 1 0 001-1 1 1 0 00-1-1.1 1.1 1.1 0 00-1 1.1 1.1 1.1 0 001 1zM499.7 516.7a1 1 0 001-1 1 1 0 10-2 0 1 1 0 001 1z"/><path fill="#565b75" d="M543 491.6h.5v23.2h-.5z"/><rect width="19.9" height="19.9" x="412.5" y="492.4" fill="url(#k)" rx="4.7"/><path fill="#dce0eb" d="M427.7 492.4h-4.9a19.6 19.6 0 00-1.9 6.5 30.9 30.9 0 00-.4 5h3.1l.2 4.4.6 3.9h3.3a4.6 4.6 0 004.7-4.6V497a4.7 4.7 0 00-4.7-4.6z"/><path fill="none" stroke="#000" stroke-linecap="round" stroke-opacity=".8" stroke-width=".8" d="M418.1 497.8v1.3M426.7 497.8v1.3"/><path fill="none" stroke="#000" stroke-linecap="round" stroke-opacity=".8" stroke-width=".7" d="M416.8 504.6s1.6 2.3 5.6 2.3a6.9 6.9 0 005.6-2.4"/><rect width="19.9" height="19.9" x="438.2" y="492.4" fill="url(#a)" rx="4.7"/><path fill="url(#l)" d="M456.6 502.3a8.5 8.5 0 01-8.5 8.5 8.5 8.5 0 01-8.5-8.5 8.5 8.5 0 018.5-8.5 8.5 8.5 0 018.5 8.5z"/><path fill="none" stroke="#fff" stroke-linecap="round" stroke-miterlimit="2.7" stroke-width=".3" d="M448.1 494.5v1.3m0 14.3v-1.3m.8-14.3v.6m-1.6 15v-.6m8.8-7.2h-1.4m-14.7 0h1.4m14.6.8h-.6m-15.3-1.5h.5m13.1-4.8l-1 .9m-10.3 10.1l.9-.9m10.9-9.6l-.4.4m-12 9.6l.5-.4m11.4.9l-1-.9m-10.3-10.1l.9.9m9.8 10.7l-.3-.5m-9.8-11.6l.4.4m7.8-1.6l-.5 1.2m-5.6 13.2l.5-1.2m6.3-12.9l-.3.5m-7.2 13.3l.2-.5m10.9-3.4l-1.2-.5m-13.6-5.5l1.3.5m13.2 6.2l-.5-.3m-13.6-7.1l.5.3m13.9.4l-1.2.5m-13.6 5.5l1.3-.5m13.8-4.8l-.5.2m-14.8 4.4l.5-.2m10.2 5.1l-.5-1.2m-5.6-13.2l.5 1.2m4.9 13.5l-.2-.5m-4.5-14.5l.2.6m3.7-.8l-.3 1.3m-2.8 14.1l.2-1.3m3.7-13.9l-.2.6m-4.5 14.4l.2-.5m10-5.5l-1.3-.2m-14.4-2.8l1.3.2m14.2 3.6l-.5-.2m-14.8-4.4l.5.2m13.8-2.2l-1.1.7m-12.2 8l1.1-.8m12.6-7.3l-.5.3m-13.6 7.1l.5-.3m11 3.1l-.8-1.1m-8.1-11.9l.7 1.1m7.5 12.3l-.3-.5m-7.2-13.3l.2.5m8-.1l-.8 1.1m-8.1 11.9l.7-1.1m8.8-11.4l-.3.4m-9.9 11.7l.4-.5m11.4-1.2l-1.1-.8m-12.2-7.9l1.1.7m11.7 8.6l-.4-.4m-12-9.6l.5.4m13.6 3.1l-1.3.2m-14.4 2.8l1.3-.2m14.5-2.1h-.6m-15.3 1.5h.5m9 7l-.3-1.3m-2.8-14.1l.2 1.3m2.1 14.2v-.6m-1.5-15v.6"/><path d="M453.9 497.4l-6.7 3.9-4.3 6.7 6.2-4.6z" opacity=".4" style="isolation:isolate"/><path fill="#ff5150" d="M449.1 503.3l-1.9-2 6.9-4.6z"/><path fill="#f1f1f1" d="M449.1 503.3l-1.9-2-5 6.7z"/><path d="M442.2 508l6.9-4.7 5-6.6z" opacity=".2" style="isolation:isolate"/><rect width="19.9" height="19.9" x="463.9" y="492.4" fill="url(#m)" rx="4.5"/><path fill="url(#n)" d="M468.4 492.4h10.8a4.5 4.5 0 014.5 4.5v.5h-19.8v-.5a4.5 4.5 0 014.5-4.5z"/><path fill="url(#o)" d="M463.9 497.4h19.9v.8h-19.9z"/><path fill="#c7c7cc" d="M464.2 498.4h19.3"/><path fill="none" stroke="#d1d3d4" stroke-linecap="round" stroke-linejoin="round" stroke-width=".4" d="M464.2 498.4h0"/><path fill="none" stroke="#d1d3d4" stroke-dasharray="0 .8" stroke-linecap="round" stroke-linejoin="round" stroke-width=".4" d="M465 498.4h18.1"/><path fill="none" stroke="#d1d3d4" stroke-linecap="round" stroke-linejoin="round" stroke-width=".4" d="M483.5 498.4h0"/><path fill="none" stroke="#bcbec0" stroke-miterlimit="10" stroke-width=".2" d="M463.9 502.3h19.9m-19.9 5h19.9"/><rect width="15.7" height="15.7" x="491.7" y="494.6" fill="#262626" rx="2.7"/><path fill="url(#p)" d="M504.8 494.6a2.7 2.7 0 012.6 2.7v10.4a2.7 2.7 0 01-2.6 2.7h-10.4a2.7 2.7 0 01-2.7-2.7v-10.4a2.7 2.7 0 012.7-2.7h10.4m0-2h-10.4a4.7 4.7 0 00-4.7 4.7v10.4a4.7 4.7 0 004.7 4.7h10.4a4.7 4.7 0 004.6-4.7v-10.4a4.7 4.7 0 00-4.6-4.7z"/><path d="M504.8 494.6a2.7 2.7 0 012.6 2.7v10.4a2.7 2.7 0 01-2.6 2.7h-10.4a2.7 2.7 0 01-2.7-2.7v-10.4a2.7 2.7 0 012.7-2.7h10.4m0-1.4h-10.4a4.1 4.1 0 00-4.1 4.1v10.4a4.1 4.1 0 004.1 4.1h10.4a4.1 4.1 0 004.1-4.1v-10.4a4.2 4.2 0 00-4.1-4.1z"/><path fill="#fff" fill-rule="evenodd" d="M499.3 500.3v-.6h-2.8v.6zm-3.4-2.2v-.7l-2.6-1.2v.8l1.7.8-1.7.7v.9z"/><path fill="#fff" d="M520 492.6h10.6a4.7 4.7 0 014.7 4.7v10.6a4.6 4.6 0 01-4.6 4.6H520a4.6 4.6 0 01-4.6-4.6v-10.7a4.6 4.6 0 014.6-4.6z"/><path fill="url(#q)" d="M522.7 497.3l6.4-1.3c.3-.1.5.2.5.5v9.5a1.8 1.8 0 01-1.6 1.7c-1.5.3-1.9-.4-2-.8a1.6 1.6 0 01.2-1.6 2.4 2.4 0 011.3-.7c.3 0 1 0 1.2-.3s.1-.8.1-.8v-3.8a.6.6 0 00-.6-.5l-4.8 1a.5.5 0 00-.4.5v6a2.7 2.7 0 01-.2 1.3 1.4 1.4 0 01-.8.9 2.7 2.7 0 01-1.8.1 1.4 1.4 0 01-.9-1.3 1.2 1.2 0 01.5-1.2 4.4 4.4 0 011.6-.6c.4-.1.7 0 .8-.6s.1-6 0-7.6a.4.4 0 01.5-.4z"/><rect width="19.9" height="19.9" x="549.3" y="492.4" fill="#dbdbdb" rx="4.7"/><rect width="10.2" height="14.8" x="554.1" y="494.9" fill="url(#r)" rx="1.3"/><path fill="url(#s)" d="M555.1 507.6a1 1 0 011.1-1h2.9a1 1 0 010 2h-2.9a1 1 0 01-1.1-1z"/><rect width="8.1" height="3.4" x="555.1" y="496.1" fill="#6f6f6f" rx=".7"/><circle cx="562.2" cy="507.6" r="1" fill="url(#b)"/><circle cx="562.2" cy="504.6" r="1" fill="url(#t)"/><circle cx="562.2" cy="501.5" r="1" fill="url(#u)"/><path fill="url(#c)" d="M560.2 504.6a1 1 0 11-2 0 1 1 0 112 0zm-4-1.1a1.1 1.1 0 00-1.1 1.1 1.1 1.1 0 001.1 1 1.1 1.1 0 001-1 1.1 1.1 0 00-1-1.1z"/><path fill="url(#v)" d="M557.2 501.5a1 1 0 01-1 1 1 1 0 01-1.1-1 1.1 1.1 0 011.1-1 1.1 1.1 0 011 1zm2-1a1 1 0 00-1 1 1 1 0 002 0 1 1 0 00-1-1z"/><rect width="19.9" height="19.9" x="575" y="492.6" fill="url(#w)" rx="4.7"/><path fill="#f2f2f2" d="M588.9 504.2h2.4a.9.9 0 110 1.8H590l.9 1.6a.9.9 0 01-.4 1.2 1 1 0 01-1.2-.3l-3.3-5.8a2.4 2.4 0 01.3-3.1l2.6 4.6zm-7.5 2.8l-.8 1.3s-.5.9-1.3.5a1 1 0 01-.4-1.1l.7-1.3a1.8 1.8 0 011.8.6zm3.5-9.7l-.4-.7a.9.9 0 00-1.2-.4 1 1 0 00-.3 1.3l.9 1.6-3 5.1h-2.3a.9.9 0 100 1.8h8.3a1.3 1.3 0 00-1.1-1.8H583l3.9-6.7a1 1 0 00-.3-1.3 1 1 0 00-1.3.4z"/></g></svg>