<svg xmlns="http://www.w3.org/2000/svg" xmlns:xlink="http://www.w3.org/1999/xlink" viewBox="0 0 1000 572.2"><defs><linearGradient id="a" x1="928.02" y1="360.76" x2="630.31" y2="264.03" gradientUnits="userSpaceOnUse"><stop offset="0" stop-color="#88aec5"/><stop offset="0.25" stop-color="#88aec5"/><stop offset="0.83" stop-color="#698799"/><stop offset="1" stop-color="#4c6278"/></linearGradient><linearGradient id="b" x1="665.3" y1="287.67" x2="156.07" y2="287.67" gradientUnits="userSpaceOnUse"><stop offset="0" stop-color="#b37f2c"/><stop offset="0.7" stop-color="#c99036"/></linearGradient><linearGradient id="c" x1="475.79" y1="350.11" x2="163.85" y2="123.16" gradientUnits="userSpaceOnUse"><stop offset="0" stop-color="#cfcbc0"/><stop offset="1" stop-color="#d9ceca"/></linearGradient><linearGradient id="d" x1="132.68" y1="21.58" x2="394.85" y2="152.66" gradientUnits="userSpaceOnUse"><stop offset="0" stop-color="#ff9d60"/><stop offset="1" stop-color="#f6673d"/></linearGradient><linearGradient id="e" x1="500" y1="572.17" x2="500" y2="554.53" gradientUnits="userSpaceOnUse"><stop offset="0" stop-color="#7c7c7c"/><stop offset="0.31" stop-color="#b7b7b7"/><stop offset="0.62" stop-color="#d1d1d1"/><stop offset="0.87" stop-color="#888"/></linearGradient><linearGradient id="f" y1="554.53" x2="1000" y2="554.53" gradientUnits="userSpaceOnUse"><stop offset="0" stop-color="#bebebe"/><stop offset="0.01" stop-color="#5d5d5d"/><stop offset="0.03" stop-color="#cbcbcb"/><stop offset="0.26" stop-color="#b6b6b6"/><stop offset="0.5" stop-color="#b6b6b6"/><stop offset="0.81" stop-color="#b6b6b6"/><stop offset="0.97" stop-color="#ccc"/><stop offset="0.99" stop-color="#4d4d4d"/><stop offset="1" stop-color="#bdbdbd"/></linearGradient><linearGradient id="g" x1="415.92" y1="555.63" x2="584.84" y2="555.63" gradientUnits="userSpaceOnUse"><stop offset="0" stop-color="#b5b5b5"/><stop offset="0.03" stop-color="#4f4f4f"/><stop offset="0.05" stop-color="#c6c6c6"/><stop offset="0.49" stop-color="#b4b4b4"/><stop offset="0.93" stop-color="#c3c3c3"/><stop offset="0.98" stop-color="#4a4a4a"/><stop offset="1" stop-color="#b7b7b7"/></linearGradient><linearGradient id="h" x1="422.42" y1="512.24" x2="422.42" y2="492.38" gradientUnits="userSpaceOnUse"><stop offset="0" stop-color="#2276e6"/><stop offset="1" stop-color="#2bcdfc"/></linearGradient><linearGradient id="i" x1="448.14" y1="512.24" x2="448.14" y2="492.38" gradientUnits="userSpaceOnUse"><stop offset="0" stop-color="#d1d1d1"/><stop offset="1" stop-color="#fff"/></linearGradient><radialGradient id="j" cx="590.14" cy="238.76" r="8.54" gradientTransform="matrix(1.08, 0, 0, -1.08, -188.79, 758.78)" gradientUnits="userSpaceOnUse"><stop offset="0" stop-color="#06c2e7"/><stop offset="0.25" stop-color="#0db8ec"/><stop offset="0.5" stop-color="#12aef1"/><stop offset="0.75" stop-color="#1f86f9"/><stop offset="1" stop-color="#107ddd"/></radialGradient><linearGradient id="k" x1="473.85" y1="512.24" x2="473.85" y2="492.38" xlink:href="#i"/><linearGradient id="l" x1="473.85" y1="497.36" x2="473.85" y2="492.38" gradientUnits="userSpaceOnUse"><stop offset="0" stop-color="#f5c945"/><stop offset="1" stop-color="#f9de73"/></linearGradient><linearGradient id="m" x1="473.85" y1="498.15" x2="473.85" y2="497.36" gradientUnits="userSpaceOnUse"><stop offset="0.37" stop-color="#f1f1f1"/><stop offset="1" stop-color="#a3a2a2"/></linearGradient><linearGradient id="n" x1="499.57" y1="512.39" x2="499.57" y2="492.64" gradientUnits="userSpaceOnUse"><stop offset="0" stop-color="#262626"/><stop offset="1" stop-color="#d6e6ed"/></linearGradient><linearGradient id="o" x1="521.28" y1="105.26" x2="528.99" y2="94.44" gradientTransform="matrix(1, 0, 0, -1, 0, 602.96)" gradientUnits="userSpaceOnUse"><stop offset="0" stop-color="#fc5c57"/><stop offset="0.61" stop-color="#865ef6"/><stop offset="1" stop-color="#40aafa"/></linearGradient><linearGradient id="p" x1="554.14" y1="502.29" x2="564.33" y2="502.29" gradientUnits="userSpaceOnUse"><stop offset="0" stop-color="#585858"/><stop offset="1" stop-color="#2c2c2c"/></linearGradient><linearGradient id="q" x1="557.63" y1="508.62" x2="557.63" y2="506.58" gradientUnits="userSpaceOnUse"><stop offset="0" stop-color="#727272"/><stop offset="0.05" stop-color="#7d7d7d"/><stop offset="0.17" stop-color="#979797"/><stop offset="0.31" stop-color="#ababab"/><stop offset="0.46" stop-color="#b8b8b8"/><stop offset="0.66" stop-color="#c1c1c1"/><stop offset="1" stop-color="#c3c3c3"/></linearGradient><linearGradient id="r" x1="562.25" y1="508.62" x2="562.25" y2="506.58" gradientUnits="userSpaceOnUse"><stop offset="0" stop-color="#a15823"/><stop offset="1" stop-color="#fd9a40"/></linearGradient><linearGradient id="s" x1="562.25" y1="505.58" x2="562.25" y2="503.54" xlink:href="#r"/><linearGradient id="t" x1="562.25" y1="502.54" x2="562.25" y2="500.5" xlink:href="#r"/><linearGradient id="u" x1="557.68" y1="505.58" x2="557.68" y2="503.54" gradientUnits="userSpaceOnUse"><stop offset="0" stop-color="#727272"/><stop offset="1" stop-color="#c3c3c3"/></linearGradient><linearGradient id="v" x1="557.68" y1="502.54" x2="557.68" y2="500.5" xlink:href="#u"/><linearGradient id="w" x1="584.95" y1="512.47" x2="584.95" y2="492.61" gradientUnits="userSpaceOnUse"><stop offset="0" stop-color="#1e65dd"/><stop offset="1" stop-color="#29b9ee"/></linearGradient></defs><title>macOS</title><g style="isolation:isolate"><rect x="93.8" y="1" width="814.7" height="563.57" rx="22"/><path d="M886.5,2a21,21,0,0,1,21,21V542.6a21,21,0,0,1-21,21H115.7a20.9,20.9,0,0,1-20.9-21V23A20.9,20.9,0,0,1,115.7,2H886.5m0-2H115.7A23,23,0,0,0,92.8,23V542.6a23,23,0,0,0,22.9,23H886.5a23,23,0,0,0,23-23V23a23,23,0,0,0-23-23Z" fill="#939598"/><polygon points="744.8 23.7 515.5 551.7 890.7 551.7 890.7 23.7 744.8 23.7" fill="url(#a)"/><polygon points="667.7 23.7 139.9 551.7 515.5 551.7 744.8 23.7 667.7 23.7" fill="url(#b)"/><polygon points="490.2 23.7 112.3 188 112.3 551.7 139.9 551.7 667.7 23.7 490.2 23.7" fill="url(#c)"/><polygon points="112.3 23.7 112.3 188 490.2 23.7 112.3 23.7" fill="url(#d)"/><path d="M94.8,542.6a21.3,21.3,0,0,0,2,9.1H905.4a21.3,21.3,0,0,0,2.1-9.1v-9.3H94.8Z" fill="#1b1b1b"/><path d="M475.1,547.3H474v-7.2h0l-3,7.1h-1l-2.9-7.1H467v7.2h-1.1V538h1.4l3.2,7.7h0l3.2-7.7h1.4Zm1.3-2c0-1.2.9-1.9,2.6-2h2v-.6c0-.8-.6-1.3-1.6-1.3a1.6,1.6,0,0,0-1.6,1h-1c0-1.1,1.1-2,2.6-2s2.7.9,2.7,2.2v4.8H481v-1.2h0a2.5,2.5,0,0,1-2.2,1.3A2.2,2.2,0,0,1,476.4,545.3Zm4.6-.7v-.5h-1.8c-1.1.1-1.6.4-1.6,1.1s.5,1.1,1.4,1.1A1.9,1.9,0,0,0,481,544.6Zm7.2-2a1.6,1.6,0,0,0-1.8-1.3c-1.2,0-2,1-2,2.5s.8,2.6,2,2.6a1.7,1.7,0,0,0,1.8-1.3h1.1a2.8,2.8,0,0,1-2.9,2.3c-1.9,0-3.2-1.4-3.2-3.6a3.2,3.2,0,0,1,3.2-3.5,2.7,2.7,0,0,1,2.9,2.3Zm2.3,4.7V538h3.7c1.6,0,2.7.9,2.7,2.3a2.1,2.1,0,0,1-1.6,2h0a2.2,2.2,0,0,1,2,2.3c0,1.6-1.1,2.6-3.1,2.6Zm1.2-5.3h1.9c1.3,0,2.1-.5,2.1-1.6s-.6-1.4-1.8-1.4h-2.2Zm2.3,4.3c1.4,0,2.1-.6,2.1-1.7s-.7-1.6-2.2-1.6h-2.2v3.3Zm4.2-2.5c0-2.1,1.2-3.5,3.2-3.5a3.2,3.2,0,0,1,3.2,3.5c0,2.2-1.3,3.6-3.2,3.6S498.2,546,498.2,543.8Zm5.2,0c0-1.6-.8-2.5-2-2.5s-2.1.9-2.1,2.5.8,2.6,2.1,2.6S503.4,545.4,503.4,543.8Zm2,0c0-2.1,1.2-3.5,3.2-3.5a3.2,3.2,0,0,1,3.2,3.5c0,2.2-1.3,3.6-3.2,3.6S505.4,546,505.4,543.8Zm5.2,0c0-1.6-.7-2.5-2-2.5s-2.1.9-2.1,2.5.8,2.6,2.1,2.6S510.6,545.4,510.6,543.8Zm6.7-3.5h1.3l-3,3,3.1,4h-1.3l-2.6-3.3-.7.7v2.6H513v-9.7h1.1v5.8Zm10.7,4.3h-3.7l-1,2.7h-1.2l3.5-9.3h1.1l3.4,9.3h-1.2Zm-3.4-1h3l-1.5-4.2h0Zm6.4-5.1a.7.7,0,1,1,.7.7A.7.7,0,0,1,531,538.5Zm.1,1.8h1.1v7h-1.1Zm2.7,0h1.1v1.2h0a1.6,1.6,0,0,1,1.7-1.2h.4v1.1h-.6a1.4,1.4,0,0,0-1.5,1.6v4.3h-1.1Z" fill="#bcbcbc"/><rect x="94.8" y="521.3" width="812.6" height="11.98"/><path d="M907.4,23a20,20,0,0,0-2.1-9.1H96.9A21.3,21.3,0,0,0,94.8,23v9.3H907.4Z"/><path d="M0,557.4s22.7,9.4,63.5,13.2c11.7,1.1,16.2,1.6,52.9,1.6h779s88.2-2.8,104.6-14.8c0-3.2-3.7-2.9-3.7-2.9H1.4A4,4,0,0,0,0,557.4Z" fill="url(#e)"/><rect y="551.7" width="1000" height="5.74" fill="url(#f)"/><path d="M415.9,551.7v5.7a22.5,22.5,0,0,1,4.8.5,49.3,49.3,0,0,0,5,1.5l3.3.2H571.8l3.2-.2a50,50,0,0,0,5.1-1.5,21.2,21.2,0,0,1,4.7-.5v-5.7Z" fill="url(#g)"/><path d="M1000,551.7H0v5.7H0s22.7,9.4,63.5,13.2c11.7,1.1,16.2,1.6,52.9,1.6h779s88.2-2.8,104.6-14.8h0Z" fill="#8a8a8a" style="mix-blend-mode:overlay"/><path d="M112.3,32.3H890.7V45.7H112.3Z" fill="#fafafa" fill-opacity="0.8" opacity="0.5"/><path d="M865.7,35.9h1.2v1.3h-1.2Zm2.5,0h8.5v1.3h-8.5Zm-2.5,2.5h1.2v1.2h-1.2Zm2.5,0h6.7v1.2h-6.7Zm-2.5,2.4h1.2V42h-1.2Zm2.5,0h8.5V42h-8.5Z" fill-opacity="0.75"/><path d="M847.5,38.1a3.4,3.4,0,1,1,3.3,3.3A3.4,3.4,0,0,1,847.5,38.1Zm8.2,4.8-2.5-2.5" fill="none" stroke="#000" stroke-width="0.91"/><path d="M799.5,36.6h1.1l1.9,4.9,2-4.9h1.1v6h-.8V37.7l-1.9,4.9h-.7l-1.9-4.9v4.9h-.8Zm7,3.8h0a2,2,0,0,1,.3-1.1,1.6,1.6,0,0,1,.7-.9l1-.2a1.8,1.8,0,0,1,1.5.6,2.4,2.4,0,0,1,.6,1.7h0a2.1,2.1,0,0,1-.3,1.2,1.4,1.4,0,0,1-.7.8,1.7,1.7,0,0,1-1,.3,1.8,1.8,0,0,1-1.5-.6A2.4,2.4,0,0,1,806.5,40.4Zm.8,0a2.1,2.1,0,0,0,.3,1.2,1.4,1.4,0,0,0,1,.5,1.2,1.2,0,0,0,.9-.5,2.3,2.3,0,0,0,.3-1.3,2.7,2.7,0,0,0-.3-1.2,1.3,1.3,0,0,0-1-.4,1.2,1.2,0,0,0-.9.4A2.5,2.5,0,0,0,807.3,40.4Zm4.1,1.8c0-.1.1-.2.2-.3s.2-.1.3-.1h.4a.4.4,0,0,1,.1.3c0,.2,0,.3-.1.4h-.7A.5.5,0,0,1,811.4,42.2Zm7.8-3.1v1a3.7,3.7,0,0,1-.5,2,1.7,1.7,0,0,1-1.4.6,1.6,1.6,0,0,1-1.4-.6,2.9,2.9,0,0,1-.5-1.9V39.1a3.2,3.2,0,0,1,.4-1.9,1.6,1.6,0,0,1,1.5-.7,1.7,1.7,0,0,1,1.4.6A3.4,3.4,0,0,1,819.2,39.1Zm-.8,1.2V39a4.6,4.6,0,0,0-.2-1.4,1.1,1.1,0,0,0-1.8,0,2.3,2.3,0,0,0-.3,1.3v1.3a2.6,2.6,0,0,0,.3,1.4,1.1,1.1,0,0,0,.9.5.9.9,0,0,0,.8-.4A2.6,2.6,0,0,0,818.4,40.3ZM823,40l-.6.4a1,1,0,0,1-.7.2l-.9-.2a1.6,1.6,0,0,1-.6-.8,1.7,1.7,0,0,1-.3-1,2,2,0,0,1,.3-1.1,1.1,1.1,0,0,1,.6-.7,1.7,1.7,0,0,1,1-.3,1.5,1.5,0,0,1,1.4.7,2.4,2.4,0,0,1,.6,1.8v.2a4.3,4.3,0,0,1-.7,2.6,2.9,2.9,0,0,1-2.2.8h-.1V42h.2a2,2,0,0,0,1.4-.5A1.8,1.8,0,0,0,823,40Zm-1.2,0a.9.9,0,0,0,.7-.3,1.2,1.2,0,0,0,.5-.5v-.4a2.1,2.1,0,0,0-.3-1.2c-.3-.3-.5-.5-.9-.5a1.2,1.2,0,0,0-.8.4,1.8,1.8,0,0,0-.3,1.1,1.7,1.7,0,0,0,.3,1A1.2,1.2,0,0,0,821.8,40Zm2.9,2.2c0-.1.1-.2.1-.3h.8c0,.1.1.2.1.3s-.1.3-.1.4h-.8C824.8,42.5,824.7,42.4,824.7,42.2Zm0-3.6c0-.2.1-.3.1-.4h.8c0,.1.1.2.1.4s-.1.2-.1.3h-.8C824.8,38.8,824.7,38.7,824.7,38.6Zm5.1-2v4h.9v.6h-.9v1.4h-.7V41.2h-2.8v-.4l2.7-4.2Zm-.8,1.2-1.8,2.8h1.9V37.8Zm4.8-1.2v6H833V37.5l-1.6.6v-.7l2.2-.8Z"/><path d="M789,35.6a5.3,5.3,0,0,1,1.2,3.3A4.3,4.3,0,0,1,789,42m-2-.9a3.1,3.1,0,0,0,.9-2.1,2.6,2.6,0,0,0-.9-2.1" fill="none" stroke="#000" stroke-linecap="round" stroke-width="0.61"/><path d="M781.2,37.2H783l2.5-1.9h0v7.3h0L783,40.8h-1.8a.6.6,0,0,1-.6-.6V37.8A.6.6,0,0,1,781.2,37.2Z"/><path d="M762.2,37.1a8.5,8.5,0,0,1,5.9-2.4,8.3,8.3,0,0,1,5.9,2.4m-1.7,1.7a6.3,6.3,0,0,0-4.2-1.6,6,6,0,0,0-4.1,1.6m6.6,1.7a3.7,3.7,0,0,0-2.5-.9,3.6,3.6,0,0,0-2.4.9" fill="none" stroke="#000" stroke-linecap="square" stroke-width="0.73"/><path d="M768.1,43.2l1.2-.9a1.6,1.6,0,0,0-1.2-.6,1.7,1.7,0,0,0-1.2.6Z"/><path d="M747.5,40.2a.9.9,0,0,0,0-1.8.9.9,0,1,0,0,1.8Zm2.4,0a.9.9,0,1,0-.9-.9A.9.9,0,0,0,749.9,40.2Zm2.4,0a.9.9,0,1,0-.9-.9A.9.9,0,0,0,752.3,40.2Z"/><path d="M750.8,40.2l1.5,1.2-2.4,2.1v-3m.9-2.1,1.5-1.2L749.9,35v3.1m-2.8-1.2,1.9,1.5m-1.9,3.3,1.9-1.5" fill="none" stroke="#000" stroke-width="0.61" opacity="0.5" style="isolation:isolate"/><path d="M130.4,35a2,2,0,0,0,.6-1.5,2.3,2.3,0,0,0-1.5.7,2.1,2.1,0,0,0-.5,1.5A1.4,1.4,0,0,0,130.4,35Zm.5.9a10.1,10.1,0,0,0-1.8.4c-.4,0-1-.5-1.6-.4a2.6,2.6,0,0,0-2.1,1.2,3.3,3.3,0,0,0-.4,1.7,7.5,7.5,0,0,0,1,3.2c.5.6.9,1.2,1.6,1.2s.8-.4,1.6-.4,1,.4,1.6.4,1.1-.6,1.5-1.2.6-1.3.7-1.3a2.4,2.4,0,0,1-1.4-2,2.5,2.5,0,0,1,1.1-1.9A2.2,2.2,0,0,0,130.9,35.9Z" fill="#474747" fill-rule="evenodd"/><path d="M178.6,39.2v.9h-2.5v2.5h-1v-6h3.8v.8h-2.8v1.8Zm2-1.1v4.5h-1V38.1ZM179.5,37a.5.5,0,0,1,.2-.4l.4-.2a.7.7,0,0,1,.6.6c0,.1-.1.2-.2.4h-.8C179.6,37.2,179.5,37.1,179.5,37Zm3.1-.7v6.3h-1V36.3Zm3,6.4a2.1,2.1,0,0,1-2.2-2.2h0a2.1,2.1,0,0,1,.3-1.2,1.6,1.6,0,0,1,.7-.9l1-.2a2.3,2.3,0,0,1,1.5.5,2.9,2.9,0,0,1,.5,1.7v.4h-3a1.9,1.9,0,0,0,.4.9,1.1,1.1,0,0,0,.8.3,1.3,1.3,0,0,0,1.1-.5l.6.5c-.2.2-.4.5-.7.6Zm-.2-3.8a.7.7,0,0,0-.6.3,1.5,1.5,0,0,0-.4.8h2c-.1-.3-.1-.6-.3-.8Zm15.5.2v.8h-2.5v1.9h3v.8h-4v-6h3.9v.8h-2.9v1.7Zm.8,1.3a2.9,2.9,0,0,1,.5-1.7,1.5,1.5,0,0,1,1.3-.6,1.2,1.2,0,0,1,1.1.5V36.3h1v6.3h-.9v-.4a1.7,1.7,0,0,1-1.2.5,1.5,1.5,0,0,1-1.3-.6A2.9,2.9,0,0,1,201.7,40.4Zm1,0a1.6,1.6,0,0,0,.3,1.1.7.7,0,0,0,.7.4,1,1,0,0,0,.9-.6V39.4a1.1,1.1,0,0,0-.9-.5.8.8,0,0,0-.7.4A1.6,1.6,0,0,0,202.7,40.4Zm4.9-2.3v4.5h-1V38.1Zm-1-1.1c0-.2,0-.3.1-.4l.4-.2a.7.7,0,0,1,.6.6c0,.1-.1.2-.2.4h-.8A.8.8,0,0,1,206.6,37Zm2.2,0h1v1.1h.8v.8h-.8v2.5c0,.2.1.3.1.4h.8v.8H210c-.8,0-1.2-.4-1.2-1.3V38.9h-.7v-.8h.7Zm12.5-.4,1.5,4.7,1.5-4.7h1.2l-2.2,6h-1l-2.2-6Zm5.7,1.5v4.5h-1V38.1ZM225.9,37a.5.5,0,0,1,.2-.4l.4-.2.4.2a.5.5,0,0,1,.2.4c0,.1-.1.2-.2.4h-.8C226,37.2,225.9,37.1,225.9,37Zm4,5.7a2,2,0,0,1-1.5-.6,2.1,2.1,0,0,1-.6-1.6h0a3.7,3.7,0,0,1,.2-1.2,2.4,2.4,0,0,1,.8-.9l1-.2a2,2,0,0,1,1.4.5,2.3,2.3,0,0,1,.5,1.7v.4h-2.9a1.3,1.3,0,0,0,.4.9,1.1,1.1,0,0,0,.8.3,1.4,1.4,0,0,0,1.1-.5l.6.5a2.4,2.4,0,0,1-.8.6Zm-.1-3.8a.9.9,0,0,0-.7.3,3.4,3.4,0,0,0-.3.8h1.9a1.9,1.9,0,0,0-.2-.8Zm5.6-.8.9,3.1.7-3.1h1l-1.2,4.5H236l-1-3.1-.9,3.1h-.9L232,38.1h1l.7,3.1.9-3.1Zm16.2-1.5,1.1,4.5.9-4.5h1.1l-1.4,6h-1l-1.2-4.4-1.2,4.4h-1l-1.4-6h1.1l.9,4.5,1.2-4.5Zm4.7,1.5v4.5h-1V38.1ZM255.2,37a.6.6,0,0,1,1.2,0c0,.1-.1.2-.2.4h-.8C255.3,37.2,255.2,37.1,255.2,37Zm2,1.1h1v.6a1.6,1.6,0,0,1,1.3-.6c1,0,1.4.5,1.4,1.6v2.9h-1V39.7c0-.3,0-.5-.2-.6l-.6-.2a1.1,1.1,0,0,0-.9.5v3.2h-1Zm4.4,2.3a2.9,2.9,0,0,1,.5-1.7,1.6,1.6,0,0,1,1.3-.6,1.3,1.3,0,0,1,1.2.5V36.3h1v6.3h-.9v-.4a1.7,1.7,0,0,1-1.2.5,1.8,1.8,0,0,1-1.3-.6A2.9,2.9,0,0,1,261.6,40.4Zm1,0a1.6,1.6,0,0,0,.3,1.1.8.8,0,0,0,.8.4,1,1,0,0,0,.9-.6V39.4a1.1,1.1,0,0,0-.9-.5.8.8,0,0,0-.8.4A1.6,1.6,0,0,0,262.6,40.4Zm3.7,0h0a2,2,0,0,1,.3-1.1,1.6,1.6,0,0,1,.7-.9l1.1-.2a2.5,2.5,0,0,1,1.5.5,3.4,3.4,0,0,1,.6,1.6v.2a2.1,2.1,0,0,1-.3,1.2,1.4,1.4,0,0,1-.7.8,2.2,2.2,0,0,1-2.6-.3A2.4,2.4,0,0,1,266.3,40.4Zm1,0a1.6,1.6,0,0,0,.3,1.1,1,1,0,0,0,1.6,0,1.9,1.9,0,0,0,.3-1.2,1.5,1.5,0,0,0-.3-1,1,1,0,0,0-1.6,0A1.6,1.6,0,0,0,267.3,40.4Zm6.9-2.3.9,3.1.8-3.1h.9l-1.2,4.5h-.8l-1-3.1-.9,3.1H272l-1.2-4.5h1l.7,3.1.9-3.1Zm17.4-1.5v6h-1.1V39.9h-2.7v2.7h-1v-6h1v2.5h2.7V36.6Zm3,6.1a2.1,2.1,0,0,1-2.2-2.2h0a2.1,2.1,0,0,1,.3-1.2,1.6,1.6,0,0,1,.7-.9l1-.2a2.3,2.3,0,0,1,1.5.5,2.9,2.9,0,0,1,.5,1.7v.4h-3a1.9,1.9,0,0,0,.4.9,1.1,1.1,0,0,0,.8.3,1.3,1.3,0,0,0,1.1-.5l.6.5c-.2.2-.4.5-.7.6Zm-.2-3.8a.7.7,0,0,0-.6.3,1.5,1.5,0,0,0-.4.8h2l-.3-.8Zm3.7-2.6v6.3h-1V36.3Zm4.9,4.1h0a2.9,2.9,0,0,1-.5,1.7,1.5,1.5,0,0,1-1.3.6,1.3,1.3,0,0,1-1.2-.5v2.2h-1V38.1h1v.5a1.3,1.3,0,0,1,1.2-.5,1.5,1.5,0,0,1,1.3.6A2.6,2.6,0,0,1,303,40.4Zm-1-.1a1.5,1.5,0,0,0-.3-1,.8.8,0,0,0-.8-.4,1.1,1.1,0,0,0-.9.5v2a1.1,1.1,0,0,0,.9.5.8.8,0,0,0,.8-.4A1.7,1.7,0,0,0,302,40.3ZM149.1,36.4l-.4.2c-.1.1-.1.2-.1.4a.8.8,0,0,0,.1.4h.9a.8.8,0,0,0,.1-.4c0-.2,0-.3-.1-.4Zm-.5,6.2h1V38.1h-1Zm-4.5,0h1.1V40.1h2.4v-.9h-2.4V37.4H148v-.8h-3.9Zm13.9-4a1.3,1.3,0,0,0-1.1-.5,1.5,1.5,0,0,0-1.3.6,2.3,2.3,0,0,0-.5,1.7,2.3,2.3,0,0,0,.5,1.7,1.5,1.5,0,0,0,1.3.6,1.7,1.7,0,0,0,1.2-.5v.4h.9V36.3h-1Zm0,2.7a1,1,0,0,1-.9.6.7.7,0,0,1-.7-.4,2.2,2.2,0,0,1,0-2.2.7.7,0,0,1,.7-.4,1.1,1.1,0,0,1,.9.5Zm-5-3.2a1.8,1.8,0,0,0-1.4.6v-.6h-.9v4.5h1V39.4a1.1,1.1,0,0,1,.9-.5.7.7,0,0,1,.8.8v2.9h1V39.7C154.4,38.6,153.9,38.1,153,38.1Zm8.8,0-1.1.2a2.2,2.2,0,0,0-.7.9,2.1,2.1,0,0,0-.3,1.2h0a2.1,2.1,0,0,0,.6,1.6,2.3,2.3,0,0,0,1.6.6l1-.2a1.4,1.4,0,0,0,.7-.6l-.5-.5a1.6,1.6,0,0,1-1.1.5,1.4,1.4,0,0,1-.9-.3,1.2,1.2,0,0,1-.3-.9h2.9v-.4a2.9,2.9,0,0,0-.5-1.7A2,2,0,0,0,161.8,38.1Zm.9,1.9h-1.9a1,1,0,0,1,.3-.8.9.9,0,0,1,.7-.3l.6.2a1.1,1.1,0,0,1,.3.8Zm3.9-1.8h-.5a1,1,0,0,0-.5.6v-.6h-1.1v4.4h1V41.3c0-.7.1-1.2.1-1.5l.4-.5h.4l.6.2.3-1A1,1,0,0,0,166.6,38.2Z" fill="#484848"/><rect x="406.6" y="488.7" width="193" height="29.02" rx="7.3" fill="#fafafa" fill-opacity="0.8" opacity="0.5"/><path d="M422.4,516.7a1,1,0,0,0,1-1,1,1,0,0,0-1-1.1,1.1,1.1,0,0,0-1,1.1A1.1,1.1,0,0,0,422.4,516.7Z"/><path d="M499.7,516.7a1,1,0,0,0,1-1,1,1,0,1,0-2,0A1,1,0,0,0,499.7,516.7Z"/><path d="M543,491.6h.5v23.2H543Z" fill="#565b75"/><rect x="412.5" y="492.4" width="19.9" height="19.86" rx="4.7" fill="url(#h)"/><path d="M427.7,492.4h-4.9a19.6,19.6,0,0,0-1.9,6.5,30.9,30.9,0,0,0-.4,5h3.1s.1,3.1.2,4.4.4,3,.6,3.9h3.3a4.6,4.6,0,0,0,4.7-4.6V497A4.7,4.7,0,0,0,427.7,492.4Z" fill="#dce0eb"/><path d="M418.1,497.8v1.3" fill="none" stroke="#000" stroke-linecap="round" stroke-opacity="0.8" stroke-width="0.84"/><path d="M426.7,497.8v1.3" fill="none" stroke="#000" stroke-linecap="round" stroke-opacity="0.8" stroke-width="0.84"/><path d="M416.8,504.6s1.6,2.3,5.6,2.3a6.9,6.9,0,0,0,5.6-2.4" fill="none" stroke="#000" stroke-linecap="round" stroke-opacity="0.8" stroke-width="0.7"/><rect x="438.2" y="492.4" width="19.9" height="19.86" rx="4.7" fill="url(#i)"/><path d="M456.6,502.3a8.5,8.5,0,0,1-8.5,8.5h0a8.5,8.5,0,0,1-8.5-8.5h0a8.5,8.5,0,0,1,8.5-8.5h0a8.5,8.5,0,0,1,8.5,8.5Z" fill="url(#j)"/><path d="M448.1,494.5v1.3m0,14.3v-1.3m.8-14.3v.6m-1.6,15v-.6m8.8-7.2h-1.4m-14.7,0h1.4m14.6.8h-.6m-15.3-1.5h.5m13.1-4.8-1,.9m-10.3,10.1.9-.9m10.9-9.6-.4.4m-12,9.6.5-.4m11.4.9-1-.9m-10.3-10.1.9.9m9.8,10.7-.3-.5M443,496.3l.4.4m7.8-1.6-.5,1.2m-5.6,13.2.5-1.2m6.3-12.9-.3.5m-7.2,13.3.2-.5m10.9-3.4-1.2-.5m-13.6-5.5,1.3.5m13.2,6.2-.5-.3m-13.6-7.1.5.3m13.9.4-1.2.5m-13.6,5.5,1.3-.5m13.8-4.8-.5.2m-14.8,4.4.5-.2m10.2,5.1-.5-1.2m-5.6-13.2.5,1.2m4.9,13.5-.2-.5m-4.5-14.5.2.6m3.7-.8-.3,1.3M446.6,510l.2-1.3m3.7-13.9-.2.6m-4.5,14.4.2-.5m10-5.5-1.3-.2m-14.4-2.8,1.3.2m14.2,3.6-.5-.2M440.5,500l.5.2m13.8-2.2-1.1.7m-12.2,8,1.1-.8m12.6-7.3-.5.3M441.1,506l.5-.3m11,3.1-.8-1.1m-8.1-11.9.7,1.1m7.5,12.3-.3-.5m-7.2-13.3.2.5m8-.1-.8,1.1m-8.1,11.9.7-1.1m8.8-11.4-.3.4M443,508.4l.4-.5m11.4-1.2-1.1-.8M441.5,498l1.1.7m11.7,8.6-.4-.4m-12-9.6.5.4m13.6,3.1-1.3.2m-14.4,2.8,1.3-.2m14.5-2.1h-.6m-15.3,1.5h.5m9,7-.3-1.3m-2.8-14.1.2,1.3m2.1,14.2v-.6m-1.5-15v.6" fill="none" stroke="#fff" stroke-linecap="round" stroke-miterlimit="2.68" stroke-width="0.25"/><path d="M453.9,497.4l-6.7,3.9-4.3,6.7,6.2-4.6Z" opacity="0.41" style="isolation:isolate"/><path d="M449.1,503.3l-1.9-2,6.9-4.6Z" fill="#ff5150"/><path d="M449.1,503.3l-1.9-2-5,6.7Z" fill="#f1f1f1"/><path d="M442.2,508l6.9-4.7,5-6.6Z" opacity="0.24" style="isolation:isolate"/><rect x="463.9" y="492.4" width="19.9" height="19.86" rx="4.5" fill="url(#k)"/><path d="M468.4,492.4h10.8a4.5,4.5,0,0,1,4.5,4.5v.5a0,0,0,0,1,0,0H463.9a0,0,0,0,1,0,0v-.5A4.5,4.5,0,0,1,468.4,492.4Z" fill="url(#l)"/><rect x="463.9" y="497.4" width="19.9" height="0.79" fill="url(#m)"/><line x1="464.2" y1="498.4" x2="483.5" y2="498.4" fill="#c7c7cc"/><line x1="464.2" y1="498.4" x2="464.2" y2="498.4" fill="none" stroke="#d1d3d4" stroke-linecap="round" stroke-linejoin="round" stroke-width="0.4"/><line x1="465" y1="498.4" x2="483.1" y2="498.4" fill="none" stroke-dasharray="0 0.84" stroke-linecap="round" stroke-linejoin="round" stroke-width="0.4" stroke="#d1d3d4"/><line x1="483.5" y1="498.4" x2="483.5" y2="498.4" fill="none" stroke="#d1d3d4" stroke-linecap="round" stroke-linejoin="round" stroke-width="0.4"/><path d="M463.9,502.3h19.9m-19.9,5h19.9" fill="none" stroke="#bcbec0" stroke-miterlimit="10" stroke-width="0.22"/><rect x="491.7" y="494.6" width="15.7" height="15.73" rx="2.7" fill="#262626"/><path d="M504.8,494.6a2.7,2.7,0,0,1,2.6,2.7v10.4a2.7,2.7,0,0,1-2.6,2.7H494.4a2.7,2.7,0,0,1-2.7-2.7V497.3a2.7,2.7,0,0,1,2.7-2.7h10.4m0-2H494.4a4.7,4.7,0,0,0-4.7,4.7v10.4a4.7,4.7,0,0,0,4.7,4.7h10.4a4.7,4.7,0,0,0,4.6-4.7V497.3a4.7,4.7,0,0,0-4.6-4.7Z" fill="url(#n)"/><path d="M504.8,494.6a2.7,2.7,0,0,1,2.6,2.7v10.4a2.7,2.7,0,0,1-2.6,2.7H494.4a2.7,2.7,0,0,1-2.7-2.7V497.3a2.7,2.7,0,0,1,2.7-2.7h10.4m0-1.4H494.4a4.1,4.1,0,0,0-4.1,4.1v10.4a4.1,4.1,0,0,0,4.1,4.1h10.4a4.1,4.1,0,0,0,4.1-4.1V497.3a4.2,4.2,0,0,0-4.1-4.1Z"/><path d="M499.3,500.3v-.6h-2.8v.6Zm-3.4-2.2v-.7l-2.6-1.2v.8l1.7.8-1.7.7v.9Z" fill="#fff" fill-rule="evenodd"/><path d="M520,492.6h10.6a4.7,4.7,0,0,1,4.7,4.7v10.6a4.6,4.6,0,0,1-4.6,4.6H520a4.6,4.6,0,0,1-4.6-4.6V497.2A4.6,4.6,0,0,1,520,492.6Z" fill="#fff"/><path d="M522.7,497.3l6.4-1.3c.3-.1.5.2.5.5V506a1.8,1.8,0,0,1-1.6,1.7c-1.5.3-1.9-.4-2-.8a1.6,1.6,0,0,1,.2-1.6,2.4,2.4,0,0,1,1.3-.7c.3,0,1,0,1.2-.3s.1-.8.1-.8v-3.8a.6.6,0,0,0-.6-.5l-4.8,1a.5.5,0,0,0-.4.5v6a2.7,2.7,0,0,1-.2,1.3,1.4,1.4,0,0,1-.8.9,2.7,2.7,0,0,1-1.8.1,1.4,1.4,0,0,1-.9-1.3,1.2,1.2,0,0,1,.5-1.2,4.4,4.4,0,0,1,1.6-.6c.4-.1.7,0,.8-.6s.1-6,0-7.6A.4.4,0,0,1,522.7,497.3Z" fill="url(#o)"/><rect x="549.3" y="492.4" width="19.9" height="19.86" rx="4.7" fill="#dbdbdb"/><rect x="554.1" y="494.9" width="10.2" height="14.82" rx="1.3" fill="url(#p)"/><path d="M555.1,507.6a1,1,0,0,1,1.1-1h2.9a1,1,0,0,1,0,2h-2.9A1,1,0,0,1,555.1,507.6Z" fill="url(#q)"/><rect x="555.1" y="496.1" width="8.1" height="3.44" rx="0.7" fill="#6f6f6f"/><circle cx="562.2" cy="507.6" r="1" fill="url(#r)"/><circle cx="562.2" cy="504.6" r="1" fill="url(#s)"/><circle cx="562.2" cy="501.5" r="1" fill="url(#t)"/><path d="M560.2,504.6a1,1,0,1,1-2,0,1,1,0,1,1,2,0Zm-4-1.1a1.1,1.1,0,0,0-1.1,1.1,1.1,1.1,0,0,0,1.1,1,1.1,1.1,0,0,0,1-1A1.1,1.1,0,0,0,556.2,503.5Z" fill="url(#u)"/><path d="M557.2,501.5a1,1,0,0,1-1,1,1,1,0,0,1-1.1-1,1.1,1.1,0,0,1,1.1-1A1.1,1.1,0,0,1,557.2,501.5Zm2-1a1,1,0,0,0-1,1,1,1,0,0,0,2,0A1,1,0,0,0,559.2,500.5Z" fill="url(#v)"/><rect x="575" y="492.6" width="19.9" height="19.86" rx="4.7" fill="url(#w)"/><path d="M588.9,504.2h2.4a.9.9,0,1,1,0,1.8H590l.9,1.6a.9.9,0,0,1-.4,1.2,1,1,0,0,1-1.2-.3l-3.3-5.8a2.4,2.4,0,0,1,.3-3.1h0l2.6,4.6Zm-7.5,2.8-.8,1.3s-.5.9-1.3.5a1,1,0,0,1-.4-1.1l.7-1.3h0a1.8,1.8,0,0,1,1.8.6Zm3.5-9.7h0l-.4-.7a.9.9,0,0,0-1.2-.4,1,1,0,0,0-.3,1.3l.9,1.6h0l-3,5.1h-2.3a.9.9,0,1,0,0,1.8h8.3a1.3,1.3,0,0,0-1.1-1.8H583l3.9-6.7a1,1,0,0,0-.3-1.3,1,1,0,0,0-1.3.4Z" fill="#f2f2f2"/></g></svg>