<svg xmlns="http://www.w3.org/2000/svg" xmlns:xlink="http://www.w3.org/1999/xlink" viewBox="0 0 491.7 1000"><filter id="a" width="21.5" height="32766" x="12.9" y="-8639.2" color-interpolation-filters="sRGB" filterUnits="userSpaceOnUse"><feFlood flood-color="#fff" result="bg"/><feBlend in="SourceGraphic" in2="bg"/></filter><linearGradient id="j" x1="12.9" x2="33.8" y1="499" y2="499" gradientUnits="userSpaceOnUse"><stop offset="0" stop-color="#fff"/><stop offset=".2" stop-color="#888"/><stop offset=".8"/></linearGradient><filter id="b" width="447.4" height="32766" x="21" y="-8639.2" color-interpolation-filters="sRGB" filterUnits="userSpaceOnUse"><feFlood flood-color="#fff" result="bg"/><feBlend in="SourceGraphic" in2="bg"/></filter><linearGradient id="g" x1="-2275" x2="-2275" y1="10.9" y2="-2.7" gradientTransform="rotate(180 -1015.1 499.6)" gradientUnits="userSpaceOnUse"><stop offset="0"/><stop offset="1" stop-color="#fff"/></linearGradient><filter id="c" width="21.5" height="32766" x="454" y="-8639.2" color-interpolation-filters="sRGB" filterUnits="userSpaceOnUse"><feFlood flood-color="#fff" result="bg"/><feBlend in="SourceGraphic" in2="bg"/></filter><linearGradient id="e" x1="-2374.9" x2="-2354" y1="302.6" y2="302.6" gradientTransform="rotate(180 -949.8 400.8)" gradientUnits="userSpaceOnUse"><stop offset="0" stop-color="#fff"/><stop offset="1"/></linearGradient><filter id="d" width="18.6" height="32766" x="1.8" y="-8639.2" color-interpolation-filters="sRGB" filterUnits="userSpaceOnUse"><feFlood flood-color="#fff" result="bg"/><feBlend in="SourceGraphic" in2="bg"/></filter><linearGradient id="o" x1="1.8" x2="19.9" y1="500.2" y2="500.2" xlink:href="#e"/><filter id="f" width="18.6" height="32766" x="469.1" y="-8639.2" color-interpolation-filters="sRGB" filterUnits="userSpaceOnUse"><feFlood flood-color="#fff" result="bg"/><feBlend in="SourceGraphic" in2="bg"/></filter><linearGradient id="s" x1="-2426.8" x2="-2408.7" y1="302.6" y2="302.6" gradientTransform="rotate(180 -969.5 401.4)" xlink:href="#e"/><linearGradient id="v" x1="244.7" x2="244.7" y1="11.8" y2="-1.9" xlink:href="#g"/><linearGradient id="y" x1="198.3" x2="287" y1="923.3" y2="948.6" gradientUnits="userSpaceOnUse"><stop offset="0" stop-color="#fff"/><stop offset=".1" stop-color="#303030"/><stop offset="1" stop-color="#303030"/><stop offset="1" stop-color="#fff"/></linearGradient><filter id="h" width="21.5" height="965.9" x="12.9" y="16.1" color-interpolation-filters="sRGB" filterUnits="userSpaceOnUse"><feFlood flood-color="#fff" result="bg"/><feBlend in="SourceGraphic" in2="bg"/></filter><mask id="z" width="21.5" height="965.9" x="12.9" y="16.1" maskUnits="userSpaceOnUse"><g filter="url(#h)" mask="url(#i)"><path fill="url(#j)" d="M22.8 956.6c-.5-8.8-.5-906.4 0-915.2a30.5 30.5 0 015-15.9c3.9-5.7 6.9-7 6.5-8.8s-6.4.1-9.8 2.7a29.8 29.8 0 00-11.3 22.5c-.4 15.4-.4 898.8 0 914.2a30.1 30.1 0 0011.3 22.6c3.4 2.5 9.5 4.3 9.8 2.6s-2.6-3.1-6.5-8.8a30.3 30.3 0 01-5-15.9z"/></g></mask><linearGradient id="A" x1="12.9" x2="33.8" y1="499" y2="499" gradientUnits="userSpaceOnUse"><stop offset="0" stop-color="#fff"/><stop offset=".2" stop-color="#fff"/><stop offset=".8" stop-color="#fff"/></linearGradient><filter id="k" width="21.5" height="965.9" x="454" y="16.1" color-interpolation-filters="sRGB" filterUnits="userSpaceOnUse"><feFlood flood-color="#fff" result="bg"/><feBlend in="SourceGraphic" in2="bg"/></filter><mask id="B" width="21.5" height="965.9" x="454" y="16.1" maskUnits="userSpaceOnUse"><g filter="url(#k)" mask="url(#l)"><path fill="url(#e)" d="M465.5 41.4c.5 8.8.5 906.4 0 915.2a30.3 30.3 0 01-5 15.9c-3.9 5.7-6.8 7.1-6.5 8.8s6.5-.1 9.8-2.7a29.4 29.4 0 0011.3-22.5c.4-15.4.4-898.8 0-914.2a29.5 29.5 0 00-11.3-22.5c-3.3-2.6-9.5-4.4-9.8-2.7s2.6 3.1 6.5 8.8a30.5 30.5 0 015 15.9z"/></g></mask><linearGradient id="p" x1="-2374.9" x2="-2354" y1="302.6" y2="302.6" gradientTransform="rotate(180 -949.8 400.8)" gradientUnits="userSpaceOnUse"><stop offset="0" stop-color="#fff"/><stop offset="1" stop-color="#fff"/></linearGradient><filter id="m" width="18.6" height="974" x="1.8" y="13.2" color-interpolation-filters="sRGB" filterUnits="userSpaceOnUse"><feFlood flood-color="#fff" result="bg"/><feBlend in="SourceGraphic" in2="bg"/></filter><mask id="C" width="18.6" height="974" x="1.8" y="13.2" maskUnits="userSpaceOnUse"><g filter="url(#m)" mask="url(#n)"><path fill="url(#o)" d="M20.4 13.2S1.8 24.5 1.8 46.5v909s.4 16.8 16.4 31.7c-6.4-10.8-12.1-14.7-12.1-37.4l.2-903.7s-.8-19.7 14.1-32.9z"/></g></mask><linearGradient id="D" x1="1.8" x2="19.9" y1="500.2" y2="500.2" xlink:href="#p"/><filter id="q" width="18.6" height="974" x="469.1" y="13.2" color-interpolation-filters="sRGB" filterUnits="userSpaceOnUse"><feFlood flood-color="#fff" result="bg"/><feBlend in="SourceGraphic" in2="bg"/></filter><mask id="E" width="18.6" height="974" x="469.1" y="13.2" maskUnits="userSpaceOnUse"><g filter="url(#q)" mask="url(#r)"><path fill="url(#s)" d="M469.1 987.2s18.6-11.2 18.6-33.3v-909s-.4-16.8-16.3-31.7c6.3 10.9 12 14.7 12 37.4l-.2 903.7s.8 19.7-14.1 32.9z"/></g></mask><linearGradient id="F" x1="-2426.8" x2="-2408.7" y1="302.6" y2="302.6" gradientTransform="rotate(180 -969.5 401.4)" xlink:href="#p"/><filter id="t" width="447.4" height="13.2" x="21" y="1.1" color-interpolation-filters="sRGB" filterUnits="userSpaceOnUse"><feFlood flood-color="#fff" result="bg"/><feBlend in="SourceGraphic" in2="bg"/></filter><mask id="G" width="447.4" height="13.2" x="21" y="1.1" maskUnits="userSpaceOnUse"><g filter="url(#t)" mask="url(#u)"><path fill="url(#v)" d="M21 12.2s3-5.5 32.6-5.8 391.3 0 391.3 0 9.4-2 23.5 7.9c-.5-5.2-14.2-13.2-38-13.2H52.7S28.2 1.1 21 12.2z"/></g></mask><linearGradient id="H" x1="244.7" x2="244.7" y1="11.8" y2="-1.9" xlink:href="#p"/><filter id="w" width="447.4" height="13.2" x="21" y="985.9" color-interpolation-filters="sRGB" filterUnits="userSpaceOnUse"><feFlood flood-color="#fff" result="bg"/><feBlend in="SourceGraphic" in2="bg"/></filter><mask id="I" width="447.4" height="13.2" x="21" y="985.9" maskUnits="userSpaceOnUse"><g filter="url(#w)" mask="url(#u)"><path fill="url(#g)" d="M468.4 988s-3.1 5.5-32.7 5.8-391.3 0-391.3 0-9.3 1.9-23.4-7.9c.5 5.2 14.1 13.2 37.9 13.2h377.8s24.5 0 31.7-11.1z"/></g></mask><linearGradient id="J" x1="-2275" x2="-2275" y1="10.9" y2="-2.7" gradientTransform="rotate(180 -1015.1 499.6)" xlink:href="#p"/><linearGradient id="K" x1="150.9" x2="150.9" y1="61.9" y2="52.1" gradientUnits="userSpaceOnUse"><stop offset="0" stop-color="#3b3b3b"/><stop offset="1" stop-color="#161616"/></linearGradient><linearGradient id="x" x1="360.4" x2="436.4" y1="54.5" y2="54.5" gradientUnits="userSpaceOnUse"><stop offset="0" stop-color="#858585"/><stop offset="1" stop-color="#575757"/></linearGradient><linearGradient id="L" x1="360.4" x2="436.4" y1="54.5" y2="54.5" xlink:href="#x"/><linearGradient id="M" x1="360.4" x2="436.4" y1="54.5" y2="54.5" xlink:href="#x"/><linearGradient id="N" x1="360.3" x2="436.4" y1="54.5" y2="54.5" xlink:href="#x"/><linearGradient id="O" x1="360.4" x2="436.4" y1="54.5" y2="54.5" xlink:href="#x"/><radialGradient id="P" cx="245.8" cy="677.9" r="216.4" gradientTransform="matrix(1 0 0 .68 -1.2 209.4)" gradientUnits="userSpaceOnUse"><stop offset="0" stop-color="#1c3192"/><stop offset="1" stop-color="#00257e"/></radialGradient><linearGradient id="Q" x1="243.7" x2="243.7" y1="723.1" y2="99.5" gradientUnits="userSpaceOnUse"><stop offset="0" stop-color="#ffd03b"/><stop offset="1" stop-color="#d19918"/></linearGradient><linearGradient id="R" x1="197.6" x2="464.7" y1="565.4" y2="565.4" gradientUnits="userSpaceOnUse"><stop offset="0" stop-color="#149bd4"/><stop offset="1" stop-color="#0f55a8"/></linearGradient><linearGradient id="S" x1="31.5" x2="197.6" y1="469.9" y2="469.9" gradientUnits="userSpaceOnUse"><stop offset="0" stop-color="#0356bb"/><stop offset="1" stop-color="#037bd2"/></linearGradient><linearGradient id="T" x1="481.4" x2="326.8" y1="195.8" y2="463.7" gradientUnits="userSpaceOnUse"><stop offset="0" stop-color="#021c55"/><stop offset="1" stop-color="#042e8e"/></linearGradient><linearGradient id="U" x1="333.5" x2="339.6" y1="703.9" y2="695.8" gradientUnits="userSpaceOnUse"><stop offset="0" stop-color="#00225c" stop-opacity="0"/><stop offset=".2" stop-color="#00225c" stop-opacity=".1"/><stop offset=".4" stop-color="#00225c" stop-opacity=".2"/><stop offset=".7" stop-color="#00225c" stop-opacity=".5"/><stop offset=".9" stop-color="#00225c" stop-opacity=".8"/><stop offset="1" stop-color="#00225c"/></linearGradient><rect width="487" height="994.8" x="1.3" y="2.6" rx="48"/><path fill="#6b6b6b" d="M441.3 0H48.2A48.2 48.2 0 000 48.2v903.6a48.2 48.2 0 0048.2 48.2h393.1a48.2 48.2 0 0048.2-48.2V48.2A48.2 48.2 0 00441.3 0zm38.5 951.8a38.6 38.6 0 01-38.5 38.5H48.2a38.6 38.6 0 01-38.5-38.5V48.2A38.6 38.6 0 0148.2 9.7h393.1a38.6 38.6 0 0138.5 38.5z"/><rect width="94.9" height="29.1" x="196.2" y="921.7" fill="url(#y)" rx="9"/><rect width="92.7" height="27" x="197.3" y="922.7" rx="7.9"/><g mask="url(#z)"><path fill="url(#A)" d="M22.8 956.6c-.5-8.8-.5-906.4 0-915.2a30.5 30.5 0 015-15.9c3.9-5.7 6.9-7 6.5-8.8s-6.4.1-9.8 2.7a29.8 29.8 0 00-11.3 22.5c-.4 15.4-.4 898.8 0 914.2a30.1 30.1 0 0011.3 22.6c3.4 2.5 9.5 4.3 9.8 2.6s-2.6-3.1-6.5-8.8a30.3 30.3 0 01-5-15.9z" opacity=".6"/></g><g mask="url(#B)"><path fill="url(#p)" d="M465.5 41.4c.5 8.8.5 906.4 0 915.2a30.3 30.3 0 01-5 15.9c-3.9 5.7-6.8 7.1-6.5 8.8s6.5-.1 9.8-2.7a29.4 29.4 0 0011.3-22.5c.4-15.4.4-898.8 0-914.2a29.5 29.5 0 00-11.3-22.5c-3.3-2.6-9.5-4.4-9.8-2.7s2.6 3.1 6.5 8.8a30.5 30.5 0 015 15.9z" opacity=".6"/></g><g mask="url(#C)"><path fill="url(#D)" d="M20.4 13.2S1.8 24.5 1.8 46.5v909s.4 16.8 16.4 31.7c-6.4-10.8-12.1-14.7-12.1-37.4l.2-903.7s-.8-19.7 14.1-32.9z"/></g><g mask="url(#E)"><path fill="url(#F)" d="M469.1 987.2s18.6-11.2 18.6-33.3v-909s-.4-16.8-16.3-31.7c6.3 10.9 12 14.7 12 37.4l-.2 903.7s.8 19.7-14.1 32.9z"/></g><g mask="url(#G)"><path fill="url(#H)" d="M21 12.2s3-5.5 32.6-5.8 391.3 0 391.3 0 9.4-2 23.5 7.9c-.5-5.2-14.2-13.2-38-13.2H52.7S28.2 1.1 21 12.2z"/></g><g mask="url(#I)"><path fill="url(#J)" d="M468.4 988s-3.1 5.5-32.7 5.8-391.3 0-391.3 0-9.3 1.9-23.4-7.9c.5 5.2 14.1 13.2 37.9 13.2h377.8s24.5 0 31.7-11.1z"/></g><path fill="url(#K)" d="M163 53.2A12.2 12.2 0 11150.9 41 12.2 12.2 0 01163 53.2z"/><path fill="#141414" d="M156.1 53.2a5.2 5.2 0 11-5.2-5.2 5.2 5.2 0 015.2 5.2z"/><circle cx="150.9" cy="53.2" r="3.9" fill="#2a2a2a"/><path fill="#131313" d="M153.6 53.2a2.7 2.7 0 11-2.7-2.7 2.7 2.7 0 012.7 2.7z"/><path fill="#404040" d="M152.1 53.9c.7-.6 1.6-.7 2-.2s.2 1.3-.5 1.9-1.6.8-2 .3a1.5 1.5 0 01.5-2z"/><path fill="#4d4d4d" d="M152.5 54.9c.3-.2.7-.3.9-.1a.8.8 0 01-.2.9.6.6 0 01-.9.1c-.2-.2-.1-.6.2-.9z"/><path fill="#767676" d="M150.8 51.8a.9.9 0 01-.8.8.8.8 0 01-.8-.8.7.7 0 01.8-.8.8.8 0 01.8.8z"/><path fill="#888" d="M149.6 53.3a.5.5 0 01-.5.5c-.4 0-.6-.2-.6-.5a.5.5 0 01.6-.6c.3 0 .5.2.5.6z"/><path fill="#959595" d="M149.6 52.5a.4.4 0 11-.8 0 .4.4 0 11.8 0z"/><path fill="url(#x)" d="M363.7 60.1h-3.8V48.9h6.6l7.5 8.4v-8.4h3.8v11.2h-6.4l-7.7-8.5z"/><path fill="url(#L)" d="M396.1 56.7a3.3 3.3 0 01-.9 2.6c-.8.7-2 1-4.2 1h-6.5c-2.3 0-3.5-.3-4.3-1a3.3 3.3 0 01-.8-2.6v-4.4a3.3 3.3 0 01.8-2.6c.8-.7 2-1 4.3-1h6.5c2.2 0 3.4.3 4.2 1a3.3 3.3 0 01.9 2.6zm-5.3.7c.9 0 1.2 0 1.4-.2s.3-.3.3-1v-3.4c0-.7-.1-.9-.3-1s-.5-.2-1.4-.2h-6.2c-.9 0-1.2 0-1.4.2s-.3.3-.3 1v3.4c0 .7.1.9.3 1s.5.2 1.4.2z"/><path fill="url(#M)" d="M401.6 48.9v11.2h-4V48.9zm6.7 0h5.3l-7.1 5.3 8 5.9h-5.6l-7.3-5.8z"/><path fill="url(#N)" d="M419.2 48.9v11.2h-4V48.9z"/><path fill="url(#O)" d="M434.4 60.1l-1.2-1.9h-7.7l-1.2 1.9h-4.4l7.1-11.2h4.9l7.1 11.2zm-7.5-4.4h4.9l-2.5-4z"/><path fill="#101010" d="M259.1 79a7 7 0 01-7 7h-14.9a7 7 0 01-7-7 7 7 0 017-7h14.9a7 7 0 017 7z"/><path fill="#191919" d="M326 53.9a2.7 2.7 0 11-2.7-2.6 2.6 2.6 0 012.7 2.6z"/><path fill="#1a1a1a" d="M283.5 53.8a6.1 6.1 0 01-6.2 6.1H212a6.1 6.1 0 01-6.1-6.1 6.1 6.1 0 016.1-6.1h65.3a6.2 6.2 0 016.2 6.1z"/><path fill="#0b0b0b" d="M212 57.8a4 4 0 010-7.9h65.3a4 4 0 110 7.9z"/><path fill="#181818" d="M212 56.7a2.9 2.9 0 01-2.9-2.9A2.8 2.8 0 01212 51h65.3a2.8 2.8 0 012.9 2.8 2.9 2.9 0 01-2.9 2.9z"/><path fill="#282828" d="M277.8 49.3a.7.7 0 01-.7.6h-64.4a.6.6 0 01-.6-.6.6.6 0 01.6-.6h64.4a.7.7 0 01.7.6z"/><path fill="#d0d0d0" d="M282.1 56.7a.8.8 0 01-1.6 0 .8.8 0 011.6 0zm-1.9.5a.6.6 0 000 1.2.6.6 0 000-1.2zm-1.4 1.2a.3.3 0 00-.3.3c0 .1.1.2.3.2s.3-.1.3-.2a.3.3 0 00-.3-.3zm-71.5-3.6a.9.9 0 00-.8.8.8.8 0 001.6 0 .9.9 0 00-.8-.8zm.8 1.9c-.4 0-.6.2-.6.5a.6.6 0 00.6.6.6.6 0 00.5-.6.5.5 0 00-.5-.5zm1 1.1a.3.3 0 00-.3.3.5.5 0 00.3.3.3.3 0 00.3-.3.3.3 0 00-.3-.3z"/><rect width="15.5" height="15.5" x="361.1" y="928.5" fill="none" stroke="#717171" stroke-miterlimit="10" rx="2.6"/><path fill="none" stroke="#717171" stroke-miterlimit="10" d="M122.4 945.1l-15.3-8.9 15.3-8.8z"/><rect width="470.1" height="980.5" x="9.7" y="9.7" fill="none" stroke="#b1b1b1" stroke-miterlimit="10" stroke-width="1.9" rx="38.5"/><path fill="#6b6b6b" d="M489.5 143.2v114.3a2.4 2.4 0 002.2-2.3V145.4a2.2 2.2 0 00-2.2-2.2zM489.5 265.3v58.3a2.4 2.4 0 002.2-2.3v-53.7a2.4 2.4 0 00-2.2-2.3z"/><path fill="#fff" d="M480.3 62.7h9.2v12.8h-9.2zM480.3 922.1h9.2v12.8h-9.2zM0 62.7h9.2v12.8H0zM0 922.1h9.2v12.8H0zM355 0h16.6v8.4H355z" opacity=".3"/><path fill="url(#P)" d="M22.6 467.1h442.1v411.7H22.6z"/><path fill="url(#Q)" d="M22.6 99.5h442.1V186L31.6 458.2l181.3 139.4L22.6 723.1z"/><path fill="url(#R)" d="M211.2 345.3l-13.6 8.6v231.9l267.1 199.6V543.3z"/><path fill="url(#S)" d="M197.6 585.8V353.9L31.5 458.2z"/><path fill="url(#T)" d="M464.7 543.3l-253.5-198 253.5-159.1z"/><path fill="url(#U)" d="M198.4 607.1L464.7 806v-20.6L213.5 597.3z"/><circle cx="232.5" cy="770.9" r="3.9" fill="#fff"/><circle cx="245.8" cy="770.9" r="5.1" fill="#fff"/><circle cx="259.1" cy="770.9" r="3.9" fill="#fff"/><rect width="421.8" height="58.9" x="32.4" y="138.8" fill="#fff" rx="2"/><path fill="#ef4131" fill-rule="evenodd" d="M125 163.7c4.4 0 5.5 4.3 5.5 4.3l-8.2 3.3a3 3 0 003 1.7 3.9 3.9 0 003-1.6l2.1 1.4a6.4 6.4 0 01-5.1 2.5 5.9 5.9 0 01-6-5.7c0-2.2 1.4-5.9 5.7-5.9zm-.2 2.2a2.8 2.8 0 012.6 1.2l-5.5 2.2s-.4-2.8 2.9-3.4z"/><path fill="#31aa52" d="M115.4 157.9h2.7V175h-2.7z"/><ellipse cx="94.7" cy="169.5" fill="none" stroke="#fdbe07" stroke-miterlimit="10" stroke-width="2.4" rx="4.9" ry="4.7"/><ellipse cx="81.3" cy="169.5" fill="none" stroke="#ef4131" stroke-miterlimit="10" stroke-width="2.4" rx="4.9" ry="4.7"/><path fill="#3182f6" d="M111.1 164v1.1a4.1 4.1 0 00-3.4-1.4 5.7 5.7 0 00-5.8 5.8 5.8 5.8 0 005.8 5.8 4.1 4.1 0 003.4-1.5v1.2a3.1 3.1 0 01-3.2 3.3 3.3 3.3 0 01-3.2-2.1l-2.3.9a5.7 5.7 0 005.4 3.4 5.4 5.4 0 005.8-5.6V164zm-3.2 9.1a3.6 3.6 0 113.3-3.6 3.5 3.5 0 01-3.3 3.6zM65.4 165.5v2.4h6.2a6.8 6.8 0 01-6.5 4.9 6.5 6.5 0 110-13 6.9 6.9 0 014.8 1.9l1.7-1.7a9 9 0 00-6.6-2.7 9 9 0 109.3 9 1.9 1.9 0 00-.1-.8z"/><path fill="#b0b0b0" fill-rule="evenodd" d="M264.4 172.1a1.9 1.9 0 00-.1-.8 1.6 1.6 0 00-.4-.7l-.8-.6-1.3-.6-1.6-.6-1.2-.9a4.1 4.1 0 01-.7-1.1 3.7 3.7 0 01-.3-1.5 4 4 0 01.3-1.5 2.5 2.5 0 01.8-1.2 4.3 4.3 0 012.9-1.1 3.4 3.4 0 011.8.4 3 3 0 011.3.9 3.2 3.2 0 01.8 1.4 4 4 0 01.3 1.5h-1.8a3.1 3.1 0 00-.1-1 1.9 1.9 0 00-.5-.9 2 2 0 00-.7-.6l-1.1-.2-1 .2a1.8 1.8 0 00-.7.5 1.6 1.6 0 00-.4.7 2.8 2.8 0 00-.1.9 2 2 0 00.6 1.5 5.3 5.3 0 002 1l1.7.8a3.8 3.8 0 011.2.9 3.5 3.5 0 01.7 1.2 5.9 5.9 0 01.2 1.4 4.1 4.1 0 01-.3 1.6 4.4 4.4 0 01-.8 1.1 3.5 3.5 0 01-1.3.8 4.7 4.7 0 01-1.7.3 4.1 4.1 0 01-1.6-.3 7.1 7.1 0 01-1.5-.8 6.4 6.4 0 01-1-1.3 5.8 5.8 0 01-.4-1.9h1.8a3.7 3.7 0 00.2 1.2 2 2 0 00.6.9l.8.5h1.1a2.2 2.2 0 001.7-.5 2.4 2.4 0 00.6-1.6zm9.2 3.6l-.2-.5v-.7l-.4.5-.6.5-.6.2-.7.2-1.3-.2-.9-.6a2.1 2.1 0 01-.6-1 4.4 4.4 0 01-.2-1.3 5.1 5.1 0 01.2-1.3 3.1 3.1 0 01.8-1.1 4.1 4.1 0 011.3-.8l1.8-.2h1.1v-1.1a1.8 1.8 0 00-.4-1.4 1.9 1.9 0 00-1.2-.3h-.8l-.5.3-.3.5a1.4 1.4 0 00-.2.7h-1.6a2 2 0 01.2-1.1 3.6 3.6 0 01.7-1 2.6 2.6 0 011.1-.7 3.3 3.3 0 011.5-.3l1.3.2 1 .5a3.6 3.6 0 01.7 1 6.1 6.1 0 01.2 1.5v5.6a1.3 1.3 0 01.1.6 4.3 4.3 0 00.1.5l.2.5v.2zm-2.3-1.4h.7l.6-.3.4-.4c.2-.1.3-.2.3-.4v-2.5h-.9l-1.1.2-.8.4a1 1 0 00-.5.6 1.1 1.1 0 00-.2.8 1.9 1.9 0 00.1.8.5.5 0 00.3.5c.1.2.2.3.4.3zm9-1.5l1.9-7.5h1.8l-3.4 12-.3.8a5.6 5.6 0 01-.5.8l-.8.7a1.7 1.7 0 01-1 .3h-.5l-.2-.1h-.2v-1.4h1a.5.5 0 00.5-.3 1 1 0 00.4-.5l.3-.8.3-1-3-10.3h1.8zm9.6-8.6a13616113593765.8 13616113593765.8 0 00.4-1.8l.5-.9a2.3 2.3 0 01.7-.7l.9.6-.6 1.3a7.7 7.7 0 00-.2 1.5v1.2h-1.7zm2.8 0a2.8 2.8 0 01.1-.9 1.6 1.6 0 01.3-.9l.4-.9a2.3 2.3 0 01.7-.7l.9.6a11.2 11.2 0 00-.5 1.3 3.9 3.9 0 00-.2 1.5v1.2h-1.7zm13.3 5.7a9.8 9.8 0 01-.3 2.6 5.6 5.6 0 01-.9 1.9 4.2 4.2 0 01-1.5 1.1 5.8 5.8 0 01-1.9.4 6.5 6.5 0 01-2-.4 4.9 4.9 0 01-1.4-1.1 4.4 4.4 0 01-1-1.9 9.8 9.8 0 01-.3-2.6v-2.4a9.8 9.8 0 01.3-2.6 4.8 4.8 0 01.9-1.9 3.9 3.9 0 011.5-1.1 4.1 4.1 0 011.9-.4 4.2 4.2 0 012 .4 3.3 3.3 0 011.5 1.1 4.8 4.8 0 01.9 1.9 9.8 9.8 0 01.3 2.6zm-1.7-2.4a10.3 10.3 0 00-.2-2 3 3 0 00-.6-1.4 2.4 2.4 0 00-.9-.8l-1.3-.2-1.2.2a3.4 3.4 0 00-.9.8 3 3 0 00-.6 1.4 10.3 10.3 0 00-.2 2v2.4a11.2 11.2 0 00.2 2 3 3 0 00.6 1.4 2.9 2.9 0 002.2 1 2.4 2.4 0 001.2-.3 1.6 1.6 0 00.9-.7 3 3 0 00.6-1.4 11.2 11.2 0 00.2-2zm6.8 3.4l-.9 1.1v3.7h-1.7v-14.8h1.7v8.8l.8-1 2.4-3.4h2.1l-3.3 4.3 3.7 6.1h-2zm19.7 3l-.5.6-.7.6-1.2.5a4.8 4.8 0 01-1.8.3 6.5 6.5 0 01-2-.4 5.3 5.3 0 01-1.5-1.1 7.7 7.7 0 01-1-1.8 10.3 10.3 0 01-.3-2.6v-2.6c0-3.9 1.5-5.9 4.6-5.9a5.8 5.8 0 011.9.3 5.7 5.7 0 011.3.8 3.9 3.9 0 01.8 1.4 4.8 4.8 0 01.4 1.8h-1.7a3.4 3.4 0 00-.8-2 2.2 2.2 0 00-1.8-.8 2.9 2.9 0 00-1.4.3 1.8 1.8 0 00-.9.8 4.6 4.6 0 00-.5 1.4 9 9 0 00-.2 1.8v2.7a10.1 10.1 0 00.2 1.9 4.6 4.6 0 00.7 1.4 2 2 0 001 .8 2.4 2.4 0 001.2.3h1.1l.6-.3.5-.3.3-.3v-3.2h-2.6v-1.5h4.3zm2.3-3.9a6.6 6.6 0 01.3-2.1 6 6 0 01.8-1.6 3.8 3.8 0 011.3-.9 4.1 4.1 0 011.6-.3 3.7 3.7 0 011.5.3 3 3 0 011.3.9 4.2 4.2 0 01.9 1.6 6.6 6.6 0 01.3 2.1v1a6.6 6.6 0 01-.3 2.1 3.8 3.8 0 01-.9 1.5 3.4 3.4 0 01-1.2.9 3.2 3.2 0 01-1.6.4 2.9 2.9 0 01-1.6-.4 3.8 3.8 0 01-1.3-.9 5.3 5.3 0 01-.8-1.5 6.6 6.6 0 01-.3-2.1zm1.7 1a7.1 7.1 0 00.1 1.5 4.6 4.6 0 00.5 1 2.7 2.7 0 00.8.7l.9.2c1.5 0 2.3-1.1 2.3-3.4v-1a6.1 6.1 0 00-.2-1.5 3.7 3.7 0 00-.5-1.1 1.3 1.3 0 00-.7-.6 1.5 1.5 0 00-.9-.2c-.4 0-.7 0-.9.2a1.6 1.6 0 00-.8.6 11.7 11.7 0 00-.5 1.1 6.6 6.6 0 00-.1 1.5zm8.1-1a6.6 6.6 0 01.3-2.1 4.2 4.2 0 01.9-1.6 3 3 0 011.3-.9 3.7 3.7 0 011.5-.3 4.1 4.1 0 011.6.3 3.8 3.8 0 011.3.9 6 6 0 01.8 1.6 6.6 6.6 0 01.3 2.1v1a6.6 6.6 0 01-.3 2.1 5.3 5.3 0 01-.8 1.5 3.8 3.8 0 01-1.3.9 2.9 2.9 0 01-1.6.4 2.6 2.6 0 01-1.5-.4 3 3 0 01-1.3-.9 3.8 3.8 0 01-.9-1.5 6.6 6.6 0 01-.3-2.1zm1.7 1a6.8 6.8 0 00.2 1.5 3.3 3.3 0 001.2 1.7l.9.2c1.6 0 2.3-1.1 2.3-3.4v-1a6.6 6.6 0 00-.1-1.5 11.7 11.7 0 00-.5-1.1 1.6 1.6 0 00-.8-.6 1.3 1.3 0 00-.9-.2 1.5 1.5 0 00-.9.2 1.3 1.3 0 00-.7.6 3.7 3.7 0 00-.5 1.1 6.1 6.1 0 00-.2 1.5zm8.2-1a13.8 13.8 0 01.2-2.2 5.2 5.2 0 01.7-1.5 3.1 3.1 0 011.1-.9 3.2 3.2 0 011.4-.3 3.3 3.3 0 011.5.3 2.8 2.8 0 01.9 1v-1.1h1.6v10.4a4.8 4.8 0 01-.3 1.8 2.9 2.9 0 01-.8 1.3 3.5 3.5 0 01-1.2.7 3.4 3.4 0 01-1.5.2h-.7l-.9-.3-.8-.4a2 2 0 01-.7-.6l.7-1.1 1.1.8 1.2.2h.9a1.8 1.8 0 00.7-.5c.2-.1.3-.4.4-.7a3.7 3.7 0 00.2-1.2v-1.2a2.8 2.8 0 01-1 .9 2.9 2.9 0 01-1.4.4 3.2 3.2 0 01-1.4-.3 3.5 3.5 0 01-1.1-1 5.2 5.2 0 01-.7-1.5 12.5 12.5 0 01-.2-2.1zm1.7 1a5.2 5.2 0 00.5 2.5 1.8 1.8 0 001.7.9 1.8 1.8 0 001.1-.4 3.4 3.4 0 00.8-.9v-5.2a2.4 2.4 0 00-.8-.9 1.5 1.5 0 00-1.1-.4 1.9 1.9 0 00-1.7.8 5.7 5.7 0 00-.5 2.6zm10.1 4.7h-1.7v-14.8h1.7zm6.4.2a4.7 4.7 0 01-1.7-.3 3.8 3.8 0 01-1.3-.9 4.7 4.7 0 01-.8-1.4 12.5 12.5 0 01-.2-2.1v-1.1a8.3 8.3 0 01.3-2.4 5.3 5.3 0 01.8-1.5 2.6 2.6 0 011.3-.8 3.2 3.2 0 011.4-.3 4.7 4.7 0 011.7.3 2.6 2.6 0 011.1 1 3.4 3.4 0 01.6 1.5 6.8 6.8 0 01.2 2.1v1h-5.8v.2a3.8 3.8 0 00.7 2.4 1.9 1.9 0 001.8.8h.8l.6-.2.5-.4.5-.5.8 1.1-.5.6-.7.5-.9.3zm-.2-9.3h-.8a1.2 1.2 0 00-.7.5 1.9 1.9 0 00-.4.9 5.2 5.2 0 00-.2 1.4h4v-.2a3.7 3.7 0 00-.1-1.1l-.3-.9a1 1 0 00-.6-.5l-.9-.1zm7.4-4.4l-.1.9-.3.9a4.1 4.1 0 01-.5.9l-.6.7-1-.7a3.1 3.1 0 00.6-1.3 5.9 5.9 0 00.2-1.4v-1.3h1.7zm2.6 0a2.8 2.8 0 01-.1.9 1.6 1.6 0 01-.3.9 3.6 3.6 0 01-.4.9 2.3 2.3 0 01-.7.7l-.9-.7.6-1.3a5.9 5.9 0 00.2-1.4v-1.3h1.6z"/><path fill="#4086f8" fill-rule="evenodd" d="M419.9 172a3.8 3.8 0 003.7-4v-8a3.7 3.7 0 10-7.4 0v8a3.8 3.8 0 003.7 4z"/><path fill="#ef4131" d="M426.4 168.3a6.5 6.5 0 01-13 0h-2.1a8.5 8.5 0 007.4 8.2v4.1h2.4v-4.1a8.5 8.5 0 007.4-8.2z"/><path fill="#f3ab0b" fill-rule="evenodd" d="M414.6 174.7l1.1-1.6a6 6 0 01-2.3-4.8h-2.1a8 8 0 003.3 6.4z"/><path fill="#31aa52" d="M418.7 176.5h2.5v4h-2.5z"/><path fill="#a18123" d="M22.6 99.6h442.1v25.8H22.6z"/><g fill="#fff"><path fill-opacity=".9" fill-rule="evenodd" d="M372.1 118.8h12.7v-12.7z"/><path fill-opacity=".9" d="M399.5 109.8h8.4v9.5h-8.4z"/><path fill-opacity=".3" fill-rule="evenodd" d="M405.9 106.6v-1h-4.2v1h-2.2v3.2h8.5v-3.2z"/><path fill-opacity=".9" d="M420.6 117.3h-1.3v-8.2l-2.5.9v-1.1l3.6-1.4h.2zm5.4-5.4h.9a2.6 2.6 0 001.4-.5 1.7 1.7 0 00.5-1.2 1.5 1.5 0 00-1.7-1.7 1.8 1.8 0 00-1.3.4 1.7 1.7 0 00-.5 1.2h-1.2a2.7 2.7 0 01.8-1.9 3.4 3.4 0 014.4 0 2.6 2.6 0 01.8 2 2.1 2.1 0 01-.5 1.2 2 2 0 01-1.1.9 2.5 2.5 0 011.3.9 2.3 2.3 0 01.4 1.4 2.6 2.6 0 01-.9 2.1 3.4 3.4 0 01-4.4 0 2.3 2.3 0 01-.9-1.9h1.3a1.3 1.3 0 00.5 1.2 1.7 1.7 0 001.3.5 1.7 1.7 0 001.9-1.9 1.6 1.6 0 00-.6-1.3 2.1 2.1 0 00-1.5-.4h-.9zm6 4.8a.8.8 0 01.2-.5.6.6 0 01.6-.3.5.5 0 01.5.3c.2.1.2.3.2.5s0 .4-.2.5l-.5.2-.6-.2a.8.8 0 01-.2-.5zm0-5.9a1.4 1.4 0 01.2-.6l.6-.2.5.2a.7.7 0 01.2.6.6.6 0 01-.2.5l-.5.2-.6-.2-.2-.5zm9.4 2.4a5.6 5.6 0 01-.8 3.2 2.7 2.7 0 01-2.3 1.1 2.6 2.6 0 01-2.3-1.1 5.2 5.2 0 01-.8-3.1v-1.6a5.6 5.6 0 01.7-3.2 2.8 2.8 0 012.4-1.1 2.7 2.7 0 012.3 1.1 5.8 5.8 0 01.8 3.1zm-1.3-1.7a4.5 4.5 0 00-.4-2.3 1.5 1.5 0 00-1.4-.7 1.4 1.4 0 00-1.4.7 4.2 4.2 0 00-.5 2.2v2a4.6 4.6 0 00.5 2.3 1.6 1.6 0 001.4.8 1.6 1.6 0 001.3-.7 4.6 4.6 0 00.5-2.3zm9 1.7a5.6 5.6 0 01-.8 3.2 2.7 2.7 0 01-2.3 1.1 2.6 2.6 0 01-2.3-1.1 5.2 5.2 0 01-.8-3.1v-1.6a5.6 5.6 0 01.7-3.2 2.8 2.8 0 012.4-1.1 2.7 2.7 0 012.3 1.1 5.8 5.8 0 01.8 3.1zm-1.3-1.7a4.5 4.5 0 00-.4-2.3 1.5 1.5 0 00-1.4-.7 1.4 1.4 0 00-1.4.7 4.2 4.2 0 00-.5 2.2v2a4.6 4.6 0 00.5 2.3 1.6 1.6 0 001.4.8 1.7 1.7 0 001.4-.7 4.7 4.7 0 00.4-2.3z"/><path d="M40.6 117.3h-1.3l-5-7.5v7.5H33v-9.7h1.3l5 7.5v-7.5h1.3zm1.7-3.7a5.8 5.8 0 01.4-1.9 3.7 3.7 0 011.2-1.3 3.3 3.3 0 011.7-.4 3 3 0 012.4 1 4 4 0 01.9 2.7 4.1 4.1 0 01-.4 1.9 2.5 2.5 0 01-1.2 1.3 3.1 3.1 0 01-1.7.5 3.3 3.3 0 01-2.4-1 4.1 4.1 0 01-.9-2.8zm1.3.2a2.9 2.9 0 00.5 1.9 1.8 1.8 0 003 0 3.3 3.3 0 00.6-2.1 3.1 3.1 0 00-.6-1.9 2 2 0 00-3 0 3.3 3.3 0 00-.5 2.1zM57 113a5.3 5.3 0 01-2.5-1.2 2.1 2.1 0 01-.7-1.7 2.3 2.3 0 01.9-1.9 3.6 3.6 0 012.4-.8 4.8 4.8 0 011.8.4 4.3 4.3 0 011.2 1.1 3 3 0 01.5 1.5h-1.3a1.7 1.7 0 00-.6-1.4 2.5 2.5 0 00-1.6-.5 2.4 2.4 0 00-1.5.4 1.7 1.7 0 00-.5 1.2 1.4 1.4 0 00.5 1 5.4 5.4 0 001.7.8 5.8 5.8 0 011.9.7 2.4 2.4 0 011 1 1.8 1.8 0 01.4 1.3 2.2 2.2 0 01-1 1.9 4.3 4.3 0 01-2.4.7 5.8 5.8 0 01-1.9-.4 3.8 3.8 0 01-1.4-1.1 2.4 2.4 0 01-.4-1.5h1.3a1.7 1.7 0 00.6 1.4 2.6 2.6 0 001.8.5 2.1 2.1 0 001.5-.4 1.3 1.3 0 00.6-1.1 1.3 1.3 0 00-.5-1.1 5.1 5.1 0 00-1.8-.8zm6.6 4.3h-1.3v-9.7h1.3zm4-9.7l3.2 7.9 3.2-7.9h1.7v9.7h-1.3v-7.9l-3.2 7.9h-1l-3.2-7.8.2 4v3.8H66v-9.7zM354.7 118.8L348 108a13 13 0 0113.5 0z"/></g><path fill="#e75a4d" d="M437.6 810.8a4.7 4.7 0 014.7 4.7v1.4l-6.5 4.6-22.1 15.2-22.1-15.4v30.8H390a4.7 4.7 0 01-4.7-4.7v-31.9a4.7 4.7 0 014.7-4.7l23.7 17.6z"/><path fill="#f7f5ed" d="M391.6 821.3v30.8h44.2v-30.6l-22.1 15.2z"/><path fill="#b8b7ae" d="M391.6 852.1l22.1-15.4h-.1l-22 15.1z"/><path fill="#b7b6ad" d="M435.8 821.5v30.6l-22.1-15.4z"/><path fill="#b2392f" d="M442.3 816.9v30.5c-.1 3.4-1.6 4.6-6.5 4.7v-30.6z"/><path fill="#f7f5ed" d="M390 810.8l23.7 17.6 23.9-17.6z"/><path fill="#848484" d="M304.6 807.6a2.3 2.3 0 012.2-2.3h6a2.3 2.3 0 012.3 2.3v3.6a2.3 2.3 0 01-2.3 2.3h-6a2.2 2.2 0 01-2.2-2.3z"/><path fill="#e4e4e4" d="M300.7 813a3.7 3.7 0 013.8-3.7h48.6a3.6 3.6 0 013.7 3.7v35.6a3.6 3.6 0 01-3.7 3.7h-48.6a3.7 3.7 0 01-3.8-3.7z"/><path fill="#92c654" fill-rule="evenodd" d="M333.8 833.5l-21-.5s2.8 11.3 13.7 12.8z"/><path fill="#5d84c3" fill-rule="evenodd" d="M332.7 828s3.3 2.1.7 6.1-7.1 11.5-7.1 11.5 7.4 3.5 13.8-5.4z"/><path fill="#fec226" fill-rule="evenodd" d="M327.8 836.2l-10.4-18.3s-8.2 8.3-3.9 18.3z"/><path fill="#ec7835" fill-rule="evenodd" d="M323.9 833l10.7-18.1s-11.2-3-17.8 5.7z"/><path fill="#de5245" fill-rule="evenodd" d="M324.5 827.8h21s-3-11.2-13.9-12.5z"/><path fill="#4e5eaa" fill-rule="evenodd" d="M328.5 825.6l10.3 18.3s8.2-8.3 4-18.3z"/><path fill="#f2f2f2" d="M329.1 816.8a14.4 14.4 0 11-14 14.3 14.1 14.1 0 0114-14.3m0-3.6a18 18 0 1017.6 17.9 17.8 17.8 0 00-17.6-17.9z"/><ellipse cx="350.3" cy="816" fill="#888" rx="2.7" ry="2.8"/><ellipse cx="329" cy="831" fill="#f2f2f2" rx="5.3" ry="5.4"/><path fill="#f5f5f5" fill-rule="evenodd" d="M272.8 828.8a29 29 0 11-29-29 29 29 0 0129 29zm-38.3-5.9a3.3 3.3 0 11-3.3-3.3 3.3 3.3 0 013.3 3.3zm9.9 3.3a3.3 3.3 0 10-3.3-3.3 3.3 3.3 0 003.3 3.3zm16.5-3.3a3.3 3.3 0 11-3.3-3.3 3.3 3.3 0 013.3 3.3zm-3.3 16.5a3.3 3.3 0 10-3.3-3.3 3.3 3.3 0 003.3 3.3zm-9.9-3.3a3.3 3.3 0 11-3.3-3.3 3.3 3.3 0 013.3 3.3zm-16.5 3.3a3.3 3.3 0 10-3.2-3.3 3.3 3.3 0 003.2 3.3z"/><path fill="#e2e2e2" fill-rule="evenodd" d="M181.1 813l5.8-7.3a1.8 1.8 0 00-1.5-2.9h-36.7a4.7 4.7 0 00-4.7 4.7v29a4.7 4.7 0 004.7 4.7h27.7a4.7 4.7 0 004.7-4.7z"/><path fill="#a7a7a7" fill-rule="evenodd" d="M173.8 812.3h-22.5v3.6h22.5zm0 7.3h-22.5v3.6h22.5zm-14.9 7.2h14.9v3.7h-14.9z"/><path fill="#00acf8" fill-rule="evenodd" d="M136.4 827.9l-5.8-7.2a1.9 1.9 0 011.5-3h36.7a4.7 4.7 0 014.7 4.7v27.8a4.7 4.7 0 01-4.7 4.7h-27.7a4.7 4.7 0 01-4.7-4.7z"/><path fill="#eee" fill-rule="evenodd" d="M143.6 827.2h22.6v3.7h-22.6zm0 7.3h22.6v3.6h-22.6zm14.9 7.3h-14.9v3.6h14.9z"/><path fill="#3767d6" d="M88.9 853.6l1.6-5.5a41.5 41.5 0 01-35.6-36.4 49.3 49.3 0 01-5.7.7 47.1 47.1 0 0039.7 41.2z"/><path fill="#4785f4" fill-rule="evenodd" d="M50.1 818a94.8 94.8 0 01-1.4-10.7 3.5 3.5 0 013.4-3.6h9.3a2.7 2.7 0 012.7 2.7l.2 4.3a39.9 39.9 0 001.6 6.4 2.3 2.3 0 01-.6 2.2l-10.7 10.2a58.8 58.8 0 01-4.5-11.5zm34.3 34.6a97.9 97.9 0 0010.7 1.4 3.4 3.4 0 003.6-3.4v-9.3a2.7 2.7 0 00-2.7-2.7l-4.3-.2c-1.5-.2-4.6-1.1-6.4-1.6a2.1 2.1 0 00-2.1.6l-10.4 10.8a63.9 63.9 0 0011.6 4.4z"/><circle cx="245.4" cy="500.2" r="32" fill="#fff"/></svg>