<svg xmlns="http://www.w3.org/2000/svg" xmlns:xlink="http://www.w3.org/1999/xlink" viewBox="0 0 470.1 1000"><filter id="a" width="398.2" height="32766" x="7.9" y="-8632.8" color-interpolation-filters="sRGB" filterUnits="userSpaceOnUse"><feFlood flood-color="#fff" result="bg"/><feBlend in="SourceGraphic" in2="bg"/></filter><linearGradient id="g" x1="-16.6" x2="106.2" y1="74.8" y2="178.8" gradientUnits="userSpaceOnUse"><stop offset="0" stop-color="#fff"/><stop offset=".7"/></linearGradient><filter id="b" width="3.1" height="32766" x="464.9" y="-8632.8" color-interpolation-filters="sRGB" filterUnits="userSpaceOnUse"><feFlood flood-color="#fff" result="bg"/><feBlend in="SourceGraphic" in2="bg"/></filter><linearGradient id="c" x1="467.5" x2="464" y1="261.3" y2="261.3" gradientUnits="userSpaceOnUse"><stop offset=".3"/><stop offset=".4" stop-color="#343434"/><stop offset=".4" stop-color="#696969"/><stop offset=".5" stop-color="#979797"/><stop offset=".5" stop-color="#bdbdbd"/><stop offset=".6" stop-color="#dadada"/><stop offset=".7" stop-color="#eee"/><stop offset=".7" stop-color="#fbfbfb"/><stop offset=".8" stop-color="#fff"/></linearGradient><linearGradient id="k" x1="467.5" x2="464" y1="431.3" y2="431.3" xlink:href="#c"/><clipPath id="l"><path d="M261.3 38.8a4.2 4.2 0 01-4.2 4.2H212a4.1 4.1 0 01-4.2-4.2 4.2 4.2 0 014.2-4.2h45.1a4.2 4.2 0 014.2 4.2z"/></clipPath><linearGradient id="d" x1="234.5" x2="234.5" y1="41.1" y2="34.6" gradientUnits="userSpaceOnUse"><stop offset="0" stop-color="#464646"/><stop offset="1" stop-color="#151515"/></linearGradient><linearGradient id="m" x1="234.5" x2="234.5" y1="43" y2="37.8" xlink:href="#d"/><linearGradient id="n" x1="108.6" x2="108.6" y1="244.7" y2="229.5" gradientTransform="matrix(.95 -.3 .3 .95 -55.3 -148)" xlink:href="#d"/><linearGradient id="o" x1="60" x2="60" y1="381.3" y2="372.2" gradientTransform="rotate(-31.6 -500 102.8)" xlink:href="#d"/><linearGradient id="p" x1="119.1" x2="119.1" y1="44.8" y2="39.3" xlink:href="#d"/><linearGradient id="q" x1="-28.1" x2="433.2" y1="56.5" y2="464" gradientUnits="userSpaceOnUse"><stop offset="0" stop-color="#bebebe"/><stop offset=".1" stop-color="#a6a6a6"/><stop offset=".5" stop-color="#151515"/></linearGradient><filter id="e" width="398.2" height="510.8" x="7.9" y="7.6" color-interpolation-filters="sRGB" filterUnits="userSpaceOnUse"><feFlood flood-color="#fff" result="bg"/><feBlend in="SourceGraphic" in2="bg"/></filter><mask id="r" width="398.2" height="510.8" x="7.9" y="7.6" maskUnits="userSpaceOnUse"><g filter="url(#e)" mask="url(#f)"><path fill="url(#g)" d="M12.1 76.6c0-19.2 6.9-35.9 16.2-46.2s25.8-18.3 45.2-18.3c0 0 237.1-1.6 332.6-1.6C357.8 6.3 70.3 7.9 70.3 7.9c-20.6 0-36.4 5.9-47 17.6S7.9 53.2 7.9 73.5l.5 444.9z"/></g></mask><linearGradient id="s" x1="-16.6" x2="106.2" y1="74.8" y2="178.8" gradientUnits="userSpaceOnUse"><stop offset="0" stop-color="#a6a6a6"/><stop offset=".7" stop-color="#131313"/></linearGradient><linearGradient id="t" x1="467.5" x2="467.5" y1="295.9" y2="226.7" gradientUnits="userSpaceOnUse"><stop offset="0" stop-color="#7b7b7b"/><stop offset=".1" stop-color="#9f9f9f"/><stop offset=".1" stop-color="#9f9f9f"/><stop offset=".9" stop-color="#9f9f9f"/><stop offset=".9" stop-color="#9d9d9d"/><stop offset="1" stop-color="#8a8a8a"/><stop offset="1" stop-color="#7f7f7f"/><stop offset="1" stop-color="#7b7b7b"/></linearGradient><filter id="h" width="3.1" height="69.3" x="464.9" y="226.7" color-interpolation-filters="sRGB" filterUnits="userSpaceOnUse"><feFlood flood-color="#fff" result="bg"/><feBlend in="SourceGraphic" in2="bg"/></filter><mask id="u" width="3.1" height="69.3" x="464.9" y="226.7" maskUnits="userSpaceOnUse"><g filter="url(#h)" mask="url(#i)"><path fill="url(#c)" d="M468 226.7c-2.1 0-3.2 4.1-3.2 7.3v52.5c0 4.2 1.1 9.4 3.2 9.4z"/></g></mask><linearGradient id="v" x1="467.5" x2="464" y1="261.3" y2="261.3" gradientUnits="userSpaceOnUse"><stop offset=".3" stop-color="#9f9f9f"/><stop offset=".5" stop-color="#8c8c8c"/><stop offset=".6" stop-color="#7f7f7f"/><stop offset=".8" stop-color="#7b7b7b"/></linearGradient><linearGradient id="w" x1="467.5" x2="467.5" y1="499.5" y2="363.1" gradientUnits="userSpaceOnUse"><stop offset="0" stop-color="#1a1a1a"/><stop offset="0" stop-color="#393939"/><stop offset=".1" stop-color="#393939"/><stop offset="1" stop-color="#393939"/><stop offset="1" stop-color="#292929"/><stop offset="1" stop-color="#1e1e1e"/><stop offset="1" stop-color="#1a1a1a"/></linearGradient><filter id="j" width="3.1" height="136.4" x="464.9" y="363.1" color-interpolation-filters="sRGB" filterUnits="userSpaceOnUse"><feFlood flood-color="#fff" result="bg"/><feBlend in="SourceGraphic" in2="bg"/></filter><mask id="x" width="3.1" height="136.4" x="464.9" y="363.1" maskUnits="userSpaceOnUse"><g filter="url(#j)" mask="url(#i)"><path fill="url(#k)" d="M468 363.1c-2.1 0-3.2 4.2-3.2 7.3V490c0 4.2 1.1 9.5 3.2 9.5z"/></g></mask><linearGradient id="y" x1="467.5" x2="464" y1="431.3" y2="431.3" gradientUnits="userSpaceOnUse"><stop offset=".3" stop-color="#676767"/><stop offset=".4" stop-color="#525252"/><stop offset=".5" stop-color="#3e3e3e"/><stop offset=".7" stop-color="#313131"/><stop offset=".8" stop-color="#2d2d2d"/></linearGradient><path fill="#3d3d3d" d="M466.9 934.9A63.8 63.8 0 01404 1000H65.1A63.4 63.4 0 010 934.9V73.5C0 29.4 23.1 0 70.3 0h323.2c50.4 0 73.4 31.5 73.4 67.2z"/><path fill="#131313" d="M446.8 23c-12.4-12.6-31-19.3-53.6-19.3H70.6c-22 0-39.1 6.5-50.8 19.3S3.1 52.8 3.1 74.4V934a60.9 60.9 0 0062.3 62.3h338.2a58.5 58.5 0 0042.9-18.4 63 63 0 0017.3-43.9V68.1c0-17.8-6-33.8-17-45.1z"/><path fill="#6f6f6f" d="M447.2 22c-12.4-12.7-31-19.4-53.7-19.4H70.3C48.2 2.6 31 9.1 19.4 22S2.6 51.8 2.6 73.5v861.4a61.1 61.1 0 0062.5 62.5H404a58.6 58.6 0 0042.9-18.5 62.9 62.9 0 0017.4-44V67.2c0-17.9-6-33.9-17.1-45.2zm16.1 914.9a60.3 60.3 0 01-16.6 41.9 56 56 0 01-40.9 17.5H65.3a60.6 60.6 0 01-41.7-16 57.8 57.8 0 01-17.8-43.4V73.6c0-20.9 5.5-38 16-49.5S49.3 5.8 70.6 5.8h324.7c21.9 0 39.8 6.4 51.7 18.5s16.3 25.9 16.3 43z"/><rect width="428.1" height="903.5" x="19.4" y="65.1" fill="#252525" rx="44.1"/><g clip-path="url(#l)"><path fill="url(#d)" d="M261.3 36.7v-1h-1.1v-2.1h-1v2.1h-1.1v-2.1h-1v2.1H256v-2.1h-1v2.1h-1.1v-2.1h-1v2.1h-1.1v-2.1h-1v2.1h-1.1v-2.1h-1v2.1h-1.1v-2.1h-1v2.1h-1.1v-2.1h-1v2.1h-1.1v-2.1h-1v2.1h-1.1v-2.1h-1v2.1h-1.1v-2.1h-1v2.1h-1.1v-2.1h-1v2.1H235v-2.1h-1v2.1h-1.1v-2.1h-1v2.1h-1.1v-2.1h-1v2.1h-1v-2.1h-1.1v2.1h-1v-2.1h-1.1v2.1h-1v-2.1h-1.1v2.1h-1v-2.1h-1.1v2.1h-1v-2.1h-1.1v2.1h-1v-2.1h-1.1v2.1h-1v-2.1h-1.1v2.1h-1v-2.1H213v2.1h-1v-2.1h-1.1v2.1h-1v-2.1h-1.1v2.1h-1v1h1v1.1h-1v1h1v1.1h-1v1h1V42h-1v1h1v1.1h1.1V43h1v1.1h1.1V43h1v1.1h1.1V43h1v1.1h1.1V43h1v1.1h1.1V43h1v1.1h1.1V43h1v1.1h1.1V43h1v1.1h1.1V43h1v1.1h1.1V43h1v1.1h1.1V43h1v1.1h1V43h1.1v1.1h1V43h1.1v1.1h1V43h1.1v1.1h1V43h1.1v1.1h1V43h1.1v1.1h1V43h1.1v1.1h1V43h1.1v1.1h1V43h1.1v1.1h1V43h1.1v1.1h1V43h1.1v1.1h1V43h1.1v1.1h1V43h1.1v1.1h1V43h1.1v1.1h1V43h1.1v1.1h1V43h1.1v-1h-1.1v-1.1h1.1v-1h-1.1v-1.1h1.1v-1h-1.1v-1.1zm-4.2 0v1.1H256v-1.1zm-43 2.1h1v1.1h-1zm-1.1 1.1h-1v-1.1h1zm3.2-1.1h1v1.1h-1zm2.1 0h1v1.1h-1zm2.1 0h1v1.1h-1zm2.1 0h1v1.1h-1zm2.1 0h1v1.1h-1zm2.1 0h1v1.1h-1zm2.1 0h1v1.1h-1zm2 0h1.1v1.1h-1.1zm2.1 0h1.1v1.1h-1.1zm2.1 0h1.1v1.1H235zm2.1 0h1.1v1.1h-1.1zm2.1 0h1.1v1.1h-1.1zm2.1 0h1.1v1.1h-1.1zm2.1 0h1.1v1.1h-1.1zm2.1 0h1.1v1.1h-1.1zm2.1 0h1.1v1.1h-1.1zm2.1 0h1.1v1.1h-1.1zm2.1 0h1.1v1.1h-1.1zm2.1 0h1.1v1.1h-1.1zm2.1 0h1.1v1.1H256zm-1-2.1v1.1h-1.1v-1.1zm-2.1 0v1.1h-1.1v-1.1zm-2.1 0v1.1h-1.1v-1.1zm-2.1 0v1.1h-1.1v-1.1zm-2.1 0v1.1h-1.1v-1.1zm-2.1 0v1.1h-1.1v-1.1zm-2.1 0v1.1h-1.1v-1.1zm-2.1 0v1.1h-1.1v-1.1zm-2.1 0v1.1h-1.1v-1.1zm-2.1 0v1.1H235v-1.1zm-2.1 0v1.1h-1.1v-1.1zm-2.1 0v1.1h-1.1v-1.1zm-2.1 0v1.1h-1v-1.1zm-2.1 0v1.1h-1v-1.1zm-2.1 0v1.1h-1v-1.1zm-2.1 0v1.1h-1v-1.1zm-2.1 0v1.1h-1v-1.1zm-2.1 0v1.1h-1v-1.1zm-2.1 0v1.1h-1v-1.1zm-2.1 0v1.1h-1v-1.1zm-2.1 0v1.1h-1v-1.1zm-3.1 0h1v1.1h-1zm0 2.1h1v1.1h-1zm0 3.2v-1.1h1V42zm2.1 0v-1.1h1V42zm2.1 0v-1.1h1V42zm2.1 0v-1.1h1V42zm2.1 0v-1.1h1V42zm2.1 0v-1.1h1V42zm2.1 0v-1.1h1V42zm2.1 0v-1.1h1V42zm2.1 0v-1.1h1V42zm2.1 0v-1.1h1V42zm2 0v-1.1h1.1V42zm2.1 0v-1.1h1.1V42zm2.1 0v-1.1h1.1V42zm2.1 0v-1.1h1.1V42zm2.1 0v-1.1h1.1V42zm2.1 0v-1.1h1.1V42zm2.1 0v-1.1h1.1V42zm2.1 0v-1.1h1.1V42zm2.1 0v-1.1h1.1V42zm2.1 0v-1.1h1.1V42zm2.1 0v-1.1h1.1V42zm2.1 0v-1.1h1.1V42zm2.1 0v-1.1h1.1V42zm3.2 0h-1.1v-1.1h1.1zm0-2.1h-1.1v-1.1h1.1zm0-2.1h-1.1v-1.1h1.1z"/></g><path fill="url(#m)" d="M257.1 34.6H212a4.2 4.2 0 00-4.2 4.2A4.1 4.1 0 00212 43h45.1a4.2 4.2 0 004.2-4.2 4.2 4.2 0 00-4.2-4.2zm0 7.6H212a3.4 3.4 0 110-6.7h45.1a3.4 3.4 0 010 6.7z"/><path fill="url(#n)" d="M130.6 36.7a12.1 12.1 0 11-15.2-7.8 12.1 12.1 0 0115.2 7.8z"/><path fill="#131313" d="M126.3 36.7a7.8 7.8 0 01-13.3 8.2 7.9 7.9 0 012.6-10.8 7.8 7.8 0 0110.7 2.6z" opacity=".3"/><path fill="url(#o)" d="M125.3 36.6a7.3 7.3 0 11-10-2.4 7.3 7.3 0 0110 2.4z"/><path fill="url(#p)" d="M123.4 40.4a4.3 4.3 0 01-4.3 4.3 4.3 4.3 0 110-8.6 4.3 4.3 0 014.3 4.3z"/><path fill="#515151" d="M119.6 38.5a1.5 1.5 0 01-1.5 1.4 1.4 1.4 0 01-1.4-1.4 1.5 1.5 0 011.4-1.5 1.5 1.5 0 011.5 1.5zM123.2 41.7a3.3 3.3 0 00-2.2-.8 3.4 3.4 0 00-3.4 3.4.3.3 0 01.1.2l1.4.2a4.2 4.2 0 004.1-3z"/><path fill="url(#q)" d="M12.1 76.6c0-19.2 6.9-35.9 16.2-46.2s25.8-18.3 45.2-18.3c0 0 237.1-1.6 332.6-1.6C357.8 6.3 70.3 7.9 70.3 7.9c-20.6 0-36.4 5.9-47 17.6S7.9 53.2 7.9 73.5l.5 444.9z"/><g mask="url(#r)"><path fill="url(#s)" d="M12.1 76.6c0-19.2 6.9-35.9 16.2-46.2s25.8-18.3 45.2-18.3c0 0 237.1-1.6 332.6-1.6C357.8 6.3 70.3 7.9 70.3 7.9c-20.6 0-36.4 5.9-47 17.6S7.9 53.2 7.9 73.5l.5 444.9z"/></g><path fill="#676767" d="M404 987.9H65.1c-20-.5-32.4-5.1-32.4-5.1a59.6 59.6 0 0032.4 9.3H404a53.8 53.8 0 0030.8-9.6 74.3 74.3 0 01-30.8 5.4zM456.1 42.9a189.5 189.5 0 011.9 27.4v864.6a128.1 128.1 0 01-2.8 24.9 58.1 58.1 0 005.5-24.9V67.2a63.7 63.7 0 00-4.6-24.3z"/><path fill="url(#t)" d="M468 226.7c-2.1 0-3.2 4.1-3.2 7.3v52.5c0 4.2 1.1 9.4 3.2 9.4a2.2 2.2 0 002.1-2.1v-65a2.2 2.2 0 00-2.1-2.1z"/><g mask="url(#u)"><path fill="url(#v)" d="M468 226.7c-2.1 0-3.2 4.1-3.2 7.3v52.5c0 4.2 1.1 9.4 3.2 9.4z"/></g><path fill="url(#w)" d="M468 363.1c-2.1 0-3.2 4.2-3.2 7.3V490c0 4.2 1.1 9.5 3.2 9.5a2.3 2.3 0 002.1-2.1V365.2a2.2 2.2 0 00-2.1-2.1z"/><g mask="url(#x)"><path fill="url(#y)" d="M468 363.1c-2.1 0-3.2 4.2-3.2 7.3V490c0 4.2 1.1 9.5 3.2 9.5z"/></g><path fill="#f9bc04" fill-rule="evenodd" d="M22.4 93.1v349.7h118.2V70.5H42.3a44 44 0 00-19.9 22.6z"/><path fill="#153066" d="M140.4 70.5h66.1v372.6h-66.1z"/><path fill="#e94235" d="M22.4 443h117.7v198H22.4z"/><path fill="#4285f3" fill-rule="evenodd" d="M22.4 443h118l-118-273.6z"/><path fill="#34a753" d="M206.3 70.5V443c104.1-1.3 188-84.2 188-186.2s-83.9-185-188-186.3z"/><path fill="#153066" d="M225.9 698.3h131.3V531.5z"/><path fill="#f9bc04" d="M343.8 382.6h98.5v307.1h-98.5z"/><path fill="#34a753" d="M102.2 689.7h340.2v68.7H102.2z"/><path fill="#e94235" fill-rule="evenodd" d="M343.8 968.5h59.7a43.9 43.9 0 0038.8-23.3V758.4h-98.5z"/><path fill="#4285f3" d="M344 382.7v185.1l-96 121.9H102.2z"/><rect width="369.5" height="46.4" x="48.7" y="878.1" fill="#fff" opacity=".7" rx="23.2"/><circle cx="386.2" cy="897.4" r="6.8" fill="#4285f4"/><path fill="#34a853" d="M401.8 898.1a1.5 1.5 0 01-1.4 1.4 1.4 1.4 0 01-1.4-1.4 1.4 1.4 0 011.4-1.4 1.4 1.4 0 011.4 1.4z"/><path fill="#ea4335" d="M399.3 901.5a2.9 2.9 0 01-2.8 2.8 2.8 2.8 0 01-2.8-2.8 2.7 2.7 0 012.8-2.8 2.8 2.8 0 012.8 2.8z"/><path fill="#fbbc05" d="M399.8 908.7a3.4 3.4 0 01-6.7 0 3.4 3.4 0 116.7 0z"/><path fill="#fbbb00" d="M67.8 903.9l-.9 3.3h-3.2a12.1 12.1 0 01-1.5-6 13.1 13.1 0 011.4-5.9l2.9.6 1.3 2.8a7 7 0 00-.5 2.5 10.9 10.9 0 00.5 2.7z"/><path fill="#518ef8" d="M87.4 898.9a19.4 19.4 0 01.2 2.4 10.9 10.9 0 01-.3 2.6 12.9 12.9 0 01-4.4 7.3l-3.7-.2-.5-3.2a7.5 7.5 0 003.3-3.9h-6.8v-5z"/><path fill="#28b446" d="M82.9 911.2a13.2 13.2 0 01-8 2.8 12.8 12.8 0 01-11.2-6.7l4.1-3.4a7.6 7.6 0 007.1 4.9 7 7 0 003.8-1z"/><path fill="#f14336" d="M83 891.5l-4.1 3.4a7 7 0 00-4-1.2 7.6 7.6 0 00-7.1 5.1l-4.2-3.4a12.8 12.8 0 0119.4-3.9z"/><circle cx="298.6" cy="169" r="9" fill="#ffd32a"/><g fill="#fff"><path d="M120.2 161.5h-5.8v16.1H112v-16.1h-5.8v-1.9h14zm9.5 14.8a4.8 4.8 0 01-4 1.6 3.8 3.8 0 01-3.2-1.3 5 5 0 01-1.2-3.7v-8.7h2.3v8.7c0 2 .8 3 2.5 3s2.9-.6 3.5-1.9v-9.8h2.3v13.4h-2.2zm11.3 1.6a6 6 0 01-4.5-1.8 6.9 6.9 0 01-1.7-4.8v-.4a8 8 0 01.8-3.6 6.4 6.4 0 012.1-2.5 5.2 5.2 0 013-.8 4.7 4.7 0 014 1.7 7.2 7.2 0 011.5 4.9v1h-9.1a4.4 4.4 0 001.2 3.2 3.5 3.5 0 002.8 1.2 3.9 3.9 0 002-.5 4.7 4.7 0 001.5-1.3l1.4 1.1a5.6 5.6 0 01-5 2.6zm-.3-12.1a3.2 3.2 0 00-2.4 1.1 4.5 4.5 0 00-1.1 2.8h6.7v-.2a4.8 4.8 0 00-.9-2.7 3.3 3.3 0 00-2.3-1zm16 8.3a2.1 2.1 0 00-.7-1.5 9.6 9.6 0 00-2.5-.9 7.7 7.7 0 01-2.7-.9 4 4 0 01-1.6-1.2 3.1 3.1 0 01-.4-1.7 3.4 3.4 0 011.4-2.8 5.1 5.1 0 013.5-1.1 5.4 5.4 0 013.7 1.1 3.7 3.7 0 011.5 3.1h-2.4a2 2 0 00-.8-1.7 3.2 3.2 0 00-2-.7 2.7 2.7 0 00-1.9.6 1.6 1.6 0 00-.7 1.4 1.5 1.5 0 00.6 1.3 9.3 9.3 0 002.4.8 9.2 9.2 0 012.8.9 5.3 5.3 0 011.6 1.3 3.5 3.5 0 01.5 1.8 3.4 3.4 0 01-1.5 2.9 6 6 0 01-3.7 1.1 6.8 6.8 0 01-2.9-.6 4.9 4.9 0 01-1.9-1.6 3.6 3.6 0 01-.7-2.2h2.3a2 2 0 00.9 1.8 3.5 3.5 0 002.3.7 4.1 4.1 0 002.1-.5 1.7 1.7 0 00.8-1.4zm4.7-3.3a7.8 7.8 0 011.5-5 4.6 4.6 0 013.8-1.8 4.8 4.8 0 013.8 1.6v-7h2.2v19h-2.1v-1.4a4.9 4.9 0 01-7.6-.2 8 8 0 01-1.5-5zm2.3.3a5.2 5.2 0 001 3.5 2.8 2.8 0 002.6 1.3 3.4 3.4 0 003.2-1.9v-6.2a3.4 3.4 0 00-3.2-1.9 2.9 2.9 0 00-2.6 1.3 6.3 6.3 0 00-1 3.9zm20.9 6.5a6.1 6.1 0 01-.3-1.4 5.3 5.3 0 01-3.8 1.7 4.9 4.9 0 01-3.3-1.1 3.9 3.9 0 01-1.3-2.9 3.8 3.8 0 011.6-3.2 7.5 7.5 0 014.5-1.2h2.2v-1.1a2.5 2.5 0 00-.7-1.9 2.8 2.8 0 00-2.1-.7 3.7 3.7 0 00-2.1.6 1.9 1.9 0 00-.8 1.5h-2.3a3 3 0 01.7-1.9 5.3 5.3 0 012-1.5 5.8 5.8 0 012.6-.5 5.3 5.3 0 013.7 1.1 4.1 4.1 0 011.3 3.2v6.2a7.6 7.6 0 00.5 2.9v.2zm-3.8-1.7a3.6 3.6 0 002-.6 2.4 2.4 0 001.4-1.4v-2.8h-1.8c-2.8 0-4.2.8-4.2 2.5a2.4 2.4 0 00.7 1.7 2.9 2.9 0 001.9.6zm13.6-1.6l3.1-10.1h2.4l-5.4 15.5c-.8 2.2-2.1 3.4-3.9 3.4h-1.3V181h.6a3 3 0 001.8-.5 3.8 3.8 0 001.1-1.7l.5-1.4-4.8-13.3h2.5zm6.2 6.9l-1.3-.9a5.4 5.4 0 001.2-3.3v-2.1h2.2v1.8a5.4 5.4 0 01-.6 2.5 5.3 5.3 0 01-1.5 2zm25.6-12a10.8 10.8 0 01-.9 4.6 6.8 6.8 0 01-2.5 3 7 7 0 01-3.8 1.1 6.8 6.8 0 01-3.8-1.1 7 7 0 01-2.6-3 10.6 10.6 0 01-.9-4.5V168a11.4 11.4 0 01.9-4.6 6.8 6.8 0 012.5-3 7.3 7.3 0 013.8-1.1 7.1 7.1 0 013.9 1.1 6.8 6.8 0 012.5 3 11.1 11.1 0 01.9 4.6zm-2.4-1.2a8.4 8.4 0 00-1.2-4.9 4.3 4.3 0 00-3.7-1.7 3.9 3.9 0 00-3.5 1.7 8.1 8.1 0 00-1.4 4.8v1.3a7.9 7.9 0 001.4 4.9 4 4 0 003.6 1.8 4.1 4.1 0 003.5-1.7 7.6 7.6 0 001.3-4.8zm11 8a3.4 3.4 0 002.2-.7 3 3 0 001-1.9h2.2a4.5 4.5 0 01-.8 2.2 5.5 5.5 0 01-2 1.7 5.8 5.8 0 01-2.6.6 5.4 5.4 0 01-4.3-1.8 7.5 7.5 0 01-1.7-5.1v-.3a7.8 7.8 0 01.8-3.5 5.2 5.2 0 012-2.4 5.7 5.7 0 013.2-.8 5.5 5.5 0 013.8 1.3 5 5 0 011.6 3.5H238a3.2 3.2 0 00-1-2.1 2.9 2.9 0 00-2.2-.9 3.2 3.2 0 00-2.7 1.3 6.2 6.2 0 00-1 3.6v.5a6.4 6.4 0 001 3.6 3.2 3.2 0 002.7 1.2zm11.1-15.1v3.3h2.5v1.8h-2.5v8.3a1.7 1.7 0 00.3 1.2 1.2 1.2 0 001.1.4h1.1v1.8l-1.7.3a3.1 3.1 0 01-2.4-.9 4.3 4.3 0 01-.7-2.7V166h-2.5v-1.8h2.5v-3.3zm18.8 16.7h-2.4v-15.3l-4.6 1.7v-2.1l6.6-2.4h.4zm7.7-9l1-9h9.2v2.1h-7.3l-.5 4.9a6.1 6.1 0 013-.8 5.1 5.1 0 013.9 1.7 6.2 6.2 0 011.5 4.4 6.3 6.3 0 01-1.5 4.4 6.5 6.5 0 01-8.2.3 5.4 5.4 0 01-1.7-3.7h2.2a3.4 3.4 0 001.1 2.3 3.6 3.6 0 002.3.8 3.1 3.1 0 002.5-1.1 4 4 0 001-3 4.4 4.4 0 00-1-2.9 3.7 3.7 0 00-2.7-1.1 3.9 3.9 0 00-2.3.6l-.6.5zm47.5-9.1v2h-.5a5.9 5.9 0 00-4.2 1.6 6.6 6.6 0 00-1.9 4.3 5 5 0 013.9-1.6 4.6 4.6 0 013.8 1.6 6.9 6.9 0 011.4 4.3 6.4 6.4 0 01-1.5 4.5 5.6 5.6 0 01-8.3-.3 7.6 7.6 0 01-1.6-5.1v-.9c0-3.4.7-5.9 2.1-7.7s3.5-2.6 6.4-2.7zm-3.1 8.2a3.3 3.3 0 00-2.1.7 4 4 0 00-1.4 1.8v.8a5.7 5.7 0 001 3.6 3.1 3.1 0 002.5 1.4 3 3 0 002.5-1.2 5.7 5.7 0 00-.1-6 3 3 0 00-2.4-1.1zm19.3-3.4a4 4 0 01-.7 2.4 4.6 4.6 0 01-2 1.6 5.2 5.2 0 012.3 1.8 5 5 0 01.8 2.7 4.6 4.6 0 01-1.6 3.7 6 6 0 01-4.1 1.4 6.1 6.1 0 01-4.2-1.4 4.6 4.6 0 01-1.6-3.7 5 5 0 01.8-2.7 5.5 5.5 0 012.2-1.8 4.9 4.9 0 01-1.9-1.6 4.8 4.8 0 01-.7-2.4 4.5 4.5 0 011.5-3.6 5.6 5.6 0 013.9-1.4 5.4 5.4 0 013.8 1.4 4.5 4.5 0 011.5 3.6zm-1.9 8.4a3.7 3.7 0 00-.9-2.5 3.7 3.7 0 00-2.6-.9 3.2 3.2 0 00-2.4.9 3.3 3.3 0 00-1 2.5 3.2 3.2 0 00.9 2.4 3.6 3.6 0 002.6.9 3.5 3.5 0 002.5-.9 3.2 3.2 0 00.9-2.4zm-3.4-11.5a3.1 3.1 0 00-2.2.8 3.2 3.2 0 00-.9 2.3 2.8 2.8 0 00.9 2.2 2.7 2.7 0 002.2.9 2.9 2.9 0 002.2-.9 3.1 3.1 0 00.8-2.2 2.8 2.8 0 00-.9-2.2 2.7 2.7 0 00-2.1-.9zm8.7 1.3a3.1 3.1 0 01.9-2.2 3 3 0 012.3-1 2.8 2.8 0 012.2 1 3.1 3.1 0 01.9 2.2 3.2 3.2 0 01-.9 2.3 3.1 3.1 0 01-2.2.9 2.9 2.9 0 01-2.2-.9 2.9 2.9 0 01-1-2.3zm3.2 1.6a1.5 1.5 0 001.1-.4 1.7 1.7 0 00.5-1.2 1.7 1.7 0 00-1.6-1.6 1.7 1.7 0 00-1.2.5 1.5 1.5 0 00-.4 1.1 1.4 1.4 0 001.6 1.6zm16.8 5.6h-7.6v7.9h-2.4v-18h11.2v1.9h-8.8v6.2h7.6zM300.1 169a2.8 2.8 0 00-1.6.5 4.6 4.6 0 00-4.4-3.5 4.5 4.5 0 00-4.5 4.5 4.5 4.5 0 004.5 4.5h6a2.9 2.9 0 003-3 3 3 0 00-3-3zM411.4 95.7h-9V82.3h3v-1.5h3v1.5h3zM396.4 82.3v13.4h-13.5M358.8 93.8v-9.5h1.6v8h4.3v1.5zm10.2-8v8h-1.6v-8h-2.8v-1.5h7.3v1.5zm11.2-1.5v1.5h-5v2.5h4.5v1.4h-4.5v2.6h5.2v1.5h-6.8v-9.5zM43.8 84.3h3.4v9.5h-1.5v-8h-1.9zm6.5 8.2a5.2 5.2 0 01-1-3.5 5.7 5.7 0 011-3.6 3.4 3.4 0 012.8-1.3 3.5 3.5 0 012.9 1.3 5.7 5.7 0 011 3.6 5.2 5.2 0 01-1 3.5 3.3 3.3 0 01-2.9 1.4 3.2 3.2 0 01-2.8-1.4zm1.1-6.1a5 5 0 00-.6 2.6 4.6 4.6 0 00.6 2.5 1.9 1.9 0 001.7 1 1.9 1.9 0 001.8-1 5.5 5.5 0 00.5-2.5 6.3 6.3 0 00-.5-2.6 2 2 0 00-1.8-.9 2 2 0 00-1.7.9zm7.6 3.9a1.1 1.1 0 01-.3-.7.8.8 0 01.3-.7 1.1 1.1 0 01.7-.3 1.1 1.1 0 01.8.3 1.2 1.2 0 01.2.7 1.9 1.9 0 01-.2.7 1.1 1.1 0 01-.8.3 1.1 1.1 0 01-.7-.3zm0 3.3a1.1 1.1 0 01-.3-.7.8.8 0 01.3-.7 1.1 1.1 0 01.7-.3 1.1 1.1 0 01.8.3 1.2 1.2 0 01.2.7 1.9 1.9 0 01-.2.7 1.1 1.1 0 01-.8.3 1.1 1.1 0 01-.7-.3zm4.5-1.1a5.2 5.2 0 01-1-3.5 5.7 5.7 0 011-3.6 3.4 3.4 0 012.8-1.3 3.5 3.5 0 012.9 1.3 5.7 5.7 0 011 3.6 5.2 5.2 0 01-1 3.5 3.3 3.3 0 01-2.9 1.4 3.2 3.2 0 01-2.8-1.4zm1.1-6.1A5 5 0 0064 89a4.6 4.6 0 00.6 2.5 1.9 1.9 0 001.7 1 1.9 1.9 0 001.8-1 5.5 5.5 0 00.5-2.5 6.3 6.3 0 00-.5-2.6 2 2 0 00-1.8-.9 2 2 0 00-1.7.9zm8.1 6.1a5.8 5.8 0 01-.9-3.5 6.4 6.4 0 01.9-3.6 3.6 3.6 0 012.9-1.3 3.5 3.5 0 012.9 1.3 6.4 6.4 0 01.9 3.6 5.8 5.8 0 01-.9 3.5 3.3 3.3 0 01-2.9 1.4 3.4 3.4 0 01-2.9-1.4zm1.2-6.1a5 5 0 00-.6 2.6 4.6 4.6 0 00.6 2.5 1.9 1.9 0 003.4 0 4.4 4.4 0 00.6-2.5 5 5 0 00-.6-2.6 2.1 2.1 0 00-3.4 0z"/><circle cx="76.2" cy="807.9" r="30.7"/></g><path fill="#eceff1" d="M60.8 792.6h30.7v30.7H60.8z"/><path fill="#cfd8dc" d="M76.2 811.1l15.3 12.1v-23.9z"/><path fill="#f44336" d="M92.8 792.6h-1.3l-15.3 12.1-15.4-12.1h-1.2a3.8 3.8 0 00-3.9 3.8v23a3.8 3.8 0 003.9 3.8h1.2v-23.9l15.4 11.8 15.3-11.8v23.9h1.3a3.8 3.8 0 003.8-3.8v-23a3.8 3.8 0 00-3.8-3.8z"/><circle cx="181.1" cy="807.9" r="30.7" fill="#fff"/><path d="M181.1 780.8v13.8h-13.8l-13.8 13.8h13.8v13.8l13.8 13.8v-13.8h13.8l13.7-13.8h-13.7v-13.8z" opacity=".2"/><path fill="#fec006" d="M181.1 807.4h-27.6l13.8-13.8h13.8"/><path fill="#f34235" d="M181.1 807.4v-27.6l13.8 13.8v13.8"/><path fill="#4bae4f" d="M167.3 807.4v13.8l13.8 13.8v-27.6"/><path fill="#2095f2" d="M181.1 807.4h27.5l-13.7 13.8h-13.8"/><path fill="#fff" d="M181.1 807.4v1h26.6l.9-1z" opacity=".2"/><path fill="#9c27b0" d="M181.1 807.4l13.8-13.8v13.8z"/><path fill="#1ea362" d="M181.1 807.4l-13.8 13.8v-13.8z"/><path fill="#3e50b4" d="M194.9 821.2l-13.8-13.8v13.8z"/><path fill="#fe9700" d="M167.3 793.6l13.8 13.8v-13.8z"/><path fill="#fff" d="M181.1 779.8v1l13.8 13.8v-1zm-13.8 13.8l-13.8 13.8h1l12.8-12.8h13.8v-1z" opacity=".2"/><path d="M181.1 801.5l-2.5 5.4-5.4 2.5 5.4 2.4 2.5 5.5 2.4-5.5 5.4-2.4-5.4-2.5z" opacity=".2"/><path fill="#fff" d="M181.1 799.5l-2.5 5.5-5.4 2.4 5.4 2.5 2.5 5.4 2.4-5.4 5.4-2.5-5.4-2.4z"/><path fill="#ebebeb" d="M173.2 807.4l5.4 2.5 2.5 5.4v-7.9z"/><path fill="#dfdfdf" d="M188.9 807.4l-5.4 2.5-2.4 5.4v-7.9z"/><path fill="#db4437" d="M285.9 807.9v-15.3h26.6a30.6 30.6 0 00-26.5-15.4 30.6 30.6 0 00-26.6 15.4l13.3 23z"/><path fill="#ffcd40" d="M285.9 792.6v15.3l13.3 7.7-13.3 23a30.7 30.7 0 0030.7-30.7 31.9 31.9 0 00-4.1-15.3z"/><path fill="#0f9d58" d="M285.9 807.9l-13.2 7.7-13.3-23a30.7 30.7 0 0026.5 46l13.3-23z"/><path fill="#c24437" d="M286 799.6v-7h26.4z"/><path fill="#ffbe40" d="M286 838.5l7.1-26.4 6.1 3.4z"/><path fill="#00944e" d="M259.4 792.6l19.3 19.5-6 3.5z"/><circle cx="286" cy="807.9" r="13.3" fill="#4285f4"/><path fill="#fff" d="M286 796.7a11.3 11.3 0 11-11.3 11.2 11.2 11.2 0 0111.3-11.2m0-4.1a15.4 15.4 0 1015.3 15.3 15.3 15.3 0 00-15.3-15.3z"/><circle cx="390.8" cy="807.9" r="30.7" fill="#fff"/><path fill="#f44336" d="M410.3 798.2a5 5 0 00-3.6-3.6c-3.2-.9-15.9-.9-15.9-.9s-12.7 0-15.8.8a5.4 5.4 0 00-3.6 3.7c-.8 3.1-.8 9.7-.8 9.7s0 6.6.8 9.8a4.9 4.9 0 003.6 3.5c3.2.9 15.8.9 15.8.9s12.7 0 15.9-.8a5.4 5.4 0 003.6-3.6c.8-3.2.8-9.8.8-9.8s.1-6.6-.8-9.7zM386.8 814v-12.2l10.6 6.1z"/><circle cx="286.5" cy="500" r="30.7" fill="#fff"/></svg>