<svg xmlns="http://www.w3.org/2000/svg" viewBox="0 0 1472.6 996"><defs><linearGradient id="a" x1="-1761.8" x2="-1761.5" y1="2951.1" y2="2951.1" gradientTransform="matrix(0 116.17 118.82 0 -349874.8 204737)" gradientUnits="userSpaceOnUse"><stop offset="0" stop-color="#fdfdfd"/><stop offset="1" stop-color="#f3f3f3"/></linearGradient></defs><path fill="#ccc" fill-opacity=".3" fill-rule="evenodd" stroke="gray" stroke-linecap="round" stroke-linejoin="round" stroke-opacity=".5" stroke-width="1.9" d="M1471.6 19.6A18.6 18.6 0 001453 1H19.5A18.5 18.5 0 001 19.6v956.8A18.6 18.6 0 0019.5 995H1453a18.6 18.6 0 0018.6-18.6z"/><path fill="none" stroke="gray" stroke-linecap="square" stroke-miterlimit="1.5" stroke-width=".7" d="M1452.6 957.3a18.6 18.6 0 00-18.6-18.6h-94.2a18.6 18.6 0 100 37.2h94.2a18.6 18.6 0 0018.6-18.6z"/><path fill="#2196f3" fill-opacity=".8" d="M1335.4 961.9v3.2h3.2l9.6-9.6-3.3-3.2zm15.3-8.9a.9.9 0 000-1.2l-2-2.1a1.1 1.1 0 00-1.3 0l-1.5 1.6 3.2 3.3zM1370.9 960.7a3.8 3.8 0 01-1.2 2.6 4.6 4.6 0 01-2.9.9 3.8 3.8 0 01-2.2-.6 3.1 3.1 0 01-1.5-1.7 4.9 4.9 0 01-.5-2.5v-1a5.3 5.3 0 01.5-2.6 3.4 3.4 0 011.5-1.8 4.1 4.1 0 012.3-.6 3.9 3.9 0 012.8 1 3.8 3.8 0 011.2 2.6h-1.8a2.4 2.4 0 00-.7-1.6 2.3 2.3 0 00-1.5-.5 2.3 2.3 0 00-1.9.9 4.2 4.2 0 00-.6 2.5v1a4.8 4.8 0 00.6 2.6 2 2 0 001.8.9 2.5 2.5 0 001.6-.5 2.4 2.4 0 00.7-1.6zm6.2 3.4h1.7v-7.8h-1.8v5.6a1.7 1.7 0 01-1.7.9q-1.2 0-1.2-1.5v-5h-1.8v5a2.9 2.9 0 00.7 2.2 2.2 2.2 0 001.9.7 2.8 2.8 0 002.2-.9zm7.5-1.5a2.2 2.2 0 01-2.2 0 1.2 1.2 0 01-.5-1h-1.7a2 2 0 00.4 1.3 2.9 2.9 0 001.2 1 4.7 4.7 0 001.7.3 4.1 4.1 0 002.3-.6 2.1 2.1 0 00.9-1.7 1.8 1.8 0 00-.3-1.1 2.4 2.4 0 00-.9-.8 5 5 0 00-1.6-.5 4.2 4.2 0 01-1.4-.5.6.6 0 01-.3-.6.9.9 0 01.3-.7 1.7 1.7 0 011-.3 1.3 1.3 0 011 .4 1.1 1.1 0 01.3.8h1.8a2.3 2.3 0 00-.9-1.8 3.6 3.6 0 00-2.2-.7 3.2 3.2 0 00-2.2.7 2 2 0 00.5 3.5 5.3 5.3 0 001.5.5l1.3.4a1 1 0 01.3.8.7.7 0 01-.3.6zm4-8.2v1.9h-1.3v1.3h1.3v4.4c0 1.5.7 2.2 2.1 2.2h1.1v-1.4h-.6l-.6-.2a.8.8 0 01-.2-.7v-4.3h1.4v-1.3h-1.4v-1.9zm4 5.8a4.4 4.4 0 00.9 2.9 3.3 3.3 0 002.7 1.1 3.2 3.2 0 001.9-.5 3.5 3.5 0 001.3-1.4 4.6 4.6 0 00.4-2.1v-.4a4.1 4.1 0 00-1.1-2.7 3.6 3.6 0 00-2.5-1 3.8 3.8 0 00-1.9.5 2.9 2.9 0 00-1.3 1.4 4.6 4.6 0 00-.4 2.1zm2.2-2a1.7 1.7 0 011.4-.7 1.6 1.6 0 011.3.7 2.9 2.9 0 01.6 1.9 3.4 3.4 0 01-.5 2 1.6 1.6 0 01-1.4.7 1.5 1.5 0 01-1.4-.7 3.1 3.1 0 01-.5-1.9 3.7 3.7 0 01.5-2zm6.5-1.9v7.8h1.7v-5.7a1.5 1.5 0 011.5-.8c.9 0 1.4.4 1.4 1.3v5.2h1.8v-5.4a2.2 2.2 0 01.5-.8 1.7 1.7 0 011-.3 1.8 1.8 0 011.1.3 1.6 1.6 0 01.3 1.1v5.1h1.7v-5.2a3.3 3.3 0 00-.6-2.1 3 3 0 00-4.3.5 2.2 2.2 0 00-2.2-1.2 2.6 2.6 0 00-2.2 1v-.8zm14.7 0h-1.8v7.8h1.8zm-1.6-1.4a.9.9 0 00.7.3 1.1 1.1 0 00.8-.3 1.4 1.4 0 00.2-.7 1.1 1.1 0 00-.2-.6 1.1 1.1 0 00-.8-.3.9.9 0 00-.7.3.7.7 0 00-.3.6.9.9 0 00.3.7zm5.4 7.8l4-5.3v-1.1h-6.1v1.4h3.9l-4 5.2v1.2h6.3v-1.4zm10.6 1.1a3.2 3.2 0 001.3-1l-1-1a2.2 2.2 0 01-1.9 1 2.5 2.5 0 01-1.5-.5 2.6 2.6 0 01-.6-1.6h5.1v-.7a4.4 4.4 0 00-.9-2.9 3.3 3.3 0 00-2.4-1 4.1 4.1 0 00-1.9.5 4.4 4.4 0 00-1.2 1.5 4.6 4.6 0 00-.5 2.1v.2a3.9 3.9 0 001.1 2.8 3.3 3.3 0 002.6 1 3.4 3.4 0 001.8-.4zm-.8-5.8a2.2 2.2 0 01.5 1.3h-3.4a3 3 0 01.6-1.4 1.6 1.6 0 011.1-.5 1.7 1.7 0 011.2.6z"/><path fill="#b3b3b3" fill-opacity=".3" fill-rule="evenodd" d="M1471.2 19.8a18.3 18.3 0 00-18.5-18.5H19.8A18.3 18.3 0 001.3 19.8v77a18.6 18.6 0 0018.5 18.6h1432.9a18.6 18.6 0 0018.5-18.6z"/><circle cx="30.7" cy="30.5" r="8.8" fill="#ec6a5e"/><circle cx="60.4" cy="30.5" r="8.8" fill="#f5bf4f"/><circle cx="90" cy="30.5" r="8.8" fill="#64c554"/><path fill="none" stroke="gray" stroke-linecap="round" stroke-miterlimit="1.5" stroke-width="1.9" d="M507.1 28.3v13.5m6.7-6.8h-13.5"/><path fill="#bfbfbf" fill-rule="evenodd" d="M473 30.9c0-6.9 0-10.3-1.4-12.9a12.1 12.1 0 00-4.8-4.7c-2.7-1.4-6.2-1.4-13.2-1.4H136.3c-6.9 0-10.4 0-13.1 1.4a12.1 12.1 0 00-4.8 4.7c-1.4 2.6-1.4 6-1.4 12.9v11.5c0 6.9 0 10.3-1.4 12.9a11.4 11.4 0 01-4.8 4.7c-2.7 1.4-6.2 1.4-13.1 1.4H1.5a.2.2 0 00-.2.2v53.6a.2.2 0 00.2.2h1469.6l.1-.2V61.6H492.3c-6.9 0-10.4 0-13.1-1.4a11.4 11.4 0 01-4.8-4.7c-1.4-2.6-1.4-6-1.4-12.9V30.9z"/><path fill="#3d4043" d="M146.7 42.5H145l-6.4-9.6v9.6h-1.7V30.1h1.7l6.4 9.6v-9.6h1.7v12.4zm6.6.2a3.9 3.9 0 01-3.1-1.3 4.5 4.5 0 01-1.2-3.3v-.3a6 6 0 01.5-2.4 5 5 0 011.5-1.7 4.2 4.2 0 012.1-.6 3.7 3.7 0 012.9 1.2 5.5 5.5 0 011 3.4v.6h-6.4a3.1 3.1 0 00.8 2.2 2.5 2.5 0 002 .9 2.1 2.1 0 001.4-.4 3.1 3.1 0 001.1-.9l1 .8a4 4 0 01-3.6 1.8zm-.2-8.3a2 2 0 00-1.6.7 2.9 2.9 0 00-.9 1.9h4.8a3 3 0 00-.7-1.8 1.9 1.9 0 00-1.6-.8zm14.1 5.9l1.8-7h1.6l-2.7 9.2h-1.3l-2.3-7-2.3 7h-1.3l-2.7-9.2h1.6l1.9 6.9 2.2-6.9h1.3l2.2 7zm18.1-8.9h-4v11.1h-1.7V31.4h-4.1v-1.3h9.8v1.3zm6.5 11.1a2.2 2.2 0 01-.2-1 3.7 3.7 0 01-2.7 1.2 3.6 3.6 0 01-2.3-.8 2.5 2.5 0 01-.9-2 2.7 2.7 0 011.1-2.2 5.8 5.8 0 013.2-.8h1.5v-.7a1.4 1.4 0 00-.5-1.3 1.6 1.6 0 00-1.4-.5 2.4 2.4 0 00-1.5.4 1.2 1.2 0 00-.6 1h-1.6a2.4 2.4 0 01.5-1.3 3 3 0 011.4-1 3.8 3.8 0 011.9-.4 3.9 3.9 0 012.5.8 3.2 3.2 0 011 2.2v4.2a5.8 5.8 0 00.3 2.1h-1.7zm-2.7-1.2a2.8 2.8 0 001.5-.4 2.2 2.2 0 00.9-1V38h-1.2c-2 0-3 .6-3 1.7a1.7 1.7 0 00.5 1.2 2 2 0 001.3.4zm14.6-3.3a6 6 0 01-1 3.4 3.5 3.5 0 01-2.7 1.3 3.3 3.3 0 01-2.8-1.3v1.1h-1.5V29.4h1.6v4.9a3.2 3.2 0 012.7-1.2 3.2 3.2 0 012.7 1.3 5.7 5.7 0 011 3.4v.2zm-1.6-.2a4.4 4.4 0 00-.7-2.5 2 2 0 00-1.8-.9 2.4 2.4 0 00-2.3 1.5v4a2.5 2.5 0 002.3 1.4 2 2 0 001.8-.9 4.3 4.3 0 00.7-2.6z"/><path fill="none" stroke="#737373" stroke-linecap="round" stroke-miterlimit="1.5" stroke-width="1.9" d="M456.2 29.5l-11 11m11 0l-11-11"/><path fill="#9b9b9b" d="M1.3 114.6H1471v.7H1.3z"/><path fill="none" stroke="#606367" stroke-linecap="round" stroke-linejoin="round" stroke-width="1.9" d="M41.4 87.3h-17m8.1-7.9l-8.1 7.9m0 0l8.1 7.8"/><path fill="none" stroke="#999" stroke-linecap="round" stroke-linejoin="round" stroke-width="1.9" d="M71.9 87.3H89m-8.2-7.9l8.2 7.9m0 0l-8.2 7.8"/><path fill="none" stroke="#606367" stroke-linecap="round" stroke-width="1.9" d="M135.5 83.5a8.7 8.7 0 00-7.5-4.2 8.4 8.4 0 100 16.7 8.5 8.5 0 007.7-4.7"/><path fill="#606367" d="M138.4 78.2v8h-8.1z"/><path fill="url(#a)" fill-rule="evenodd" d="M1362.3 88a18.6 18.6 0 00-18.6-18.6H181.4A18.6 18.6 0 00162.8 88v.7a18.7 18.7 0 0018.6 18.6h1162.3a18.6 18.6 0 0018.6-18.6z"/><path fill="#ccc" d="M209.3 88.8a9.8 9.8 0 01-3.4-1.6 3.4 3.4 0 01-1.1-2.4 3.3 3.3 0 011.3-2.6 5.3 5.3 0 013.4-1.1 4.9 4.9 0 012.5.6 3.7 3.7 0 011.8 1.4 4.2 4.2 0 01.6 2.1h-1.9a2.4 2.4 0 00-.7-1.9 3.3 3.3 0 00-2.3-.7 3.3 3.3 0 00-2.1.6 2 2 0 000 3 9.6 9.6 0 002.4 1 13 13 0 012.7 1 4.7 4.7 0 011.4 1.4 3.4 3.4 0 01.5 1.7 3.2 3.2 0 01-1.3 2.7 6.1 6.1 0 01-3.5 1 5.8 5.8 0 01-2.6-.6 4 4 0 01-1.9-1.4 3.3 3.3 0 01-.7-2.1h1.8a2.2 2.2 0 001 1.9 3.6 3.6 0 002.4.7 3.4 3.4 0 002.2-.6 1.9 1.9 0 00.8-1.5 2.2 2.2 0 00-.7-1.6 10 10 0 00-2.6-1zm11.4 6.2a4.6 4.6 0 01-3.4-1.4A4.8 4.8 0 01216 90v-.3a5.5 5.5 0 01.6-2.6 4.9 4.9 0 011.6-1.9 4.6 4.6 0 012.3-.6 3.9 3.9 0 013.1 1.3 5.3 5.3 0 011.1 3.6v.8h-6.9a4.1 4.1 0 00.8 2.4 2.9 2.9 0 002.2.9 4.2 4.2 0 001.6-.4 5.2 5.2 0 001.1-1l1 .8a4.2 4.2 0 01-3.8 2zm-.2-9a2.4 2.4 0 00-1.8.7 3.4 3.4 0 00-.9 2.2h5.1v-.2a3.2 3.2 0 00-.7-2 2.1 2.1 0 00-1.7-.7zm12.5 8.8a2.7 2.7 0 01-.2-1.1 4.3 4.3 0 01-2.9 1.3 3.3 3.3 0 01-2.5-.9 2.4 2.4 0 01-1-2.1 2.7 2.7 0 011.2-2.4 5.7 5.7 0 013.4-.9h1.7v-.8a2 2 0 00-.5-1.4 2.1 2.1 0 00-1.6-.5 2.5 2.5 0 00-1.6.4 1.4 1.4 0 00-.6 1.1h-1.8a2.2 2.2 0 01.6-1.4 3.1 3.1 0 011.4-1.1 4.6 4.6 0 012.1-.4 4.3 4.3 0 012.7.8 3.4 3.4 0 011.1 2.4v4.6a6.5 6.5 0 00.3 2.2v.2zm-2.9-1.3a3 3 0 001.6-.5 1.9 1.9 0 001-1v-2.1h-1.3c-2.2 0-3.2.6-3.2 1.9a1.3 1.3 0 00.5 1.2 2.2 2.2 0 001.4.5zm12-7.2h-.8a2.2 2.2 0 00-2.3 1.5v7.1h-1.8v-10h1.7V86a2.8 2.8 0 012.5-1.3h.7zm5.6 7.3a2.5 2.5 0 001.6-.6 2 2 0 00.8-1.4h1.6a2.9 2.9 0 01-.6 1.7 4.4 4.4 0 01-1.5 1.2 4.1 4.1 0 01-1.9.5 4.6 4.6 0 01-3.4-1.4 5.5 5.5 0 01-1.2-3.7v-.3a5.3 5.3 0 01.6-2.6 3.8 3.8 0 011.5-1.8 4.9 4.9 0 012.5-.6 4 4 0 012.8 1 3.2 3.2 0 011.2 2.6h-1.6a2.5 2.5 0 00-.8-1.6 2.3 2.3 0 00-1.6-.6 2.6 2.6 0 00-2.1.9 4.3 4.3 0 00-.7 2.7v.4a4 4 0 00.7 2.6 2.7 2.7 0 002.1 1zm7.7-7.6a3.6 3.6 0 013-1.4q3.3 0 3.3 3.6v6.6H260v-6.7a1.8 1.8 0 00-2.1-2.1 3 3 0 00-1.5.5 5.2 5.2 0 00-1 1.1v7.2h-1.7V80.6h1.7zm24.1 7a4.1 4.1 0 01-1.9 1.5 8.4 8.4 0 01-2.9.5 6.1 6.1 0 01-3-.8 5.3 5.3 0 01-2-2.2 8.9 8.9 0 01-.8-3.3v-1.2a6.8 6.8 0 011.5-4.7 5.2 5.2 0 014.1-1.7 5.1 5.1 0 013.4 1.1 4.5 4.5 0 011.6 3.1h-1.8a2.9 2.9 0 00-3.2-2.7 3.4 3.4 0 00-2.8 1.2 6.5 6.5 0 00-.9 3.7v1.1a5.7 5.7 0 001 3.6 3.5 3.5 0 002.9 1.3l1.8-.2a2.5 2.5 0 001.2-.8v-3h-3.1v-1.4h4.9V93zm2.3-3.3a6 6 0 01.6-2.7 4.2 4.2 0 011.7-1.8 4.8 4.8 0 012.4-.6 4 4 0 013.3 1.4 5.2 5.2 0 011.3 3.8 5.5 5.5 0 01-.6 2.6 3.5 3.5 0 01-1.6 1.8 4.8 4.8 0 01-2.4.7 4.3 4.3 0 01-3.4-1.5 5.5 5.5 0 01-1.3-3.7zm1.8.2a4 4 0 00.8 2.7 2.7 2.7 0 002.1 1 2.5 2.5 0 002.1-1.1 4.4 4.4 0 00.8-2.8 4.6 4.6 0 00-.8-2.7 2.6 2.6 0 00-2.1-1 2.4 2.4 0 00-2.1 1 4.2 4.2 0 00-.8 2.9zm9.2-.2a6 6 0 01.6-2.7 4.2 4.2 0 011.7-1.8 4.8 4.8 0 012.4-.6 3.9 3.9 0 013.3 1.4 5.2 5.2 0 011.3 3.8 7.1 7.1 0 01-.5 2.6 4.2 4.2 0 01-1.7 1.8 4.8 4.8 0 01-2.4.7 4.3 4.3 0 01-3.4-1.5 5.5 5.5 0 01-1.3-3.7zm1.8.2a4.6 4.6 0 00.8 2.7 2.7 2.7 0 002.1 1 2.5 2.5 0 002.1-1.1 4.4 4.4 0 00.8-2.8 4.6 4.6 0 00-.8-2.7 2.7 2.7 0 00-4.2 0 4.8 4.8 0 00-.8 2.9zm9.3-.2A5.8 5.8 0 01305 86a3.4 3.4 0 012.9-1.4 3.5 3.5 0 013 1.3v-1.1h1.6v9.7a4.5 4.5 0 01-1.1 3.1 4.8 4.8 0 01-3.2 1.1 4.4 4.4 0 01-2.2-.5 4 4 0 01-1.6-1.2l.9-1a3.5 3.5 0 002.8 1.3 2.7 2.7 0 002-.7 3 3 0 00.7-2v-.8a3.7 3.7 0 01-2.9 1.2 3.5 3.5 0 01-2.9-1.5 6.1 6.1 0 01-1.1-3.8zm1.8.2a4 4 0 00.7 2.6 2.1 2.1 0 002 1 2.5 2.5 0 002.4-1.5v-4.5a2.7 2.7 0 00-2.4-1.5 2.5 2.5 0 00-2 1 4.6 4.6 0 00-.7 2.9zm11.4 4.9h-1.8V80.6h1.8zm7 .2a4.6 4.6 0 01-3.4-1.4 5.3 5.3 0 01-1.3-3.6v-.3a5.5 5.5 0 01.6-2.6 4.9 4.9 0 011.6-1.9 4.6 4.6 0 012.3-.6 3.7 3.7 0 013.1 1.3 5.3 5.3 0 011.1 3.6v.8h-6.9a3.6 3.6 0 00.9 2.4 2.6 2.6 0 002.1.9 4.2 4.2 0 001.6-.4 5.2 5.2 0 001.1-1l1.1.8a4.5 4.5 0 01-3.9 2zm-.2-9a2.4 2.4 0 00-1.8.7 3.4 3.4 0 00-.9 2.2h5.1v-.2a2.7 2.7 0 00-.7-2 2.1 2.1 0 00-1.7-.7zm10.6 3.7a5.9 5.9 0 01.5-2.7 4.2 4.2 0 011.7-1.8 4.8 4.8 0 012.4-.6 4.2 4.2 0 013.4 1.4 5.6 5.6 0 011.2 3.8 5.5 5.5 0 01-.5 2.6 4.2 4.2 0 01-1.7 1.8 4.8 4.8 0 01-2.4.7 4.3 4.3 0 01-3.4-1.5 5.5 5.5 0 01-1.2-3.7zm1.7.2a4.6 4.6 0 00.8 2.7 2.7 2.7 0 002.1 1 2.5 2.5 0 002.1-1.1 4.4 4.4 0 00.8-2.8 4.6 4.6 0 00-.8-2.7 2.7 2.7 0 00-4.2 0 4.8 4.8 0 00-.8 2.9zm14.7-3.6h-.9a2.3 2.3 0 00-2.3 1.5v7.1h-1.8v-10h1.7V86a2.5 2.5 0 012.4-1.3h.8v1.6zm8.7-4v2.5h1.9v1.3h-1.9v6.2a1.1 1.1 0 001.2 1.2h.8v1.4l-1.3.2a2.5 2.5 0 01-1.8-.7 3.2 3.2 0 01-.6-2v-6.3H356v-1.3h1.9v-2.5zm7.3 10l2.4-7.5h1.9l-4.1 11.5c-.7 1.7-1.7 2.5-3.1 2.5h-.9v-1.5h.4a2.6 2.6 0 001.4-.3 3.2 3.2 0 00.8-1.3l.4-1-3.6-9.9h1.9zm14.5-2.4a6.2 6.2 0 01-1.1 3.7 3.6 3.6 0 01-2.9 1.4 3.7 3.7 0 01-2.9-1.2v4.8h-1.8V84.8h1.6v1.1a3.5 3.5 0 013-1.3 3.5 3.5 0 012.9 1.3 6.1 6.1 0 011.1 3.8zm-1.8-.2a4.5 4.5 0 00-.7-2.7 2.6 2.6 0 00-4.4.4v4.8a2.6 2.6 0 004.4.4 4.8 4.8 0 00.7-2.9zm8.2 5.3a4.4 4.4 0 01-3.3-1.4 4.8 4.8 0 01-1.3-3.6v-.3a5.5 5.5 0 01.5-2.6 5.2 5.2 0 011.7-1.9 4.3 4.3 0 012.2-.6 3.7 3.7 0 013.1 1.3 5.3 5.3 0 011.1 3.6v.8h-6.9a3.6 3.6 0 00.9 2.4 2.7 2.7 0 002.1.9 3.8 3.8 0 001.6-.4 5.2 5.2 0 001.1-1l1.1.8a4.5 4.5 0 01-3.9 2zm-.2-9a2.4 2.4 0 00-1.8.7 4.1 4.1 0 00-.8 2.2h5.1v-.2a4 4 0 00-.7-2 2.4 2.4 0 00-1.8-.7zm17.3 8.8a7.5 7.5 0 01-.2-1.1 4.1 4.1 0 01-2.9 1.3 3.7 3.7 0 01-2.5-.9 2.7 2.7 0 01-1-2.1 2.6 2.6 0 011.3-2.4 5.5 5.5 0 013.4-.9h1.7v-.8a1.7 1.7 0 00-.6-1.4 1.9 1.9 0 00-1.6-.5 2.9 2.9 0 00-1.6.4 1.4 1.4 0 00-.6 1.1h-1.7a2 2 0 01.5-1.4 3.5 3.5 0 011.5-1.1 4.5 4.5 0 012-.4 4.7 4.7 0 012.8.8 3.3 3.3 0 011 2.4v4.6a4.6 4.6 0 00.4 2.2v.2zm-2.9-1.3a3 3 0 001.6-.5 2.7 2.7 0 001.1-1v-2.1h-1.4c-2.1 0-3.2.6-3.2 1.9a1.7 1.7 0 00.5 1.2 2.4 2.4 0 001.4.5zm21.9-12.2v9.2a4.3 4.3 0 01-1.2 3.1 5 5 0 01-3.3 1.3h-.5a5.2 5.2 0 01-3.6-1.2 4.6 4.6 0 01-1.4-3.3v-9.1h1.8v9.1a2.9 2.9 0 00.9 2.3 3.7 3.7 0 004.6 0 2.9 2.9 0 00.9-2.3v-9.1zm7.9 8h-3.2v5.5h-1.9V81.3h4.6a5.2 5.2 0 013.5 1 3.6 3.6 0 011.3 3.1 3.1 3.1 0 01-.7 2.1 3.8 3.8 0 01-1.9 1.4l3.2 5.8h-1.9l-3-5.5zm-3.2-1.4h2.7a3.8 3.8 0 002.2-.7 2.5 2.5 0 00.8-1.8 2.6 2.6 0 00-.8-2 3.4 3.4 0 00-2.2-.6h-2.7v5.1zm11.9 5.4h6.5v1.5h-8.4V81.3h1.9v12z"/><path fill="#fbbb00" d="M181.6 90.2l-.6 2.3h-2.2a8.5 8.5 0 01-1.1-4.2 9.5 9.5 0 011-4.1l2 .4.9 2a4.7 4.7 0 00-.3 1.7 5.8 5.8 0 00.3 1.9"/><path fill="#518ef8" d="M195.2 86.7a7.8 7.8 0 01.2 1.6 12.3 12.3 0 01-.2 1.9 9.3 9.3 0 01-3.1 5h-2.6l-.3-2.3a5.8 5.8 0 002.3-2.6h-4.8v-3.6z"/><path fill="#28b446" d="M192.1 95.2a9.1 9.1 0 01-5.6 2 8.8 8.8 0 01-7.7-4.7l2.8-2.3a5.5 5.5 0 004.9 3.4 5 5 0 002.7-.8z"/><path fill="#f14336" d="M192.2 81.5l-2.9 2.3a5.2 5.2 0 00-7.7 2.8l-2.9-2.4a8.9 8.9 0 0113.5-2.7"/><path fill="none" stroke="#606367" stroke-linecap="round" stroke-linejoin="round" stroke-opacity=".4" stroke-width="1.9" d="M1333.4 79.4l2.5 5.7 6.3.5-4.8 4.1 1.4 6-5.4-3.2-5.4 3.2 1.4-6-4.7-4.1 6.2-.5 2.5-5.7z"/><circle cx="1393" cy="87.8" r="14.9" fill="#999"/><path fill="#666" fill-rule="evenodd" d="M1393 80a3.8 3.8 0 013.9 3.9 3.9 3.9 0 11-7.8 0 3.8 3.8 0 013.9-3.9zm0 20.6a12.5 12.5 0 009.4-4.2 10.4 10.4 0 00-18.8 0 12.5 12.5 0 009.4 4.2z"/><path fill="#606367" fill-rule="evenodd" d="M1442.7 80.5a2.2 2.2 0 01-2.3 2.2 2.2 2.2 0 010-4.4 2.2 2.2 0 012.3 2.2zm0 7.3a2.2 2.2 0 01-2.3 2.2 2.2 2.2 0 010-4.4 2.2 2.2 0 012.3 2.2zm-2.3 9.5a2.2 2.2 0 100-4.4 2.2 2.2 0 000 4.4z"/><path fill="#fff" fill-rule="evenodd" d="M861.8 286.8c-9.4 0-11.5-6.9-11.5-6.9l31.4-12.3s-4.3-17-21-17-22.3 14.3-22.3 22.8 7.2 22.3 23.3 22.3a24.1 24.1 0 0019.6-10l-7.9-5.1s-4.2 6.3-11.6 6.2zm-2-27.4c6-1.1 10 4.7 10 4.7l-21.2 8.2s-1.6-10.7 11.2-12.9zm-36.3-31.1H834v66.2h-10.5zm-16.6 27.9a15.9 15.9 0 00-13-5.6c-11 .3-22.3 8.4-22.3 22.5s12 22.5 22.2 22.5 13.1-5.6 13.1-5.6v4.5c0 3.2-1.3 12.7-12.2 12.7a12.9 12.9 0 01-12.3-8.2l-8.9 3.6a22.3 22.3 0 0020.8 13.2c15.6 0 22.3-11.2 22.3-21.9v-41.8h-9.7zm-12.3 30.9c-7.1 0-12.8-6.2-12.8-13.8s5.7-13.9 12.8-13.9 12.8 6.2 12.8 13.9-5.7 13.8-12.8 13.8zm-129.5-29.4l.1 3.1c0 19.2-15.9 34.8-35.6 34.8s-35.7-15.6-35.7-34.8 16-34.9 35.7-34.9a35.9 35.9 0 0125.5 10.5l-6.9 6.6a25.7 25.7 0 00-43.8 17.8 25.4 25.4 0 0025.7 25.1 25.5 25.5 0 0024.8-18.8H631v-9.4h34.1z"/><ellipse cx="743.7" cy="273.1" fill="none" stroke="#fff" stroke-miterlimit="134.3" stroke-width="9.2" rx="18.9" ry="18.2"/><ellipse cx="692.2" cy="273.1" fill="none" stroke="#fff" stroke-miterlimit="134.3" stroke-width="9.2" rx="18.9" ry="18.2"/><path fill="#999" fill-opacity=".5" fill-rule="evenodd" d="M1056.1 400.1a30.9 30.9 0 00-30.9-31H448.9a31 31 0 00-30.9 31v3.5a31 31 0 0030.9 31h576.3a30.9 30.9 0 0030.9-31z"/><path fill-opacity=".3" d="M452.6 403.8a10.1 10.1 0 01-3.9-1.8 3.8 3.8 0 01-1.2-2.8 3.7 3.7 0 011.5-3 6.1 6.1 0 013.9-1.2 6.8 6.8 0 012.9.6 4.5 4.5 0 012.7 4.1h-2.1a2.8 2.8 0 00-.9-2.2 4 4 0 00-2.6-.8 3.3 3.3 0 00-2.4.7 2 2 0 00-.9 1.8 2.1 2.1 0 00.8 1.6 6.7 6.7 0 002.8 1.2 16.8 16.8 0 013.1 1.2 5.3 5.3 0 011.7 1.6 3.9 3.9 0 01.5 2 3.7 3.7 0 01-1.5 3.1 6.8 6.8 0 01-4 1.1 8.1 8.1 0 01-3.1-.6 6.2 6.2 0 01-2.2-1.7 4 4 0 01-.7-2.4h2.1a2.6 2.6 0 001 2.2 5.2 5.2 0 002.9.8 4.4 4.4 0 002.5-.6 2.3 2.3 0 00.9-1.9 2.1 2.1 0 00-.8-1.7 9.7 9.7 0 00-3-1.3zm13.2 7.2a5.3 5.3 0 01-3.9-1.5 6 6 0 01-1.5-4.2v-.3a7.5 7.5 0 01.6-3.1 5.5 5.5 0 011.9-2.1 5 5 0 012.6-.8 4.3 4.3 0 013.6 1.5 6 6 0 011.3 4.2v.9h-8a4.1 4.1 0 001 2.7 3.4 3.4 0 002.5 1.1 4.8 4.8 0 001.8-.4 4.9 4.9 0 001.3-1.2l1.2 1a5.1 5.1 0 01-4.4 2.2zm-.3-10.4a2.5 2.5 0 00-2 .9 3.8 3.8 0 00-1 2.4h5.9a3.7 3.7 0 00-.9-2.3 2.3 2.3 0 00-2-.9zm14.5 10.2a6.8 6.8 0 01-.3-1.2 4.5 4.5 0 01-3.3 1.4 4.1 4.1 0 01-2.9-1 3 3 0 01-1.1-2.4 3.2 3.2 0 011.4-2.8 6.3 6.3 0 013.9-1h2v-.9a2.4 2.4 0 00-.6-1.7 2.9 2.9 0 00-1.9-.6 3.5 3.5 0 00-1.8.5 1.6 1.6 0 00-.7 1.3h-2.1a2.1 2.1 0 01.7-1.6 3.3 3.3 0 011.7-1.3 5.9 5.9 0 012.3-.5 4.4 4.4 0 013.2 1 3.5 3.5 0 011.2 2.8v5.3a8.2 8.2 0 00.4 2.5v.2zm-3.3-1.5a4.1 4.1 0 001.8-.5 3 3 0 001.2-1.3v-2.3h-1.6c-2.5 0-3.7.7-3.7 2.1a1.7 1.7 0 00.6 1.4 2.5 2.5 0 001.7.6zm13.9-8.3h-1a2.8 2.8 0 00-2.7 1.7v8.2h-2v-11.7h1.9v1.3a3.1 3.1 0 012.8-1.5h.9zm6.4 8.4a2.8 2.8 0 001.9-.7 1.9 1.9 0 00.8-1.6h2a4.4 4.4 0 01-.7 1.9 5.4 5.4 0 01-1.8 1.5 5.4 5.4 0 01-2.2.5 5 5 0 01-3.9-1.6 6.3 6.3 0 01-1.4-4.3v-.3a6.7 6.7 0 01.6-3 5.5 5.5 0 011.9-2.1 4.9 4.9 0 012.8-.7 4.4 4.4 0 013.2 1.2 4 4 0 011.5 3h-2a2.2 2.2 0 00-.8-1.8 2.7 2.7 0 00-1.9-.8 2.8 2.8 0 00-2.4 1.1 4.8 4.8 0 00-.9 3.1v.4a4.6 4.6 0 00.9 3.1 2.8 2.8 0 002.4 1.1zm8.9-8.8a4.3 4.3 0 013.5-1.6c2.5 0 3.8 1.4 3.8 4.1v7.7h-2v-7.7a2.1 2.1 0 00-2.4-2.4 2.6 2.6 0 00-1.7.5 3.7 3.7 0 00-1.2 1.3v8.3h-2v-16.4h2zm27.9 8.1a4 4 0 01-2.3 1.7 8.1 8.1 0 01-3.3.6 6.8 6.8 0 01-3.5-.9 6.2 6.2 0 01-2.3-2.5 9.3 9.3 0 01-.8-3.9v-1.3a8.2 8.2 0 011.6-5.5 6 6 0 014.7-1.9 5.7 5.7 0 014 1.3 4.9 4.9 0 011.9 3.5h-2.1a3.4 3.4 0 00-3.7-3.1 3.9 3.9 0 00-3.2 1.4 6.6 6.6 0 00-1.1 4.2v1.3a6.8 6.8 0 001.2 4.2 4 4 0 003.3 1.5l2.1-.2a4.2 4.2 0 001.4-.9v-3.5H528V403h5.8v5.7zm2.6-3.8a7.8 7.8 0 01.7-3.1 5.5 5.5 0 011.9-2.1 5.3 5.3 0 012.8-.7 5 5 0 013.9 1.6 6.3 6.3 0 011.5 4.4 6.2 6.2 0 01-.7 3.1 4.1 4.1 0 01-1.9 2 5.1 5.1 0 01-2.8.8 5.3 5.3 0 01-3.9-1.6 6.3 6.3 0 01-1.5-4.4zm2.1.2a5 5 0 00.9 3.1 2.9 2.9 0 002.4 1.2 3 3 0 002.5-1.2 5.4 5.4 0 00.9-3.3 4.5 4.5 0 00-1-3.1 3 3 0 00-4.8 0 5.4 5.4 0 00-.9 3.3zm10.7-.2a6.4 6.4 0 01.7-3.1 4.8 4.8 0 011.9-2.1 5.6 5.6 0 016.6.9 6.3 6.3 0 011.5 4.4 7.5 7.5 0 01-.6 3.1 5.2 5.2 0 01-1.9 2 5.4 5.4 0 01-6.7-.8 6.3 6.3 0 01-1.5-4.4zm2 .2a5 5 0 00.9 3.1 2.9 2.9 0 002.5 1.2 2.9 2.9 0 002.4-1.2 5.4 5.4 0 00.9-3.3 5 5 0 00-.9-3.1 2.9 2.9 0 00-2.5-1.2 2.9 2.9 0 00-2.4 1.2 5.4 5.4 0 00-.9 3.3zm10.8-.2a6.5 6.5 0 011.3-4.3 3.8 3.8 0 013.3-1.6 4.1 4.1 0 013.4 1.5v-1.3h1.8v11.3a4.5 4.5 0 01-1.3 3.5 4.9 4.9 0 01-3.7 1.3 5.9 5.9 0 01-2.5-.5 3.8 3.8 0 01-1.8-1.5l1-1.2a3.9 3.9 0 003.2 1.6 3.4 3.4 0 002.3-.8 3.2 3.2 0 00.8-2.3v-1a4.2 4.2 0 01-3.3 1.4 4.1 4.1 0 01-3.3-1.6 6.9 6.9 0 01-1.3-4.5zm2 .2a5.4 5.4 0 00.8 3.1 2.8 2.8 0 002.3 1.1 3 3 0 002.8-1.7v-5.3a2.9 2.9 0 00-2.8-1.6 3 3 0 00-2.3 1.1 5.9 5.9 0 00-.8 3.3zm13.2 5.7h-2v-16.4h2zm8.1.2a5.3 5.3 0 01-3.9-1.5 6 6 0 01-1.5-4.2v-.3a6.2 6.2 0 01.7-3.1 4.8 4.8 0 011.9-2.1 4.7 4.7 0 012.6-.8 4.3 4.3 0 013.5 1.5 6 6 0 011.3 4.2v.9h-8a4.6 4.6 0 001 2.7 3.4 3.4 0 002.5 1.1 4.8 4.8 0 001.8-.4 3.7 3.7 0 001.3-1.2l1.3 1a5.2 5.2 0 01-4.5 2.2zm-.2-10.4a2.9 2.9 0 00-2.1.9 4.4 4.4 0 00-1 2.4h5.9a3.7 3.7 0 00-.8-2.3 2.5 2.5 0 00-2-.9zm12.2 4.3a7.8 7.8 0 01.6-3.1 4.9 4.9 0 014.7-2.8 5 5 0 013.9 1.6 6.3 6.3 0 011.5 4.4 6.2 6.2 0 01-.7 3.1 4.4 4.4 0 01-1.8 2 5.7 5.7 0 01-2.9.8 5.1 5.1 0 01-3.8-1.6 6.3 6.3 0 01-1.5-4.4zm2 .2a5 5 0 00.9 3.1 2.9 2.9 0 002.4 1.2 2.9 2.9 0 002.5-1.2 5.4 5.4 0 00.9-3.3 5 5 0 00-.9-3.1 3 3 0 00-2.5-1.2 2.9 2.9 0 00-2.4 1.2 5.4 5.4 0 00-.9 3.3zm16.9-4.1h-.9a2.6 2.6 0 00-2.7 1.7v8.2h-2.1v-11.7h2v1.3a3.3 3.3 0 012.9-1.5h.8v2zm10.2-4.6v2.8h2.2v1.5h-2.2v7.2a1.8 1.8 0 00.3 1.1 1.3 1.3 0 001 .3h.9v1.6l-1.5.2a2.5 2.5 0 01-2-.8 3.2 3.2 0 01-.7-2.3v-7.2h-2.2v-1.5h2.2v-2.8zm8.4 11.5l2.8-8.7h2.1l-4.7 13.4c-.8 1.9-1.9 2.9-3.5 2.9h-1.2v-1.6h.6a2.5 2.5 0 001.6-.4 2.7 2.7 0 00.9-1.5l.5-1.1-4.2-11.5h2.2zm16.7-2.8a7.1 7.1 0 01-1.2 4.3 4.1 4.1 0 01-3.4 1.6 4.5 4.5 0 01-3.3-1.3v5.5h-2.1v-16h1.9v1.3a4.1 4.1 0 013.4-1.5 4.1 4.1 0 013.4 1.6 6.9 6.9 0 011.2 4.3zm-2-.2a5 5 0 00-.9-3.1 2.7 2.7 0 00-2.3-1.1 2.9 2.9 0 00-2.7 1.6v5.5a2.9 2.9 0 002.7 1.6 2.7 2.7 0 002.3-1.1 5.5 5.5 0 00.9-3.4zm9.5 6.1a5.3 5.3 0 01-3.9-1.5 6 6 0 01-1.5-4.2v-.3a7.5 7.5 0 01.6-3.1 5.5 5.5 0 011.9-2.1 5 5 0 012.6-.8 4.5 4.5 0 013.6 1.5 6.6 6.6 0 011.3 4.2v.9h-8a3.6 3.6 0 001 2.7 3.3 3.3 0 002.5 1.1 4.8 4.8 0 001.8-.4 4.9 4.9 0 001.3-1.2l1.2 1a5.2 5.2 0 01-4.4 2.2zm-.3-10.4a2.5 2.5 0 00-2 .9 4.5 4.5 0 00-1.1 2.4h6a3.7 3.7 0 00-.9-2.3 2.4 2.4 0 00-2-.9zm20 10.2a3.3 3.3 0 01-.2-1.2 4.9 4.9 0 01-3.4 1.4 4.1 4.1 0 01-2.9-1 3 3 0 01-1.1-2.4 3.2 3.2 0 011.4-2.8 6.8 6.8 0 014-1h1.9v-.9a2.4 2.4 0 00-.6-1.7 2.7 2.7 0 00-1.9-.6 3.5 3.5 0 00-1.8.5 1.6 1.6 0 00-.7 1.3h-2a2.5 2.5 0 01.6-1.6 3.7 3.7 0 011.7-1.3 5.9 5.9 0 012.3-.5 4.4 4.4 0 013.2 1 3.5 3.5 0 011.2 2.8v5.3a5.8 5.8 0 00.5 2.5v.2zm-3.3-1.5a4.1 4.1 0 001.8-.5 2.2 2.2 0 001.2-1.3v-2.3h-1.6c-2.4 0-3.7.7-3.7 2.1a1.5 1.5 0 00.7 1.4 2.1 2.1 0 001.6.6zm25.2-14.1v10.6a4.5 4.5 0 01-1.4 3.6 5.8 5.8 0 01-3.8 1.6h-.5a6.1 6.1 0 01-4.2-1.4 5.3 5.3 0 01-1.6-3.8v-10.6h2.1v10.6a3.3 3.3 0 001 2.6 4.5 4.5 0 005.4 0 3.6 3.6 0 00.9-2.6v-10.6zm9.2 9.3H706v6.3h-2.1v-15.6h5.3a6.3 6.3 0 014.1 1.2 4.3 4.3 0 011.5 3.5 4.6 4.6 0 01-3.1 4.1l3.8 6.7h-2.3l-3.4-6.3zm-3.8-1.7h3.3a3.6 3.6 0 002.4-.8 2.9 2.9 0 00.1-4.3 4 4 0 00-2.6-.8H706v5.9zm13.8 6.3h7.5v1.7h-9.6v-15.6h2.1v13.9z"/><path fill="#999" d="M1028.5 401.8c0 5.4-4.7 9.1-10 9.1s-10-3.7-10-9.1h-3.2c0 6.1 5.1 11.1 11.3 12v5.9h3.8v-5.9c6.2-.9 11.3-5.9 11.3-12z"/><path fill="#999" d="M1018.5 407.2a5.7 5.7 0 005.7-5.8v-11.6a5.7 5.7 0 10-11.4 0v11.6a5.7 5.7 0 005.7 5.8z"/><path fill="#999" fill-rule="evenodd" d="M1429.9 137.7a2.3 2.3 0 012.3 2.3 2.4 2.4 0 01-2.3 2.3 2.3 2.3 0 01-2.3-2.3 2.3 2.3 0 012.3-2.3zm4.6 2.3a2.3 2.3 0 002.3 2.3 2.4 2.4 0 002.3-2.3 2.3 2.3 0 00-2.3-2.3 2.3 2.3 0 00-2.3 2.3zm6.9 0a2.3 2.3 0 002.3 2.3 2.4 2.4 0 002.3-2.3 2.3 2.3 0 00-2.3-2.3 2.3 2.3 0 00-2.3 2.3zm-13.8 7.7a2.3 2.3 0 002.3 2.3 2.3 2.3 0 002.3-2.3 2.4 2.4 0 00-2.3-2.3 2.3 2.3 0 00-2.3 2.3zm6.9 0a2.3 2.3 0 002.3 2.3 2.3 2.3 0 002.3-2.3 2.4 2.4 0 00-2.3-2.3 2.3 2.3 0 00-2.3 2.3zm6.9 0a2.3 2.3 0 002.3 2.3 2.3 2.3 0 002.3-2.3 2.4 2.4 0 00-2.3-2.3 2.3 2.3 0 00-2.3 2.3zm-13.8 7.8a2.3 2.3 0 002.3 2.3 2.3 2.3 0 000-4.6 2.3 2.3 0 00-2.3 2.3zm6.9 0a2.3 2.3 0 002.3 2.3 2.3 2.3 0 000-4.6 2.3 2.3 0 00-2.3 2.3zm6.9 0a2.3 2.3 0 002.3 2.3 2.3 2.3 0 000-4.6 2.3 2.3 0 00-2.3 2.3z"/><path fill="#999" d="M415.1 566v-10.6h3.1a4.5 4.5 0 012.5.7 4.4 4.4 0 011.6 1.7 5.8 5.8 0 01.6 2.6v.6a5.5 5.5 0 01-.6 2.6 3.5 3.5 0 01-1.7 1.7 4.1 4.1 0 01-2.5.7zm1.8-9.1v7.6h1.2a2.7 2.7 0 002.2-.9 4 4 0 00.8-2.6v-.6a4 4 0 00-.8-2.6 2.5 2.5 0 00-2.1-.9zm12.3 9.1a4.5 4.5 0 00-.2-.8 2.5 2.5 0 01-2 .9 2.5 2.5 0 01-1.9-.7 2.1 2.1 0 01-.8-1.6 2 2 0 011-1.9 3.8 3.8 0 012.6-.7h1.1v-.5a1.2 1.2 0 00-.4-1 1.3 1.3 0 00-1-.4 1.7 1.7 0 00-1 .3 1.2 1.2 0 00-.4.8h-1.7a1.9 1.9 0 01.4-1.2 2.7 2.7 0 011.2-.9 4.1 4.1 0 011.6-.3 3.2 3.2 0 012.2.7 2.6 2.6 0 01.8 1.9v3.6a4.3 4.3 0 00.3 1.7h-1.8zm-1.9-1.3a1.7 1.7 0 001-.3 1.3 1.3 0 00.7-.6v-1.5h-1a2.6 2.6 0 00-1.4.3 1.1 1.1 0 00-.5 1 1.1 1.1 0 00.3.8 1.2 1.2 0 00.9.3zm9.4-6.6h-.7a1.9 1.9 0 00-1.7 1v-.8h-1.6v7.7h1.7v-5.4a1.6 1.6 0 011.6-.9h.7zm1.9-1.9v2h-1.3v1.3h1.3v4.4c0 1.5.6 2.2 2 2.2h1.1v-1.4h-.6a.8.8 0 01-.6-.2 1.4 1.4 0 01-.2-.7v-4.3h1.4v-1.3h-1.4v-2zm14.9 5.9a4.3 4.3 0 01-.8 2.9 2.7 2.7 0 01-2.2 1.1 3 3 0 01-2.1-.8v3.7h-1.7v-10.8h1.6v.7a2.6 2.6 0 012.1-.9 2.7 2.7 0 012.2 1.1 4.3 4.3 0 01.8 2.9zm-1.7-.1a3.6 3.6 0 00-.5-1.9 1.6 1.6 0 00-1.3-.7 1.8 1.8 0 00-1.6.9v3.5a1.8 1.8 0 001.6.9 1.4 1.4 0 001.3-.7 3.4 3.4 0 00.5-2zm7.9 4a1.5 1.5 0 01-.2-.8 2.9 2.9 0 01-2.1.9 2.5 2.5 0 01-1.9-.7 2 2 0 01-.7-1.6 2.1 2.1 0 01.9-1.9 4 4 0 012.6-.7h1.1v-.5a1.5 1.5 0 00-.3-1 1.6 1.6 0 00-1.1-.4 1.2 1.2 0 00-.9.3.9.9 0 00-.4.8h-1.8a2.1 2.1 0 01.5-1.2 2 2 0 011.1-.9 4.1 4.1 0 011.6-.3 2.9 2.9 0 012.2.7 2.3 2.3 0 01.9 1.9v3.6a4.3 4.3 0 00.3 1.7h-1.8zm-1.9-1.3a1.6 1.6 0 00.9-.3 1.1 1.1 0 00.7-.6v-1.5h-.9a2.8 2.8 0 00-1.5.3 1.4 1.4 0 00-.5 1 1.1 1.1 0 00.3.8 1.7 1.7 0 001 .3zm7.1-.6a3.3 3.3 0 01-.5-1.9v-.3a3.3 3.3 0 01.5-1.9 1.5 1.5 0 011.3-.6 1.8 1.8 0 011.1.4 2.2 2.2 0 01.5 1.1h1.6a2.7 2.7 0 00-.9-2.1 3.4 3.4 0 00-2.3-.8 3.5 3.5 0 00-2.6 1.1 4.1 4.1 0 00-.9 2.8v.2a4.7 4.7 0 00.9 3 3.4 3.4 0 002.6 1 2.9 2.9 0 001.6-.4 2.3 2.3 0 001.2-1 2.8 2.8 0 00.4-1.3h-1.6a1.3 1.3 0 01-.5.9 1.5 1.5 0 01-1.1.4 1.5 1.5 0 01-1.3-.6zm10.7 1.9h2l-3.2-4.6 2.9-3.2h-2.1l-2.2 2.4-.5.7v-6.4h-1.8V566h1.8v-2.6l.8-.8zm7.5 0a4.5 4.5 0 01-.2-.8 2.7 2.7 0 01-2 .9 2.7 2.7 0 01-2-.7 2 2 0 01-.7-1.6 2.1 2.1 0 01.9-1.9 4.1 4.1 0 012.7-.7h1v-.5a1.5 1.5 0 00-.3-1 1.5 1.5 0 00-1-.4 1.5 1.5 0 00-1 .3.9.9 0 00-.4.8h-1.7a1.9 1.9 0 01.4-1.2 3.1 3.1 0 011.1-.9 4.7 4.7 0 011.7-.3 3.2 3.2 0 012.2.7 2.6 2.6 0 01.8 1.9v3.6a4.3 4.3 0 00.3 1.7h-1.8zm-1.9-1.3a1.9 1.9 0 001-.3.9.9 0 00.6-.6v-1.5h-.9a3.3 3.3 0 00-1.5.3 1.3 1.3 0 00-.4 1 1.1 1.1 0 00.3.8 1.2 1.2 0 00.9.3zm4.9-2.7a4.4 4.4 0 01.9-2.9 2.7 2.7 0 012.2-1.1 2.9 2.9 0 012.2.9v-.7h1.6v7.5a3 3 0 01-1 2.5 3.3 3.3 0 01-2.5.8 4.7 4.7 0 01-1.7-.3 2.4 2.4 0 01-1.2-.9l.8-1.1a2.6 2.6 0 002 1 1.9 1.9 0 001.3-.5 1.6 1.6 0 00.5-1.4v-.5a2.6 2.6 0 01-2 .8 2.8 2.8 0 01-2.2-1.1 4.5 4.5 0 01-.9-3zm1.8.1a2.7 2.7 0 00.5 1.9 1.4 1.4 0 001.3.7 1.6 1.6 0 001.5-.9v-3.5a1.6 1.6 0 00-2.8-.2 3.1 3.1 0 00-.5 2zm10.3 4a3.6 3.6 0 01-2.7-1 4.3 4.3 0 01-1-2.8v-.3a4.6 4.6 0 01.5-2 3.6 3.6 0 011.2-1.5 4.1 4.1 0 011.8-.5 3 3 0 012.5 1 4.4 4.4 0 01.9 2.9v.7h-5.1a1.8 1.8 0 00.6 1.5 2 2 0 001.4.6 2.2 2.2 0 002-1l.9.9a2.5 2.5 0 01-1.2 1.1 3.4 3.4 0 01-1.8.4zm-.2-6.7a1.6 1.6 0 00-1.1.5 3 3 0 00-.6 1.4h3.3a2.2 2.2 0 00-.4-1.3 1.7 1.7 0 00-1.2-.6zm8.7 5.1a1.5 1.5 0 01-1 .3 2.1 2.1 0 01-1.2-.3 1.8 1.8 0 01-.4-1h-1.7a2 2 0 00.4 1.3 4 4 0 001.2 1 4.3 4.3 0 001.7.3 4.1 4.1 0 002.3-.6 2.3 2.3 0 00.8-1.8 1.7 1.7 0 00-.3-1 2 2 0 00-.8-.8l-1.6-.5a4.2 4.2 0 01-1.4-.5.7.7 0 01-.4-.6 1 1 0 01.4-.7 1.4 1.4 0 01.9-.3 1.3 1.3 0 011 .3 1.2 1.2 0 01.4.9h1.8a2.3 2.3 0 00-.9-1.8 3.3 3.3 0 00-2.3-.7 3 3 0 00-2.1.7 2 2 0 00-.9 1.7 2 2 0 001.3 1.8 5.3 5.3 0 001.5.5l1.3.4a.8.8 0 01.4.7.7.7 0 01-.4.7z"/><ellipse cx="462.1" cy="497.4" fill="gray" fill-opacity=".3" opacity=".7" rx="29.3" ry="29.4"/><path fill="#01579b" d="M452.4 504.9l-5-5a3.4 3.4 0 01-1-2.3 3.7 3.7 0 01.4-1.4l4.6-9.7z"/><path fill="#40c4ff" d="M469.6 487.5l-5-5a3.5 3.5 0 00-2.2-1 3.1 3.1 0 00-1.7.4l-9.3 4.6zM458.4 510.9h12.1v-5.2l-9-2.9-8.3 2.9z"/><path fill="#29b6f6" d="M451.4 502.2c0 1.6.2 2 1 2.7l.8.8h17.3L462 496l-10.6-9.5z"/><path fill="#01579b" d="M466.9 486.5h-15.5l19.1 19.2h5.3v-12l-6.2-6.2a3.3 3.3 0 00-2.7-1z"/><path fill="#999" d="M583.6 561.5h-4.2v4.5h-1.8v-10.6h6.7v1.5h-4.9v3.1h4.2zm2 4.5h1.8v-11.1h-1.8zm8.5 0h1.6v-7.8H594v5.6a1.8 1.8 0 01-1.8.9q-1.2 0-1.2-1.5v-5h-1.7v5a3.6 3.6 0 00.6 2.2 2.5 2.5 0 001.9.7 2.7 2.7 0 002.2-.9zm3.9-9.8v2h-1.3v1.3h1.3v4.4c0 1.5.6 2.2 2 2.2h1.1v-1.4h-.6a.8.8 0 01-.6-.2 1.4 1.4 0 01-.2-.7v-4.3h1.4v-1.3h-1.4v-2zm4.9 0v2h-1.3v1.3h1.3v4.4c0 1.5.6 2.2 2 2.2h1.1v-1.4h-.6a.8.8 0 01-.6-.2 1.4 1.4 0 01-.2-.7v-4.3h1.4v-1.3h-1.4v-2zm9.6 9.5a2.4 2.4 0 001.3-1.1l-1-.9a2.2 2.2 0 01-1.9 1 2 2 0 01-1.5-.6 2.6 2.6 0 01-.6-1.5h5.1v-.7a4.4 4.4 0 00-.9-2.9 3 3 0 00-2.4-1 3.5 3.5 0 00-1.8.5 3.2 3.2 0 00-1.3 1.5 4.6 4.6 0 00-.5 2v.3a3.9 3.9 0 001.1 2.8 3.6 3.6 0 002.7 1 3.3 3.3 0 001.7-.4zm-.8-5.8a2.2 2.2 0 01.5 1.3h-3.4a3 3 0 01.6-1.4 1.7 1.7 0 011.2-.5 1.6 1.6 0 011.1.6zm7.7-1.8h-.7a1.9 1.9 0 00-1.7 1v-.8h-1.6v7.7h1.6v-5.4a1.6 1.6 0 011.6-.9h.7z"/><ellipse cx="598.3" cy="497.4" fill="gray" fill-opacity=".3" opacity=".7" rx="29.3" ry="29.4"/><path fill="#02539a" fill-rule="evenodd" d="M599.5 510.1l-7.5-7.4 4.2-4.3 11.7 11.7z"/><path fill="#45d1fd" fill-opacity=".8" fill-rule="evenodd" d="M591.9 502.7l7.5-7.5h8.3l-11.5 11.6-4.3-4.1z"/><path fill="#45d1fd" fill-rule="evenodd" d="M585.5 496.2l4.2 4.2 18-18.1h-8.4l-13.8 13.9z"/><ellipse cx="736.1" cy="497.4" fill="gray" fill-opacity=".3" opacity=".7" rx="29.3" ry="29.4"/><path fill="#999" d="M837.8 563.5h-4l-.9 2.5H831l4-10.6h1.6l4 10.6h-1.9zm-3.5-1.5h3l-1.5-4.3zm7 0a5 5 0 01.8-2.9 2.8 2.8 0 012.3-1.1 2.5 2.5 0 012 .9v-4h1.7V566h-1.6v-.8a2.9 2.9 0 01-2.1.9 2.8 2.8 0 01-2.3-1.1 5.1 5.1 0 01-.8-3zm1.7.1a3.3 3.3 0 00.5 1.9 1.4 1.4 0 001.3.7 1.7 1.7 0 001.6-1v-3.3a1.6 1.6 0 00-1.6-1 1.7 1.7 0 00-1.3.7 3.7 3.7 0 00-.5 2zm6.6-.1a4.4 4.4 0 01.9-2.9 2.7 2.7 0 012.2-1.1 2.5 2.5 0 012 .9v-4h1.8V566h-1.6v-.8a2.6 2.6 0 01-2.1.9 2.7 2.7 0 01-2.2-1.1 4.5 4.5 0 01-1-3zm1.8.1a3.4 3.4 0 00.4 1.9 1.5 1.5 0 001.3.7 1.5 1.5 0 001.6-1v-3.3a1.5 1.5 0 00-1.5-1 1.7 1.7 0 00-1.4.7 3.7 3.7 0 00-.4 2zm14.6 2.4a1.8 1.8 0 01-1.1.3 2 2 0 01-1.1-.3 1.4 1.4 0 01-.5-1h-1.7a2.8 2.8 0 00.4 1.3 4 4 0 001.2 1 4.7 4.7 0 001.7.3 3.9 3.9 0 002.3-.6 2.1 2.1 0 00.9-1.8 1.7 1.7 0 00-.3-1 2.4 2.4 0 00-.9-.8 5 5 0 00-1.6-.5 4.2 4.2 0 01-1.4-.5.6.6 0 01-.3-.6.8.8 0 01.4-.7 1.2 1.2 0 01.9-.3 1.7 1.7 0 011 .3 1.8 1.8 0 01.4.9h1.7a2.3 2.3 0 00-.9-1.8 3.1 3.1 0 00-2.2-.7 3.2 3.2 0 00-2.2.7 2.1 2.1 0 00-.8 1.7 1.9 1.9 0 001.3 1.8 5.3 5.3 0 001.5.5l1.3.4a.9.9 0 01.3.7.8.8 0 01-.3.7zm5.3-9.6h-1.7V566h1.7v-5.6a1.7 1.7 0 011.6-1 1.5 1.5 0 011 .4 1.2 1.2 0 01.4 1.1v5.1h1.7v-5.1c0-2-.9-2.9-2.5-2.9a2.7 2.7 0 00-2.2 1zm6.2 7.1a4.6 4.6 0 01.4-2.1 3.5 3.5 0 011.3-1.4 3.8 3.8 0 011.9-.5 3.2 3.2 0 012.5 1 3.7 3.7 0 011.1 2.7v.4a4.6 4.6 0 01-.4 2.1 2.9 2.9 0 01-1.3 1.4 3 3 0 01-1.9.5 3.3 3.3 0 01-2.6-1.1 3.9 3.9 0 01-1-2.9zm1.7.1a3.3 3.3 0 00.5 1.9 1.8 1.8 0 002.8 0 3.4 3.4 0 00.5-2 3.6 3.6 0 00-.5-1.9 1.7 1.7 0 00-2.8 0 3.4 3.4 0 00-.5 2zm11.1-4h-.6a1.9 1.9 0 00-1.8 1v-.8h-1.7v7.7h1.7v-5.4a1.8 1.8 0 011.7-.9h.7zm1.9-1.9v2h-1.3v1.3h1.3v4.4c0 1.5.7 2.2 2 2.2h1.2v-1.4h-.6l-.7-.2a1.4 1.4 0 01-.2-.7v-4.3h1.4v-1.3h-1.4v-2zm6.3 7.9a3.4 3.4 0 01-.4-1.9v-.3a2.7 2.7 0 01.5-1.9 1.5 1.5 0 011.3-.6 1.4 1.4 0 011.5 1.5h1.7a3.2 3.2 0 00-1-2.1 3.1 3.1 0 00-2.2-.8 3.3 3.3 0 00-2.6 1.1 4.1 4.1 0 00-1 2.8v.2a4.7 4.7 0 001 3 3.3 3.3 0 002.6 1 3.2 3.2 0 001.6-.4 2.1 2.1 0 001.1-1 2.9 2.9 0 00.5-1.3h-1.7a1.3 1.3 0 01-.4.9 1.5 1.5 0 01-1.1.4 1.8 1.8 0 01-1.4-.6zm10.7 1.9h1.6v-7.8h-1.7v5.6a1.8 1.8 0 01-1.8.9q-1.2 0-1.2-1.5v-5h-1.7v5a3.6 3.6 0 00.6 2.2 2.4 2.4 0 001.9.7 2.7 2.7 0 002.2-.9zm3.8-9.8v2h-1.2v1.3h1.2v4.4c0 1.5.7 2.2 2.1 2.2h1.1v-1.4h-.6a.7.7 0 01-.8-.9v-4.3h1.4v-1.3h-1.4v-2z"/><ellipse cx="873.9" cy="497.4" fill="gray" fill-opacity=".3" opacity=".7" rx="29.3" ry="29.4"/><path fill="none" stroke="#999" stroke-linecap="square" stroke-miterlimit="1.5" stroke-width="1.9" d="M873.9 491.5v11.9m5.9-6h-11.9"/></svg>