<svg xmlns="http://www.w3.org/2000/svg" xmlns:xlink="http://www.w3.org/1999/xlink" viewBox="0 0 1472.6 996"><defs><linearGradient id="a" x1="-1761.82" y1="2951.09" x2="-1761.49" y2="2951.09" gradientTransform="matrix(0, 116.17, 118.82, 0, -349874.8, 204737.04)" gradientUnits="userSpaceOnUse"><stop offset="0" stop-color="#fdfdfd"/><stop offset="1" stop-color="#f3f3f3"/></linearGradient></defs><title>Web</title><path stroke-linecap="round" d="M1471.6,19.6A18.6,18.6,0,0,0,1453,1H19.5A18.5,18.5,0,0,0,1,19.6V976.4A18.6,18.6,0,0,0,19.5,995H1453a18.6,18.6,0,0,0,18.6-18.6Z" fill="#ccc" fill-opacity="0.25" stroke="gray" transform="translate(0 0)" stroke-linejoin="round" stroke-opacity="0.5" stroke-width="1.95" fill-rule="evenodd"/><path d="M1452.6,957.3a18.6,18.6,0,0,0-18.6-18.6h-94.2a18.6,18.6,0,1,0,0,37.2H1434A18.6,18.6,0,0,0,1452.6,957.3Z" transform="translate(0 0)" fill="none" stroke="gray" stroke-linecap="square" stroke-miterlimit="1.5" stroke-width="0.65"/><path d="M1335.4,961.9v3.2h3.2l9.6-9.6-3.3-3.2Zm15.3-8.9a.9.9,0,0,0,0-1.2l-2-2.1a1.1,1.1,0,0,0-1.3,0l-1.5,1.6,3.2,3.3Z" transform="translate(0 0)" fill="#2196f3" fill-opacity="0.8"/><path d="M1370.9,960.7a3.8,3.8,0,0,1-1.2,2.6,4.6,4.6,0,0,1-2.9.9,3.8,3.8,0,0,1-2.2-.6,3.1,3.1,0,0,1-1.5-1.7,4.9,4.9,0,0,1-.5-2.5v-1a5.3,5.3,0,0,1,.5-2.6,3.4,3.4,0,0,1,1.5-1.8,4.1,4.1,0,0,1,2.3-.6,3.9,3.9,0,0,1,2.8,1,3.8,3.8,0,0,1,1.2,2.6h-1.8a2.4,2.4,0,0,0-.7-1.6,2.3,2.3,0,0,0-1.5-.5,2.3,2.3,0,0,0-1.9.9,4.2,4.2,0,0,0-.6,2.5v1a4.8,4.8,0,0,0,.6,2.6,2,2,0,0,0,1.8.9,2.5,2.5,0,0,0,1.6-.5,2.4,2.4,0,0,0,.7-1.6Zm6.2,3.4h1.7v-7.8H1377v5.6a1.7,1.7,0,0,1-1.7.9q-1.2,0-1.2-1.5v-5h-1.8v5a2.9,2.9,0,0,0,.7,2.2,2.2,2.2,0,0,0,1.9.7,2.8,2.8,0,0,0,2.2-.9Zm7.5-1.5a2.2,2.2,0,0,1-2.2,0,1.2,1.2,0,0,1-.5-1h-1.7a2,2,0,0,0,.4,1.3,2.9,2.9,0,0,0,1.2,1,4.7,4.7,0,0,0,1.7.3,4.1,4.1,0,0,0,2.3-.6,2.1,2.1,0,0,0,.9-1.7,1.8,1.8,0,0,0-.3-1.1,2.4,2.4,0,0,0-.9-.8,5,5,0,0,0-1.6-.5,4.2,4.2,0,0,1-1.4-.5.6.6,0,0,1-.3-.6.9.9,0,0,1,.3-.7,1.7,1.7,0,0,1,1-.3,1.3,1.3,0,0,1,1,.4,1.1,1.1,0,0,1,.3.8h1.8a2.3,2.3,0,0,0-.9-1.8,3.6,3.6,0,0,0-2.2-.7,3.2,3.2,0,0,0-2.2.7,2,2,0,0,0,.5,3.5,5.3,5.3,0,0,0,1.5.5l1.3.4a1,1,0,0,1,.3.8A.7.7,0,0,1,1384.6,962.6Zm4-8.2v1.9h-1.3v1.3h1.3V962c0,1.5.7,2.2,2.1,2.2h1.1v-1.4h-.6l-.6-.2a.8.8,0,0,1-.2-.7v-4.3h1.4v-1.3h-1.4v-1.9Zm4,5.8a4.4,4.4,0,0,0,.9,2.9,3.3,3.3,0,0,0,2.7,1.1,3.2,3.2,0,0,0,1.9-.5,3.5,3.5,0,0,0,1.3-1.4,4.6,4.6,0,0,0,.4-2.1v-.4a4.1,4.1,0,0,0-1.1-2.7,3.6,3.6,0,0,0-2.5-1,3.8,3.8,0,0,0-1.9.5,2.9,2.9,0,0,0-1.3,1.4,4.6,4.6,0,0,0-.4,2.1Zm2.2-2a1.7,1.7,0,0,1,1.4-.7,1.6,1.6,0,0,1,1.3.7,2.9,2.9,0,0,1,.6,1.9,3.4,3.4,0,0,1-.5,2,1.6,1.6,0,0,1-1.4.7,1.5,1.5,0,0,1-1.4-.7,3.1,3.1,0,0,1-.5-1.9A3.7,3.7,0,0,1,1394.8,958.2Zm6.5-1.9v7.8h1.7v-5.7a1.5,1.5,0,0,1,1.5-.8c.9,0,1.4.4,1.4,1.3v5.2h1.8v-5.4a2.2,2.2,0,0,1,.5-.8,1.7,1.7,0,0,1,1-.3,1.8,1.8,0,0,1,1.1.3,1.6,1.6,0,0,1,.3,1.1v5.1h1.7v-5.2a3.3,3.3,0,0,0-.6-2.1,3,3,0,0,0-4.3.5,2.2,2.2,0,0,0-2.2-1.2,2.6,2.6,0,0,0-2.2,1v-.8Zm14.7,0h-1.8v7.8h1.8Zm-1.6-1.4a.9.9,0,0,0,.7.3,1.1,1.1,0,0,0,.8-.3,1.4,1.4,0,0,0,.2-.7,1.1,1.1,0,0,0-.2-.6,1.1,1.1,0,0,0-.8-.3.9.9,0,0,0-.7.3.7.7,0,0,0-.3.6A.9.9,0,0,0,1414.4,954.9Zm5.4,7.8,4-5.3v-1.1h-6.1v1.4h3.9l-4,5.2v1.2h6.3v-1.4Zm10.6,1.1a3.2,3.2,0,0,0,1.3-1l-1-1a2.2,2.2,0,0,1-1.9,1,2.5,2.5,0,0,1-1.5-.5,2.6,2.6,0,0,1-.6-1.6h5.1V960a4.4,4.4,0,0,0-.9-2.9,3.3,3.3,0,0,0-2.4-1,4.1,4.1,0,0,0-1.9.5,4.4,4.4,0,0,0-1.2,1.5,4.6,4.6,0,0,0-.5,2.1v.2a3.9,3.9,0,0,0,1.1,2.8,3.3,3.3,0,0,0,2.6,1A3.4,3.4,0,0,0,1430.4,963.8Zm-.8-5.8a2.2,2.2,0,0,1,.5,1.3h-3.4a3,3,0,0,1,.6-1.4,1.6,1.6,0,0,1,1.1-.5A1.7,1.7,0,0,1,1429.6,958Z" transform="translate(0 0)" fill="#2196f3" fill-opacity="0.8"/><path d="M1471.2,19.8a18.3,18.3,0,0,0-18.5-18.5H19.8A18.3,18.3,0,0,0,1.3,19.8v77a18.6,18.6,0,0,0,18.5,18.6H1452.7a18.6,18.6,0,0,0,18.5-18.6Z" transform="translate(0 0)" fill="#b3b3b3" fill-opacity="0.25" fill-rule="evenodd"/><ellipse cx="30.7" cy="30.5" rx="8.8" ry="8.8" fill="#ec6a5e"/><ellipse cx="60.4" cy="30.5" rx="8.8" ry="8.8" fill="#f5bf4f"/><ellipse cx="90" cy="30.5" rx="8.8" ry="8.8" fill="#64c554"/><path d="M507.1,28.3V41.8m6.7-6.8H500.3" transform="translate(0 0)" fill="none" stroke="gray" stroke-linecap="round" stroke-miterlimit="1.5" stroke-width="1.95"/><path d="M473,30.9c0-6.9,0-10.3-1.4-12.9a12.1,12.1,0,0,0-4.8-4.7c-2.7-1.4-6.2-1.4-13.2-1.4H136.3c-6.9,0-10.4,0-13.1,1.4a12.1,12.1,0,0,0-4.8,4.7c-1.4,2.6-1.4,6-1.4,12.9V42.4c0,6.9,0,10.3-1.4,12.9a11.4,11.4,0,0,1-4.8,4.7c-2.7,1.4-6.2,1.4-13.1,1.4H1.5a.2.2,0,0,0-.2.2v53.6a.2.2,0,0,0,.2.2H1471.1c.1,0,.1-.1.1-.2V61.6H492.3c-6.9,0-10.4,0-13.1-1.4a11.4,11.4,0,0,1-4.8-4.7c-1.4-2.6-1.4-6-1.4-12.9V30.9Z" transform="translate(0 0)" fill="#bfbfbf" fill-rule="evenodd"/><path d="M146.7,42.5H145l-6.4-9.6v9.6h-1.7V30.1h1.7l6.4,9.6V30.1h1.7V42.5Zm6.6.2a3.9,3.9,0,0,1-3.1-1.3,4.5,4.5,0,0,1-1.2-3.3v-.3a6,6,0,0,1,.5-2.4,5,5,0,0,1,1.5-1.7,4.2,4.2,0,0,1,2.1-.6,3.7,3.7,0,0,1,2.9,1.2,5.5,5.5,0,0,1,1,3.4v.6h-6.4a3.1,3.1,0,0,0,.8,2.2,2.5,2.5,0,0,0,2,.9,2.1,2.1,0,0,0,1.4-.4,3.1,3.1,0,0,0,1.1-.9l1,.8a4,4,0,0,1-3.6,1.8Zm-.2-8.3a2,2,0,0,0-1.6.7,2.9,2.9,0,0,0-.9,1.9h4.8a3,3,0,0,0-.7-1.8A1.9,1.9,0,0,0,153.1,34.4Zm14.1,5.9,1.8-7h1.6l-2.7,9.2h-1.3l-2.3-7-2.3,7h-1.3L158,33.3h1.6l1.9,6.9,2.2-6.9H165l2.2,7Zm18.1-8.9h-4V42.5h-1.7V31.4h-4.1V30.1h9.8v1.3Zm6.5,11.1a2.2,2.2,0,0,1-.2-1,3.7,3.7,0,0,1-2.7,1.2,3.6,3.6,0,0,1-2.3-.8,2.5,2.5,0,0,1-.9-2,2.7,2.7,0,0,1,1.1-2.2,5.8,5.8,0,0,1,3.2-.8h1.5v-.7a1.4,1.4,0,0,0-.5-1.3,1.6,1.6,0,0,0-1.4-.5,2.4,2.4,0,0,0-1.5.4,1.2,1.2,0,0,0-.6,1h-1.6a2.4,2.4,0,0,1,.5-1.3,3,3,0,0,1,1.4-1,3.8,3.8,0,0,1,1.9-.4,3.9,3.9,0,0,1,2.5.8,3.2,3.2,0,0,1,1,2.2v4.2a5.8,5.8,0,0,0,.3,2.1h-1.7Zm-2.7-1.2a2.8,2.8,0,0,0,1.5-.4,2.2,2.2,0,0,0,.9-1V38h-1.2c-2,0-3,.6-3,1.7a1.7,1.7,0,0,0,.5,1.2A2,2,0,0,0,189.1,41.3ZM203.7,38a6,6,0,0,1-1,3.4,3.5,3.5,0,0,1-2.7,1.3,3.3,3.3,0,0,1-2.8-1.3v1.1h-1.5V29.4h1.6v4.9a3.2,3.2,0,0,1,2.7-1.2,3.2,3.2,0,0,1,2.7,1.3,5.7,5.7,0,0,1,1,3.4V38Zm-1.6-.2a4.4,4.4,0,0,0-.7-2.5,2,2,0,0,0-1.8-.9,2.4,2.4,0,0,0-2.3,1.5v4a2.5,2.5,0,0,0,2.3,1.4,2,2,0,0,0,1.8-.9A4.3,4.3,0,0,0,202.1,37.8Z" transform="translate(0 0)" fill="#3d4043"/><path d="M456.2,29.5l-11,11m11,0-11-11" transform="translate(0 0)" fill="none" stroke="#737373" stroke-linecap="round" stroke-miterlimit="1.5" stroke-width="1.95"/><rect x="1.3" y="114.6" width="1469.7" height="0.73" fill="#9b9b9b"/><path d="M41.4,87.3h-17m8.1-7.9-8.1,7.9m0,0,8.1,7.8" transform="translate(0 0)" fill="none" stroke="#606367" stroke-linecap="round" stroke-linejoin="round" stroke-width="1.95"/><path d="M71.9,87.3H89m-8.2-7.9L89,87.3m0,0-8.2,7.8" transform="translate(0 0)" fill="none" stroke="#999" stroke-linecap="round" stroke-linejoin="round" stroke-width="1.95"/><path d="M135.5,83.5a8.7,8.7,0,0,0-7.5-4.2A8.4,8.4,0,1,0,128,96a8.5,8.5,0,0,0,7.7-4.7" transform="translate(0 0)" fill="none" stroke="#606367" stroke-linecap="round" stroke-width="1.95"/><path d="M138.4,78.2v8h-8.1Z" transform="translate(0 0)" fill="#606367"/><path d="M1362.3,88a18.6,18.6,0,0,0-18.6-18.6H181.4A18.6,18.6,0,0,0,162.8,88v.7a18.7,18.7,0,0,0,18.6,18.6H1343.7a18.6,18.6,0,0,0,18.6-18.6Z" transform="translate(0 0)" fill-rule="evenodd" fill="url(#a)"/><path d="M209.3,88.8a9.8,9.8,0,0,1-3.4-1.6,3.4,3.4,0,0,1-1.1-2.4,3.3,3.3,0,0,1,1.3-2.6,5.3,5.3,0,0,1,3.4-1.1,4.9,4.9,0,0,1,2.5.6,3.7,3.7,0,0,1,1.8,1.4,4.2,4.2,0,0,1,.6,2.1h-1.9a2.4,2.4,0,0,0-.7-1.9,3.3,3.3,0,0,0-2.3-.7,3.3,3.3,0,0,0-2.1.6,2,2,0,0,0,0,3,9.6,9.6,0,0,0,2.4,1,13,13,0,0,1,2.7,1,4.7,4.7,0,0,1,1.4,1.4,3.4,3.4,0,0,1,.5,1.7,3.2,3.2,0,0,1-1.3,2.7,6.1,6.1,0,0,1-3.5,1,5.8,5.8,0,0,1-2.6-.6,4,4,0,0,1-1.9-1.4,3.3,3.3,0,0,1-.7-2.1h1.8a2.2,2.2,0,0,0,1,1.9,3.6,3.6,0,0,0,2.4.7,3.4,3.4,0,0,0,2.2-.6,1.9,1.9,0,0,0,.8-1.5,2.2,2.2,0,0,0-.7-1.6A10,10,0,0,0,209.3,88.8ZM220.7,95a4.6,4.6,0,0,1-3.4-1.4A4.8,4.8,0,0,1,216,90v-.3a5.5,5.5,0,0,1,.6-2.6,4.9,4.9,0,0,1,1.6-1.9,4.6,4.6,0,0,1,2.3-.6,3.9,3.9,0,0,1,3.1,1.3,5.3,5.3,0,0,1,1.1,3.6v.8h-6.9a4.1,4.1,0,0,0,.8,2.4,2.9,2.9,0,0,0,2.2.9,4.2,4.2,0,0,0,1.6-.4,5.2,5.2,0,0,0,1.1-1l1,.8a4.2,4.2,0,0,1-3.8,2Zm-.2-9a2.4,2.4,0,0,0-1.8.7,3.4,3.4,0,0,0-.9,2.2h5.1v-.2a3.2,3.2,0,0,0-.7-2,2.1,2.1,0,0,0-1.7-.7ZM233,94.8a2.7,2.7,0,0,1-.2-1.1,4.3,4.3,0,0,1-2.9,1.3,3.3,3.3,0,0,1-2.5-.9,2.4,2.4,0,0,1-1-2.1,2.7,2.7,0,0,1,1.2-2.4,5.7,5.7,0,0,1,3.4-.9h1.7v-.8a2,2,0,0,0-.5-1.4,2.1,2.1,0,0,0-1.6-.5,2.5,2.5,0,0,0-1.6.4,1.4,1.4,0,0,0-.6,1.1h-1.8a2.2,2.2,0,0,1,.6-1.4,3.1,3.1,0,0,1,1.4-1.1,4.6,4.6,0,0,1,2.1-.4,4.3,4.3,0,0,1,2.7.8,3.4,3.4,0,0,1,1.1,2.4v4.6a6.5,6.5,0,0,0,.3,2.2v.2Zm-2.9-1.3a3,3,0,0,0,1.6-.5,1.9,1.9,0,0,0,1-1V89.9h-1.3c-2.2,0-3.2.6-3.2,1.9a1.3,1.3,0,0,0,.5,1.2,2.2,2.2,0,0,0,1.4.5Zm12-7.2h-.8a2.2,2.2,0,0,0-2.3,1.5v7.1h-1.8v-10h1.7v1.1a2.8,2.8,0,0,1,2.5-1.3h.7Zm5.6,7.3a2.5,2.5,0,0,0,1.6-.6,2,2,0,0,0,.8-1.4h1.6a2.9,2.9,0,0,1-.6,1.7,4.4,4.4,0,0,1-1.5,1.2,4.1,4.1,0,0,1-1.9.5,4.6,4.6,0,0,1-3.4-1.4,5.5,5.5,0,0,1-1.2-3.7v-.3a5.3,5.3,0,0,1,.6-2.6,3.8,3.8,0,0,1,1.5-1.8,4.9,4.9,0,0,1,2.5-.6,4,4,0,0,1,2.8,1,3.2,3.2,0,0,1,1.2,2.6h-1.6a2.5,2.5,0,0,0-.8-1.6,2.3,2.3,0,0,0-1.6-.6,2.6,2.6,0,0,0-2.1.9,4.3,4.3,0,0,0-.7,2.7V90a4,4,0,0,0,.7,2.6,2.7,2.7,0,0,0,2.1,1Zm7.7-7.6a3.6,3.6,0,0,1,3-1.4q3.3,0,3.3,3.6v6.6H260V88.1a1.8,1.8,0,0,0-2.1-2.1,3,3,0,0,0-1.5.5,5.2,5.2,0,0,0-1,1.1v7.2h-1.7V80.6h1.7Zm24.1,7a4.1,4.1,0,0,1-1.9,1.5,8.4,8.4,0,0,1-2.9.5,6.1,6.1,0,0,1-3-.8,5.3,5.3,0,0,1-2-2.2,8.9,8.9,0,0,1-.8-3.3V87.5a6.8,6.8,0,0,1,1.5-4.7,5.2,5.2,0,0,1,4.1-1.7,5.1,5.1,0,0,1,3.4,1.1,4.5,4.5,0,0,1,1.6,3.1h-1.8a2.9,2.9,0,0,0-3.2-2.7,3.4,3.4,0,0,0-2.8,1.2,6.5,6.5,0,0,0-.9,3.7v1.1a5.7,5.7,0,0,0,1,3.6,3.5,3.5,0,0,0,2.9,1.3l1.8-.2a2.5,2.5,0,0,0,1.2-.8v-3h-3.1V88.1h4.9V93Zm2.3-3.3a6,6,0,0,1,.6-2.7,4.2,4.2,0,0,1,1.7-1.8,4.8,4.8,0,0,1,2.4-.6,4,4,0,0,1,3.3,1.4,5.2,5.2,0,0,1,1.3,3.8h0a5.5,5.5,0,0,1-.6,2.6,3.5,3.5,0,0,1-1.6,1.8,4.8,4.8,0,0,1-2.4.7,4.3,4.3,0,0,1-3.4-1.5,5.5,5.5,0,0,1-1.3-3.7Zm1.8.2a4,4,0,0,0,.8,2.7,2.7,2.7,0,0,0,2.1,1,2.5,2.5,0,0,0,2.1-1.1,4.4,4.4,0,0,0,.8-2.8,4.6,4.6,0,0,0-.8-2.7,2.6,2.6,0,0,0-2.1-1,2.4,2.4,0,0,0-2.1,1,4.2,4.2,0,0,0-.8,2.9Zm9.2-.2a6,6,0,0,1,.6-2.7,4.2,4.2,0,0,1,1.7-1.8,4.8,4.8,0,0,1,2.4-.6,3.9,3.9,0,0,1,3.3,1.4,5.2,5.2,0,0,1,1.3,3.8h0a7.1,7.1,0,0,1-.5,2.6,4.2,4.2,0,0,1-1.7,1.8,4.8,4.8,0,0,1-2.4.7,4.3,4.3,0,0,1-3.4-1.5,5.5,5.5,0,0,1-1.3-3.7Zm1.8.2a4.6,4.6,0,0,0,.8,2.7,2.7,2.7,0,0,0,2.1,1,2.5,2.5,0,0,0,2.1-1.1,4.4,4.4,0,0,0,.8-2.8,4.6,4.6,0,0,0-.8-2.7,2.7,2.7,0,0,0-4.2,0,4.8,4.8,0,0,0-.8,2.9Zm9.3-.2A5.8,5.8,0,0,1,305,86a3.4,3.4,0,0,1,2.9-1.4,3.5,3.5,0,0,1,3,1.3V84.8h1.6v9.7a4.5,4.5,0,0,1-1.1,3.1,4.8,4.8,0,0,1-3.2,1.1,4.4,4.4,0,0,1-2.2-.5,4,4,0,0,1-1.6-1.2l.9-1a3.5,3.5,0,0,0,2.8,1.3,2.7,2.7,0,0,0,2-.7,3,3,0,0,0,.7-2v-.8a3.7,3.7,0,0,1-2.9,1.2,3.5,3.5,0,0,1-2.9-1.5,6.1,6.1,0,0,1-1.1-3.8Zm1.8.2a4,4,0,0,0,.7,2.6,2.1,2.1,0,0,0,2,1,2.5,2.5,0,0,0,2.4-1.5V87.5a2.7,2.7,0,0,0-2.4-1.5,2.5,2.5,0,0,0-2,1,4.6,4.6,0,0,0-.7,2.9Zm11.4,4.9h-1.8V80.6h1.8Zm7,.2a4.6,4.6,0,0,1-3.4-1.4,5.3,5.3,0,0,1-1.3-3.6v-.3a5.5,5.5,0,0,1,.6-2.6,4.9,4.9,0,0,1,1.6-1.9,4.6,4.6,0,0,1,2.3-.6,3.7,3.7,0,0,1,3.1,1.3,5.3,5.3,0,0,1,1.1,3.6v.8h-6.9a3.6,3.6,0,0,0,.9,2.4,2.6,2.6,0,0,0,2.1.9,4.2,4.2,0,0,0,1.6-.4,5.2,5.2,0,0,0,1.1-1l1.1.8a4.5,4.5,0,0,1-3.9,2Zm-.2-9a2.4,2.4,0,0,0-1.8.7,3.4,3.4,0,0,0-.9,2.2h5.1v-.2a2.7,2.7,0,0,0-.7-2,2.1,2.1,0,0,0-1.7-.7Zm10.6,3.7A5.9,5.9,0,0,1,335,87a4.2,4.2,0,0,1,1.7-1.8,4.8,4.8,0,0,1,2.4-.6,4.2,4.2,0,0,1,3.4,1.4,5.6,5.6,0,0,1,1.2,3.8h0a5.5,5.5,0,0,1-.5,2.6,4.2,4.2,0,0,1-1.7,1.8,4.8,4.8,0,0,1-2.4.7,4.3,4.3,0,0,1-3.4-1.5,5.5,5.5,0,0,1-1.2-3.7Zm1.7.2a4.6,4.6,0,0,0,.8,2.7,2.7,2.7,0,0,0,2.1,1,2.5,2.5,0,0,0,2.1-1.1,4.4,4.4,0,0,0,.8-2.8,4.6,4.6,0,0,0-.8-2.7,2.7,2.7,0,0,0-4.2,0A4.8,4.8,0,0,0,336.2,89.9Zm14.7-3.6H350a2.3,2.3,0,0,0-2.3,1.5v7.1h-1.8v-10h1.7v1.1a2.5,2.5,0,0,1,2.4-1.3h.8v1.6Zm8.7-4v2.5h1.9v1.3h-1.9v6.2a1.1,1.1,0,0,0,1.2,1.2h.8v1.4l-1.3.2a2.5,2.5,0,0,1-1.8-.7,3.2,3.2,0,0,1-.6-2V86.1H356V84.8h1.9V82.3Zm7.3,10,2.4-7.5h1.9l-4.1,11.5c-.7,1.7-1.7,2.5-3.1,2.5h-.9V97.3h.4a2.6,2.6,0,0,0,1.4-.3,3.2,3.2,0,0,0,.8-1.3l.4-1-3.6-9.9h1.9Zm14.5-2.4a6.2,6.2,0,0,1-1.1,3.7,3.6,3.6,0,0,1-2.9,1.4,3.7,3.7,0,0,1-2.9-1.2v4.8h-1.8V84.8h1.6v1.1a3.5,3.5,0,0,1,3-1.3,3.5,3.5,0,0,1,2.9,1.3,6.1,6.1,0,0,1,1.1,3.8Zm-1.8-.2a4.5,4.5,0,0,0-.7-2.7,2.6,2.6,0,0,0-4.4.4v4.8a2.6,2.6,0,0,0,4.4.4A4.8,4.8,0,0,0,379.6,89.7Zm8.2,5.3a4.4,4.4,0,0,1-3.3-1.4,4.8,4.8,0,0,1-1.3-3.6v-.3a5.5,5.5,0,0,1,.5-2.6,5.2,5.2,0,0,1,1.7-1.9,4.3,4.3,0,0,1,2.2-.6,3.7,3.7,0,0,1,3.1,1.3,5.3,5.3,0,0,1,1.1,3.6v.8h-6.9a3.6,3.6,0,0,0,.9,2.4,2.7,2.7,0,0,0,2.1.9,3.8,3.8,0,0,0,1.6-.4,5.2,5.2,0,0,0,1.1-1l1.1.8a4.5,4.5,0,0,1-3.9,2Zm-.2-9a2.4,2.4,0,0,0-1.8.7,4.1,4.1,0,0,0-.8,2.2h5.1v-.2a4,4,0,0,0-.7-2,2.4,2.4,0,0,0-1.8-.7Zm17.3,8.8a7.5,7.5,0,0,1-.2-1.1,4.1,4.1,0,0,1-2.9,1.3,3.7,3.7,0,0,1-2.5-.9,2.7,2.7,0,0,1-1-2.1,2.6,2.6,0,0,1,1.3-2.4,5.5,5.5,0,0,1,3.4-.9h1.7v-.8a1.7,1.7,0,0,0-.6-1.4,1.9,1.9,0,0,0-1.6-.5,2.9,2.9,0,0,0-1.6.4,1.4,1.4,0,0,0-.6,1.1h-1.7a2,2,0,0,1,.5-1.4,3.5,3.5,0,0,1,1.5-1.1,4.5,4.5,0,0,1,2-.4,4.7,4.7,0,0,1,2.8.8,3.3,3.3,0,0,1,1,2.4v4.6a4.6,4.6,0,0,0,.4,2.2v.2ZM402,93.5a3,3,0,0,0,1.6-.5,2.7,2.7,0,0,0,1.1-1V89.9h-1.4c-2.1,0-3.2.6-3.2,1.9a1.7,1.7,0,0,0,.5,1.2,2.4,2.4,0,0,0,1.4.5Zm21.9-12.2v9.2a4.3,4.3,0,0,1-1.2,3.1,5,5,0,0,1-3.3,1.3h-.5a5.2,5.2,0,0,1-3.6-1.2,4.6,4.6,0,0,1-1.4-3.3V81.3h1.8v9.1a2.9,2.9,0,0,0,.9,2.3,3.7,3.7,0,0,0,4.6,0,2.9,2.9,0,0,0,.9-2.3V81.3Zm7.9,8h-3.2v5.5h-1.9V81.3h4.6a5.2,5.2,0,0,1,3.5,1,3.6,3.6,0,0,1,1.3,3.1,3.1,3.1,0,0,1-.7,2.1,3.8,3.8,0,0,1-1.9,1.4l3.2,5.8h-1.9l-3-5.5Zm-3.2-1.4h2.7a3.8,3.8,0,0,0,2.2-.7,2.5,2.5,0,0,0,.8-1.8,2.6,2.6,0,0,0-.8-2,3.4,3.4,0,0,0-2.2-.6h-2.7v5.1Zm11.9,5.4H447v1.5h-8.4V81.3h1.9v12Z" transform="translate(0 0)" fill="#ccc"/><path d="M181.6,90.2l-.6,2.3h-2.2a8.5,8.5,0,0,1-1.1-4.2,9.5,9.5,0,0,1,1-4.1l2,.4.9,2a4.7,4.7,0,0,0-.3,1.7,5.8,5.8,0,0,0,.3,1.9" transform="translate(0 0)" fill="#fbbb00"/><path d="M195.2,86.7a7.8,7.8,0,0,1,.2,1.6,12.3,12.3,0,0,1-.2,1.9,9.3,9.3,0,0,1-3.1,5h-2.6l-.3-2.3a5.8,5.8,0,0,0,2.3-2.6h-4.8V86.7Z" transform="translate(0 0)" fill="#518ef8"/><path d="M192.1,95.2h0a9.1,9.1,0,0,1-5.6,2,8.8,8.8,0,0,1-7.7-4.7l2.8-2.3a5.5,5.5,0,0,0,4.9,3.4,5,5,0,0,0,2.7-.8Z" transform="translate(0 0)" fill="#28b446"/><path d="M192.2,81.5l-2.9,2.3a5.2,5.2,0,0,0-7.7,2.8l-2.9-2.4a8.9,8.9,0,0,1,13.5-2.7" transform="translate(0 0)" fill="#f14336"/><path d="M1333.4,79.4l2.5,5.7,6.3.5-4.8,4.1,1.4,6-5.4-3.2-5.4,3.2,1.4-6-4.7-4.1,6.2-.5,2.5-5.7Z" transform="translate(0 0)" fill="none" stroke="#606367" stroke-linecap="round" stroke-linejoin="round" stroke-opacity="0.4" stroke-width="1.95"/><ellipse cx="1393" cy="87.8" rx="14.9" ry="14.9" fill="#999"/><path d="M1393,80a3.8,3.8,0,0,1,3.9,3.9,3.9,3.9,0,1,1-7.8,0A3.8,3.8,0,0,1,1393,80Zm0,20.6a12.5,12.5,0,0,0,9.4-4.2,10.4,10.4,0,0,0-18.8,0A12.5,12.5,0,0,0,1393,100.6Z" transform="translate(0 0)" fill="#666" fill-rule="evenodd"/><path d="M1442.7,80.5a2.2,2.2,0,0,1-2.3,2.2,2.2,2.2,0,0,1,0-4.4A2.2,2.2,0,0,1,1442.7,80.5Zm0,7.3a2.2,2.2,0,0,1-2.3,2.2,2.2,2.2,0,0,1,0-4.4A2.2,2.2,0,0,1,1442.7,87.8Zm-2.3,9.5a2.2,2.2,0,1,0,0-4.4,2.2,2.2,0,0,0,0,4.4Z" transform="translate(0 0)" fill="#606367" fill-rule="evenodd"/><path d="M861.8,286.8c-9.4,0-11.5-6.9-11.5-6.9l31.4-12.3s-4.3-17-21-17-22.3,14.3-22.3,22.8,7.2,22.3,23.3,22.3a24.1,24.1,0,0,0,19.6-10l-7.9-5.1S869.2,286.9,861.8,286.8Zm-2-27.4c6-1.1,10,4.7,10,4.7l-21.2,8.2S847,261.6,859.8,259.4Zm-36.3-31.1H834v66.2H823.5Zm-16.6,27.9a15.9,15.9,0,0,0-13-5.6c-11,.3-22.3,8.4-22.3,22.5s12,22.5,22.2,22.5,13.1-5.6,13.1-5.6v4.5c0,3.2-1.3,12.7-12.2,12.7a12.9,12.9,0,0,1-12.3-8.2l-8.9,3.6a22.3,22.3,0,0,0,20.8,13.2c15.6,0,22.3-11.2,22.3-21.9V252.1h-9.7Zm-12.3,30.9c-7.1,0-12.8-6.2-12.8-13.8s5.7-13.9,12.8-13.9,12.8,6.2,12.8,13.9S801.7,287.1,794.6,287.1ZM665.1,257.7c.1,1,.1,2,.1,3.1,0,19.2-15.9,34.8-35.6,34.8s-35.7-15.6-35.7-34.8,16-34.9,35.7-34.9a35.9,35.9,0,0,1,25.5,10.5l-6.9,6.6a25.7,25.7,0,0,0-43.8,17.8c0,13.9,11.5,25.1,25.7,25.1a25.5,25.5,0,0,0,24.8-18.8H631v-9.4h34.1Z" transform="translate(0 0)" fill="#fff" fill-rule="evenodd"/><ellipse cx="743.7" cy="273.1" rx="18.9" ry="18.2" fill="none" stroke="#fff" stroke-miterlimit="134.27" stroke-width="9.23"/><ellipse cx="692.2" cy="273.1" rx="18.9" ry="18.2" fill="none" stroke="#fff" stroke-miterlimit="134.27" stroke-width="9.23"/><path d="M1056.1,400.1a30.9,30.9,0,0,0-30.9-31H448.9a31,31,0,0,0-30.9,31v3.5a31,31,0,0,0,30.9,31h576.3a30.9,30.9,0,0,0,30.9-31Z" transform="translate(0 0)" fill="#999" fill-opacity="0.5" fill-rule="evenodd"/><path d="M452.6,403.8a10.1,10.1,0,0,1-3.9-1.8,3.8,3.8,0,0,1-1.2-2.8,3.7,3.7,0,0,1,1.5-3,6.1,6.1,0,0,1,3.9-1.2,6.8,6.8,0,0,1,2.9.6,4.5,4.5,0,0,1,2.7,4.1h-2.1a2.8,2.8,0,0,0-.9-2.2,4,4,0,0,0-2.6-.8,3.3,3.3,0,0,0-2.4.7,2,2,0,0,0-.9,1.8,2.1,2.1,0,0,0,.8,1.6,6.7,6.7,0,0,0,2.8,1.2,16.8,16.8,0,0,1,3.1,1.2,5.3,5.3,0,0,1,1.7,1.6,3.9,3.9,0,0,1,.5,2,3.7,3.7,0,0,1-1.5,3.1,6.8,6.8,0,0,1-4,1.1,8.1,8.1,0,0,1-3.1-.6,6.2,6.2,0,0,1-2.2-1.7,4,4,0,0,1-.7-2.4h2.1a2.6,2.6,0,0,0,1,2.2,5.2,5.2,0,0,0,2.9.8,4.4,4.4,0,0,0,2.5-.6,2.3,2.3,0,0,0,.9-1.9,2.1,2.1,0,0,0-.8-1.7A9.7,9.7,0,0,0,452.6,403.8Zm13.2,7.2a5.3,5.3,0,0,1-3.9-1.5,6,6,0,0,1-1.5-4.2V405a7.5,7.5,0,0,1,.6-3.1,5.5,5.5,0,0,1,1.9-2.1,5,5,0,0,1,2.6-.8,4.3,4.3,0,0,1,3.6,1.5,6,6,0,0,1,1.3,4.2v.9h-8a4.1,4.1,0,0,0,1,2.7,3.4,3.4,0,0,0,2.5,1.1,4.8,4.8,0,0,0,1.8-.4,4.9,4.9,0,0,0,1.3-1.2l1.2,1a5.1,5.1,0,0,1-4.4,2.2Zm-.3-10.4a2.5,2.5,0,0,0-2,.9,3.8,3.8,0,0,0-1,2.4h5.9a3.7,3.7,0,0,0-.9-2.3,2.3,2.3,0,0,0-2-.9ZM480,410.8a6.8,6.8,0,0,1-.3-1.2,4.5,4.5,0,0,1-3.3,1.4,4.1,4.1,0,0,1-2.9-1,3,3,0,0,1-1.1-2.4,3.2,3.2,0,0,1,1.4-2.8,6.3,6.3,0,0,1,3.9-1h2v-.9a2.4,2.4,0,0,0-.6-1.7,2.9,2.9,0,0,0-1.9-.6,3.5,3.5,0,0,0-1.8.5,1.6,1.6,0,0,0-.7,1.3h-2.1a2.1,2.1,0,0,1,.7-1.6,3.3,3.3,0,0,1,1.7-1.3,5.9,5.9,0,0,1,2.3-.5,4.4,4.4,0,0,1,3.2,1,3.5,3.5,0,0,1,1.2,2.8v5.3a8.2,8.2,0,0,0,.4,2.5v.2Zm-3.3-1.5a4.1,4.1,0,0,0,1.8-.5,3,3,0,0,0,1.2-1.3v-2.3h-1.6c-2.5,0-3.7.7-3.7,2.1a1.7,1.7,0,0,0,.6,1.4,2.5,2.5,0,0,0,1.7.6Zm13.9-8.3h-1a2.8,2.8,0,0,0-2.7,1.7v8.2h-2V399.2h1.9v1.3a3.1,3.1,0,0,1,2.8-1.5h.9Zm6.4,8.4a2.8,2.8,0,0,0,1.9-.7,1.9,1.9,0,0,0,.8-1.6h2a4.4,4.4,0,0,1-.7,1.9,5.4,5.4,0,0,1-1.8,1.5,5.4,5.4,0,0,1-2.2.5,5,5,0,0,1-3.9-1.6,6.3,6.3,0,0,1-1.4-4.3v-.3a6.7,6.7,0,0,1,.6-3,5.5,5.5,0,0,1,1.9-2.1,4.9,4.9,0,0,1,2.8-.7,4.4,4.4,0,0,1,3.2,1.2,4,4,0,0,1,1.5,3h-2a2.2,2.2,0,0,0-.8-1.8,2.7,2.7,0,0,0-1.9-.8,2.8,2.8,0,0,0-2.4,1.1,4.8,4.8,0,0,0-.9,3.1v.4a4.6,4.6,0,0,0,.9,3.1,2.8,2.8,0,0,0,2.4,1.1Zm8.9-8.8a4.3,4.3,0,0,1,3.5-1.6c2.5,0,3.8,1.4,3.8,4.1v7.7h-2v-7.7a2.1,2.1,0,0,0-2.4-2.4,2.6,2.6,0,0,0-1.7.5,3.7,3.7,0,0,0-1.2,1.3v8.3h-2V394.4h2Zm27.9,8.1a4,4,0,0,1-2.3,1.7,8.1,8.1,0,0,1-3.3.6,6.8,6.8,0,0,1-3.5-.9,6.2,6.2,0,0,1-2.3-2.5,9.3,9.3,0,0,1-.8-3.9v-1.3a8.2,8.2,0,0,1,1.6-5.5,6,6,0,0,1,4.7-1.9,5.7,5.7,0,0,1,4,1.3,4.9,4.9,0,0,1,1.9,3.5h-2.1a3.4,3.4,0,0,0-3.7-3.1,3.9,3.9,0,0,0-3.2,1.4,6.6,6.6,0,0,0-1.1,4.2v1.3a6.8,6.8,0,0,0,1.2,4.2,4,4,0,0,0,3.3,1.5l2.1-.2a4.2,4.2,0,0,0,1.4-.9v-3.5H528V403h5.8v5.7Zm2.6-3.8a7.8,7.8,0,0,1,.7-3.1,5.5,5.5,0,0,1,1.9-2.1,5.3,5.3,0,0,1,2.8-.7,5,5,0,0,1,3.9,1.6,6.3,6.3,0,0,1,1.5,4.4h0a6.2,6.2,0,0,1-.7,3.1,4.1,4.1,0,0,1-1.9,2,5.1,5.1,0,0,1-2.8.8,5.3,5.3,0,0,1-3.9-1.6,6.3,6.3,0,0,1-1.5-4.4Zm2.1.2a5,5,0,0,0,.9,3.1,2.9,2.9,0,0,0,2.4,1.2,3,3,0,0,0,2.5-1.2,5.4,5.4,0,0,0,.9-3.3,4.5,4.5,0,0,0-1-3.1,3,3,0,0,0-4.8,0,5.4,5.4,0,0,0-.9,3.3Zm10.7-.2a6.4,6.4,0,0,1,.7-3.1,4.8,4.8,0,0,1,1.9-2.1,5.6,5.6,0,0,1,6.6.9,6.3,6.3,0,0,1,1.5,4.4h0a7.5,7.5,0,0,1-.6,3.1,5.2,5.2,0,0,1-1.9,2,5.4,5.4,0,0,1-6.7-.8,6.3,6.3,0,0,1-1.5-4.4Zm2,.2a5,5,0,0,0,.9,3.1,2.9,2.9,0,0,0,2.5,1.2,2.9,2.9,0,0,0,2.4-1.2,5.4,5.4,0,0,0,.9-3.3,5,5,0,0,0-.9-3.1,2.9,2.9,0,0,0-2.5-1.2,2.9,2.9,0,0,0-2.4,1.2,5.4,5.4,0,0,0-.9,3.3Zm10.8-.2a6.5,6.5,0,0,1,1.3-4.3,3.8,3.8,0,0,1,3.3-1.6,4.1,4.1,0,0,1,3.4,1.5v-1.3h1.8v11.3a4.5,4.5,0,0,1-1.3,3.5,4.9,4.9,0,0,1-3.7,1.3,5.9,5.9,0,0,1-2.5-.5,3.8,3.8,0,0,1-1.8-1.5l1-1.2a3.9,3.9,0,0,0,3.2,1.6,3.4,3.4,0,0,0,2.3-.8,3.2,3.2,0,0,0,.8-2.3v-1a4.2,4.2,0,0,1-3.3,1.4,4.1,4.1,0,0,1-3.3-1.6,6.9,6.9,0,0,1-1.3-4.5Zm2,.2a5.4,5.4,0,0,0,.8,3.1,2.8,2.8,0,0,0,2.3,1.1,3,3,0,0,0,2.8-1.7v-5.3a2.9,2.9,0,0,0-2.8-1.6,3,3,0,0,0-2.3,1.1,5.9,5.9,0,0,0-.8,3.3Zm13.2,5.7h-2V394.4h2Zm8.1.2a5.3,5.3,0,0,1-3.9-1.5,6,6,0,0,1-1.5-4.2V405a6.2,6.2,0,0,1,.7-3.1,4.8,4.8,0,0,1,1.9-2.1,4.7,4.7,0,0,1,2.6-.8,4.3,4.3,0,0,1,3.5,1.5,6,6,0,0,1,1.3,4.2v.9h-8a4.6,4.6,0,0,0,1,2.7,3.4,3.4,0,0,0,2.5,1.1,4.8,4.8,0,0,0,1.8-.4,3.7,3.7,0,0,0,1.3-1.2l1.3,1a5.2,5.2,0,0,1-4.5,2.2Zm-.2-10.4a2.9,2.9,0,0,0-2.1.9,4.4,4.4,0,0,0-1,2.4h5.9a3.7,3.7,0,0,0-.8-2.3,2.5,2.5,0,0,0-2-.9Zm12.2,4.3a7.8,7.8,0,0,1,.6-3.1,4.9,4.9,0,0,1,4.7-2.8,5,5,0,0,1,3.9,1.6A6.3,6.3,0,0,1,608,405h0a6.2,6.2,0,0,1-.7,3.1,4.4,4.4,0,0,1-1.8,2,5.7,5.7,0,0,1-2.9.8,5.1,5.1,0,0,1-3.8-1.6,6.3,6.3,0,0,1-1.5-4.4Zm2,.2a5,5,0,0,0,.9,3.1,2.9,2.9,0,0,0,2.4,1.2,2.9,2.9,0,0,0,2.5-1.2,5.4,5.4,0,0,0,.9-3.3,5,5,0,0,0-.9-3.1,3,3,0,0,0-2.5-1.2,2.9,2.9,0,0,0-2.4,1.2A5.4,5.4,0,0,0,599.3,405.1Zm16.9-4.1h-.9a2.6,2.6,0,0,0-2.7,1.7v8.2h-2.1V399.2h2v1.3a3.3,3.3,0,0,1,2.9-1.5h.8V401Zm10.2-4.6v2.8h2.2v1.5h-2.2v7.2a1.8,1.8,0,0,0,.3,1.1,1.3,1.3,0,0,0,1,.3h.9v1.6l-1.5.2a2.5,2.5,0,0,1-2-.8,3.2,3.2,0,0,1-.7-2.3v-7.2h-2.2v-1.5h2.2v-2.8Zm8.4,11.5,2.8-8.7h2.1L635,412.6c-.8,1.9-1.9,2.9-3.5,2.9h-1.2v-1.6h.6a2.5,2.5,0,0,0,1.6-.4,2.7,2.7,0,0,0,.9-1.5l.5-1.1-4.2-11.5h2.2Zm16.7-2.8a7.1,7.1,0,0,1-1.2,4.3,4.1,4.1,0,0,1-3.4,1.6,4.5,4.5,0,0,1-3.3-1.3v5.5h-2.1v-16h1.9v1.3a4.1,4.1,0,0,1,3.4-1.5,4.1,4.1,0,0,1,3.4,1.6,6.9,6.9,0,0,1,1.2,4.3Zm-2-.2a5,5,0,0,0-.9-3.1,2.7,2.7,0,0,0-2.3-1.1,2.9,2.9,0,0,0-2.7,1.6v5.5a2.9,2.9,0,0,0,2.7,1.6,2.7,2.7,0,0,0,2.3-1.1A5.5,5.5,0,0,0,649.5,404.9ZM659,411a5.3,5.3,0,0,1-3.9-1.5,6,6,0,0,1-1.5-4.2V405a7.5,7.5,0,0,1,.6-3.1,5.5,5.5,0,0,1,1.9-2.1,5,5,0,0,1,2.6-.8,4.5,4.5,0,0,1,3.6,1.5,6.6,6.6,0,0,1,1.3,4.2v.9h-8a3.6,3.6,0,0,0,1,2.7,3.3,3.3,0,0,0,2.5,1.1,4.8,4.8,0,0,0,1.8-.4,4.9,4.9,0,0,0,1.3-1.2l1.2,1A5.2,5.2,0,0,1,659,411Zm-.3-10.4a2.5,2.5,0,0,0-2,.9,4.5,4.5,0,0,0-1.1,2.4h6a3.7,3.7,0,0,0-.9-2.3,2.4,2.4,0,0,0-2-.9Zm20,10.2a3.3,3.3,0,0,1-.2-1.2,4.9,4.9,0,0,1-3.4,1.4,4.1,4.1,0,0,1-2.9-1,3,3,0,0,1-1.1-2.4,3.2,3.2,0,0,1,1.4-2.8,6.8,6.8,0,0,1,4-1h1.9v-.9a2.4,2.4,0,0,0-.6-1.7,2.7,2.7,0,0,0-1.9-.6,3.5,3.5,0,0,0-1.8.5,1.6,1.6,0,0,0-.7,1.3h-2a2.5,2.5,0,0,1,.6-1.6,3.7,3.7,0,0,1,1.7-1.3,5.9,5.9,0,0,1,2.3-.5,4.4,4.4,0,0,1,3.2,1,3.5,3.5,0,0,1,1.2,2.8v5.3a5.8,5.8,0,0,0,.5,2.5v.2Zm-3.3-1.5a4.1,4.1,0,0,0,1.8-.5,2.2,2.2,0,0,0,1.2-1.3v-2.3h-1.6c-2.4,0-3.7.7-3.7,2.1a1.5,1.5,0,0,0,.7,1.4,2.1,2.1,0,0,0,1.6.6Zm25.2-14.1v10.6a4.5,4.5,0,0,1-1.4,3.6,5.8,5.8,0,0,1-3.8,1.6h-.5a6.1,6.1,0,0,1-4.2-1.4,5.3,5.3,0,0,1-1.6-3.8V395.2h2.1v10.6a3.3,3.3,0,0,0,1,2.6,4.5,4.5,0,0,0,5.4,0,3.6,3.6,0,0,0,.9-2.6V395.2Zm9.2,9.3H706v6.3h-2.1V395.2h5.3a6.3,6.3,0,0,1,4.1,1.2,4.3,4.3,0,0,1,1.5,3.5,4.6,4.6,0,0,1-3.1,4.1l3.8,6.7h-2.3l-3.4-6.3Zm-3.8-1.7h3.3a3.6,3.6,0,0,0,2.4-.8,2.9,2.9,0,0,0,.1-4.3,4,4,0,0,0-2.6-.8H706v5.9Zm13.8,6.3h7.5v1.7h-9.6V395.2h2.1v13.9Z" transform="translate(0 0)" fill-opacity="0.33"/><path d="M1028.5,401.8c0,5.4-4.7,9.1-10,9.1s-10-3.7-10-9.1h-3.2c0,6.1,5.1,11.1,11.3,12v5.9h3.8v-5.9c6.2-.9,11.3-5.9,11.3-12Z" transform="translate(0 0)" fill="#999"/><path d="M1018.5,407.2a5.7,5.7,0,0,0,5.7-5.8V389.8a5.7,5.7,0,1,0-11.4,0v11.6A5.7,5.7,0,0,0,1018.5,407.2Z" transform="translate(0 0)" fill="#999"/><path d="M1429.9,137.7a2.3,2.3,0,0,1,2.3,2.3,2.4,2.4,0,0,1-2.3,2.3,2.3,2.3,0,0,1-2.3-2.3A2.3,2.3,0,0,1,1429.9,137.7Zm4.6,2.3a2.3,2.3,0,0,0,2.3,2.3,2.4,2.4,0,0,0,2.3-2.3,2.3,2.3,0,0,0-2.3-2.3A2.3,2.3,0,0,0,1434.5,140Zm6.9,0a2.3,2.3,0,0,0,2.3,2.3,2.4,2.4,0,0,0,2.3-2.3,2.3,2.3,0,0,0-2.3-2.3A2.3,2.3,0,0,0,1441.4,140Zm-13.8,7.7a2.3,2.3,0,0,0,2.3,2.3,2.3,2.3,0,0,0,2.3-2.3,2.4,2.4,0,0,0-2.3-2.3A2.3,2.3,0,0,0,1427.6,147.7Zm6.9,0a2.3,2.3,0,0,0,2.3,2.3,2.3,2.3,0,0,0,2.3-2.3,2.4,2.4,0,0,0-2.3-2.3A2.3,2.3,0,0,0,1434.5,147.7Zm6.9,0a2.3,2.3,0,0,0,2.3,2.3,2.3,2.3,0,0,0,2.3-2.3,2.4,2.4,0,0,0-2.3-2.3A2.3,2.3,0,0,0,1441.4,147.7Zm-13.8,7.8a2.3,2.3,0,0,0,2.3,2.3,2.3,2.3,0,0,0,0-4.6A2.3,2.3,0,0,0,1427.6,155.5Zm6.9,0a2.3,2.3,0,0,0,2.3,2.3,2.3,2.3,0,0,0,0-4.6A2.3,2.3,0,0,0,1434.5,155.5Zm6.9,0a2.3,2.3,0,0,0,2.3,2.3,2.3,2.3,0,0,0,0-4.6A2.3,2.3,0,0,0,1441.4,155.5Z" transform="translate(0 0)" fill="#999" fill-rule="evenodd"/><path d="M415.1,566V555.4h3.1a4.5,4.5,0,0,1,2.5.7,4.4,4.4,0,0,1,1.6,1.7,5.8,5.8,0,0,1,.6,2.6v.6a5.5,5.5,0,0,1-.6,2.6,3.5,3.5,0,0,1-1.7,1.7,4.1,4.1,0,0,1-2.5.7Zm1.8-9.1v7.6h1.2a2.7,2.7,0,0,0,2.2-.9,4,4,0,0,0,.8-2.6v-.6a4,4,0,0,0-.8-2.6,2.5,2.5,0,0,0-2.1-.9Zm12.3,9.1a4.5,4.5,0,0,0-.2-.8,2.5,2.5,0,0,1-2,.9,2.5,2.5,0,0,1-1.9-.7,2.1,2.1,0,0,1-.8-1.6,2,2,0,0,1,1-1.9,3.8,3.8,0,0,1,2.6-.7H429v-.5a1.2,1.2,0,0,0-.4-1,1.3,1.3,0,0,0-1-.4,1.7,1.7,0,0,0-1,.3,1.2,1.2,0,0,0-.4.8h-1.7a1.9,1.9,0,0,1,.4-1.2,2.7,2.7,0,0,1,1.2-.9,4.1,4.1,0,0,1,1.6-.3,3.2,3.2,0,0,1,2.2.7,2.6,2.6,0,0,1,.8,1.9v3.6a4.3,4.3,0,0,0,.3,1.7h-1.8Zm-1.9-1.3a1.7,1.7,0,0,0,1-.3,1.3,1.3,0,0,0,.7-.6v-1.5h-1a2.6,2.6,0,0,0-1.4.3,1.1,1.1,0,0,0-.5,1,1.1,1.1,0,0,0,.3.8A1.2,1.2,0,0,0,427.3,564.7Zm9.4-6.6H436a1.9,1.9,0,0,0-1.7,1v-.8h-1.6V566h1.7v-5.4a1.6,1.6,0,0,1,1.6-.9h.7Zm1.9-1.9v2h-1.3v1.3h1.3v4.4c0,1.5.6,2.2,2,2.2h1.1v-1.4h-.6a.8.8,0,0,1-.6-.2,1.4,1.4,0,0,1-.2-.7v-4.3h1.4v-1.3h-1.4v-2Zm14.9,5.9a4.3,4.3,0,0,1-.8,2.9,2.7,2.7,0,0,1-2.2,1.1,3,3,0,0,1-2.1-.8V569h-1.7V558.2h1.6v.7a2.6,2.6,0,0,1,2.1-.9,2.7,2.7,0,0,1,2.2,1.1,4.3,4.3,0,0,1,.8,2.9Zm-1.7-.1a3.6,3.6,0,0,0-.5-1.9,1.6,1.6,0,0,0-1.3-.7,1.8,1.8,0,0,0-1.6.9v3.5a1.8,1.8,0,0,0,1.6.9,1.4,1.4,0,0,0,1.3-.7A3.4,3.4,0,0,0,451.8,562Zm7.9,4a1.5,1.5,0,0,1-.2-.8,2.9,2.9,0,0,1-2.1.9,2.5,2.5,0,0,1-1.9-.7,2,2,0,0,1-.7-1.6,2.1,2.1,0,0,1,.9-1.9,4,4,0,0,1,2.6-.7h1.1v-.5a1.5,1.5,0,0,0-.3-1,1.6,1.6,0,0,0-1.1-.4,1.2,1.2,0,0,0-.9.3.9.9,0,0,0-.4.8h-1.8a2.1,2.1,0,0,1,.5-1.2,2,2,0,0,1,1.1-.9,4.1,4.1,0,0,1,1.6-.3,2.9,2.9,0,0,1,2.2.7,2.3,2.3,0,0,1,.9,1.9v3.6a4.3,4.3,0,0,0,.3,1.7h-1.8Zm-1.9-1.3a1.6,1.6,0,0,0,.9-.3,1.1,1.1,0,0,0,.7-.6v-1.5h-.9a2.8,2.8,0,0,0-1.5.3,1.4,1.4,0,0,0-.5,1,1.1,1.1,0,0,0,.3.8A1.7,1.7,0,0,0,457.8,564.7Zm7.1-.6a3.3,3.3,0,0,1-.5-1.9v-.3a3.3,3.3,0,0,1,.5-1.9,1.5,1.5,0,0,1,1.3-.6,1.8,1.8,0,0,1,1.1.4,2.2,2.2,0,0,1,.5,1.1h1.6a2.7,2.7,0,0,0-.9-2.1,3.4,3.4,0,0,0-2.3-.8,3.5,3.5,0,0,0-2.6,1.1,4.1,4.1,0,0,0-.9,2.8v.2a4.7,4.7,0,0,0,.9,3,3.4,3.4,0,0,0,2.6,1,2.9,2.9,0,0,0,1.6-.4,2.3,2.3,0,0,0,1.2-1,2.8,2.8,0,0,0,.4-1.3h-1.6a1.3,1.3,0,0,1-.5.9,1.5,1.5,0,0,1-1.1.4A1.5,1.5,0,0,1,464.9,564.1Zm10.7,1.9h2l-3.2-4.6,2.9-3.2h-2.1l-2.2,2.4-.5.7v-6.4h-1.8V566h1.8v-2.6l.8-.8Zm7.5,0a4.5,4.5,0,0,1-.2-.8,2.7,2.7,0,0,1-2,.9,2.7,2.7,0,0,1-2-.7,2,2,0,0,1-.7-1.6,2.1,2.1,0,0,1,.9-1.9,4.1,4.1,0,0,1,2.7-.7h1v-.5a1.5,1.5,0,0,0-.3-1,1.5,1.5,0,0,0-1-.4,1.5,1.5,0,0,0-1,.3.9.9,0,0,0-.4.8h-1.7a1.9,1.9,0,0,1,.4-1.2,3.1,3.1,0,0,1,1.1-.9,4.7,4.7,0,0,1,1.7-.3,3.2,3.2,0,0,1,2.2.7,2.6,2.6,0,0,1,.8,1.9v3.6a4.3,4.3,0,0,0,.3,1.7h-1.8Zm-1.9-1.3a1.9,1.9,0,0,0,1-.3.9.9,0,0,0,.6-.6v-1.5h-.9a3.3,3.3,0,0,0-1.5.3,1.3,1.3,0,0,0-.4,1,1.1,1.1,0,0,0,.3.8A1.2,1.2,0,0,0,481.2,564.7Zm4.9-2.7a4.4,4.4,0,0,1,.9-2.9,2.7,2.7,0,0,1,2.2-1.1,2.9,2.9,0,0,1,2.2.9v-.7H493v7.5a3,3,0,0,1-1,2.5,3.3,3.3,0,0,1-2.5.8,4.7,4.7,0,0,1-1.7-.3,2.4,2.4,0,0,1-1.2-.9l.8-1.1a2.6,2.6,0,0,0,2,1,1.9,1.9,0,0,0,1.3-.5,1.6,1.6,0,0,0,.5-1.4v-.5a2.6,2.6,0,0,1-2,.8A2.8,2.8,0,0,1,487,565,4.5,4.5,0,0,1,486.1,562Zm1.8.1a2.7,2.7,0,0,0,.5,1.9,1.4,1.4,0,0,0,1.3.7,1.6,1.6,0,0,0,1.5-.9v-3.5a1.6,1.6,0,0,0-2.8-.2A3.1,3.1,0,0,0,487.9,562.1Zm10.3,4a3.6,3.6,0,0,1-2.7-1,4.3,4.3,0,0,1-1-2.8V562a4.6,4.6,0,0,1,.5-2,3.6,3.6,0,0,1,1.2-1.5,4.1,4.1,0,0,1,1.8-.5,3,3,0,0,1,2.5,1,4.4,4.4,0,0,1,.9,2.9v.7h-5.1a1.8,1.8,0,0,0,.6,1.5,2,2,0,0,0,1.4.6,2.2,2.2,0,0,0,2-1l.9.9a2.5,2.5,0,0,1-1.2,1.1A3.4,3.4,0,0,1,498.2,566.1Zm-.2-6.7a1.6,1.6,0,0,0-1.1.5,3,3,0,0,0-.6,1.4h3.3a2.2,2.2,0,0,0-.4-1.3A1.7,1.7,0,0,0,498,559.4Zm8.7,5.1a1.5,1.5,0,0,1-1,.3,2.1,2.1,0,0,1-1.2-.3,1.8,1.8,0,0,1-.4-1h-1.7a2,2,0,0,0,.4,1.3,4,4,0,0,0,1.2,1,4.3,4.3,0,0,0,1.7.3,4.1,4.1,0,0,0,2.3-.6,2.3,2.3,0,0,0,.8-1.8,1.7,1.7,0,0,0-.3-1,2,2,0,0,0-.8-.8l-1.6-.5a4.2,4.2,0,0,1-1.4-.5.7.7,0,0,1-.4-.6,1,1,0,0,1,.4-.7,1.4,1.4,0,0,1,.9-.3,1.3,1.3,0,0,1,1,.3,1.2,1.2,0,0,1,.4.9h1.8a2.3,2.3,0,0,0-.9-1.8,3.3,3.3,0,0,0-2.3-.7,3,3,0,0,0-2.1.7,2,2,0,0,0-.9,1.7,2,2,0,0,0,1.3,1.8,5.3,5.3,0,0,0,1.5.5l1.3.4a.8.8,0,0,1,.4.7A.7.7,0,0,1,506.7,564.5Z" transform="translate(0 0)" fill="#999"/><ellipse cx="462.1" cy="497.4" rx="29.3" ry="29.4" fill="gray" fill-opacity="0.25" opacity="0.67"/><path d="M452.4,504.9l-5-5a3.4,3.4,0,0,1-1-2.3,3.7,3.7,0,0,1,.4-1.4l4.6-9.7Z" transform="translate(0 0)" fill="#01579b"/><path d="M469.6,487.5l-5-5a3.5,3.5,0,0,0-2.2-1,3.1,3.1,0,0,0-1.7.4l-9.3,4.6Z" transform="translate(0 0)" fill="#40c4ff"/><path d="M458.4,510.9h12.1v-5.2l-9-2.9-8.3,2.9Z" transform="translate(0 0)" fill="#40c4ff"/><path d="M451.4,502.2c0,1.6.2,2,1,2.7l.8.8h17.3L462,496l-10.6-9.5Z" transform="translate(0 0)" fill="#29b6f6"/><path d="M466.9,486.5H451.4l19.1,19.2h5.3v-12l-6.2-6.2A3.3,3.3,0,0,0,466.9,486.5Z" transform="translate(0 0)" fill="#01579b"/><path d="M583.6,561.5h-4.2V566h-1.8V555.4h6.7v1.5h-4.9V560h4.2Zm2,4.5h1.8V554.9h-1.8Zm8.5,0h1.6v-7.8H594v5.6a1.8,1.8,0,0,1-1.8.9q-1.2,0-1.2-1.5v-5h-1.7v5a3.6,3.6,0,0,0,.6,2.2,2.5,2.5,0,0,0,1.9.7,2.7,2.7,0,0,0,2.2-.9Zm3.9-9.8v2h-1.3v1.3H598v4.4c0,1.5.6,2.2,2,2.2h1.1v-1.4h-.6a.8.8,0,0,1-.6-.2,1.4,1.4,0,0,1-.2-.7v-4.3h1.4v-1.3h-1.4v-2Zm4.9,0v2h-1.3v1.3h1.3v4.4c0,1.5.6,2.2,2,2.2H606v-1.4h-.6a.8.8,0,0,1-.6-.2,1.4,1.4,0,0,1-.2-.7v-4.3H606v-1.3h-1.4v-2Zm9.6,9.5a2.4,2.4,0,0,0,1.3-1.1l-1-.9a2.2,2.2,0,0,1-1.9,1,2,2,0,0,1-1.5-.6,2.6,2.6,0,0,1-.6-1.5h5.1v-.7a4.4,4.4,0,0,0-.9-2.9,3,3,0,0,0-2.4-1,3.5,3.5,0,0,0-1.8.5,3.2,3.2,0,0,0-1.3,1.5,4.6,4.6,0,0,0-.5,2v.3a3.9,3.9,0,0,0,1.1,2.8,3.6,3.6,0,0,0,2.7,1A3.3,3.3,0,0,0,612.5,565.7Zm-.8-5.8a2.2,2.2,0,0,1,.5,1.3h-3.4a3,3,0,0,1,.6-1.4,1.7,1.7,0,0,1,1.2-.5A1.6,1.6,0,0,1,611.7,559.9Zm7.7-1.8h-.7a1.9,1.9,0,0,0-1.7,1v-.8h-1.6V566H617v-5.4a1.6,1.6,0,0,1,1.6-.9h.7Z" transform="translate(0 0)" fill="#999"/><ellipse cx="598.3" cy="497.4" rx="29.3" ry="29.4" fill="gray" fill-opacity="0.25" opacity="0.67"/><path d="M599.5,510.1l-7.5-7.4,4.2-4.3,11.7,11.7Z" transform="translate(0 0)" fill="#02539a" fill-rule="evenodd"/><path d="M591.9,502.7l7.5-7.5h8.3l-11.5,11.6-4.3-4.1Z" transform="translate(0 0)" fill="#45d1fd" fill-opacity="0.85" fill-rule="evenodd"/><path d="M585.5,496.2l4.2,4.2,18-18.1h-8.4l-13.8,13.9Z" transform="translate(0 0)" fill="#45d1fd" fill-rule="evenodd"/><ellipse cx="736.1" cy="497.4" rx="29.3" ry="29.4" fill="gray" fill-opacity="0.25" opacity="0.67"/><path d="M837.8,563.5h-4l-.9,2.5H831l4-10.6h1.6l4,10.6h-1.9Zm-3.5-1.5h3l-1.5-4.3Zm7,0a5,5,0,0,1,.8-2.9,2.8,2.8,0,0,1,2.3-1.1,2.5,2.5,0,0,1,2,.9v-4h1.7V566h-1.6v-.8a2.9,2.9,0,0,1-2.1.9,2.8,2.8,0,0,1-2.3-1.1A5.1,5.1,0,0,1,841.3,562Zm1.7.1a3.3,3.3,0,0,0,.5,1.9,1.4,1.4,0,0,0,1.3.7,1.7,1.7,0,0,0,1.6-1v-3.3a1.6,1.6,0,0,0-1.6-1,1.7,1.7,0,0,0-1.3.7A3.7,3.7,0,0,0,843,562.1Zm6.6-.1a4.4,4.4,0,0,1,.9-2.9,2.7,2.7,0,0,1,2.2-1.1,2.5,2.5,0,0,1,2,.9v-4h1.8V566h-1.6v-.8a2.6,2.6,0,0,1-2.1.9,2.7,2.7,0,0,1-2.2-1.1A4.5,4.5,0,0,1,849.6,562Zm1.8.1a3.4,3.4,0,0,0,.4,1.9,1.5,1.5,0,0,0,1.3.7,1.5,1.5,0,0,0,1.6-1v-3.3a1.5,1.5,0,0,0-1.5-1,1.7,1.7,0,0,0-1.4.7A3.7,3.7,0,0,0,851.4,562.1Zm14.6,2.4a1.8,1.8,0,0,1-1.1.3,2,2,0,0,1-1.1-.3,1.4,1.4,0,0,1-.5-1h-1.7a2.8,2.8,0,0,0,.4,1.3,4,4,0,0,0,1.2,1,4.7,4.7,0,0,0,1.7.3,3.9,3.9,0,0,0,2.3-.6,2.1,2.1,0,0,0,.9-1.8,1.7,1.7,0,0,0-.3-1,2.4,2.4,0,0,0-.9-.8,5,5,0,0,0-1.6-.5,4.2,4.2,0,0,1-1.4-.5.6.6,0,0,1-.3-.6.8.8,0,0,1,.4-.7,1.2,1.2,0,0,1,.9-.3,1.7,1.7,0,0,1,1,.3,1.8,1.8,0,0,1,.4.9H868a2.3,2.3,0,0,0-.9-1.8,3.1,3.1,0,0,0-2.2-.7,3.2,3.2,0,0,0-2.2.7,2.1,2.1,0,0,0-.8,1.7,1.9,1.9,0,0,0,1.3,1.8,5.3,5.3,0,0,0,1.5.5l1.3.4a.9.9,0,0,1,.3.7A.8.8,0,0,1,866,564.5Zm5.3-9.6h-1.7V566h1.7v-5.6a1.7,1.7,0,0,1,1.6-1,1.5,1.5,0,0,1,1,.4,1.2,1.2,0,0,1,.4,1.1V566H876v-5.1c0-2-.9-2.9-2.5-2.9a2.7,2.7,0,0,0-2.2,1Zm6.2,7.1a4.6,4.6,0,0,1,.4-2.1,3.5,3.5,0,0,1,1.3-1.4,3.8,3.8,0,0,1,1.9-.5,3.2,3.2,0,0,1,2.5,1,3.7,3.7,0,0,1,1.1,2.7v.4a4.6,4.6,0,0,1-.4,2.1,2.9,2.9,0,0,1-1.3,1.4,3,3,0,0,1-1.9.5,3.3,3.3,0,0,1-2.6-1.1,3.9,3.9,0,0,1-1-2.9Zm1.7.1a3.3,3.3,0,0,0,.5,1.9,1.8,1.8,0,0,0,2.8,0,3.4,3.4,0,0,0,.5-2,3.6,3.6,0,0,0-.5-1.9,1.7,1.7,0,0,0-2.8,0A3.4,3.4,0,0,0,879.2,562.1Zm11.1-4h-.6a1.9,1.9,0,0,0-1.8,1v-.8h-1.7V566h1.7v-5.4a1.8,1.8,0,0,1,1.7-.9h.7Zm1.9-1.9v2h-1.3v1.3h1.3v4.4c0,1.5.7,2.2,2,2.2h1.2v-1.4h-.6l-.7-.2a1.4,1.4,0,0,1-.2-.7v-4.3h1.4v-1.3h-1.4v-2Zm6.3,7.9a3.4,3.4,0,0,1-.4-1.9v-.3a2.7,2.7,0,0,1,.5-1.9,1.5,1.5,0,0,1,1.3-.6,1.4,1.4,0,0,1,1.5,1.5h1.7a3.2,3.2,0,0,0-1-2.1,3.1,3.1,0,0,0-2.2-.8,3.3,3.3,0,0,0-2.6,1.1,4.1,4.1,0,0,0-1,2.8v.2a4.7,4.7,0,0,0,1,3,3.3,3.3,0,0,0,2.6,1,3.2,3.2,0,0,0,1.6-.4,2.1,2.1,0,0,0,1.1-1,2.9,2.9,0,0,0,.5-1.3h-1.7a1.3,1.3,0,0,1-.4.9,1.5,1.5,0,0,1-1.1.4A1.8,1.8,0,0,1,898.5,564.1Zm10.7,1.9h1.6v-7.8h-1.7v5.6a1.8,1.8,0,0,1-1.8.9q-1.2,0-1.2-1.5v-5h-1.7v5a3.6,3.6,0,0,0,.6,2.2,2.4,2.4,0,0,0,1.9.7,2.7,2.7,0,0,0,2.2-.9Zm3.8-9.8v2h-1.2v1.3H913v4.4c0,1.5.7,2.2,2.1,2.2h1.1v-1.4h-.6a.7.7,0,0,1-.8-.9v-4.3h1.4v-1.3h-1.4v-2Z" transform="translate(0 0)" fill="#999"/><ellipse cx="873.9" cy="497.4" rx="29.3" ry="29.4" fill="gray" fill-opacity="0.25" opacity="0.67"/><path d="M873.9,491.5v11.9m5.9-6H867.9" transform="translate(0 0)" fill="none" stroke="#999" stroke-linecap="square" stroke-miterlimit="1.5" stroke-width="1.95"/></svg>