<svg xmlns="http://www.w3.org/2000/svg" xmlns:xlink="http://www.w3.org/1999/xlink" viewBox="0 0 1601.8 1000"><defs><linearGradient id="a" x1="1.52" y1="500" x2="1600.24" y2="500" gradientUnits="userSpaceOnUse"><stop offset="0" stop-color="#0f0f0f"/><stop offset="1"/></linearGradient><linearGradient id="b" x1="800.88" y1="50.29" x2="800.88" y2="68.19" gradientUnits="userSpaceOnUse"><stop offset="0" stop-color="#0d0d0d"/><stop offset="1" stop-color="#1c1c1c"/></linearGradient><radialGradient id="c" cx="800.88" cy="64.57" r="7.25" gradientTransform="translate(-9.9 -6.2) scale(1.01 1.01)" gradientUnits="userSpaceOnUse"><stop offset="0" stop-color="#212121"/><stop offset="0.28" stop-color="#242424"/><stop offset="0.46" stop-color="#2c2c2c"/><stop offset="0.6" stop-color="#3b3b3b"/><stop offset="0.73" stop-color="#4f4f4f"/><stop offset="0.8" stop-color="#5c5c5c"/></radialGradient><radialGradient id="d" cx="121.62" cy="865.25" r="1374.89" gradientTransform="translate(-9.9 -6.2) scale(1.01 1.01)" gradientUnits="userSpaceOnUse"><stop offset="0" stop-color="#d2e8f6"/><stop offset="0.43" stop-color="#2775c0"/><stop offset="0.77" stop-color="#02398f"/><stop offset="1" stop-color="#031f74"/></radialGradient><linearGradient id="e" x1="1301.07" y1="120.14" x2="1280.64" y2="140.61" gradientTransform="matrix(1, 0, 0, -1, 0, 998.23)" gradientUnits="userSpaceOnUse"><stop offset="0" stop-color="#0d58bf"/><stop offset="1" stop-color="#0a3070"/></linearGradient><linearGradient id="f" x1="1280.11" y1="128.67" x2="1302.69" y2="124.54" gradientTransform="matrix(1, 0, 0, -1, 0, 998.23)" gradientUnits="userSpaceOnUse"><stop offset="0" stop-color="#007fc0"/><stop offset="1" stop-color="#00e6ff"/></linearGradient><linearGradient id="g" x1="1293.22" y1="134.28" x2="1302.91" y2="125.11" gradientTransform="matrix(1, 0, 0, -1, 0, 998.23)" gradientUnits="userSpaceOnUse"><stop offset="0" stop-color="#0094f2"/><stop offset="1" stop-color="#00c8ff"/></linearGradient><linearGradient id="h" x1="1278.31" y1="132.77" x2="1290.45" y2="126.41" gradientTransform="matrix(1, 0, 0, -1, 0, 998.23)" gradientUnits="userSpaceOnUse"><stop offset="0" stop-color="#004fa7"/><stop offset="1" stop-color="#006dd9"/></linearGradient><clipPath id="i"><rect x="866" y="484.8" width="26.5" height="31" rx="1.5" fill="none"/></clipPath><linearGradient id="j" x1="894.32" y1="495.99" x2="884.04" y2="506.94" gradientTransform="matrix(1, 0, 0, -1, 0, 998.23)" gradientUnits="userSpaceOnUse"><stop offset="0" stop-color="#c024f9"/><stop offset="1" stop-color="#920fc7"/></linearGradient><linearGradient id="k" x1="884" y1="514.83" x2="894.56" y2="503.58" gradientTransform="matrix(1, 0, 0, -1, 0, 998.23)" gradientUnits="userSpaceOnUse"><stop offset="0" stop-color="#ad3ad1"/><stop offset="0.97" stop-color="#d64dfc"/></linearGradient><linearGradient id="l" x1="894.32" y1="488.14" x2="884.04" y2="499.1" gradientTransform="matrix(1, 0, 0, -1, 0, 998.23)" gradientUnits="userSpaceOnUse"><stop offset="0" stop-color="#9a00e9"/><stop offset="1" stop-color="#7500bc"/></linearGradient><linearGradient id="m" x1="894.32" y1="480.3" x2="884.04" y2="491.25" gradientTransform="matrix(1, 0, 0, -1, 0, 998.23)" gradientUnits="userSpaceOnUse"><stop offset="0.08" stop-color="#7419bd"/><stop offset="1" stop-color="#62129f"/></linearGradient><radialGradient id="n" cx="884.01" cy="486.08" r="49.29" gradientTransform="matrix(1.01, 0, 0, -1.01, -9.92, 1004.4)" gradientUnits="userSpaceOnUse"><stop offset="0" stop-color="#f96dff"/><stop offset="1" stop-color="#9130b2"/></radialGradient><radialGradient id="p" cx="871.67" cy="491.92" r="11.05" gradientTransform="matrix(1.01, 0, 0, -1.01, -9.92, 1004.4)" gradientUnits="userSpaceOnUse"><stop offset="0" stop-color="#7600b4"/><stop offset="1" stop-color="#7600b4" stop-opacity="0"/></radialGradient><linearGradient id="q" x1="857.02" y1="500.25" x2="874.95" y2="500.25" gradientTransform="matrix(1, 0, 0, 1, 0, 0)" xlink:href="#m"/><linearGradient id="r" x1="864.38" y1="498.07" x2="869.77" y2="498.07" gradientTransform="matrix(1, 0, 0, -1, 0, 998.23)" gradientUnits="userSpaceOnUse"><stop offset="0" stop-color="#f0f0f0"/><stop offset="1" stop-color="#fff"/></linearGradient><linearGradient id="s" x1="724.73" y1="500.31" x2="720.15" y2="513.83" gradientTransform="matrix(1, 0, 0, -1, 0, 998.23)" gradientUnits="userSpaceOnUse"><stop offset="0" stop-color="#0359de"/><stop offset="1" stop-color="#0045a7"/></linearGradient><linearGradient id="t" x1="746.97" y1="480.23" x2="725.08" y2="503.28" gradientTransform="matrix(1, 0, 0, -1, 0, 998.23)" gradientUnits="userSpaceOnUse"><stop offset="0" stop-color="#006af3"/><stop offset="1" stop-color="#025fad"/></linearGradient><linearGradient id="u" x1="716.79" y1="513.3" x2="741.69" y2="483.88" gradientTransform="matrix(1, 0, 0, -1, 0, 998.23)" gradientUnits="userSpaceOnUse"><stop offset="0" stop-color="#0071c2"/><stop offset="1" stop-color="#00b9ff"/></linearGradient><linearGradient id="v" x1="726.83" y1="498.44" x2="734.38" y2="498.44" xlink:href="#r"/></defs><title>surface</title><rect x="1.5" y="1.5" width="1598.7" height="996.96" rx="40" fill="url(#a)"/><path d="M1560.3,3a38.5,38.5,0,0,1,38.4,38.5v917a38.5,38.5,0,0,1-38.4,38.5H41.5A38.6,38.6,0,0,1,3,958.5V41.5A38.6,38.6,0,0,1,41.5,3H1560.3m0-3H41.5A41.5,41.5,0,0,0,0,41.5v917A41.5,41.5,0,0,0,41.5,1000H1560.3a41.5,41.5,0,0,0,41.5-41.5V41.5A41.5,41.5,0,0,0,1560.3,0Z" fill="#404040"/><path d="M782.8,925.9l14.8-2v14.3H782.8Zm14.8,13.9v14.3l-14.8-2V939.7Zm1.8-16.1,19.6-2.9V938l-19.6.2ZM819,940v17.1l-19.6-2.8V939.9Z" fill="#fff" opacity="0.8"/><path d="M810.9,59.2a10,10,0,1,1-10-10A10,10,0,0,1,810.9,59.2Z" fill="url(#b)"/><path d="M804.9,59.2a4,4,0,1,1-4-4A4,4,0,0,1,804.9,59.2Z" fill="url(#c)"/><path d="M804.9,59.2a4,4,0,1,1-4-4A4,4,0,0,1,804.9,59.2Z" fill="none" stroke="#131318" stroke-miterlimit="10" stroke-width="0.25"/><circle cx="829.3" cy="59.2" r="3" fill="#1a1a1a"/><rect x="101.1" y="101.2" width="1391.3" height="787.64" fill="url(#d)"/><polygon points="100.9 888.8 1492.8 888.8 1492.8 845.3 100.9 845.3 100.9 888.8 100.9 888.8" fill="#d6e3ec"/><path d="M140,867.7v10.9l-12.5-1.7v-9.3Zm-12.5-10.5,12.5-1.8v11H127.5v-9.3Zm-1.2,10.4v9.1l-9.5-1.3v-7.9Zm-9.5-8.9,9.5-1.3v9.1h-9.5v-7.9Z" fill="#606060"/><polygon points="161 888.8 487.3 888.8 487.3 845.3 161 845.3 161 888.8 161 888.8" fill="#fff"/><path d="M187.7,858.3a5.7,5.7,0,1,1-5.6,5.6,5.7,5.7,0,0,1,5.6-5.6Zm-10.6,17.4,6.8-7.6" fill="none" stroke="#606060" stroke-linecap="round" stroke-linejoin="round" stroke-width="1.52"/><path d="M207.3,871.8v-1.4a1,1,0,0,0,.5.4l.7.3h1.4a2.4,2.4,0,0,0,1.6-.4,1.3,1.3,0,0,0,.6-1.1,1.4,1.4,0,0,0-.2-.7l-.5-.6-.7-.5-1-.4-.9-.6a1.6,1.6,0,0,1-.8-.6,1.8,1.8,0,0,1-.5-.7,1.6,1.6,0,0,1-.2-1,2.7,2.7,0,0,1,.3-1.2,2,2,0,0,1,.8-.8,2.8,2.8,0,0,1,1.1-.5h1.2a6.1,6.1,0,0,1,2.2.3v1.3a4.1,4.1,0,0,0-2.3-.6h-.8c-.2.1-.4.1-.6.3a1,1,0,0,0-.5.4,1.4,1.4,0,0,0-.2.7,1.5,1.5,0,0,0,.1.7c.1.2.3.3.5.5l.6.4,1,.5,1,.6.8.6.6.8a3,3,0,0,1,.2,1,2.1,2.1,0,0,1-.3,1.2,2.3,2.3,0,0,1-.8.9l-1.1.4-1.4.2h-1.2l-.7-.2-.5-.2Zm13.5-2.9v-.6a3.9,3.9,0,0,0-.7-2.5,2.7,2.7,0,0,0-2.2-.9,3,3,0,0,0-2.3,1.1,4.1,4.1,0,0,0-1,2.7,4,4,0,0,0,.9,2.7,3.3,3.3,0,0,0,2.4,1,4.9,4.9,0,0,0,2.5-.7v-1.1a4,4,0,0,1-2.3.8,2.1,2.1,0,0,1-1.6-.6,2.9,2.9,0,0,1-.7-1.9Zm-1.1-.9h-3.9a3.4,3.4,0,0,1,.7-1.6,2.4,2.4,0,0,1,1.4-.5,1.7,1.7,0,0,1,1.3.5,2.5,2.5,0,0,1,.5,1.6Zm8,4.2v-4.6c0-1.8-.9-2.7-2.5-2.7a4.1,4.1,0,0,0-2.5.7v1.1a4.1,4.1,0,0,1,2.4-.8c.9,0,1.4.6,1.4,1.8l-2.1.3c-1.6.2-2.4,1-2.4,2.3a2,2,0,0,0,.6,1.5,2.4,2.4,0,0,0,1.7.6,2.5,2.5,0,0,0,2.2-1.3h0v1.1Zm-1.2-3.6v.7a2.5,2.5,0,0,1-.5,1.5,2,2,0,0,1-1.4.6,1.5,1.5,0,0,1-1-.3,1,1,0,0,1-.4-.9,1.1,1.1,0,0,1,.4-1,3.4,3.4,0,0,1,1.2-.4l1.7-.2Zm7-2.4v-1.1h-.7a1.7,1.7,0,0,0-1.1.4,2.1,2.1,0,0,0-.7,1.1h-.1v-1.4h-1.1v7.1h1.1v-3.6a3.3,3.3,0,0,1,.5-1.9,1.6,1.6,0,0,1,1.3-.7l.8.2Zm6.1,5.7v-1.1a2.7,2.7,0,0,1-1.7.6,2.1,2.1,0,0,1-1.8-.7,3.2,3.2,0,0,1,0-4,2.2,2.2,0,0,1,1.8-.8,3.4,3.4,0,0,1,1.7.5v-1.1a2.9,2.9,0,0,0-1.6-.4,3.4,3.4,0,0,0-2.7,1.1,4.3,4.3,0,0,0-.1,5.4,3.4,3.4,0,0,0,2.5,1,3.8,3.8,0,0,0,1.9-.5Zm7.6.3v-4.4c0-1.9-.8-2.9-2.4-2.9a2.5,2.5,0,0,0-2.3,1.4h0v-4.6h-1.2v10.5h1.2v-4a2.9,2.9,0,0,1,.5-1.7,2,2,0,0,1,1.4-.6c1.1,0,1.7.7,1.7,2.2v4.1Zm18-10H264l-2.1,7.7a3.8,3.8,0,0,0-.1,1h-.1c0-.4-.1-.7-.1-1l-2.2-7.7h-1.1l-2.2,7.7a4.4,4.4,0,0,0-.2,1h0a3,3,0,0,0-.2-1l-2.1-7.7h-1.3l2.9,10h1.4l2-7.3a3.6,3.6,0,0,0,.2-1h.1a3.1,3.1,0,0,0,.1,1l2.1,7.3h1.3l2.8-10Zm2,1.1.5-.2a1.4,1.4,0,0,0,.2-.6.8.8,0,0,0-.2-.5l-.5-.2-.6.2a.8.8,0,0,0-.2.5,1.4,1.4,0,0,0,.2.6l.6.2Zm.5,8.9v-7.1h-1.1v7.1Zm8.2,0v-4.4a3.3,3.3,0,0,0-.6-2.1,2.2,2.2,0,0,0-1.8-.8,2.5,2.5,0,0,0-2.3,1.4h0v-1.2H270v7.1h1.2v-4.1a2.2,2.2,0,0,1,.5-1.6,2,2,0,0,1,1.4-.6c1.1,0,1.7.7,1.7,2.2v4.1Zm8.2,0V861.7H283v4.4h0a2.4,2.4,0,0,0-2.2-1.2,3,3,0,0,0-2.3,1.1,4.1,4.1,0,0,0-.9,2.8,4,4,0,0,0,.8,2.6,2.7,2.7,0,0,0,2.1,1A2.7,2.7,0,0,0,283,871h0v1.2ZM283,869a2.4,2.4,0,0,1-.6,1.7,1.8,1.8,0,0,1-1.5.7,1.9,1.9,0,0,1-1.6-.7,3,3,0,0,1-.5-2,3.3,3.3,0,0,1,.6-2.1,1.8,1.8,0,0,1,1.6-.7,1.7,1.7,0,0,1,1.4.6,2,2,0,0,1,.6,1.4V869Zm6.4,3.4a3.3,3.3,0,0,0,2.6-1.1,3.9,3.9,0,0,0,1-2.7,3.8,3.8,0,0,0-.9-2.7,3,3,0,0,0-2.5-1,3.6,3.6,0,0,0-2.7,1,4.1,4.1,0,0,0-.9,2.8,4,4,0,0,0,.9,2.7,3.6,3.6,0,0,0,2.5,1Zm.1-6.5a2.1,2.1,0,0,1,1.7.7,3.3,3.3,0,0,1,.6,2.1,3.2,3.2,0,0,1-.6,2,2.4,2.4,0,0,1-3.4,0,2.7,2.7,0,0,1-.7-2,2.8,2.8,0,0,1,.7-2.1,2.1,2.1,0,0,1,1.7-.7Zm14.3-.8h-1.2l-1.4,5.3a2,2,0,0,0-.1.7H301a1.5,1.5,0,0,0-.1-.7l-1.5-5.3h-1l-1.7,5.3c0,.2-.1.5-.1.7h0c0-.3-.1-.5-.1-.7l-1.5-5.3h-1.2l2.2,7.1h1.1l1.6-5.1a2,2,0,0,0,.1-.7h.1a1.5,1.5,0,0,0,.1.7l1.4,5.1h1.2l2.2-7.1Zm.8,6.8a4.1,4.1,0,0,0,1.9.5l1.1-.2a3.2,3.2,0,0,0,.9-.3,1.3,1.3,0,0,0,.6-.7,1.6,1.6,0,0,0,.3-.9,2.4,2.4,0,0,0-.2-.8l-.4-.5-.6-.4-.9-.4-.6-.3-.5-.2-.3-.4c0-.1-.1-.2-.1-.4s.1-.3.1-.4l.3-.4.5-.2h.5a2.7,2.7,0,0,1,1.8.5v-1.2a4.1,4.1,0,0,0-1.6-.3h-1l-.9.4a1.3,1.3,0,0,0-.6.7c-.2.2-.2.5-.2.9a1.7,1.7,0,0,0,.1.7l.3.5.6.5.9.3.6.3.5.3.4.3a.9.9,0,0,1,.1.5c0,.7-.5,1-1.5,1a3.3,3.3,0,0,1-2.1-.7v1.2Zm15.5.3v-4.6c0-1.8-.8-2.7-2.5-2.7a4,4,0,0,0-2.4.7v1.1a3.8,3.8,0,0,1,2.3-.8q1.5,0,1.5,1.8l-2.2.3c-1.5.2-2.3,1-2.3,2.3a2,2,0,0,0,.6,1.5,2.1,2.1,0,0,0,1.6.6,2.5,2.5,0,0,0,2.2-1.3h.1v1.1Zm-1.1-3.6v.7a2,2,0,0,1-.6,1.5,1.8,1.8,0,0,1-1.4.6,1.7,1.7,0,0,1-1-.3,1.2,1.2,0,0,1-.3-.9,1.1,1.1,0,0,1,.4-1,2.3,2.3,0,0,1,1.1-.4l1.8-.2Zm9.2,3.6v-4.4a2.8,2.8,0,0,0-.7-2.1,2.1,2.1,0,0,0-1.7-.8,2.7,2.7,0,0,0-2.4,1.4h0v-1.2h-1.1v7.1h1.1v-4.1a2.8,2.8,0,0,1,.5-1.6,2,2,0,0,1,1.5-.6c1.1,0,1.6.7,1.6,2.2v4.1Zm8.2,0V861.7h-1.2v4.4h0a2.1,2.1,0,0,0-2.1-1.2,3,3,0,0,0-2.4,1.1,4.1,4.1,0,0,0-.9,2.8,4,4,0,0,0,.8,2.6,3,3,0,0,0,2.2,1,2.6,2.6,0,0,0,2.4-1.4h0v1.2Zm-1.2-3.2a2.4,2.4,0,0,1-.6,1.7,1.8,1.8,0,0,1-1.5.7,1.7,1.7,0,0,1-1.5-.7,3,3,0,0,1-.6-2,3.3,3.3,0,0,1,.6-2.1,1.9,1.9,0,0,1,1.6-.7,2,2,0,0,1,1.5.6,2.4,2.4,0,0,1,.5,1.4V869Zm10.7,3.1v-.9l-.8.2a1.1,1.1,0,0,1-.8-.3,2.5,2.5,0,0,1-.2-1v-4h1.8v-1h-1.8V863l-1.1.3v1.8h-1.3v1H343v4.2c0,1.4.6,2,1.8,2a1.8,1.8,0,0,0,1.1-.2Zm7.4.1v-4.4c0-1.9-.8-2.9-2.4-2.9a2.5,2.5,0,0,0-2.3,1.4h-.1v-4.6h-1.1v10.5h1.1v-4a2.4,2.4,0,0,1,.6-1.7,2,2,0,0,1,1.4-.6c1.1,0,1.7.7,1.7,2.2v4.1Zm7.9-3.3v-.6a3.9,3.9,0,0,0-.8-2.5,2.6,2.6,0,0,0-2.1-.9,3,3,0,0,0-2.4,1.1,4,4,0,0,0-.9,2.7,4.6,4.6,0,0,0,.8,2.7,3.3,3.3,0,0,0,2.4,1,4.6,4.6,0,0,0,2.5-.7v-1.1a3.7,3.7,0,0,1-2.2.8,2.4,2.4,0,0,1-1.7-.6,2.9,2.9,0,0,1-.6-1.9ZM360,868h-3.8a2.6,2.6,0,0,1,.7-1.6,1.9,1.9,0,0,1,1.3-.5,1.7,1.7,0,0,1,1.3.5,2.5,2.5,0,0,1,.5,1.6Zm15.8-2.9h-1.2l-1.4,5.3a2,2,0,0,0-.1.7H373a1.5,1.5,0,0,0-.1-.7l-1.5-5.3h-1l-1.6,5.3a1.9,1.9,0,0,0-.2.7h0c0-.3-.1-.5-.1-.7l-1.5-5.3h-1.2l2.2,7.1h1.1l1.6-5.1a2,2,0,0,0,.1-.7h.1a1.5,1.5,0,0,0,.1.7l1.4,5.1h1.2l2.2-7.1Zm7,3.8v-.6a3.9,3.9,0,0,0-.8-2.5,2.6,2.6,0,0,0-2.1-.9,3.2,3.2,0,0,0-2.4,1.1,4.5,4.5,0,0,0,0,5.4,2.9,2.9,0,0,0,2.3,1,4.4,4.4,0,0,0,2.5-.7v-1.1a3.7,3.7,0,0,1-2.2.8,2.4,2.4,0,0,1-1.7-.6,2.9,2.9,0,0,1-.6-1.9Zm-1.2-.9h-3.8a2.6,2.6,0,0,1,.7-1.6,2.2,2.2,0,0,1,1.4-.5,2.1,2.1,0,0,1,1.3.5,2.5,2.5,0,0,1,.4,1.6Zm4.1,3.2a2.4,2.4,0,0,0,2.1,1.2,3,3,0,0,0,2.4-1.1,4.4,4.4,0,0,0,.9-2.9,3.9,3.9,0,0,0-.8-2.5,2.4,2.4,0,0,0-2.1-1,2.9,2.9,0,0,0-2.5,1.4h0v-4.6h-1.2v10.5h1.2v-1Zm0-2.9a2.4,2.4,0,0,1,.6-1.7,1.9,1.9,0,0,1,1.6-.7,2,2,0,0,1,1.5.6,4.1,4.1,0,0,1-.1,4.1,1.9,1.9,0,0,1-1.6.8,2,2,0,0,1-1.5-.6,2.5,2.5,0,0,1-.5-1.5v-1Z" fill="#606060"/><circle cx="512.9" cy="867" r="7.9" fill="none" stroke="#666" stroke-miterlimit="10" stroke-width="2.02"/><path d="M1387.7,860.2a13.8,13.8,0,0,1-.2,2.2,4.8,4.8,0,0,1-.7,1.6,2.4,2.4,0,0,1-1,1,2.6,2.6,0,0,1-1.5.4,2.8,2.8,0,0,1-1.3-.3,4.7,4.7,0,0,1-1-1,3.4,3.4,0,0,1-.6-1.6,12.5,12.5,0,0,1-.2-2.1,16.4,16.4,0,0,1,.2-2.3,5.9,5.9,0,0,1,.7-1.6,2.7,2.7,0,0,1,1-1.1,3.2,3.2,0,0,1,1.4-.3c2.1,0,3.2,1.7,3.2,5.1Zm-1.2.1c0-2.8-.7-4.2-2-4.2s-2.1,1.4-2.1,4.3.7,4,2,4,2.1-1.4,2.1-4.1Zm8.7-.7a16.9,16.9,0,0,1-.2,2.5,7.5,7.5,0,0,1-.8,1.8,3.3,3.3,0,0,1-1.3,1.1,3.3,3.3,0,0,1-1.7.4,3.1,3.1,0,0,1-1.7-.4v-1a3.3,3.3,0,0,0,1.7.4,2.1,2.1,0,0,0,1.2-.3,1.4,1.4,0,0,0,.9-.8,2.6,2.6,0,0,0,.6-1.3,9,9,0,0,0,.2-1.8h0a2.4,2.4,0,0,1-2.3,1.3l-1.1-.2-1-.6-.6-1a5.1,5.1,0,0,1-.2-1.3,2.8,2.8,0,0,1,.3-1.3,2.4,2.4,0,0,1,.6-1.1l1-.7,1.3-.2a3.2,3.2,0,0,1,1.4.3,2.6,2.6,0,0,1,.9.9,3,3,0,0,1,.6,1.4,5.8,5.8,0,0,1,.2,1.9Zm-1.2-1a3.1,3.1,0,0,0-.1-1,2.2,2.2,0,0,0-.5-.8c-.1-.3-.3-.4-.6-.6h-1.5a1.8,1.8,0,0,0-.7.5,4.3,4.3,0,0,0-.4.7,2.2,2.2,0,0,0-.1.9,2.8,2.8,0,0,0,.1.9,4.3,4.3,0,0,0,.4.7,1.8,1.8,0,0,0,.7.5h1.5l.7-.4.4-.6a2.2,2.2,0,0,0,.1-.8Zm3.5.9-.6-.2a1.4,1.4,0,0,1-.2-.6.8.8,0,0,1,.2-.5.7.7,0,0,1,.6-.2c.2,0,.4,0,.5.2a.5.5,0,0,1,.3.5.9.9,0,0,1-.3.6l-.5.2Zm0,5.9a.9.9,0,0,1-.6-.3.8.8,0,0,1-.2-.5,1.4,1.4,0,0,1,.2-.6l.6-.2.5.2a.9.9,0,0,1,.3.6,1.2,1.2,0,0,1-.8.8Zm7.4-10.1v6.5h1.3v1.1h-1.3v2.3h-1.1v-2.3h-4.7v-1a10.1,10.1,0,0,0,1.3-1.6,10.9,10.9,0,0,0,1.3-1.7,16.3,16.3,0,0,0,1.1-1.7,8.9,8.9,0,0,0,.9-1.6Zm-4.5,6.5h3.4V857c-.3.6-.7,1.1-1,1.6l-.9,1.3-.8,1a3.5,3.5,0,0,1-.7.9Zm11.7-3.9c0,.2-.1.5-.1.7a3,3,0,0,1-.4.8l-.5.7-.9.7-1.3,1a7.6,7.6,0,0,0-.9.9,3.6,3.6,0,0,0-.4.9,3.6,3.6,0,0,0-.2,1.1v.5h6.2v-1h-5c0-.3.1-.5.1-.7l.4-.6a4.6,4.6,0,0,1,.7-.7l1.2-.9,1-.7.7-.9a1.9,1.9,0,0,0,.4-.9,3.1,3.1,0,0,0,.1-1,4.3,4.3,0,0,0-.2-1.2,2.4,2.4,0,0,0-.6-.8l-.9-.5a2.2,2.2,0,0,0-1.1-.2l-1.5.2-1.1.7v1.3l.6-.5a1,1,0,0,1,.5-.4l.7-.3h1.3a.9.9,0,0,1,.6.3,1.3,1.3,0,0,1,.4.6,1.9,1.9,0,0,1,.2.8Zm-41.3,16.5a12.7,12.7,0,0,1-.2,2.2,6.7,6.7,0,0,1-.7,1.7,3,3,0,0,1-3.8,1,2.4,2.4,0,0,1-1-1l-.6-1.5a12.5,12.5,0,0,1-.2-2.1,14,14,0,0,1,.2-2.3,5.4,5.4,0,0,1,.7-1.7,1.9,1.9,0,0,1,1-1,2.4,2.4,0,0,1,1.5-.4c2,0,3.1,1.7,3.1,5.1Zm-1.2.1c0-2.8-.6-4.2-2-4.2s-2.1,1.4-2.1,4.3.7,4.1,2.1,4.1,2-1.4,2-4.2Zm6.8,5V869.3h-.4l-.6.4-.8.5-.8.4-.8.3V872l.6-.2.7-.3.6-.4.4-.3v8.7Zm4.2.1.6-.2a1.4,1.4,0,0,0,.2-.6.8.8,0,0,0-.2-.5.9.9,0,0,0-.6-.3,1.2,1.2,0,0,0-.8.8.9.9,0,0,0,.3.6l.5.2Zm8.6-5.2a12.7,12.7,0,0,1-.2,2.2,6.7,6.7,0,0,1-.7,1.7,2.4,2.4,0,0,1-1,1,3.4,3.4,0,0,1-2.8,0,2.2,2.2,0,0,1-.9-1,5.2,5.2,0,0,1-.7-1.5,12.5,12.5,0,0,1-.2-2.1,7.5,7.5,0,0,1,.3-2.3,3.8,3.8,0,0,1,.6-1.7,2.4,2.4,0,0,1,1-1,2.6,2.6,0,0,1,1.5-.4c2.1,0,3.1,1.7,3.1,5.1Zm-1.1.1q0-4.2-2.1-4.2c-1.4,0-2.1,1.4-2.1,4.3s.7,4.1,2.1,4.1,2.1-1.4,2.1-4.2Zm6.7,5V869.3h-.4l-.6.4-.8.5-.8.4-.8.3V872l.7-.2.6-.3a1.3,1.3,0,0,0,.6-.4l.4-.3v8.7Zm4.2.1.6-.2a1.4,1.4,0,0,0,.2-.6.8.8,0,0,0-.2-.5.9.9,0,0,0-.6-.3.5.5,0,0,0-.5.3c-.2.1-.2.3-.2.5a.7.7,0,0,0,.2.6l.5.2Zm6.9-7.5a2.2,2.2,0,0,1-.1.8,1.1,1.1,0,0,1-.3.7,1.9,1.9,0,0,1-.6.7,3.5,3.5,0,0,1-.9.7l-1.2,1a3.8,3.8,0,0,0-.9.9,3.6,3.6,0,0,0-.4.9,4.3,4.3,0,0,0-.2,1.2v.5h6.2v-1.1h-5a1.7,1.7,0,0,1,.1-.7,2.1,2.1,0,0,1,.4-.6l.7-.7,1.2-.8.9-.8c.3-.3.6-.5.7-.8a4.1,4.1,0,0,0,.5-.9c0-.3.1-.7.1-1.1a3.6,3.6,0,0,0-.2-1.1,3.5,3.5,0,0,0-.6-.9l-.9-.5-1.2-.2a3.2,3.2,0,0,0-1.4.3,2.6,2.6,0,0,0-1.1.7v1.2l.5-.5.6-.4.6-.2h1.4l.6.3.4.6a1.9,1.9,0,0,1,.1.8Zm9.4,2.3a12.7,12.7,0,0,1-.2,2.2,6.7,6.7,0,0,1-.7,1.7,2.4,2.4,0,0,1-1,1,3.4,3.4,0,0,1-2.8,0,1.8,1.8,0,0,1-.9-1,5.2,5.2,0,0,1-.7-1.5,12.5,12.5,0,0,1-.2-2.1,14,14,0,0,1,.2-2.3,5.4,5.4,0,0,1,.7-1.7,2.4,2.4,0,0,1,1-1,2.6,2.6,0,0,1,1.5-.4c2.1,0,3.1,1.7,3.1,5.1Zm-1.1.1q0-4.2-2.1-4.2c-1.4,0-2.1,1.4-2.1,4.3s.7,4.1,2.1,4.1,2.1-1.4,2.1-4.2Zm7.1-2.4c0,.3-.1.5-.1.8l-.3.7-.6.7-.9.7-1.3,1-.8.9a2,2,0,0,0-.5.9,4.5,4.5,0,0,0-.1,1.2v.5h6.1v-1.1h-5a1.9,1.9,0,0,1,.2-.7c0-.2.2-.4.3-.6l.8-.7,1.1-.8,1-.8.7-.8a3.6,3.6,0,0,0,.4-.9,3.7,3.7,0,0,0,.1-1.1,2,2,0,0,0-.2-1.1,1.5,1.5,0,0,0-.6-.9,1.9,1.9,0,0,0-.9-.5l-1.1-.2a3.3,3.3,0,0,0-1.5.3,2.3,2.3,0,0,0-1,.7v1.2l.5-.5.6-.4.6-.2h1.4l.5.3a2.1,2.1,0,0,1,.4.6,1.9,1.9,0,0,1,.2.8Zm7.3,7.4V869.3h-.4l-.6.4-.8.5-.8.4-.8.3V872l.6-.2.7-.3.6-.4.4-.3v8.7ZM1324.1,872v-1.1h-4.2v-3.5h3.6v-1h-3.6v-3.3h3.9V862h-5v10Zm9.9,0V862h-1.2v7c0,.7.1,1.2.1,1.5h0l-.4-.7-5-7.8H1326v10h1.1v-8.6h0l.3.7,5.2,7.9Zm10.1-.7v-4.5h-3.4v1.1h2.2v2.7a3.3,3.3,0,0,1-2,.5,3.1,3.1,0,0,1-2.7-1.1,3.9,3.9,0,0,1-1-2.9,3.7,3.7,0,0,1,1.1-3,3.4,3.4,0,0,1,2.7-1.2,5.5,5.5,0,0,1,2.9.8v-1.3a6.1,6.1,0,0,0-2.8-.5,5.3,5.3,0,0,0-3.7,1.4,5.6,5.6,0,0,0-1.4,3.8,4.9,4.9,0,0,0,1.3,3.7,4.6,4.6,0,0,0,3.4,1.4,6.4,6.4,0,0,0,3.4-.9Z" fill="#4d4d4d"/><polygon points="1468.9 859.7 1451.6 859.7 1451.6 873.6 1458.8 873.6 1460.6 875.6 1462.4 873.6 1468.9 873.6 1468.9 859.7 1468.9 859.7" fill="none" stroke="#606060" stroke-linecap="round" stroke-linejoin="round" stroke-width="1.01"/><line x1="1488.9" y1="887.7" x2="1488.9" y2="846.3" fill="none" stroke="gray" stroke-linecap="square" stroke-width="1.98"/><path d="M1492.3,101.7V888.4H101.2V101.7H1492.3m1-1H100.2V889.4H1493.3V100.7Z" fill="#1a1a1a"/><path d="M1290.6,874.8a7.2,7.2,0,0,0,7.2-7.2,7.3,7.3,0,0,0-7.2-7.3,7.3,7.3,0,0,0-7.3,7.3A7.3,7.3,0,0,0,1290.6,874.8Z" fill="url(#e)"/><path d="M1301.3,872.5a5.3,5.3,0,0,1-3.5,2.5c-1,.1-5.3.1-13.1-.1a5.8,5.8,0,0,1-4.6-2.3l12.4-5.4Z" fill="url(#f)"/><path d="M1292.5,867.2l2.8-1.2a4.1,4.1,0,0,1,1.9-.4,4.6,4.6,0,0,1,4.7,4.6,6,6,0,0,1-.6,2.3Z" fill="url(#g)"/><path d="M1280.1,872.6a6.8,6.8,0,0,1-1-3.5,5.7,5.7,0,0,1,5.7-5.7,5.5,5.5,0,0,1,3.3,1.1h0l4.4,2.7Z" fill="url(#h)"/><path d="M859.5,533.3a2.8,2.8,0,0,1-2.3-1,3.2,3.2,0,0,1-.9-2.4,4,4,0,0,1,.9-2.7,3.3,3.3,0,0,1,2.4-1,3.1,3.1,0,0,1,2.3,1,3.5,3.5,0,0,1,.9,2.5,3.6,3.6,0,0,1-.9,2.6,3,3,0,0,1-2.4,1Zm.1-6.3a2.4,2.4,0,0,0-1.8.7,3.5,3.5,0,0,0-.7,2.1,3.2,3.2,0,0,0,.7,2,2.1,2.1,0,0,0,1.7.8,2.5,2.5,0,0,0,1.8-.7,4,4,0,0,0,0-4.2,2.1,2.1,0,0,0-1.7-.7Zm8.5,6.2v-3a3.3,3.3,0,0,0-.4-1.5,1.7,1.7,0,0,0-1.3-.5,1.8,1.8,0,0,0-1.6.9h0v-.8H864v4.9h.8v-2.8a1.5,1.5,0,0,1,.4-1.1,1.2,1.2,0,0,1,1-.5c.7,0,1.1.6,1.1,1.6v2.8Zm5.4-2.3H870a1.7,1.7,0,0,0,.5,1.3,1.3,1.3,0,0,0,1.1.5,2,2,0,0,0,1.5-.6v.7a2.3,2.3,0,0,1-1.7.5,1.9,1.9,0,0,1-1.6-.7,2.4,2.4,0,0,1-.6-1.8,2.5,2.5,0,0,1,.7-1.9,1.9,1.9,0,0,1,1.6-.7,2,2,0,0,1,1.5.6,2.9,2.9,0,0,1,.5,1.7v.4Zm-.8-.6a1.2,1.2,0,0,0-1.2-1.5,1.8,1.8,0,0,0-1,.4,3.7,3.7,0,0,0-.5,1.1Zm7.6,2.9v-6.9h-.8v5.9h0a.9.9,0,0,0-.3-.5l-3.4-5.4h-1v6.9h.8v-5a2.2,2.2,0,0,0-.1-.9h.1a.5.5,0,0,0,.2.4l3.5,5.5Zm3.7.1a2.1,2.1,0,0,1-1.7-.7,2.5,2.5,0,0,1-.7-1.8,2.7,2.7,0,0,1,.7-1.9,2.4,2.4,0,0,1,1.8-.7,1.9,1.9,0,0,1,1.7.7,2.1,2.1,0,0,1,.7,1.8,2.9,2.9,0,0,1-.7,1.9,2.1,2.1,0,0,1-1.8.7Zm.1-4.5a1.4,1.4,0,0,0-1.2.6,2,2,0,0,0-.5,1.4,1.7,1.7,0,0,0,.5,1.3,1.4,1.4,0,0,0,1.2.6,1.3,1.3,0,0,0,1.1-.5,2.2,2.2,0,0,0,.5-1.4,2.3,2.3,0,0,0-.5-1.5,1.3,1.3,0,0,0-1.1-.5Zm5.9,4.3v-.6h-.5c-.3,0-.5,0-.6-.2a1,1,0,0,1-.2-.7V529H890v-.7h-1.3v-1.4l-.7.2v1.2h-.9v.7h.9v2.9c0,.9.4,1.4,1.2,1.4l.8-.2Zm4.9-2.2h-3.4a2.2,2.2,0,0,0,.4,1.3,1.7,1.7,0,0,0,1.2.5,2.4,2.4,0,0,0,1.5-.6v.7a2.3,2.3,0,0,1-1.7.5,1.9,1.9,0,0,1-1.6-.7,2.4,2.4,0,0,1-.6-1.8,2.9,2.9,0,0,1,.6-1.9,2.1,2.1,0,0,1,1.6-.7,1.8,1.8,0,0,1,1.5.6,2.3,2.3,0,0,1,.5,1.7v.4Zm-.8-.6a1.8,1.8,0,0,0-.3-1.1,1.3,1.3,0,0,0-.9-.4,1.5,1.5,0,0,0-.9.4,2.2,2.2,0,0,0-.5,1.1Z" fill="#fff"/><g clip-path="url(#i)"><path d="M885,492.4h7.5v7.9H885Z" fill="url(#j)"/><path d="M885,484.6h7.5v7.8H885Z" fill="url(#k)"/><path d="M885,500.3h7.5v7.8H885Z" fill="url(#l)"/><path d="M885,508.1h7.5v7.8H885Z" fill="url(#m)"/><path d="M867.5,484.8H885v31H867.5a1.5,1.5,0,0,1-1.5-1.5V486.2A1.5,1.5,0,0,1,867.5,484.8Z" fill="url(#n)"/></g><g clip-path="url(#i)"><path d="M859.1,490.9H874a1.5,1.5,0,0,1,1.5,1.5v15c0,.8-2.5,3.3-3.3,3.3h-15a1.5,1.5,0,0,1-1.5-1.5V494.3C855.7,493.5,858.3,490.9,859.1,490.9Z" fill-opacity="0.2"/></g><path d="M858.5,491.3h15a1.5,1.5,0,0,1,1.5,1.5v14.9a1.5,1.5,0,0,1-1.5,1.5h-15a1.5,1.5,0,0,1-1.5-1.5V492.8A1.5,1.5,0,0,1,858.5,491.3Z" fill="url(#p)"/><path d="M858.5,491.1h15a1.5,1.5,0,0,1,1.5,1.5v15.3a1.5,1.5,0,0,1-1.5,1.5h-15a1.5,1.5,0,0,1-1.5-1.5V492.6A1.5,1.5,0,0,1,858.5,491.1Z" fill="url(#q)"/><path d="M869.9,504.7H868l-4.2-6.5v6.5h-1.7v-9.1h1.8l4.3,6.5v-6.5h1.7Z" fill="url(#r)"/><rect x="856.4" y="510.3" width="11" height="11" rx="1" fill="#fff"/><path d="M861.3,520.1s-4.5-3.2-.2-6.8l-1.9-1.9h5.9v6.3l-1.9-1.9C860.3,515.6,861.3,520.1,861.3,520.1Z" fill="#37659f"/><path d="M716.9,531.7v-1l.4.3.5.2h1l1.1-.2a1.2,1.2,0,0,0,.4-.8.8.8,0,0,0-.2-.5l-.3-.4-.5-.3-.6-.3-.7-.4-.6-.4-.3-.5a1.5,1.5,0,0,1-.1-.7,1.1,1.1,0,0,1,.2-.8l.5-.6.8-.3h.8l1.5.2v.9a2.5,2.5,0,0,0-1.6-.4h-.9l-.4.4c-.1.1-.1.2-.1.4a.7.7,0,0,0,.1.5l.3.3.4.3.7.4.7.3.6.5.3.5a1.9,1.9,0,0,1,.2.7,2.9,2.9,0,0,1-.2.9,1.2,1.2,0,0,1-.5.5l-.8.4h-2.7Zm9.5.2-2.4-2.5,2.2-2.4h-1l-2,2.3h-.1v-4.6h-.7v7.2h.7v-2.3h.1l2.1,2.3Zm4.7-4.9h-.8l-1.4,3.8c0,.2-.1.3-.1.4h0a.8.8,0,0,1-.1-.4l-1.3-3.8h-.9l1.9,4.9-.4,1a1.1,1.1,0,0,1-.9.7h-.4v.7h.5c.7,0,1.3-.5,1.7-1.5l2.2-5.7Zm1.6,4.2a1.8,1.8,0,0,0,1.5.9,1.9,1.9,0,0,0,1.6-.8,3,3,0,0,0,.6-2,2.3,2.3,0,0,0-.5-1.7,1.8,1.8,0,0,0-1.5-.7,2.1,2.1,0,0,0-1.7,1h0V527h-.8v7.2h.8v-3Zm0-1.9a2.1,2.1,0,0,1,.4-1.2,1.6,1.6,0,0,1,1.1-.5,1.2,1.2,0,0,1,1.1.5,2.1,2.1,0,0,1,.3,1.2,2.1,2.1,0,0,1-.4,1.5,1.1,1.1,0,0,1-1.1.6,1.3,1.3,0,0,1-1-.4,2.1,2.1,0,0,1-.4-1.1v-.6Zm8.9.4v-.4a2.6,2.6,0,0,0-.5-1.7,1.8,1.8,0,0,0-1.5-.7,2.1,2.1,0,0,0-1.6.8,2.6,2.6,0,0,0-.6,1.8,3.6,3.6,0,0,0,.5,1.9,2.4,2.4,0,0,0,1.7.7,2.9,2.9,0,0,0,1.7-.5v-.8a2.4,2.4,0,0,1-1.5.6,1.7,1.7,0,0,1-1.2-.5,1.5,1.5,0,0,1-.4-1.2Zm-.8-.7h-2.6a1.4,1.4,0,0,1,.5-1,1.2,1.2,0,0,1,1.8,0,1.5,1.5,0,0,1,.3,1Z" fill="#fff"/><path d="M723.2,502.4a9,9,0,1,0-8.9-9A8.9,8.9,0,0,0,723.2,502.4Z" fill="url(#s)"/><path d="M735.2,514.5a8.9,8.9,0,1,0-9-8.9A8.9,8.9,0,0,0,735.2,514.5Z" fill="url(#t)"/><path d="M729.3,513.6a13.9,13.9,0,1,0-13.9-13.9A13.8,13.8,0,0,0,729.3,513.6Z" fill="url(#u)"/><path d="M728.8,507.7a13.4,13.4,0,0,1-3.9-.7l-.7-.4a1.6,1.6,0,0,1-.5-1.6,1.1,1.1,0,0,1,1.1-.8,2.7,2.7,0,0,1,1.2.3,7.4,7.4,0,0,0,2.1.7,3.8,3.8,0,0,0,2.1-.1,1.6,1.6,0,0,0,1.2-1.9,1.5,1.5,0,0,0-.7-1,15.5,15.5,0,0,0-2.2-1.2l-2.8-1.3a4.2,4.2,0,0,1-1.7-1.8,3.7,3.7,0,0,1,1.1-4.7,6.6,6.6,0,0,1,3-1.2,9.8,9.8,0,0,1,4.2.3l1.1.5a1.3,1.3,0,0,1,.5,1.6,1.1,1.1,0,0,1-1.5.6l-1.4-.5a6.2,6.2,0,0,0-2.7-.1l-.6.2a1.5,1.5,0,0,0-.2,2.7,12.9,12.9,0,0,0,1.6.9,13.3,13.3,0,0,1,3.2,1.5,4.3,4.3,0,0,1,2,2,4.1,4.1,0,0,1-2.5,5.5,7.9,7.9,0,0,1-3,.5" fill="url(#v)"/><rect x="711.4" y="510.3" width="11" height="11" rx="1" fill="#fff"/><path d="M716.3,520.1s-4.5-3.2-.1-6.8l-1.9-1.9h5.8v6.3l-1.9-1.9C715.3,515.6,716.3,520.1,716.3,520.1Z" fill="#37659f"/><rect x="780.2" y="510.3" width="11" height="11" rx="1" fill="#fff"/><path d="M785,520.1s-4.5-3.2-.1-6.8l-1.9-1.9h5.8v6.3l-1.9-1.9C784,515.6,785,520.1,785,520.1Z" fill="#37659f"/></svg>