<svg xmlns="http://www.w3.org/2000/svg" viewBox="0 0 4527.5 3053.8"><defs><radialGradient id="b" cx="-.1" cy="4130.6" r="1" gradientTransform="translate(1663.6 -184814) scale(45.15)" gradientUnits="userSpaceOnUse"><stop offset="0" stop-color="#fff" stop-opacity="0"/><stop offset="1" stop-color="#fff" stop-opacity="0"/></radialGradient><linearGradient id="a" x2="1" y1="4130.6" y2="4130.6" gradientTransform="matrix(0 116.17 118.82 0 -488196 362.8)" gradientUnits="userSpaceOnUse"><stop offset="0" stop-color="#fdfdfd"/><stop offset="1" stop-color="#f3f3f3"/></linearGradient><style>.ac{fill-opacity:.25}.ae{stroke:gray}.ae,.af{stroke-linecap:round}.ad,.ae,.af{stroke-width:6px}.z{fill-rule:evenodd}.ab,.ad,.ae,.af{fill:none}.s{fill:#999}.aj,.z{fill:#fff}.ab{stroke:#fff;stroke-miterlimit:134.27;stroke-width:28.33px}.ad{stroke:#e6e6e6;stroke-linecap:square}.ad,.ae,.af{stroke-miterlimit:1.5}.af{stroke:#737373}.ag{fill:#01579b}.ah{fill:#40c4ff}.aj{fill-opacity:.2}.aq{fill:#2196f3;fill-opacity:.8}.ar{fill:#737373}</style></defs><path fill="#ccc" fill-opacity=".3" fill-rule="evenodd" stroke="gray" stroke-linecap="round" stroke-linejoin="round" stroke-opacity=".5" stroke-width="6" d="M4524.6 60.1a57.1 57.1 0 00-57-57.1H60.1A57.1 57.1 0 003 60.1v2933.7a57.1 57.1 0 0057.1 57h4407.5a57 57 0 0057-57z"/><path fill="#b3b3b3" fill-opacity=".3" fill-rule="evenodd" d="M4523.5 60.9c.4-31.7-25-56.9-56.9-56.9H61C28.9 4 4 29.1 4 60.9v236a56.9 56.9 0 0057 56.8h4405.6a56.8 56.8 0 0056.9-56.8z"/><path fill="#bfbfbf" fill-rule="evenodd" d="M1454.3 94.8c0-21.1 0-31.6-4.4-39.5a35.7 35.7 0 00-14.8-14.5c-8.1-4.3-18.8-4.3-40.3-4.3H419.2c-21.4 0-32.2 0-40.3 4.3a35.4 35.4 0 00-14.7 14.5c-4.4 7.9-4.4 18.4-4.4 39.5v35.4c0 21 0 31.5-4.4 39.5a36 36 0 01-14.8 14.4c-8.1 4.3-18.8 4.3-40.3 4.3H4.5a.5.5 0 00-.4.5v164.4a.4.4 0 00.4.4h4518.6a.4.4 0 00.4-.4V188.6l-.4-.2H1513.8c-21.5 0-32.2 0-40.3-4.3a36 36 0 01-14.8-14.4c-4.4-8-4.4-18.5-4.4-39.5V94.8z"/><path fill="#9b9b9b" d="M4 351.5h4518.7v2.2H4z"/><path fill="none" stroke="#606367" stroke-linecap="round" stroke-linejoin="round" stroke-width="6" d="M127.5 267.7H74.9m25.2-24.1l-25.2 24.1m0 0l25.2 24"/><path fill="none" stroke="#999" stroke-linecap="round" stroke-linejoin="round" stroke-width="6" d="M221.2 267.7h52.5m-25.1-24.1l25.1 24.1m0 0l-25.1 24"/><path fill="none" stroke="#606367" stroke-linecap="round" stroke-width="6" d="M416.5 256.2a26.2 26.2 0 00-22.8-13c-14.5 0-26.3 11.5-26.3 25.7s11.8 25.6 26.3 25.6a26.2 26.2 0 0023.6-14.5"/><path fill="#606367" d="M425.7 239.8v24.6h-25.2z"/><path fill="url(#a)" fill-rule="evenodd" d="M4430.5 419.9a57.1 57.1 0 00-57.1-57.1H799.6a57.1 57.1 0 00-57 57.1v2.1a57.1 57.1 0 0057 57h3573.8a57.1 57.1 0 0057.1-57z" transform="translate(-241.9 -150.1)"/><path fill="#999" fill-opacity=".5" fill-rule="evenodd" d="M3247.2 1226.8a95 95 0 00-95-95.1H1380.3a95.1 95.1 0 00-95 95.1v10.6a95.1 95.1 0 0095 95.1h1771.9a95 95 0 0095-95.1z"/><path fill="#202124" fill-opacity=".4" d="M643.6 272.2a27 27 0 01-10.5-4.9 9.7 9.7 0 01-3.2-7.3 9.9 9.9 0 013.9-8 16 16 0 0110.4-3.2 17.8 17.8 0 017.8 1.6 13 13 0 015.3 4.5 12.1 12.1 0 011.8 6.4h-5.6a7.5 7.5 0 00-2.4-5.9 12.1 12.1 0 00-13.3-.4 5.9 5.9 0 00-2.3 4.9 5.3 5.3 0 002.2 4.3c1.4 1.2 3.9 2.2 7.4 3.2a34.3 34.3 0 018.3 3.2 12.5 12.5 0 014.4 4.1 10.3 10.3 0 011.4 5.4 9.5 9.5 0 01-4 8.1c-2.6 2-6.2 3-10.7 3a21.7 21.7 0 01-8.1-1.6 13.4 13.4 0 01-5.8-4.5 10.5 10.5 0 01-2.1-6.4h5.6a7.2 7.2 0 002.9 5.9 12.1 12.1 0 007.5 2.1 11.8 11.8 0 006.8-1.7 5.9 5.9 0 002.3-4.8 5.7 5.7 0 00-2.1-4.7 26.8 26.8 0 00-7.9-3.3zm35 19a14 14 0 01-10.4-4.1c-2.7-2.7-4-6.4-4-11v-.9a18 18 0 011.8-8.2 13.6 13.6 0 015-5.6 12.1 12.1 0 016.9-2c4.1 0 7.3 1.3 9.5 3.9s3.4 6.4 3.4 11.3v2.2h-21.2a10 10 0 002.7 7.3 8.4 8.4 0 006.6 2.8 10 10 0 004.8-1.1 13.8 13.8 0 003.4-3l3.3 2.5a13.3 13.3 0 01-11.8 5.9zm-.7-27.5a7.1 7.1 0 00-5.4 2.3 11.2 11.2 0 00-2.8 6.5h15.8v-.4c-.2-2.7-.9-4.8-2.3-6.2a6.5 6.5 0 00-5.3-2.2zm38.5 26.9a11.9 11.9 0 01-.7-3.2 12.3 12.3 0 01-9 3.8 11.5 11.5 0 01-7.6-2.6 8.1 8.1 0 01-2.9-6.5 8.4 8.4 0 013.7-7.4q3.8-2.7 10.5-2.7h5.2v-2.4a6 6 0 00-1.7-4.4 6.7 6.7 0 00-4.9-1.6 8.4 8.4 0 00-4.9 1.4 4.2 4.2 0 00-1.9 3.4h-5.4a6.6 6.6 0 011.7-4.4 11.2 11.2 0 014.5-3.4 16.1 16.1 0 016.3-1.2 13.1 13.1 0 018.5 2.6 9.8 9.8 0 013.2 7.3v14.1a16.1 16.1 0 001.1 6.8v.4zm-8.9-4a9.1 9.1 0 004.8-1.3 7.5 7.5 0 003.3-3.3v-6.3h-4.2q-9.9 0-9.9 5.7a4.7 4.7 0 001.7 3.8 6.2 6.2 0 004.3 1.4zm37-22l-2.6-.2c-3.5 0-5.9 1.5-7.2 4.4v21.8h-5.3v-30.7h5.2v3.6a8.2 8.2 0 017.5-4.1 4.7 4.7 0 012.3.4zm17 22.3a8 8 0 005-1.7 5.5 5.5 0 002.4-4.3h5.1a9.2 9.2 0 01-1.9 5.1 11.6 11.6 0 01-4.6 3.8 13.6 13.6 0 01-6 1.4q-6.4 0-10.2-4.2a16.5 16.5 0 01-3.8-11.4v-.9a18.5 18.5 0 011.7-8 12.6 12.6 0 014.8-5.4 13.9 13.9 0 017.5-1.9 12.4 12.4 0 018.7 3.1 10.7 10.7 0 013.8 8h-5.1a6.9 6.9 0 00-2.3-4.9 7.2 7.2 0 00-5.1-1.9 7.5 7.5 0 00-6.4 2.9c-1.5 1.9-2.2 4.7-2.2 8.3v1c0 3.5.7 6.2 2.2 8.1a7.4 7.4 0 006.4 2.9zm23.9-23.3a11.7 11.7 0 019.3-4.2c6.6 0 9.9 3.6 10 10.9v20.3h-5.4v-20.3a7 7 0 00-1.5-4.9 6.6 6.6 0 00-4.8-1.6 7.7 7.7 0 00-4.5 1.4 8.3 8.3 0 00-3.1 3.6v21.8H780v-43.5h5.4zm74.1 21.6a12.6 12.6 0 01-6 4.5 24.4 24.4 0 01-8.9 1.5 17.5 17.5 0 01-9.2-2.4 16.1 16.1 0 01-6.2-6.7A21.8 21.8 0 01827 272v-3.6c0-6.3 1.4-11.1 4.4-14.5s7.1-5.1 12.5-5.1 8 1.1 10.7 3.3a14.1 14.1 0 014.9 9.3h-5.6c-1-5.4-4.3-8.2-9.9-8.2-3.8 0-6.6 1.3-8.5 3.9s-2.9 6.3-2.9 11.1v3.4c0 4.6 1 8.3 3.2 11.1a10.7 10.7 0 008.8 4 22.6 22.6 0 005.5-.6 10.9 10.9 0 003.9-2.3v-9.3h-9.8v-4.4h15.3v15.1zm7-10.2a19.3 19.3 0 011.8-8.1 14.6 14.6 0 015.1-5.6 14.1 14.1 0 017.4-1.9 13.1 13.1 0 0110.3 4.3c2.7 2.9 4 6.7 4 11.6v.3a19.2 19.2 0 01-1.7 8.1 13.5 13.5 0 01-5.1 5.5 13.9 13.9 0 01-7.4 2 13.6 13.6 0 01-10.4-4.3 16.7 16.7 0 01-4-11.5v-.4zm5.4.6a12.9 12.9 0 002.5 8.2 7.6 7.6 0 006.5 3.1 7.9 7.9 0 006.5-3.1c1.6-2.1 2.4-5 2.4-8.8a13.1 13.1 0 00-2.5-8.2 7.7 7.7 0 00-6.5-3.1 7.6 7.6 0 00-6.4 3.1 14 14 0 00-2.5 8.8zm28.5-.6a17.9 17.9 0 011.8-8.1 13.3 13.3 0 0112.5-7.5 13.2 13.2 0 0110.3 4.3c2.7 2.9 4 6.7 4 11.6v.3a17.9 17.9 0 01-1.8 8.1 12.7 12.7 0 01-5 5.5 14 14 0 01-7.5 2 13.6 13.6 0 01-10.3-4.3c-2.7-2.9-4-6.8-4-11.5v-.4zm5.4.6a12.9 12.9 0 002.4 8.2 7.9 7.9 0 006.5 3.1 7.6 7.6 0 006.5-3.1c1.6-2.1 2.4-5 2.4-8.8a13.1 13.1 0 00-2.4-8.2 7.9 7.9 0 00-6.5-3.1 7.6 7.6 0 00-6.4 3.1c-1.7 2-2.5 5-2.5 8.8zm28.7-.6c0-4.8 1.1-8.6 3.4-11.4a10.8 10.8 0 018.9-4.2q5.8 0 9 3.9l.3-3.4h4.9v30c0 4-1.2 7.1-3.7 9.4s-5.6 3.4-9.6 3.4a17.5 17.5 0 01-6.7-1.4 11.5 11.5 0 01-4.9-3.9l2.7-3.1a10.9 10.9 0 008.5 4.1 7.5 7.5 0 008.3-8.2v-2.6a11.3 11.3 0 01-8.8 3.6 10.9 10.9 0 01-8.9-4.3 18.7 18.7 0 01-3.4-11.9zm5.4.6c0 3.5.7 6.2 2.1 8.2a7.1 7.1 0 006.1 2.9 7.9 7.9 0 007.5-4.5v-14a8.1 8.1 0 00-7.4-4.4 7.1 7.1 0 00-6.1 3c-1.5 2-2.2 4.9-2.2 8.8zm35 15h-5.3v-43.5h5.3zm21.7.6a13.9 13.9 0 01-10.4-4.1c-2.7-2.7-4-6.4-4-11v-.9a19.4 19.4 0 011.7-8.2 14.3 14.3 0 015-5.6 12.6 12.6 0 017-2c4.1 0 7.2 1.3 9.5 3.9s3.4 6.4 3.4 11.3v2.2h-21.3a10.9 10.9 0 002.7 7.3 8.8 8.8 0 006.7 2.8 10.3 10.3 0 004.8-1.1 13.8 13.8 0 003.4-3l3.3 2.5a13.3 13.3 0 01-11.8 5.9zm-.7-27.5a7.5 7.5 0 00-5.5 2.3 11.8 11.8 0 00-2.7 6.5h15.7v-.4a9.4 9.4 0 00-2.2-6.2 6.7 6.7 0 00-5.3-2.2zm32.5 11.3a17.9 17.9 0 011.8-8.1 13.6 13.6 0 015-5.6 14.1 14.1 0 017.4-1.9 13.4 13.4 0 0110.4 4.3c2.6 2.9 3.9 6.7 3.9 11.6v.3a19.2 19.2 0 01-1.7 8.1 13.5 13.5 0 01-5.1 5.5 14.7 14.7 0 01-17.8-2.3 16.7 16.7 0 01-3.9-11.5v-.4zm5.4.6a12.9 12.9 0 002.4 8.2 8.4 8.4 0 0013 0c1.6-2.1 2.4-5 2.4-8.8a13.1 13.1 0 00-2.5-8.2 8.3 8.3 0 00-12.9 0 14 14 0 00-2.4 8.8zm45-11l-2.6-.2c-3.5 0-5.9 1.5-7.2 4.4v21.8h-5.3v-30.7h5.2v3.6a8.2 8.2 0 017.5-4.1 4.7 4.7 0 012.3.4v4.8zm27-12.1v7.4h5.9v4.1h-5.9v19a4.3 4.3 0 00.8 2.8 3.4 3.4 0 002.7.9l2.5-.3v4.2a15.1 15.1 0 01-4.1.6 6.7 6.7 0 01-5.4-2.1 9.5 9.5 0 01-1.9-6.1v-19h-5.7v-4.1h5.7v-7.4zm22.4 30.4l7.3-23h5.8l-12.6 35.5c-2 5.1-5.1 7.6-9.3 7.6h-1.1l-2-.3v-4.3h1.5a6.6 6.6 0 004.2-1.1 7.3 7.3 0 002.5-3.9l1.2-3.1-11.2-30.4h5.9zm44.4-7.3a18 18 0 01-3.3 11.3 10.4 10.4 0 01-8.8 4.3q-5.9 0-9-3.6v14.8h-5.4v-42.5h4.9l.3 3.4c2.1-2.6 5.2-3.9 9.1-3.9a11 11 0 018.9 4.1c2.2 2.8 3.3 6.7 3.3 11.6zm-5.4-.6c0-3.4-.7-6.2-2.2-8.2a7.4 7.4 0 00-6.2-3 7.8 7.8 0 00-7.3 4.2v14.7a7.8 7.8 0 007.3 4.2 7.5 7.5 0 006.2-3c1.5-2 2.2-4.9 2.2-8.9zm25.3 16.2a14 14 0 01-10.4-4.1c-2.7-2.7-4-6.4-4-11v-.9a18 18 0 011.8-8.2 13.6 13.6 0 015-5.6 12.1 12.1 0 016.9-2c4.1 0 7.3 1.3 9.5 3.9s3.4 6.4 3.4 11.3v2.2h-21.2a10 10 0 002.7 7.3 8.4 8.4 0 006.6 2.8 10 10 0 004.8-1.1 12.2 12.2 0 003.4-3l3.3 2.5a13.3 13.3 0 01-11.8 5.9zm-.7-27.5a7.3 7.3 0 00-5.4 2.3 11.2 11.2 0 00-2.8 6.5h15.8v-.4a10 10 0 00-2.2-6.2 6.9 6.9 0 00-5.4-2.2zm53.3 26.9a11.1 11.1 0 01-.8-3.2 12.3 12.3 0 01-8.9 3.8 11.1 11.1 0 01-7.6-2.6 8.2 8.2 0 01-3-6.5 8.4 8.4 0 013.7-7.4q3.8-2.7 10.5-2.7h5.2v-2.4a6 6 0 00-1.6-4.4 7 7 0 00-5-1.6 8.3 8.3 0 00-4.8 1.4 4.3 4.3 0 00-2 3.4h-5.4a7.2 7.2 0 011.7-4.4 11.2 11.2 0 014.5-3.4 16.1 16.1 0 016.3-1.2c3.6 0 6.5.9 8.5 2.6a9.4 9.4 0 013.2 7.3v14.1a17.8 17.8 0 001.1 6.8v.4zm-8.9-4a9.6 9.6 0 004.8-1.3 6.8 6.8 0 003.2-3.3v-6.3h-4.2c-6.5 0-9.8 1.9-9.8 5.7a4.6 4.6 0 001.6 3.8 6.5 6.5 0 004.4 1.4zm67.1-37.3v28.1a13.4 13.4 0 01-3.7 9.6 15.8 15.8 0 01-10.1 4.1h-1.5c-4.6 0-8.3-1.2-11.1-3.7s-4.1-5.8-4.2-10v-28.1h5.6v28a9.4 9.4 0 002.5 7q2.5 2.4 7.2 2.4t7.2-2.4a9.4 9.4 0 002.5-7v-28zm24.3 24.6h-9.9v16.7h-5.6v-41.3h14c4.7 0 8.4 1.1 10.9 3.2s3.9 5.2 3.9 9.2a10.7 10.7 0 01-2.2 6.8 12.6 12.6 0 01-5.9 4.3l9.9 17.5v.3h-5.9l-9.2-16.7zm-9.9-4.4h8.5a9.7 9.7 0 006.6-2.1 7 7 0 002.5-5.7 7.1 7.1 0 00-2.4-5.8c-1.5-1.4-3.8-2.1-6.7-2.1h-8.5v15.7zm36.6 16.7h20v4.4h-25.6v-41.3h5.6v36.9z"/><path fill-opacity=".3" d="M1391.7 1238.3a33.3 33.3 0 01-12.1-5.7 10.9 10.9 0 01-3.7-8.4 11.2 11.2 0 014.6-9.3c3-2.5 7.1-3.7 12-3.7a19.7 19.7 0 018.9 1.9 14.3 14.3 0 016.1 5.2 13 13 0 012.2 7.3h-6.5a8.3 8.3 0 00-2.8-6.7c-1.9-1.7-4.5-2.5-7.9-2.5a12.6 12.6 0 00-7.5 2 7 7 0 00-2.6 5.7 6 6 0 002.5 4.9c1.7 1.4 4.6 2.6 8.6 3.7a39.1 39.1 0 019.5 3.7 14.6 14.6 0 015.1 4.7 11.9 11.9 0 011.7 6.3 10.9 10.9 0 01-4.6 9.3 19.6 19.6 0 01-12.4 3.5 24.6 24.6 0 01-9.4-1.8 16.2 16.2 0 01-6.7-5.2 12.4 12.4 0 01-2.4-7.5h6.5a8.3 8.3 0 003.3 6.9 14.3 14.3 0 008.7 2.5q5.1 0 7.8-2.1a6.5 6.5 0 002.7-5.5 6.4 6.4 0 00-2.5-5.4 27.9 27.9 0 00-9.1-3.8zm40.5 21.9c-5 0-9-1.6-12-4.7s-4.7-7.4-4.7-12.7v-1.1a20.3 20.3 0 012.1-9.4 16.4 16.4 0 015.7-6.5 14.7 14.7 0 018.1-2.4c4.7 0 8.4 1.6 11 4.6s3.9 7.4 3.9 13.1v2.5h-24.6a12.7 12.7 0 003.2 8.5 10 10 0 007.6 3.2 12.2 12.2 0 005.6-1.3 16.5 16.5 0 004-3.5l3.7 2.9c-3 4.5-7.6 6.8-13.6 6.8zm-.8-31.8a8.3 8.3 0 00-6.3 2.7 13 13 0 00-3.2 7.5h18.2v-.5c-.2-3.1-1-5.4-2.5-7.1a8.1 8.1 0 00-6.2-2.6zm44.5 31.2a19.3 19.3 0 01-.9-3.8 13.6 13.6 0 01-10.3 4.4 13.3 13.3 0 01-8.8-2.9 9.5 9.5 0 01-3.4-7.6 9.9 9.9 0 014.3-8.6c2.9-2 6.9-3 12.1-3h6v-2.8a6.9 6.9 0 00-1.9-5.1 8.1 8.1 0 00-5.7-1.9 9.3 9.3 0 00-5.6 1.7 4.7 4.7 0 00-2.2 3.9h-6.3a9 9 0 011.9-5.1 13.3 13.3 0 015.3-3.9 17.2 17.2 0 017.2-1.5 15 15 0 019.9 3.1 11 11 0 013.6 8.5v16.3a20.2 20.2 0 001.3 7.7v.6zm-10.3-4.7a11.1 11.1 0 005.6-1.4 8.7 8.7 0 003.7-3.9v-7.2h-4.8c-7.6 0-11.4 2.1-11.4 6.5a5.2 5.2 0 001.9 4.4 7.5 7.5 0 005 1.6zm42.8-25.4l-3-.2c-4.1 0-6.9 1.7-8.3 5.1v25.2h-6.2v-35.5h6v4.1a9.7 9.7 0 018.7-4.8 6.2 6.2 0 012.7.5zm19.6 25.8a9.1 9.1 0 005.8-2 6.7 6.7 0 002.8-4.9h5.8a10.8 10.8 0 01-2.1 5.8 14.4 14.4 0 01-5.3 4.4 15.3 15.3 0 01-7 1.6c-4.9 0-8.9-1.6-11.8-4.8s-4.3-7.6-4.3-13.2v-1.1a21 21 0 011.9-9.2 14.7 14.7 0 015.6-6.2 16 16 0 018.6-2.3 14.5 14.5 0 0110.1 3.6 12.4 12.4 0 014.3 9.3h-5.8a8.1 8.1 0 00-2.7-5.6 8.4 8.4 0 00-5.9-2.3 8.8 8.8 0 00-7.4 3.4c-1.7 2.2-2.5 5.4-2.5 9.6v1.1c0 4.1.8 7.3 2.5 9.5a9 9 0 007.4 3.3zm27.6-26.9a13.4 13.4 0 0110.7-5c7.7 0 11.6 4.3 11.6 12.7v23.5h-6.2v-23.5c0-2.6-.6-4.4-1.8-5.7s-3-1.8-5.4-1.8a8.8 8.8 0 00-5.3 1.6 10.2 10.2 0 00-3.6 4.1v25.3h-6.2v-50.4h6.2zm85.7 24.9a14.9 14.9 0 01-7 5.2 27.1 27.1 0 01-10.3 1.7 20.6 20.6 0 01-10.6-2.7 18.2 18.2 0 01-7.2-7.8 27.2 27.2 0 01-2.5-11.7v-4.2c0-7.2 1.7-12.7 5.1-16.7s8.3-5.9 14.5-5.9 9.2 1.3 12.3 3.8a16.8 16.8 0 015.7 10.8h-6.5c-1.2-6.3-5-9.4-11.5-9.4-4.3 0-7.6 1.4-9.8 4.4s-3.4 7.3-3.4 12.9v3.9c0 5.3 1.3 9.6 3.8 12.8a12.4 12.4 0 0010.1 4.7 23.8 23.8 0 006.4-.8 9.4 9.4 0 004.5-2.7v-10.7h-11.3v-5.1h17.7v17.5zm8.1-11.8a20.6 20.6 0 012.1-9.4 15.5 15.5 0 0114.4-8.7 15.1 15.1 0 0111.9 5.1c3.1 3.3 4.6 7.8 4.6 13.3v.4a19.9 19.9 0 01-2 9.3 14.4 14.4 0 01-5.8 6.4 15.7 15.7 0 01-8.7 2.3c-4.9 0-8.9-1.6-11.9-5s-4.6-7.8-4.6-13.3v-.4zm6.3.7c0 4 .9 7.1 2.7 9.5a9.7 9.7 0 0015.1 0c1.8-2.5 2.7-5.8 2.7-10.2s-.9-7-2.8-9.4a8.9 8.9 0 00-7.5-3.7 8.8 8.8 0 00-7.4 3.6 16 16 0 00-2.8 10.2zm32.9-.7a20.6 20.6 0 012.1-9.4 15.6 15.6 0 015.8-6.4 16.1 16.1 0 018.5-2.3 15.2 15.2 0 0112 5.1c3.1 3.3 4.6 7.8 4.6 13.3v.4a21.2 21.2 0 01-2 9.3 15 15 0 01-5.8 6.4 15.7 15.7 0 01-8.7 2.3 15.4 15.4 0 01-12-5c-3-3.3-4.5-7.8-4.5-13.3v-.4zm6.2.7c0 4 .9 7.1 2.8 9.5a9.1 9.1 0 007.5 3.6 8.8 8.8 0 007.5-3.6c1.9-2.5 2.8-5.8 2.8-10.2s-.9-7-2.9-9.4a8.7 8.7 0 00-7.5-3.7 9 9 0 00-7.4 3.6 16.7 16.7 0 00-2.8 10.2zm33.1-.7c0-5.5 1.3-9.9 3.9-13.1a12.7 12.7 0 0110.4-5 12.9 12.9 0 0110.4 4.6l.3-3.9h5.6v34.6c0 4.6-1.4 8.2-4.1 10.9s-6.5 3.9-11.2 3.9a18.7 18.7 0 01-7.7-1.6 14 14 0 01-5.8-4.5l3.3-3.6a12.1 12.1 0 009.7 4.8c3 0 5.4-.8 7.1-2.5a9.4 9.4 0 002.5-7v-3.1a12.9 12.9 0 01-10.1 4.2 12.5 12.5 0 01-10.4-5 21.7 21.7 0 01-3.9-13.7zm6.2.7c0 4 .9 7.2 2.6 9.5a8.3 8.3 0 007 3.4 9.2 9.2 0 008.6-5.2v-16.2a9.1 9.1 0 00-8.5-5.1 8.2 8.2 0 00-7.1 3.4 17 17 0 00-2.6 10.2zm40.6 17.4h-6.2v-50.4h6.2zm25 .6a16.3 16.3 0 01-12-4.7 17.4 17.4 0 01-4.6-12.7v-1.1a20.3 20.3 0 012-9.4 15.9 15.9 0 015.8-6.5 14.2 14.2 0 018-2.4c4.7 0 8.4 1.6 11 4.6s3.9 7.4 3.9 13.1v2.5h-24.5a12.2 12.2 0 003.1 8.5 10 10 0 007.6 3.2 11.9 11.9 0 005.6-1.3 16.5 16.5 0 004-3.5l3.8 2.9a15.5 15.5 0 01-13.7 6.8zm-.8-31.8a8.3 8.3 0 00-6.3 2.7 12.9 12.9 0 00-3.1 7.5h18.1v-.5a10.8 10.8 0 00-2.5-7.1 7.9 7.9 0 00-6.2-2.6zm37.5 13.1a20.6 20.6 0 012.1-9.4 15.5 15.5 0 0114.4-8.7 15.5 15.5 0 0112 5.1c3 3.3 4.6 7.8 4.6 13.3v.4a19.9 19.9 0 01-2.1 9.3 14.4 14.4 0 01-5.8 6.4 15.6 15.6 0 01-8.6 2.3c-5 0-8.9-1.6-12-5s-4.6-7.8-4.6-13.3v-.4zm6.3.7c0 4 .9 7.1 2.7 9.5a9.7 9.7 0 0015.1 0 17 17 0 002.8-10.2 14.7 14.7 0 00-2.9-9.4 9.4 9.4 0 00-14.9-.1 16 16 0 00-2.8 10.2zm52.1-12.7l-3.1-.2c-4.1 0-6.8 1.7-8.3 5.1v25.2h-6.2v-35.5h6.1v4.1a9.6 9.6 0 018.6-4.8 7 7 0 012.8.5v5.6zm31.1-14v8.6h6.8v4.7h-6.8v22a4.4 4.4 0 001 3.2 3.8 3.8 0 003 1l3-.3v4.9a19.7 19.7 0 01-4.8.6 7.8 7.8 0 01-6.2-2.4c-1.5-1.7-2.2-4-2.2-7v-22h-6.6v-4.7h6.6v-8.6zm26 35.2l8.4-26.6h6.6l-14.5 40.9c-2.3 5.9-5.9 8.9-10.8 8.9h-1.2l-2.3-.4v-4.9h1.7a7.9 7.9 0 004.9-1.3c1.2-.8 2.1-2.3 2.9-4.5l1.4-3.6-13-35.1h6.8zm51.3-8.5c0 5.4-1.3 9.8-3.8 13.1a12.4 12.4 0 01-10.3 4.9c-4.4 0-7.9-1.3-10.4-4.1v17.1h-6.2v-49.1h5.7l.3 3.9a13 13 0 0110.5-4.6 12.4 12.4 0 0110.3 4.9c2.6 3.2 3.9 7.6 3.9 13.4zm-6.2-.7c0-4-.9-7.1-2.7-9.4a8.4 8.4 0 00-7.1-3.5 9.1 9.1 0 00-8.5 4.9v16.9a9.1 9.1 0 008.5 4.9 8.4 8.4 0 007.1-3.5c1.8-2.3 2.7-5.7 2.7-10.3zm29.1 18.7a16.3 16.3 0 01-12-4.7 17.4 17.4 0 01-4.6-12.7v-1.1a21.6 21.6 0 012-9.4 15.9 15.9 0 015.8-6.5 14.7 14.7 0 018.1-2.4 14 14 0 0111 4.6c2.6 3 3.9 7.4 3.9 13.1v2.5h-24.6a12.6 12.6 0 003.1 8.5 10.3 10.3 0 007.7 3.2 11.5 11.5 0 005.5-1.3 14.8 14.8 0 004-3.5l3.8 2.9c-3 4.5-7.6 6.8-13.7 6.8zm-.7-31.8a8.5 8.5 0 00-6.4 2.7 13.6 13.6 0 00-3.1 7.5h18.2v-.5a11.4 11.4 0 00-2.6-7.1 7.9 7.9 0 00-6.1-2.6zm61.5 31.2a14 14 0 01-.9-3.8 13.6 13.6 0 01-10.3 4.4 13.3 13.3 0 01-8.8-2.9 9.5 9.5 0 01-3.4-7.6 9.9 9.9 0 014.3-8.6c2.8-2 6.9-3 12.1-3h6v-2.8a6.9 6.9 0 00-1.9-5.1 8.1 8.1 0 00-5.7-1.9 9.1 9.1 0 00-5.6 1.7 4.8 4.8 0 00-2.3 3.9h-6.2a8.3 8.3 0 011.9-5.1 13.3 13.3 0 015.3-3.9 17.2 17.2 0 017.2-1.5 15 15 0 019.9 3.1 11.4 11.4 0 013.6 8.5v16.3a20.2 20.2 0 001.3 7.7v.6zm-10.3-4.7a10.5 10.5 0 005.5-1.4 8.4 8.4 0 003.8-3.9v-7.2h-4.8c-7.6 0-11.4 2.1-11.4 6.5a5.2 5.2 0 001.9 4.4 7.5 7.5 0 005 1.6zm77.6-43.1v32.5a14.6 14.6 0 01-4.3 11 18 18 0 01-11.7 4.9h-1.7c-5.3 0-9.6-1.4-12.8-4.2s-4.8-6.7-4.8-11.6v-32.6h6.4v32.4c0 3.4.9 6.1 2.9 8s4.7 2.9 8.3 2.9 6.4-1 8.3-2.9 3-4.6 3-8v-32.4zm28.1 28.5h-11.5v19.3h-6.4v-47.8h16.1c5.5 0 9.7 1.3 12.7 3.7s4.4 6 4.4 10.7a12.9 12.9 0 01-2.4 7.8 14.8 14.8 0 01-6.9 4.9l11.5 20.3v.4h-6.9l-10.6-19.3zm-11.5-5.2h9.9a11.4 11.4 0 007.6-2.4 8.1 8.1 0 002.9-6.5 8.5 8.5 0 00-2.7-6.8q-2.7-2.4-7.8-2.4h-9.9v18.1zm42.4 19.3h23.1v5.2h-29.6v-47.8h6.5v42.6z"/><path fill="none" stroke="#606367" stroke-linecap="round" stroke-linejoin="round" stroke-opacity=".4" stroke-width="6" d="M4099.8 243.4l7.6 17.4 19.4 1.7-14.7 12.5 4.4 18.5-16.7-9.8-16.6 9.8 4.3-18.5-14.6-12.5 19.3-1.7 7.6-17.4z"/><path fill="#606367" fill-rule="evenodd" d="M4435.7 247a6.8 6.8 0 01-6.9 6.7 6.7 6.7 0 110-13.4 6.8 6.8 0 016.9 6.7zm0 22.3a6.8 6.8 0 01-6.9 6.7 6.7 6.7 0 110-13.4 6.8 6.8 0 016.9 6.7zm-6.9 29a6.7 6.7 0 100-13.4 6.7 6.7 0 100 13.4z"/><path fill="#3d4043" d="M451 130.3h-5.2L426.2 101v29.3H421V92.2h5.2l19.7 29.5V92.2h5.1v38.1zm20.4.6a13 13 0 01-9.6-3.8 13.7 13.7 0 01-3.7-10.1v-.9a16.5 16.5 0 011.6-7.5 12.3 12.3 0 014.6-5.2 11.7 11.7 0 016.5-1.9c3.7 0 6.7 1.2 8.7 3.6s3.2 5.9 3.2 10.4v2.1h-19.6a9.8 9.8 0 002.4 6.7 8 8 0 006.1 2.6 8.8 8.8 0 004.5-1 12.2 12.2 0 003.2-2.8l3 2.3a12.4 12.4 0 01-10.9 5.5zm-.6-25.4a6.9 6.9 0 00-5.1 2.1 10.4 10.4 0 00-2.5 6h14.5v-.4a9.1 9.1 0 00-2-5.7 6.5 6.5 0 00-4.9-2zm43.3 18.2l5.6-21.7h4.9l-8.4 28.3h-4l-7.1-21.4-6.8 21.4h-4.1l-8.4-28.3h5l5.7 21.2 6.7-21.2h4l6.9 21.7zm55.8-27.3h-12.5v33.9h-5.1V96.4h-12.5v-4.2h30.1v4.2zm19.9 33.9a7.1 7.1 0 01-.7-2.9 11.4 11.4 0 01-8.3 3.5 10.3 10.3 0 01-7-2.4 7.8 7.8 0 01-2.8-6 8.1 8.1 0 013.5-6.9c2.3-1.6 5.5-2.4 9.7-2.4h4.8v-2.3a5.1 5.1 0 00-1.6-4 6.1 6.1 0 00-4.5-1.5 7.3 7.3 0 00-4.5 1.3 3.8 3.8 0 00-1.8 3.2h-5a6.3 6.3 0 011.6-4.1 11.1 11.1 0 014.1-3.2 15.8 15.8 0 015.8-1.1c3.4 0 6 .8 7.9 2.5a8.3 8.3 0 012.9 6.7v13a15 15 0 001.1 6.2v.4zm-8.3-3.6a8.9 8.9 0 004.5-1.2 6.9 6.9 0 003-3.1v-5.8h-3.9c-6.1 0-9.1 1.7-9.1 5.2a4.6 4.6 0 001.5 3.6 6.6 6.6 0 004 1.3zm44.7-10.2c0 4.3-1 7.8-3 10.4a9.8 9.8 0 01-8.2 4 10.3 10.3 0 01-8.5-3.8l-.2 3.2h-4.6V90.1h5v15a10.1 10.1 0 018.2-3.6 9.9 9.9 0 018.3 3.9c2 2.6 3 6.2 3 10.7v.4zm-4.9-.6a12.7 12.7 0 00-2-7.6 6.5 6.5 0 00-5.6-2.7 7.2 7.2 0 00-7 4.5v12.2a7.4 7.4 0 007.1 4.5 6.5 6.5 0 005.5-2.7 14 14 0 002-8.2z"/><circle cx="94.4" cy="93.6" r="27" fill="#ec6a5e"/><circle cx="185.6" cy="93.6" r="27" fill="#f5bf4f"/><circle cx="276.8" cy="93.6" r="27" fill="#64c554"/><circle cx="4282.9" cy="269.3" r="45.8" class="s"/><circle cx="4282.9" cy="257.4" r="12.1" fill="#666"/><path fill="#666" fill-rule="evenodd" d="M4254 295.5a32.2 32.2 0 0157.9 0 38.7 38.7 0 01-57.9 0z"/><path fill="#fbbb00" d="M558.5 276.5l-1.9 7-6.9.2a26.9 26.9 0 01-3.3-12.9 26.6 26.6 0 013.1-12.5l6.1 1.2 2.7 6.1a17.7 17.7 0 00-.8 5.2 15.6 15.6 0 001 5.7"/><path fill="#518ef8" d="M600.2 265.7a29.4 29.4 0 01.5 5.1 27.3 27.3 0 01-10.1 21.2l-7.8-.4-1.1-6.9a15.7 15.7 0 007-8.2h-14.5v-10.8z"/><path fill="#28b446" d="M590.6 292a27.4 27.4 0 01-17 5.9 27 27 0 01-23.9-14.2l8.8-7.2a16.1 16.1 0 0023.2 8.2z"/><path fill="#f14336" d="M590.9 249.9l-8.8 7.2a16.5 16.5 0 00-8.5-2.4 16.1 16.1 0 00-15.3 10.9l-8.8-7.3a27.2 27.2 0 0141.4-8.4"/><path d="M2649.8 879.6c-29.1-.2-35.3-21.2-35.3-21.2l96.5-38s-13.3-51.9-64.5-51.9-68.6 43.9-68.6 69.8 21.9 68.3 71.7 68.3c40.5 0 60.2-30.4 60.2-30.4l-24.5-15.8s-12.8 19.3-35.5 19.2zm-6.3-84.3c18.7-3.2 30.8 14.4 30.8 14.4l-65.2 25.3s-5-32.8 34.4-39.7z" class="z"/><path fill="#fff" d="M2531.9 699.9h32.3v203h-32.3z"/><path d="M2480.9 785.6s-13-17.8-40-17.1c-33.7.9-68.6 25.7-68.6 69.1s37.1 68.8 68.2 68.8c28.8 0 40.4-17.3 40.4-17.3V903c0 9.9-3.9 38.9-37.4 38.9-29.4 0-37.8-25-37.8-25l-27.4 11s15.6 40.6 63.8 40.6 68.6-34.6 68.6-67.3v-128l-29.8-.3zm-37.8 94.7c-21.8 0-39.5-18.9-39.5-42.4s17.7-42.4 39.5-42.4 39.4 19 39.4 42.4-17.6 42.4-39.4 42.4zM2015.6 790.1H1940V819h73.7a78.7 78.7 0 01-76.4 57.7c-43.6 0-79-34.5-79-77.1s35.4-77.1 79-77.1a79.8 79.8 0 0155.8 22.5l21.1-20a110.7 110.7 0 00-78.5-32.3c-60.6 0-109.7 47.9-109.7 106.9s49.1 106.9 109.7 106.9 109.7-47.9 109.7-106.9a99 99 0 00-.5-9.5z" class="z"/><ellipse cx="2286.6" cy="837.4" class="ab" rx="58" ry="55.9"/><ellipse cx="2128.1" cy="837.4" class="ab" rx="58" ry="55.9"/><path d="M3131.6 1248.5c9.9 0 17.4-7.7 17.4-17.8v-35.6c0-10-7.5-17.7-17.4-17.7s-17.4 7.7-17.4 17.7v35.6c0 10.1 7.5 17.8 17.4 17.8z" class="s"/><path d="M3162.4 1232.1c0 16.4-14.5 27.9-30.8 27.9s-30.8-11.5-30.8-27.9h-9.9c0 18.6 15.7 33.9 34.9 36.7v18.1h11.6v-18.1c19.2-2.8 34.9-18.1 34.9-36.7zM1794.5 1721.7h-13v13.7h-5.6v-32.3h20.5v4.6h-14.9v9.5h13zM1800.6 1701.3h5.4v34h-5.4zM1826.5 1733a8.3 8.3 0 01-6.8 2.9 7.3 7.3 0 01-5.9-2.4 9.7 9.7 0 01-2-6.5v-15.6h5.4v15.5c0 3.1 1.3 4.6 3.8 4.6s4.4-1 5.3-2.9v-17.2h5.4v24h-5.1zM1843.9 1705.6v5.8h4.3v4h-4.3v13.4a3.4 3.4 0 00.5 2 2.8 2.8 0 002 .6l1.9-.2v4.2a14.8 14.8 0 01-3.5.5c-4.2 0-6.3-2.4-6.3-6.9v-13.6h-3.9v-4h3.9v-5.8zM1859 1705.6v5.8h4.3v4h-4.3v13.4a3.4 3.4 0 00.5 2 2.8 2.8 0 002 .6l1.9-.2v4.2a14.9 14.9 0 01-3.6.5c-4.1 0-6.2-2.4-6.2-6.9v-13.6h-3.9v-4h3.9v-5.8zM1877.9 1735.9a11 11 0 01-8.3-3.3 11.6 11.6 0 01-3.1-8.5v-.7a14.4 14.4 0 011.3-6.4 9.9 9.9 0 013.9-4.4 10.1 10.1 0 015.6-1.6c3.3 0 5.8 1 7.6 3.1s2.6 5.1 2.6 8.9v2.1h-15.6a6.6 6.6 0 002 4.7 5.6 5.6 0 004.3 1.7 7.3 7.3 0 006.1-2.9l2.9 2.7a9.9 9.9 0 01-3.9 3.4 11.9 11.9 0 01-5.4 1.2zm-.6-20.6a4.6 4.6 0 00-3.6 1.5 8 8 0 00-1.7 4.4h10.2v-.4a6.7 6.7 0 00-1.4-4.1 4.3 4.3 0 00-3.5-1.4zM1904.3 1716.3h-2.2c-2.5 0-4.1.9-5 2.8v16.4h-5.4v-24h5.2v2.7a6 6 0 015.4-3.1 5 5 0 011.9.3zM2197 1728.1h-12.5l-2.6 7.5h-5.8l12.1-32.3h5.1l12.2 32.3h-5.9zm-10.9-4.5h9.4l-4.7-13.4zM2228.6 1723.9a15.1 15.1 0 01-2.5 8.9 8.2 8.2 0 01-6.8 3.3 8.4 8.4 0 01-6.4-2.6v11.3h-5.3v-33.1h4.9l.3 2.4a7.8 7.8 0 016.4-2.9 8.3 8.3 0 016.9 3.3c1.6 2.2 2.5 5.2 2.5 9.1zm-5.4-.5a10.4 10.4 0 00-1.4-5.7 4.7 4.7 0 00-4.1-2.1 5.1 5.1 0 00-4.8 2.7v10.7a5.1 5.1 0 004.9 2.8 4.5 4.5 0 003.9-2.1q1.5-2.1 1.5-6.3zM2254.1 1723.9c0 3.7-.8 6.6-2.5 8.9a8.1 8.1 0 01-6.8 3.3 8.3 8.3 0 01-6.3-2.6v11.3h-5.4v-33.1h5l.2 2.4a8 8 0 016.5-2.9 8.3 8.3 0 016.9 3.3c1.6 2.2 2.4 5.2 2.4 9.1zm-5.3-.5a10.4 10.4 0 00-1.4-5.7 4.8 4.8 0 00-4.1-2.1 5 5 0 00-4.8 2.7v10.7a5 5 0 004.8 2.8 4.5 4.5 0 004-2.1q1.5-2.1 1.5-6.3zM2270.8 1703.3h5.6v32.3h-5.6zM2292.7 1731.8a4.8 4.8 0 003.3-1.2 3.7 3.7 0 001.4-2.9h5.1a8.1 8.1 0 01-1.4 4.2 8.8 8.8 0 01-3.5 3.1 11.4 11.4 0 01-4.9 1.1 10 10 0 01-7.9-3.3q-3-3.3-3-9v-.5a13 13 0 012.9-8.8 10.3 10.3 0 018-3.3 9.7 9.7 0 017 2.5 8.9 8.9 0 012.8 6.5h-5.1a4.8 4.8 0 00-1.4-3.4 4.9 4.9 0 00-3.3-1.3 5 5 0 00-4.1 1.9 10.1 10.1 0 00-1.4 5.8v.9a10.3 10.3 0 001.4 5.8 4.9 4.9 0 004.1 1.9zM2305.6 1723.4a14.6 14.6 0 011.4-6.3 9.9 9.9 0 013.9-4.4 11.1 11.1 0 015.8-1.5 10.5 10.5 0 017.9 3.1 12.2 12.2 0 013.2 8.3v1.3a14.2 14.2 0 01-1.4 6.3 9.6 9.6 0 01-3.9 4.3 11.5 11.5 0 01-14-1.8 13 13 0 01-3-9zm5.4.5a9.8 9.8 0 001.5 5.8 5 5 0 004.3 2.1 5 5 0 004.2-2.2 10.7 10.7 0 001.5-6.2 9 9 0 00-1.6-5.7 4.7 4.7 0 00-4.2-2.2 5 5 0 00-4.2 2.1q-1.5 2.1-1.5 6.3zM2337.4 1711.7l.2 2.7a8.6 8.6 0 017-3.2c5 0 7.5 2.9 7.6 8.6v15.8h-5.4v-15.5a4.8 4.8 0 00-1-3.4 4.1 4.1 0 00-3.2-1.1 5 5 0 00-4.8 3v17h-5.4v-23.9zM1276.3 1735.4v-32.3h9.5a15.6 15.6 0 017.6 1.9 12.7 12.7 0 015.1 5.4 16.7 16.7 0 011.9 8.1v1.6a16 16 0 01-1.9 8 12.1 12.1 0 01-5.1 5.4 15.5 15.5 0 01-7.8 1.9zm5.6-27.7v23.2h3.6a8.7 8.7 0 006.9-2.7c1.5-1.9 2.3-4.5 2.4-8v-1.8c0-3.5-.8-6.1-2.4-8s-3.7-2.7-6.6-2.7zM1319.7 1735.4a7.1 7.1 0 01-.5-2.2 8.7 8.7 0 01-6.4 2.7 8.5 8.5 0 01-5.9-2.1 6.7 6.7 0 01-2.2-5.1 6.8 6.8 0 012.8-5.9c1.9-1.4 4.6-2.1 8.2-2.1h3.3v-1.5a4.1 4.1 0 00-1.1-3 3.8 3.8 0 00-3.1-1.1 4.5 4.5 0 00-3 .9 2.6 2.6 0 00-1.2 2.3h-5.4a5.5 5.5 0 011.3-3.6 8.9 8.9 0 013.5-2.8 13.6 13.6 0 015.1-.9 10.1 10.1 0 016.7 2.1 7.7 7.7 0 012.6 6v10.8a12.3 12.3 0 00.9 5.1v.4zm-5.9-3.9a5.2 5.2 0 003-.8 4.8 4.8 0 002.2-2v-4.6h-2.9a7.8 7.8 0 00-4.5 1.1 3.4 3.4 0 00-1.5 2.9 3 3 0 001 2.5 4 4 0 002.7.9zM1342.5 1716.3h-2.1c-2.5 0-4.2.9-5 2.8v16.4h-5.4v-24h5.1l.2 2.7a5.9 5.9 0 015.4-3.1 5.4 5.4 0 011.9.3zM1353.8 1705.6v5.8h4.3v4h-4.3v13.4a3.4 3.4 0 00.5 2 2.8 2.8 0 002 .6l1.9-.2v4.2a14.8 14.8 0 01-3.5.5c-4.2 0-6.3-2.4-6.3-6.9v-13.6h-3.9v-4h3.9v-5.8zM1394.5 1723.6a14.7 14.7 0 01-2.5 8.9 8.8 8.8 0 01-13.2.8v11.3h-5.3v-33.2h4.9l.3 2.4a7.9 7.9 0 016.4-2.8 8.5 8.5 0 016.9 3.2 15.3 15.3 0 012.5 9.1zm-5.4-.4a9.6 9.6 0 00-1.4-5.7 4.7 4.7 0 00-4.1-2.1 5.1 5.1 0 00-4.8 2.7v10.7a5.1 5.1 0 004.9 2.7 4.7 4.7 0 004-2c1-1.4 1.4-3.5 1.4-6.3zM1413.4 1735.4a4.9 4.9 0 01-.6-2.2 9.1 9.1 0 01-12.3.6 7 7 0 01-2.2-5.1 6.8 6.8 0 012.8-5.9c1.9-1.4 4.6-2.1 8.2-2.1h3.3v-1.5a4.1 4.1 0 00-1.1-3 3.7 3.7 0 00-3.1-1.1 4.5 4.5 0 00-3 .9 2.6 2.6 0 00-1.2 2.3h-5.4a5.5 5.5 0 011.3-3.6 8.9 8.9 0 013.5-2.8 13.6 13.6 0 015.1-.9 10.1 10.1 0 016.7 2.1 7.7 7.7 0 012.6 6v10.8a12.3 12.3 0 00.9 5.1v.4zm-5.9-3.9a5.1 5.1 0 002.9-.8 4.8 4.8 0 002.2-2v-4.6h-2.9a7.8 7.8 0 00-4.5 1.1 3.4 3.4 0 00-1.5 2.9 3 3 0 001 2.5 4.1 4.1 0 002.8.9zM1433.5 1731.5a5.2 5.2 0 003.3-1.1 3.8 3.8 0 001.4-2.9h5.1a8.8 8.8 0 01-4.9 7.2 10.4 10.4 0 01-4.9 1.2 10 10 0 01-7.9-3.3q-3-3.3-3-9v-.5a13.4 13.4 0 012.9-8.9 10.6 10.6 0 018-3.2 9.7 9.7 0 017 2.5 8.7 8.7 0 012.8 6.5h-5.1a4.8 4.8 0 00-1.4-3.4 4.4 4.4 0 00-3.3-1.3 4.8 4.8 0 00-4.1 1.9 10.1 10.1 0 00-1.4 5.8v.8c0 2.6.5 4.6 1.4 5.8a4.7 4.7 0 004.1 1.9zM1455.1 1725.1l-2.3 2.5v7.8h-5.4v-34h5.4v19.6l1.7-2.1 6.6-7.5h6.4l-8.9 10 9.9 14h-6.2zM1485.4 1735.4a10.6 10.6 0 01-.6-2.2 9 9 0 01-12.2.6 6.8 6.8 0 01-2.3-5.1 6.9 6.9 0 012.9-5.9q2.9-2.1 8.1-2.1h3.3v-1.5a4.5 4.5 0 00-1-3 4 4 0 00-3.2-1.1 4.9 4.9 0 00-3 .9 2.8 2.8 0 00-1.2 2.3h-5.4a6.1 6.1 0 011.3-3.6 9.2 9.2 0 013.6-2.8 13.1 13.1 0 015-.9 10.1 10.1 0 016.7 2.1 7.4 7.4 0 012.6 6v10.8a12.3 12.3 0 00.9 5.1v.4zm-5.9-3.9a5.2 5.2 0 003-.8 5.1 5.1 0 002.1-2v-4.6h-2.9a7.8 7.8 0 00-4.5 1.1 3.4 3.4 0 00-1.5 2.9 3 3 0 001 2.5 4.1 4.1 0 002.8.9zM1494.7 1723.2a14.3 14.3 0 012.6-8.9 8.6 8.6 0 017-3.3 8.1 8.1 0 016.5 2.8l.2-2.4h4.9v23.3a9.5 9.5 0 01-3 7.4 11.4 11.4 0 01-7.9 2.8 13.5 13.5 0 01-5.2-1.1 9.6 9.6 0 01-3.8-2.9l2.6-3.3a7.4 7.4 0 006.1 3 5.7 5.7 0 004.2-1.5 5.4 5.4 0 001.5-4.2v-1.6a7.9 7.9 0 01-6.2 2.6 8.4 8.4 0 01-6.8-3.4q-2.7-3.3-2.7-9.3zm5.3.5a9.6 9.6 0 001.5 5.7 4.8 4.8 0 004.1 2.1 5 5 0 004.8-2.8v-10.6a4.9 4.9 0 00-4.7-2.7 4.9 4.9 0 00-4.2 2.1 10.7 10.7 0 00-1.5 6.2zM1531.9 1735.9a10.6 10.6 0 01-8.2-3.3c-2.2-2.1-3.2-5-3.2-8.5v-.7a14.4 14.4 0 011.3-6.4 11.2 11.2 0 013.9-4.4 10.1 10.1 0 015.6-1.6c3.3 0 5.8 1 7.6 3.1s2.6 5.1 2.6 8.9v2.1h-15.6a7 7 0 002 4.7 5.6 5.6 0 004.3 1.7 7.3 7.3 0 006.1-2.9l2.9 2.7a9.2 9.2 0 01-3.9 3.4 11.9 11.9 0 01-5.4 1.2zm-.6-20.6a4.6 4.6 0 00-3.6 1.5 8 8 0 00-1.7 4.4h10.2v-.4a6.7 6.7 0 00-1.4-4.1 4.2 4.2 0 00-3.5-1.4zM1559.2 1728.9a2.4 2.4 0 00-1.2-2.2 10.9 10.9 0 00-3.9-1.3 19.1 19.1 0 01-4.6-1.5c-2.7-1.3-4.1-3.2-4.1-5.7a6.1 6.1 0 012.7-5.1 10 10 0 016.6-2.1 10.5 10.5 0 016.9 2.1 6.7 6.7 0 012.7 5.5h-5.4a3.3 3.3 0 00-1.1-2.6 4.5 4.5 0 00-3.1-1 5.2 5.2 0 00-2.9.8 2.8 2.8 0 00-1.1 2.2 2.6 2.6 0 001 2 14.7 14.7 0 004.3 1.3 22.8 22.8 0 014.9 1.7 6.9 6.9 0 012.7 2.3 5.8 5.8 0 01.9 3.3 6.4 6.4 0 01-2.7 5.3 11.6 11.6 0 01-7 2 12.9 12.9 0 01-5.3-1.1 9.4 9.4 0 01-3.6-2.9 7.5 7.5 0 01-1.2-4.1h5.2a3.6 3.6 0 001.4 3 5.6 5.6 0 003.5 1 6.2 6.2 0 003.3-.8 2.5 2.5 0 001.1-2.1zM2576.1 1727.9h-12.5l-2.6 7.5h-5.9l12.2-32.3h5.1l12.2 32.3h-5.9zm-11-4.5h9.4l-4.6-13.4zM2586.7 1723.2c0-3.6.8-6.6 2.6-8.9a8.3 8.3 0 016.9-3.3 7.5 7.5 0 016.1 2.7v-12.3h5.4v34h-4.9l-.2-2.5a7.9 7.9 0 01-6.5 3 8.3 8.3 0 01-6.8-3.4 15.3 15.3 0 01-2.6-9.3zm5.4.5a10.2 10.2 0 001.4 5.7 4.5 4.5 0 004 2.1 5 5 0 004.8-3v-10.2a4.9 4.9 0 00-4.8-2.9 4.5 4.5 0 00-4 2.1c-.9 1.3-1.4 3.4-1.4 6.2zM2612.4 1723.2a14.6 14.6 0 012.5-8.9 8.3 8.3 0 016.9-3.3 7.6 7.6 0 016.2 2.7v-12.3h5.3v34h-4.8l-.3-2.5a7.9 7.9 0 01-6.4 3 8.5 8.5 0 01-6.9-3.4 15.3 15.3 0 01-2.5-9.3zm5.3.5a10.2 10.2 0 001.4 5.7 4.6 4.6 0 004 2.1 5.3 5.3 0 004.9-3v-10.2a4.9 4.9 0 00-4.8-2.9 4.7 4.7 0 00-4.1 2.1c-.9 1.3-1.4 3.4-1.4 6.2zM2663.7 1728.9a2.4 2.4 0 00-1.2-2.2 10.3 10.3 0 00-3.9-1.3 20.7 20.7 0 01-4.6-1.5c-2.7-1.3-4-3.2-4-5.7a6 6 0 012.6-5.1 10 10 0 016.6-2.1 11 11 0 017 2.1 7 7 0 012.7 5.5h-5.4a3.4 3.4 0 00-1.2-2.6 4.5 4.5 0 00-3.1-1 4.7 4.7 0 00-2.8.8 2.6 2.6 0 00-1.2 2.2 2.4 2.4 0 001.1 2 14.8 14.8 0 004.2 1.3 20.9 20.9 0 014.9 1.7 6.2 6.2 0 012.7 2.3 5.8 5.8 0 01.9 3.3 6.5 6.5 0 01-2.6 5.3 13.3 13.3 0 01-12.3.9 8.1 8.1 0 01-3.6-2.9 6.9 6.9 0 01-1.3-4.1h5.2a4 4 0 001.5 3 5.2 5.2 0 003.5 1 5.6 5.6 0 003.2-.8 2.3 2.3 0 001.1-2.1zM2679 1714a8.6 8.6 0 016.7-3q7.7 0 7.8 8.7v15.7h-5.4v-15.5c0-1.6-.3-2.8-1.1-3.5a4.2 4.2 0 00-3.2-1 5.1 5.1 0 00-4.8 2.9v17.1h-5.4v-34h5.4zM2697.9 1723.2a14.7 14.7 0 011.4-6.4 10.8 10.8 0 013.9-4.3 11.5 11.5 0 015.9-1.5 10.2 10.2 0 017.8 3.1 12.2 12.2 0 013.3 8.3v1.2a14.7 14.7 0 01-1.3 6.4 10.2 10.2 0 01-3.9 4.3 10.7 10.7 0 01-5.9 1.6 10.5 10.5 0 01-8.1-3.4 12.8 12.8 0 01-3.1-9zm5.4.4a10.1 10.1 0 001.5 5.9 5 5 0 004.3 2 4.9 4.9 0 004.2-2.1 10.7 10.7 0 001.6-6.2 10 10 0 00-1.6-5.8 5.1 5.1 0 00-4.2-2.1 5.2 5.2 0 00-4.3 2.1 10.7 10.7 0 00-1.5 6.2zM2737.3 1716.3h-2.2c-2.4 0-4.1.9-5 2.8v16.4h-5.3v-24h5.1v2.7a6 6 0 015.4-3.1 5.6 5.6 0 012 .3zM2748.6 1705.6v5.8h4.2v4h-4.2v13.4a2.1 2.1 0 002.5 2.6l1.9-.2v4.2a15.6 15.6 0 01-3.6.5c-4.1 0-6.2-2.4-6.2-6.9v-13.6h-3.9v-4h3.9v-5.8zM2766.8 1731.5a5.5 5.5 0 003.4-1.1 4.7 4.7 0 001.4-2.9h5.1a9.2 9.2 0 01-5 7.2 10.9 10.9 0 01-12.8-2.1c-2-2.2-2.9-5.2-2.9-9v-.5c0-3.7.9-6.6 2.9-8.9a10.2 10.2 0 017.9-3.2 9.7 9.7 0 017 2.5 8.8 8.8 0 012.9 6.5h-5.1a5.8 5.8 0 00-1.4-3.4 4.5 4.5 0 00-3.4-1.3 4.5 4.5 0 00-4 1.9c-1 1.3-1.4 3.2-1.5 5.8v.8c0 2.6.5 4.6 1.4 5.8a4.8 4.8 0 004.1 1.9zM2795.2 1733a8.1 8.1 0 01-6.7 2.9 7.2 7.2 0 01-5.9-2.4 9.7 9.7 0 01-2-6.5v-15.6h5.4v15.5c0 3.1 1.3 4.6 3.7 4.6s4.5-1 5.4-2.9v-17.2h5.4v24h-5.1zM2812.7 1705.6v5.8h4.2v4h-4.2v13.4a2.1 2.1 0 002.5 2.6l1.9-.2v4.2a15.6 15.6 0 01-3.6.5c-4.2 0-6.2-2.4-6.2-6.9v-13.6h-3.9v-4h3.9v-5.8z" class="s"/><circle cx="1420.7" cy="1525.2" r="90" class="ac"/><circle cx="1839.4" cy="1525.2" r="90" class="ac"/><circle cx="2263.1" cy="1525.2" r="90" class="ac"/><circle cx="2686.8" cy="1525.2" r="90" class="ac"/><path d="M2686.8 1507v36.5M2705 1525.2h-36.4" class="ad"/><path d="M1559 86.7v41.4M1579.7 107.4h-41.4" class="ae"/><path d="M1402.6 90.4l-33.9 33.9M1402.6 124.3l-33.9-33.9" class="af"/><path d="M1391 1548.2l-15.5-15.4a10.5 10.5 0 01-2.9-7.1 12.4 12.4 0 011.1-4.2l14.3-29.7z" class="ag"/><path d="M1443.8 1494.8l-15.4-15.4a10.7 10.7 0 00-6.5-3 10.8 10.8 0 00-5.4 1.2l-28.5 14.2zM1409.4 1566.7h37.4v-16.1l-27.9-8.9-25.6 8.9z" class="ah"/><path fill="#29b6f6" d="M1388 1539.9c0 4.8.6 6 3 8.4l2.3 2.3h53.5l-26.1-29.7-32.7-29.1z"/><path d="M1435.5 1491.8H1388l58.8 58.8h16v-36.8l-19-19c-2.6-2.7-5-3-8.3-3z" class="ag"/><path d="M1391.6 1548.8c-2.4-2.3-3-4.7-3-8.9v-47.5l-.6-.6v48.1c0 4.2 0 5.4 3.6 8.9l1.7 1.8z" class="aj"/><path fill="#263238" fill-opacity=".2" d="M1462.2 1513.2v36.8h-16l.6.6h16v-36.8z"/><path d="M1443.8 1494.8c-2.9-3-5.3-3-8.9-3H1388l.6.6h46.3c1.8 0 6.3-.3 8.9 2.4z" class="aj"/><path fill="url(#b)" d="M1704.1 1663.3l-33.8-33.8a10.7 10.7 0 00-6.5-3 10.8 10.8 0 00-5.4 1.2l-28.5 14.2-14.3 29.7a12.4 12.4 0 00-1.1 4.2 10.5 10.5 0 002.9 7.1l14.3 14.1a4.9 4.9 0 001.2 1.3l18.4 18.5h37.4v-16.1h16.1v-36.8z" transform="translate(-241.9 -150.1)"/><path fill="#02539a" fill-rule="evenodd" d="M1843.4 1564.2l-23.1-22.9 12.7-13 36 35.9z"/><path fill="#45d1fd" fill-opacity=".8" fill-rule="evenodd" d="M1820 1541.3l22.9-22.9h25.7L1833 1554l-13-12.7z"/><path fill="#45d1fd" fill-rule="evenodd" d="M1800.2 1521.3l13 13 55.4-55.4h-25.9l-42.5 42.4z"/><path fill="none" stroke="gray" stroke-linecap="square" stroke-miterlimit="1.5" stroke-width="2" d="M4466.1 2935.3a57 57 0 00-57-57h-289.7a57.1 57.1 0 000 114.1h289.7a57.1 57.1 0 0057-57.1z"/><path d="M4105.7 2949.3v10h10l29.5-29.4-10-10zm47.2-27.2a2.7 2.7 0 000-3.7l-6.3-6.2a2.5 2.5 0 00-3.7 0l-4.9 4.8 10 10zM4215 2945.6a11.5 11.5 0 01-3.8 8.1 13 13 0 01-8.8 2.9 12.6 12.6 0 01-6.8-1.9 12.3 12.3 0 01-4.6-5.2 18.7 18.7 0 01-1.6-7.8v-3a18.9 18.9 0 011.6-8.1 11.6 11.6 0 014.7-5.3 13.9 13.9 0 0115.5 1 11.7 11.7 0 013.8 8.1h-5.5a7.7 7.7 0 00-2.1-4.9 7.5 7.5 0 00-10.4 1.1c-1.3 1.8-2 4.4-2 7.8v2.9a14.8 14.8 0 001.9 8 6.3 6.3 0 005.5 2.7 7 7 0 004.9-1.5c1.2-.9 1.8-2.6 2.2-4.9zM4234.1 2953.7a8.5 8.5 0 01-6.8 2.9 7.3 7.3 0 01-5.9-2.4 9.7 9.7 0 01-2-6.5v-15.6h5.4v15.5c0 3.1 1.3 4.6 3.8 4.6s4.4-1 5.3-2.9v-17.2h5.4v24h-5.1zM4258.2 2949.6a2.4 2.4 0 00-1.2-2.2 10.9 10.9 0 00-3.9-1.3 20.7 20.7 0 01-4.6-1.5c-2.7-1.3-4.1-3.2-4.1-5.7a6.1 6.1 0 012.7-5.1 10 10 0 016.6-2.1 11 11 0 017 2.1 6.9 6.9 0 012.6 5.5h-5.4a3.3 3.3 0 00-1.1-2.6 4.5 4.5 0 00-3.1-1 5.2 5.2 0 00-2.9.8 2.8 2.8 0 00-1.1 2.2 2.4 2.4 0 001.1 2 12.8 12.8 0 004.2 1.3 22.8 22.8 0 014.9 1.7 6.9 6.9 0 012.7 2.3 5.8 5.8 0 01.9 3.3 6.4 6.4 0 01-2.7 5.3 11.6 11.6 0 01-7 2 12.9 12.9 0 01-5.3-1.1 9.4 9.4 0 01-3.6-2.9 7.5 7.5 0 01-1.2-4.1h5.2a3.6 3.6 0 001.4 3 5.6 5.6 0 003.5 1 6.2 6.2 0 003.3-.8 2.5 2.5 0 001.1-2.1zM4274.9 2926.3v5.8h4.3v4h-4.3v13.4a2.8 2.8 0 00.6 2 2.4 2.4 0 001.9.6l1.9-.2v4.2a14.8 14.8 0 01-3.5.5c-4.2 0-6.2-2.4-6.2-6.9v-13.6h-4v-4h4v-5.8zM4281.6 2943.9a14.7 14.7 0 011.4-6.4 10.8 10.8 0 013.9-4.3 11.5 11.5 0 015.9-1.5 10.2 10.2 0 017.8 3.1 12.7 12.7 0 013.3 8.3v1.2a14.7 14.7 0 01-1.3 6.4 10.2 10.2 0 01-3.9 4.3 10.7 10.7 0 01-5.9 1.6 10.5 10.5 0 01-8.1-3.4 12.8 12.8 0 01-3.1-9zm5.4.4a10.1 10.1 0 001.5 5.9 5 5 0 004.3 2 4.9 4.9 0 004.2-2.1 10.7 10.7 0 001.6-6.2 10 10 0 00-1.6-5.8 5.1 5.1 0 00-4.2-2.1 5.2 5.2 0 00-4.3 2.1 10.7 10.7 0 00-1.5 6.2zM4313.5 2932.1l.2 2.5a8.8 8.8 0 016.9-2.9c3.2 0 5.4 1.2 6.6 3.7a8.5 8.5 0 017.3-3.7c2.7 0 4.7.7 5.9 2.2s2 3.6 2 6.5v15.7h-5.4v-15.6a4.5 4.5 0 00-1-3.3c-.6-.8-1.7-1.1-3.2-1.1a4 4 0 00-3 1 4.8 4.8 0 00-1.7 2.6v16.4h-5.4v-15.8c0-2.8-1.5-4.2-4.3-4.2a4.7 4.7 0 00-4.6 2.6v17.4h-5.3v-24zM4353.7 2956.1h-5.4v-24h5.4zm-5.7-30.2a3 3 0 01.8-2.1 2.9 2.9 0 012.2-.8 3.4 3.4 0 012.3.8 3 3 0 01.8 2.1 2.8 2.8 0 01-.8 2 3 3 0 01-2.3.8 2.6 2.6 0 01-2.2-.8 2.8 2.8 0 01-.8-2zM4365.3 2951.8h12.8v4.3h-19.5v-3.5l12.2-16.2h-11.9v-4.3h18.7v3.4l-12.3 16.3zM4392.6 2956.6a11 11 0 01-8.3-3.3 11.6 11.6 0 01-3.1-8.5v-.7a14.4 14.4 0 011.3-6.4 9.9 9.9 0 013.9-4.4 10.1 10.1 0 015.6-1.6c3.3 0 5.8 1 7.6 3.1s2.6 5.1 2.6 8.9v2.1h-15.6a6.6 6.6 0 002 4.7 5.6 5.6 0 004.3 1.7 7.6 7.6 0 006.1-2.9l2.9 2.7a9.9 9.9 0 01-3.9 3.4 11.9 11.9 0 01-5.4 1.2zm-.6-20.6a4.6 4.6 0 00-3.6 1.5 8.9 8.9 0 00-1.8 4.4h10.3v-.4a6.7 6.7 0 00-1.4-4.1 4.3 4.3 0 00-3.5-1.4z" class="aq"/><circle cx="4396.3" cy="429.2" r="7.1" class="ar"/><circle cx="4417.5" cy="429.2" r="7.1" class="ar"/><circle cx="4438.7" cy="429.2" r="7.1" class="ar"/><circle cx="4396.3" cy="453" r="7.1" class="ar"/><circle cx="4417.5" cy="453" r="7.1" class="ar"/><circle cx="4438.7" cy="453" r="7.1" class="ar"/><circle cx="4396.3" cy="476.8" r="7.1" class="ar"/><circle cx="4417.5" cy="476.8" r="7.1" class="ar"/><circle cx="4438.7" cy="476.8" r="7.1" class="ar"/></svg>