<svg xmlns="http://www.w3.org/2000/svg" xmlns:xlink="http://www.w3.org/1999/xlink" viewBox="0 0 280.1 559.4"><defs><path id="reuse-0" fill="#969696" d="M263.9 12.3a43.6 43.6 0 00-31.6-10.9H47.6c-17 0-26.6 6-31.6 10.9C5 23.1 3 33.7 3 52.1v455.2c0 18.4 2 29 13 39.8C21 552 30.6 558 47.6 558h184.7c16.9 0 26.5-6 31.6-10.9 11-10.8 12.9-21.4 12.9-39.8V52.1c0-18.4-1.9-29-12.9-39.8zm10.3 495c0 18-1.8 27.7-12.2 37.9-4.7 4.6-13.7 10.1-29.7 10.1H47.6c-16.1 0-25.1-5.5-29.8-10.1C7.4 535 5.7 525.3 5.7 507.3V52.1c0-18 1.7-27.7 12.1-37.9C22.5 9.6 31.5 4.1 47.6 4.1h184.7c16 0 25 5.5 29.7 10.1 10.4 10.2 12.2 19.9 12.2 37.9z" opacity=".8"/></defs><defs><linearGradient id="a" x1="-258.1" x2="-213.7" y1="-27.3" y2="-27.3" gradientTransform="matrix(1.64 0 0 1 426.2 62)" gradientUnits="userSpaceOnUse"><stop offset=".1"/><stop offset=".2" stop-color="#1d1d1d"/><stop offset=".4" stop-color="#fff"/><stop offset=".6" stop-color="#fff"/><stop offset=".8"/></linearGradient><linearGradient id="l" x1="393.1" x2="437.5" y1="479.1" y2="479.1" gradientTransform="matrix(0 1.64 -1 0 751.3 -641.5)" xlink:href="#a"/><linearGradient id="o" x1="1031.5" x2="1075.9" y1="1419.8" y2="1419.8" gradientTransform="matrix(0 -1.64 1 0 -1382.5 2273.1)" xlink:href="#a"/><linearGradient id="q" x1="798.2" x2="842.6" y1="1925.3" y2="1925.3" gradientTransform="matrix(1.64 0 0 -1 -1069.8 2474.6)" xlink:href="#a"/><linearGradient id="d" x1="17.8" x2="291.6" y1="293.6" y2="293.6" gradientUnits="userSpaceOnUse"><stop offset="0" stop-color="#c9c9c9"/><stop offset="0" stop-color="#fff"/><stop offset=".7" stop-color="#fff"/><stop offset="1" stop-color="#fff"/><stop offset="1" stop-color="#c9c9c9"/></linearGradient><linearGradient id="t" x1="154.7" x2="154.7" y1="571.9" y2="15.3" xlink:href="#d"/><linearGradient id="v" x1="15.7" x2="15.7" y1="110.7" y2="89.3" gradientUnits="userSpaceOnUse"><stop offset="0" stop-color="#181818"/><stop offset=".1" stop-color="#5a5a5a"/><stop offset=".2" stop-color="#f2f2f2"/><stop offset=".5" stop-color="#e6e6e6"/><stop offset=".9" stop-color="#f2f2f2"/><stop offset=".9" stop-color="#5a5a5a"/><stop offset="1"/></linearGradient><linearGradient id="w" x1="15.3" x2="15.3" y1="110.7" y2="89.3" gradientUnits="userSpaceOnUse"><stop offset="0" stop-color="#181818"/><stop offset=".1" stop-color="#5a5a5a"/><stop offset=".2" stop-color="#f2f2f2"/><stop offset=".5" stop-color="#e6e6e6"/><stop offset=".8" stop-color="#f2f2f2"/><stop offset=".9" stop-color="#5a5a5a"/><stop offset="1"/></linearGradient><linearGradient id="e" x1="14.9" x2="14.9" y1="110.3" y2="89.8" gradientUnits="userSpaceOnUse"><stop offset="0" stop-color="#323232"/><stop offset=".2" stop-color="#707070"/><stop offset=".8" stop-color="#707070"/><stop offset="1" stop-color="#323232"/></linearGradient><linearGradient id="f" x1="15.7" x2="15.7" y1="169.9" y2="129.3" gradientUnits="userSpaceOnUse"><stop offset="0" stop-color="#181818"/><stop offset="0" stop-color="#5a5a5a"/><stop offset=".1" stop-color="#f2f2f2"/><stop offset=".5" stop-color="#e6e6e6"/><stop offset=".9" stop-color="#f2f2f2"/><stop offset="1" stop-color="#5a5a5a"/><stop offset="1"/></linearGradient><linearGradient id="g" x1="15.3" x2="15.3" y1="169.8" y2="129.3" gradientUnits="userSpaceOnUse"><stop offset="0" stop-color="#181818"/><stop offset="0" stop-color="#5a5a5a"/><stop offset=".1" stop-color="#f2f2f2"/><stop offset=".5" stop-color="#e6e6e6"/><stop offset=".9" stop-color="#f2f2f2"/><stop offset=".9" stop-color="#5a5a5a"/><stop offset="1"/></linearGradient><linearGradient id="x" x1="14.9" x2="14.9" y1="169.4" y2="129.8" xlink:href="#e"/><linearGradient id="y" x1="16.1" x2="16.1" y1="221.2" y2="180.6" xlink:href="#f"/><linearGradient id="z" x1="15.8" x2="15.8" y1="221.1" y2="180.7" xlink:href="#g"/><linearGradient id="A" x1="15.4" x2="15.4" y1="220.7" y2="181.1" xlink:href="#e"/><linearGradient id="B" x1="1292.4" x2="1292.4" y1="-475.1" y2="-539" gradientTransform="rotate(180 793 -165.8)" xlink:href="#f"/><linearGradient id="C" x1="1291.9" x2="1291.9" y1="-475.2" y2="-538.9" gradientTransform="rotate(180 793 -165.8)" xlink:href="#g"/><linearGradient id="D" x1="1291.4" x2="1291.4" y1="-475.8" y2="-538.3" gradientTransform="rotate(180 793 -165.8)" xlink:href="#e"/><linearGradient id="E" x1="267.5" x2="286.3" y1="293.6" y2="293.6" gradientUnits="userSpaceOnUse"><stop offset="0" stop-color="#545454"/><stop offset="1" stop-color="#bbb"/></linearGradient><linearGradient id="h" x1="42.1" x2="269.9" y1="26.2" y2="26.2" gradientUnits="userSpaceOnUse"><stop offset="0"/><stop offset=".2" stop-color="#545454"/><stop offset=".8" stop-color="#545454"/><stop offset="1"/></linearGradient><linearGradient id="F" x1="39.8" x2="270.1" y1="561.2" y2="561.2" xlink:href="#h"/><linearGradient id="G" x1="23.4" x2="42.2" y1="293.6" y2="293.6" gradientUnits="userSpaceOnUse"><stop offset="0" stop-color="#bbb"/><stop offset="1" stop-color="#545454"/></linearGradient><linearGradient id="i" x1="30" x2="38.3" y1="28.2" y2="27.9" gradientUnits="userSpaceOnUse"><stop offset="0" stop-color="#191919"/><stop offset=".4" stop-color="#363636"/><stop offset="1" stop-color="#545454"/></linearGradient><linearGradient id="H" x1="271.9" x2="279.7" y1="28.6" y2="27.7" gradientUnits="userSpaceOnUse"><stop offset="0" stop-color="#545454"/><stop offset=".6" stop-color="#363636"/><stop offset="1" stop-color="#191919"/></linearGradient><linearGradient id="I" x1="279.7" x2="274.2" y1="560.3" y2="557.8" xlink:href="#i"/><linearGradient id="J" x1="29.3" x2="33.7" y1="559.9" y2="558.7" xlink:href="#i"/><linearGradient id="R" x1="170.1" x2="170.1" y1="26.3" y2="17.8" gradientUnits="userSpaceOnUse"><stop offset="0" stop-color="#231f20"/><stop offset="1" stop-color="#231f20"/></linearGradient><linearGradient id="T" x1="170.1" x2="170.1" y1="26.3" y2="17.8" gradientUnits="userSpaceOnUse"><stop offset="0" stop-color="#808184" stop-opacity="0"/><stop offset="0" stop-color="#7b7c7f" stop-opacity=".1"/><stop offset=".3" stop-color="#4a484a" stop-opacity=".6"/><stop offset=".7" stop-color="#2d292a" stop-opacity=".9"/><stop offset="1" stop-color="#231f20"/></linearGradient><linearGradient id="U" x1="170.1" x2="170.1" y1="26.2" y2="17.8" gradientUnits="userSpaceOnUse"><stop offset="0" stop-color="#bbb"/><stop offset="1" stop-color="#231f20"/></linearGradient><linearGradient id="r" x1="58.3" x2="58" y1="487.2" y2="522.4" gradientUnits="userSpaceOnUse"><stop offset="0" stop-color="#88fd70"/><stop offset=".2" stop-color="#66f758"/><stop offset=".4" stop-color="#40f13e"/><stop offset=".7" stop-color="#24ec2b"/><stop offset=".8" stop-color="#14e91f"/><stop offset="1" stop-color="#0ee81b"/></linearGradient><linearGradient id="W" x1="167.3" x2="167.1" y1="487.2" y2="522.4" xlink:href="#r"/><linearGradient id="X" x1="221.9" x2="221.7" y1="487.2" y2="522.4" gradientUnits="userSpaceOnUse"><stop offset="0" stop-color="#1e59ef"/><stop offset=".2" stop-color="#1d7cf3"/><stop offset=".6" stop-color="#1bb3f9"/><stop offset=".8" stop-color="#19d6fd"/><stop offset="1" stop-color="#19e3fe"/></linearGradient><linearGradient id="Z" x1="154.6" x2="154.6" y1="33.6" y2="38.4" gradientUnits="userSpaceOnUse"><stop offset="0" stop-color="#404040"/><stop offset="1" stop-color="#202020"/></linearGradient><linearGradient id="aa" x1="154.6" x2="154.6" y1="38.9" y2="33.2" gradientUnits="userSpaceOnUse"><stop offset="0" stop-color="#636363"/><stop offset="1" stop-color="#404040"/></linearGradient><radialGradient id="m" cx="47" cy="44.7" r="23.6" gradientTransform="matrix(.74664 .66523 -.93797 1.05276 53.7 -33.5)" gradientUnits="userSpaceOnUse"><stop offset=".8" stop-color="#fff"/><stop offset="1"/></radialGradient><radialGradient id="M" cx="1202.1" cy="-193.4" r="23.6" gradientTransform="matrix(-.66523 .74664 -1.05276 -.93797 858.6 -1034.2)" xlink:href="#m"/><radialGradient id="O" cx="2602.3" cy="-72.5" r="23.6" gradientTransform="matrix(.66523 -.74664 1.05276 .93797 -1607.4 2554.1)" xlink:href="#m"/><radialGradient id="Q" cx="2602.6" cy="561" r="23.6" gradientTransform="matrix(-.67 -.75 -1.05 .94 2582.3 1961.4)" xlink:href="#m"/><radialGradient id="S" cx="184.8" cy="35.9" r="3.4" gradientUnits="userSpaceOnUse"><stop offset="0" stop-color="#929497"/><stop offset=".2" stop-color="#b6b7b9" stop-opacity=".7"/><stop offset=".5" stop-color="#d5d6d7" stop-opacity=".4"/><stop offset=".7" stop-color="#ececed" stop-opacity=".2"/><stop offset=".9" stop-color="#fafafa" stop-opacity=".1"/><stop offset="1" stop-color="#fff" stop-opacity="0"/></radialGradient><radialGradient id="V" cx="182.3" cy="37.7" r="2.6" gradientUnits="userSpaceOnUse"><stop offset="0" stop-color="#fff"/><stop offset=".1" stop-color="#fff" stop-opacity=".8"/><stop offset=".2" stop-color="#fff" stop-opacity=".6"/><stop offset=".4" stop-color="#fff" stop-opacity=".4"/><stop offset=".5" stop-color="#fff" stop-opacity=".3"/><stop offset=".6" stop-color="#fff" stop-opacity=".1"/><stop offset=".8" stop-color="#fff" stop-opacity=".1"/><stop offset=".9" stop-color="#fff" stop-opacity="0"/><stop offset="1" stop-color="#fff" stop-opacity="0"/></radialGradient><radialGradient id="Y" cx="279" cy="128.2" r="16.1" gradientTransform="matrix(1.08 0 0 -1.08 -174.1 654.8)" gradientUnits="userSpaceOnUse"><stop offset="0" stop-color="#06c2e7"/><stop offset=".3" stop-color="#0db8ec"/><stop offset=".5" stop-color="#12aef1"/><stop offset=".8" stop-color="#1f86f9"/><stop offset="1" stop-color="#107ddd"/></radialGradient><mask id="s" width="278" height="561" x=".9" y="-.8" maskUnits="userSpaceOnUse"><g filter="url(#b)"><use transform="translate(.9 -.8)" xlink:href="#c"/></g></mask><mask id="u" width="278" height="561" x=".9" y="-.8" maskUnits="userSpaceOnUse"><g filter="url(#b)"><use transform="translate(.9 -.8)" xlink:href="#c"/></g></mask><mask id="K" width="88.8" height="84.6" x="-18.8" y="-21.4" maskUnits="userSpaceOnUse"><g filter="url(#j)"><path fill="url(#a)" d="M4 9.2h72.6v51.1H4z" transform="rotate(-37.1 12.1 49.8)"/></g></mask><mask id="L" width="84.6" height="88.8" x="215.2" y="-20.5" maskUnits="userSpaceOnUse"><g filter="url(#k)"><path fill="url(#l)" d="M246.6 1.5h51.1v72.6h-51.1z" transform="rotate(-37.1 244 53)"/></g></mask><mask id="N" width="84.6" height="88.8" x="-19.8" y="491.4" maskUnits="userSpaceOnUse"><g filter="url(#n)"><path fill="url(#o)" d="M11.6 513.4h51.1V586H11.6z" transform="rotate(-37.1 9 564.5)"/></g></mask><mask id="P" width="84.6" height="88.8" x="215" y="491.1" maskUnits="userSpaceOnUse"><g filter="url(#p)"><path fill="url(#q)" d="M235.8 523.8h72.6v51.1h-72.6z" transform="rotate(-52.9 250.9 557.5)"/></g></mask><filter id="b" color-interpolation-filters="sRGB" filterUnits="userSpaceOnUse"><feColorMatrix values="-1 0 0 0 1 0 -1 0 0 1 0 0 -1 0 1 0 0 0 1 0"/></filter><filter id="j" width="88.8" height="84.6" x="-4" y="-7.6" color-interpolation-filters="sRGB" filterUnits="userSpaceOnUse"><feFlood flood-color="#fff" result="bg"/><feBlend in="SourceGraphic" in2="bg"/></filter><filter id="k" width="84.6" height="88.8" x="229.9" y="-6.6" color-interpolation-filters="sRGB" filterUnits="userSpaceOnUse"><feFlood flood-color="#fff" result="bg"/><feBlend in="SourceGraphic" in2="bg"/></filter><filter id="n" width="84.6" height="88.8" x="-5.1" y="505.3" color-interpolation-filters="sRGB" filterUnits="userSpaceOnUse"><feFlood flood-color="#fff" result="bg"/><feBlend in="SourceGraphic" in2="bg"/></filter><filter id="p" width="84.6" height="88.8" x="229.8" y="505" color-interpolation-filters="sRGB" filterUnits="userSpaceOnUse"><feFlood flood-color="#fff" result="bg"/><feBlend in="SourceGraphic" in2="bg"/></filter></defs><path d="M278.3 52.1c0-18.2-1.9-29.5-13.4-40.8S237.7 0 232.3 0H47.6C42.2 0 26.1.4 15 11.3S1.6 33.9 1.6 52.1v455.2c0 18.2 1.8 29.5 13.4 40.8s27.2 11.3 32.6 11.3h184.7c5.4 0 21.4-.4 32.6-11.3s13.4-22.6 13.4-40.8z"/><path fill="url(#d)" d="M278.7 26.2a43.6 43.6 0 00-31.6-10.9H62.4c-17 0-26.6 6-31.6 10.9-11 10.8-13 21.4-13 39.8v455.2c0 18.4 2 29 13 39.8 5 4.9 14.6 10.9 31.6 10.9h184.7c16.9 0 26.5-6 31.6-10.9 11-10.8 12.9-21.4 12.9-39.8V66c0-18.4-1.9-29-12.9-39.8zm10.3 495c0 18-1.8 27.7-12.2 37.9-4.7 4.6-13.7 10.1-29.7 10.1H62.4c-16.1 0-25.1-5.5-29.8-10.1-10.4-10.2-12.1-19.9-12.1-37.9V66c0-18 1.7-27.7 12.1-37.9C37.3 23.5 46.3 18 62.4 18h184.7c16 0 25 5.5 29.7 10.1C287.2 38.3 289 48 289 66z" transform="translate(-14.8 -13.9)"/><g mask="url(#s)"><use opacity=".8" xlink:href="#reuse-0"/></g><path fill="url(#t)" d="M278.7 26.2a43.6 43.6 0 00-31.6-10.9H62.4c-17 0-26.6 6-31.6 10.9-11 10.8-13 21.4-13 39.8v455.2c0 18.4 2 29 13 39.8 5 4.9 14.6 10.9 31.6 10.9h184.7c16.9 0 26.5-6 31.6-10.9 11-10.8 12.9-21.4 12.9-39.8V66c0-18.4-1.9-29-12.9-39.8zm10.3 495c0 18-1.8 27.7-12.2 37.9-4.7 4.6-13.7 10.1-29.7 10.1H62.4c-16.1 0-25.1-5.5-29.8-10.1-10.4-10.2-12.1-19.9-12.1-37.9V66c0-18 1.7-27.7 12.1-37.9C37.3 23.5 46.3 18 62.4 18h184.7c16 0 25 5.5 29.7 10.1C287.2 38.3 289 48 289 66z" transform="translate(-14.8 -13.9)"/><g mask="url(#u)"><use opacity=".8" xlink:href="#reuse-0"/></g><path fill="#545454" d="M261.4 14.9C256.8 10.4 248 5 232.3 5H47.6c-15.8 0-24.5 5.4-29.1 9.9C8.3 24.8 6.6 34.4 6.6 52.1v455.2c0 17.7 1.7 27.3 11.9 37.2 4.6 4.5 13.3 9.9 29.1 9.9h184.7c15.7 0 24.5-5.4 29.1-9.9 10.1-9.9 11.8-19.5 11.8-37.2V52.1c0-17.7-1.7-27.3-11.8-37.2zm10.7 492.4c0 17.4-1.6 26.8-11.5 36.5-4.4 4.3-13 9.5-28.3 9.5H47.6c-15.4 0-23.9-5.2-28.3-9.5-9.9-9.7-11.6-19.1-11.6-36.5V52.1c0-17.4 1.7-26.8 11.6-36.5 4.4-4.3 12.9-9.5 28.3-9.5h184.7c15.3 0 23.9 5.2 28.3 9.5 9.9 9.7 11.5 19.1 11.5 36.5z"/><path fill="none" d="M47.6 552.4c-15.1 0-23.4-5.1-27.7-9.3-9.7-9.4-11.3-18.7-11.3-35.8V52.1c0-17.1 1.6-26.4 11.3-35.8C24.2 12.1 32.5 7 47.6 7h184.7c15 0 23.3 5.1 27.6 9.3 9.7 9.5 11.3 18.7 11.3 35.8v455.2c0 17.1-1.6 26.3-11.3 35.8-4.3 4.2-12.6 9.3-27.6 9.3z"/><path d="M47.6 547.5c-13.4 0-20.6-4.3-24.3-7.9-8.5-8.2-9.8-16.3-9.8-32.3V52.1c0-16 1.3-24.1 9.8-32.3 3.7-3.6 10.8-7.9 24.3-7.9h184.7c13.4 0 20.6 4.3 24.3 7.9 8.4 8.2 9.8 16.3 9.8 32.3v455.2c0 16-1.4 24.1-9.8 32.3-3.7 3.6-10.9 7.9-24.3 7.9z"/><path fill="url(#v)" d="M16.7 110.7H16a1.2 1.2 0 01-1.2-1.3V90.6a1.2 1.2 0 011.2-1.3h.7z" transform="translate(-14.8 -13.9)"/><path fill="url(#w)" d="M15.7 89.3a1.4 1.4 0 00-.9 1.3v18.8a1.2 1.2 0 00.9 1.3z" transform="translate(-14.8 -13.9)"/><path fill="url(#e)" d="M15 89.8a1.9 1.9 0 00-.2.8v18.8a1.5 1.5 0 00.2.8z" transform="translate(-14.8 -13.9)"/><path fill="url(#f)" d="M16.7 169.9H16a1.2 1.2 0 01-1.2-1.3v-38a1.2 1.2 0 011.2-1.3h.7z" transform="translate(-14.8 -13.9)"/><path fill="url(#g)" d="M15.7 129.4a1.2 1.2 0 00-.9 1.2v38a1.2 1.2 0 00.9 1.2z" transform="translate(-14.8 -13.9)"/><path fill="url(#x)" d="M15 129.8a1.9 1.9 0 00-.2.8v38a1.9 1.9 0 00.2.8z" transform="translate(-14.8 -13.9)"/><path fill="url(#y)" d="M16.9 221.2h-.4a1.2 1.2 0 01-1.2-1.3v-38a1.2 1.2 0 011.2-1.3h.4z" transform="translate(-14.8 -13.9)"/><path fill="url(#z)" d="M16.2 180.7a1.2 1.2 0 00-.9 1.2v38a1.2 1.2 0 00.9 1.2z" transform="translate(-14.8 -13.9)"/><path fill="url(#A)" d="M15.5 181.1a1.9 1.9 0 00-.2.8v38a1.9 1.9 0 00.2.8z" transform="translate(-14.8 -13.9)"/><path fill="url(#B)" d="M292.5 143.4h.5a1.8 1.8 0 011.8 1.8v60.3a1.8 1.8 0 01-1.8 1.8h-.5z" transform="translate(-14.8 -13.9)"/><path fill="url(#C)" d="M293.4 207.2a1.8 1.8 0 001.4-1.7v-60.3a1.7 1.7 0 00-1.4-1.7z" transform="translate(-14.8 -13.9)"/><path fill="url(#D)" d="M294.4 206.6a1.5 1.5 0 00.4-1.1v-60.3a1.5 1.5 0 00-.4-1.1z" transform="translate(-14.8 -13.9)"/><path fill="url(#E)" d="M277.4 547.8a19.7 19.7 0 002.2-7.2 70 70 0 001.9-19.4V66c0-10-1.2-16.7-3.1-22.7s-4.8-10.1-8.3-14.1a16.4 16.4 0 01-2.6-4.2 27.8 27.8 0 017.5 5.2c9.7 9.4 11.3 18.7 11.3 35.8v455.2c0 17.1-1.6 26.4-11.3 35.8a27.1 27.1 0 01-7.4 5.2c.3-2.2 5.7-7.4 9.8-14.4z" transform="translate(-14.8 -13.9)"/><path fill="url(#h)" d="M62.4 20.9c-8.3 0-14.5 1.5-19.1 3.6a26.6 26.6 0 01-1.1 3c-.8 1.8 1.6.1 6.5-.9a48.2 48.2 0 0113-1.6h186.4a38.2 38.2 0 0118.6 5.2l1.8 1.1c2.5 1.3 1.2-3-1.1-5.5l-1.3-1.3a45.5 45.5 0 00-19-3.6z" transform="translate(-14.8 -13.9)"/><path fill="url(#F)" d="M247.1 566.3c14.5 0 22.2-9 23-10.2-7.2 5.9-21.1 6.1-21.1 6.1H59.6c-13.6-.5-19.8-5.6-19.8-5.6s5.4 7.9 22.6 9.7z" transform="translate(-14.8 -13.9)"/><path fill="url(#G)" d="M32.3 547.8a19.7 19.7 0 01-2.2-7.2 70.5 70.5 0 01-1.8-19.4V66a75 75 0 013-22.7 38.2 38.2 0 018.3-14.1 16.4 16.4 0 002.6-4.2 29.5 29.5 0 00-7.5 5.2C25 39.6 23.4 48.9 23.4 66v455.2c0 17.1 1.6 26.4 11.3 35.8a28.8 28.8 0 007.4 5.2c-.2-2.2-5.7-7.4-9.8-14.4z" transform="translate(-14.8 -13.9)"/><path fill="#9d9d9d" d="M1.6 502.4H6v3.5H1.6zM273.9 502.4h4.4v3.5h-4.4zM1.6 53.4H6v3.5H1.6zM273.9 53.4h4.4v3.5h-4.4z" opacity=".5"/><path fill="#92cbe9" d="M253.2 23.2c-3.1-2.9-9.1-6.5-20.9-6.5h-21.1c-1.1.2-2.6.8-2.8 3.4s-.6 8.2-4.1 11.7a13.4 13.4 0 01-9.9 4.1H85.9a13.4 13.4 0 01-9.8-4.1c-3.5-3.5-3.9-8.2-4.1-11.7s-1.7-3.2-2.8-3.4H47.6c-11.8 0-17.9 3.6-20.9 6.5-7.1 7-8.4 13.6-8.4 28.9v455.2c0 15.3 1.3 21.9 8.4 28.9 3 2.9 9.1 6.5 20.9 6.5h184.7c11.8 0 17.8-3.6 20.9-6.5 7.1-7 8.3-13.6 8.3-28.9V52.1c0-15.3-1.2-21.9-8.3-28.9z"/><path fill="url(#i)" d="M34.3 26.6a36.4 36.4 0 017.8-4.8 35.3 35.3 0 00-9.5 2.7c-.8.6-6.1 5.5-8.5 9.8a39.7 39.7 0 0110.2-7.7z" transform="translate(-14.8 -13.9)"/><path fill="url(#H)" d="M275.2 26.6a36.4 36.4 0 00-7.8-4.8c2.5 0 6.1 1.2 9.3 2.6l2.1 1.8a43.5 43.5 0 016.6 8.1 39.7 39.7 0 00-10.2-7.7z" transform="translate(-14.8 -13.9)"/><path fill="url(#I)" d="M275.4 560.4a41.1 41.1 0 01-7.7 4.8c2.5 0 6-1.2 9.3-2.6l2-1.8a43.5 43.5 0 006.6-8.1 41.5 41.5 0 01-10.2 7.7z" transform="translate(-14.8 -13.9)"/><path fill="url(#J)" d="M34 560.3a32.8 32.8 0 007.8 4.9 28 28 0 01-9.4-2.6l-2-1.8a42 42 0 01-6.5-8.1c3.1 3.5 6.6 5.6 10.1 7.6z" transform="translate(-14.8 -13.9)"/><g mask="url(#K)"><path fill="url(#m)" d="M30.8 26.2c-10 9.8-12.5 19.4-12.9 34.7l2.6.2c.4-14.9 2.7-23.8 12.1-33 4.7-4.6 13.5-10 29.2-10.1l4.8-2.7h-4.2c-17 0-26.6 6-31.6 10.9z" opacity=".4" transform="translate(-14.8 -13.9)"/></g><g mask="url(#L)"><path fill="url(#M)" d="M281.2 28.1a44.2 44.2 0 00-35.1-12.8l-.2 2.7c14.9.3 23.3 3.2 32.6 12.6 4.5 4.7 10.3 13 10.4 28.7l2.7 4.7v-4.2c0-16.9-5.5-26.7-10.4-31.7z" opacity=".4" transform="translate(-14.8 -13.9)"/></g><g mask="url(#N)"><path fill="url(#O)" d="M28.3 559.4a43.8 43.8 0 0035 12.7l.3-2.6c-14.9-.4-23.4-3.2-32.6-12.6a38.7 38.7 0 01-10.5-28.7l-2.7-4.7v4.1c0 17 5.5 26.7 10.5 31.8z" opacity=".4" transform="translate(-14.8 -13.9)"/></g><g mask="url(#P)"><path fill="url(#Q)" d="M281 559.1a43.5 43.5 0 01-35.1 12.7l-.2-2.6c14.9-.4 23.4-3.2 32.6-12.6 4.6-4.7 10.4-13 10.5-28.7l2.7-4.7v4.2c0 16.9-5.5 26.7-10.5 31.7z" opacity=".4" transform="translate(-14.8 -13.9)"/></g><path fill="#fbfbfb" d="M42 33.4a1.1 1.1 0 001.1.6c1.3 0 1.8-1.2 1.7-2.7a1.8 1.8 0 01-1.8 1.1 2.3 2.3 0 01-2.3-2.4 2.4 2.4 0 012.6-2.4c1.3 0 2.6.7 2.6 3.5S45 35 43.1 35a2 2 0 01-2.2-1.6zm1.2-4.9a1.5 1.5 0 000 3 1.4 1.4 0 001.5-1.5 1.5 1.5 0 00-1.5-1.5zM48.2 29.8a.8.8 0 01.8.9.8.8 0 01-.8.8.9.9 0 01-.8-.8.9.9 0 01.8-.9zm0 3.5a.8.8 0 01.8.9.8.8 0 01-.8.8.9.9 0 01-.8-.8.9.9 0 01.8-.9zM54.9 27.7v4.8h.9v1h-.9v1.4h-1v-1.4h-3.5v-1l2.9-4.8zm-1 4.8v-3.9h-.1l-2.3 3.8h2.4zM58.8 34.9v-6h-.1l-1.6 1.2V29l1.7-1.3h1v7.2z"/><rect width="1.6" height="7.1" x="218.2" y="27.7" fill="#fbfbfb" rx=".3"/><rect width="1.6" height="5.4" x="215.2" y="29.5" fill="#fbfbfb" rx=".3"/><rect width="1.6" height="4" x="212.3" y="30.9" fill="#fbfbfb" rx=".3"/><rect width="1.6" height="2.8" x="209.3" y="32.1" fill="#fbfbfb" rx=".3"/><path fill="#fbfbfb" fill-rule="evenodd" d="M224.6 31a15.9 15.9 0 00-1.3-1.3 7.1 7.1 0 0110 0l-1.2 1.3a5.4 5.4 0 00-3.8-1.5 5.1 5.1 0 00-3.7 1.5z"/><path fill="#fbfbfb" fill-rule="evenodd" d="M226.4 32.8l-1.2-1.2a4.5 4.5 0 016.3 0l-1.3 1.2a3 3 0 00-3.8 0zM229.6 33.5l-1.3 1.2-1.2-1.2a1.8 1.8 0 012.5 0z"/><path fill="#fbfbfb" d="M249.4 27.5h-11a1.6 1.6 0 00-1.6 1.6v4.3a1.6 1.6 0 001.6 1.6h11a1.6 1.6 0 001.6-1.6v-4.3a1.6 1.6 0 00-1.6-1.6zm1 5.9a1 1 0 01-1 1h-11a.9.9 0 01-1-1v-4.3a.9.9 0 011-.9h11a1 1 0 011 .9z" opacity=".4"/><rect width="11.7" height="4.9" x="238.1" y="28.8" fill="#fbfbfb" rx=".3"/><path fill="#fbfbfb" d="M252.5 31.3a.9.9 0 01-.8.9v-1.8a.9.9 0 01.8.9z"/><circle cx="170.1" cy="22" r="4.2" fill="url(#R)"/><path fill="url(#S)" d="M188.2 35.9a3.4 3.4 0 11-3.4-3.4 3.4 3.4 0 013.4 3.4z" transform="translate(-14.8 -13.9)"/><circle cx="170.1" cy="22" r="4.2" fill="url(#T)"/><circle cx="170.1" cy="22" r="3.2" fill="#231f20"/><circle cx="170.1" cy="22" r="4.2" fill="url(#U)" opacity=".3"/><circle cx="170.1" cy="22" r="3.3" fill="#0c1327"/><path fill="url(#V)" d="M184.9 37.7a2.6 2.6 0 01-2.6 2.6 2.6 2.6 0 01-2.6-2.6 2.5 2.5 0 012.6-2.6 2.6 2.6 0 012.6 2.6z" opacity=".5" transform="translate(-14.8 -13.9)"/><circle cx="170.1" cy="22" r="1.9" fill="#231f20"/><path fill="#262261" d="M169.8 24.9c-1.5.5-5.1-2.7-1.3-5.7 1.1-.8 2.5.5 1.5 1.4-3.1 3.1-.2 4.3-.2 4.3z"/><path fill="#262261" d="M170.4 19.1c1.5-.6 5 2.8 1.2 5.8-1.1.8-2.4-.5-1.5-1.4 3.2-3.1.3-4.4.3-4.4z"/><rect width="221.7" height="58.6" x="29.1" y="475.4" fill="#fff" opacity=".3" rx="18.1"/><rect width="37.4" height="37.4" x="39.5" y="486" fill="url(#r)" rx="8.2"/><rect width="37.4" height="37.4" x="94" y="486" fill="#fff" rx="8.2"/><rect width="37.4" height="37.4" x="148.5" y="486" fill="url(#W)" rx="8.2"/><rect width="37.4" height="37.4" x="203.1" y="486" fill="url(#X)" rx="8.2"/><path fill="#fff" d="M167.3 492.6c-7.6 0-13.7 5.1-13.7 11.4 0 4.2 2.8 7.9 6.9 9.8a5.8 5.8 0 01-1.8 3s3.2 0 4.4-2a14.7 14.7 0 004.2.6c7.6 0 13.7-5.1 13.7-11.4s-6.1-11.4-13.7-11.4zM209.3 496.9v15.4l7.4-7.6zM234.2 496.9v15.4l-7.4-7.6zM225 506.3c-1.5 1.4-2.3 2.3-3.4 2.3s-1.9-.9-3.4-2.4l-1.1-1.1-7.5 7.8h24.3l-7.6-7.9z"/><path fill="#fff" d="M218.8 505.7l-9.2-9.2h24l-9.2 9.2c-2.7 2.7-2.8 2.8-5.6 0zM47.4 493.9c-2.2 1.9-2.6 4.3 1.4 9.8s9.4 10 13.3 11.9 5.5.9 6.6-.6 1.1-2.7-.5-3.9-4-3.7-6.2-1.9-3.5-.1-4.1-.8l-4.5-4.5a2.7 2.7 0 010-3.6c1.2-1.3-.4-3.6-.8-4.2s-2.4-4.7-5.2-2.2z"/><path fill="url(#Y)" d="M143.5 518.6a16 16 0 01-16 16 16 16 0 01-16.1-16 16 16 0 0116.1-16 16 16 0 0116 16z" transform="translate(-14.8 -13.9)"/><path fill="none" stroke="#fff" stroke-linecap="round" stroke-miterlimit="2.7" stroke-width=".5" d="M112.7 489.9v2.5m0 27.1V517m1.4-27v1.1m-2.9 28.3v-1.1m16.5-13.6h-2.5m-27.7 0h2.6m27.6 1.5l-1.1-.2m-29-2.7h1.1m24.7-9.1l-1.9 1.7m-19.6 19.2l1.9-1.8m20.6-18.1l-.9.7m-22.6 18.2l.9-.7m21.6 1.8l-1.9-1.8m-19.6-19.1l1.9 1.7m18.5 20.1l-.7-.8m-18.6-22l.7.8m14.8-3.1l-1 2.4m-10.6 25l.9-2.4m12-24.3l-.5.9m-13.8 25.1l.5-.9m20.7-6.4l-2.4-1M98.7 499l2.3 1m25 11.7l-1-.5m-25.7-13.5l1 .5m26.3.8l-2.3 1m-25.6 10.4l2.3-1m26.2-9l-1.1.3M98.2 509l1-.3m19.3 9.7l-1-2.4m-10.6-25l.9 2.4m9.3 25.5l-.4-1.1m-8.4-27.2l.3 1m7-1.4l-.5 2.5m-5.4 26.5l.5-2.5m6.9-26.1l-.4 1m-8.4 27.3l.3-1.1m18.9-10.2l-2.5-.5m-27.2-5.3l2.5.5m26.9 6.7l-1.1-.3m-27.9-8.3l1 .3m26.1-4.2l-2.2 1.4m-23 15l2.1-1.4m23.8-13.8l-1 .5m-25.7 13.5l1-.5m20.8 5.8l-1.5-2.1m-15.4-22.5l1.5 2.1m14.1 23.2l-.5-.9m-13.8-25.1l.5.9m15.1-.2l-1.5 2.1M104.2 517l1.5-2.1m16.6-21.6l-.7.8m-18.6 22l.7-.8m21.6-2.4l-2.2-1.4m-23-15l2.1 1.4m22.2 16.2l-.9-.7m-22.6-18.1l.9.7m25.7 5.8l-2.5.5m-27.2 5.3l2.5-.5m27.4-3.8h-1.1m-29 2.8l1.1-.2m16.9 13.2l-.5-2.5m-5.4-26.5l.5 2.5m3.9 26.7v-1.1m-2.9-28.2v1.1"/><path fill="#ff5150" d="M114.5 506.6l-3.7-3.8 13-8.8z"/><path fill="#f1f1f1" d="M114.5 506.6l-3.7-3.8-9.3 12.6z"/><path fill="url(#Z)" d="M171.7 36a2.2 2.2 0 01-2 2.4h-30.2a2.2 2.2 0 01-1.9-2.4 2.2 2.2 0 011.9-2.4h30.2a2.2 2.2 0 012 2.4z" transform="translate(-14.8 -13.9)"/><path fill="url(#aa)" d="M169.7 33.6a2.4 2.4 0 010 4.8h-30.2a2.2 2.2 0 01-1.9-2.4 2.2 2.2 0 011.9-2.4zm0-.4h-30.2a2.7 2.7 0 00-2.4 2.8 2.7 2.7 0 002.4 2.9h30.2a2.7 2.7 0 002.4-2.9 2.7 2.7 0 00-2.4-2.8z" transform="translate(-14.8 -13.9)"/><g fill="#161616"><path d="M134.2 22.9l-1.3-1.5 1.2-1.4h-1.2l.2.2-.9 1.2 1.2 1.5-1.1 1.4h1.2l-.2-.3zM138 22.9l-1.2-1.5L138 20h-1.2l.2.2-.9 1.2 1.2 1.5-1.2 1.4h1.3l-.3-.3z"/><path d="M135.5 22.9l-1.3-1.5 1.2-1.4h-1.2l.2.2-.9 1.2 1.2 1.5-1.2 1.4h1.4l-.3-.3z"/><path d="M136.8 22.9l-1.3-1.5 1.2-1.4h-1.2l.2.2-.9 1.2 1.2 1.5-1.1 1.4h1.2l-.2-.3zM140.6 22.9l-1.3-1.5 1.2-1.4h-1.1l.2.2-1 1.2 1.3 1.5-1.2 1.4h1.3l-.3-.3z"/><path d="M139.3 22.9l-1.2-1.5 1.2-1.4h-1.2l.2.2-1 1.2 1.3 1.5-1.2 1.4h1.3l-.3-.3zM141.7 22.9l-1.2-1.5 1.2-1.4h-1.1l.2.2-.9 1.2 1.2 1.5-1.1 1.4h1.1l-.3-.3zM127.8 22.9l-1.2-1.5 1.2-1.4h-1.1l.2.2-1 1.2 1.3 1.5-1.2 1.4h1.2l-.3-.3z"/><path d="M129.1 22.9l-1.2-1.5L129 20h-1.1l.2.2-1 1.2 1.3 1.5-1.2 1.4h1.3l-.3-.3zM126.6 22.9l-1.2-1.5 1.2-1.4h-1.2l.2.2-.9 1.2 1.2 1.5-1.2 1.4h1.3l-.3-.3zM131.6 22.9l-1.2-1.5 1.1-1.4h-1.1l.2.2-1 1.2 1.3 1.5-1.2 1.4h1.3l-.3-.3z"/><path d="M130.3 22.9l-1.2-1.5 1.2-1.4h-1.2l.2.2-.9 1.2 1.2 1.5-1.1 1.4h1.2l-.2-.3zM132.9 22.9l-1.3-1.5 1.2-1.4h-1.1l.2.2-1 1.2 1.3 1.5-1.2 1.4h1.3l-.3-.3zM142.9 22.9l-1.3-1.5 1.2-1.4h-1l.2.2-1 1.2 1.3 1.5-1.2 1.4h1.2l-.3-.3zM155 22.9l-1.2-1.5L155 20h-1.1l.2.2-1 1.2 1.3 1.5-1.2 1.4h1.2l-.3-.3zM151.5 22.9l-1.2-1.5 1.2-1.4h-1.1l.2.2-1 1.2 1.3 1.5-1.2 1.4h1.2l-.3-.3z"/><path d="M152.7 22.9l-1.2-1.5 1.1-1.4h-1l.2.2-1 1.2 1.3 1.5-1.2 1.4h1.2l-.3-.3z"/><path d="M153.8 22.9l-1.2-1.5 1.2-1.4h-1.1l.2.2-.9 1.2 1.3 1.5-1.2 1.4h1.1l-.2-.3zM156.5 21l-.3-.5-.7.9 1.2 1.5a2 2 0 00.1-.7l-.6-.8z"/><path d="M156.2 22.9l-1.3-1.5 1-1.2-.9-.2.2.2-.9 1.2 1.2 1.5-1.1 1.4h1.1l-.2-.2zM125.3 22.9l-1.2-1.5 1.2-1.4h-1.1v.2l-.9 1.2 1.2 1.5-.9 1.2.7.2h.3l-.3-.3zM146.6 22.9l-1.2-1.5 1.2-1.4h-1.2l.2.2-.9 1.2 1.2 1.5-1.1 1.4h1.2l-.3-.3zM144.1 22.9l-1.2-1.5 1.2-1.4h-1.2l.2.2-.9 1.2 1.2 1.5-1.1 1.4h1.2l-.3-.3z"/><path d="M147.9 22.9l-1.3-1.5 1.2-1.4h-1.1l.2.2-1 1.2 1.3 1.5-1.2 1.4h1.3l-.3-.3zM150.3 22.9l-1.2-1.5 1.2-1.4h-1.1l.2.2-1 1.2 1.3 1.5-1.2 1.4h1.2l-.3-.3z"/><path d="M149.1 22.9l-1.2-1.5 1.2-1.4h-1.2l.2.2-.9 1.2 1.2 1.5-1.1 1.4h1.2l-.3-.3zM145.4 22.9l-1.3-1.5 1.2-1.4h-1.1l.2.2-1 1.2 1.3 1.5-1.2 1.4h1.3l-.3-.3zM156.7 22.9l-1 1.2a1.8 1.8 0 001-1.2z"/></g><circle cx="140" cy="466.7" r="2.3" fill="#fff" opacity=".3"/><circle cx="150.4" cy="466.7" r="2.3" fill="#fff"/><circle cx="129.5" cy="466.7" r="2.3" fill="#fff" opacity=".3"/><path fill="#f0bb4b" d="M18.4 344.1l243.2-92.4v-25.1L18.4 319.1z"/><path fill="#77b756" d="M18.4 319.1l243.2-92.4v-25.1L18.4 294z"/><path fill="#cd4744" d="M18.4 394.3l243.2-92.5v-25L18.4 369.2z"/><path fill="#e8873a" d="M18.4 369.2l243.2-92.4v-25.1L18.4 344.1z"/><path fill="#469ad6" d="M18.4 444.4L261.6 352v-25.1L18.4 419.3z"/><path fill="#8a4192" d="M18.4 419.3l243.2-92.4v-25.1L18.4 394.3z"/><rect width="34.6" height="34.6" x="151.3" y="262.4" rx="7.6"/></svg>