<svg xmlns="http://www.w3.org/2000/svg" xmlns:xlink="http://www.w3.org/1999/xlink" viewBox="0 0 1001.75 573.17"><linearGradient id="d" x1="929.64" x2="631.41" y1="361.39" y2="264.49" gradientUnits="userSpaceOnUse"><stop offset="0" stop-color="#88aec5"/><stop offset=".25" stop-color="#88aec5"/><stop offset=".83" stop-color="#698799"/><stop offset="1" stop-color="#4c6278"/></linearGradient><linearGradient id="e" x1="666.47" x2="156.34" y1="288.18" y2="288.18" gradientUnits="userSpaceOnUse"><stop offset="0" stop-color="#b37f2c"/><stop offset=".7" stop-color="#c99036"/></linearGradient><linearGradient id="f" x1="476.62" x2="164.13" y1="350.73" y2="123.38" gradientUnits="userSpaceOnUse"><stop offset="0" stop-color="#cfcbc0"/><stop offset="1" stop-color="#d9ceca"/></linearGradient><linearGradient id="g" x1="132.92" x2="395.54" y1="21.61" y2="152.93" gradientUnits="userSpaceOnUse"><stop offset="0" stop-color="#ff9d60"/><stop offset="1" stop-color="#f6673d"/></linearGradient><linearGradient id="h" x1="517.69" x2="517.69" y1="588.41" y2="570.74" gradientUnits="userSpaceOnUse"><stop offset="0" stop-color="#e2e2e2"/><stop offset=".29" stop-color="#d1d1d1"/><stop offset=".55" stop-color="#b7b7b7"/><stop offset="1" stop-color="#7c7c7c"/></linearGradient><linearGradient id="i" x2="1001.75" y1="555.5" y2="555.5" gradientUnits="userSpaceOnUse"><stop offset="0" stop-color="#bebebe"/><stop offset=".01" stop-color="#5d5d5d"/><stop offset=".03" stop-color="#cbcbcb"/><stop offset=".26" stop-color="#b6b6b6"/><stop offset=".5" stop-color="#b6b6b6"/><stop offset=".81" stop-color="#b6b6b6"/><stop offset=".97" stop-color="#ccc"/><stop offset=".99" stop-color="#4d4d4d"/><stop offset="1" stop-color="#bdbdbd"/></linearGradient><linearGradient id="j" x1="433.47" x2="602.68" y1="571.84" y2="571.84" gradientUnits="userSpaceOnUse"><stop offset="0" stop-color="#b5b5b5"/><stop offset=".03" stop-color="#4f4f4f"/><stop offset=".05" stop-color="#c6c6c6"/><stop offset=".49" stop-color="#b4b4b4"/><stop offset=".93" stop-color="#c3c3c3"/><stop offset=".98" stop-color="#4a4a4a"/><stop offset="1" stop-color="#b7b7b7"/></linearGradient><linearGradient id="k" x1="554.26" x2="564.29" y1="512.96" y2="512.96" gradientUnits="userSpaceOnUse"><stop offset="0" stop-color="#585858"/><stop offset="1" stop-color="#2c2c2c"/></linearGradient><linearGradient id="l" x1="574.51" x2="574.51" y1="534.43" y2="532.41" gradientUnits="userSpaceOnUse"><stop offset="0" stop-color="#727272"/><stop offset=".05" stop-color="#7d7d7d"/><stop offset=".17" stop-color="#979797"/><stop offset=".31" stop-color="#ababab"/><stop offset=".46" stop-color="#b8b8b8"/><stop offset=".66" stop-color="#c1c1c1"/><stop offset="1" stop-color="#c3c3c3"/></linearGradient><linearGradient id="a" x1="562.24" x2="562.24" y1="516.2" y2="514.19" gradientUnits="userSpaceOnUse"><stop offset="0" stop-color="#a15823"/><stop offset="1" stop-color="#fd9a40"/></linearGradient><linearGradient id="m" x1="562.24" x2="562.24" y1="519.2" y2="517.18" xlink:href="#a"/><linearGradient id="n" x1="562.24" x2="562.24" y1="513.2" y2="511.19" xlink:href="#a"/><linearGradient id="b" x1="559.23" x2="559.23" y1="516.2" y2="514.19" gradientUnits="userSpaceOnUse"><stop offset="0" stop-color="#727272"/><stop offset="1" stop-color="#c3c3c3"/></linearGradient><linearGradient id="o" x1="556.25" x2="556.25" y1="516.2" y2="514.19" xlink:href="#b"/><linearGradient id="p" x1="556.25" x2="556.25" y1="513.2" y2="511.19" xlink:href="#b"/><linearGradient id="q" x1="559.23" x2="559.23" y1="513.2" y2="511.19" xlink:href="#b"/><linearGradient id="r" x1="584.6" x2="584.6" y1="522.99" y2="503.42" gradientUnits="userSpaceOnUse"><stop offset="0" stop-color="#1e65dd"/><stop offset="1" stop-color="#29b9ee"/></linearGradient><linearGradient id="s" x1="424.51" x2="424.51" y1="522.76" y2="503.2" gradientUnits="userSpaceOnUse"><stop offset="0" stop-color="#2276e6"/><stop offset="1" stop-color="#2bcdfc"/></linearGradient><linearGradient id="t" x1="538.7" x2="546.3" y1="110.76" y2="100.11" gradientTransform="matrix(1 0 0 -1 0 634.43)" gradientUnits="userSpaceOnUse"><stop offset="0" stop-color="#fc5c57"/><stop offset=".61" stop-color="#865ef6"/><stop offset="1" stop-color="#40aafa"/></linearGradient><linearGradient id="u" x1="517.31" x2="517.31" y1="538.13" y2="518.69" gradientUnits="userSpaceOnUse"><stop offset="0" stop-color="#262626"/><stop offset="1" stop-color="#d6e6ed"/></linearGradient><linearGradient id="c" x1="449.84" x2="449.84" y1="522.76" y2="503.2" gradientUnits="userSpaceOnUse"><stop offset="0" stop-color="#d1d1d1"/><stop offset="1" stop-color="#fff"/></linearGradient><radialGradient id="v" cx="608.69" cy="245.43" r="8.39" gradientTransform="matrix(1.08 0 0 -1.08 -191.43 792.36)" gradientUnits="userSpaceOnUse"><stop offset="0" stop-color="#06c2e7"/><stop offset=".25" stop-color="#0db8ec"/><stop offset=".5" stop-color="#12aef1"/><stop offset=".75" stop-color="#1f86f9"/><stop offset="1" stop-color="#107ddd"/></radialGradient><linearGradient id="w" x1="475.17" x2="475.17" y1="522.76" y2="503.2" xlink:href="#c"/><linearGradient id="x" x1="475.17" x2="475.17" y1="508.1" y2="503.2" gradientUnits="userSpaceOnUse"><stop offset="0" stop-color="#f5c945"/><stop offset="1" stop-color="#f9de73"/></linearGradient><linearGradient id="y" x1="475.17" x2="475.17" y1="508.88" y2="508.1" gradientUnits="userSpaceOnUse"><stop offset=".37" stop-color="#f1f1f1"/><stop offset="1" stop-color="#a3a2a2"/></linearGradient><rect width="816.17" height="564.56" x="93.92" y="1" rx="22"/><path fill="#939598" d="M888.08 2a21 21 0 0121 21v520.57a21 21 0 01-21 21H115.92a21 21 0 01-21-21V23a21 21 0 0121-21zm0-2H115.92a23 23 0 00-23 23v520.57a23 23 0 0023 23h772.16a23 23 0 0023-23V23a23 23 0 00-23-23z"/><path fill="url(#d)" d="M746.12 23.72L516.39 552.63h375.83V23.72z"/><path fill="url(#e)" d="M668.83 23.72L140.12 552.63h376.27L746.12 23.72z"/><path fill="url(#f)" d="M491.06 23.72l-378.6 164.63v364.28h27.66L668.83 23.72z"/><path fill="url(#g)" d="M112.46 23.72v164.63l378.6-164.63z"/><path fill="#1b1b1b" d="M94.92 543.57a20.85 20.85 0 002.08 9.06h810a20.85 20.85 0 002.08-9.06v-9.36H94.92z"/><path d="M909.08 23a20.82 20.82 0 00-2.08-9.06H97A20.82 20.82 0 0094.92 23v9.36h814.16z"/><path fill="#bcbcbc" d="M475.92 548.25h-1.08v-7.18h-.05l-3 7.12h-1l-3-7.12v7.18h-1.09v-9.31h1.35l3.22 7.77h.05l3.21-7.77h1.35zM477.26 546.27c0-1.19.92-1.9 2.61-2l1.95-.12v-.58c0-.86-.57-1.34-1.6-1.34a1.44 1.44 0 00-1.54 1.07h-1.08a2.4 2.4 0 012.63-2.07c1.65 0 2.71.88 2.71 2.25v4.77h-1.07v-1.21a2.49 2.49 0 01-2.24 1.28 2.09 2.09 0 01-2.37-2.05zm4.56-.66v-.57l-1.82.12c-1.05.06-1.59.45-1.59 1.12s.56 1.06 1.44 1.06a1.81 1.81 0 001.97-1.73zM489.07 543.56a1.68 1.68 0 00-1.81-1.33c-1.21 0-2 1-2 2.54s.84 2.55 2.06 2.55a1.66 1.66 0 001.8-1.29h1.06a2.74 2.74 0 01-2.92 2.29c-1.91 0-3.19-1.36-3.19-3.55s1.27-3.54 3.18-3.54a2.75 2.75 0 012.92 2.33zM491.4 548.25v-9.31h3.65a2.38 2.38 0 012.67 2.32 2.08 2.08 0 01-1.61 2v.06a2.23 2.23 0 012.08 2.29c0 1.64-1.17 2.61-3.15 2.61zm1.16-5.3h1.86c1.38 0 2.13-.55 2.13-1.55s-.64-1.44-1.77-1.44h-2.22zm2.3 4.28c1.4 0 2.14-.57 2.14-1.65s-.76-1.63-2.25-1.63h-2.19v3.28zM499.02 544.77c0-2.16 1.25-3.54 3.21-3.54s3.2 1.38 3.2 3.54-1.25 3.55-3.2 3.55-3.21-1.39-3.21-3.55zm5.27 0c0-1.6-.77-2.54-2.06-2.54s-2.05.95-2.05 2.54.77 2.55 2.07 2.55 2.04-.95 2.04-2.55zM506.27 544.77c0-2.16 1.25-3.54 3.2-3.54s3.21 1.38 3.21 3.54-1.25 3.55-3.21 3.55-3.2-1.39-3.2-3.55zm5.27 0c0-1.6-.77-2.54-2.07-2.54s-2.06.95-2.06 2.54.77 2.55 2.06 2.55 2.07-.95 2.07-2.55zM518.18 541.29h1.37l-3 3 3.13 4h-1.3l-2.62-3.26-.66.62v2.64h-1.12v-9.72h1.12v5.88zM528.89 545.59h-3.71l-.94 2.66h-1.22l3.44-9.31h1.14l3.44 9.31h-1.22zm-3.36-1h3l-1.49-4.25zM531.88 539.46a.71.71 0 11.71.71.71.71 0 01-.71-.71zm.15 1.83h1.15v7h-1.12zM534.74 541.29h1.06v1.13a1.68 1.68 0 011.69-1.19 2.43 2.43 0 01.46 0v1.1a2.46 2.46 0 00-.61-.06 1.48 1.48 0 00-1.5 1.64v4.3h-1.12z"/><path fill="url(#h)" d="M16.82 573.62s22.7 9.39 63.58 13.2c11.79 1.16 16.22 1.59 53 1.59h780.36s88.42-2.8 104.81-14.79c0-3.21-3.73-2.87-3.73-2.87H18.22a3.86 3.86 0 00-1.4 2.87z" transform="translate(-16.82 -15.23)"/><path fill="url(#i)" d="M0 552.63h1001.75v5.75H0z"/><path fill="url(#j)" d="M433.47 567.86v5.75a21.85 21.85 0 014.76.47c2 .6 3.77 1.32 5.08 1.54.7.11 3.22.2 3.22.2h143.09s2.52-.09 3.22-.2c1.31-.22 3.06-.94 5.08-1.54a21.85 21.85 0 014.76-.47v-5.75z" transform="translate(-16.82 -15.23)"/><path fill="#8a8a8a" d="M1001.75 552.63H0v5.75s22.7 9.39 63.58 13.2c11.79 1.16 16.22 1.59 53 1.59h780.36s88.42-2.8 104.81-14.79z"/><path fill="#fafafa" fill-opacity=".8" d="M112.46 32.36h779.72v13.41H112.46z" opacity=".5"/><path fill-opacity=".75" d="M867.24 36.01h1.22v1.22h-1.22zm2.44 0h8.5v1.22h-8.5zm-2.44 2.44h1.22v1.22h-1.22zm2.44 0h6.7v1.22h-6.7zm-2.44 2.44h1.22v1.21h-1.22zm2.44 0h8.5v1.21h-8.5z"/><path fill="none" stroke="#000" stroke-width=".91" d="M852.32 41.5a3.36 3.36 0 10-3.35-3.36 3.35 3.35 0 003.35 3.36z"/><path fill="none" stroke="#000" stroke-linecap="round" stroke-linejoin="round" stroke-width=".91" d="M857.18 43.02l-2.5-2.51"/><path d="M800.94 36.65h1l2 4.95 2-4.95h1v6.06h-.76v-2.36l.07-2.55-2 4.91h-.61l-2-4.89.08 2.53v2.36h-.8zm7 3.82v-.05a2.7 2.7 0 01.26-1.19 2 2 0 01.72-.82 2 2 0 011.06-.28 1.91 1.91 0 011.49.63 2.45 2.45 0 01.57 1.69v.06a2.73 2.73 0 01-.25 1.19 1.92 1.92 0 01-1.79 1.1 1.88 1.88 0 01-1.49-.64 2.45 2.45 0 01-.6-1.69zm.78 0a1.92 1.92 0 00.34 1.2 1.18 1.18 0 001.87 0 2.13 2.13 0 00.35-1.29 1.9 1.9 0 00-.36-1.2 1.18 1.18 0 00-1.86 0 2.14 2.14 0 00-.37 1.33zm4.16 1.8a.48.48 0 01.12-.33.45.45 0 01.35-.14.46.46 0 01.36.14.44.44 0 01.13.33.42.42 0 01-.13.32.45.45 0 01-.36.13.45.45 0 01-.35-.13.45.45 0 01-.15-.28zm7.77-3.18v1a3.53 3.53 0 01-.46 2 1.91 1.91 0 01-2.88 0 3.42 3.42 0 01-.49-1.92v-1a3.4 3.4 0 01.47-2 1.64 1.64 0 011.45-.65 1.69 1.69 0 011.44.62 3.43 3.43 0 01.44 1.99zm-.77 1.21v-1.22a2.87 2.87 0 00-.27-1.43.94.94 0 00-.87-.45 1 1 0 00-.87.45 2.69 2.69 0 00-.27 1.37v1.23a2.88 2.88 0 00.28 1.45 1 1 0 00.86.47.93.93 0 00.85-.44 2.74 2.74 0 00.26-1.39zm4.57-.29a2 2 0 01-.58.46 1.52 1.52 0 01-.73.18 1.65 1.65 0 01-.92-.26 1.73 1.73 0 01-.6-.73 2.69 2.69 0 010-2.13 1.72 1.72 0 01.66-.75 1.87 1.87 0 011-.25 1.66 1.66 0 011.41.67 2.92 2.92 0 01.52 1.84v.22a4 4 0 01-.69 2.59 2.74 2.74 0 01-2.12.83h-.15v-.61h.16a2.12 2.12 0 001.47-.5 2.14 2.14 0 00.54-1.52zm-1.19 0a1.15 1.15 0 00.71-.24 1.31 1.31 0 00.48-.59v-.3a2.14 2.14 0 00-.33-1.24 1 1 0 00-.83-.47 1 1 0 00-.82.39 1.64 1.64 0 00-.3 1 1.73 1.73 0 00.29 1 .93.93 0 00.77.49zm2.92 2.3a.48.48 0 01.12-.33.53.53 0 01.72 0 .48.48 0 01.12.33.5.5 0 11-1 0zm0-3.68a.44.44 0 01.13-.33.42.42 0 01.35-.13.45.45 0 01.36.13.45.45 0 01-.36.78.45.45 0 01-.35-.12.44.44 0 01-.13-.33zm5.12-2v4h.84v.63h-.84v1.4h-.77v-1.4h-2.76v-.46l2.71-4.2zm-.86 1.22l-1.8 2.81h1.89v-3zm4.74-1.23v6.09h-.77v-5.13l-1.55.57v-.7l2.2-.83zM782.56 37.23h1.83l2.44-1.83v7.31l-2.44-1.82h-1.83a.61.61 0 01-.6-.61v-2.44a.61.61 0 01.6-.61z"/><path fill="none" stroke="#000" stroke-linecap="round" stroke-width=".61" d="M790.37 42.1a4.68 4.68 0 000-6.39M788.35 41.19a3 3 0 000-4.26"/><path fill="none" stroke="#000" stroke-linecap="square" stroke-width=".73" d="M775.34 37.14a8.48 8.48 0 00-5.87-2.37 8.57 8.57 0 00-5.91 2.37M773.64 38.88a6.09 6.09 0 00-8.34 0M771.9 40.6a3.6 3.6 0 00-2.43-.93 3.66 3.66 0 00-2.43.92"/><path d="M769.47 43.32l1.2-.93a1.53 1.53 0 00-1.2-.59 1.51 1.51 0 00-1.23.62c1.21.9 1.23.9 1.23.9zM748.75 40.28a.92.92 0 10-.91-.92.92.92 0 00.91.92zm2.44 0a.92.92 0 10-.91-.92.92.92 0 00.9.92zm2.44 0a.92.92 0 10-.92-.92.92.92 0 00.92.92z"/><path fill="none" stroke="#000" stroke-width=".61" d="M751.18 40.58v3l2.44-2.13-1.52-1.22M751.18 38.14v-3l2.44 2.13-1.52 1.22M748.45 36.93l1.83 1.52M748.45 41.77l1.83-1.52" opacity=".5"/><path fill="#474747" fill-rule="evenodd" d="M130.64 35.1a2.05 2.05 0 00.54-1.52 2.09 2.09 0 00-1.47.73 1.94 1.94 0 00-.53 1.46 1.67 1.67 0 001.46-.67zm.49.83a12.93 12.93 0 00-1.86.44c-.38 0-1-.46-1.59-.44a2.46 2.46 0 00-2 1.23 3.41 3.41 0 00-.41 1.76 6 6 0 001 3.17c.41.59.88 1.23 1.55 1.23s.82-.4 1.6-.4 1 .4 1.59.4 1.1-.6 1.5-1.2a5.74 5.74 0 00.67-1.35 2.13 2.13 0 01-.25-3.83 2.21 2.21 0 00-1.75-1.01z"/><path fill="#484848" d="M178.88 39.3v.84h-2.44v2.57h-1.06v-6.06h3.85v.85h-2.79v1.8zm2-1.09v4.5h-1v-4.5zm-1.07-1.17a.53.53 0 01.15-.39.63.63 0 01.84 0 .5.5 0 01.16.39.49.49 0 01-.16.38.66.66 0 01-.84 0 .52.52 0 01-.13-.38zm3.11-.72v6.39h-1v-6.39zm2.96 6.45a2.11 2.11 0 01-1.56-.6 2.22 2.22 0 01-.6-1.62v-.13a2.71 2.71 0 01.26-1.2 2 2 0 01.73-.83 1.89 1.89 0 011.05-.29 1.76 1.76 0 011.42.58 2.46 2.46 0 01.5 1.66v.43h-2.94a1.37 1.37 0 00.37.89 1.16 1.16 0 00.83.32 1.38 1.38 0 001.13-.56l.55.52a1.83 1.83 0 01-.73.62 2.24 2.24 0 01-1.01.21zm-.12-3.86a.84.84 0 00-.68.29 1.43 1.43 0 00-.32.81h1.92v-.04a1.2 1.2 0 00-.26-.77.83.83 0 00-.66-.26zm15.52.23v.84h-2.49v1.89h2.91v.84h-4v-6.06h3.93v.85h-2.88v1.67zm.77 1.26a2.67 2.67 0 01.48-1.67 1.56 1.56 0 011.3-.63 1.44 1.44 0 011.15.5v-2.28h1v6.39h-.92l-.05-.47a1.49 1.49 0 01-1.21.56 1.52 1.52 0 01-1.28-.64 2.76 2.76 0 01-.47-1.73zm1 .08a2 2 0 00.26 1.08.88.88 0 00.76.38.94.94 0 00.9-.55V39.5a.93.93 0 00-.9-.54.85.85 0 00-.75.38 2.06 2.06 0 00-.26 1.17zm4.92-2.3v4.5h-1v-4.5zm-1.07-1.17a.53.53 0 01.15-.39.54.54 0 01.42-.16.56.56 0 01.42.16.53.53 0 01.16.39.53.53 0 01-.16.38.55.55 0 01-.42.15.54.54 0 01-.42-.15.52.52 0 01-.14-.35zm2.28.08h1v1.09h.79v.75h-.79v2.54a.56.56 0 00.1.38.5.5 0 00.36.11 2.2 2.2 0 00.36 0v.78a2.27 2.27 0 01-.67.1q-1.15-.07-1.15-1.33v-2.55h-.73v-.75h.73zm12.46-.47l1.54 4.77 1.54-4.74h1.16l-2.19 6.06h-1l-2.18-6.06zm5.75 1.56v4.5h-1v-4.5zm-1.08-1.17a.56.56 0 01.14-.39.61.61 0 01.43-.16.6.6 0 01.43.16.52.52 0 01.14.39.51.51 0 01-.14.38.59.59 0 01-.43.15.61.61 0 01-.43-.15.56.56 0 01-.13-.35zm4 5.76a2.11 2.11 0 01-1.56-.6 2.26 2.26 0 01-.59-1.62v-.13a2.58 2.58 0 01.26-1.2 2 2 0 01.73-.83 1.89 1.89 0 011-.29 1.78 1.78 0 011.42.58 2.51 2.51 0 01.5 1.66v.43h-2.89a1.37 1.37 0 00.37.89 1.16 1.16 0 00.82.32 1.4 1.4 0 001.14-.56l.54.52a1.7 1.7 0 01-.73.62 2.18 2.18 0 01-.99.21zm-.13-3.83a.84.84 0 00-.67.29 1.51 1.51 0 00-.33.81h2v-.07a1.2 1.2 0 00-.27-.77.8.8 0 00-.73-.26zm5.59-.73l.94 3.11.71-3.11h1l-1.24 4.5h-.84l-1-3.09-.94 3.09h-.83l-1.24-4.5h1l.73 3.08.92-3.08zm16.2-1.56l1.21 4.57.93-4.57h1.05l-1.4 6.06h-1l-1.15-4.43-1.18 4.43h-1l-1.4-6.06h1l.94 4.56 1.15-4.56zm4.72 1.56v4.5h-1v-4.5zm-1.07-1.17a.53.53 0 01.15-.39.57.57 0 01.42-.16.54.54 0 01.42.16.5.5 0 01.16.39.49.49 0 01-.16.38.54.54 0 01-.42.15.57.57 0 01-.42-.15.52.52 0 01-.12-.38zm2 1.17h.95v.52a1.62 1.62 0 011.31-.6c.94 0 1.42.53 1.44 1.6v3h-1v-2.96a1 1 0 00-.18-.64.79.79 0 00-.61-.2 1 1 0 00-.91.55v3.2h-1zm4.42 2.22a2.67 2.67 0 01.48-1.67 1.57 1.57 0 011.3-.63 1.46 1.46 0 011.16.5v-2.31h1v6.39h-.92v-.47a1.51 1.51 0 01-1.22.56 1.54 1.54 0 01-1.28-.64 2.76 2.76 0 01-.47-1.73zm1 .08a2 2 0 00.26 1.08.88.88 0 00.76.38 1 1 0 00.91-.55V39.5a1 1 0 00-.9-.54.86.86 0 00-.76.38 2.06 2.06 0 00-.21 1.17zm3.66 0v-.05a2.7 2.7 0 01.26-1.19 2 2 0 01.74-.82 2.08 2.08 0 011.09-.28 2 2 0 011.48.58 2.3 2.3 0 01.62 1.56v.24a2.7 2.7 0 01-.26 1.19 1.85 1.85 0 01-.73.81 2.1 2.1 0 01-1.1.29 2 2 0 01-1.53-.63 2.48 2.48 0 01-.51-1.74zm1 0a1.85 1.85 0 00.29 1.09 1 1 0 001.6 0 2 2 0 00.28-1.17 1.73 1.73 0 00-.3-1.08.9.9 0 00-.79-.4.94.94 0 00-.79.39 2 2 0 00-.22 1.17zm6.91-2.3l.94 3.11.71-3.11h1l-1.22 4.5h-.84l-1-3.09-.95 3.09h-.83l-1.23-4.5h1l.73 3.08.93-3.08zm17.4-1.56v6.06h-1v-2.69h-2.71v2.69h-1.05v-6.06h1.05v2.52h2.71v-2.52zm3 6.15a2.08 2.08 0 01-1.56-.6 2.22 2.22 0 01-.6-1.62v-.13a2.58 2.58 0 01.26-1.2 2 2 0 01.73-.83 1.91 1.91 0 011-.29 1.76 1.76 0 011.42.58 2.46 2.46 0 01.51 1.66v.4h-2.95a1.37 1.37 0 00.37.89 1.15 1.15 0 00.83.32 1.38 1.38 0 001.13-.56l.54.52a1.74 1.74 0 01-.72.62 2.24 2.24 0 01-.9.21zm-.13-3.86a.84.84 0 00-.67.29 1.51 1.51 0 00-.33.81h1.94v-.07a1.26 1.26 0 00-.28-.77.83.83 0 00-.6-.26zm3.65-2.62v6.39h-1v-6.39zm4.9 4.12v.07a2.76 2.76 0 01-.47 1.67 1.55 1.55 0 01-1.28.62 1.53 1.53 0 01-1.19-.49v2.13h-1v-6.23h.94v.46a1.48 1.48 0 011.21-.54 1.52 1.52 0 011.29.61 2.75 2.75 0 01.56 1.7zm-1 0a1.86 1.86 0 00-.28-1.07.86.86 0 00-.76-.39 1 1 0 00-.9.51v2a1 1 0 00.91.53.86.86 0 00.75-.39 2.07 2.07 0 00.34-1.21zM149.4 36.49a.54.54 0 00-.42.16.53.53 0 00-.15.39.52.52 0 00.15.38.54.54 0 00.42.15.57.57 0 00.42-.15.53.53 0 00.16-.38.53.53 0 00-.16-.39.57.57 0 00-.42-.16zM148.9 38.2h1.01v4.51h-1.01zM144.39 42.71h1.05v-2.57h2.44v-.84h-2.44v-1.8h2.8v-.85h-3.85zM158.28 38.63a1.42 1.42 0 00-1.15-.5 1.56 1.56 0 00-1.3.63 2.67 2.67 0 00-.48 1.67 2.76 2.76 0 00.49 1.73 1.52 1.52 0 001.28.64 1.49 1.49 0 001.21-.56v.47h.92v-6.39h-1zm0 2.79a.94.94 0 01-.9.55.88.88 0 01-.76-.38 2 2 0 01-.26-1.08 2.06 2.06 0 01.27-1.17.86.86 0 01.75-.39.94.94 0 01.9.55zM153.18 38.13a1.62 1.62 0 00-1.31.6v-.52h-.95v4.5h1v-3.2a1 1 0 01.91-.56.75.75 0 01.6.21.91.91 0 01.19.64v2.91h1v-2.94c.02-1.11-.44-1.64-1.44-1.64zM162.06 38.13a1.93 1.93 0 00-1 .29 2 2 0 00-.73.83 2.71 2.71 0 00-.26 1.2v.13a2.22 2.22 0 00.6 1.62 2.11 2.11 0 001.51.57 2.24 2.24 0 001-.23 1.74 1.74 0 00.72-.62l-.54-.52a1.38 1.38 0 01-1.13.56 1.16 1.16 0 01-.83-.32 1.37 1.37 0 01-.37-.89h2.95v-.38a2.46 2.46 0 00-.51-1.66 1.76 1.76 0 00-1.41-.58zm.93 1.91h-1.93a1.5 1.5 0 01.32-.81.84.84 0 01.68-.29.8.8 0 01.65.26 1.26 1.26 0 01.28.77zM166.85 38.23a.92.92 0 00-.5.14 1.84 1.84 0 00-.5.59v-.63h-1.09v4.44h1v-1.39a6.54 6.54 0 01.1-1.48 1 1 0 01.39-.49.63.63 0 01.41-.13 1 1 0 01.55.19l.36-1a1.46 1.46 0 00-.72-.24z"/><rect width="190.07" height="28.58" x="408.89" y="499.57" fill="#fafafa" fill-opacity=".8" opacity=".5" rx="7.23"/><path d="M424.51 527.14a1 1 0 10-1-1 1 1 0 001 1zM500.63 527.14a1 1 0 100-2 1 1 0 000 2z"/><path fill="#565b75" d="M543.26 502.44h.51v22.84h-.51z"/><rect width="19.56" height="19.56" x="549.45" y="503.2" fill="#dbdbdb" rx="4.58"/><rect width="10.03" height="14.59" x="554.26" y="505.66" fill="url(#k)" rx="1.3"/><path fill="url(#l)" d="M572.05 533.42a1 1 0 011-1H576a1 1 0 010 2h-2.89a1 1 0 01-1.06-1z" transform="translate(-16.82 -15.23)"/><rect width="8.01" height="3.39" x="555.24" y="506.82" fill="#6f6f6f" rx=".66"/><circle cx="562.24" cy="515.19" r="1.01" fill="url(#a)"/><circle cx="562.24" cy="518.19" r="1.01" fill="url(#m)"/><circle cx="562.24" cy="512.2" r="1.01" fill="url(#n)"/><circle cx="559.23" cy="515.19" r="1.01" fill="url(#b)"/><circle cx="556.25" cy="515.19" r="1.01" fill="url(#o)"/><circle cx="556.25" cy="512.2" r="1.01" fill="url(#p)"/><circle cx="559.23" cy="512.2" r="1.01" fill="url(#q)"/><rect width="19.56" height="19.56" x="574.82" y="503.42" fill="url(#r)" rx="4.58"/><path fill="#f2f2f2" d="M588.53 514.85h2.31a.9.9 0 110 1.79h-1.29l.87 1.51a.89.89 0 11-1.54.89l-3.31-5.72a2.48 2.48 0 01.31-3l2.63 4.56zm-7.41 2.71l-.77 1.34s-.54.91-1.32.47a1 1 0 01-.38-1.1l.7-1.22a1.75 1.75 0 011.77.51zm3.46-9.56l-.39-.69a.9.9 0 00-1.22-.32.89.89 0 00-.33 1.22l.91 1.58-2.92 5.06h-2.26a.9.9 0 00-.91.91.89.89 0 00.89.88h8.13a1.23 1.23 0 00-1-1.79h-2.77l3.83-6.64a.89.89 0 00-.33-1.22.9.9 0 00-1.22.32z"/><rect width="19.56" height="19.56" x="414.73" y="503.2" fill="url(#s)" rx="4.58"/><path fill="#dce0eb" d="M429.71 503.2h-4.85a21.88 21.88 0 00-1.83 6.45 30.77 30.77 0 00-.43 4.91h3.08s.08 3.05.18 4.33c.08 1 .44 3 .6 3.87h3.25a4.58 4.58 0 004.58-4.58v-10.41a4.58 4.58 0 00-4.58-4.57z"/><path fill="none" stroke="#000" stroke-linecap="round" stroke-opacity=".8" stroke-width=".83" d="M420.23 508.56v1.29M428.69 508.56v1.29"/><path fill="none" stroke="#000" stroke-linecap="round" stroke-opacity=".8" stroke-width=".69" d="M418.97 515.23s1.6 2.25 5.48 2.25a7.08 7.08 0 005.6-2.3"/><path fill="#fff" d="M520.6 503.42H531a4.58 4.58 0 014.58 4.58v10.43a4.55 4.55 0 01-4.55 4.55H520.6a4.55 4.55 0 01-4.55-4.55V508a4.55 4.55 0 014.55-4.58z"/><path fill="url(#t)" d="M540.13 523.23l6.23-1.23a.48.48 0 01.58.46v9.36a1.79 1.79 0 01-1.54 1.69c-1.53.31-1.9-.39-2-.83a1.53 1.53 0 01.21-1.48 2.13 2.13 0 011.3-.69c.29-.06 1-.08 1.16-.33a1.68 1.68 0 00.15-.78v-3.74a.48.48 0 00-.57-.47l-4.76.93a.49.49 0 00-.38.48v5.92a3.8 3.8 0 01-.24 1.34 1.4 1.4 0 01-.78.82 3 3 0 01-1.75.14 1.51 1.51 0 01-.42-2.5 3.6 3.6 0 011.58-.59c.39-.07.72 0 .83-.53s0-6 0-7.49a.49.49 0 01.4-.48z" transform="translate(-16.82 -15.23)"/><rect width="15.5" height="15.5" x="492.75" y="505.43" fill="#262626" rx="2.62"/><path fill="url(#u)" d="M522.45 520.66a2.62 2.62 0 012.62 2.62v10.26a2.62 2.62 0 01-2.62 2.62h-10.27a2.62 2.62 0 01-2.62-2.62v-10.26a2.62 2.62 0 012.62-2.62zm0-2h-10.27a4.6 4.6 0 00-4.59 4.59v10.26a4.6 4.6 0 004.59 4.59h10.27a4.6 4.6 0 004.59-4.59v-10.23a4.6 4.6 0 00-4.59-4.59z" transform="translate(-16.82 -15.23)"/><path d="M505.63 505.43a2.62 2.62 0 012.62 2.62v10.26a2.62 2.62 0 01-2.62 2.62h-10.27a2.62 2.62 0 01-2.62-2.62v-10.26a2.62 2.62 0 012.62-2.62zm0-1.41h-10.27a4 4 0 00-4 4v10.26a4 4 0 004 4h10.27a4 4 0 004-4v-10.23a4 4 0 00-4-4z"/><path fill="#fff" fill-rule="evenodd" d="M500.18 511v-.55h-2.75v.55zm-3.34-2.17v-.68l-2.58-1.22v.84l1.67.77-1.67.78v.8z"/><rect width="19.56" height="19.56" x="440.06" y="503.2" fill="url(#c)" rx="4.58"/><path fill="url(#v)" d="M475 528.21a8.37 8.37 0 01-8.36 8.37 8.37 8.37 0 01-8.37-8.37 8.36 8.36 0 018.37-8.36 8.36 8.36 0 018.36 8.36z" transform="translate(-16.82 -15.23)"/><path fill="none" stroke="#fff" stroke-linecap="round" stroke-miterlimit="2.68" stroke-width=".25" d="M449.84 505.27v1.31m0 14.11v-1.31m.77-14.07l-.06.56m-1.49 14.79l.06-.56m8.62-7.12h-1.35m-14.46 0h1.35m14.42.76l-.57-.06m-15.16-1.46l.58.06m12.87-4.75l-.95.93m-10.22 10l.95-.92m10.74-9.42l-.44.36m-11.77 9.42l.44-.35m11.25.91l-.95-.92m-10.22-10l.95.93m9.65 10.48l-.36-.43m-9.66-11.49l.36.44m7.67-1.6l-.51 1.21m-5.54 13l.52-1.22m6.23-12.71l-.27.5m-7.18 13.12l.27-.49m10.8-3.35l-1.24-.5m-13.36-5.4l1.24.5m13 6.09l-.5-.27m-13.43-7l.51.26m13.76.42l-1.24.5m-13.36 5.4l1.24-.5m13.6-4.66l-.55.16m-14.57 4.31l.55-.16m10 5.05l-.51-1.22m-5.54-13l.52 1.21m4.8 13.29l-.17-.54m-4.42-14.21l.17.53m3.67-.72l-.26 1.29m-2.82 13.83l.26-1.28m3.65-13.7l-.16.53m-4.43 14.22l.17-.54m9.88-5.33l-1.32-.26m-14.18-2.75l1.32.26m14 3.48l-.55-.16m-14.63-4.29l.55.16m13.58-2.21l-1.12.73m-12 7.84l1.12-.73m12.41-7.19l-.5.27m-13.43 7l.51-.27m10.85 3l-.75-1.09m-8-11.74l.74 1.09m7.32 12.14l-.27-.49m-7.18-13.11l.27.5m7.85-.11l-.75 1.09m-8 11.73l.74-1.09m8.66-11.28l-.36.44m-9.66 11.48l.36-.43m11.22-1.24l-1.12-.73m-12-7.84l1.12.73m11.55 8.44l-.44-.35m-11.77-9.43l.44.36m13.42 3l-1.32.26m-14.18 2.75l1.32-.26m14.29-2h-.57m-15.21 1.58l.58-.06m8.83 6.87l-.26-1.29m-2.82-13.84l.26 1.29m2.05 13.95l-.05-.56m-1.5-14.79l.06.56"/><path d="M455.55 508.11l-6.67 3.87-4.22 6.64 6.17-4.57z" opacity=".41"/><path fill="#ff5150" d="M450.79 513.98l-1.91-2 6.78-4.56z"/><path fill="#f1f1f1" d="M450.79 513.98l-1.91-2-4.87 6.57z"/><path d="M444.01 518.55l6.78-4.57 4.87-6.56z" opacity=".24"/><rect width="19.56" height="19.56" x="465.39" y="503.2" fill="url(#w)" rx="4.46"/><path fill="url(#x)" d="M469.85 503.2h10.65a4.46 4.46 0 014.46 4.46v.45h-19.57v-.45a4.46 4.46 0 014.46-4.46z"/><path fill="url(#y)" d="M465.39 508.1h19.56v.78h-19.56z"/><path fill="#c7c7cc" d="M465.63 509.14h19.02"/><path fill="none" stroke="#d1d3d4" stroke-dasharray="0 .83" stroke-linecap="round" stroke-linejoin="round" stroke-width=".39" d="M466.45 509.14h17.79"/><path fill="none" stroke="#bcbec0" stroke-miterlimit="10" stroke-width=".22" d="M465.39 512.98h19.56M465.39 517.86h19.56"/><circle cx="500.88" cy="286.18" r="9.5" fill="#fff"/></svg>