<svg xmlns="http://www.w3.org/2000/svg" xmlns:xlink="http://www.w3.org/1999/xlink" viewBox="0 0 1001.8 779.8"><defs><linearGradient id="b" x1="981.5" x2="647.85" y1="244.14" y2="359.02" gradientTransform="matrix(1 0 0 -1 0 634.43)" gradientUnits="userSpaceOnUse"><stop offset="0" stop-color="#88aec5"/><stop offset=".25" stop-color="#88aec5"/><stop offset=".83" stop-color="#698799"/><stop offset="1" stop-color="#4c6278"/></linearGradient><linearGradient id="c" x1="639.16" x2="427.49" y1="206.03" y2="382.64" gradientTransform="matrix(1 0 0 -1 0 634.43)" gradientUnits="userSpaceOnUse"><stop offset="0" stop-color="#b37f2c"/><stop offset="1" stop-color="#c99036"/></linearGradient><linearGradient id="d" x1="901.01" x2="43.94" y1="796.35" y2="172.79" gradientTransform="matrix(1 0 0 -1 0 634.43)" gradientUnits="userSpaceOnUse"><stop offset="0" stop-color="#cfcbc0"/><stop offset="1" stop-color="#d9ceca"/></linearGradient><linearGradient id="e" x1="112.63" x2="697.9" y1="550.62" y2="843.26" gradientTransform="matrix(1 0 0 -1 0 634.43)" gradientUnits="userSpaceOnUse"><stop offset="0" stop-color="#ff9d60"/><stop offset="1" stop-color="#f6673d"/></linearGradient><linearGradient id="f" x1="517.69" x2="517.69" y1="588.41" y2="570.74" gradientUnits="userSpaceOnUse"><stop offset="0" stop-color="#e2e2e2"/><stop offset=".29" stop-color="#d1d1d1"/><stop offset=".55" stop-color="#b7b7b7"/><stop offset="1" stop-color="#7c7c7c"/></linearGradient><linearGradient id="g" x2="1001.75" y1="668.51" y2="668.51" gradientUnits="userSpaceOnUse"><stop offset="0" stop-color="#bebebe"/><stop offset=".01" stop-color="#5d5d5d"/><stop offset=".03" stop-color="#cbcbcb"/><stop offset=".26" stop-color="#b6b6b6"/><stop offset=".5" stop-color="#b6b6b6"/><stop offset=".81" stop-color="#b6b6b6"/><stop offset=".97" stop-color="#ccc"/><stop offset=".99" stop-color="#4d4d4d"/><stop offset="1" stop-color="#bdbdbd"/></linearGradient><linearGradient id="h" x1="433.47" x2="602.68" y1="571.84" y2="571.84" gradientUnits="userSpaceOnUse"><stop offset="0" stop-color="#b5b5b5"/><stop offset=".03" stop-color="#4f4f4f"/><stop offset=".05" stop-color="#c6c6c6"/><stop offset=".49" stop-color="#b4b4b4"/><stop offset=".93" stop-color="#c3c3c3"/><stop offset=".98" stop-color="#4a4a4a"/><stop offset="1" stop-color="#b7b7b7"/></linearGradient><linearGradient id="i" x1="629.76" x2="653.85" y1="593.81" y2="593.81" gradientUnits="userSpaceOnUse"><stop offset="0" stop-color="#585858"/><stop offset="1" stop-color="#2c2c2c"/></linearGradient><linearGradient id="j" x1="654.82" x2="654.82" y1="511.01" y2="506.17" gradientUnits="userSpaceOnUse"><stop offset="0" stop-color="#727272"/><stop offset=".05" stop-color="#7d7d7d"/><stop offset=".17" stop-color="#979797"/><stop offset=".31" stop-color="#ababab"/><stop offset=".46" stop-color="#b8b8b8"/><stop offset=".66" stop-color="#c1c1c1"/><stop offset="1" stop-color="#c3c3c3"/></linearGradient><linearGradient id="k" x1="648.92" x2="648.92" y1="601.59" y2="596.75" gradientUnits="userSpaceOnUse"><stop offset="0" stop-color="#a15823"/><stop offset="1" stop-color="#fd9a40"/></linearGradient><linearGradient id="l" x1="648.92" x2="648.92" y1="608.78" y2="603.94" xlink:href="#k"/><linearGradient id="m" x1="648.92" x2="648.92" y1="594.4" y2="589.56" xlink:href="#k"/><linearGradient id="n" x1="641.69" x2="641.69" y1="601.59" y2="596.75" gradientUnits="userSpaceOnUse"><stop offset="0" stop-color="#727272"/><stop offset="1" stop-color="#c3c3c3"/></linearGradient><linearGradient id="o" x1="634.53" x2="634.53" y1="601.59" y2="596.75" xlink:href="#n"/><linearGradient id="p" x1="634.53" x2="634.53" y1="594.4" y2="589.56" xlink:href="#n"/><linearGradient id="q" x1="641.69" x2="641.69" y1="594.4" y2="589.56" xlink:href="#n"/><linearGradient id="r" x1="702.61" x2="702.61" y1="617.88" y2="570.91" gradientUnits="userSpaceOnUse"><stop offset="0" stop-color="#1e65dd"/><stop offset="1" stop-color="#29b9ee"/></linearGradient><linearGradient id="s" x1="318.28" x2="318.28" y1="617.34" y2="570.37" gradientUnits="userSpaceOnUse"><stop offset="0" stop-color="#2276e6"/><stop offset="1" stop-color="#2bcdfc"/></linearGradient><linearGradient id="t" x1="568.86" x2="587.11" y1="149.25" y2="123.67" gradientTransform="matrix(1 0 0 -1 0 634.43)" gradientUnits="userSpaceOnUse"><stop offset="0" stop-color="#fc5c57"/><stop offset=".61" stop-color="#865ef6"/><stop offset="1" stop-color="#40aafa"/></linearGradient><linearGradient id="u" x1="517.52" x2="517.52" y1="519.9" y2="473.21" gradientUnits="userSpaceOnUse"><stop offset="0" stop-color="#262626"/><stop offset="1" stop-color="#d6e6ed"/></linearGradient><linearGradient id="v" x1="379.09" x2="379.09" y1="617.34" y2="570.37" gradientUnits="userSpaceOnUse"><stop offset="0" stop-color="#d1d1d1"/><stop offset="1" stop-color="#fff"/></linearGradient><linearGradient id="x" x1="439.9" x2="439.9" y1="617.34" y2="570.37" xlink:href="#v"/><linearGradient id="y" x1="439.9" x2="439.9" y1="582.15" y2="570.37" gradientUnits="userSpaceOnUse"><stop offset="0" stop-color="#f5c945"/><stop offset="1" stop-color="#f9de73"/></linearGradient><linearGradient id="z" x1="439.9" x2="439.9" y1="584.02" y2="582.15" gradientUnits="userSpaceOnUse"><stop offset=".37" stop-color="#f1f1f1"/><stop offset="1" stop-color="#a3a2a2"/></linearGradient><radialGradient id="w" cx="543.3" cy="276.73" r="20.15" gradientTransform="matrix(1.08 0 0 -1.08 -191.43 792.36)" gradientUnits="userSpaceOnUse"><stop offset="0" stop-color="#06c2e7"/><stop offset=".25" stop-color="#0db8ec"/><stop offset=".5" stop-color="#12aef1"/><stop offset=".75" stop-color="#1f86f9"/><stop offset="1" stop-color="#107ddd"/></radialGradient><clipPath id="a" transform="translate(-16.8 97.8)"><path fill="none" d="M129.3 47.6h779.8v489.04H129.3z"/></clipPath><style>.an,.bf,.bh,.s,.t,.u{fill:none}.u{isolation:isolate}.j{fill:#bcbcbc}.o{fill:#fafafa;fill-opacity:.8;opacity:.5}.an,.s,.t,.u{stroke:#000}.an,.bf,.s{stroke-linecap:round}.bf{stroke-linejoin:round}.s,.u{stroke-width:.61px}.t{stroke-linecap:square;stroke-width:.73px}.u{opacity:.5}.w{fill:#484848}.an{stroke-opacity:.8;stroke-width:2px}.ap{fill:#fff}.bf{stroke:#d1d3d4;stroke-width:.94px}.bh{stroke:#bcbec0;stroke-miterlimit:10;stroke-width:.52px}</style></defs><g style="isolation:isolate"><rect width="818.2" height="566.56" x="92.9" y="113" fill="#8e8e8e" rx="23"/><rect width="814.2" height="562.56" x="94.9" y="115" rx="21"/><g clip-path="url(#a)"><path fill="url(#b)" d="M483.6 682L822.3-97.8H909V682z" transform="translate(-16.8 97.8)"/><path fill="url(#c)" d="M129.3 595.5V682h354.3L822.3-97.8z" transform="translate(-16.8 97.8)"/><path fill="url(#d)" d="M129.3 203.6v391.9l693-693.3z" transform="translate(-16.8 97.8)"/><path fill="url(#e)" d="M129.3-97.8v301.4l693-301.4z" transform="translate(-16.8 97.8)"/></g><path fill="#1b1b1b" d="M94.9 656.6a21.7 21.7 0 002.1 9.1h810a21.7 21.7 0 002.1-9.1v-9.4H94.9z"/><path d="M475.9 661.3h-1v-7.2h-.1l-3 7.1h-.9l-3-7.1h-.1v7.2h-1V652h1.3l3.2 7.7h.1l3.2-7.7h1.3zM477.3 659.3c0-1.2.9-1.9 2.6-2h1.9v-.6c0-.9-.5-1.3-1.6-1.3a1.4 1.4 0 00-1.5 1h-1.1a2.5 2.5 0 012.7-2c1.6 0 2.7.8 2.7 2.2v4.8h-1.1v-1.2a2.7 2.7 0 01-2.3 1.2 2 2 0 01-2.3-2.1zm4.5-.7v-.5H480c-1 .1-1.6.4-1.6 1.1s.6 1.1 1.5 1.1a1.8 1.8 0 001.9-1.7zM489.1 656.6a1.7 1.7 0 00-1.8-1.3 2.2 2.2 0 00-2.1 2.5c0 1.6.9 2.5 2.1 2.5a1.6 1.6 0 001.8-1.2h1.1a2.7 2.7 0 01-2.9 2.2c-1.9 0-3.2-1.3-3.2-3.5a3.2 3.2 0 013.2-3.5 2.7 2.7 0 012.9 2.3zM491.4 661.3V652h3.7a2.3 2.3 0 012.6 2.3 2 2 0 01-1.6 2 2.2 2.2 0 012.1 2.3c0 1.6-1.2 2.6-3.1 2.6zm1.2-5.3h1.8c1.4 0 2.2-.6 2.2-1.6s-.7-1.4-1.8-1.4h-2.2zm2.3 4.3c1.4 0 2.1-.6 2.1-1.7s-.7-1.6-2.2-1.6h-2.2v3.3zM499 657.8c0-2.2 1.3-3.5 3.2-3.5a3.5 3.5 0 010 7c-1.9 0-3.2-1.3-3.2-3.5zm5.3 0c0-1.6-.8-2.5-2.1-2.5s-2 .9-2 2.5.8 2.5 2 2.5 2.1-.9 2.1-2.5zM506.3 657.8c0-2.2 1.2-3.5 3.2-3.5s3.2 1.3 3.2 3.5-1.3 3.5-3.2 3.5-3.2-1.3-3.2-3.5zm5.3 0c0-1.6-.8-2.5-2.1-2.5s-2.1.9-2.1 2.5.8 2.5 2.1 2.5 2.1-.9 2.1-2.5zM518.2 654.3h1.4l-3.1 3 3.1 4h-1.3l-2.6-3.3-.6.6v2.7h-1.2v-9.7h1.2v5.8zM528.9 658.6h-3.7l-.9 2.7h-1.2l3.4-9.3h1.1l3.5 9.3h-1.3zm-3.3-1h3l-1.5-4.2h-.1zM531.9 652.5a.7.7 0 11.7.7.7.7 0 01-.7-.7zm.1 1.8h1.2v7H532zM534.8 654.3h1v1.2a1.6 1.6 0 011.7-1.2h.5v1.1h-.6a1.5 1.5 0 00-1.5 1.7v4.3h-1.1z" class="j"/><path fill="url(#f)" d="M16.8 573.6s22.7 9.4 63.6 13.2c11.8 1.2 16.2 1.6 53 1.6h780.4s88.4-2.8 104.8-14.8c0-3.2-3.8-2.9-3.8-2.9H18.2a4 4 0 00-1.4 2.9z" transform="translate(-16.8 97.8)"/><path fill="url(#g)" d="M0 665.6h1001.8v5.75H0z"/><path fill="url(#h)" d="M433.5 567.9v5.7a21.2 21.2 0 014.7.5 50 50 0 005.1 1.5l3.2.2h143.1l3.2-.2a43.6 43.6 0 005.1-1.5 22.5 22.5 0 014.8-.5v-5.7z" transform="translate(-16.8 97.8)"/><path d="M1001.8 665.7H0v5.7s22.7 9.4 63.6 13.2c11.8 1.2 16.2 1.6 53 1.6H897s88.4-2.8 104.8-14.8z" style="mix-blend-mode:overlay" fill="#8a8a8a"/><path d="M112.5 145.4h779.7v13.4H112.5z" class="o"/><path fill-opacity=".75" d="M867.3 149h1.2v1.3h-1.2zm2.4 0h8.5v1.3h-8.5zm-2.4 2.5h1.2v1.2h-1.2zm2.4 0h6.7v1.2h-6.7zm-2.4 2.4h1.2v1.2h-1.2zm2.4 0h8.5v1.2h-8.5z"/><path fill="none" stroke="#000" stroke-width=".91" d="M852.3 154.5a3.4 3.4 0 10-3.3-3.3 3.4 3.4 0 003.3 3.3z"/><path fill="none" stroke="#000" stroke-linecap="round" stroke-linejoin="round" stroke-width=".91" d="M857.2 156l-2.5-2.5"/><path d="M801 149.7h1l2 4.9 2-4.9h1v6h-.8v-4.9l-2 4.9h-.6l-2-4.9v4.9h-.8zm6.9 3.8a2 2 0 01.3-1.1 2.2 2.2 0 01.7-.9l1.1-.2a2 2 0 011.5.6 2.9 2.9 0 01.5 1.7 3.7 3.7 0 01-.2 1.2 1.9 1.9 0 01-.7.8 2.3 2.3 0 01-1.1.3 2 2 0 01-1.5-.6 2.4 2.4 0 01-.6-1.8zm.8 0a1.6 1.6 0 00.4 1.2 1.1 1.1 0 001.8 0 2.2 2.2 0 00.4-1.3 2.8 2.8 0 00-.4-1.2 1.2 1.2 0 00-1.8 0 1.8 1.8 0 00-.4 1.3zm4.2 1.8a.4.4 0 01.1-.3h.7a.4.4 0 01.1.3c0 .2 0 .3-.1.4h-.7c-.1-.1-.1-.2-.1-.4zm7.7-3.1v1a3.7 3.7 0 01-.4 2 1.8 1.8 0 01-1.5.6 1.7 1.7 0 01-1.4-.6 3.3 3.3 0 01-.5-1.9v-1.1a3.7 3.7 0 01.5-2 1.7 1.7 0 011.4-.6 1.8 1.8 0 011.5.6 3.5 3.5 0 01.4 2zm-.7 1.2v-1.3a2.6 2.6 0 00-.3-1.4 1.1 1.1 0 00-.9-.5.8.8 0 00-.8.5 2.3 2.3 0 00-.3 1.3v1.3a2.6 2.6 0 00.3 1.4.9.9 0 00.8.5 1.3 1.3 0 00.9-.4 2.6 2.6 0 00.3-1.4zm4.5-.3a1 1 0 01-.5.4 1.2 1.2 0 01-.8.2l-.9-.2-.6-.8a3 3 0 01-.2-1 3.6 3.6 0 01.2-1.1 1.6 1.6 0 01.7-.7 1.7 1.7 0 011-.3 1.6 1.6 0 011.4.7 3 3 0 01.5 1.8v.2a3.7 3.7 0 01-.7 2.6 2.5 2.5 0 01-2.1.8h-.2v-.6h.2a2.3 2.3 0 001.5-.5 2.1 2.1 0 00.5-1.5zm-1.2 0a1.3 1.3 0 00.8-.3 1 1 0 00.4-.5v-.4a2.1 2.1 0 00-.3-1.2 1 1 0 00-.8-.5 1 1 0 00-.8.4 1.8 1.8 0 00-.3 1.1 3 3 0 00.2 1 1.2 1.2 0 00.8.4zm3 2.2a.4.4 0 01.1-.3h.7a.4.4 0 01.1.3c0 .2 0 .3-.1.4h-.7c-.1-.1-.1-.2-.1-.4zm0-3.6c0-.2 0-.3.1-.4h.7c.1.1.1.2.1.4a.4.4 0 01-.1.3h-.7a.4.4 0 01-.1-.3zm5.1-2v4h.8v.6h-.8v1.4h-.8v-1.4h-2.7v-.4l2.7-4.2zm-.9 1.2l-1.8 2.8h1.9v-2.8zm4.8-1.2v6h-.7v-5.1l-1.6.6v-.7l2.2-.8zM782.6 150.3h1.8l2.4-1.9v7.3l-2.4-1.8h-1.8a.6.6 0 01-.6-.6v-2.4a.5.5 0 01.6-.6z"/><path d="M790.4 155.1a4.3 4.3 0 001.2-3.1 5.3 5.3 0 00-1.2-3.3M788.4 154.2a3.1 3.1 0 00.9-2.1 2.6 2.6 0 00-.9-2.1" class="s"/><path d="M775.4 150.2a8.5 8.5 0 00-5.9-2.4 8.3 8.3 0 00-5.9 2.4M773.7 151.9a6.3 6.3 0 00-8.4 0M771.9 153.6a3.9 3.9 0 00-2.4-.9 3.4 3.4 0 00-2.4.9" class="t"/><path d="M769.5 156.4l1.2-1a1.7 1.7 0 00-1.2-.6 1.4 1.4 0 00-1.2.7zM748.8 153.3a.9.9 0 10-.9-.9.9.9 0 00.9.9zm2.4 0a.9.9 0 10-.9-.9.9.9 0 00.9.9zm2.4 0a.9.9 0 100-1.8.9.9 0 100 1.8z"/><path d="M751.2 153.6v3.1l2.4-2.2-1.5-1.2M751.2 151.2v-3.1l2.4 2.2-1.5 1.2M748.5 150l1.8 1.5M748.5 154.8l1.8-1.5" class="u"/><path fill="#474747" fill-rule="evenodd" d="M130.7 148.1a2.5 2.5 0 00.5-1.5 2.3 2.3 0 00-1.5.7 2.1 2.1 0 00-.5 1.5 1.6 1.6 0 001.5-.7zm.5.9a14.9 14.9 0 00-1.9.4c-.4 0-1-.5-1.6-.4a2.4 2.4 0 00-2 1.2 3.3 3.3 0 00-.4 1.7 5.5 5.5 0 001 3.2c.4.6.9 1.3 1.5 1.3s.9-.4 1.6-.4 1 .4 1.6.4 1.1-.7 1.5-1.3a4 4 0 00.7-1.3 2.2 2.2 0 01-1.3-2 2.2 2.2 0 011.1-1.9 2.3 2.3 0 00-1.8-.9z"/><path d="M178.9 152.3v.9h-2.4v2.5h-1.1v-6h3.9v.8h-2.8v1.8zm2-1.1v4.5h-1v-4.5zm-1-1.1c0-.2 0-.3.1-.4l.4-.2a.7.7 0 01.6.6c0 .1-.1.2-.2.3s-.2.2-.4.2-.3 0-.4-.2a.4.4 0 01-.1-.3zm3.1-.8v6.4h-1.1v-6.4zm2.9 6.5a2.3 2.3 0 01-1.6-.6 2.1 2.1 0 01-.6-1.6 2.1 2.1 0 01.3-1.2 2.2 2.2 0 01.7-.9l1.1-.2a2 2 0 011.4.5 2.9 2.9 0 01.5 1.7v.3h-2.9a1.2 1.2 0 00.3.9 1.4 1.4 0 00.9.3 1.6 1.6 0 001.1-.5l.5.5a1.4 1.4 0 01-.7.6 1.6 1.6 0 01-1 .2zm-.1-3.8a.9.9 0 00-.7.3 1 1 0 00-.3.8h1.9a1.1 1.1 0 00-.3-.8.8.8 0 00-.6-.3zm15.5.2v.8h-2.5v1.9h2.9v.8h-3.9v-6h3.9v.8h-2.9v1.7zm.8 1.3a2.9 2.9 0 01.4-1.7 1.8 1.8 0 011.3-.6 1.3 1.3 0 011.2.5v-2.4h1v6.4h-.9v-.4a1.7 1.7 0 01-1.2.5 1.4 1.4 0 01-1.2-.6 2.3 2.3 0 01-.6-1.7zm1 0a2.7 2.7 0 00.2 1.1.9.9 0 00.8.4 1 1 0 00.9-.6v-1.9a1.1 1.1 0 00-.9-.5.9.9 0 00-.8.4 2.7 2.7 0 00-.2 1.1zm4.9-2.3v4.5h-1v-4.5zm-1.1-1.1a.7.7 0 01.6-.6l.4.2a.5.5 0 01.2.4c0 .1-.1.2-.2.3s-.2.2-.4.2-.3 0-.4-.2-.2-.2-.2-.3zm2.3 0h1v1.1h.8v.8h-.8v2.5c0 .2.1.3.1.4h.7v.8h-.6c-.8 0-1.2-.4-1.2-1.3V152h-.7v-.8h.7zm12.5-.4l1.5 4.7 1.5-4.7h1.2l-2.2 6h-1l-2.2-6zm5.7 1.5v4.5h-1v-4.5zm-1.1-1.1a.5.5 0 01.2-.4l.4-.2a.7.7 0 01.6.6c0 .1-.1.2-.2.3s-.2.2-.4.2-.3 0-.4-.2-.2-.2-.2-.3zm4.1 5.7a2.1 2.1 0 01-2.2-2.2 2.1 2.1 0 01.3-1.2 1.6 1.6 0 01.7-.9l1-.2a2.3 2.3 0 011.5.5 2.9 2.9 0 01.5 1.7v.3h-3a1.3 1.3 0 00.4.9 1.1 1.1 0 00.8.3 1.3 1.3 0 001.1-.5l.6.5c-.2.2-.4.5-.7.6a1.8 1.8 0 01-1 .2zm-.2-3.8a.7.7 0 00-.6.3 1.5 1.5 0 00-.4.8h2l-.3-.8zm5.6-.8l1 3.1.7-3.1h1l-1.3 4.5h-.8l-1-3.1-.9 3.1h-.8l-1.3-4.5h1l.7 3.1 1-3.1zm16.2-1.5l1.2 4.5.9-4.5h1l-1.4 6h-1l-1.1-4.4-1.2 4.4h-1l-1.4-6h1l1 4.5 1.1-4.5zm4.7 1.5v4.5h-1v-4.5zm-1-1.1c0-.2 0-.3.1-.4l.4-.2.5.2c.1.1.1.2.1.4a.4.4 0 01-.1.3c-.1.2-.3.2-.5.2a.4.4 0 01-.4-.2.4.4 0 01-.1-.3zm2 1.1h.9v.6a1.5 1.5 0 011.3-.6c.9 0 1.4.5 1.4 1.6v2.9h-1v-2.9a.8.8 0 00-.2-.6l-.6-.2a1.1 1.1 0 00-.9.5v3.2h-1zm4.4 2.3a2.9 2.9 0 01.5-1.7 1.5 1.5 0 011.3-.6c.5 0 .9.1 1.1.5v-2.4h1.1v6.4h-1v-.4a1.7 1.7 0 01-1.2.5 1.6 1.6 0 01-1.3-.6 2.9 2.9 0 01-.5-1.7zm1 0a1.6 1.6 0 00.3 1.1.8.8 0 00.7.4.8.8 0 00.9-.6v-1.9c-.1-.3-.4-.5-.9-.5a.8.8 0 00-.7.4 1.6 1.6 0 00-.3 1.1zm3.7 0a3.6 3.6 0 01.2-1.1 2.4 2.4 0 01.8-.9l1.1-.2a2 2 0 011.4.5 2.9 2.9 0 01.7 1.6v.2a2.1 2.1 0 01-.3 1.2 1.9 1.9 0 01-.7.8 2 2 0 01-1.1.3 2.1 2.1 0 01-1.6-.6 2.9 2.9 0 01-.5-1.8zm1 0a1.6 1.6 0 00.3 1.1.8.8 0 00.8.4.9.9 0 00.8-.4 1.7 1.7 0 00.3-1.2 1.5 1.5 0 00-.3-1 .9.9 0 00-.8-.4.8.8 0 00-.8.4 1.6 1.6 0 00-.3 1.1zm6.9-2.3l.9 3.1.8-3.1h.9l-1.2 4.5h-.8l-1-3.1-.9 3.1h-.9l-1.2-4.5h1l.7 3.1.9-3.1zm17.4-1.5v6h-1v-2.6h-2.8v2.6h-1v-6h1v2.5h2.8v-2.5zm3 6.1a2.1 2.1 0 01-2.2-2.2 2.1 2.1 0 01.3-1.2 2.2 2.2 0 01.7-.9l1.1-.2a2 2 0 011.4.5 2.9 2.9 0 01.5 1.7v.3h-3a1.9 1.9 0 00.4.9 1.1 1.1 0 00.8.3 1.7 1.7 0 001.2-.5l.5.5c-.2.2-.4.5-.7.6a1.6 1.6 0 01-1 .2zm-.1-3.8a.9.9 0 00-.7.3 1 1 0 00-.3.8h1.9a1.1 1.1 0 00-.3-.8zm3.6-2.7v6.4h-1v-6.4zm4.9 4.2a2.3 2.3 0 01-.5 1.7 1.4 1.4 0 01-1.2.6 1.3 1.3 0 01-1.2-.5v2.2h-1v-6.3h.9v.5a1.7 1.7 0 012.5.1 2.2 2.2 0 01.5 1.7zm-1-.1a1.5 1.5 0 00-.3-1 .7.7 0 00-.7-.4 1.1 1.1 0 00-.9.5v2a1.1 1.1 0 00.9.5.8.8 0 00.7-.4 1.7 1.7 0 00.3-1.2zM149.4 149.5l-.4.2c-.1.1-.1.2-.1.4a.4.4 0 00.1.3c.1.2.2.2.4.2s.3 0 .4-.2.2-.2.2-.3a.7.7 0 00-.6-.6zM148.9 151.2h1v4.51h-1zM144.4 155.7h1v-2.6h2.5v-.8h-2.5v-1.8h2.8v-.8h-3.8v6zM158.3 151.7a1.3 1.3 0 00-1.2-.5 1.8 1.8 0 00-1.3.6 2.9 2.9 0 00-.4 1.7 2.3 2.3 0 00.5 1.7 1.4 1.4 0 001.2.6 2.1 2.1 0 001.3-.5v.4h.9v-6.4h-1zm0 2.7a1 1 0 01-.9.6.9.9 0 01-.8-.4 3.1 3.1 0 010-2.2.9.9 0 01.8-.4 1.1 1.1 0 01.9.5zM153.2 151.2a1.8 1.8 0 00-1.3.6v-.6h-1v4.5h1.1v-3.2a1.1 1.1 0 01.9-.5l.6.2a.8.8 0 01.2.6v2.9h1v-2.9c0-1.1-.5-1.6-1.5-1.6zM162.1 151.2l-1.1.2a2.2 2.2 0 00-.7.9 2.1 2.1 0 00-.3 1.2 2.1 2.1 0 00.6 1.6 2.3 2.3 0 001.6.6 1.6 1.6 0 001-.2 1.4 1.4 0 00.7-.6l-.5-.5a1.6 1.6 0 01-1.1.5 1.1 1.1 0 01-1.2-1.2h2.9v-.4a2.9 2.9 0 00-.5-1.7 2 2 0 00-1.4-.4zm.9 1.9h-1.9a1 1 0 01.3-.8.9.9 0 01.7-.3l.6.2a1.1 1.1 0 01.3.8zM166.9 151.3h-.5c-.2.1-.3.3-.5.6v-.6h-1.1v4.5h1v-1.4c0-.7.1-1.2.1-1.5l.4-.5h.4l.6.2.3-1a1 1 0 00-.7-.3z" class="w"/><rect width="456.3" height="68.61" x="280.8" y="561.7" class="o" rx="17.4"/><path d="M318.3 627.9a2.5 2.5 0 10-2.4-2.5 2.5 2.5 0 002.4 2.5zM501.1 627.9a2.5 2.5 0 10-2.5-2.5 2.5 2.5 0 002.5 2.5z"/><path fill="#565b75" d="M603.4 568.6h1.2v54.8h-1.2z"/><rect width="47" height="46.97" x="618.2" y="570.4" fill="#dbdbdb" rx="11"/><rect width="24.1" height="35.03" x="629.8" y="576.3" fill="url(#i)" rx="3.1"/><path fill="url(#j)" d="M648.9 508.6a2.4 2.4 0 012.4-2.4h7a2.4 2.4 0 110 4.8h-7a2.4 2.4 0 01-2.4-2.4z" transform="translate(-16.8 97.8)"/><rect width="19.2" height="8.15" x="632.1" y="579.1" fill="#6f6f6f" rx="1.6"/><circle cx="648.9" cy="599.2" r="2.4" fill="url(#k)"/><circle cx="648.9" cy="606.4" r="2.4" fill="url(#l)"/><circle cx="648.9" cy="592" r="2.4" fill="url(#m)"/><circle cx="641.7" cy="599.2" r="2.4" fill="url(#n)"/><circle cx="634.5" cy="599.2" r="2.4" fill="url(#o)"/><circle cx="634.5" cy="592" r="2.4" fill="url(#p)"/><circle cx="641.7" cy="592" r="2.4" fill="url(#q)"/><rect width="47" height="46.97" x="679.1" y="570.9" fill="url(#r)" rx="11"/><path fill="#f2f2f2" d="M712.1 598.4h5.5a2.2 2.2 0 012.2 2.2 2.2 2.2 0 01-2.2 2.1h-3.1l2.1 3.6a2.1 2.1 0 01-.7 2.9 2.1 2.1 0 01-3-.8l-7.9-13.7a6.1 6.1 0 01.7-7.3l6.4 11zm-17.8 6.5l-1.9 3.2s-1.3 2.2-3.1 1.1a2.3 2.3 0 01-1-2.6l1.7-3a4.4 4.4 0 014.3 1.3zm8.3-23l-1-1.6a2.1 2.1 0 00-2.9-.8 2.1 2.1 0 00-.8 2.9l2.2 3.8-7 12.2h-5.5a2 2 0 00-2.1 2.2 2.1 2.1 0 002.1 2.1h19.5a2.9 2.9 0 00-2.4-4.3H698l9.2-16a2.1 2.1 0 00-.7-2.9 2.1 2.1 0 00-3 .8z"/><rect width="47" height="46.97" x="294.8" y="570.4" fill="url(#s)" rx="11"/><path fill="#dce0eb" d="M330.8 570.4h-11.7a54.4 54.4 0 00-4.4 15.5c-1.2 9.9-1 11.8-1 11.8h7.4s.2 7.3.4 10.4 1.1 7.1 1.5 9.3h7.8a11 11 0 0011-11v-25a11 11 0 00-11-11z"/><path d="M308 583.3v3.1M328.3 583.3v3.1" class="an"/><path fill="none" stroke="#000" stroke-linecap="round" stroke-opacity=".8" stroke-width="1.66" d="M305 599.3s3.9 5.4 13.2 5.4 13.4-5.5 13.4-5.5"/><path d="M549 570.9h25a11 11 0 0111 11v25a10.9 10.9 0 01-10.9 10.9H549a10.9 10.9 0 01-11-10.8v-25.2a10.9 10.9 0 0111-10.9z" class="ap"/><path fill="url(#t)" d="M572.3 484.1l15-2.9a1.1 1.1 0 011.3 1.1l.2 22.5a4.2 4.2 0 01-3.7 4c-3.7.8-4.6-.9-4.9-2a4 4 0 01.5-3.6 5.2 5.2 0 013.1-1.6c.7-.2 2.4-.2 2.8-.8a4.4 4.4 0 00.4-1.9V490a1.1 1.1 0 00-1.3-1.2l-11.4 2.3a1.1 1.1 0 00-1 1.1c0 3.1.1 13.1 0 14.2a6.6 6.6 0 01-.6 3.2 3.3 3.3 0 01-1.8 2 6.6 6.6 0 01-4.2.3 3.1 3.1 0 01-2.2-3.1 3.4 3.4 0 011.2-2.9 9.6 9.6 0 013.8-1.4c.9-.1 1.7 0 2-1.3s0-14.2 0-17.9a1.1 1.1 0 01.8-1.2z" transform="translate(-16.8 97.8)"/><rect width="37.2" height="37.2" x="482.1" y="575.7" fill="#262626" rx="6.3"/><path fill="url(#u)" d="M529.8 478a6.3 6.3 0 016.3 6.2v24.7a6.3 6.3 0 01-6.3 6.3h-24.6a6.3 6.3 0 01-6.3-6.3v-24.7a6.3 6.3 0 016.3-6.2h24.6m0-4.8h-24.6a11 11 0 00-11 11v24.7a11 11 0 0011 11h24.6a11.1 11.1 0 0011.1-11v-24.7a11.1 11.1 0 00-11.1-11z" transform="translate(-16.8 97.8)"/><path d="M513 575.8a6.3 6.3 0 016.3 6.2v24.7a6.3 6.3 0 01-6.3 6.3h-24.6a6.3 6.3 0 01-6.3-6.3V582a6.3 6.3 0 016.3-6.2H513m0-3.4h-24.6a9.7 9.7 0 00-9.7 9.6v24.7a9.7 9.7 0 009.7 9.6H513a9.6 9.6 0 009.7-9.6V582a9.6 9.6 0 00-9.7-9.6z"/><path fill="#fff" fill-rule="evenodd" d="M500.1 589.1v-1.3h-6.6v1.3zm-8.1-5.2v-1.6l-6.2-3v1.9l4.1 1.9-4.1 1.9v1.9z"/><rect width="47" height="46.97" x="355.6" y="570.4" fill="url(#v)" rx="11"/><path fill="url(#w)" d="M416 496.1a20.1 20.1 0 01-20.1 20.1 20.1 20.1 0 01-20.1-20.1 20.1 20.1 0 0120.1-20.1 20.1 20.1 0 0120.1 20.1z" transform="translate(-16.8 97.8)"/><path fill="none" stroke="#fff" stroke-linecap="round" stroke-miterlimit="2.68" stroke-width=".6" d="M379.1 575.4v3.1m0 33.9v-3.2m1.9-33.7l-.2 1.3m-3.6 35.5l.2-1.3m20.7-17.1h-3.3m-34.7 0h3.3m34.6 1.8h-1.4m-36.4-3.6h1.4m30.9-11.3l-2.3 2.2m-24.5 24l2.3-2.3m25.8-22.6l-1.1.9m-28.3 22.6l1.1-.8m27 2.2l-2.3-2.3m-24.5-23.9l2.3 2.2m23.1 25.2l-.8-1.1m-23.2-27.5l.9 1m18.4-3.8l-1.3 2.9M371.9 611l1.2-2.9m15-30.5l-.7 1.1m-17.2 31.5l.6-1.2m25.8-8l-2.9-1.2m-32.1-13l3 1.2m31.2 14.6l-1.2-.6m-32.2-16.8l1.2.6m33 1l-2.9 1.2m-32.1 13l3-1.2m32.7-11.3l-1.4.4M361 599.3l1.3-.4m24.1 12.1l-1.3-2.9m-13.2-31.3l1.2 2.9m11.5 31.9l-.4-1.3m-10.6-34.1l.4 1.3m8.8-1.8l-.6 3.1m-6.8 33.2l.6-3m8.6-32.8l-.4 1.3m-10.6 34.1l.4-1.3m23.7-12.8l-3.2-.6m-34-6.6l3.2.6m33.6 8.4l-1.4-.4M361 588.5l1.3.4m32.6-5.3l-2.7 1.7m-28.9 18.9l2.7-1.8m29.8-17.2l-1.2.6m-32.2 16.8l1.2-.6m26 7.3l-1.7-2.6m-19.3-28.2l1.8 2.6m17.7 29.1l-.7-1.2m-17.2-31.4l.6 1.1m18.8-.2l-1.7 2.6m-19.3 28.2l1.8-2.6m20.7-27.1l-.8 1m-23.2 27.6l.9-1.1m26.9-2.9l-2.7-1.8m-28.9-18.8l2.7 1.7m27.8 20.3l-1.1-.8m-28.3-22.7l1.1.9m32.2 7.3l-3.2.6m-34 6.6l3.2-.6m34.3-4.8h-1.4m-36.4 3.6h1.4m21.2 16.4l-.6-3m-6.8-33.3l.6 3.1m5 33.5l-.2-1.3m-3.5-35.5v1.2"/><path d="M392.8 582.2l-16 9.3-10.1 15.9 14.8-11z" style="isolation:isolate" opacity=".41"/><path fill="#ff5150" d="M381.4 596.3l-4.6-4.8 16.3-11z"/><path fill="#f1f1f1" d="M381.4 596.3l-4.6-4.8-11.7 15.7z"/><path d="M365.1 607.2l16.3-10.9 11.7-15.8z" style="isolation:isolate" opacity=".24"/><rect width="47" height="46.97" x="416.4" y="570.4" fill="url(#x)" rx="10.7"/><path fill="url(#y)" d="M427.1 570.4h25.6a10.7 10.7 0 0110.7 10.7v1.1h-47v-1.1a10.7 10.7 0 0110.7-10.7z"/><path fill="url(#z)" d="M416.4 582.1h47v1.87h-47z"/><path fill="#c7c7cc" d="M417 584.6h45.7"/><path d="M417 584.6" class="bf"/><path fill="none" stroke="#d1d3d4" stroke-dasharray="0 1.99" stroke-linecap="round" stroke-linejoin="round" stroke-width=".94" d="M419 584.6h42.7"/><path d="M462.7 584.6" class="bf"/><path d="M416.4 593.9h47M416.4 605.6h47" class="bh"/><circle cx="500.9" cy="389.9" r="23" class="ap"/></g></svg>