<svg xmlns="http://www.w3.org/2000/svg" xmlns:xlink="http://www.w3.org/1999/xlink" viewBox="0 0 517.1 1000"><linearGradient id="a" x1="4.4" x2="17.2" y1="499.4" y2="499.4" gradientUnits="userSpaceOnUse"><stop offset="0" stop-color="#505050"/><stop offset=".4" stop-color="#212121"/><stop offset="1"/></linearGradient><linearGradient id="d" x1="-2997.4" x2="-2984.6" y1="499.6" y2="499.6" gradientTransform="matrix(-1 0 0 1 -2484.8 0)" xlink:href="#a"/><linearGradient id="b" x1="179.3" x2="338.6" y1="959.8" y2="959.8" gradientUnits="userSpaceOnUse"><stop offset="0" stop-color="#171717"/><stop offset="1" stop-color="#171717"/></linearGradient><linearGradient id="e" x1="176.6" x2="335.8" y1="35.3" y2="35.3" xlink:href="#b"/><linearGradient id="c" x1="419.7" x2="412.9" y1="44" y2="39.5" gradientUnits="userSpaceOnUse"><stop offset="0" stop-color="#151515"/><stop offset=".6" stop-color="#343434"/><stop offset="1" stop-color="#343434"/></linearGradient><linearGradient id="f" x1="420.9" x2="418.4" y1="46.3" y2="44.6" xlink:href="#c"/><radialGradient id="g" cx="258.7" cy="697.8" r="228.3" gradientTransform="matrix(1 0 0 .7 1.7 209.3)" gradientUnits="userSpaceOnUse"><stop offset="0" stop-color="#1c3192"/><stop offset="1" stop-color="#00257e"/></radialGradient><linearGradient id="h" x1="259.4" x2="259.4" y1="745.5" y2="87.4" gradientUnits="userSpaceOnUse"><stop offset="0" stop-color="#ffd03b"/><stop offset="1" stop-color="#d19918"/></linearGradient><linearGradient id="i" x1="210.8" x2="492.7" y1="579" y2="579" gradientUnits="userSpaceOnUse"><stop offset="0" stop-color="#149bd4"/><stop offset="1" stop-color="#0f55a8"/></linearGradient><linearGradient id="j" x1="35.6" x2="210.8" y1="478.2" y2="478.2" gradientUnits="userSpaceOnUse"><stop offset="0" stop-color="#0356bb"/><stop offset="1" stop-color="#037bd2"/></linearGradient><linearGradient id="k" x1="510.4" x2="347.1" y1="189" y2="471.7" gradientUnits="userSpaceOnUse"><stop offset="0" stop-color="#021c55"/><stop offset="1" stop-color="#042e8e"/></linearGradient><linearGradient id="l" x1="354.3" x2="360.7" y1="725.3" y2="716.7" gradientUnits="userSpaceOnUse"><stop offset="0" stop-color="#00225c" stop-opacity="0"/><stop offset=".2" stop-color="#00225c" stop-opacity=".1"/><stop offset=".4" stop-color="#00225c" stop-opacity=".2"/><stop offset=".7" stop-color="#00225c" stop-opacity=".5"/><stop offset=".9" stop-color="#00225c" stop-opacity=".8"/><stop offset="1" stop-color="#00225c"/></linearGradient><path d="M258.5 1000c37.1-.5 158.9-2.3 184.2-6.9 29.8-5.5 72.7-25.5 74.3-75.5v-837s3.3-72.7-93.9-76.5C315.5-.5 276.8 0 263.8.3h5.4C212.5-.8 158 1.4 93.9 4.1-3.2 7.9 0 80.6 0 80.6v837c1.6 50 44.5 70 74.4 75.5 25.2 4.6 146.7 6.4 183.9 6.9z"/><path fill="url(#a)" d="M87.7 990.7c-10.3-1.9-30.1-7.1-46.6-20.6s-25-31-25.7-52.6v-837c-.1-.2-.9-25.5 18.2-46.2C49.4 17.2 74.1 7.9 106.9 6.5c54.1-2.2 46-2.4-10.4 0C63.6 7.8 39 17.2 23.1 34.3A70.3 70.3 0 004.9 80.5v837c.7 21.6 9.3 39.3 25.7 52.6s36.3 18.7 46.7 20.6c25 4.5 34.4 4.3 10.4 0z"/><path fill="url(#d)" d="M429.3 990.9c10.3-1.9 30.1-7 46.7-20.5s24.9-31.1 25.7-52.6V80.7a70.7 70.7 0 00-18.3-46.2c-15.8-17.1-40.5-26.4-73.3-27.7-54-2.3-46-2.4 10.5 0 32.8 1.2 57.5 10.6 73.3 27.7a70.3 70.3 0 0118.2 46.2v837.1c-.7 21.5-9.3 39.2-25.7 52.6s-36.3 18.6-46.6 20.5c-25 4.5-34.5 4.3-10.5 0z"/><path fill="#c3c3c3" d="M258.5 998.4h-.1c-36.8-.5-158.7-2.4-183.7-6.9-10.4-1.9-30.4-7.1-47.1-20.7s-25.2-31.4-26-53.2V80.5a71.8 71.8 0 0118.5-46.8C36.1 16.4 60.9 7 94 5.7c56.4-2.4 99.8-4.1 144.7-4.1 9.4 0 18.8.1 27.8.3h14.4c32.4 0 80.3 1.3 142.2 3.9 33.1 1.3 58 10.8 73.9 28.1a71.2 71.2 0 0118.4 46.7v837c-.7 21.8-9.4 39.7-26 53.2s-36.6 18.8-47 20.7c-25.1 4.5-147.1 6.4-183.9 6.9zM238.7 3.3c-44.8 0-88.2 1.6-144.7 4-32.6 1.3-57 10.6-72.7 27.6a69.7 69.7 0 00-18 45.6v837c.7 21.4 9.2 38.8 25.4 52s36 18.5 46.3 20.4c24.9 4.5 146.7 6.4 183.4 6.8h.1c36.8-.4 158.6-2.3 183.6-6.8 10.2-1.9 29.9-7 46.3-20.4s24.7-30.6 25.4-51.9V80.5a69.8 69.8 0 00-18-45.6c-15.6-17-40.1-26.3-72.8-27.6-61.9-2.6-109.7-3.9-142.1-3.9h-14.4l-27.8-.1z"/><path fill="#484848" d="M335.5 955.1H185.9a8.2 8.2 0 00-8.1 8.2v.6a8.1 8.1 0 008.1 8.1h149.6a8.2 8.2 0 008.2-8.1v-.6a8.2 8.2 0 00-8.2-8.2zm4.9 8.8a4.8 4.8 0 01-4.9 4.8H185.9a4.7 4.7 0 01-4.8-4.8v-.6a4.8 4.8 0 014.8-4.9h149.6a4.9 4.9 0 014.9 4.9z"/><path fill="url(#b)" d="M335.5 955.1H185.9a8.2 8.2 0 00-8.1 8.2v1.2a8.2 8.2 0 018.1-7.6h149.6a8.3 8.3 0 018.2 7.6v-1.2a8.2 8.2 0 00-8.2-8.2z"/><path fill="#171717" d="M335.5 970.6H185.9a6.7 6.7 0 01-6.7-6.7v-.6a6.7 6.7 0 016.7-6.8h149.6a6.7 6.7 0 016.8 6.8v.6a6.7 6.7 0 01-6.8 6.7zm-149.6-13.3a6 6 0 00-5.9 6v.6a6 6 0 005.9 5.9h149.6a6 6 0 006-5.9v-.6a6 6 0 00-6-6z"/><path fill="#171717" d="M335.5 969.7H185.9a6.7 6.7 0 01-6.7-6.8v-.6a6.7 6.7 0 016.7-6.7h149.6a6.7 6.7 0 016.8 6.7v.6a6.7 6.7 0 01-6.8 6.8zm-149.6-13.3a6 6 0 00-5.9 5.9v.6a6 6 0 005.9 6h149.6a6 6 0 006-6v-.6a6 6 0 00-6-5.9z"/><path fill="#171717" d="M335.5 969.3H185.9a6.4 6.4 0 01-6.3-6.2v.8a6.3 6.3 0 006.3 6.3h149.6a6.4 6.4 0 006.4-6.3v-.8a6.4 6.4 0 01-6.4 6.2z"/><path fill="#484848" d="M184 957.6c-2-.2-11.3 5.6-.7 10.8-5.8-4.2-1.8-9.3.7-10.8zM332.8 30.6H183.2a8.2 8.2 0 00-8.1 8.2v.6a8.1 8.1 0 008.1 8.1h149.6a8.2 8.2 0 008.2-8.1v-.6a8.2 8.2 0 00-8.2-8.2zm4.9 8.8a4.9 4.9 0 01-4.9 4.9H183.2a4.9 4.9 0 01-4.9-4.9v-.6a4.9 4.9 0 014.9-4.9h149.6a4.9 4.9 0 014.9 4.9z"/><path fill="url(#e)" d="M332.8 30.6H183.2a8.2 8.2 0 00-8.1 8.2V40a8.2 8.2 0 018.1-7.6h149.6a8.2 8.2 0 018.1 7.6l.1-.6v-.6a8.2 8.2 0 00-8.2-8.2z"/><path fill="#171717" d="M332.8 46.1H183.2a6.7 6.7 0 01-6.7-6.7v-.6a6.7 6.7 0 016.7-6.8h149.6a6.8 6.8 0 016.8 6.8v.6a6.8 6.8 0 01-6.8 6.7zM183.2 32.8a5.9 5.9 0 00-5.9 6v.6a5.9 5.9 0 005.9 5.9h149.6a6 6 0 006-5.9v-.6a6 6 0 00-6-6z"/><path fill="#171717" d="M332.8 45.2H183.2a6.7 6.7 0 01-6.7-6.8v-.6a6.7 6.7 0 016.7-6.7h149.6a6.8 6.8 0 016.8 6.7v.6a6.8 6.8 0 01-6.8 6.8zM183.2 31.9a5.9 5.9 0 00-5.9 5.9v.6a5.9 5.9 0 005.9 6h149.6a6 6 0 006-6v-.6a6 6 0 00-6-5.9z"/><path fill="#171717" d="M332.8 44.8H183.2a6.3 6.3 0 01-6.3-6.2v.8a6.3 6.3 0 006.3 6.3h149.6a6.4 6.4 0 006.4-6.3v-.8a6.4 6.4 0 01-6.4 6.2z"/><path fill="#484848" d="M181.3 33.1c-2-.2-11.3 5.6-.7 10.8-5.9-4.2-1.8-9.3.7-10.8z"/><path fill="#313131" d="M416.9 52a9 9 0 119-9 8.9 8.9 0 01-9 9z"/><path fill="#3d3d3d" d="M416.9 34.5a8.6 8.6 0 11-8.5 8.5 8.5 8.5 0 018.5-8.5m0-.8a9.4 9.4 0 109.4 9.3 9.3 9.3 0 00-9.4-9.3z"/><path fill="#151515" d="M416.9 48.5a5.5 5.5 0 01-5.4-5.5 5.5 5.5 0 0110.9 0 5.5 5.5 0 01-5.5 5.5z"/><path fill="#3d3d3d" d="M416.9 37.9a5.1 5.1 0 11-5.1 5.1 5.1 5.1 0 015.1-5.1m0-.7a5.9 5.9 0 105.9 5.8 5.8 5.8 0 00-5.9-5.8z"/><ellipse cx="416.5" cy="41.9" fill="url(#c)" rx="3.3" ry="2.8"/><path fill="url(#f)" d="M420.9 45.5c0 .6-.5 1-1.2 1a1 1 0 110-2c.7 0 1.2.4 1.2 1z"/><path fill="url(#g)" d="M26.2 475.4h466.5v444.7H26.2z"/><path fill="url(#h)" d="M26.2 87.4h466.5v91.3L35.6 465.9 227 613 26.2 745.5z"/><path fill="url(#i)" d="M225.2 346.8l-14.4 9v244.8l281.9 210.6V555.8z"/><path fill="url(#j)" d="M210.8 600.6V355.8L35.6 465.9z"/><path fill="url(#k)" d="M492.7 555.8l-267.5-209 267.5-168z"/><path fill="url(#l)" d="M211.7 623l281 209.9v-21.7L227.6 612.7z"/><g fill="#fff"><path d="M413.9 879.7v16.7h-18v-16.7zm0-3.4h-18a3.5 3.5 0 00-3.4 3.4v16.7a3.4 3.4 0 003.4 3.4h18a3.4 3.4 0 003.4-3.4v-16.7a3.5 3.5 0 00-3.4-3.4zM262 877a11 11 0 11-11 11 11 11 0 0111-11m0-3.4a14.4 14.4 0 1014.4 14.4 14.4 14.4 0 00-14.4-14.4zM122.2 878.5v18.9l-16.3-9.5zm0-3.4a2.6 2.6 0 00-1.7.5l-16.3 9.4a3.2 3.2 0 00-1.7 2.9 3.3 3.3 0 001.7 3l16.3 9.4a3.1 3.1 0 003.4 0 3.2 3.2 0 001.7-2.9v-18.9a3.2 3.2 0 00-1.7-2.9 2.6 2.6 0 00-1.7-.5z"/><circle cx="245" cy="737.9" r="4.1"/><circle cx="259.1" cy="737.9" r="5.4"/><circle cx="273.1" cy="737.9" r="4.1"/><rect width="445.1" height="62.2" x="36.5" y="128.9" rx="2.2"/></g><path fill="#ef4131" fill-rule="evenodd" d="M134.3 155.1c4.5 0 5.7 4.6 5.7 4.6l-8.6 3.4a3.1 3.1 0 003.1 1.9 4 4 0 003.2-1.7l2.2 1.4a6.8 6.8 0 01-5.4 2.7 6.3 6.3 0 01-6.4-6.1 6.1 6.1 0 016.2-6.2zm-.3 2.4a2.8 2.8 0 012.7 1.3l-5.8 2.2s-.4-2.9 3.1-3.5z"/><path fill="#31aa52" d="M124 149h2.9v18H124z"/><ellipse cx="102.2" cy="161.2" fill="none" stroke="#fdbe07" stroke-miterlimit="10" stroke-width="2.5" rx="5.2" ry="5"/><ellipse cx="88.1" cy="161.2" fill="none" stroke="#ef4131" stroke-miterlimit="10" stroke-width="2.5" rx="5.2" ry="5"/><path fill="#3182f6" d="M119.5 155.5v1.1a4.4 4.4 0 00-3.6-1.5 6.1 6.1 0 00-6.1 6.1 6.2 6.2 0 006.1 6.2 4.2 4.2 0 003.6-1.6v1.3a3.2 3.2 0 01-3.3 3.4 3.5 3.5 0 01-3.4-2.2l-2.4 1a5.9 5.9 0 005.6 3.6 5.8 5.8 0 006.2-6v-11.4zm-3.4 9.6a3.8 3.8 0 010-7.6 3.8 3.8 0 010 7.6zM71.3 157v2.6h6.5a7 7 0 01-13.8-1.7 7 7 0 017-6.9 7.3 7.3 0 015 2l1.9-1.8a9.9 9.9 0 00-7-2.9 9.6 9.6 0 109.8 9.6 2.8 2.8 0 00-.1-.9z"/><path fill="#b0b0b0" fill-rule="evenodd" d="M281.3 164a2.8 2.8 0 00-.1-.9 2.5 2.5 0 00-.4-.7l-.9-.6-1.3-.6-1.7-.7-1.2-.9a4.7 4.7 0 01-.9-1.2 7.8 7.8 0 01-.2-1.6 4.5 4.5 0 01.3-1.6 3.2 3.2 0 01.8-1.2 3.8 3.8 0 011.3-.9 5.2 5.2 0 011.8-.3 5.8 5.8 0 011.9.4 4.5 4.5 0 011.4 1 6.4 6.4 0 01.8 1.4 5.1 5.1 0 01.3 1.7h-1.9a4.9 4.9 0 00-.1-1.2 4.1 4.1 0 00-.5-.9l-.8-.6-1.1-.2-1.1.2a1.8 1.8 0 00-.7.5 2 2 0 00-.4.8 2.9 2.9 0 00-.2.9 2.4 2.4 0 00.7 1.6 5.1 5.1 0 002.1 1.1 7.5 7.5 0 011.8.8l1.3 1a3.5 3.5 0 01.7 1.2 6.1 6.1 0 01.2 1.5 3.8 3.8 0 01-1.2 2.9 4.1 4.1 0 01-1.3.8 5.7 5.7 0 01-1.8.3 4.7 4.7 0 01-1.7-.3 3.8 3.8 0 01-1.5-.9 3.1 3.1 0 01-1.1-1.4 3.8 3.8 0 01-.4-1.9h1.8a2.8 2.8 0 00.3 1.3 1.8 1.8 0 00.6.9 1.9 1.9 0 00.9.5l1.1.2a2.1 2.1 0 001.8-.7 2.2 2.2 0 00.6-1.7zm9.7 3.8l-.1-.6a1.3 1.3 0 01-.1-.6l-.5.5a1 1 0 01-.5.4l-.7.4h-.7l-1.3-.2-1-.6a3.6 3.6 0 01-.7-1 5.9 5.9 0 01-.2-1.4 3.7 3.7 0 01.3-1.5 2.8 2.8 0 01.8-1.1 2.9 2.9 0 011.3-.8 5.8 5.8 0 011.9-.3h1.2v-1c0-.7-.1-1.2-.4-1.4a1.7 1.7 0 00-1.3-.5l-.8.2-.6.4-.3.5a1.3 1.3 0 00-.1.6h-1.8a5.2 5.2 0 01.2-1.1 4.4 4.4 0 01.8-1.1 3.9 3.9 0 012.7-1l1.4.2a2.4 2.4 0 011.1.6 2.6 2.6 0 01.7 1 7 7 0 01.2 1.6v5.9a1.5 1.5 0 01.1.6l.1.6.2.5v.2zm-2.4-1.5h.7c.3-.1.5-.1.6-.3a1 1 0 00.5-.4.5.5 0 00.3-.4v-2.7h-.9l-1.2.2-.8.4a1.3 1.3 0 00-.6.7 2 2 0 00-.2.9 1.9 1.9 0 00.1.8l.3.5a.5.5 0 00.5.3zm9.5-1.5l2-8h1.9l-3.6 12.6-.3.9-.6.9a2.7 2.7 0 01-.8.7 2 2 0 01-1.1.3h-.9v-1.5h1.1l.5-.3a2.1 2.1 0 00.4-.6 2 2 0 00.4-.8l.3-1.1-3.2-10.9h1.9zm10.2-9.1a3.8 3.8 0 01.1-1l.3-1a4.1 4.1 0 01.5-.9l.7-.8 1 .8a3.8 3.8 0 00-.6 1.3 4.1 4.1 0 00-.3 1.6v1.2h-1.7zm2.9 0a3.8 3.8 0 01.1-1 2.2 2.2 0 01.3-1 4.1 4.1 0 01.5-.9l.6-.8 1.1.8a8.3 8.3 0 00-.7 1.3 7.8 7.8 0 00-.2 1.6v1.2h-1.7zm14 6a11.2 11.2 0 01-.3 2.7 5.4 5.4 0 01-1 2 4.4 4.4 0 01-1.5 1.2 6.5 6.5 0 01-2.1.4 6.5 6.5 0 01-2-.4 6.1 6.1 0 01-1.6-1.2 7.5 7.5 0 01-1-2 11.2 11.2 0 01-.3-2.7v-2.6a11.2 11.2 0 01.3-2.7 7.5 7.5 0 011-2 4.8 4.8 0 011.6-1.2 6.5 6.5 0 012-.4 7.1 7.1 0 012.1.4 4.4 4.4 0 011.5 1.2 5.4 5.4 0 011 2 11.2 11.2 0 01.3 2.7zm-1.8-2.6a12.5 12.5 0 00-.2-2.1 3 3 0 00-.6-1.4 1.9 1.9 0 00-1-.8 3 3 0 00-2.6 0 1.9 1.9 0 00-1 .8 9.8 9.8 0 00-.6 1.4 12.5 12.5 0 00-.2 2.1v2.6a12.5 12.5 0 00.2 2.1 6.4 6.4 0 00.6 1.4 2.8 2.8 0 001 .9l1.3.2 1.4-.2a3.7 3.7 0 001.5-2.3 12.5 12.5 0 00.2-2.1zm7.2 3.7l-.9 1v4h-1.8v-15.6h1.8v9.3l.8-1.1 2.6-3.6h2.1l-3.5 4.6 4 6.4h-2.1zm20.8 3.1l-.5.6a2.7 2.7 0 01-.8.7l-1.3.5a4.8 4.8 0 01-1.8.3 6.5 6.5 0 01-2.1-.4 4.8 4.8 0 01-1.6-1.2 5 5 0 01-1.1-1.9 11 11 0 01-.4-2.7V159c0-4.1 1.7-6.2 5-6.2a5.8 5.8 0 011.9.3 3.4 3.4 0 011.4.9 4.2 4.2 0 01.9 1.4 10.6 10.6 0 01.4 1.9h-1.9a3.3 3.3 0 00-.7-2.1 2.6 2.6 0 00-2-.8 2.9 2.9 0 00-1.4.3 2.8 2.8 0 00-1 .9 3.8 3.8 0 00-.5 1.4 11.2 11.2 0 00-.2 2v2.8a11.2 11.2 0 00.2 2 5.2 5.2 0 00.7 1.5 3.9 3.9 0 001 .8 3.2 3.2 0 001.4.3h1.1l.7-.3.4-.3.3-.3V162h-2.6v-1.6h4.5zm2.4-4.1a8 8 0 01.3-2.3 4.2 4.2 0 01.9-1.6 5 5 0 011.4-1 4.1 4.1 0 011.6-.3 4.7 4.7 0 011.7.3l1.3 1a4.2 4.2 0 01.9 1.6 8 8 0 01.3 2.3v1a8 8 0 01-.3 2.3 5.1 5.1 0 01-.9 1.6 3.8 3.8 0 01-1.3.9 3.3 3.3 0 01-1.7.4 2.9 2.9 0 01-1.6-.4 3.4 3.4 0 01-1.4-.9 5.1 5.1 0 01-.9-1.6 8 8 0 01-.3-2.3zm1.8 1a4.1 4.1 0 00.2 1.6 2.8 2.8 0 00.5 1.1 1.8 1.8 0 00.8.7 1.3 1.3 0 00.9.2c1.6 0 2.5-1.2 2.5-3.6v-1a7.8 7.8 0 00-.2-1.6 5.8 5.8 0 00-.5-1.1c-.3-.3-.5-.6-.8-.7a1.7 1.7 0 00-1-.3 1.9 1.9 0 00-1 .3 1.6 1.6 0 00-.7.7 2.8 2.8 0 00-.5 1.1 4.1 4.1 0 00-.2 1.6zm8.6-1a8 8 0 01.3-2.3 4.2 4.2 0 01.9-1.6l1.3-1a5 5 0 013.4 0l1.3 1a4.2 4.2 0 01.9 1.6 8 8 0 01.3 2.3v1a8 8 0 01-.3 2.3 5.1 5.1 0 01-.9 1.6 3.8 3.8 0 01-1.3.9 3.3 3.3 0 01-1.7.4 3.5 3.5 0 01-1.7-.4 3.8 3.8 0 01-1.3-.9 5.1 5.1 0 01-.9-1.6 8 8 0 01-.3-2.3zm1.8 1a4.1 4.1 0 00.2 1.6 2.8 2.8 0 00.5 1.1 1.6 1.6 0 00.7.7 1.8 1.8 0 001 .2q2.4 0 2.4-3.6v-1a8.1 8.1 0 00-.1-1.6 2.9 2.9 0 00-.6-1.1 1.6 1.6 0 00-.7-.7 1.9 1.9 0 00-1-.3 1.7 1.7 0 00-1 .3 1.6 1.6 0 00-.7.7 1.9 1.9 0 00-.5 1.1 4.1 4.1 0 00-.2 1.6zm8.6-1a14 14 0 01.2-2.3 6.7 6.7 0 01.8-1.7 3.1 3.1 0 011.1-.9 4 4 0 011.5-.3 2.4 2.4 0 011.5.4 3.5 3.5 0 011.1 1v-1.2h1.6v11.1a4.8 4.8 0 01-.3 1.8 3.2 3.2 0 01-.8 1.3 3.5 3.5 0 01-1.3.8 3.8 3.8 0 01-1.6.3h-.7l-.9-.3-.9-.4-.8-.6.7-1.3a3.8 3.8 0 001.3.9 2.5 2.5 0 001.2.2h1l.7-.4a2 2 0 00.4-.8 5.1 5.1 0 00.2-1.3v-1.2a2.8 2.8 0 01-1 .9 2.4 2.4 0 01-1.5.4 2.8 2.8 0 01-1.5-.4 3.1 3.1 0 01-1.1-.9 6 6 0 01-.8-1.6 15.2 15.2 0 01-.2-2.3zm1.8 1a6.2 6.2 0 00.5 2.7 2 2 0 001.8.9 1.6 1.6 0 001.2-.4 3.9 3.9 0 00.8-1v-5.5a3.4 3.4 0 00-.8-.9 1.6 1.6 0 00-1.2-.4 2 2 0 00-1.8.9 6.2 6.2 0 00-.5 2.7zm10.7 5h-1.8v-15.6h1.8zm6.7.2a5.2 5.2 0 01-1.8-.3 3.8 3.8 0 01-1.3-.9 3.8 3.8 0 01-.9-1.5 7.8 7.8 0 01-.2-2.2v-1.3a8.8 8.8 0 01.3-2.4 3.5 3.5 0 01.9-1.6 3.8 3.8 0 011.3-.9 4 4 0 011.5-.3 4.8 4.8 0 011.8.3 5.2 5.2 0 011.1 1 3.3 3.3 0 01.7 1.7 7.2 7.2 0 01.2 2.2v1h-6.1v.3a4.1 4.1 0 00.7 2.5 2.1 2.1 0 001.9.8h.8l.7-.2.5-.4.5-.5.9 1.1-.5.6-.7.6-1 .3zm-.2-9.9l-.9.2-.7.5a2.3 2.3 0 00-.4 1 5.7 5.7 0 00-.3 1.5h4.3v-.3a3.7 3.7 0 00-.1-1.1 4.6 4.6 0 00-.3-.9 1.9 1.9 0 00-1.6-.9zm7.8-4.6l-.1 1-.3 1-.5.9-.7.8-1-.8a3.8 3.8 0 00.6-1.3 7.8 7.8 0 00.2-1.6v-1.3h1.8zm2.8 0a3.8 3.8 0 01-.1 1l-.3 1-.5.9-.7.8-1-.8a3.8 3.8 0 00.6-1.3 7.8 7.8 0 00.2-1.6v-1.3h1.8z"/><path fill="#4086f8" fill-rule="evenodd" d="M445.4 163.9a4 4 0 003.9-4.2v-8.5a3.9 3.9 0 10-7.8 0v8.5a4 4 0 003.9 4.2z"/><path fill="#ef4131" d="M452.3 160a6.7 6.7 0 01-6.9 6.6 6.6 6.6 0 01-6.8-6.6h-2.2a9 9 0 007.7 8.7v4.2h2.6v-4.2a9.1 9.1 0 007.8-8.7z"/><path fill="#f3ab0b" fill-rule="evenodd" d="M439.8 166.8l1.2-1.7a6.4 6.4 0 01-2.4-5.1h-2.2a8.6 8.6 0 003.4 6.8z"/><path fill="#31aa52" d="M444.1 168.7h2.6v4.3h-2.6z"/><path fill="#a18123" d="M26.2 87.5h466.5v27.2H26.2z"/><path fill="#fff" fill-opacity=".9" fill-rule="evenodd" d="M395 107.8h13.3V94.4z"/><path fill="#fff" fill-opacity=".9" d="M423.9 98.3h8.9v10h-8.9z"/><path fill="#fff" fill-opacity=".3" fill-rule="evenodd" d="M430.6 94.9v-1.1h-4.4v1.1h-2.3v3.4h8.9v-3.4z"/><path fill="#fff" fill-opacity=".9" d="M446.1 106.2h-1.3v-8.7l-2.6 1v-1.2l3.7-1.4h.2zm5.7-5.8h1a2 2 0 001.5-.5 1.7 1.7 0 00.5-1.2c0-1.3-.6-1.9-1.8-1.9a1.7 1.7 0 00-1.3.5 1.7 1.7 0 00-.5 1.3h-1.4a2.5 2.5 0 01.9-2 3.1 3.1 0 012.3-.8 3.3 3.3 0 012.3.7 2.9 2.9 0 01.8 2.2 2.2 2.2 0 01-.4 1.3 2.7 2.7 0 01-1.2.9 2.5 2.5 0 011.3.9 2.5 2.5 0 01.5 1.5 2.7 2.7 0 01-.9 2.2 3.2 3.2 0 01-2.4.9 3.6 3.6 0 01-2.3-.8 2.7 2.7 0 01-.9-2.1h1.3a1.5 1.5 0 00.5 1.3 2.2 2.2 0 001.4.5 2.3 2.3 0 001.5-.5 2 2 0 00.5-1.4 1.7 1.7 0 00-.6-1.4 2.3 2.3 0 00-1.6-.5h-1zm6.4 5.1c0-.2 0-.4.2-.5a.6.6 0 01.6-.3.7.7 0 01.6.3.8.8 0 01.2.5 1.4 1.4 0 01-.2.6l-.6.2a.8.8 0 01-.6-.2.7.7 0 01-.2-.6zm0-6.2a.7.7 0 01.2-.6l.6-.2.6.2a1.4 1.4 0 01.2.6.8.8 0 01-.2.5c-.1.2-.3.2-.6.2s-.5 0-.6-.2l-.2-.5zm9.9 2.5a5.8 5.8 0 01-.8 3.4 2.9 2.9 0 01-2.5 1.2 2.8 2.8 0 01-2.4-1.1 6.2 6.2 0 01-.9-3.3v-1.8a5.7 5.7 0 01.8-3.3 2.8 2.8 0 012.5-1.1 2.7 2.7 0 012.4 1 5.7 5.7 0 01.9 3.3zm-1.4-1.8a4.9 4.9 0 00-.4-2.4 1.8 1.8 0 00-3 0 4.7 4.7 0 00-.4 2.3v2.1a5.4 5.4 0 00.4 2.5 1.9 1.9 0 001.5.8 1.5 1.5 0 001.4-.8 3.7 3.7 0 00.5-2.3zm9.5 1.8a5.8 5.8 0 01-.8 3.4 2.7 2.7 0 01-2.5 1.2 2.8 2.8 0 01-2.4-1.1 6.2 6.2 0 01-.8-3.3v-1.8a5 5 0 01.8-3.3 2.6 2.6 0 012.4-1.1 2.9 2.9 0 012.5 1 5.7 5.7 0 01.8 3.3zm-1.3-1.8a4.8 4.8 0 00-.5-2.4 1.6 1.6 0 00-1.5-.8 1.6 1.6 0 00-1.4.8 4.6 4.6 0 00-.5 2.3v2.1a5.2 5.2 0 00.5 2.5 1.6 1.6 0 001.4.8 1.6 1.6 0 001.5-.8 4.6 4.6 0 00.5-2.3z"/><path fill="#fff" d="M45.1 106.2h-1.4l-5.2-7.9v7.9h-1.3V95.9h1.3l5.2 8v-8h1.4zm1.8-3.9a4.6 4.6 0 01.5-2 3.3 3.3 0 011.2-1.4 3.5 3.5 0 011.8-.5 3.1 3.1 0 012.5 1.1 3.9 3.9 0 011 2.9 4.5 4.5 0 01-.4 2 4.1 4.1 0 01-1.2 1.4 4.1 4.1 0 01-1.9.5 3.4 3.4 0 01-2.5-1.1 4.4 4.4 0 01-1-2.9zm1.4.2a3.9 3.9 0 00.5 2 2.1 2.1 0 001.6.8 1.9 1.9 0 001.6-.8 3.4 3.4 0 00.6-2.2 3.2 3.2 0 00-.6-2 1.9 1.9 0 00-1.6-.8 1.7 1.7 0 00-1.5.8 3.4 3.4 0 00-.6 2.2zm14.1-.9a6.3 6.3 0 01-2.6-1.2 2.4 2.4 0 01-.7-1.8 2.5 2.5 0 01.9-2 3.7 3.7 0 012.6-.8 3.4 3.4 0 011.8.4 2.8 2.8 0 011.3 1.1 3 3 0 01.5 1.6h-1.4a2 2 0 00-.6-1.5 3.1 3.1 0 00-3.2-.1 1.5 1.5 0 00-.6 1.3 1.2 1.2 0 00.6 1 3.8 3.8 0 001.8.8l2 .8a3.6 3.6 0 011.1 1 3.2 3.2 0 01.3 1.4 2.3 2.3 0 01-1 2 4 4 0 01-2.6.8 7.1 7.1 0 01-2-.4 4.1 4.1 0 01-1.4-1.2 2.8 2.8 0 01-.5-1.6h1.4a1.7 1.7 0 00.7 1.5 2.6 2.6 0 001.8.5 2.9 2.9 0 001.7-.4 1.7 1.7 0 000-2.4zm7 4.6h-1.3V95.9h1.3zm4.3-10.3l3.3 8.4 3.4-8.4h1.8v10.3h-1.4v-8.3l-3.4 8.3h-1L73 97.9l.2 4.3v4h-1.3V95.9zM376.7 107.7l-7.2-11.3a13.9 13.9 0 0114.3 0z"/><path fill="#e75a4d" d="M462.2 777.7a4.8 4.8 0 014.8 4.9v1.4l-6.7 4.8-22.9 15.7-22.9-15.9v31.9h-1.7a4.9 4.9 0 01-4.8-4.9v-33a4.9 4.9 0 014.8-4.9l24.6 18.3z"/><path fill="#f7f5ed" d="M414.5 788.6v31.9h45.8v-31.7l-22.9 15.7z"/><path fill="#b8b7ae" d="M414.5 820.5l22.9-16h-.1l-22.8 15.6z"/><path fill="#b7b6ad" d="M460.3 788.8v31.7l-22.9-16z"/><path fill="#b2392f" d="M467 784v31.6c-.2 3.6-1.7 4.8-6.8 4.9v-31.7z"/><path fill="#f7f5ed" d="M412.8 777.7l24.6 18.3 24.8-18.3z"/><path fill="#848484" d="M323.7 776.1a2.4 2.4 0 012.3-2.3h5.9a2.3 2.3 0 012.3 2.3v3.6a2.2 2.2 0 01-2.3 2.2H326a2.3 2.3 0 01-2.3-2.2z"/><path fill="#e4e4e4" d="M320 781.5a3.7 3.7 0 013.7-3.8h48.2a3.8 3.8 0 013.7 3.8v35.2a3.8 3.8 0 01-3.7 3.8h-48.2a3.7 3.7 0 01-3.7-3.8z"/><path fill="#92c654" fill-rule="evenodd" d="M352.8 801.8l-20.9-.5s2.8 11.2 13.6 12.7z"/><path fill="#5d84c3" fill-rule="evenodd" d="M351.7 796.3s3.2 2.1.7 6l-7.1 11.5s7.3 3.4 13.7-5.4l-7.3-12.1z"/><path fill="#fec226" fill-rule="evenodd" d="M346.7 804.5l-10.2-18.2s-8.2 8.2-3.9 18.2z"/><path fill="#ec7835" fill-rule="evenodd" d="M343 801.3l10.6-18s-11.2-2.9-17.7 5.7z"/><path fill="#de5245" fill-rule="evenodd" d="M343.5 796.1l20.9.2s-3.1-11.2-13.8-12.5z"/><path fill="#4e5eaa" fill-rule="evenodd" d="M347.5 793.9l10.2 18.2s8.2-8.2 3.9-18.2z"/><path fill="#f2f2f2" d="M348.1 785.2a14.3 14.3 0 11-13.9 14.2 14.1 14.1 0 0113.9-14.2m0-3.6a17.8 17.8 0 1017.5 17.8 17.7 17.7 0 00-17.5-17.8z"/><ellipse cx="369.1" cy="784.4" fill="#888" rx="2.7" ry="2.8"/><ellipse cx="347.9" cy="799.3" fill="#f2f2f2" rx="5.2" ry="5.3"/><path fill="#f5f5f5" fill-rule="evenodd" d="M286.5 798.5A28.5 28.5 0 11258 770a28.4 28.4 0 0128.5 28.5zm-37.5-5.9a3.3 3.3 0 11-6.5 0 3.3 3.3 0 016.5 0zm9.7 3.3a3.2 3.2 0 003.2-3.3 3.2 3.2 0 00-3.2-3.2 3.2 3.2 0 00-3.3 3.2 3.3 3.3 0 003.3 3.3zm16.2-3.3a3.3 3.3 0 01-3.3 3.3 3.2 3.2 0 01-3.2-3.3 3.2 3.2 0 013.2-3.2 3.2 3.2 0 013.3 3.2zm-3.3 16.2a3.2 3.2 0 003.3-3.2 3.3 3.3 0 00-3.3-3.3 3.2 3.2 0 00-3.2 3.3 3.2 3.2 0 003.2 3.2zm-9.7-3.2a3.2 3.2 0 01-3.2 3.2 3.2 3.2 0 01-3.3-3.2 3.3 3.3 0 013.3-3.3 3.2 3.2 0 013.2 3.3zm-16.2 3.2a3.2 3.2 0 003.3-3.2 3.3 3.3 0 10-6.5 0 3.2 3.2 0 003.2 3.2z"/><path fill="#e2e2e2" fill-rule="evenodd" d="M193.6 782.7l5.8-7.2a1.8 1.8 0 00-1.5-2.9h-36.6a4.6 4.6 0 00-4.7 4.6v29a4.7 4.7 0 004.7 4.7h27.6a4.7 4.7 0 004.7-4.7z"/><path fill="#a7a7a7" fill-rule="evenodd" d="M186.4 782h-22.6v3.7h22.6zm0 7.3h-22.6v3.6h22.6zm-14.9 7.3h14.9v3.6h-14.9z"/><path fill="#00acf8" fill-rule="evenodd" d="M149 797.7l-5.8-7.3a1.8 1.8 0 011.4-2.9h36.7a4.7 4.7 0 014.7 4.6v27.8a4.7 4.7 0 01-4.7 4.7h-27.7a4.7 4.7 0 01-4.6-4.7z"/><path fill="#eee" fill-rule="evenodd" d="M156.2 797h22.5v3.6h-22.5zm0 7.2h22.5v3.7h-22.5zm14.9 7.3h-14.9v3.6h14.9z"/><path fill="#3767d6" d="M93.9 821.5l1.6-5.6a41.5 41.5 0 01-35.8-36.6l-5.8.7a47.5 47.5 0 0040 41.5z"/><path fill="#4785f4" fill-rule="evenodd" d="M54.8 785.7a103.1 103.1 0 01-1.4-10.8 3.4 3.4 0 013.5-3.6h9.3a2.7 2.7 0 012.7 2.7l.2 4.3a54.4 54.4 0 001.6 6.4 2.2 2.2 0 01-.6 2.2l-10.8 10.3a66.7 66.7 0 01-4.5-11.5zm34.6 34.8a96.6 96.6 0 0010.8 1.4 3.5 3.5 0 003.6-3.5v-9.3a2.7 2.7 0 00-2.7-2.7l-4.3-.2a61.3 61.3 0 01-6.5-1.6 2.3 2.3 0 00-2.2.6l-10.4 10.9a71.9 71.9 0 0011.7 4.4z"/><circle cx="258.8" cy="500" r="30.2" fill="#fff"/></svg>