<svg xmlns="http://www.w3.org/2000/svg" xmlns:xlink="http://www.w3.org/1999/xlink" viewBox="0 0 516.5 923.2"><defs><linearGradient id="a" x1="392.9" x2="387.3" y1="124.5" y2="120.7" gradientUnits="userSpaceOnUse"><stop offset="0" stop-color="#151515"/><stop offset=".6" stop-color="#343434"/><stop offset="1" stop-color="#343434"/></linearGradient><linearGradient id="b" x1="394.8" x2="392.7" y1="196.7" y2="195.3" xlink:href="#a"/><linearGradient id="c" x1="190.6" x2="323.7" y1="187.5" y2="187.5" gradientUnits="userSpaceOnUse"><stop offset="0" stop-color="#171717"/><stop offset="1" stop-color="#171717"/></linearGradient><linearGradient id="d" x1="192.9" x2="326" y1="959.9" y2="959.9" xlink:href="#c"/><linearGradient id="e" x1="46.7" x2="57.5" y1="575.3" y2="575.3" gradientUnits="userSpaceOnUse"><stop offset="0" stop-color="#505050"/><stop offset=".4" stop-color="#212121"/><stop offset="1"/></linearGradient><linearGradient id="f" x1="-2955.1" x2="-2944.3" y1="575.4" y2="575.4" gradientTransform="matrix(-1 0 0 1 -2483.7 0)" xlink:href="#e"/><linearGradient id="h" x1="259" x2="259" y1="710.6" y2="160.8" gradientUnits="userSpaceOnUse"><stop offset="0" stop-color="#ffd03b"/><stop offset="1" stop-color="#d19918"/></linearGradient><linearGradient id="i" x1="218.4" x2="453.9" y1="571.5" y2="571.5" gradientUnits="userSpaceOnUse"><stop offset="0" stop-color="#149bd4"/><stop offset="1" stop-color="#0f55a8"/></linearGradient><linearGradient id="j" x1="72" x2="218.4" y1="487.3" y2="487.3" gradientUnits="userSpaceOnUse"><stop offset="0" stop-color="#0356bb"/><stop offset="1" stop-color="#037bd2"/></linearGradient><linearGradient id="k" x1="468.7" x2="332.3" y1="245.7" y2="481.9" gradientUnits="userSpaceOnUse"><stop offset="0" stop-color="#021c55"/><stop offset="1" stop-color="#042e8e"/></linearGradient><linearGradient id="l" x1="338.3" x2="343.6" y1="693.7" y2="686.5" gradientUnits="userSpaceOnUse"><stop offset="0" stop-color="#00225c" stop-opacity="0"/><stop offset=".2" stop-color="#00225c" stop-opacity=".1"/><stop offset=".4" stop-color="#00225c" stop-opacity=".2"/><stop offset=".7" stop-color="#00225c" stop-opacity=".5"/><stop offset=".9" stop-color="#00225c" stop-opacity=".8"/><stop offset="1" stop-color="#00225c"/></linearGradient><linearGradient id="m" x1="28450" x2="28926" y1="46324.6" y2="46324.6" gradientTransform="matrix(.06 0 0 .06 -1180.6 -1750.8)" gradientUnits="userSpaceOnUse"><stop offset="0" stop-color="#f8f6ef"/><stop offset="1" stop-color="#e7e4d6"/></linearGradient><radialGradient id="g" cx="259.1" cy="741" r="190.8" gradientTransform="matrix(1 0 0 .7 1 152)" gradientUnits="userSpaceOnUse"><stop offset="0" stop-color="#1c3192"/><stop offset="1" stop-color="#00257e"/></radialGradient><style>.a{fill:none}.h{fill:#484848}.j{fill:#171717}.u,.w{fill:#fff}.w{fill-opacity:.9}.aa,.ac,.aj{fill-rule:evenodd}.aa{fill:#ef4131}.ab{fill:#31aa52}.ac{fill:#3182f6}.ai{isolation:isolate}.aj{fill:#4785f4}.ba{fill:url(#m)}.bb{fill:#f7f5ed}</style></defs><path d="M0 0h516.5v918.2H0z" class="a"/><path d="M258.3 923.2c31-.4 132.7-2 153.8-5.8 25-4.5 60.8-21.3 62.1-63V155.1s2.8-60.8-78.4-64c-90-3.8-122.3-3.3-133.2-3.1h4.6c-47.4-1-93 .9-146.5 3.2C39.5 94.3 42.2 155 42.2 155v699.3c1.4 41.7 37.2 58.5 62.2 63 21 3.8 122.5 5.4 153.7 5.8z"/><path fill="#3b3b3b" d="M398.4 123.7a7.8 7.8 0 11-7.8-7.8 7.8 7.8 0 017.8 7.8z"/><path fill="#313131" d="M397.8 123.7a7.2 7.2 0 11-7.2-7.1 7.1 7.1 0 017.2 7.1z"/><path fill="#353535" d="M395.5 123.7a4.9 4.9 0 11-4.9-4.8 4.9 4.9 0 014.9 4.8z"/><path fill="#151515" d="M394.9 123.7a4.3 4.3 0 11-4.3-4.2 4.3 4.3 0 014.3 4.2z"/><ellipse cx="390.2" cy="122.7" fill="url(#a)" rx="2.7" ry="2.3"/><path fill="url(#b)" d="M394.8 196a1 1 0 11-1-.9 1 1 0 011 .9z" transform="translate(-.8 -70.3)"/><path d="M320.3 113.3h-125a6.8 6.8 0 00-6.8 6.8v.5a6.8 6.8 0 006.8 6.8h125a6.8 6.8 0 006.8-6.8v-.5a6.8 6.8 0 00-6.8-6.8zm4.1 7.3a4 4 0 01-4 4.1h-125a4 4 0 01-4.2-4v-.6a4.1 4.1 0 014.1-4h125a4 4 0 014.1 4z" class="h"/><path fill="url(#c)" d="M321.1 183.6h-125a6.8 6.8 0 00-6.8 6.8v1a6.8 6.8 0 016.8-6.3h125a6.8 6.8 0 016.8 6.3v-1a6.8 6.8 0 00-6.8-6.8z" transform="translate(-.8 -70.3)"/><path d="M320.3 126.3h-125a5.7 5.7 0 01-5.6-5.7v-.5a5.7 5.7 0 015.6-5.6h125a5.7 5.7 0 015.7 5.6v.5a5.7 5.7 0 01-5.7 5.7zm-125-11.2a5 5 0 00-5 5v.6a5 5 0 005 5h125a5 5 0 005-5v-.6a5 5 0 00-5-5z" class="j"/><path d="M320.3 125.5h-125a5.7 5.7 0 01-5.6-5.6v-.6a5.7 5.7 0 015.6-5.6h125a5.7 5.7 0 015.7 5.6v.6a5.7 5.7 0 01-5.7 5.6zm-125-11.1a5 5 0 00-5 5v.5a5 5 0 005 5h125a5 5 0 005-5v-.5a5 5 0 00-5-5z" class="j"/><path d="M320.3 125.2h-125a5.3 5.3 0 01-5.3-5.2v.6a5.3 5.3 0 005.3 5.3h125a5.3 5.3 0 005.3-5.3v-.5a.5.5 0 000-.1 5.3 5.3 0 01-5.3 5.2z" class="j"/><path d="M193.7 115.4c-1.6-.2-9.4 4.6-.6 9-4.8-3.5-1.5-7.8.6-9zM322.6 885.7h-125a6.8 6.8 0 00-6.8 6.8v.5a6.8 6.8 0 006.8 6.9h125a6.8 6.8 0 006.8-6.9v-.5a6.8 6.8 0 00-6.8-6.8zm4.1 7.3a4 4 0 01-4 4.1h-125a4 4 0 01-4.2-4v-.6a4 4 0 014.1-4h125a4 4 0 014.1 4z" class="h"/><path fill="url(#d)" d="M323.4 956h-125a6.8 6.8 0 00-6.8 6.8v1a6.8 6.8 0 016.8-6.3h125a6.8 6.8 0 016.8 6.3 4.4 4.4 0 000-.5v-.5a6.8 6.8 0 00-6.8-6.8z" transform="translate(-.8 -70.3)"/><path d="M322.6 898.7h-125a5.7 5.7 0 01-5.6-5.6v-.5a5.7 5.7 0 015.6-5.7h125a5.7 5.7 0 015.7 5.7v.5a5.7 5.7 0 01-5.7 5.6zm-125-11a5 5 0 00-5 5v.4a5 5 0 005 5h125a5 5 0 005-5v-.5a5 5 0 00-5-5z" class="j"/><path d="M322.6 898h-125a5.7 5.7 0 01-5.6-5.7v-.6a5.7 5.7 0 015.6-5.6h125a5.7 5.7 0 015.7 5.6v.5a5.7 5.7 0 01-5.7 5.7zm-125-11.2a5 5 0 00-5 5v.5a5 5 0 005 5h125a5 5 0 005-5v-.6a5 5 0 00-5-5z" class="j"/><path d="M322.6 897.6h-125a5.3 5.3 0 01-5.3-5.2v.6a5.3 5.3 0 005.3 5.4h125a5.3 5.3 0 005.3-5.4v-.6a5.3 5.3 0 01-5.3 5.2z" class="j"/><path d="M196 887.8c-1.7-.2-9.4 4.7-.6 9-4.9-3.4-1.5-7.8.6-9z" class="h"/><path fill="url(#e)" d="M116.4 985.7a88.7 88.7 0 01-39-17.1 56.8 56.8 0 01-21.5-44V225.3a58.8 58.8 0 0115.3-38.7c13.2-14.3 33.8-22 61.2-23.2 45.1-1.8 38.4-2-8.8 0-27.4 1.1-48 9-61.2 23.2a58.8 58.8 0 00-15.2 38.7v699.3c.5 18 7.8 32.8 21.4 44a88.5 88.5 0 0039 17.1c21 3.8 28.8 3.6 8.8 0z" transform="translate(-.8 -70.3)"/><path fill="url(#f)" d="M401.8 985.9a88.6 88.6 0 0039-17.2 56.7 56.7 0 0021.4-44V225.4a58.9 58.9 0 00-15.2-38.6c-13.2-14.3-33.8-22-61.3-23.2-45.1-1.8-38.3-2 8.8 0 27.4 1.1 48 9 61.2 23.2a58.9 58.9 0 0115.3 38.6v699.4a57 57 0 01-21.5 44 88.4 88.4 0 01-39 17.1c-20.9 3.8-28.8 3.6-8.7 0z" transform="translate(-.8 -70.3)"/><path fill="url(#g)" d="M64.1 484.9h389.8v371.6H64.1z"/><path fill="url(#h)" d="M64.1 160.8h389.8v76.3L72 477l159.9 122.9L64.1 710.6V160.8z"/><path fill="url(#i)" d="M230.4 377.5l-12 7.5v204.6l235.5 175.9V552.1L230.4 377.5z"/><path fill="url(#j)" d="M218.4 589.6V385L72 477l146.4 112.6z"/><path fill="url(#k)" d="M453.9 552.1L230.4 377.5l223.5-140.3v314.9z"/><path fill="url(#l)" d="M219.2 608.3l234.7 175.4v-18.2L232.4 599.7l-13.2 8.6z"/><path fill="#c3c3c3" d="M258.3 921.9h-.1c-30.7-.4-132.5-2-153.5-5.8-8.7-1.6-25.3-6-39.3-17.3s-21.1-26.2-21.7-44.4V155A59.6 59.6 0 0159 116c13.4-14.5 34.1-22.4 61.8-23.5 47-2 83.4-3.4 120.9-3.4 7.8 0 15.6 0 23.2.2l12-.1c27.1 0 67 1.1 118.8 3.3 27.7 1 48.4 9 61.8 23.5a59.4 59.4 0 0115.4 39v699.4c-.6 18.2-8 33.2-21.8 44.4s-30.6 15.7-39.3 17.3c-21 3.8-122.8 5.4-153.6 5.8zM241.7 90.5a2812 2812 0 00-120.9 3.4c-27.2 1-47.7 8.8-60.7 23a58.4 58.4 0 00-15.1 38v699.4a56.2 56.2 0 0021.2 43.4 87.5 87.5 0 0038.7 17c20.8 3.8 122.5 5.4 153.2 5.8h.1c30.8-.4 132.6-2 153.4-5.8 8.6-1.5 25-5.8 38.7-17a56 56 0 0021.2-43.3V155a58 58 0 00-15-38.1c-13-14.2-33.5-22-60.8-23-51.7-2.2-91.7-3.3-118.8-3.3h-12l-23.2-.1z"/><path d="M144.7 840.4a3 3 0 01-1.4-.4l-5.4-3-3.6-2-5.2-3.2a2.6 2.6 0 01-1.4-2.2 2.6 2.6 0 011.4-2.2l5.3-3.2 3.5-2 5.3-3a3 3 0 011.5-.4 2.5 2.5 0 012.4 2.6v16.2a2.5 2.5 0 01-2.4 2.8zm-14-10.8l5 3 3.5 2 5.1 2.9.1-6v-9.8l-5.2 2.9-3.5 2zM261.2 841.5a11.9 11.9 0 1111.9-11.9 12 12 0 01-12 12zm0-21a9.2 9.2 0 109.2 9.1 9.2 9.2 0 00-9.2-9.1zM388.7 839.4h-16.3a2 2 0 01-2-2v-15.3a2 2 0 012-2h16.3a2 2 0 012 2v15.3a2 2 0 01-2 2zm-15.6-2.7h15v-14h-15z" class="u"/><path d="M64.1 160.8h389.2v22.7H64.1z" class="a"/><path fill="#fff" fill-opacity=".9" fill-rule="evenodd" d="M372.3 177.6h11.1v-11.2l-11.1 11.2z"/><path d="M396.4 169.2h7.5v8.4h-7.5z" class="w"/><path fill="#fff" fill-opacity=".3" fill-rule="evenodd" d="M402 166.4v-.9h-3.7v.9h-1.9v2.8h7.5v-2.8H402z"/><path d="M416.6 178.2h-1.1V171l-2.2.8v-1l3.1-1.1h.2zm4.8-4.8h.8a1.9 1.9 0 001.2-.4 1.4 1.4 0 00.4-1 1.3 1.3 0 00-1.5-1.6 1.6 1.6 0 00-1.1.4 1.4 1.4 0 00-.4 1h-1.1a2.2 2.2 0 01.7-1.6 3 3 0 013.8 0 2.3 2.3 0 01.7 1.8 1.9 1.9 0 01-.3 1 2.3 2.3 0 01-1 .8 2.1 2.1 0 011 .8 2 2 0 01.4 1.3 2.3 2.3 0 01-.7 1.8 2.8 2.8 0 01-2 .7 3 3 0 01-2-.7 2.2 2.2 0 01-.8-1.7h1.1a1.4 1.4 0 00.5 1 2 2 0 002.4 0 1.6 1.6 0 00.4-1.1 1.5 1.5 0 00-.5-1.2 2 2 0 00-1.3-.4h-.8zm5.3 4.2a.7.7 0 01.1-.4.6.6 0 01.5-.2.6.6 0 01.6.2.6.6 0 01.1.4.7.7 0 01-.1.5.7.7 0 01-.6.2.7.7 0 01-.5-.2.7.7 0 01-.1-.5zm0-5.2a.7.7 0 01.1-.4.8.8 0 011 0 .6.6 0 01.2.4.7.7 0 01-.2.5.8.8 0 01-1 0 .7.7 0 01-.1-.5zm8.2 2.1a5 5 0 01-.6 3 2.7 2.7 0 01-4.1 0 4.7 4.7 0 01-.7-2.8v-1.5a4.9 4.9 0 01.6-2.8 2.3 2.3 0 012-.9 2.4 2.4 0 012 .9 4.7 4.7 0 01.8 2.7zm-1-1.4a4 4 0 00-.5-2 1.5 1.5 0 00-2.4 0 3.9 3.9 0 00-.4 1.9v1.7a4.1 4.1 0 00.4 2.1 1.4 1.4 0 001.2.7 1.3 1.3 0 001.2-.7 3.9 3.9 0 00.4-2zm7.8 1.4a5 5 0 01-.6 3 2.7 2.7 0 01-4.1 0 4.7 4.7 0 01-.7-2.8v-1.5a5 5 0 01.6-2.8 2.8 2.8 0 014.1 0 4.7 4.7 0 01.7 2.8zm-1-1.4a4 4 0 00-.5-2 1.3 1.3 0 00-1.2-.7 1.3 1.3 0 00-1.2.6 3.9 3.9 0 00-.4 2v1.7a4.3 4.3 0 00.4 2.1 1.4 1.4 0 001.2.7 1.3 1.3 0 001.2-.7 3.8 3.8 0 00.4-2z" class="w"/><path d="M80 178h-1.2l-4.3-6.7v6.7h-1.2v-8.6h1.2l4.3 6.6v-6.6h1.1zm1.5-3.3a3.9 3.9 0 01.4-1.7 2.7 2.7 0 012.5-1.5 2.7 2.7 0 012.1.9 3.5 3.5 0 01.8 2.4 3.8 3.8 0 01-.3 1.7 2.8 2.8 0 01-1 1.2 2.9 2.9 0 01-1.6.4 2.7 2.7 0 01-2-.9 3.5 3.5 0 01-.9-2.4zm1 .2a2.7 2.7 0 00.6 1.7 1.7 1.7 0 002.6 0 3 3 0 00.5-1.9 2.7 2.7 0 00-.5-1.7 1.7 1.7 0 00-2.7 0 3 3 0 00-.4 1.8zm11.9-.7a5.5 5.5 0 01-2.1-1 2 2 0 01-.7-1.6 2 2 0 01.8-1.6 3.2 3.2 0 012.1-.7 3.5 3.5 0 011.6.3 2.5 2.5 0 011 1 2.4 2.4 0 01.5 1.3h-1.2a1.6 1.6 0 00-.5-1.2 2 2 0 00-1.4-.5 2.1 2.1 0 00-1.3.4 1.3 1.3 0 00-.5 1 1.1 1.1 0 00.5.9 4.5 4.5 0 001.5.6 7 7 0 011.7.7 2.4 2.4 0 01.9.9 2.1 2.1 0 01.3 1 2 2 0 01-.8 1.7 3.5 3.5 0 01-2.2.6 4.2 4.2 0 01-1.7-.3 2.8 2.8 0 01-1.2-1 2.3 2.3 0 01-.4-1.3h1.2a1.5 1.5 0 00.5 1.3 2.5 2.5 0 001.6.4 2.3 2.3 0 001.4-.4 1.2 1.2 0 00.4-1 1.2 1.2 0 00-.4-1 5 5 0 00-1.6-.6zm5.9 3.8h-1.1v-8.6h1.1zm3.5-8.6l2.8 7 2.8-7h1.5v8.6h-1.1v-7l-2.7 7h-1l-2.7-7v7h-1v-8.6zM357 177.7l-6-9.4a11.5 11.5 0 0111.9 0zM72.8 197.6a2.2 2.2 0 012.2-2.2h367.5a2.2 2.2 0 012.2 2.2v47.6a2.2 2.2 0 01-2.2 2.2H75a2.2 2.2 0 01-2.1-2.2z" class="u"/><path fill="#4086f8" fill-rule="evenodd" d="M414.4 224.7a3.3 3.3 0 003.3-3.6v-7a3.3 3.3 0 10-6.5 0v7a3.3 3.3 0 003.2 3.6z"/><path fill="#b0b0b0" fill-rule="evenodd" d="M277.3 224.8a2.5 2.5 0 000-.8 1.4 1.4 0 00-.4-.6 3.2 3.2 0 00-.7-.5 7.8 7.8 0 00-1.2-.5 8.8 8.8 0 01-1.4-.6 4.8 4.8 0 01-1-.7 3.2 3.2 0 01-.7-1 3.2 3.2 0 01-.2-1.3 3.6 3.6 0 01.2-1.4 3.1 3.1 0 011.8-1.7 4 4 0 011.5-.3 3.8 3.8 0 011.6.3 3.5 3.5 0 011.1.9 3.4 3.4 0 01.7 1.2 4.2 4.2 0 01.3 1.3h-1.6a3.7 3.7 0 00-.1-1 2.2 2.2 0 00-.4-.7 1.9 1.9 0 00-.7-.5 2.5 2.5 0 00-1-.2 2.4 2.4 0 00-.8.2 1.6 1.6 0 00-1 1 2.5 2.5 0 00-.1.8 1.7 1.7 0 00.5 1.3 5 5 0 001.7 1 8.9 8.9 0 011.6.6 4 4 0 011 .8 2.8 2.8 0 01.6 1 3.9 3.9 0 01.2 1.3 3.5 3.5 0 01-.2 1.4 3 3 0 01-.8 1 3 3 0 01-1.1.6 4.4 4.4 0 01-1.5.3 4.4 4.4 0 01-1.4-.3 3.7 3.7 0 01-1.3-.7 3.5 3.5 0 01-.9-1.2 3.8 3.8 0 01-.3-1.6h1.5a3 3 0 00.2 1.1 2.1 2.1 0 00.5.8 2 2 0 00.8.4 3 3 0 00.9.1 2.1 2.1 0 001.5-.5 2 2 0 00.6-1.3zm8.1 3.1a1.8 1.8 0 01-.1-.4v-.6a3.2 3.2 0 01-.5.5 2.4 2.4 0 01-.4.3 2.2 2.2 0 01-.6.3 2 2 0 01-.6 0 3.3 3.3 0 01-1.1-.1 2 2 0 01-.8-.5 2.3 2.3 0 01-.6-.8 3.4 3.4 0 01-.1-1.2 3 3 0 01.2-1.2 2.5 2.5 0 01.7-1 3.3 3.3 0 011-.6 5 5 0 011.7-.3h1v-1a1.6 1.6 0 00-.4-1.1 1.5 1.5 0 00-1.1-.4 1.6 1.6 0 00-.7.1 1.5 1.5 0 00-.4.3 1.2 1.2 0 00-.3.5 1.4 1.4 0 00-.1.5h-1.5a2.3 2.3 0 01.2-1 2.9 2.9 0 01.6-.8 3 3 0 011-.7 3.3 3.3 0 011.3-.2 4.2 4.2 0 011.1.2 2.5 2.5 0 011 .4 2.2 2.2 0 01.5 1 3.5 3.5 0 01.3 1.2v5.5l.1.5a2.2 2.2 0 00.1.4v.1zm-2-1.2a1.9 1.9 0 00.6 0 2 2 0 00.5-.3 2.2 2.2 0 00.4-.4 1.5 1.5 0 00.3-.4v-2.1h-.8a3.7 3.7 0 00-1 0 2.3 2.3 0 00-.8.4 1.6 1.6 0 00-.4.6 1.7 1.7 0 00-.2.7 2.3 2.3 0 00.1.7 1 1 0 00.2.5 1 1 0 00.5.2 2.1 2.1 0 00.6.1zm8-1.3l1.6-6.6h1.6l-3 10.5a6.5 6.5 0 01-.3.7 3 3 0 01-.5.8 2.5 2.5 0 01-.6.6 1.8 1.8 0 01-1 .2H288.6v-1.3H288.8a2 2 0 00.6-.1 1.2 1.2 0 00.5-.2 1.7 1.7 0 00.3-.5 3.4 3.4 0 00.3-.7l.2-1-2.7-9h1.7zm8.4-7.6a3.9 3.9 0 01.1-.8 4.1 4.1 0 01.3-.8 4.8 4.8 0 01.4-.8 3 3 0 01.6-.7l.8.7a4.7 4.7 0 00-.5 1.1 4.3 4.3 0 00-.2 1.3v1h-1.5zm2.4 0a3.9 3.9 0 01.1-.8 4 4 0 01.3-.8 4.9 4.9 0 01.4-.8 3.3 3.3 0 01.6-.6l.8.6a4.7 4.7 0 00-.5 1.1 4.4 4.4 0 00-.2 1.3v1h-1.5zm11.8 5a8 8 0 01-.3 2.3 4.5 4.5 0 01-.8 1.6 3.3 3.3 0 01-1.3 1 4.3 4.3 0 01-1.7.4 4.2 4.2 0 01-1.7-.4 3.5 3.5 0 01-1.3-1 4.5 4.5 0 01-.9-1.6 7.9 7.9 0 01-.3-2.3v-2a7.9 7.9 0 01.3-2.3 4.8 4.8 0 01.9-1.7 3.6 3.6 0 011.3-1 4.2 4.2 0 011.6-.3 4.3 4.3 0 011.8.3 3.6 3.6 0 011.3 1 4.6 4.6 0 01.8 1.7 8 8 0 01.3 2.2zm-1.5-2.1a8 8 0 00-.2-1.8 3.7 3.7 0 00-.5-1.2 2 2 0 00-.8-.7 2.8 2.8 0 00-1.1-.2 2.6 2.6 0 00-1.1.2 2.2 2.2 0 00-.8.7 3.5 3.5 0 00-.6 1.2 7.4 7.4 0 00-.1 1.8v2.1a6.9 6.9 0 00.2 1.8 3.3 3.3 0 00.5 1.2 2 2 0 00.8.7 2.5 2.5 0 001 .2 2.6 2.6 0 001.2-.2 2 2 0 00.8-.7 3.3 3.3 0 00.5-1.2 8 8 0 00.2-1.8zm6 3l-.8.9v3.2h-1.5v-13h1.5v7.8l.6-1 2.2-3h1.8l-2.9 4 3.3 5.2H321zm17.3 2.6l-.4.5a2.9 2.9 0 01-.7.6 4.4 4.4 0 01-1 .4 5.5 5.5 0 01-1.6.2 4.6 4.6 0 01-1.7-.3 3.6 3.6 0 01-1.4-1 4.4 4.4 0 01-.8-1.6 7.4 7.4 0 01-.4-2.3v-2.3q0-5.2 4.2-5.2a4.6 4.6 0 011.6.3 3.3 3.3 0 011.1.7 3.5 3.5 0 01.8 1.2 5.2 5.2 0 01.3 1.6h-1.5a3.2 3.2 0 00-.7-1.8 2 2 0 00-1.6-.6 2.8 2.8 0 00-1.2.2 2 2 0 00-.8.7 3.2 3.2 0 00-.5 1.2 9 9 0 00-.1 1.7v2.3a6.6 6.6 0 00.2 1.7 3.5 3.5 0 00.5 1.2 2.3 2.3 0 001 .7 2.7 2.7 0 001 .3 3.8 3.8 0 001 0 3 3 0 00.6-.3 1.8 1.8 0 00.4-.2l.2-.3v-2.8h-2.2v-1.4h3.7zm2-3.5a5.7 5.7 0 01.3-1.8 3.8 3.8 0 01.7-1.4 3 3 0 011.2-.8 3.4 3.4 0 011.3-.3 3.5 3.5 0 011.4.3 3.1 3.1 0 011.2.8 4.2 4.2 0 01.7 1.4 6 6 0 01.3 1.8v1a6 6 0 01-.3 1.8 4.2 4.2 0 01-.7 1.4 3 3 0 01-1.2.8 3.5 3.5 0 01-1.3.3 3.6 3.6 0 01-1.4-.3 3 3 0 01-1.2-.8 3.9 3.9 0 01-.7-1.4 5.7 5.7 0 01-.3-1.9zm1.5.9a5.2 5.2 0 00.2 1.3 3 3 0 00.4 1 2 2 0 00.7.5 1.7 1.7 0 00.8.2q2 0 2-3v-.8a5.2 5.2 0 00-.2-1.3 3 3 0 00-.4-1 1.8 1.8 0 00-.7-.6 1.8 1.8 0 00-1.6 0 1.8 1.8 0 00-.6.6 3.1 3.1 0 00-.5 1 5.2 5.2 0 00-.1 1.3zm7.2-.9a6 6 0 01.3-1.8 3.8 3.8 0 01.7-1.4 3 3 0 011.1-.8 3.4 3.4 0 011.4-.3 3.4 3.4 0 011.4.3 3.1 3.1 0 011.1.8 3.8 3.8 0 01.8 1.4 6 6 0 01.3 1.8v1a6 6 0 01-.3 1.8 3.9 3.9 0 01-.8 1.4 3 3 0 01-1 .8 3.5 3.5 0 01-1.5.3 3.6 3.6 0 01-1.4-.3 3 3 0 01-1-.8 3.9 3.9 0 01-.8-1.4 6 6 0 01-.3-1.9zm1.5.9a4.8 4.8 0 00.2 1.3 2.6 2.6 0 00.4 1 2 2 0 00.6.5 1.7 1.7 0 00.8.2q2 0 2-3v-.8a4.8 4.8 0 00-.1-1.3 2.7 2.7 0 00-.4-1 1.8 1.8 0 00-.7-.6 1.8 1.8 0 00-1.6 0 1.8 1.8 0 00-.7.6 3 3 0 00-.4 1 4.8 4.8 0 00-.1 1.3zm7.2-.8a7.3 7.3 0 01.2-2 3.8 3.8 0 01.6-1.3 2.4 2.4 0 011-.8 3 3 0 011.3-.3 2.3 2.3 0 011.2.3 2.4 2.4 0 01.9 1v-1h1.4v9.1a4.7 4.7 0 01-.2 1.6 2.9 2.9 0 01-.7 1.1 2.7 2.7 0 01-1 .7 4 4 0 01-1.3.2 4.3 4.3 0 01-.7-.1 5 5 0 01-.7-.2 3.8 3.8 0 01-.8-.4 2.2 2.2 0 01-.6-.5l.6-1a3.2 3.2 0 001 .7 2.8 2.8 0 001 .2 2.7 2.7 0 00.8-.1 1.5 1.5 0 00.6-.4 1.9 1.9 0 00.4-.6 3.2 3.2 0 00.1-1V227a2.5 2.5 0 01-.8.8 2.4 2.4 0 01-1.2.3 2.9 2.9 0 01-1.3-.3 2.6 2.6 0 01-1-.8 3.9 3.9 0 01-.6-1.3 7.6 7.6 0 01-.2-2zm1.5.8a4.4 4.4 0 00.5 2.3 1.6 1.6 0 001.4.7 1.6 1.6 0 001-.3 2.5 2.5 0 00.7-.8V221a2.5 2.5 0 00-.7-.8 1.5 1.5 0 00-1-.3 1.6 1.6 0 00-1.5.7 4.4 4.4 0 00-.4 2.3zm9 4.1h-1.5v-13h1.5zm5.5.2a4.3 4.3 0 01-1.4-.2 2.8 2.8 0 01-1.2-.8 3.4 3.4 0 01-.7-1.3 6.1 6.1 0 01-.2-1.8v-1a6.4 6.4 0 01.3-2 3.7 3.7 0 01.8-1.3 2.7 2.7 0 011-.8 3.6 3.6 0 011.3-.2 3.6 3.6 0 011.4.3 2.5 2.5 0 011 .8 3.6 3.6 0 01.6 1.4 9.3 9.3 0 01.2 1.8v.8h-5.1v.3a3.4 3.4 0 00.5 2 2 2 0 001.6.8 2.8 2.8 0 00.7-.1 2.5 2.5 0 00.6-.2 2.1 2.1 0 00.4-.4 4 4 0 00.4-.4l.8 1a4.2 4.2 0 01-.4.5 2.7 2.7 0 01-.7.4 3.7 3.7 0 01-.8.3 4.2 4.2 0 01-1 .2zm-.1-8.2a2.3 2.3 0 00-.7.1 1.3 1.3 0 00-.6.4 2.2 2.2 0 00-.4.9 4.8 4.8 0 00-.2 1.2h3.6v-.2a6.8 6.8 0 00-.1-1 2.4 2.4 0 00-.3-.7 1.3 1.3 0 00-.5-.5 1.7 1.7 0 00-.8-.1zm6.5-3.9a3.9 3.9 0 01-.1.8 5 5 0 01-.3.9 4.4 4.4 0 01-.4.7 4 4 0 01-.5.7l-.9-.6a5.5 5.5 0 00.5-1.2 4.3 4.3 0 00.2-1.2v-1.1h1.5zm2.3 0a4.6 4.6 0 010 .8 5 5 0 01-.3.9 4.4 4.4 0 01-.4.7 3.6 3.6 0 01-.6.7l-.8-.6a5.5 5.5 0 00.5-1.2 4.3 4.3 0 00.2-1.2v-1.1h1.4z"/><path d="M154.4 217.3c3.9 0 4.8 3.9 4.8 3.9l-7.1 2.8a2.6 2.6 0 002.6 1.6 3.4 3.4 0 002.6-1.4l1.9 1.1a5.5 5.5 0 01-4.5 2.3 5.2 5.2 0 01-5.4-5 5 5 0 015.1-5.3zm-.2 2a2.5 2.5 0 012.3 1l-4.9 2s-.3-2.5 2.6-3z" class="aa"/><path d="M145.9 212.2h2.4v15.1h-2.4z" class="ab"/><path d="M142.1 218.6v-1h2.2v9.6a4.8 4.8 0 01-5 5 5 5 0 01-4.8-3l2-.8a3 3 0 002.8 1.8 2.7 2.7 0 002.8-2.9v-1a3.6 3.6 0 01-3 1.3 5.1 5.1 0 010-10.3 3.6 3.6 0 013 1.3zm-2.8 7a3.2 3.2 0 10-3-3.1 3 3 0 003 3.1z" class="ac"/><path fill="#fdbe07" fill-rule="evenodd" d="M127.6 227.6a5.2 5.2 0 10-5.4-5.1 5.3 5.3 0 005.4 5zm0-2a3.1 3.1 0 10-3-3.1 3 3 0 003 3z"/><path d="M115.9 227.6a5.2 5.2 0 10-5.5-5.1 5.3 5.3 0 005.5 5zm0-2a3.1 3.1 0 10-3-3.1 3 3 0 003 3z" class="aa"/><path d="M101.8 219h7.2l-.1 2h-7z" class="ac"/><path d="M109.7 219.6a8.2 8.2 0 11-8.2-8 8.2 8.2 0 015.8 2.4l-1.5 1.5a6 6 0 00-4.2-1.7 5.8 5.8 0 105.9 5.8 5.5 5.5 0 000-.7h2.2a5.6 5.6 0 010 .7z" class="ac"/><path fill="#ef4131" d="M420.2 221.4a5.7 5.7 0 01-11.5 0H407a7.5 7.5 0 006.5 7.3v3.5h2.1v-3.5a7.5 7.5 0 006.5-7.3z"/><path fill="#f3ab0b" fill-rule="evenodd" d="M409.7 227l1-1.3a5.3 5.3 0 01-2-4.3h-1.8a7.3 7.3 0 002.8 5.7z"/><path d="M413.3 228.7h2.2v3.6h-2.2z" class="ab"/><path fill="#f5f5f5" fill-rule="evenodd" d="M281.6 754.8a23.8 23.8 0 11-23.8-23.8 23.8 23.8 0 0123.8 23.8zm-31.3-4.8a2.7 2.7 0 11-2.7-2.7 2.7 2.7 0 012.7 2.7zm8 2.7a2.7 2.7 0 10-2.6-2.7 2.7 2.7 0 002.7 2.7zM272 750a2.7 2.7 0 11-2.7-2.7 2.7 2.7 0 012.7 2.7zm-2.7 13.5a2.7 2.7 0 10-2.7-2.7 2.7 2.7 0 002.7 2.7zm-8.1-2.7a2.7 2.7 0 11-2.7-2.7 2.7 2.7 0 012.7 2.7zm-13.5 2.7a2.7 2.7 0 10-2.7-2.7 2.7 2.7 0 002.7 2.7z"/><path fill="#3767d6" d="M120.8 774.1l1.3-4.7A34.8 34.8 0 0192 739l-4.7.5a39.6 39.6 0 0033.4 34.7z"/><path d="M88 744.2a67.3 67.3 0 01-1-9 2.8 2.8 0 012.8-3h7.8a2.3 2.3 0 012.3 2.2l.1 3.6a42 42 0 001.3 5.4 1.8 1.8 0 01-.5 1.9l-9 8.5a50.2 50.2 0 01-3.7-9.6zM117 773.2a65.8 65.8 0 009 1.2 2.9 2.9 0 003-2.9v-7.8a2.3 2.3 0 00-2.3-2.2l-3.6-.2a42 42 0 01-5.4-1.3 1.8 1.8 0 00-1.9.5l-8.6 9a56 56 0 009.8 3.7z" class="aj"/><path fill="#e2e2e2" fill-rule="evenodd" d="M204 741.7l4.8-6a1.5 1.5 0 00-1.2-2.5H177a3.9 3.9 0 00-3.9 4v24.2a3.9 3.9 0 003.9 3.9H200a3.9 3.9 0 004-4z"/><path fill="#a7a7a7" fill-rule="evenodd" d="M198 741.1h-18.8v3H198zm0 6h-18.8v3H198zm-12.5 6.2H198v3h-12.5z"/><path d="M196.4 746.2l7.4 7.4v9a2.8 2.8 0 01-2.6 2.4h-11v-19.1z" class="a"/><path fill="#00acf8" fill-rule="evenodd" d="M166.7 754.2l-4.8-6a1.5 1.5 0 011.2-2.5h30.7a3.9 3.9 0 013.9 3.9v23.1a3.9 3.9 0 01-4 4h-23a3.9 3.9 0 01-4-4z"/><path fill="#eee" fill-rule="evenodd" d="M172.8 753.6h18.8v3h-18.8zm0 6h18.8v3h-18.8zm12.4 6.1h-12.4v3h12.4z"/><path fill="#848484" d="M312.8 736.1a1.9 1.9 0 011.8-1.8h5a1.9 1.9 0 011.9 1.9v3a1.9 1.9 0 01-1.9 1.8h-5a1.9 1.9 0 01-1.8-1.9z"/><path fill="#e4e4e4" d="M309.6 740.6a3.1 3.1 0 013.1-3H353a3.1 3.1 0 013 3v29.5a3.1 3.1 0 01-3 3.1h-40.3a3.1 3.1 0 01-3.1-3z"/><path fill="#92c654" fill-rule="evenodd" d="M337 757.7l-17.4-.5s2.3 9.3 11.3 10.6z"/><path fill="#5d84c3" fill-rule="evenodd" d="M336 753s2.8 1.8.7 5-6 9.7-6 9.7 6.2 2.8 11.5-4.5z"/><path fill="#fec226" fill-rule="evenodd" d="M332 759.9l-8.6-15.2s-6.8 6.9-3.3 15.2z"/><path fill="#ec7835" fill-rule="evenodd" d="M328.8 757.2l8.9-15s-9.4-2.5-14.8 4.8z"/><path fill="#de5245" fill-rule="evenodd" d="M329.2 752.9l17.5.1s-2.5-9.3-11.5-10.4z"/><path fill="#4e5eaa" fill-rule="evenodd" d="M332.6 751l8.6 15.3s6.8-6.9 3.2-15.2z"/><path d="M322.3 765.3l7.7 7.9h23.5l2.3-2.4v-12.7l-13.5-14s4.2 8.6 3.5 12.9-3.8 8.4-6.2 9.8-8 2.6-10.5 1.3a70.5 70.5 0 00-6.8-2.8z" class="a"/><path fill="#f2f2f2" fill-rule="evenodd" d="M333 770.3a14.7 14.7 0 10-14.4-14.8 14.6 14.6 0 0014.4 14.8zm.1-2.7a12 12 0 10-11.6-12 11.8 11.8 0 0011.6 12z"/><ellipse cx="350.7" cy="743.1" fill="#888" rx="2.2" ry="2.3"/><ellipse cx="333" cy="755.5" fill="#f2f2f2" rx="4.4" ry="4.5"/><path d="M426.9 773.2" class="a"/><path fill="#e75a4d" d="M428.4 737.5a4 4 0 014 4v1.2l-5.6 4-19.1 13.2-19.1-13.3v26.6h-1.4a4 4 0 01-4-4v-27.6a4 4 0 014-4l20.5 15.1 20.7-15.2z"/><path d="M387.2 737.5l20.5 15.2 20.7-15.2z" class="ba"/><path d="M388.6 746.6v26.6H427v-26.5L407.7 760z" class="bb"/><path fill="#b8b7ae" d="M388.6 773.2l19.1-13.3-19 13z"/><path fill="#b7b6ad" d="M426.9 746.7v26.5L407.7 760z"/><path fill="#b2392f" d="M432.5 742.7v26.5c-.1 3-1.4 4-5.6 4v-26.5l5.6-4z"/><path d="M387.2 737.5l20.5 15.2 20.7-15.2z" class="ba"/><path d="M387.2 737.5l20.5 15.2 20.7-15.2z" class="ba"/><path d="M387.2 737.5l20.5 15.2 20.7-15.2z" class="ba"/><path d="M387.2 737.5l20.5 15.2 20.7-15.2z" class="ba"/><path d="M387.2 737.5l20.5 15.2 20.7-15.2z" class="ba"/><path d="M387.2 737.5l20.5 15.2 20.7-15.2z" class="ba"/><path d="M387.2 737.5l20.5 15.2 20.7-15.2z" class="ba"/><path d="M387.2 737.5l20.5 15.2 20.7-15.2z" class="bb"/><circle cx="258.7" cy="704.2" r="4.5" class="u"/><circle cx="247" cy="704.2" r="3.4" class="u"/><circle cx="270.5" cy="704.2" r="3.4" class="u"/><circle cx="107.2" cy="295.3" r="29.3" class="u"/></svg>