<svg xmlns="http://www.w3.org/2000/svg" xmlns:xlink="http://www.w3.org/1999/xlink" viewBox="0 0 516.5 923.2"><defs><path id="reuse-0" fill="url(#m)" d="M388 807.8l20.6 15.2 20.7-15.2z"/></defs><linearGradient id="a" x1="392.9" x2="387.3" y1="124.5" y2="120.7" gradientUnits="userSpaceOnUse"><stop offset="0" stop-color="#151515"/><stop offset=".6" stop-color="#343434"/><stop offset="1" stop-color="#343434"/></linearGradient><linearGradient id="d" x1="394.8" x2="392.7" y1="196.7" y2="195.3" xlink:href="#a"/><linearGradient id="b" x1="190.6" x2="323.7" y1="187.5" y2="187.5" gradientUnits="userSpaceOnUse"><stop offset="0" stop-color="#171717"/><stop offset="1" stop-color="#171717"/></linearGradient><linearGradient id="e" x1="192.9" x2="326" y1="959.9" y2="959.9" xlink:href="#b"/><linearGradient id="c" x1="46.7" x2="57.5" y1="575.3" y2="575.3" gradientUnits="userSpaceOnUse"><stop offset="0" stop-color="#505050"/><stop offset=".4" stop-color="#212121"/><stop offset="1"/></linearGradient><linearGradient id="f" x1="-2955.1" x2="-2944.3" y1="575.4" y2="575.4" gradientTransform="matrix(-1 0 0 1 -2483.7 0)" xlink:href="#c"/><radialGradient id="g" cx="259.1" cy="741" r="190.8" gradientTransform="matrix(1 0 0 .7 .9 152)" gradientUnits="userSpaceOnUse"><stop offset="0" stop-color="#1c3192"/><stop offset="1" stop-color="#00257e"/></radialGradient><linearGradient id="h" x1="259" x2="259" y1="710.6" y2="160.8" gradientUnits="userSpaceOnUse"><stop offset="0" stop-color="#ffd03b"/><stop offset="1" stop-color="#d19918"/></linearGradient><linearGradient id="i" x1="218.4" x2="453.9" y1="571.5" y2="571.5" gradientUnits="userSpaceOnUse"><stop offset="0" stop-color="#149bd4"/><stop offset="1" stop-color="#0f55a8"/></linearGradient><linearGradient id="j" x1="72" x2="218.4" y1="487.3" y2="487.3" gradientUnits="userSpaceOnUse"><stop offset="0" stop-color="#0356bb"/><stop offset="1" stop-color="#037bd2"/></linearGradient><linearGradient id="k" x1="468.7" x2="332.3" y1="245.7" y2="481.9" gradientUnits="userSpaceOnUse"><stop offset="0" stop-color="#021c55"/><stop offset="1" stop-color="#042e8e"/></linearGradient><linearGradient id="l" x1="338.3" x2="343.6" y1="693.7" y2="686.5" gradientUnits="userSpaceOnUse"><stop offset="0" stop-color="#00225c" stop-opacity="0"/><stop offset=".2" stop-color="#00225c" stop-opacity=".1"/><stop offset=".4" stop-color="#00225c" stop-opacity=".2"/><stop offset=".7" stop-color="#00225c" stop-opacity=".5"/><stop offset=".9" stop-color="#00225c" stop-opacity=".8"/><stop offset="1" stop-color="#00225c"/></linearGradient><linearGradient id="m" x1="526.4" x2="555" y1="1028.7" y2="1028.7" gradientUnits="userSpaceOnUse"><stop offset="0" stop-color="#f8f6ef"/><stop offset="1" stop-color="#e7e4d6"/></linearGradient><path fill="none" d="M0 0h516.5v918.2H0z"/><path d="M258.3 923.2c30.9-.4 132.8-2 153.8-5.8 25-4.5 60.8-21.3 62.2-63V155.1s2.7-60.8-78.5-64a2257 2257 0 00-133.1-3.2h4.5c-47.4-.9-92.9.9-146.4 3.2-81.2 3.2-78.5 64-78.5 64v699.3c1.4 41.7 37.2 58.5 62.1 63 21.1 3.8 122.6 5.4 153.7 5.8z"/><path fill="#3b3b3b" d="M398.5 123.6a7.9 7.9 0 11-7.9-7.8 7.9 7.9 0 017.9 7.8z"/><path fill="#313131" d="M397.8 123.6a7.2 7.2 0 11-7.2-7.1 7.2 7.2 0 017.2 7.1z"/><path fill="#353535" d="M395.5 123.6a4.9 4.9 0 11-4.9-4.8 4.9 4.9 0 014.9 4.8z"/><path fill="#151515" d="M394.9 123.6a4.3 4.3 0 11-8.5 0 4.3 4.3 0 018.5 0z"/><ellipse cx="390.2" cy="122.7" fill="url(#a)" rx="2.7" ry="2.3"/><path fill="url(#d)" d="M394.8 196a1 1 0 01-1 .9.9.9 0 110-1.8 1 1 0 011 .9z" transform="translate(-.8 -70.3)"/><path fill="#484848" d="M320.4 113.3h-125a6.7 6.7 0 00-6.8 6.8v.5a6.8 6.8 0 006.8 6.8h125a6.9 6.9 0 006.8-6.8v-.5a6.8 6.8 0 00-6.8-6.8zm4 7.3a4.1 4.1 0 01-4 4.1h-125a4.1 4.1 0 01-4.1-4.1v-.5a4.1 4.1 0 014.1-4.1h125a4 4 0 014 4.1z"/><path fill="url(#b)" d="M321.2 183.6h-125a6.7 6.7 0 00-6.8 6.8v1a6.8 6.8 0 016.8-6.3h125a6.8 6.8 0 016.7 6.3l.1-.5v-.5a6.8 6.8 0 00-6.8-6.8z" transform="translate(-.8 -70.3)"/><path fill="#171717" d="M320.4 126.2h-125a5.6 5.6 0 01-5.7-5.6v-.5a5.7 5.7 0 015.7-5.7h125a5.7 5.7 0 015.6 5.7v.5a5.6 5.6 0 01-5.6 5.6zm-125-11.1a5 5 0 00-5 5v.5a5 5 0 005 5h125a5 5 0 004.9-5v-.5a4.9 4.9 0 00-4.9-5z"/><path fill="#171717" d="M320.4 125.5h-125a5.7 5.7 0 01-5.7-5.7v-.5a5.6 5.6 0 015.7-5.6h125a5.6 5.6 0 015.6 5.6v.5a5.7 5.7 0 01-5.6 5.7zm-125-11.2a5 5 0 00-5 5v.5a5 5 0 005 5h125a4.9 4.9 0 004.9-5v-.5a5 5 0 00-4.9-5z"/><path fill="#171717" d="M320.4 125.1h-125a5.2 5.2 0 01-5.3-5.2l-.1.2v.5a5.4 5.4 0 005.4 5.3h125a5.3 5.3 0 005.3-5.3v-.7a5.4 5.4 0 01-5.3 5.2z"/><path fill="#484848" d="M193.7 115.4c-1.6-.3-9.4 4.6-.5 9-4.9-3.5-1.5-7.8.5-9zM322.6 885.7h-125a6.8 6.8 0 00-6.8 6.8v.5a6.8 6.8 0 006.8 6.8h125a6.7 6.7 0 006.8-6.8v-.5a6.7 6.7 0 00-6.8-6.8zm4.1 7.3a4.1 4.1 0 01-4.1 4.1h-125a4 4 0 01-4-4.1v-.5a4 4 0 014-4.1h125a4.1 4.1 0 014.1 4.1z"/><path fill="url(#e)" d="M323.4 956h-125a6.8 6.8 0 00-6.8 6.8v.5a.9.9 0 00.1.5 6.8 6.8 0 016.7-6.3h125a6.8 6.8 0 016.8 6.3v-1a6.7 6.7 0 00-6.8-6.8z" transform="translate(-.8 -70.3)"/><path fill="#171717" d="M322.6 898.6h-125a5.6 5.6 0 01-5.6-5.6v-.5a5.7 5.7 0 015.6-5.7h125a5.8 5.8 0 015.7 5.7v.5a5.7 5.7 0 01-5.7 5.6zm-125-11.1a5 5 0 00-4.9 5v.5a5 5 0 004.9 5h125a5 5 0 005-5v-.5a5 5 0 00-5-5z"/><path fill="#171717" d="M322.6 897.9h-125a5.7 5.7 0 01-5.6-5.7v-.5a5.6 5.6 0 015.6-5.6h125a5.7 5.7 0 015.7 5.6v.5a5.8 5.8 0 01-5.7 5.7zm-125-11.1a4.9 4.9 0 00-4.9 4.9v.5a4.9 4.9 0 004.9 5h125a5 5 0 005-5v-.5a4.9 4.9 0 00-5-4.9z"/><path fill="#171717" d="M322.6 897.5h-125a5.4 5.4 0 01-5.3-5.1v.5a5.3 5.3 0 005.3 5.3h125a5.3 5.3 0 005.3-5.3v-.5a5.2 5.2 0 01-5.3 5.1z"/><path fill="#484848" d="M196 887.8c-1.7-.2-9.4 4.6-.6 9-4.8-3.5-1.5-7.8.6-9z"/><path fill="url(#c)" d="M116.4 985.7c-8.6-1.6-25.2-5.9-39-17.2s-20.9-25.9-21.5-43.9V225.3a58.8 58.8 0 0115.3-38.6c13.2-14.4 33.8-22.1 61.2-23.3 45.2-1.8 38.4-2-8.7 0-27.5 1.1-48.1 8.9-61.3 23.3a59 59 0 00-15.2 38.6v699.3c.6 18 7.8 32.8 21.4 43.9s30.4 15.6 39 17.2c20.9 3.8 28.8 3.6 8.8 0z" transform="translate(-.8 -70.3)"/><path fill="url(#f)" d="M401.8 985.9c8.6-1.6 25.1-5.9 38.9-17.2s20.9-25.9 21.5-43.9V225.4a59 59 0 00-15.2-38.6c-13.2-14.3-33.8-22-61.3-23.2-45.1-1.8-38.4-2 8.8 0 27.4 1.1 48 8.9 61.2 23.2a58.8 58.8 0 0115.3 38.6v699.4c-.6 18-7.9 32.8-21.5 43.9s-30.4 15.6-39 17.2c-20.9 3.8-28.8 3.6-8.7 0z" transform="translate(-.8 -70.3)"/><path fill="url(#g)" d="M64.1 484.9h389.8v371.6H64.1z"/><path fill="url(#h)" d="M64.1 160.8h389.8V237L72 477l159.9 122.9L64.1 710.6z"/><path fill="url(#i)" d="M230.4 377.5l-12 7.5v204.6l235.5 175.9V552.1z"/><path fill="url(#j)" d="M218.4 589.6V385L72 477z"/><path fill="url(#k)" d="M453.9 552.1L230.4 377.5l223.5-140.3z"/><path fill="url(#l)" d="M219.1 608.3l234.8 175.4v-18.2L232.4 599.7z"/><path fill="#c3c3c3" d="M258.3 921.8h-.2c-30.7-.4-132.5-1.9-153.4-5.7-8.7-1.6-25.4-6-39.3-17.3s-21.1-26.2-21.7-44.5V155c-.1-.2-.8-21.6 15.4-39.1 13.3-14.5 34.1-22.4 61.7-23.4 47.1-2 83.4-3.4 120.9-3.4 7.9 0 15.7 0 23.3.2h12c27.1 0 67 1.1 118.8 3.3 27.6 1 48.4 8.9 61.7 23.4a59.3 59.3 0 0115.4 39.1v699.3c-.6 18.2-7.9 33.1-21.7 44.4s-30.6 15.7-39.3 17.3c-21 3.8-122.9 5.3-153.6 5.7zM241.7 90.4c-37.5 0-73.7 1.4-120.8 3.4-27.3 1.1-47.7 8.8-60.8 23A58.7 58.7 0 0045 154.9v699.4c.6 17.8 7.7 32.4 21.2 43.4s30.2 15.5 38.7 17c20.9 3.8 122.6 5.4 153.3 5.8h.1c30.7-.4 132.5-2 153.4-5.8 8.5-1.5 24.9-5.8 38.6-17s20.7-25.6 21.3-43.4V155a57.9 57.9 0 00-15.1-38.1c-13-14.3-33.5-22-60.8-23.1-51.7-2.2-91.6-3.3-118.7-3.3h-12z"/><path fill="#fff" d="M144.7 840.3a2.3 2.3 0 01-1.4-.4l-5.4-2.9-3.5-2.1-5.3-3.1a2.7 2.7 0 01-1.3-2.2 2.6 2.6 0 011.3-2.2l5.3-3.2 3.5-2.1 5.4-2.9a2.3 2.3 0 011.4-.4 2.4 2.4 0 012.4 2.6v16.3a2.4 2.4 0 01-2.4 2.6zm-14-10.7l5.1 3 3.5 2 5.1 2.9v-15.8l-5.1 2.8-3.5 2zM261.2 841.5a11.9 11.9 0 1111.9-11.9 11.9 11.9 0 01-11.9 11.9zm0-21.1a9.2 9.2 0 109.2 9.2 9.2 9.2 0 00-9.2-9.2zM388.7 839.4h-16.3a2 2 0 01-2-2.1V822a2 2 0 012-2h16.3a2 2 0 012.1 2v15.3a2.1 2.1 0 01-2.1 2.1zm-15.6-2.7h15v-14h-15z"/><path fill="none" d="M64.1 160.8h389.2v22.7H64.1z"/><path fill="#fff" fill-opacity=".9" fill-rule="evenodd" d="M372.3 177.6h11.1v-11.2z"/><path fill="#fff" fill-opacity=".9" d="M396.5 169.2h7.4v8.4h-7.4z"/><path fill="#fff" fill-opacity=".3" fill-rule="evenodd" d="M402 166.4v-.9h-3.7v.9h-1.8v2.8h7.4v-2.8z"/><path fill="#fff" fill-opacity=".9" d="M416.6 178.2h-1.1v-7.3l-2.2.8v-1l3.1-1.2h.2zm4.8-4.9h.8a1.6 1.6 0 001.2-.4 1.2 1.2 0 00.5-1 1.3 1.3 0 00-1.5-1.5 1.6 1.6 0 00-1.2.4 1.5 1.5 0 00-.4 1h-1.1a2.5 2.5 0 01.8-1.7 3.3 3.3 0 013.8 0 2.1 2.1 0 01.7 1.8 1.7 1.7 0 01-.4 1.1 2.7 2.7 0 01-1 .8 1.8 1.8 0 011.1.7 2 2 0 01.4 1.3 2.1 2.1 0 01-.7 1.8 3.2 3.2 0 01-4 0 2.1 2.1 0 01-.7-1.7h1.1a1.4 1.4 0 00.4 1.1 1.6 1.6 0 002.8-1.2 1.2 1.2 0 00-.4-1.1 2.2 2.2 0 00-1.4-.5h-.8zm5.3 4.3a.6.6 0 01.2-.5.6.6 0 01.5-.2l.5.2.2.5-.2.5h-1a.6.6 0 01-.2-.5zm0-5.2a.8.8 0 01.2-.5.6.6 0 01.5-.2l.5.2a.8.8 0 01.2.5.5.5 0 01-.2.4c-.1.2-.3.2-.5.2s-.4 0-.5-.2a.5.5 0 01-.2-.4zm8.2 2.1a5.7 5.7 0 01-.6 2.9 2.5 2.5 0 01-2.1.9 2.3 2.3 0 01-2-.9 4.8 4.8 0 01-.7-2.7v-1.5a4.3 4.3 0 01.7-2.8 2.3 2.3 0 012-.9 2.5 2.5 0 012.1.9 4.7 4.7 0 01.6 2.7zm-1.1-1.5a4.9 4.9 0 00-.3-2 1.5 1.5 0 00-1.3-.6 1.4 1.4 0 00-1.2.6 3.4 3.4 0 00-.4 1.9v1.8a3.5 3.5 0 00.4 2 1.3 1.3 0 001.2.7 1.2 1.2 0 001.2-.6 3.5 3.5 0 00.4-2zm7.9 1.5a5.7 5.7 0 01-.6 2.9 2.5 2.5 0 01-2.1.9 2.3 2.3 0 01-2-.9 4.8 4.8 0 01-.7-2.7v-1.5a4.3 4.3 0 01.7-2.8 2.3 2.3 0 012-.9 2.6 2.6 0 012.1.9 4.7 4.7 0 01.6 2.7zm-1.1-1.5a4.9 4.9 0 00-.3-2 1.5 1.5 0 00-1.3-.6 1.4 1.4 0 00-1.2.6 3.4 3.4 0 00-.4 1.9v1.8a3.5 3.5 0 00.4 2 1.3 1.3 0 001.2.7 1.2 1.2 0 001.2-.6 3.5 3.5 0 00.4-2z"/><path fill="#fff" d="M80 177.9h-1.2l-4.3-6.6v6.6h-1.2v-8.6h1.2l4.3 6.7v-6.7H80zm1.5-3.2a3.1 3.1 0 01.4-1.7 2.9 2.9 0 011-1.2 2.4 2.4 0 011.5-.4 2.6 2.6 0 012.1.9 3.2 3.2 0 01.8 2.4 4.7 4.7 0 01-.3 1.7 2.3 2.3 0 01-1.1 1.1 2.4 2.4 0 01-1.5.4 2.9 2.9 0 01-2.1-.9 3.6 3.6 0 01-.8-2.4zm1.1.1a2.9 2.9 0 00.5 1.7 1.6 1.6 0 001.3.6 1.5 1.5 0 001.3-.6 2.4 2.4 0 00.5-1.8 2.3 2.3 0 00-.5-1.7 1.4 1.4 0 00-1.3-.7 1.5 1.5 0 00-1.3.7 3 3 0 00-.5 1.8zm11.8-.7a5.1 5.1 0 01-2.1-1 2.1 2.1 0 01-.7-1.6 2.1 2.1 0 01.8-1.6 3.1 3.1 0 012.1-.7 3.8 3.8 0 011.6.3 2.7 2.7 0 011.1 1 2 2 0 01.4 1.3h-1.2a1.6 1.6 0 00-.4-1.2 2.3 2.3 0 00-1.5-.5 2.8 2.8 0 00-1.3.4 1.2 1.2 0 00-.4 1 1 1 0 00.4.9 3.5 3.5 0 001.5.7 5.4 5.4 0 011.7.7 2.4 2.4 0 01.9.8 2 2 0 01.3 1.1 2.1 2.1 0 01-.8 1.7 3.8 3.8 0 01-2.2.6 4.1 4.1 0 01-1.6-.3 1.9 1.9 0 01-1.2-.9 2.3 2.3 0 01-.4-1.4h1.1a1.6 1.6 0 00.6 1.3 2.4 2.4 0 001.5.4 2 2 0 001.4-.4 1.1 1.1 0 00.5-1 1.1 1.1 0 00-.5-.9 3.4 3.4 0 00-1.6-.7zm5.9 3.8h-1.2v-8.6h1.2zm3.5-8.6l2.8 7 2.9-7h1.4v8.6h-1.1V171l-2.8 6.9h-.8l-2.8-6.9v6.9h-1.1v-8.6zM357 177.7l-6-9.5a11.7 11.7 0 0112 0zM72.8 197.6a2.2 2.2 0 012.2-2.2h367.5a2.2 2.2 0 012.2 2.2v47.6a2.1 2.1 0 01-2.2 2.1H75a2.1 2.1 0 01-2.2-2.1z"/><path fill="#4086f8" fill-rule="evenodd" d="M414.4 224.6a3.3 3.3 0 003.3-3.5v-7a3.3 3.3 0 10-6.5 0v7a3.3 3.3 0 003.2 3.5z"/><path fill="#b0b0b0" fill-rule="evenodd" d="M277.3 224.7a1.7 1.7 0 00-.1-.7.9.9 0 00-.3-.6 1.8 1.8 0 00-.7-.5 3.3 3.3 0 00-1.2-.5l-1.4-.6a3.9 3.9 0 01-1-.8 3.6 3.6 0 01-.7-1 5.1 5.1 0 01-.2-1.3 5.9 5.9 0 01.2-1.3 4.1 4.1 0 01.7-1.1 3.5 3.5 0 011.2-.7l1.4-.2a4.1 4.1 0 011.6.3 5 5 0 011.2.8 7.5 7.5 0 01.7 1.2 6.8 6.8 0 01.2 1.4h-1.6a2.5 2.5 0 00-.1-.9 2 2 0 00-.4-.8 1.5 1.5 0 00-.6-.5l-1-.2-.9.2-.6.4-.3.6a2.4 2.4 0 00-.2.8 1.6 1.6 0 00.6 1.3 4.5 4.5 0 001.7 1 7.6 7.6 0 011.6.6 3.9 3.9 0 011 .8 2.7 2.7 0 01.6 1 4.7 4.7 0 010 2.7 3.9 3.9 0 01-.8 1 4.1 4.1 0 01-1.1.7l-1.5.2-1.4-.2-1.3-.7a2.7 2.7 0 01-.9-1.2 4.1 4.1 0 01-.3-1.6h1.5a3.6 3.6 0 00.2 1.1 1.8 1.8 0 00.5.7l.8.5h.9a2.1 2.1 0 001.5-.5 2 2 0 00.5-1.4zm8.1 3.2l-.1-.5-.1-.5-.3.4-.5.4-.6.2h-1.7a2.4 2.4 0 01-.8-.6 2.2 2.2 0 01-.5-.8 2 2 0 01-.2-1.1 2.4 2.4 0 01.9-2.2 3 3 0 011.1-.7l1.6-.2h1v-1a1.4 1.4 0 00-1.5-1.5h-.6l-.5.3-.3.5a1.1 1.1 0 00-.1.5h-1.5a2.9 2.9 0 01.2-.9 3.1 3.1 0 01.7-.9 1.5 1.5 0 01.9-.6 2.8 2.8 0 011.3-.3l1.2.2.9.5a3.5 3.5 0 01.6.9 3.9 3.9 0 01.2 1.3v4.9a4664550796216 4664550796216 0 01.2 1l.1.4v.2zm-2-1.2h.6l.5-.3.4-.3.3-.4v-2.2h-1.8l-.7.4-.5.5a2.2 2.2 0 00-.1.8v.7l.3.4c.1.2.3.2.4.3zm8-1.3l1.6-6.7h1.6l-3 10.6-.3.7a4.3 4.3 0 01-.4.7 1.3 1.3 0 01-.7.6 1.6 1.6 0 01-.9.3h-.8v-1.3l.2.1h.7l.5-.2.3-.5.3-.7.2-.9-2.6-9.1h1.6zm8.4-7.6l.1-.8.3-.9a2.5 2.5 0 01.4-.7l.6-.7.8.6a6.1 6.1 0 00-.5 1.2 5 5 0 00-.2 1.2v1.1h-1.5zm2.5 0v-.8l.3-.9.4-.7.6-.7.8.6a6.1 6.1 0 00-.5 1.2 5 5 0 00-.2 1.2v1.1h-1.4zm11.7 5a8 8 0 01-.3 2.3 3 3 0 01-.8 1.6 3.2 3.2 0 01-1.3 1 5 5 0 01-3.4 0 4.1 4.1 0 01-1.3-1 4 4 0 01-.8-1.6 8 8 0 01-.3-2.3v-2.2a7.3 7.3 0 01.3-2.2 4.5 4.5 0 01.8-1.7 4.1 4.1 0 011.3-1 5 5 0 013.4 0 3.2 3.2 0 011.3 1 3.4 3.4 0 01.8 1.7 7.3 7.3 0 01.3 2.2zm-1.5-2.2a8.8 8.8 0 00-.2-1.7 3.3 3.3 0 00-.5-1.2 1.8 1.8 0 00-.8-.7 3.1 3.1 0 00-2.2 0 1.8 1.8 0 00-.8.7 3.3 3.3 0 00-.5 1.2 8.8 8.8 0 00-.2 1.7v2.2a7.2 7.2 0 00.2 1.7 3.3 3.3 0 00.5 1.2 1.3 1.3 0 00.8.7 3.1 3.1 0 002.2 0 1.3 1.3 0 00.8-.7 3.3 3.3 0 00.5-1.2 7.2 7.2 0 00.2-1.7zm6 3.1l-.8.9v3.3h-1.5v-13h1.5v7.7l.7-.9 2.2-3h1.7l-2.9 3.8 3.3 5.4H321zm17.4 2.6l-.4.5-.7.6-1.1.4a3.4 3.4 0 01-1.5.2 5.7 5.7 0 01-1.8-.3 3.1 3.1 0 01-1.3-1 3.5 3.5 0 01-.9-1.6 7.3 7.3 0 01-.3-2.2v-2.4c0-3.4 1.4-5.1 4.1-5.1l1.6.2a3.7 3.7 0 012 2l.3 1.6h-1.6a2.4 2.4 0 00-.6-1.8 1.9 1.9 0 00-1.7-.7 2.7 2.7 0 00-1.2.3 1.3 1.3 0 00-.8.7 3.4 3.4 0 00-.4 1.2 7.6 7.6 0 00-.1 1.6v2.4a9.1 9.1 0 00.1 1.7l.6 1.2a2.2 2.2 0 00.9.7l1.1.2h.9l.6-.2.4-.3.2-.2v-2.9h-2.2v-1.4h3.8zm2-3.4a9.2 9.2 0 01.2-1.9 4.7 4.7 0 01.8-1.4l1.1-.8a3.4 3.4 0 012.8 0l1.1.8a4.7 4.7 0 01.8 1.4 5.3 5.3 0 01.2 1.9v.8a5.5 5.5 0 01-.2 1.9 4.1 4.1 0 01-.8 1.3 3.1 3.1 0 01-1.1.9l-1.4.2-1.4-.2a3.1 3.1 0 01-1.1-.9 4.1 4.1 0 01-.8-1.3 10.1 10.1 0 01-.2-1.9zm1.5.8a6.1 6.1 0 00.1 1.4 4.1 4.1 0 00.5.9l.6.6h.8c1.4 0 2-1 2-3v-.8a6.1 6.1 0 00-.1-1.4l-.4-.9a2 2 0 00-.7-.6l-.8-.2-.8.2c-.3.2-.5.3-.6.6a4.1 4.1 0 00-.5.9 6.1 6.1 0 00-.1 1.4zm7.2-.8a5.3 5.3 0 01.2-1.9 4.7 4.7 0 01.8-1.4l1.1-.8a3.2 3.2 0 011.4-.3 3.5 3.5 0 011.4.3l1.1.8a4.7 4.7 0 01.8 1.4 9.2 9.2 0 01.2 1.9v.8a10.1 10.1 0 01-.2 1.9 4.1 4.1 0 01-.8 1.3 3.1 3.1 0 01-1.1.9l-1.4.2-1.4-.2a3.1 3.1 0 01-1.1-.9 4.1 4.1 0 01-.8-1.3 5.5 5.5 0 01-.2-1.9zm1.5.8a6.1 6.1 0 00.1 1.4l.4.9.7.6h.8c1.4 0 2-1 2-3v-.8a6.1 6.1 0 00-.1-1.4 4.1 4.1 0 00-.5-.9c-.1-.3-.4-.4-.6-.6l-.8-.2-.8.2a2 2 0 00-.7.6l-.4.9a6.1 6.1 0 00-.1 1.4zm7.2-.8a6.2 6.2 0 01.2-2 2.6 2.6 0 01.6-1.3 2.3 2.3 0 01.9-.8 3 3 0 012.6 0 2.4 2.4 0 01.8.9v-1h1.4v9.2a3.8 3.8 0 01-.3 1.6 3 3 0 01-.7 1.1 2.1 2.1 0 01-1 .6 3.1 3.1 0 01-1.3.3h-.7l-.7-.2a2 2 0 01-.8-.4 1.5 1.5 0 01-.6-.5l.6-1 1 .7 1 .2h.8a.9.9 0 00.6-.4 1.6 1.6 0 00.4-.7 3 3 0 00.2-1v-1l-.9.8-1.2.2-1.3-.2a3.4 3.4 0 01-.9-.8 3 3 0 01-.6-1.4 5.3 5.3 0 01-.2-1.9zm1.4.8a4.6 4.6 0 00.5 2.3 1.6 1.6 0 001.5.7 1.7 1.7 0 001-.3 2.7 2.7 0 00.7-.8V221a2.7 2.7 0 00-.7-.8 1.7 1.7 0 00-1-.3 1.6 1.6 0 00-1.5.7 4.4 4.4 0 00-.5 2.3zm9 4.2h-1.5v-13h1.5zm5.6.1l-1.5-.2a2.8 2.8 0 01-1.1-.8 3.5 3.5 0 01-.7-1.2 5.8 5.8 0 01-.2-1.9v-1a10.3 10.3 0 01.2-2 4.7 4.7 0 01.8-1.4 2.6 2.6 0 011.1-.7 2.7 2.7 0 011.2-.3 3.3 3.3 0 011.5.3 2.8 2.8 0 011 .9 3.9 3.9 0 01.6 1.3 10.9 10.9 0 01.1 1.9v.8h-5.1v.2a3.4 3.4 0 00.6 2.2 2.1 2.1 0 001.6.6h.7l.5-.2a1 1 0 00.5-.4l.4-.4.8 1-.5.5-.6.4-.8.3zm-.2-8.2h-.7l-.6.5a2.9 2.9 0 00-.4.8l-.2 1.2h3.6v-.2a2.8 2.8 0 00-.1-.9 1.9 1.9 0 00-.2-.8c-.2-.2-.3-.4-.6-.5a1.5 1.5 0 00-.8-.1zm6.5-3.8a2.5 2.5 0 01-.1.8 3.1 3.1 0 01-.2.8l-.4.8-.6.6-.8-.6a5.4 5.4 0 00.5-1.1 5.9 5.9 0 00.2-1.3v-1.1h1.4zm2.4 0a2.5 2.5 0 01-.1.8l-.3.8a3 3 0 01-.4.8l-.5.6-.9-.6a5.4 5.4 0 00.5-1.1 5.9 5.9 0 00.2-1.3v-1.1h1.5z"/><path fill="#ef4131" fill-rule="evenodd" d="M154.5 217.3c3.8 0 4.8 3.8 4.8 3.8l-7.2 2.9s.4 1.5 2.6 1.5a3 3 0 002.6-1.4l1.9 1.2a5.6 5.6 0 01-4.5 2.3 5.3 5.3 0 01-5.4-5.1 5 5 0 015.2-5.2zm-.3 2a2.4 2.4 0 012.3 1l-4.8 1.9s-.4-2.4 2.5-2.9z"/><path fill="#31aa52" d="M145.9 212.2h2.4v15.1h-2.4z"/><path fill="#3182f6" fill-rule="evenodd" d="M142.1 218.5v-.9h2.2v9.6a4.8 4.8 0 01-5.1 5 5 5 0 01-4.7-3.1l2-.8a2.9 2.9 0 002.8 1.9 2.7 2.7 0 002.8-2.9v-1a3.5 3.5 0 01-3 1.2 5.2 5.2 0 01-5.1-5.1 5 5 0 015.1-5.1 3.4 3.4 0 013 1.2zm-2.8 7.1a3.2 3.2 0 10-2.9-3.2 3 3 0 002.9 3.2z"/><path fill="#fdbe07" fill-rule="evenodd" d="M127.6 227.5a5.1 5.1 0 10-5.4-5.1 5.3 5.3 0 005.4 5.1zm0-2a3.1 3.1 0 10-3-3.1 3 3 0 003 3.1z"/><path fill="#ef4131" fill-rule="evenodd" d="M115.9 227.5a5.1 5.1 0 10-5.4-5.1 5.3 5.3 0 005.4 5.1zm0-2a3.1 3.1 0 10-3.1-3.1 3.1 3.1 0 003.1 3.1z"/><path fill="#3182f6" fill-rule="evenodd" d="M101.8 218.9h7.2v2.1h-7.1z"/><path fill="#3182f6" fill-rule="evenodd" d="M109.7 219.6a8 8 0 01-8.2 7.9 8 8 0 01-8.1-7.9 8 8 0 018.1-8 8.3 8.3 0 015.9 2.4l-1.6 1.5a6.2 6.2 0 00-4.2-1.7 5.8 5.8 0 00-5.8 5.8 5.9 5.9 0 0011.7 0v-.7h2.2z"/><path fill="#ef4131" d="M420.2 221.4a5.8 5.8 0 01-11.5 0h-1.8a7.5 7.5 0 006.4 7.2v3.6h2.2v-3.6a7.5 7.5 0 006.5-7.2z"/><path fill="#f3ab0b" fill-rule="evenodd" d="M409.7 227l1-1.4a5.5 5.5 0 01-2-4.2h-1.8a7 7 0 002.8 5.6z"/><path fill="#31aa52" d="M413.3 228.7h2.2v3.6h-2.2z"/><path fill="#f5f5f5" fill-rule="evenodd" d="M281.7 754.8a23.8 23.8 0 11-23.8-23.8 23.8 23.8 0 0123.8 23.8zm-31.4-4.9a2.7 2.7 0 11-2.7-2.7 2.7 2.7 0 012.7 2.7zm8.1 2.7a2.7 2.7 0 10-2.7-2.7 2.7 2.7 0 002.7 2.7zm13.5-2.7a2.7 2.7 0 11-2.7-2.7 2.7 2.7 0 012.7 2.7zm-2.7 13.6a2.8 2.8 0 002.7-2.7 2.7 2.7 0 10-5.4 0 2.8 2.8 0 002.7 2.7zm-8.1-2.7a2.7 2.7 0 11-5.4 0 2.7 2.7 0 115.4 0zm-13.5 2.7a2.8 2.8 0 002.7-2.7 2.7 2.7 0 10-5.4 0 2.8 2.8 0 002.7 2.7z"/><path fill="#3767d6" d="M120.8 774.1l1.3-4.7a34.6 34.6 0 01-29.9-30.6 38.6 38.6 0 01-4.9.6 39.9 39.9 0 0033.5 34.7z"/><path fill="#4785f4" fill-rule="evenodd" d="M88.1 744.1a69.4 69.4 0 01-1.2-9 2.9 2.9 0 012.9-3h7.8a2.4 2.4 0 012.3 2.2l.1 3.7 1.3 5.3a1.9 1.9 0 01-.4 1.9l-9.1 8.5a48.7 48.7 0 01-3.7-9.6zM117 773.2a67.1 67.1 0 009 1.2 2.9 2.9 0 003-2.9v-7.8a2.3 2.3 0 00-2.3-2.3h-3.6a43.2 43.2 0 01-5.4-1.4 1.8 1.8 0 00-1.8.5l-8.7 9.1a53.2 53.2 0 009.8 3.6z"/><path fill="#e2e2e2" fill-rule="evenodd" d="M204 741.7l4.9-6.1a1.5 1.5 0 00-1.2-2.4H177a3.9 3.9 0 00-3.9 3.9v24.2a4 4 0 003.9 3.9h23.1a3.9 3.9 0 003.9-3.9z"/><path fill="#a7a7a7" fill-rule="evenodd" d="M198 741.1h-18.8v3H198zm0 6.1h-18.8v3H198zm-12.4 6H198v3.1h-12.4z"/><path fill="none" d="M196.4 746.2l7.4 7.4v8.9a2.7 2.7 0 01-2.6 2.4h-11v-19.1z"/><path fill="#00acf8" fill-rule="evenodd" d="M166.8 754.1l-4.9-6a1.6 1.6 0 011.2-2.5h30.7a4 4 0 013.9 3.9v23.2a3.9 3.9 0 01-3.9 3.9h-23.1a3.8 3.8 0 01-3.9-3.9z"/><path fill="#eee" fill-rule="evenodd" d="M172.8 753.6h18.8v3h-18.8zm0 6h18.8v3.1h-18.8zm12.4 6.1h-12.4v3h12.4z"/><path fill="#848484" d="M312.8 736.1a1.9 1.9 0 011.8-1.9h5a1.9 1.9 0 011.9 1.9v3a1.8 1.8 0 01-1.9 1.9h-5a1.8 1.8 0 01-1.8-1.9z"/><path fill="#e4e4e4" d="M309.6 740.6a3.1 3.1 0 013.1-3.1H353a3.1 3.1 0 013.1 3.1v29.5a3.1 3.1 0 01-3.1 3.1h-40.3a3.1 3.1 0 01-3.1-3.1z"/><path fill="#92c654" fill-rule="evenodd" d="M337 757.6l-17.4-.4s2.3 9.3 11.3 10.6z"/><path fill="#5d84c3" fill-rule="evenodd" d="M336.1 753s2.7 1.7.6 5l-5.9 9.6s6.1 2.9 11.4-4.5z"/><path fill="#fec226" fill-rule="evenodd" d="M332 759.8l-8.6-15.1s-6.8 6.8-3.2 15.1z"/><path fill="#ec7835" fill-rule="evenodd" d="M328.8 757.2l8.9-15.1s-9.3-2.4-14.8 4.8z"/><path fill="#de5245" fill-rule="evenodd" d="M329.3 752.8l17.4.2s-2.5-9.3-11.5-10.4z"/><path fill="#4e5eaa" fill-rule="evenodd" d="M332.6 751l8.6 15.2s6.8-6.8 3.2-15.2z"/><path fill="#f2f2f2" fill-rule="evenodd" d="M333 770.2a14.8 14.8 0 10-14.4-14.7 14.6 14.6 0 0014.4 14.7zm.1-2.7a11.9 11.9 0 10-11.6-11.9 11.7 11.7 0 0011.6 11.9z"/><ellipse cx="350.7" cy="743.1" fill="#888" rx="2.2" ry="2.3"/><ellipse cx="333" cy="755.5" fill="#f2f2f2" rx="4.4" ry="4.5"/><path fill="#e75a4d" d="M428.5 737.5a4 4 0 014 4v1.2l-5.6 4-19.1 13.2-19.2-13.3v26.6h-1.4a4 4 0 01-4-4v-27.7a4 4 0 014-4l20.6 15.2z"/><use transform="translate(-.8 -70.3)" xlink:href="#reuse-0"/><path fill="#f7f5ed" d="M388.6 746.6v26.6h38.3v-26.5l-19.1 13.2z"/><path fill="#b8b7ae" d="M388.6 773.2l19.2-13.3h-.1L388.6 773z"/><path fill="#b7b6ad" d="M426.9 746.7v26.5l-19.1-13.3z"/><path fill="#b2392f" d="M432.5 742.7v26.5c-.1 2.9-1.4 4-5.6 4v-26.5z"/><use transform="translate(-.8 -70.3)" xlink:href="#reuse-0"/><use transform="translate(-.8 -70.3)" xlink:href="#reuse-0"/><use transform="translate(-.8 -70.3)" xlink:href="#reuse-0"/><use transform="translate(-.8 -70.3)" xlink:href="#reuse-0"/><use transform="translate(-.8 -70.3)" xlink:href="#reuse-0"/><use transform="translate(-.8 -70.3)" xlink:href="#reuse-0"/><use transform="translate(-.8 -70.3)" xlink:href="#reuse-0"/><path fill="#f7f5ed" d="M387.2 737.5l20.6 15.2 20.7-15.2z"/><circle cx="258.7" cy="704.2" r="4.5" fill="#fff"/><circle cx="247" cy="704.2" r="3.4" fill="#fff"/><circle cx="270.5" cy="704.2" r="3.4" fill="#fff"/><circle cx="258.5" cy="461.6" r="28.7" fill="#fff"/></svg>