<svg viewBox="0 0 344 668.5" xmlns="http://www.w3.org/2000/svg" xmlns:xlink="http://www.w3.org/1999/xlink"><linearGradient id="a" gradientUnits="userSpaceOnUse" x1="10.9" x2="93" y1="69" y2="138.6"><stop offset="0" stop-color="#fff"/><stop offset=".7"/></linearGradient><linearGradient id="b" gradientUnits="userSpaceOnUse" x1="334.5" x2="332.2" y1="193.7" y2="193.7"><stop offset=".3"/><stop offset=".4" stop-color="#343434"/><stop offset=".4" stop-color="#696969"/><stop offset=".5" stop-color="#979797"/><stop offset=".5" stop-color="#bdbdbd"/><stop offset=".6" stop-color="#dadada"/><stop offset=".7" stop-color="#eee"/><stop offset=".7" stop-color="#fbfbfb"/><stop offset=".8" stop-color="#fff"/></linearGradient><linearGradient id="c" x1="334.5" x2="332.2" xlink:href="#b" y1="307.3" y2="307.3"/><linearGradient id="d" gradientUnits="userSpaceOnUse" x1="179.5" x2="179.5" y1="713.7" y2="656.1"><stop offset="0" stop-color="#fff"/><stop offset=".4" stop-color="#fff"/><stop offset=".8"/><stop offset="1"/></linearGradient><linearGradient id="e" gradientUnits="userSpaceOnUse" x1="178.8" x2="178.8" y1="46.5" y2="42.1"><stop offset="0" stop-color="#464646"/><stop offset="1" stop-color="#151515"/></linearGradient><linearGradient id="f" x1="178.8" x2="178.8" xlink:href="#e" y1="47.8" y2="44.2"/><linearGradient id="g" gradientTransform="matrix(.95 -.3 .3 .95 -13.2 -172)" x1="42.9" x2="42.9" xlink:href="#e" y1="250.8" y2="240.6"/><linearGradient id="h" gradientTransform="matrix(.85172693 -.52398591 .52398591 .85172693 -59.339963 -297.702983)" x1="-43" x2="-43" xlink:href="#e" y1="382.1" y2="376"/><linearGradient id="i" x1="101.6" x2="101.6" xlink:href="#e" y1="48.9" y2="45.3"/><linearGradient id="j" gradientUnits="userSpaceOnUse" x1="3.2" x2="311.6" y1="56.8" y2="329.2"><stop offset="0" stop-color="#bebebe"/><stop offset=".1" stop-color="#a6a6a6"/><stop offset=".5" stop-color="#151515"/></linearGradient><linearGradient id="k" gradientUnits="userSpaceOnUse" x1="10.9" x2="93" y1="69" y2="138.6"><stop offset="0" stop-color="#a6a6a6"/><stop offset=".7" stop-color="#131313"/></linearGradient><linearGradient id="l" gradientUnits="userSpaceOnUse" x1="334.5" x2="334.5" y1="216.8" y2="170.5"><stop offset="0" stop-color="#7b7b7b"/><stop offset=".1" stop-color="#9f9f9f"/><stop offset=".9" stop-color="#9f9f9f"/><stop offset=".9" stop-color="#9d9d9d"/><stop offset="1" stop-color="#8a8a8a"/><stop offset="1" stop-color="#7f7f7f"/><stop offset="1" stop-color="#7b7b7b"/></linearGradient><linearGradient id="m" gradientUnits="userSpaceOnUse" x1="334.5" x2="332.2" y1="193.7" y2="193.7"><stop offset=".3" stop-color="#9f9f9f"/><stop offset=".5" stop-color="#8c8c8c"/><stop offset=".6" stop-color="#7f7f7f"/><stop offset=".8" stop-color="#7b7b7b"/></linearGradient><linearGradient id="n" gradientUnits="userSpaceOnUse" x1="334.5" x2="334.5" y1="352.9" y2="261.7"><stop offset="0" stop-color="#1a1a1a"/><stop offset="0" stop-color="#393939"/><stop offset=".1" stop-color="#393939"/><stop offset="1" stop-color="#393939"/><stop offset="1" stop-color="#292929"/><stop offset="1" stop-color="#1e1e1e"/><stop offset="1" stop-color="#1a1a1a"/></linearGradient><linearGradient id="o" gradientUnits="userSpaceOnUse" x1="334.5" x2="332.2" y1="307.3" y2="307.3"><stop offset=".3" stop-color="#676767"/><stop offset=".4" stop-color="#525252"/><stop offset=".5" stop-color="#3e3e3e"/><stop offset=".7" stop-color="#313131"/><stop offset=".8" stop-color="#2d2d2d"/></linearGradient><linearGradient id="p" gradientUnits="userSpaceOnUse" x1="179.1" x2="179.1" y1="710.8" y2="659.8"><stop offset="0" stop-color="#202020"/><stop offset=".4" stop-color="#202020"/><stop offset=".9" stop-color="#202020"/></linearGradient><filter id="q" color-interpolation-filters="sRGB" filterUnits="userSpaceOnUse" height="341.5" width="266.2" x="27.3" y="24.1"><feFlood flood-color="#fff" result="bg"/><feBlend in="SourceGraphic" in2="bg"/></filter><filter id="r" color-interpolation-filters="sRGB" filterUnits="userSpaceOnUse" height="46.3" width="2.1" x="332.8" y="170.5"><feFlood flood-color="#fff" result="bg"/><feBlend in="SourceGraphic" in2="bg"/></filter><filter id="s" color-interpolation-filters="sRGB" filterUnits="userSpaceOnUse" height="91.2" width="2.1" x="332.8" y="261.7"><feFlood flood-color="#fff" result="bg"/><feBlend in="SourceGraphic" in2="bg"/></filter><filter id="t" color-interpolation-filters="sRGB" filterUnits="userSpaceOnUse" height="31.7" width="382.5" x="-11.8" y="655.1"><feFlood flood-color="#fff" result="bg"/><feBlend in="SourceGraphic" in2="bg"/></filter><filter id="u" color-interpolation-filters="sRGB" filterUnits="userSpaceOnUse" height="12.7" width="10.8" x="217.7" y="558.6"><feFlood flood-color="#fff" result="bg"/><feBlend in="SourceGraphic" in2="bg"/></filter><filter id="v" color-interpolation-filters="sRGB" filterUnits="userSpaceOnUse" height="14.7" width="7.3" x="232.4" y="569.4"><feFlood flood-color="#fff" result="bg"/><feBlend in="SourceGraphic" in2="bg"/></filter><filter id="w" color-interpolation-filters="sRGB" filterUnits="userSpaceOnUse" height="3.9" width="14.7" x="232.4" y="558.6"><feFlood flood-color="#fff" result="bg"/><feBlend in="SourceGraphic" in2="bg"/></filter><mask id="x" height="341.5" maskUnits="userSpaceOnUse" width="266.2" x="20.1" y="5.1"><g filter="url(#q)"><path d="m30 70.2c0-12.8 4.7-24 11-30.9a40.4 40.4 0 0 1 30-12.2s158.5-1 222.4-1c-32.2-3-224.4-1.9-224.4-1.9-13.8 0-24.4 4-31.4 11.7a46.8 46.8 0 0 0 -10.3 32.1l.3 297.4z" fill="url(#a)" transform="translate(-7.1 -19)"/></g></mask><mask id="y" height="46.3" maskUnits="userSpaceOnUse" width="2.1" x="325.6" y="151.5"><g filter="url(#r)"><path d="m334.9 170.5c-1.4 0-2.1 2.8-2.1 5v35c0 2.8.6 6.3 2 6.3z" fill="url(#b)" transform="translate(-7.1 -19)"/></g></mask><mask id="z" height="91.2" maskUnits="userSpaceOnUse" width="2.1" x="325.6" y="242.7"><g filter="url(#s)"><path d="m334.9 261.7c-1.4 0-2.1 2.8-2.1 5v80c0 2.7.6 6.2 2 6.2z" fill="url(#c)" transform="translate(-7.1 -19)"/></g></mask><mask id="A" height="31.7" maskUnits="userSpaceOnUse" width="382.5" x="-18.9" y="636.1"><g filter="url(#t)"><path d="m60.4 686.7a76 76 0 0 1 -24.6-5c-12.5-4.8-47.6-26.6-47.6-26.6h382.5s-29.4 17.5-39.4 22.5a91 91 0 0 1 -33 9z" fill="url(#d)" transform="translate(-7.1 -19)"/></g></mask><mask id="B" height="12.7" maskUnits="userSpaceOnUse" width="10.8" x="210.5" y="539.6"><g filter="url(#u)"><path d="m217.7 558.6 10.7 10.8-3.4 1.9z" fill="url(#G)" transform="translate(-7.1 -19)"/></g></mask><mask id="C" height="14.7" maskUnits="userSpaceOnUse" width="7.3" x="225.3" y="550.4"><g filter="url(#v)"><path d="m232.4 584.1 3.9-14.7 3.4 1.9z" fill="url(#E)" transform="translate(-7.1 -19)"/></g></mask><mask id="D" height="3.9" maskUnits="userSpaceOnUse" width="14.7" x="225.3" y="539.6"><g filter="url(#w)"><path d="m247.1 558.6-14.7 3.9v-3.9z" fill="url(#F)" transform="translate(-7.1 -19)"/></g></mask><radialGradient id="E" cx="232.4" cy="567" gradientUnits="userSpaceOnUse" r="17"><stop offset="0" stop-color="#292929"/><stop offset=".3" stop-color="#191919"/><stop offset=".7" stop-color="#0a0a0a"/><stop offset="1" stop-color="#050505"/></radialGradient><radialGradient id="F" cx="232.3" cy="558.5" r="15" xlink:href="#E"/><radialGradient id="G" cx="217.6" cy="558.6" r="14.8" xlink:href="#E"/><radialGradient id="H" cx="210.5" cy="539.6" gradientUnits="userSpaceOnUse" r="14.8"><stop offset="0"/><stop offset="1"/></radialGradient><radialGradient id="I" cx="225.2" cy="548" r="17" xlink:href="#H"/><radialGradient id="J" cx="225.1" cy="539.5" gradientUnits="userSpaceOnUse" r="15"><stop offset="0" stop-color="#3e2723"/><stop offset="1" stop-color="#3e2723"/></radialGradient><clipPath id="K" transform="translate(-7.1 -19)"><path d="m196.7 45a2.8 2.8 0 0 1 -2.8 2.8h-30.2a2.8 2.8 0 0 1 -2.8-2.8 2.8 2.8 0 0 1 2.8-2.8h30.2a2.8 2.8 0 0 1 2.8 2.8z"/></clipPath><path d="m327 625a42.7 42.7 0 0 1 -42 43.5h-226.7a42.4 42.4 0 0 1 -43.4-43.5v-575.9c0-29.5 15.4-49.1 47-49.1h216c33.7 0 49.1 21 49.1 44.9z" fill="#3d3d3d"/><path d="m313.5 15.4a48.7 48.7 0 0 0 -35.8-13h-215.7c-14.8 0-26.2 4.4-34 13-7.2 8-11.1 19.9-11.1 34.3v574.7c0 12.2 4.3 22.7 12.4 30.4a42.1 42.1 0 0 0 29.3 11.2h226a39.2 39.2 0 0 0 28.7-12.3 42.3 42.3 0 0 0 11.6-29.3v-578.9c0-11.9-4-22.6-11.4-30.1z" fill="#131313"/><path d="m313.9 14.7a48.8 48.8 0 0 0 -36-13h-215.9c-14.8 0-26.3 4.4-34 13-7.4 8-11.2 20-11.2 34.4v575.9c0 12.2 4.3 22.7 12.5 30.5a42.2 42.2 0 0 0 29.2 11.2h226.5a39.3 39.3 0 0 0 28.8-12.3 42.4 42.4 0 0 0 11.6-29.4v-580.1c0-11.9-4-22.6-11.4-30.2zm10.7 611.6a40.3 40.3 0 0 1 -11.1 28 37.5 37.5 0 0 1 -27.3 11.7h-227.7a40.4 40.4 0 0 1 -27.9-10.7 38.5 38.5 0 0 1 -11.9-29v-577.1c0-14 3.7-25.4 10.7-33 7.6-8.2 18.6-12.4 32.7-12.4h217a47 47 0 0 1 34.5 12.3c7 7.2 11 17.4 11 28.8z" fill="#6f6f6f"/><rect fill="#252525" height="604" rx="29.5" width="286.2" x="27.9" y="43.5"/><g clip-path="url(#K)"><path d="m196.7 43.6v-.7h-.7v-1.4h-.7v1.4h-.7v-1.4h-.7v1.4h-.7v-1.4h-.7v1.4h-.7v-1.4h-.7v1.4h-.7v-1.4h-.7v1.4h-.7v-1.4h-.7v1.4h-.7v-1.4h-.7v1.4h-.7v-1.4h-.7v1.4h-.7v-1.4h-.8v1.4h-.7v-1.4h-.7v1.4h-.7v-1.4h-.7v1.4h-.7v-1.4h-.7v1.4h-.7v-1.4h-.7v1.4h-.7v-1.4h-.7v1.4h-.7v-1.4h-.7v1.4h-.7v-1.4h-.7v1.4h-.7v-1.4h-.7v1.4h-.7v-1.4h-.7v1.4h-.7v-1.4h-.7v1.4h-.7v-1.4h-.7v1.4h-.7v-1.4h-.7v1.4h-.7v-1.4h-.7v1.4h-.7v-1.4h-.7v1.4h-.7v-1.4h-.7v1.4h-.7v-1.4h-.7v1.4h-.7v.7h.7v.7h-.7v.7h.7v.7h-.7v.7h.7v.7h-.7v.7h.7v.7h.7v-.7h.7v.7h.7v-.7h.7v.7h.7v-.7h.7v.7h.7v-.7h.7v.7h.7v-.7h.7v.7h.7v-.7h.7v.7h.7v-.7h.7v.7h.7v-.7h.7v.7h.7v-.7h.7v.7h.7v-.7h.7v.7h.7v-.7h.7v.7h.7v-.7h.7v.7h.7v-.7h.7v.7h.7v-.7h.7v.7h.7v-.7h.7v.7h.7v-.7h.7v.7h.7v-.7h.7v.7h.7v-.7h.7v.7h.8v-.7h.7v.7h.7v-.7h.7v.7h.7v-.7h.7v.7h.7v-.7h.7v.7h.7v-.7h.7v.7h.7v-.7h.7v.7h.7v-.7h.7v-.7h-.7v-.7h.7v-.7h-.7v-.7h.7v-.7h-.7v-.7zm-2.8 0v.7h-.7v-.7zm-28.9 1.4h.7v.7h-.7zm-.7.7h-.7v-.7h.7zm2.1-.7h.7v.7h-.7zm1.4 0h.7v.7h-.7zm1.4 0h.7v.7h-.7zm1.4 0h.7v.7h-.7zm1.4 0h.7v.7h-.7zm1.4 0h.7v.7h-.7zm1.4 0h.7v.7h-.7zm1.4 0h.7v.7h-.7zm1.4 0h.7v.7h-.7zm1.4 0h.7v.7h-.7zm1.4 0h.7v.7h-.7zm1.4 0h.7v.7h-.7zm1.4 0h.7v.7h-.7zm1.4 0h.7v.7h-.7zm1.4 0h.7v.7h-.7zm1.5 0h.7v.7h-.7zm1.4 0h.7v.7h-.7zm1.4 0h.7v.7h-.7zm1.4 0h.7v.7h-.7zm1.4 0h.7v.7h-.7zm-.7-1.4v.7h-.7v-.7zm-1.4 0v.7h-.7v-.7zm-1.4 0v.7h-.7v-.7zm-1.4 0v.7h-.7v-.7zm-1.5 0v.7h-.7v-.7zm-1.4 0v.7h-.7v-.7zm-1.4 0v.7h-.7v-.7zm-1.4 0v.7h-.7v-.7zm-1.4 0v.7h-.7v-.7zm-1.4 0v.7h-.7v-.7zm-1.4 0v.7h-.7v-.7zm-1.4 0v.7h-.7v-.7zm-1.4 0v.7h-.7v-.7zm-1.4 0v.7h-.7v-.7zm-1.4 0v.7h-.7v-.7zm-1.4 0v.7h-.7v-.7zm-1.4 0v.7h-.7v-.7zm-1.4 0v.7h-.7v-.7zm-1.4 0v.7h-.7v-.7zm-1.4 0v.7h-.7v-.7zm-1.4 0v.7h-.7v-.7zm-2.1 0h.7v.7h-.7zm0 1.4h.7v.7h-.7zm0 2.1v-.7h.7v.7zm1.4 0v-.7h.7v.7zm1.4 0v-.7h.7v.7zm1.4 0v-.7h.7v.7zm1.4 0v-.7h.7v.7zm1.4 0v-.7h.7v.7zm1.4 0v-.7h.7v.7zm1.4 0v-.7h.7v.7zm1.4 0v-.7h.7v.7zm1.4 0v-.7h.7v.7zm1.4 0v-.7h.7v.7zm1.4 0v-.7h.7v.7zm1.4 0v-.7h.7v.7zm1.4 0v-.7h.7v.7zm1.4 0v-.7h.7v.7zm1.4 0v-.7h.7v.7zm1.4 0v-.7h.7v.7zm1.4 0v-.7h.7v.7zm1.5 0v-.7h.7v.7zm1.4 0v-.7h.7v.7zm1.4 0v-.7h.7v.7zm1.4 0v-.7h.7v.7zm1.4 0v-.7h.7v.7zm2 0h-.6v-.7h.7zm0-1.4h-.6v-.7h.7zm0-1.4h-.6v-.7h.7z" fill="url(#e)" transform="translate(-7.1 -19)"/></g><path d="m193.9 42.1h-30.2a2.8 2.8 0 1 0 0 5.7h30.2a2.8 2.8 0 0 0 0-5.6zm0 5.1h-30.2a2.3 2.3 0 1 1 0-4.5h30.2a2.3 2.3 0 0 1 0 4.5z" fill="url(#f)" transform="translate(-7.1 -19)"/><path d="m109.3 43.5a8 8 0 1 1 -10.1-5.2 8 8 0 0 1 10.1 5.3z" fill="url(#g)" transform="translate(-7.1 -19)"/><path d="m99.3 24.5a5.2 5.2 0 1 1 -7.2-1.7 5.2 5.2 0 0 1 7.2 1.7z" fill="#131313" opacity=".3"/><path d="m105.7 43.5a4.8 4.8 0 1 1 -6.6-1.6 4.8 4.8 0 0 1 6.6 1.6z" fill="url(#h)" transform="translate(-7.1 -19)"/><path d="m104.5 46a3 3 0 1 1 -2.9-3 2.9 2.9 0 0 1 3 3z" fill="url(#i)" transform="translate(-7.1 -19)"/><path d="m94.8 25.7a1 1 0 0 1 -2 0 1 1 0 0 1 2 0zm2.4 2.2a2.3 2.3 0 0 0 -3.7 1.7v.1a3 3 0 0 0 1 .2 2.9 2.9 0 0 0 2.7-2z" fill="#515151"/><path d="m30 70.2c0-12.8 4.7-24 11-30.9a40.4 40.4 0 0 1 30-12.2s158.5-1 222.4-1c-32.2-3-224.4-1.9-224.4-1.9-13.8 0-24.4 4-31.4 11.7a46.8 46.8 0 0 0 -10.3 32.1l.3 297.4z" fill="url(#j)" transform="translate(-7.1 -19)"/><g mask="url(#x)"><path d="m30 70.2c0-12.8 4.7-24 11-30.9a40.4 40.4 0 0 1 30-12.2s158.5-1 222.4-1c-32.2-3-224.4-1.9-224.4-1.9-13.8 0-24.4 4-31.4 11.7a46.8 46.8 0 0 0 -10.3 32.1l.3 297.4z" fill="url(#k)" transform="translate(-7.1 -19)"/></g><path d="m285 660.4h-226.7a73.8 73.8 0 0 1 -21.7-3.4 39.5 39.5 0 0 0 21.7 6.3h226.5a35.8 35.8 0 0 0 20.7-6.5 50 50 0 0 1 -20.7 3.6zm34.8-631.7a127.3 127.3 0 0 1 1.3 18.3v578a85.4 85.4 0 0 1 -2 16.6 39.5 39.5 0 0 0 3.7-16.6v-580.1a43.4 43.4 0 0 0 -3-16.2z" fill="#676767"/><path d="m334.9 170.5c-1.4 0-2.1 2.8-2.1 5v35c0 2.8.6 6.3 2 6.3a1.4 1.4 0 0 0 1.5-1.4v-43.4a1.4 1.4 0 0 0 -1.4-1.4z" fill="url(#l)" transform="translate(-7.1 -19)"/><g mask="url(#y)"><path d="m334.9 170.5c-1.4 0-2.1 2.8-2.1 5v35c0 2.8.6 6.3 2 6.3z" fill="url(#m)" transform="translate(-7.1 -19)"/></g><path d="m334.9 261.7c-1.4 0-2.1 2.8-2.1 5v80c0 2.7.6 6.2 2 6.2a1.5 1.5 0 0 0 1.5-1.4v-88.4a1.4 1.4 0 0 0 -1.4-1.4z" fill="url(#n)" transform="translate(-7.1 -19)"/><g mask="url(#z)"><path d="m334.9 261.7c-1.4 0-2.1 2.8-2.1 5v80c0 2.7.6 6.2 2 6.2z" fill="url(#o)" transform="translate(-7.1 -19)"/></g><g mask="url(#A)"><path d="m65.5 686.3c-6 0-11.3 0-23.5-4.2-12-4.2-35-23.1-35-23.1h344s-16.7 15-26.3 19.4a68.8 68.8 0 0 1 -31.6 7.9c-57 1-170.8.1-227.7 0z" fill="url(#p)" opacity=".8" transform="translate(-7.1 -19)"/></g><path d="m165.9 466.8h87.8v-111.5z" fill="#153066"/><path d="m29.9 62.2v234h78.8v-249h-65.5a29.6 29.6 0 0 0 -13.3 15z" fill="#f9bc04" fill-rule="evenodd"/><path d="m244.8 256.6-.2.2zm.5 118.8v-116.5z" fill="#153066"/><path d="m244.7 255.8h65.8v205.3h-65.8z" fill="#f9bc04"/><path d="m83.2 461.1h227.4v45.9h-227.4z" fill="#34a753"/><path d="m244.7 647.5h39.9a29.5 29.5 0 0 0 26-15.6v-124.9h-65.9z" fill="#e94235" fill-rule="evenodd"/><path d="m108.7 47.1h44.2v249.1h-44.2z" fill="#153066"/><path d="m29.9 296.2h78.7v132.4h-78.7z" fill="#e94235"/><path d="m29.9 296.2h78.8l-78.8-182.9z" fill="#4285f3" fill-rule="evenodd"/><path d="m152.8 47.1v249c69.5-.8 125.7-56.2 125.7-124.5s-56.2-123.6-125.8-124.5z" fill="#34a753"/><path d="m244.8 255.8v123.7l-64.1 81.6h-97.5z" fill="#4285f3"/><path d="m44.1 56.4h2.3v6.3h-1v-5.4h-1.3zm4.4 5.5a4.7 4.7 0 0 1 0-4.8 2.5 2.5 0 0 1 3.8 0 4.7 4.7 0 0 1 0 4.8 2.5 2.5 0 0 1 -3.8 0zm.7-4.1a4 4 0 0 0 0 3.4 1.3 1.3 0 0 0 1.2.6 1.2 1.2 0 0 0 1.1-.6 3.5 3.5 0 0 0 .4-1.7 3.5 3.5 0 0 0 -.4-1.7 1.2 1.2 0 0 0 -1.1-.7 1.3 1.3 0 0 0 -1.2.7zm5.1 2.5a.7.7 0 0 1 -.2-.4.6.6 0 0 1 .2-.5.7.7 0 0 1 1 0 .6.6 0 0 1 .2.5.7.7 0 0 1 -.2.4.6.6 0 0 1 -.5.2.7.7 0 0 1 -.5-.2zm0 2.2a.7.7 0 0 1 -.2-.4.6.6 0 0 1 .2-.5.7.7 0 0 1 .5-.2.6.6 0 0 1 .5.2.7.7 0 1 1 -1 1zm3-.6a4.7 4.7 0 0 1 0-4.8 2.5 2.5 0 0 1 3.9 0 4.7 4.7 0 0 1 0 4.8 2.5 2.5 0 0 1 -3.9 0zm.8-4.1a4 4 0 0 0 0 3.4 1.3 1.3 0 0 0 1.1.6 1.2 1.2 0 0 0 1.2-.6 3.5 3.5 0 0 0 .3-1.7 3.5 3.5 0 0 0 -.3-1.7 1.2 1.2 0 0 0 -1.2-.7 1.3 1.3 0 0 0 -1.1.7zm5.4 4.1a4.7 4.7 0 0 1 0-4.8 2.5 2.5 0 0 1 3.8 0 4.7 4.7 0 0 1 0 4.8 2.5 2.5 0 0 1 -3.8 0zm.8-4.1a4 4 0 0 0 0 3.4 1.3 1.3 0 0 0 1.1.6 1.2 1.2 0 0 0 1.2-.6 3.4 3.4 0 0 0 .3-1.7 3.4 3.4 0 0 0 -.3-1.7 1.2 1.2 0 0 0 -1.2-.7 1.3 1.3 0 0 0 -1.2.7zm190.4 4.9v-6.3h1.1v5.3h2.9v1zm6.9-5.3v5.3h-1.1v-5.3h-2v-1h5v1zm7.4-1v1h-3.3v1.6h3v1h-3v1.6h3.5v1h-4.6v-6.3zm10.9-1.4v9h-9m19 0h-6v-9h2v-1h2v1h2z" fill="#fff"/><circle cx="62.3" cy="548.1" fill="#fff" r="17"/><path d="m53.8 539.6h17v17h-17z" fill="#eceff1"/><path d="m62.3 549.9 8.5 6.7v-13.3z" fill="#cfd8dc"/><path d="m71.6 539.6h-.7l-8.5 6.7-8.5-6.7h-.7a2.1 2.1 0 0 0 -2.2 2.1v12.8a2.1 2.1 0 0 0 2.2 2h.7v-13.2l8.5 6.6 8.5-6.6v13.3h.7a2.1 2.1 0 0 0 2.1-2.1v-12.8a2.1 2.1 0 0 0 -2.1-2.1z" fill="#f44336"/><path d="m128.6 536a17.9 17.9 0 0 0 -12-5 17 17 0 0 0 -11.6 29.4l11.8-10.4z" fill="#0f9d58"/><path d="m116.6 565a16.9 16.9 0 0 0 9.9-3l-10.7-12-10 11.1a17 17 0 0 0 10.8 4z" fill="#4285f4"/><path d="m115.8 550 12 10.8a17 17 0 0 0 .8-24.8z" fill="#d2d2d2"/><path d="m128.3 560.4-11.8-11.8-2.5 2 11.8 11.8a15.5 15.5 0 0 0 2.5-2z" fill="#f1f1f1"/><path d="m106.5 561.7 22.4-22.4v-.4a2 2 0 0 0 -2.1-2l-22.7 22.6a17 17 0 0 0 2.4 2.2z" fill="#ffde48"/><path d="m108.5 542v1.5h2a2 2 0 0 1 -2 1.5 2.3 2.3 0 0 1 0-4.6 2.1 2.1 0 0 1 1.5.6l1-1.1a3.6 3.6 0 0 0 -2.5-1 3.8 3.8 0 1 0 0 7.6 3.5 3.5 0 0 0 3.7-3.7 4.7 4.7 0 0 0 -.1-.8z" fill="#eee"/><path d="m124.4 535a6.6 6.6 0 0 0 -6.6 6.7c0 5 5.6 7.6 6.2 14.6a.4.4 0 0 0 .4.4.4.4 0 0 0 .4-.4c.7-7 6.2-9.6 6.2-14.6a6.6 6.6 0 0 0 -6.6-6.6z" fill="#db4437"/><circle cx="124.4" cy="541.7" fill="#7b231e" r="2.3"/><circle cx="170.9" cy="548.1" fill="#fff" r="17"/><path d="m171 533v7.7h-7.7l-7.7 7.7h7.7v7.6l7.7 7.7v-7.7h7.6l7.6-7.6h-7.6v-7.7z" opacity=".2"/><path d="m171 547.8h-15.3l7.6-7.6h7.7" fill="#fec006"/><path d="m171 547.8v-15.3l7.6 7.7v7.6" fill="#f34235"/><path d="m163.3 547.8v7.7l7.7 7.6v-15.3" fill="#4bae4f"/><path d="m171 547.8h15.2l-7.6 7.7h-7.6" fill="#2095f2"/><path d="m171 547.8v.6h14.7l.5-.6z" fill="#fff" opacity=".2"/><path d="m171 547.8 7.6-7.6v7.6z" fill="#9c27b0"/><path d="m171 547.8-7.7 7.7v-7.7z" fill="#1ea362"/><path d="m178.6 555.5-7.6-7.7v7.7z" fill="#3e50b4"/><path d="m163.3 540.2 7.7 7.6v-7.6z" fill="#fe9700"/><path d="m171 532.5v.6l7.6 7.6v-.5zm-7.7 7.7-7.7 7.6h.6l7.1-7h7.7v-.6z" fill="#fff" opacity=".2"/><path d="m171 544.5-1.4 3-3 1.4 3 1.4 1.4 3 1.3-3 3-1.4-3-1.4z" opacity=".2"/><path d="m171 543.4-1.4 3-3 1.4 3 1.4 1.4 3 1.3-3 3-1.4-3-1.4z" fill="#fff"/><path d="m166.6 547.8 3 1.4 1.4 3v-4.4z" fill="#ebebeb"/><path d="m175.3 547.8-3 1.4-1.3 3v-4.4z" fill="#dfdfdf"/><path d="m225.2 548v-8.4h14.8c-3-5.7-8.5-8.5-14.7-8.5a17 17 0 0 0 -14.8 8.5l7.4 12.7z" fill="#db4437"/><path d="m225.2 539.6v8.5l7.4 4.2-7.4 12.8a17 17 0 0 0 17-17 17.7 17.7 0 0 0 -2.2-8.5z" fill="#ffcd40"/><path d="m225.2 548-7.3 4.3-7.4-12.7a17 17 0 0 0 14.7 25.5l7.4-12.8z" fill="#0f9d58"/><g mask="url(#B)"><path d="m210.5 539.6 10.8 10.8-3.4 1.9z" fill="url(#H)"/></g><g mask="url(#C)"><path d="m225.3 565.1 3.9-14.7 3.4 1.9z" fill="url(#I)"/></g><g mask="url(#D)"><path d="m240 539.6-14.7 3.9v-3.9z" fill="url(#J)"/></g><circle cx="225.3" cy="548.1" fill="#f1f1f1" r="8.5"/><circle cx="225.3" cy="548.1" fill="#4285f4" r="6.2"/><circle cx="279.6" cy="548.1" fill="#fff" r="17"/><path d="m290.3 542.7a2.8 2.8 0 0 0 -2-2c-1.7-.5-8.8-.5-8.8-.5s-7 0-8.8.5a2.9 2.9 0 0 0 -2 2 32 32 0 0 0 0 10.8 2.8 2.8 0 0 0 2 2c1.8.5 8.8.5 8.8.5s7 0 8.8-.5a2.8 2.8 0 0 0 2-2 29.9 29.9 0 0 0 .5-5.4 28.2 28.2 0 0 0 -.5-5.4zm-13 8.8v-6.8l5.9 3.4z" fill="#f00"/><rect fill="#fff" height="31" opacity=".7" rx="15.5" width="247" x="47.5" y="587"/><circle cx="273" cy="599.9" fill="#4285f4" r="4.6"/><path d="m283.4 600.4a1 1 0 1 1 -.9-1 1 1 0 0 1 1 1z" fill="#34a853"/><path d="m281.8 602.6a1.9 1.9 0 1 1 -1.9-1.8 1.9 1.9 0 0 1 1.9 1.8z" fill="#ea4335"/><path d="m282.1 607.4a2.2 2.2 0 1 1 -2.2-2.2 2.2 2.2 0 0 1 2.2 2.2z" fill="#fbbc05"/><path d="m60.2 604.3-.6 2.2h-2.1a8.5 8.5 0 0 1 -.1-8l2 .4.8 2a5 5 0 0 0 -.3 1.6 5.2 5.2 0 0 0 .3 1.8z" fill="#fbbb00"/><path d="m73.3 601a8.4 8.4 0 0 1 .2 1.5 8.6 8.6 0 0 1 -3.2 6.6l-2.4-.1-.4-2.1a5 5 0 0 0 2.2-2.6h-4.6v-3.4h8.2z" fill="#518ef8"/><path d="m70.3 609.1a8.5 8.5 0 0 1 -12.8-2.6l2.7-2.2a5 5 0 0 0 7.3 2.6z" fill="#28b446"/><path d="m70.4 596-2.8 2.3a5 5 0 0 0 -7.4 2.6l-2.8-2.3a8.5 8.5 0 0 1 13-2.6z" fill="#f14336"/><circle cx="214.5" cy="113" fill="#ffd32a" r="6"/><g fill="#fff"><path d="m95.2 108h-3.8v10.8h-1.6v-10.8h-4v-1.3h9.4zm6.4 9.9a3.3 3.3 0 0 1 -2.7 1 2.8 2.8 0 0 1 -2.2-.8 3.6 3.6 0 0 1 -.7-2.5v-5.8h1.5v5.8c0 1.3.6 2 1.7 2a2.3 2.3 0 0 0 2.3-1.3v-6.6h1.5v9h-1.4zm7.5 1.1a4 4 0 0 1 -3-1.3 4.5 4.5 0 0 1 -1.1-3.2v-.3a5.4 5.4 0 0 1 .5-2.4 4 4 0 0 1 1.4-1.6 3.6 3.6 0 0 1 2-.6 3.4 3.4 0 0 1 2.7 1.2 5 5 0 0 1 1 3.3v.6h-6a3.1 3.1 0 0 0 .7 2.1 2.4 2.4 0 0 0 1.9.9 2.7 2.7 0 0 0 1.4-.4 3.3 3.3 0 0 0 1-.9l1 .8a3.8 3.8 0 0 1 -3.5 1.7zm-.2-8.1a2 2 0 0 0 -1.5.6 3.3 3.3 0 0 0 -.8 2h4.5v-.2a3 3 0 0 0 -.7-1.8 2 2 0 0 0 -1.5-.6zm10.7 5.5a1.1 1.1 0 0 0 -.5-1 4.4 4.4 0 0 0 -1.6-.6 8.1 8.1 0 0 1 -1.8-.6 2.7 2.7 0 0 1 -1-.8 2 2 0 0 1 -.4-1.2 2.3 2.3 0 0 1 1-1.9 3.6 3.6 0 0 1 2.3-.7 3.8 3.8 0 0 1 2.5.8 2.5 2.5 0 0 1 1 2h-1.5a1.4 1.4 0 0 0 -.6-1.1 2 2 0 0 0 -1.3-.5 2.1 2.1 0 0 0 -1.3.4 1.1 1.1 0 0 0 -.5 1 1 1 0 0 0 .4.8 5.2 5.2 0 0 0 1.6.6 7.9 7.9 0 0 1 1.9.6 2.6 2.6 0 0 1 1 .8 2 2 0 0 1 .4 1.3 2.3 2.3 0 0 1 -1 1.9 4 4 0 0 1 -2.5.7 4.4 4.4 0 0 1 -1.9-.4 3 3 0 0 1 -1.3-1 2.5 2.5 0 0 1 -.5-1.5h1.6a1.6 1.6 0 0 0 .6 1.2 2.4 2.4 0 0 0 1.5.5 2.5 2.5 0 0 0 1.4-.4 1.1 1.1 0 0 0 .5-1zm3.2-2.2a5.3 5.3 0 0 1 1-3.3 3.3 3.3 0 0 1 5-.2v-4.7h1.6v12.8h-1.4l-.1-1a3.1 3.1 0 0 1 -2.6 1 3 3 0 0 1 -2.5-1.2 5.3 5.3 0 0 1 -1-3.3zm1.5.2a4 4 0 0 0 .6 2.4 2 2 0 0 0 1.8.8 2.2 2.2 0 0 0 2.2-1.3v-4.1a2.3 2.3 0 0 0 -2.2-1.3 2 2 0 0 0 -1.7.9 4.4 4.4 0 0 0 -.7 2.6zm14 4.4a3.3 3.3 0 0 1 -.2-1 3.4 3.4 0 0 1 -2.6 1.1 3.2 3.2 0 0 1 -2.2-.7 2.4 2.4 0 0 1 -.8-2 2.5 2.5 0 0 1 1-2.1 5 5 0 0 1 3-.8h1.5v-.7a1.7 1.7 0 0 0 -.4-1.3 2 2 0 0 0 -1.5-.5 2.3 2.3 0 0 0 -1.3.4 1.3 1.3 0 0 0 -.6 1h-1.5a2.1 2.1 0 0 1 .4-1.3 3.2 3.2 0 0 1 1.3-1 4.3 4.3 0 0 1 1.8-.3 3.5 3.5 0 0 1 2.5.8 2.8 2.8 0 0 1 .9 2.1v4.1a5 5 0 0 0 .3 2v.2zm-2.6-1.2a2.7 2.7 0 0 0 1.4-.4 2.3 2.3 0 0 0 1-1v-1.8h-1.2q-2.9 0-2.9 1.6a1.4 1.4 0 0 0 .5 1.1 1.9 1.9 0 0 0 1.2.5zm9.1-1.1 2-6.7h1.7l-3.5 10.2c-.5 1.5-1.4 2.3-2.7 2.3h-.2l-.6-.1v-1.2h.4a2 2 0 0 0 1.2-.3 2.3 2.3 0 0 0 .7-1.2l.4-.9-3.2-8.9h1.6zm4.2 4.7-1-.6a4 4 0 0 0 .9-2.3v-1.3h1.5v1.2a3.7 3.7 0 0 1 -.4 1.7 3.9 3.9 0 0 1 -1 1.4zm17-8.1a7.5 7.5 0 0 1 -.5 3.1 4.6 4.6 0 0 1 -1.7 2 5 5 0 0 1 -5 0 4.6 4.6 0 0 1 -1.8-2 7.2 7.2 0 0 1 -.6-3v-.9a7.5 7.5 0 0 1 .6-3 4.6 4.6 0 0 1 1.7-2 4.6 4.6 0 0 1 2.5-.8 4.7 4.7 0 0 1 2.6.7 4.5 4.5 0 0 1 1.7 2 7.5 7.5 0 0 1 .6 3.1zm-1.5-.8a5.4 5.4 0 0 0 -.9-3.3 2.9 2.9 0 0 0 -2.4-1.1 2.8 2.8 0 0 0 -2.3 1.1 5.3 5.3 0 0 0 -1 3.2v.9a5.4 5.4 0 0 0 1 3.3 3 3 0 0 0 4.8 0 5.5 5.5 0 0 0 .8-3.2zm7.4 5.4a2.2 2.2 0 0 0 1.4-.5 1.7 1.7 0 0 0 .7-1.3h1.4a2.8 2.8 0 0 1 -.5 1.5 3.5 3.5 0 0 1 -1.3 1.1 3.7 3.7 0 0 1 -1.7.4 3.7 3.7 0 0 1 -3-1.2 4.9 4.9 0 0 1 -1-3.4v-.2a5.4 5.4 0 0 1 .5-2.3 3.6 3.6 0 0 1 1.3-1.6 3.9 3.9 0 0 1 2.2-.6 3.6 3.6 0 0 1 2.5 1 3.2 3.2 0 0 1 1 2.3h-1.4a2.1 2.1 0 0 0 -.7-1.5 2 2 0 0 0 -1.4-.5 2.2 2.2 0 0 0 -1.9.8 4 4 0 0 0 -.6 2.4v.3a3.8 3.8 0 0 0 .6 2.4 2.2 2.2 0 0 0 1.9.9zm7.3-10.1v2.2h1.7v1.2h-1.7v5.6a1.2 1.2 0 0 0 .2.8 1 1 0 0 0 .8.2 3.4 3.4 0 0 0 .7 0v1.2a4.4 4.4 0 0 1 -1.2.2 2 2 0 0 1 -1.5-.7 2.6 2.6 0 0 1 -.5-1.7v-5.6h-1.7v-1.2h1.7v-2.2zm12.6 11.2h-1.6v-10.3l-3 1.1v-1.3l4.4-1.7h.2zm5.2-6.1.6-6h6.2v1.4h-4.9l-.3 3.3a3.9 3.9 0 0 1 2-.5 3.3 3.3 0 0 1 2.6 1 4.3 4.3 0 0 1 1 3 4.1 4.1 0 0 1 -1 3 3.6 3.6 0 0 1 -2.8 1.1 3.9 3.9 0 0 1 -2.7-.9 3.5 3.5 0 0 1 -1.1-2.4h1.4a2.5 2.5 0 0 0 .8 1.5 2.3 2.3 0 0 0 1.6.5 2 2 0 0 0 1.6-.7 3 3 0 0 0 .7-2 2.8 2.8 0 0 0 -.7-2 2.3 2.3 0 0 0 -1.8-.7 2.6 2.6 0 0 0 -1.5.5l-.4.3zm31.7-6v1.3h-.3a4 4 0 0 0 -2.8 1 4.4 4.4 0 0 0 -1.3 3 3.3 3.3 0 0 1 2.6-1.1 3.1 3.1 0 0 1 2.6 1 4.9 4.9 0 0 1 -.1 6 3.5 3.5 0 0 1 -2.7 1 3.5 3.5 0 0 1 -2.9-1.3 5.3 5.3 0 0 1 -1-3.4v-.6a8 8 0 0 1 1.4-5.1 5.2 5.2 0 0 1 4.2-1.8zm-2 5.4a2.5 2.5 0 0 0 -1.4.5 2.5 2.5 0 0 0 -1 1.2v.5a4 4 0 0 0 .7 2.4 2 2 0 0 0 1.7 1 2 2 0 0 0 1.6-.8 3.7 3.7 0 0 0 0-4 2 2 0 0 0 -1.6-.8zm12.9-2.3a2.8 2.8 0 0 1 -.5 1.6 3.2 3.2 0 0 1 -1.3 1.1 3.5 3.5 0 0 1 1.5 1.2 3 3 0 0 1 .5 1.8 3.2 3.2 0 0 1 -1 2.5 4.6 4.6 0 0 1 -5.6 0 3.2 3.2 0 0 1 -1-2.5 3 3 0 0 1 .5-1.8 3.4 3.4 0 0 1 1.5-1.2 3.1 3.1 0 0 1 -1.3-1 2.8 2.8 0 0 1 -.4-1.7 3.1 3.1 0 0 1 1-2.4 4.2 4.2 0 0 1 5.1 0 3.1 3.1 0 0 1 1 2.4zm-1.3 5.6a2.2 2.2 0 0 0 -.6-1.6 2.3 2.3 0 0 0 -1.7-.6 2.2 2.2 0 0 0 -1.7.6 2.3 2.3 0 0 0 -.6 1.6 2.1 2.1 0 0 0 .6 1.7 2.3 2.3 0 0 0 1.7.6 2.4 2.4 0 0 0 1.7-.6 2.1 2.1 0 0 0 .6-1.7zm-2.3-7.6a2 2 0 0 0 -1.5.5 2.3 2.3 0 0 0 0 3 2.2 2.2 0 0 0 3 0 2 2 0 0 0 .6-1.5 2 2 0 0 0 -.6-1.5 2 2 0 0 0 -1.5-.5zm5.9.9a2.1 2.1 0 0 1 .6-1.6 2 2 0 0 1 3 0 2.1 2.1 0 0 1 .6 1.6 2 2 0 0 1 -.6 1.5 2 2 0 0 1 -1.5.6 2.1 2.1 0 0 1 -2.1-2.1zm2 1a1 1 0 0 0 .8-.3 1 1 0 0 0 .4-.7 1 1 0 0 0 -.4-.8 1 1 0 0 0 -1.5 0 1 1 0 0 0 -.3.7 1 1 0 0 0 .3.8 1 1 0 0 0 .8.3zm11.3 3.7h-5v5.3h-1.7v-12h7.5v1.3h-5.9v4.1h5zm-39.7-.4a2 2 0 0 0 -1.1.3 3 3 0 1 0 -3 3.7h4a2 2 0 0 0 0-4z"/><circle cx="61.9" cy="224" r="17"/></g></svg>