<svg xmlns="http://www.w3.org/2000/svg" xmlns:xlink="http://www.w3.org/1999/xlink" viewBox="0 0 314.3 668.5"><defs/><filter id="a" width="266.2" height="32766" x="27.3" y="-8486" color-interpolation-filters="sRGB" filterUnits="userSpaceOnUse"><feFlood flood-color="#fff" result="bg"/><feBlend in="SourceGraphic" in2="bg"/></filter><linearGradient id="k" x1="10.9" x2="93" y1="69" y2="138.6" gradientUnits="userSpaceOnUse"><stop offset="0" stop-color="#fff"/><stop offset=".7"/></linearGradient><filter id="b" width="17.7" height="32766" x="213.2" y="-8486" color-interpolation-filters="sRGB" filterUnits="userSpaceOnUse"><feFlood flood-color="#fff" result="bg"/><feBlend in="SourceGraphic" in2="bg"/></filter><radialGradient id="d" cx="213" cy="548.8" r="18.1" gradientUnits="userSpaceOnUse"><stop offset="0" stop-color="#292929"/><stop offset=".3" stop-color="#191919"/><stop offset=".7" stop-color="#0a0a0a"/><stop offset="1" stop-color="#050505"/></radialGradient><filter id="c" width="13" height="32766" x="195.4" y="-8486" color-interpolation-filters="sRGB" filterUnits="userSpaceOnUse"><feFlood flood-color="#fff" result="bg"/><feBlend in="SourceGraphic" in2="bg"/></filter><radialGradient id="z" cx="195.4" cy="342.8" r="17.9" xlink:href="#d"/><filter id="e" width="8.9" height="32766" x="213.2" y="-8486" color-interpolation-filters="sRGB" filterUnits="userSpaceOnUse"><feFlood flood-color="#fff" result="bg"/><feBlend in="SourceGraphic" in2="bg"/></filter><radialGradient id="B" cx="213.1" cy="353" r="20.4" xlink:href="#d"/><radialGradient id="D" cx="213" cy="342.8" r="18.1" xlink:href="#d"/><filter id="f" width="2.1" height="32766" x="332.8" y="-8486" color-interpolation-filters="sRGB" filterUnits="userSpaceOnUse"><feFlood flood-color="#fff" result="bg"/><feBlend in="SourceGraphic" in2="bg"/></filter><linearGradient id="g" x1="334.5" x2="332.2" y1="193.7" y2="193.7" gradientUnits="userSpaceOnUse"><stop offset=".3"/><stop offset=".4" stop-color="#343434"/><stop offset=".4" stop-color="#696969"/><stop offset=".5" stop-color="#979797"/><stop offset=".5" stop-color="#bdbdbd"/><stop offset=".6" stop-color="#dadada"/><stop offset=".7" stop-color="#eee"/><stop offset=".7" stop-color="#fbfbfb"/><stop offset=".8" stop-color="#fff"/></linearGradient><linearGradient id="o" x1="334.5" x2="332.2" y1="307.3" y2="307.3" xlink:href="#g"/><radialGradient id="r" cx="195.4" cy="548.8" r="17.9" xlink:href="#d"/><radialGradient id="u" cx="213.1" cy="559" r="20.4" xlink:href="#d"/><clipPath id="F" transform="translate(-22 -19)"><path d="M196.7 45a2.9 2.9 0 01-2.8 2.8h-30.2a2.8 2.8 0 01-2.8-2.8 2.7 2.7 0 012.8-2.8h30.2a2.8 2.8 0 012.8 2.8z"/></clipPath><linearGradient id="h" x1="178.8" x2="178.8" y1="46.5" y2="42.1" gradientUnits="userSpaceOnUse"><stop offset="0" stop-color="#464646"/><stop offset="1" stop-color="#151515"/></linearGradient><linearGradient id="G" x1="178.8" x2="178.8" y1="47.8" y2="44.2" xlink:href="#h"/><linearGradient id="H" x1="42.9" x2="42.9" y1="250.8" y2="240.6" gradientTransform="matrix(.95 -.3 .3 .95 -13.2 -172)" xlink:href="#h"/><linearGradient id="I" x1="-43" x2="-43" y1="382.1" y2="376" gradientTransform="rotate(-31.6 -555.9 -44)" xlink:href="#h"/><linearGradient id="J" x1="101.6" x2="101.6" y1="48.9" y2="45.3" xlink:href="#h"/><linearGradient id="K" x1="3.2" x2="311.6" y1="56.8" y2="329.2" gradientUnits="userSpaceOnUse"><stop offset="0" stop-color="#bebebe"/><stop offset=".1" stop-color="#a6a6a6"/><stop offset=".5" stop-color="#151515"/></linearGradient><filter id="i" width="266.2" height="341.5" x="27.3" y="24.1" color-interpolation-filters="sRGB" filterUnits="userSpaceOnUse"><feFlood flood-color="#fff" result="bg"/><feBlend in="SourceGraphic" in2="bg"/></filter><mask id="L" width="266.2" height="341.5" x="5.3" y="5.1" maskUnits="userSpaceOnUse"><g filter="url(#i)"><g mask="url(#j)" transform="translate(-22 -19)"><path fill="url(#k)" d="M30.1 70.2c0-12.8 4.6-24 10.8-30.9s17.3-12.2 30.2-12.2c0 0 158.5-1.1 222.4-1.1C261.2 23.2 69 24.3 69 24.3c-13.8 0-24.3 3.9-31.4 11.7S27.3 54.5 27.3 68.1l.3 297.4z"/></g></g></mask><linearGradient id="M" x1="10.9" x2="93" y1="69" y2="138.6" gradientUnits="userSpaceOnUse"><stop offset="0" stop-color="#a6a6a6"/><stop offset=".7" stop-color="#131313"/></linearGradient><linearGradient id="N" x1="334.5" x2="334.5" y1="216.8" y2="170.5" gradientUnits="userSpaceOnUse"><stop offset="0" stop-color="#7b7b7b"/><stop offset=".1" stop-color="#9f9f9f"/><stop offset=".1" stop-color="#9f9f9f"/><stop offset=".9" stop-color="#9f9f9f"/><stop offset=".9" stop-color="#9d9d9d"/><stop offset="1" stop-color="#8a8a8a"/><stop offset="1" stop-color="#7f7f7f"/><stop offset="1" stop-color="#7b7b7b"/></linearGradient><filter id="l" width="2.1" height="46.3" x="332.8" y="170.5" color-interpolation-filters="sRGB" filterUnits="userSpaceOnUse"><feFlood flood-color="#fff" result="bg"/><feBlend in="SourceGraphic" in2="bg"/></filter><mask id="O" width="2.1" height="46.3" x="310.8" y="151.5" maskUnits="userSpaceOnUse"><g filter="url(#l)"><g mask="url(#m)" transform="translate(-22 -19)"><path fill="url(#g)" d="M334.9 170.5c-1.4 0-2.2 2.8-2.2 4.9v35.1c0 2.8.8 6.3 2.2 6.3z"/></g></g></mask><linearGradient id="P" x1="334.5" x2="332.2" y1="193.7" y2="193.7" gradientUnits="userSpaceOnUse"><stop offset=".3" stop-color="#9f9f9f"/><stop offset=".5" stop-color="#8c8c8c"/><stop offset=".6" stop-color="#7f7f7f"/><stop offset=".8" stop-color="#7b7b7b"/></linearGradient><linearGradient id="Q" x1="334.5" x2="334.5" y1="352.9" y2="261.7" gradientUnits="userSpaceOnUse"><stop offset="0" stop-color="#1a1a1a"/><stop offset="0" stop-color="#393939"/><stop offset=".1" stop-color="#393939"/><stop offset="1" stop-color="#393939"/><stop offset="1" stop-color="#292929"/><stop offset="1" stop-color="#1e1e1e"/><stop offset="1" stop-color="#1a1a1a"/></linearGradient><filter id="n" width="2.1" height="91.2" x="332.8" y="261.7" color-interpolation-filters="sRGB" filterUnits="userSpaceOnUse"><feFlood flood-color="#fff" result="bg"/><feBlend in="SourceGraphic" in2="bg"/></filter><mask id="R" width="2.1" height="91.2" x="310.8" y="242.7" maskUnits="userSpaceOnUse"><g filter="url(#n)"><g mask="url(#m)" transform="translate(-22 -19)"><path fill="url(#o)" d="M334.9 261.7c-1.4 0-2.2 2.8-2.2 4.9v80c0 2.8.8 6.3 2.2 6.3z"/></g></g></mask><linearGradient id="S" x1="334.5" x2="332.2" y1="307.3" y2="307.3" gradientUnits="userSpaceOnUse"><stop offset=".3" stop-color="#676767"/><stop offset=".4" stop-color="#525252"/><stop offset=".5" stop-color="#3e3e3e"/><stop offset=".7" stop-color="#313131"/><stop offset=".8" stop-color="#2d2d2d"/></linearGradient><filter id="p" width="13" height="15.4" x="195.4" y="548.9" color-interpolation-filters="sRGB" filterUnits="userSpaceOnUse"><feFlood flood-color="#fff" result="bg"/><feBlend in="SourceGraphic" in2="bg"/></filter><mask id="T" width="13" height="15.4" x="173.4" y="529.9" maskUnits="userSpaceOnUse"><g filter="url(#p)"><g mask="url(#q)" transform="translate(-22 -19)"><path fill="url(#r)" d="M195.4 548.8l13 13-4.1 2.4z"/></g></g></mask><radialGradient id="v" cx="173.4" cy="529.8" r="17.9" gradientUnits="userSpaceOnUse"><stop offset="0"/><stop offset="1"/></radialGradient><filter id="s" width="8.9" height="17.7" x="213.2" y="561.8" color-interpolation-filters="sRGB" filterUnits="userSpaceOnUse"><feFlood flood-color="#fff" result="bg"/><feBlend in="SourceGraphic" in2="bg"/></filter><mask id="U" width="8.9" height="17.7" x="191.2" y="542.8" maskUnits="userSpaceOnUse"><g filter="url(#s)"><g mask="url(#t)" transform="translate(-22 -19)"><path fill="url(#u)" d="M213.2 579.6l4.7-17.8 4.1 2.4z"/></g></g></mask><radialGradient id="V" cx="191.1" cy="540" r="20.4" xlink:href="#v"/><filter id="w" width="17.7" height="4.8" x="213.2" y="548.8" color-interpolation-filters="sRGB" filterUnits="userSpaceOnUse"><feFlood flood-color="#fff" result="bg"/><feBlend in="SourceGraphic" in2="bg"/></filter><mask id="W" width="17.7" height="4.8" x="191.2" y="529.8" maskUnits="userSpaceOnUse"><g filter="url(#w)"><g mask="url(#x)" transform="translate(-22 -19)"><path fill="url(#d)" d="M230.9 548.8l-17.7 4.8v-4.8z"/></g></g></mask><radialGradient id="E" cx="191" cy="529.8" r="18.1" gradientUnits="userSpaceOnUse"><stop offset="0" stop-color="#3e2723"/><stop offset="1" stop-color="#3e2723"/></radialGradient><filter id="y" width="13" height="15.4" x="195.4" y="342.9" color-interpolation-filters="sRGB" filterUnits="userSpaceOnUse"><feFlood flood-color="#fff" result="bg"/><feBlend in="SourceGraphic" in2="bg"/></filter><mask id="X" width="13" height="15.4" x="173.4" y="323.9" maskUnits="userSpaceOnUse"><g filter="url(#y)"><g mask="url(#q)" transform="translate(-22 -19)"><path fill="url(#z)" d="M195.4 342.8l13 13-4.1 2.4z"/></g></g></mask><radialGradient id="Y" cx="173.4" cy="323.8" r="17.9" xlink:href="#v"/><filter id="A" width="8.9" height="17.7" x="213.2" y="355.8" color-interpolation-filters="sRGB" filterUnits="userSpaceOnUse"><feFlood flood-color="#fff" result="bg"/><feBlend in="SourceGraphic" in2="bg"/></filter><mask id="Z" width="8.9" height="17.7" x="191.2" y="336.8" maskUnits="userSpaceOnUse"><g filter="url(#A)"><g mask="url(#t)" transform="translate(-22 -19)"><path fill="url(#B)" d="M213.2 373.6l4.7-17.8 4.1 2.4z"/></g></g></mask><radialGradient id="aa" cx="191.1" cy="334" r="20.4" xlink:href="#v"/><filter id="C" width="17.7" height="4.8" x="213.2" y="342.8" color-interpolation-filters="sRGB" filterUnits="userSpaceOnUse"><feFlood flood-color="#fff" result="bg"/><feBlend in="SourceGraphic" in2="bg"/></filter><mask id="ab" width="17.7" height="4.8" x="191.2" y="323.8" maskUnits="userSpaceOnUse"><g filter="url(#C)"><g mask="url(#x)" transform="translate(-22 -19)"><path fill="url(#D)" d="M230.9 342.8l-17.7 4.8v-4.8z"/></g></g></mask><radialGradient id="ac" cx="191" cy="323.8" r="18.1" xlink:href="#E"/><path fill="#3d3d3d" d="M312.2 625a42.7 42.7 0 01-42.1 43.5H43.5A42.3 42.3 0 010 625V49.1C0 19.6 15.4 0 47 0h216c33.7 0 49.2 21 49.2 44.9z"/><path fill="#131313" d="M298.7 15.4a48.7 48.7 0 00-35.9-12.9H47.2C32.5 2.5 21 6.8 13.3 15.4S2.1 35.3 2.1 49.7v574.7c0 12.2 4.3 22.7 12.5 30.4A42.1 42.1 0 0043.7 666h226.1a39.2 39.2 0 0028.7-12.3 42 42 0 0011.6-29.3V45.5c0-11.9-4.1-22.6-11.4-30.1z"/><path fill="#6f6f6f" d="M299 14.7a49 49 0 00-36-12.9H47c-14.8 0-26.2 4.3-34 12.9S1.8 34.7 1.8 49.1V625c0 12.2 4.3 22.7 12.5 30.5a42.4 42.4 0 0029.2 11.2h226.6a39.2 39.2 0 0028.7-12.3 42.4 42.4 0 0011.6-29.4V44.9c0-11.9-4.1-22.6-11.4-30.2zm10.7 611.6a40.1 40.1 0 01-11.1 28 37.2 37.2 0 01-27.3 11.7H43.7a40.3 40.3 0 01-27.9-10.7 38.5 38.5 0 01-11.9-29V49.2c0-13.9 3.7-25.4 10.7-33.1S33 3.9 47.2 3.9h217c14.7 0 26.7 4.2 34.6 12.3s10.9 17.4 10.9 28.8z"/><rect width="286.2" height="604" x="13" y="43.5" fill="#252525" rx="29.5"/><g clip-path="url(#F)"><path fill="url(#h)" d="M196.7 43.6v-.7h-.7v-1.4h-.7v1.4h-.7v-1.4h-.7v1.4h-.7v-1.4h-.7v1.4h-.7v-1.4h-.7v1.4h-.7v-1.4h-.7v1.4h-.8v-1.4h-.7v1.4h-.7v-1.4h-.7v1.4h-.7v-1.4h-.7v1.4h-.7v-1.4h-.7v1.4h-.7v-1.4h-.7v1.4h-.7v-1.4h-.7v1.4h-.7v-1.4h-.7v1.4h-.7v-1.4h-.7v1.4h-.7v-1.4h-.7v1.4h-.7v-1.4h-.7v1.4h-.7v-1.4h-.7v1.4h-.7v-1.4h-.7v1.4h-.7v-1.4h-.7v1.4h-.7v-1.4h-.7v1.4h-.7v-1.4h-.7v1.4h-.7v-1.4h-.7v1.4h-.7v-1.4h-.7v1.4h-.7v-1.4h-.7v1.4h-.7v-1.4h-.7v1.4h-.7v-1.4h-.7v1.4h-.7v.7h.7v.7h-.7v.7h.7v.7h-.7v.7h.7v.7h-.7v.7h.7v.7h.7v-.7h.7v.7h.7v-.7h.7v.7h.7v-.7h.7v.7h.7v-.7h.7v.7h.7v-.7h.7v.7h.7v-.7h.7v.7h.7v-.7h.7v.7h.7v-.7h.7v.7h.7v-.7h.7v.7h.7v-.7h.7v.7h.7v-.7h.7v.7h.7v-.7h.7v.7h.7v-.7h.7v.7h.7v-.7h.7v.7h.7v-.7h.7v.7h.7v-.7h.7v.7h.7v-.7h.7v.7h.7v-.7h.7v.7h.7v-.7h.7v.7h.7v-.7h.8v.7h.7v-.7h.7v.7h.7v-.7h.7v.7h.7v-.7h.7v.7h.7v-.7h.7v.7h.7v-.7h.7v-.7h-.7v-.7h.7v-.7h-.7V45h.7v-.7h-.7v-.7zm-2.8 0v.7h-.7v-.7zM165.1 45h.7v.7h-.7zm-.7.7h-.7V45h.7zm2.1-.7h.7v.7h-.7zm1.4 0h.7v.7h-.7zm1.4 0h.7v.7h-.7zm1.4 0h.7v.7h-.7zm1.4 0h.7v.7h-.7zm1.4 0h.7v.7h-.7zm1.4 0h.7v.7h-.7zm1.4 0h.7v.7h-.7zm1.4 0h.7v.7h-.7zm1.4 0h.7v.7h-.7zm1.4 0h.7v.7h-.7zm1.4 0h.7v.7h-.7zm1.4 0h.7v.7h-.7zm1.4 0h.7v.7h-.7zm1.4 0h.7v.7h-.7zm1.4 0h.7v.7h-.7zm1.4 0h.8v.7h-.8zm1.5 0h.7v.7h-.7zm1.4 0h.7v.7h-.7zm1.4 0h.7v.7h-.7zm-.7-1.4v.7h-.7v-.7zm-1.4 0v.7h-.7v-.7zm-1.4 0v.7h-.8v-.7zm-1.5 0v.7h-.7v-.7zm-1.4 0v.7h-.7v-.7zm-1.4 0v.7h-.7v-.7zm-1.4 0v.7h-.7v-.7zm-1.4 0v.7h-.7v-.7zm-1.4 0v.7h-.7v-.7zm-1.4 0v.7h-.7v-.7zm-1.4 0v.7h-.7v-.7zm-1.4 0v.7h-.7v-.7zm-1.4 0v.7h-.7v-.7zm-1.4 0v.7h-.7v-.7zm-1.4 0v.7h-.7v-.7zm-1.4 0v.7h-.7v-.7zm-1.4 0v.7h-.7v-.7zm-1.4 0v.7h-.7v-.7zm-1.4 0v.7h-.7v-.7zm-1.4 0v.7h-.7v-.7zm-1.4 0v.7h-.7v-.7zm-2.1 0h.7v.7h-.7zm0 1.4h.7v.7h-.7zm0 2.1v-.7h.7v.7zm1.4 0v-.7h.7v.7zm1.4 0v-.7h.7v.7zm1.4 0v-.7h.7v.7zm1.4 0v-.7h.7v.7zm1.4 0v-.7h.7v.7zm1.4 0v-.7h.7v.7zm1.4 0v-.7h.7v.7zm1.4 0v-.7h.7v.7zm1.4 0v-.7h.7v.7zm1.4 0v-.7h.7v.7zm1.4 0v-.7h.7v.7zm1.4 0v-.7h.7v.7zm1.4 0v-.7h.7v.7zm1.4 0v-.7h.7v.7zm1.4 0v-.7h.7v.7zm1.4 0v-.7h.7v.7zm1.4 0v-.7h.7v.7zm1.4 0v-.7h.7v.7zm1.4 0v-.7h.8v.7zm1.5 0v-.7h.7v.7zm1.4 0v-.7h.7v.7zm1.4 0v-.7h.7v.7zm2.1 0h-.7v-.7h.7zm0-1.4h-.7V45h.7zm0-1.4h-.7v-.7h.7z" transform="translate(-22 -19)"/></g><path fill="url(#G)" d="M193.9 42.2h-30.2a2.7 2.7 0 00-2.8 2.8 2.8 2.8 0 002.8 2.8h30.2a2.9 2.9 0 002.8-2.8 2.8 2.8 0 00-2.8-2.8zm0 5h-30.2a2.2 2.2 0 01-2.2-2.2 2.2 2.2 0 012.2-2.3h30.2a2.2 2.2 0 012.2 2.3 2.2 2.2 0 01-2.2 2.2z" transform="translate(-22 -19)"/><path fill="url(#H)" d="M109.3 43.5a8.1 8.1 0 01-5.2 10.2 8.1 8.1 0 115.2-10.2z" transform="translate(-22 -19)"/><path fill="#131313" d="M84.4 24.5a5.1 5.1 0 01-1.7 7.2 5.2 5.2 0 111.7-7.2z" opacity=".3"/><path fill="url(#I)" d="M105.7 43.5a4.8 4.8 0 11-8.2 5 4.8 4.8 0 018.2-5z" transform="translate(-22 -19)"/><path fill="url(#J)" d="M104.5 46a2.9 2.9 0 11-2.9-2.9 2.9 2.9 0 012.9 2.9z" transform="translate(-22 -19)"/><path fill="#515151" d="M79.9 25.7a.9.9 0 01-.9 1 .9.9 0 01-1-1 .9.9 0 011-.9.9.9 0 01.9.9zM82.4 27.9a2 2 0 00-1.5-.6 2.3 2.3 0 00-2.3 2.3h.1l.9.2a2.9 2.9 0 002.8-1.9z"/><path fill="url(#K)" d="M30.1 70.2c0-12.8 4.6-24 10.8-30.9s17.3-12.2 30.2-12.2c0 0 158.5-1.1 222.4-1.1C261.2 23.2 69 24.3 69 24.3c-13.8 0-24.3 3.9-31.4 11.7S27.3 54.5 27.3 68.1l.3 297.4z" transform="translate(-22 -19)"/><g mask="url(#L)"><path fill="url(#M)" d="M30.1 70.2c0-12.8 4.6-24 10.8-30.9s17.3-12.2 30.2-12.2c0 0 158.5-1.1 222.4-1.1C261.2 23.2 69 24.3 69 24.3c-13.8 0-24.3 3.9-31.4 11.7S27.3 54.5 27.3 68.1l.3 297.4z" transform="translate(-22 -19)"/></g><path fill="#676767" d="M270.1 660.4H43.5c-13.3-.3-21.7-3.4-21.7-3.4a40.4 40.4 0 0021.7 6.2h226.6a35.6 35.6 0 0020.6-6.4 49.4 49.4 0 01-20.6 3.6zM304.9 28.7a123.3 123.3 0 011.3 18.3v578a84 84 0 01-1.9 16.6 38.7 38.7 0 003.6-16.6V44.9a42.8 42.8 0 00-3-16.2z"/><path fill="url(#N)" d="M334.9 170.5c-1.4 0-2.2 2.8-2.2 4.9v35.1c0 2.8.8 6.3 2.2 6.3a1.4 1.4 0 001.4-1.4v-43.5a1.4 1.4 0 00-1.4-1.4z" transform="translate(-22 -19)"/><g mask="url(#O)"><path fill="url(#P)" d="M334.9 170.5c-1.4 0-2.2 2.8-2.2 4.9v35.1c0 2.8.8 6.3 2.2 6.3z" transform="translate(-22 -19)"/></g><path fill="url(#Q)" d="M334.9 261.7c-1.4 0-2.2 2.8-2.2 4.9v80c0 2.8.8 6.3 2.2 6.3a1.4 1.4 0 001.4-1.4v-88.4a1.4 1.4 0 00-1.4-1.4z" transform="translate(-22 -19)"/><g mask="url(#R)"><path fill="url(#S)" d="M334.9 261.7c-1.4 0-2.2 2.8-2.2 4.9v80c0 2.8.8 6.3 2.2 6.3z" transform="translate(-22 -19)"/></g><path fill="#153066" d="M151 466.8h87.8V355.3z"/><path fill="#f9bc04" fill-rule="evenodd" d="M15 62.2V296h79V47.1H28.3A29.7 29.7 0 0015 62.2z"/><path fill="#153066" d="M229.9 256.6l-.2.2zM230.5 375.4V258.9z"/><path fill="#f9bc04" d="M229.9 255.8h65.8v205.3h-65.8z"/><path fill="#34a753" d="M68.3 461.1h227.4v46H68.3z"/><path fill="#e94235" fill-rule="evenodd" d="M229.9 647.5h39.8a29.6 29.6 0 0026-15.6V507h-65.8z"/><path fill="#153066" d="M93.8 47.1H138v249H93.8z"/><path fill="#e94235" d="M15 296.2h78.7v132.4H15z"/><path fill="#4285f3" fill-rule="evenodd" d="M15 296.2h78.9L15 113.3z"/><path fill="#34a753" d="M137.9 47.1v249.1c69.6-.9 125.7-56.3 125.7-124.6S207.5 48 137.9 47.1z"/><path fill="#4285f3" d="M230 255.8v123.7l-64.2 81.6H68.3z"/><path fill="#fff" d="M29.3 56.4h2.2v6.3h-1v-5.4h-1.2zM33.6 61.9a5.1 5.1 0 010-4.8 2.2 2.2 0 011.9-.9 2.4 2.4 0 012 .9 5.1 5.1 0 010 4.8 2.3 2.3 0 01-2 .8 2.1 2.1 0 01-1.9-.8zm.8-4.1a3.8 3.8 0 000 3.4 1.1 1.1 0 001.1.6 1.3 1.3 0 001.2-.6 5 5 0 000-3.4 1.4 1.4 0 00-1.2-.7 1.2 1.2 0 00-1.1.7zM39.5 60.3c-.2-.1-.2-.2-.2-.4s0-.4.2-.5l.4-.2.5.2a.8.8 0 01.2.5.5.5 0 01-.2.4c-.1.2-.3.2-.5.2s-.3 0-.4-.2zm0 2.3a.6.6 0 01-.2-.5c0-.2 0-.4.2-.5l.4-.2.5.2a.8.8 0 01.2.5l-.2.5zM42.4 61.9a5.1 5.1 0 010-4.8 2.4 2.4 0 012-.9 2.2 2.2 0 011.9.9 5.1 5.1 0 010 4.8 2.1 2.1 0 01-1.9.8 2.3 2.3 0 01-2-.8zm.8-4.1a3.8 3.8 0 000 3.4 1.2 1.2 0 001.2.6 1.1 1.1 0 001.1-.6 3.8 3.8 0 000-3.4 1.2 1.2 0 00-1.1-.7 1.3 1.3 0 00-1.2.7zM48.6 61.9a5.1 5.1 0 010-4.8 2.2 2.2 0 011.9-.9 2.4 2.4 0 012 .9 5.1 5.1 0 010 4.8 2.3 2.3 0 01-2 .8 2.1 2.1 0 01-1.9-.8zm.8-4.1a3.8 3.8 0 000 3.4 1.1 1.1 0 001.1.6 1.2 1.2 0 001.2-.6 3.8 3.8 0 000-3.4 1.3 1.3 0 00-1.2-.7 1.2 1.2 0 00-1.1.7zM239.9 62.7v-6.3h1v5.3h2.9v1zM246.7 57.4v5.3h-1.1v-5.3h-1.9v-1h4.9v1zM254.2 56.4v1h-3.4v1.7h3v.9h-3v1.7h3.5v1h-4.5v-6.3zM265 55v9h-9M275 64h-6v-9h2v-1h2v1h2z"/><circle cx="50.9" cy="540.1" r="20.5" fill="#fff"/><path fill="#eceff1" d="M40.7 529.8h20.5v20.5H40.7z"/><path fill="#cfd8dc" d="M50.9 542.2l10.3 8.1v-15.9z"/><path fill="#f44336" d="M62 529.8h-.8l-10.3 8.1-10.2-8.1h-.9a2.6 2.6 0 00-2.6 2.6v15.4a2.6 2.6 0 002.6 2.5h.9v-15.9l10.2 7.8 10.3-7.8v15.9h.8a2.6 2.6 0 002.6-2.5v-15.4a2.6 2.6 0 00-2.6-2.6z"/><circle cx="121" cy="540.1" r="20.5" fill="#fff"/><path d="M121 522v9.2h-9.2l-9.2 9.2h9.2v9.2l9.2 9.3v-9.3h9.3l9.2-9.2h-9.2v-9.2z" opacity=".2"/><path fill="#fec006" d="M121 539.8h-18.4l9.2-9.3h9.2"/><path fill="#f34235" d="M121 539.8v-18.5l9.3 9.2v9.3"/><path fill="#4bae4f" d="M111.8 539.8v9.2l9.2 9.2v-18.4"/><path fill="#2095f2" d="M121 539.8h18.5l-9.2 9.2H121"/><path fill="#fff" d="M121 539.8v.6h17.8l.7-.6z" opacity=".2"/><path fill="#9c27b0" d="M121 539.8l9.3-9.3v9.3z"/><path fill="#1ea362" d="M121 539.8l-9.2 9.2v-9.2z"/><path fill="#3e50b4" d="M130.3 549l-9.3-9.2v9.2z"/><path fill="#fe9700" d="M111.8 530.5l9.2 9.3v-9.3z"/><path fill="#fff" d="M121 521.3v.7l9.3 9.2v-.7zm-9.2 9.2l-9.2 9.3h.7l8.5-8.6h9.2v-.7z" opacity=".2"/><path d="M121 535.8l-1.6 3.6-3.6 1.7 3.6 1.6 1.6 3.6 1.7-3.6 3.6-1.6-3.6-1.7z" opacity=".2"/><path fill="#fff" d="M121 534.5l-1.6 3.6-3.6 1.7 3.6 1.6 1.6 3.6 1.7-3.6 3.6-1.6-3.6-1.7z"/><path fill="#ebebeb" d="M115.8 539.8l3.6 1.6 1.6 3.6v-5.2z"/><path fill="#dfdfdf" d="M126.3 539.8l-3.6 1.6-1.7 3.6v-5.2z"/><path fill="#db4437" d="M191.1 540.1v-10.3h17.8a19.2 19.2 0 00-17.7-10.2 20.6 20.6 0 00-17.8 10.2l8.9 15.4z"/><path fill="#ffcd40" d="M191.1 529.8v10.3l8.9 5.1-8.8 15.4a20.5 20.5 0 0020.5-20.5 22.1 22.1 0 00-2.8-10.3z"/><path fill="#0f9d58" d="M191.1 540.1l-8.8 5.1-8.9-15.4a21.4 21.4 0 00-2.7 10.3 20.5 20.5 0 0020.5 20.5l8.8-15.4z"/><g mask="url(#T)" opacity=".4"><path fill="url(#v)" d="M173.4 529.8l13 13-4.1 2.4z"/></g><g mask="url(#U)" opacity=".4"><path fill="url(#V)" d="M191.2 560.6l4.7-17.8 4.1 2.4z"/></g><g mask="url(#W)" opacity=".4"><path fill="url(#E)" d="M208.9 529.8l-17.7 4.8v-4.8z"/></g><circle cx="191.2" cy="540.1" r="10.2" fill="#f1f1f1"/><circle cx="191.2" cy="540.1" r="7.5" fill="#4285f4"/><path fill="#db4437" d="M191.1 334.1v-10.3h17.8a19.2 19.2 0 00-17.7-10.2 20.6 20.6 0 00-17.8 10.2l8.9 15.4z"/><path fill="#ffcd40" d="M191.1 323.8v10.3l8.9 5.1-8.8 15.4a20.5 20.5 0 0020.5-20.5 22.1 22.1 0 00-2.8-10.3z"/><path fill="#0f9d58" d="M191.1 334.1l-8.8 5.1-8.9-15.4a21.4 21.4 0 00-2.7 10.3 20.5 20.5 0 0020.5 20.5l8.8-15.4z"/><g mask="url(#X)" opacity=".4"><path fill="url(#Y)" d="M173.4 323.8l13 13-4.1 2.4z"/></g><g mask="url(#Z)" opacity=".4"><path fill="url(#aa)" d="M191.2 354.6l4.7-17.8 4.1 2.4z"/></g><g mask="url(#ab)" opacity=".4"><path fill="url(#ac)" d="M208.9 323.8l-17.7 4.8v-4.8z"/></g><circle cx="191.2" cy="334.1" r="10.2" fill="#f1f1f1"/><circle cx="191.2" cy="334.1" r="7.5" fill="#4285f4"/><circle cx="261.3" cy="540.1" r="20.5" fill="#fff"/><path fill="red" d="M274.3 533.6a3.4 3.4 0 00-2.4-2.4c-2.1-.6-10.6-.6-10.6-.6s-8.5 0-10.6.6a3.3 3.3 0 00-2.4 2.4 35.5 35.5 0 000 13 3.3 3.3 0 002.4 2.4c2.1.6 10.6.6 10.6.6s8.5 0 10.6-.6a3.4 3.4 0 002.4-2.4 39.5 39.5 0 00.5-6.5 30.5 30.5 0 00-.5-6.5zm-15.7 10.5V536l7 4.1z"/><rect width="247" height="31" x="32.6" y="587" fill="#fff" opacity=".7" rx="15.5"/><circle cx="258.2" cy="599.9" r="4.6" fill="#4285f4"/><path fill="#34a853" d="M268.6 600.4a.9.9 0 01-1 .9.9.9 0 01-.9-.9.9.9 0 01.9-1 .9.9 0 011 1z"/><path fill="#ea4335" d="M266.9 602.6a1.8 1.8 0 01-1.9 1.9 1.8 1.8 0 01-1.8-1.9 1.8 1.8 0 011.8-1.8 1.8 1.8 0 011.9 1.8z"/><path fill="#fbbc05" d="M267.3 607.4a2.3 2.3 0 11-4.5 0 2.2 2.2 0 012.2-2.2 2.2 2.2 0 012.3 2.2z"/><path fill="#fbbb00" d="M45.3 604.3l-.5 2.2h-2.2a7.7 7.7 0 01-1-4 8.6 8.6 0 01.9-3.9l2 .3.8 2a4.1 4.1 0 00-.3 1.6 5.7 5.7 0 00.3 1.8z"/><path fill="#518ef8" d="M58.4 600.9a8.8 8.8 0 01.2 1.6 11 11 0 01-.2 1.8 8.4 8.4 0 01-3 4.8H53l-.4-2.1a5.1 5.1 0 002.2-2.6h-4.5V601h8.1z"/><path fill="#28b446" d="M55.4 609.1a8.4 8.4 0 01-12.8-2.6l2.7-2.2a5 5 0 007.3 2.6z"/><path fill="#f14336" d="M55.5 596l-2.8 2.2a4.5 4.5 0 00-2.6-.8 5.2 5.2 0 00-4.8 3.5l-2.8-2.3a8.6 8.6 0 017.6-4.6 8.2 8.2 0 015.4 2z"/><circle cx="199.6" cy="113" r="6" fill="#ffd32a"/><g fill="#fff"><path d="M80.4 108h-3.9v10.8h-1.6V108H71v-1.3h9.4zM86.7 117.9a3.3 3.3 0 01-2.7 1 2.9 2.9 0 01-2.1-.8 3.7 3.7 0 01-.8-2.5v-5.8h1.5v5.8c0 1.3.6 2 1.7 2a2.2 2.2 0 002.3-1.3v-6.5h1.6v9h-1.5zM94.2 118.9a3.7 3.7 0 01-2.9-1.2 4.4 4.4 0 01-1.2-3.2v-.3a6 6 0 01.5-2.4 3.9 3.9 0 011.5-1.6 3.3 3.3 0 011.9-.6 3.5 3.5 0 012.8 1.2 5 5 0 01.9 3.3v.6h-6.1a3.3 3.3 0 00.8 2.1 2.5 2.5 0 001.9.9 2.1 2.1 0 001.4-.4 3.9 3.9 0 001-.8l.9.7a3.8 3.8 0 01-3.4 1.7zm-.2-8a2 2 0 00-1.5.6 3.7 3.7 0 00-.8 1.9h4.5a3 3 0 00-.6-1.8 2.1 2.1 0 00-1.6-.7zM104.7 116.4a1.2 1.2 0 00-.4-1l-1.7-.6-1.8-.6a2.1 2.1 0 01-1-.8 2.1 2.1 0 01-.4-1.2 2.4 2.4 0 011-1.8 4 4 0 014.8 0 2.3 2.3 0 011 2h-1.6a1.3 1.3 0 00-.5-1.1 1.8 1.8 0 00-1.3-.4 2.3 2.3 0 00-1.3.3 1.1 1.1 0 00-.5 1 .8.8 0 00.4.8l1.6.6a4.7 4.7 0 011.9.6 2.7 2.7 0 011 .8 2 2 0 01.4 1.3 2.2 2.2 0 01-1 1.9 3.9 3.9 0 01-2.5.7 4.1 4.1 0 01-1.9-.4 3.2 3.2 0 01-1.3-1 3 3 0 01-.5-1.5h1.6a1.4 1.4 0 00.6 1.2 2.5 2.5 0 001.5.5 2.6 2.6 0 001.4-.4.9.9 0 00.5-.9zM107.9 114.2a4.8 4.8 0 011-3.3 2.9 2.9 0 012.5-1.3 3.1 3.1 0 012.5 1.1V106h1.6v12.8h-1.4v-1a3.3 3.3 0 01-2.6 1.1 2.9 2.9 0 01-2.5-1.3 4.8 4.8 0 01-1-3.3zm1.5.2a3.2 3.2 0 00.7 2.3 2 2 0 001.7.9 2.1 2.1 0 002.1-1.3v-4.1a2.1 2.1 0 00-2.1-1.3 2 2 0 00-1.7.9 3.8 3.8 0 00-.7 2.6zM123.4 118.8a2.2 2.2 0 01-.2-1 3.6 3.6 0 01-2.6 1.1 3 3 0 01-2.1-.7 2.5 2.5 0 01-.9-1.9 2.5 2.5 0 011.1-2.2 5.1 5.1 0 013-.8h1.5v-.7a1.9 1.9 0 00-.5-1.3 2 2 0 00-1.4-.5 2.2 2.2 0 00-1.4.5 1.1 1.1 0 00-.6 1h-1.5a1.7 1.7 0 01.5-1.3 2.2 2.2 0 011.3-1 3.4 3.4 0 011.8-.4 3.6 3.6 0 012.4.8 2.6 2.6 0 01.9 2.1v4.1a5.3 5.3 0 00.3 2v.2zm-2.5-1.2a2.2 2.2 0 001.3-.4 1.9 1.9 0 001-1v-1.8H122c-1.9 0-2.9.5-2.9 1.6a1.7 1.7 0 00.5 1.2 2.5 2.5 0 001.3.4zM129.9 116.5l2.1-6.7h1.7l-3.7 10.3c-.5 1.5-1.4 2.3-2.6 2.3h-.3l-.6-.2V121h.4a2.3 2.3 0 001.3-.3 3.5 3.5 0 00.7-1.1l.3-.9-3.2-8.9h1.7zM134.1 121.2l-.9-.6a4.3 4.3 0 00.8-2.3v-1.4h1.5v1.2a3.3 3.3 0 01-.4 1.7 3.6 3.6 0 01-1 1.4zM151.2 113.1a7.5 7.5 0 01-.6 3.1 3.8 3.8 0 01-1.7 2 4.1 4.1 0 01-2.5.7 4.6 4.6 0 01-2.6-.7 4.8 4.8 0 01-1.7-2 7.3 7.3 0 01-.6-3v-.9a7 7 0 01.6-3 5.1 5.1 0 011.7-2.1 4.6 4.6 0 012.6-.7 4.3 4.3 0 012.5.7 4.2 4.2 0 011.7 2 7.8 7.8 0 01.6 3.1zm-1.6-.8a5.4 5.4 0 00-.8-3.3 3.2 3.2 0 00-4.8 0 5.1 5.1 0 00-.9 3.2v.9a5.4 5.4 0 00.9 3.3 2.7 2.7 0 002.4 1.2 2.9 2.9 0 002.4-1.2 5.6 5.6 0 00.8-3.2zM157 117.7a2.1 2.1 0 002.1-1.8h1.4a3 3 0 01-.5 1.5 2.8 2.8 0 01-1.3 1.1 3.3 3.3 0 01-1.7.4 3.7 3.7 0 01-2.9-1.2 4.5 4.5 0 01-1.1-3.4v-.2a4.1 4.1 0 01.5-2.3 3 3 0 011.3-1.6 3.8 3.8 0 012.2-.6 3.7 3.7 0 012.5.9 3.3 3.3 0 011 2.4h-1.4a2.6 2.6 0 00-.7-1.5 2.4 2.4 0 00-1.4-.5 1.9 1.9 0 00-1.8.8 3.6 3.6 0 00-.7 2.4v.3a3.3 3.3 0 00.7 2.4 2 2 0 001.8.9zM164.4 107.6v2.2h1.6v1.2h-1.6v5.5c0 .4 0 .7.2.8a.8.8 0 00.7.3h.8v1.3h-1.2a2.1 2.1 0 01-1.6-.6 3 3 0 01-.5-1.8V111h-1.6v-1.2h1.6v-2.2zM176.9 118.8h-1.5v-10.3l-3.1 1.2v-1.4l4.4-1.7h.2zM182.1 112.7l.6-6h6.2v1.4H184l-.3 3.3a3.3 3.3 0 012-.5 3.3 3.3 0 012.6 1 4.4 4.4 0 011 3 3.9 3.9 0 01-1 2.9 3.4 3.4 0 01-2.8 1.1 3.6 3.6 0 01-2.6-.9 3.5 3.5 0 01-1.2-2.4h1.4a2.2 2.2 0 00.8 1.5 2.1 2.1 0 001.6.6 1.9 1.9 0 001.6-.8 2.6 2.6 0 00.7-2 2.9 2.9 0 00-.7-1.9 2.2 2.2 0 00-1.8-.8 2.3 2.3 0 00-1.5.5l-.4.3zM213.8 106.7v1.3h-.3a3.9 3.9 0 00-2.8 1 4.5 4.5 0 00-1.2 2.9 3.3 3.3 0 012.6-1.1 3.3 3.3 0 012.5 1.1 4.6 4.6 0 01.9 2.9 4.2 4.2 0 01-1 3 3.7 3.7 0 01-2.7 1.1 3.3 3.3 0 01-2.8-1.3 5.3 5.3 0 01-1.1-3.4v-.6a8 8 0 011.4-5.1 5.2 5.2 0 014.3-1.8zm-2 5.4a2.4 2.4 0 00-1.4.5 2.3 2.3 0 00-1 1.2v.5a4.3 4.3 0 00.7 2.4 2.1 2.1 0 001.7.9 1.9 1.9 0 001.6-.7 3.6 3.6 0 000-4 1.9 1.9 0 00-1.6-.8zM224.7 109.8a2.8 2.8 0 01-.5 1.6 2.4 2.4 0 01-1.3 1.1 4.4 4.4 0 011.5 1.2 2.8 2.8 0 01.6 1.8 3.3 3.3 0 01-1.1 2.5 4.1 4.1 0 01-2.8.9 4.3 4.3 0 01-2.8-.9 3.2 3.2 0 01-1-2.5 3.5 3.5 0 01.5-1.8 4.4 4.4 0 011.5-1.2 2.8 2.8 0 01-1.3-1.1 2.7 2.7 0 01-.4-1.6 3.2 3.2 0 01.9-2.4 4.2 4.2 0 015.2 0 3.3 3.3 0 011 2.4zm-1.3 5.7a2.1 2.1 0 00-2.3-2.3 2.5 2.5 0 00-1.7.6 2.4 2.4 0 00-.6 1.7 2.3 2.3 0 00.6 1.6 2.7 2.7 0 003.4 0 2.3 2.3 0 00.6-1.6zm-2.3-7.7a1.6 1.6 0 00-1.4.5 2 2 0 00-.6 1.5 2.1 2.1 0 00.5 1.5 2.2 2.2 0 003 0 1.7 1.7 0 00.5-1.5 2 2 0 00-.5-1.5 2.5 2.5 0 00-1.5-.5zM227 108.7a2.5 2.5 0 01.6-1.6 2.2 2.2 0 013 0 2.5 2.5 0 01.6 1.6 2.4 2.4 0 01-.6 1.5 2.2 2.2 0 01-3 0 2.4 2.4 0 01-.6-1.5zm2.1 1a1 1 0 001-1 1 1 0 00-.3-.8.9.9 0 00-.7-.3 1 1 0 00-1.1 1.1.9.9 0 00.3.7 1.1 1.1 0 00.8.3zM240.3 113.4h-5.1v5.4h-1.6v-12.1h7.5v1.3h-5.9v4.1h5.1zM200.6 113a2 2 0 00-1.1.3 3 3 0 10-2.9 3.7h4a2 2 0 100-4z"/><circle cx="191.5" cy="334.2" r="20.5"/></g></svg>