<svg xmlns="http://www.w3.org/2000/svg" xmlns:xlink="http://www.w3.org/1999/xlink" viewBox="0 0 1601.8 1000"><linearGradient id="c" x1="1.52" x2="1600.24" y1="500" y2="500" gradientUnits="userSpaceOnUse"><stop offset="0" stop-color="#0f0f0f"/><stop offset="1"/></linearGradient><linearGradient id="d" x1="800.88" x2="800.88" y1="50.29" y2="68.19" gradientUnits="userSpaceOnUse"><stop offset="0" stop-color="#0d0d0d"/><stop offset="1" stop-color="#1c1c1c"/></linearGradient><radialGradient id="e" cx="798.99" cy="59.02" r="7.32" gradientUnits="userSpaceOnUse"><stop offset="0" stop-color="#212121"/><stop offset=".28" stop-color="#242424"/><stop offset=".46" stop-color="#2c2c2c"/><stop offset=".6" stop-color="#3b3b3b"/><stop offset=".73" stop-color="#4f4f4f"/><stop offset=".8" stop-color="#5c5c5c"/></radialGradient><radialGradient id="f" cx="112.94" cy="867.7" r="1388.64" gradientUnits="userSpaceOnUse"><stop offset="0" stop-color="#d2e8f6"/><stop offset=".43" stop-color="#2775c0"/><stop offset=".77" stop-color="#02398f"/><stop offset="1" stop-color="#031f74"/></radialGradient><linearGradient id="g" x1="1301.07" x2="1280.64" y1="120.14" y2="140.61" gradientTransform="matrix(1 0 0 -1 0 998.23)" gradientUnits="userSpaceOnUse"><stop offset="0" stop-color="#0d58bf"/><stop offset="1" stop-color="#0a3070"/></linearGradient><linearGradient id="h" x1="1280.11" x2="1302.69" y1="128.67" y2="124.54" gradientTransform="matrix(1 0 0 -1 0 998.23)" gradientUnits="userSpaceOnUse"><stop offset="0" stop-color="#007fc0"/><stop offset="1" stop-color="#00e6ff"/></linearGradient><linearGradient id="i" x1="1293.22" x2="1302.91" y1="134.28" y2="125.11" gradientTransform="matrix(1 0 0 -1 0 998.23)" gradientUnits="userSpaceOnUse"><stop offset="0" stop-color="#0094f2"/><stop offset="1" stop-color="#00c8ff"/></linearGradient><linearGradient id="j" x1="1278.31" x2="1290.45" y1="132.77" y2="126.41" gradientTransform="matrix(1 0 0 -1 0 998.23)" gradientUnits="userSpaceOnUse"><stop offset="0" stop-color="#004fa7"/><stop offset="1" stop-color="#006dd9"/></linearGradient><clipPath id="k"><rect width="26.5" height="31" x="866" y="484.8" rx="1.5"/></clipPath><linearGradient id="l" x1="894.32" x2="884.04" y1="495.99" y2="506.94" gradientTransform="matrix(1 0 0 -1 0 998.23)" gradientUnits="userSpaceOnUse"><stop offset="0" stop-color="#c024f9"/><stop offset="1" stop-color="#920fc7"/></linearGradient><linearGradient id="m" x1="884" x2="894.56" y1="514.83" y2="503.58" gradientTransform="matrix(1 0 0 -1 0 998.23)" gradientUnits="userSpaceOnUse"><stop offset="0" stop-color="#ad3ad1"/><stop offset=".97" stop-color="#d64dfc"/></linearGradient><linearGradient id="n" x1="894.32" x2="884.04" y1="488.14" y2="499.1" gradientTransform="matrix(1 0 0 -1 0 998.23)" gradientUnits="userSpaceOnUse"><stop offset="0" stop-color="#9a00e9"/><stop offset="1" stop-color="#7500bc"/></linearGradient><linearGradient id="a" x1="894.32" x2="884.04" y1="480.3" y2="491.25" gradientTransform="matrix(1 0 0 -1 0 998.23)" gradientUnits="userSpaceOnUse"><stop offset=".08" stop-color="#7419bd"/><stop offset="1" stop-color="#62129f"/></linearGradient><radialGradient id="o" cx="884.01" cy="486.08" r="49.29" gradientTransform="matrix(1.01 0 0 -1.01 -9.92 1004.4)" gradientUnits="userSpaceOnUse"><stop offset="0" stop-color="#f96dff"/><stop offset="1" stop-color="#9130b2"/></radialGradient><radialGradient id="p" cx="871.67" cy="491.92" r="11.05" gradientTransform="matrix(1.01 0 0 -1.01 -9.92 1004.4)" gradientUnits="userSpaceOnUse"><stop offset="0" stop-color="#7600b4"/><stop offset="1" stop-color="#7600b4" stop-opacity="0"/></radialGradient><linearGradient id="q" x1="857.02" x2="874.95" y1="500.25" y2="500.25" xlink:href="#a"/><linearGradient id="b" x1="864.38" x2="869.77" y1="498.07" y2="498.07" gradientTransform="matrix(1 0 0 -1 0 998.23)" gradientUnits="userSpaceOnUse"><stop offset="0" stop-color="#f0f0f0"/><stop offset="1" stop-color="#fff"/></linearGradient><linearGradient id="r" x1="724.73" x2="720.15" y1="500.31" y2="513.83" gradientTransform="matrix(1 0 0 -1 0 998.23)" gradientUnits="userSpaceOnUse"><stop offset="0" stop-color="#0359de"/><stop offset="1" stop-color="#0045a7"/></linearGradient><linearGradient id="s" x1="746.97" x2="725.08" y1="480.23" y2="503.28" gradientTransform="matrix(1 0 0 -1 0 998.23)" gradientUnits="userSpaceOnUse"><stop offset="0" stop-color="#006af3"/><stop offset="1" stop-color="#025fad"/></linearGradient><linearGradient id="t" x1="716.79" x2="741.69" y1="513.3" y2="483.88" gradientTransform="matrix(1 0 0 -1 0 998.23)" gradientUnits="userSpaceOnUse"><stop offset="0" stop-color="#0071c2"/><stop offset="1" stop-color="#00b9ff"/></linearGradient><linearGradient id="u" x1="726.83" x2="734.38" y1="498.44" y2="498.44" xlink:href="#b"/><rect width="1598.7" height="996.96" x="1.5" y="1.5" fill="url(#c)" rx="40"/><path fill="#404040" d="M1560.3 3a38.5 38.5 0 0138.4 38.5v917a38.5 38.5 0 01-38.4 38.5H41.5A38.6 38.6 0 013 958.5v-917A38.6 38.6 0 0141.5 3zm0-3H41.5A41.5 41.5 0 000 41.5v917a41.5 41.5 0 0041.5 41.5h1518.8a41.5 41.5 0 0041.5-41.5v-917A41.5 41.5 0 001560.3 0z"/><path fill="#fff" d="M782.8 925.9l14.8-2v14.3h-14.8zm14.8 13.9v14.3l-14.8-2v-12.4zm1.8-16.1l19.6-2.9V938l-19.6.2zM819 940v17.1l-19.6-2.8v-14.4z" opacity=".8"/><path fill="url(#d)" d="M810.9 59.2a10 10 0 11-10-10 10 10 0 0110 10z"/><path fill="url(#e)" d="M804.9 59.2a4 4 0 11-4-4 4 4 0 014 4z"/><path fill="none" stroke="#131318" stroke-miterlimit="10" stroke-width=".25" d="M804.9 59.2a4 4 0 11-4-4 4 4 0 014 4z"/><circle cx="829.3" cy="59.2" r="3" fill="#1a1a1a"/><path fill="url(#f)" d="M101.1 101.2h1391.3v787.64H101.1z"/><path fill="#d6e3ec" d="M100.9 888.8h1391.9v-43.5H100.9z"/><path fill="#606060" d="M140 867.7v10.9l-12.5-1.7v-9.3zm-12.5-10.5l12.5-1.8v11h-12.5v-9.3zm-1.2 10.4v9.1l-9.5-1.3v-7.9zm-9.5-8.9l9.5-1.3v9.1h-9.5v-7.9z"/><path fill="#fff" d="M161 888.8h326.3v-43.5H161z"/><path fill="none" stroke="#606060" stroke-linecap="round" stroke-linejoin="round" stroke-width="1.52" d="M187.7 858.3a5.7 5.7 0 11-5.6 5.6 5.7 5.7 0 015.6-5.6zm-10.6 17.4l6.8-7.6"/><path fill="#606060" d="M207.3 871.8v-1.4a1 1 0 00.5.4l.7.3h1.4a2.4 2.4 0 001.6-.4 1.3 1.3 0 00.6-1.1 1.4 1.4 0 00-.2-.7l-.5-.6-.7-.5-1-.4-.9-.6a1.6 1.6 0 01-.8-.6 1.8 1.8 0 01-.5-.7 1.6 1.6 0 01-.2-1 2.7 2.7 0 01.3-1.2 2 2 0 01.8-.8 2.8 2.8 0 011.1-.5h1.2a6.1 6.1 0 012.2.3v1.3a4.1 4.1 0 00-2.3-.6h-.8c-.2.1-.4.1-.6.3a1 1 0 00-.5.4 1.4 1.4 0 00-.2.7 1.5 1.5 0 00.1.7c.1.2.3.3.5.5l.6.4 1 .5 1 .6.8.6.6.8a3 3 0 01.2 1 2.1 2.1 0 01-.3 1.2 2.3 2.3 0 01-.8.9l-1.1.4-1.4.2h-1.2l-.7-.2zm13.5-2.9v-.6a3.9 3.9 0 00-.7-2.5 2.7 2.7 0 00-2.2-.9 3 3 0 00-2.3 1.1 4.1 4.1 0 00-1 2.7 4 4 0 00.9 2.7 3.3 3.3 0 002.4 1 4.9 4.9 0 002.5-.7v-1.1a4 4 0 01-2.3.8 2.1 2.1 0 01-1.6-.6 2.9 2.9 0 01-.7-1.9zm-1.1-.9h-3.9a3.4 3.4 0 01.7-1.6 2.4 2.4 0 011.4-.5 1.7 1.7 0 011.3.5 2.5 2.5 0 01.5 1.6zm8 4.2v-4.6c0-1.8-.9-2.7-2.5-2.7a4.1 4.1 0 00-2.5.7v1.1a4.1 4.1 0 012.4-.8c.9 0 1.4.6 1.4 1.8l-2.1.3c-1.6.2-2.4 1-2.4 2.3a2 2 0 00.6 1.5 2.4 2.4 0 001.7.6 2.5 2.5 0 002.2-1.3v1.1zm-1.2-3.6v.7a2.5 2.5 0 01-.5 1.5 2 2 0 01-1.4.6 1.5 1.5 0 01-1-.3 1 1 0 01-.4-.9 1.1 1.1 0 01.4-1 3.4 3.4 0 011.2-.4zm7-2.4v-1.1h-.7a1.7 1.7 0 00-1.1.4 2.1 2.1 0 00-.7 1.1h-.1v-1.4h-1.1v7.1h1.1v-3.6a3.3 3.3 0 01.5-1.9 1.6 1.6 0 011.3-.7l.8.2zm6.1 5.7v-1.1a2.7 2.7 0 01-1.7.6 2.1 2.1 0 01-1.8-.7 3.2 3.2 0 010-4 2.2 2.2 0 011.8-.8 3.4 3.4 0 011.7.5v-1.1a2.9 2.9 0 00-1.6-.4 3.4 3.4 0 00-2.7 1.1 4.3 4.3 0 00-.1 5.4 3.4 3.4 0 002.5 1 3.8 3.8 0 001.9-.5zm7.6.3v-4.4c0-1.9-.8-2.9-2.4-2.9a2.5 2.5 0 00-2.3 1.4v-4.6h-1.2v10.5h1.2v-4a2.9 2.9 0 01.5-1.7 2 2 0 011.4-.6c1.1 0 1.7.7 1.7 2.2v4.1zm18-10H264l-2.1 7.7a3.8 3.8 0 00-.1 1h-.1c0-.4-.1-.7-.1-1l-2.2-7.7h-1.1l-2.2 7.7a4.4 4.4 0 00-.2 1 3 3 0 00-.2-1l-2.1-7.7h-1.3l2.9 10h1.4l2-7.3a3.6 3.6 0 00.2-1h.1a3.1 3.1 0 00.1 1l2.1 7.3h1.3zm2 1.1l.5-.2a1.4 1.4 0 00.2-.6.8.8 0 00-.2-.5l-.5-.2-.6.2a.8.8 0 00-.2.5 1.4 1.4 0 00.2.6zm.5 8.9v-7.1h-1.1v7.1zm8.2 0v-4.4a3.3 3.3 0 00-.6-2.1 2.2 2.2 0 00-1.8-.8 2.5 2.5 0 00-2.3 1.4v-1.2H270v7.1h1.2v-4.1a2.2 2.2 0 01.5-1.6 2 2 0 011.4-.6c1.1 0 1.7.7 1.7 2.2v4.1zm8.2 0v-10.5H283v4.4a2.4 2.4 0 00-2.2-1.2 3 3 0 00-2.3 1.1 4.1 4.1 0 00-.9 2.8 4 4 0 00.8 2.6 2.7 2.7 0 002.1 1 2.7 2.7 0 002.5-1.4v1.2zM283 869a2.4 2.4 0 01-.6 1.7 1.8 1.8 0 01-1.5.7 1.9 1.9 0 01-1.6-.7 3 3 0 01-.5-2 3.3 3.3 0 01.6-2.1 1.8 1.8 0 011.6-.7 1.7 1.7 0 011.4.6 2 2 0 01.6 1.4zm6.4 3.4a3.3 3.3 0 002.6-1.1 3.9 3.9 0 001-2.7 3.8 3.8 0 00-.9-2.7 3 3 0 00-2.5-1 3.6 3.6 0 00-2.7 1 4.1 4.1 0 00-.9 2.8 4 4 0 00.9 2.7 3.6 3.6 0 002.5 1zm.1-6.5a2.1 2.1 0 011.7.7 3.3 3.3 0 01.6 2.1 3.2 3.2 0 01-.6 2 2.4 2.4 0 01-3.4 0 2.7 2.7 0 01-.7-2 2.8 2.8 0 01.7-2.1 2.1 2.1 0 011.7-.7zm14.3-.8h-1.2l-1.4 5.3a2 2 0 00-.1.7h-.1a1.5 1.5 0 00-.1-.7l-1.5-5.3h-1l-1.7 5.3c0 .2-.1.5-.1.7 0-.3-.1-.5-.1-.7l-1.5-5.3h-1.2l2.2 7.1h1.1l1.6-5.1a2 2 0 00.1-.7h.1a1.5 1.5 0 00.1.7l1.4 5.1h1.2zm.8 6.8a4.1 4.1 0 001.9.5l1.1-.2a3.2 3.2 0 00.9-.3 1.3 1.3 0 00.6-.7 1.6 1.6 0 00.3-.9 2.4 2.4 0 00-.2-.8l-.4-.5-.6-.4-.9-.4-.6-.3-.5-.2-.3-.4c0-.1-.1-.2-.1-.4s.1-.3.1-.4l.3-.4.5-.2h.5a2.7 2.7 0 011.8.5v-1.2a4.1 4.1 0 00-1.6-.3h-1l-.9.4a1.3 1.3 0 00-.6.7c-.2.2-.2.5-.2.9a1.7 1.7 0 00.1.7l.3.5.6.5.9.3.6.3.5.3.4.3a.9.9 0 01.1.5c0 .7-.5 1-1.5 1a3.3 3.3 0 01-2.1-.7v1.2zm15.5.3v-4.6c0-1.8-.8-2.7-2.5-2.7a4 4 0 00-2.4.7v1.1a3.8 3.8 0 012.3-.8q1.5 0 1.5 1.8l-2.2.3c-1.5.2-2.3 1-2.3 2.3a2 2 0 00.6 1.5 2.1 2.1 0 001.6.6 2.5 2.5 0 002.2-1.3h.1v1.1zm-1.1-3.6v.7a2 2 0 01-.6 1.5 1.8 1.8 0 01-1.4.6 1.7 1.7 0 01-1-.3 1.2 1.2 0 01-.3-.9 1.1 1.1 0 01.4-1 2.3 2.3 0 011.1-.4zm9.2 3.6v-4.4a2.8 2.8 0 00-.7-2.1 2.1 2.1 0 00-1.7-.8 2.7 2.7 0 00-2.4 1.4v-1.2h-1.1v7.1h1.1v-4.1a2.8 2.8 0 01.5-1.6 2 2 0 011.5-.6c1.1 0 1.6.7 1.6 2.2v4.1zm8.2 0v-10.5h-1.2v4.4a2.1 2.1 0 00-2.1-1.2 3 3 0 00-2.4 1.1 4.1 4.1 0 00-.9 2.8 4 4 0 00.8 2.6 3 3 0 002.2 1 2.6 2.6 0 002.4-1.4v1.2zm-1.2-3.2a2.4 2.4 0 01-.6 1.7 1.8 1.8 0 01-1.5.7 1.7 1.7 0 01-1.5-.7 3 3 0 01-.6-2 3.3 3.3 0 01.6-2.1 1.9 1.9 0 011.6-.7 2 2 0 011.5.6 2.4 2.4 0 01.5 1.4zm10.7 3.1v-.9l-.8.2a1.1 1.1 0 01-.8-.3 2.5 2.5 0 01-.2-1v-4h1.8v-1h-1.8V863l-1.1.3v1.8h-1.3v1h1.3v4.2c0 1.4.6 2 1.8 2a1.8 1.8 0 001.1-.2zm7.4.1v-4.4c0-1.9-.8-2.9-2.4-2.9a2.5 2.5 0 00-2.3 1.4h-.1v-4.6h-1.1v10.5h1.1v-4a2.4 2.4 0 01.6-1.7 2 2 0 011.4-.6c1.1 0 1.7.7 1.7 2.2v4.1zm7.9-3.3v-.6a3.9 3.9 0 00-.8-2.5 2.6 2.6 0 00-2.1-.9 3 3 0 00-2.4 1.1 4 4 0 00-.9 2.7 4.6 4.6 0 00.8 2.7 3.3 3.3 0 002.4 1 4.6 4.6 0 002.5-.7v-1.1a3.7 3.7 0 01-2.2.8 2.4 2.4 0 01-1.7-.6 2.9 2.9 0 01-.6-1.9zm-1.2-.9h-3.8a2.6 2.6 0 01.7-1.6 1.9 1.9 0 011.3-.5 1.7 1.7 0 011.3.5 2.5 2.5 0 01.5 1.6zm15.8-2.9h-1.2l-1.4 5.3a2 2 0 00-.1.7h-.1a1.5 1.5 0 00-.1-.7l-1.5-5.3h-1l-1.6 5.3a1.9 1.9 0 00-.2.7c0-.3-.1-.5-.1-.7l-1.5-5.3h-1.2l2.2 7.1h1.1l1.6-5.1a2 2 0 00.1-.7h.1a1.5 1.5 0 00.1.7l1.4 5.1h1.2zm7 3.8v-.6a3.9 3.9 0 00-.8-2.5 2.6 2.6 0 00-2.1-.9 3.2 3.2 0 00-2.4 1.1 4.5 4.5 0 000 5.4 2.9 2.9 0 002.3 1 4.4 4.4 0 002.5-.7v-1.1a3.7 3.7 0 01-2.2.8 2.4 2.4 0 01-1.7-.6 2.9 2.9 0 01-.6-1.9zm-1.2-.9h-3.8a2.6 2.6 0 01.7-1.6 2.2 2.2 0 011.4-.5 2.1 2.1 0 011.3.5 2.5 2.5 0 01.4 1.6zm4.1 3.2a2.4 2.4 0 002.1 1.2 3 3 0 002.4-1.1 4.4 4.4 0 00.9-2.9 3.9 3.9 0 00-.8-2.5 2.4 2.4 0 00-2.1-1 2.9 2.9 0 00-2.5 1.4v-4.6h-1.2v10.5h1.2zm0-2.9a2.4 2.4 0 01.6-1.7 1.9 1.9 0 011.6-.7 2 2 0 011.5.6 4.1 4.1 0 01-.1 4.1 1.9 1.9 0 01-1.6.8 2 2 0 01-1.5-.6 2.5 2.5 0 01-.5-1.5z"/><circle cx="512.9" cy="867" r="7.9" fill="none" stroke="#666" stroke-miterlimit="10" stroke-width="2.02"/><path fill="#4d4d4d" d="M1387.7 860.2a13.8 13.8 0 01-.2 2.2 4.8 4.8 0 01-.7 1.6 2.4 2.4 0 01-1 1 2.6 2.6 0 01-1.5.4 2.8 2.8 0 01-1.3-.3 4.7 4.7 0 01-1-1 3.4 3.4 0 01-.6-1.6 12.5 12.5 0 01-.2-2.1 16.4 16.4 0 01.2-2.3 5.9 5.9 0 01.7-1.6 2.7 2.7 0 011-1.1 3.2 3.2 0 011.4-.3c2.1 0 3.2 1.7 3.2 5.1zm-1.2.1c0-2.8-.7-4.2-2-4.2s-2.1 1.4-2.1 4.3.7 4 2 4 2.1-1.4 2.1-4.1zm8.7-.7a16.9 16.9 0 01-.2 2.5 7.5 7.5 0 01-.8 1.8 3.3 3.3 0 01-1.3 1.1 3.3 3.3 0 01-1.7.4 3.1 3.1 0 01-1.7-.4v-1a3.3 3.3 0 001.7.4 2.1 2.1 0 001.2-.3 1.4 1.4 0 00.9-.8 2.6 2.6 0 00.6-1.3 9 9 0 00.2-1.8 2.4 2.4 0 01-2.3 1.3l-1.1-.2-1-.6-.6-1a5.1 5.1 0 01-.2-1.3 2.8 2.8 0 01.3-1.3 2.4 2.4 0 01.6-1.1l1-.7 1.3-.2a3.2 3.2 0 011.4.3 2.6 2.6 0 01.9.9 3 3 0 01.6 1.4 5.8 5.8 0 01.2 1.9zm-1.2-1a3.1 3.1 0 00-.1-1 2.2 2.2 0 00-.5-.8c-.1-.3-.3-.4-.6-.6h-1.5a1.8 1.8 0 00-.7.5 4.3 4.3 0 00-.4.7 2.2 2.2 0 00-.1.9 2.8 2.8 0 00.1.9 4.3 4.3 0 00.4.7 1.8 1.8 0 00.7.5h1.5l.7-.4.4-.6a2.2 2.2 0 00.1-.8zm3.5.9l-.6-.2a1.4 1.4 0 01-.2-.6.8.8 0 01.2-.5.7.7 0 01.6-.2c.2 0 .4 0 .5.2a.5.5 0 01.3.5.9.9 0 01-.3.6zm0 5.9a.9.9 0 01-.6-.3.8.8 0 01-.2-.5 1.4 1.4 0 01.2-.6l.6-.2.5.2a.9.9 0 01.3.6 1.2 1.2 0 01-.8.8zm7.4-10.1v6.5h1.3v1.1h-1.3v2.3h-1.1v-2.3h-4.7v-1a10.1 10.1 0 001.3-1.6 10.9 10.9 0 001.3-1.7 16.3 16.3 0 001.1-1.7 8.9 8.9 0 00.9-1.6zm-4.5 6.5h3.4V857c-.3.6-.7 1.1-1 1.6l-.9 1.3-.8 1a3.5 3.5 0 01-.7.9zm11.7-3.9c0 .2-.1.5-.1.7a3 3 0 01-.4.8l-.5.7-.9.7-1.3 1a7.6 7.6 0 00-.9.9 3.6 3.6 0 00-.4.9 3.6 3.6 0 00-.2 1.1v.5h6.2v-1h-5c0-.3.1-.5.1-.7l.4-.6a4.6 4.6 0 01.7-.7l1.2-.9 1-.7.7-.9a1.9 1.9 0 00.4-.9 3.1 3.1 0 00.1-1 4.3 4.3 0 00-.2-1.2 2.4 2.4 0 00-.6-.8l-.9-.5a2.2 2.2 0 00-1.1-.2l-1.5.2-1.1.7v1.3l.6-.5a1 1 0 01.5-.4l.7-.3h1.3a.9.9 0 01.6.3 1.3 1.3 0 01.4.6 1.9 1.9 0 01.2.8zm-41.3 16.5a12.7 12.7 0 01-.2 2.2 6.7 6.7 0 01-.7 1.7 3 3 0 01-3.8 1 2.4 2.4 0 01-1-1l-.6-1.5a12.5 12.5 0 01-.2-2.1 14 14 0 01.2-2.3 5.4 5.4 0 01.7-1.7 1.9 1.9 0 011-1 2.4 2.4 0 011.5-.4c2 0 3.1 1.7 3.1 5.1zm-1.2.1c0-2.8-.6-4.2-2-4.2s-2.1 1.4-2.1 4.3.7 4.1 2.1 4.1 2-1.4 2-4.2zm6.8 5v-10.2h-.4l-.6.4-.8.5-.8.4-.8.3v1.1l.6-.2.7-.3.6-.4.4-.3v8.7zm4.2.1l.6-.2a1.4 1.4 0 00.2-.6.8.8 0 00-.2-.5.9.9 0 00-.6-.3 1.2 1.2 0 00-.8.8.9.9 0 00.3.6zm8.6-5.2a12.7 12.7 0 01-.2 2.2 6.7 6.7 0 01-.7 1.7 2.4 2.4 0 01-1 1 3.4 3.4 0 01-2.8 0 2.2 2.2 0 01-.9-1 5.2 5.2 0 01-.7-1.5 12.5 12.5 0 01-.2-2.1 7.5 7.5 0 01.3-2.3 3.8 3.8 0 01.6-1.7 2.4 2.4 0 011-1 2.6 2.6 0 011.5-.4c2.1 0 3.1 1.7 3.1 5.1zm-1.1.1q0-4.2-2.1-4.2c-1.4 0-2.1 1.4-2.1 4.3s.7 4.1 2.1 4.1 2.1-1.4 2.1-4.2zm6.7 5v-10.2h-.4l-.6.4-.8.5-.8.4-.8.3v1.1l.7-.2.6-.3a1.3 1.3 0 00.6-.4l.4-.3v8.7zm4.2.1l.6-.2a1.4 1.4 0 00.2-.6.8.8 0 00-.2-.5.9.9 0 00-.6-.3.5.5 0 00-.5.3c-.2.1-.2.3-.2.5a.7.7 0 00.2.6zm6.9-7.5a2.2 2.2 0 01-.1.8 1.1 1.1 0 01-.3.7 1.9 1.9 0 01-.6.7 3.5 3.5 0 01-.9.7l-1.2 1a3.8 3.8 0 00-.9.9 3.6 3.6 0 00-.4.9 4.3 4.3 0 00-.2 1.2v.5h6.2v-1.1h-5a1.7 1.7 0 01.1-.7 2.1 2.1 0 01.4-.6l.7-.7 1.2-.8.9-.8c.3-.3.6-.5.7-.8a4.1 4.1 0 00.5-.9c0-.3.1-.7.1-1.1a3.6 3.6 0 00-.2-1.1 3.5 3.5 0 00-.6-.9l-.9-.5-1.2-.2a3.2 3.2 0 00-1.4.3 2.6 2.6 0 00-1.1.7v1.2l.5-.5.6-.4.6-.2h1.4l.6.3.4.6a1.9 1.9 0 01.1.8zm9.4 2.3a12.7 12.7 0 01-.2 2.2 6.7 6.7 0 01-.7 1.7 2.4 2.4 0 01-1 1 3.4 3.4 0 01-2.8 0 1.8 1.8 0 01-.9-1 5.2 5.2 0 01-.7-1.5 12.5 12.5 0 01-.2-2.1 14 14 0 01.2-2.3 5.4 5.4 0 01.7-1.7 2.4 2.4 0 011-1 2.6 2.6 0 011.5-.4c2.1 0 3.1 1.7 3.1 5.1zm-1.1.1q0-4.2-2.1-4.2c-1.4 0-2.1 1.4-2.1 4.3s.7 4.1 2.1 4.1 2.1-1.4 2.1-4.2zm7.1-2.4c0 .3-.1.5-.1.8l-.3.7-.6.7-.9.7-1.3 1-.8.9a2 2 0 00-.5.9 4.5 4.5 0 00-.1 1.2v.5h6.1v-1.1h-5a1.9 1.9 0 01.2-.7c0-.2.2-.4.3-.6l.8-.7 1.1-.8 1-.8.7-.8a3.6 3.6 0 00.4-.9 3.7 3.7 0 00.1-1.1 2 2 0 00-.2-1.1 1.5 1.5 0 00-.6-.9 1.9 1.9 0 00-.9-.5l-1.1-.2a3.3 3.3 0 00-1.5.3 2.3 2.3 0 00-1 .7v1.2l.5-.5.6-.4.6-.2h1.4l.5.3a2.1 2.1 0 01.4.6 1.9 1.9 0 01.2.8zm7.3 7.4v-10.2h-.4l-.6.4-.8.5-.8.4-.8.3v1.1l.6-.2.7-.3.6-.4.4-.3v8.7zm-104.5-7.5v-1.1h-4.2v-3.5h3.6v-1h-3.6v-3.3h3.9V862h-5v10zm9.9 0v-10h-1.2v7c0 .7.1 1.2.1 1.5l-.4-.7-5-7.8h-1.5v10h1.1v-8.6l.3.7 5.2 7.9zm10.1-.7v-4.5h-3.4v1.1h2.2v2.7a3.3 3.3 0 01-2 .5 3.1 3.1 0 01-2.7-1.1 3.9 3.9 0 01-1-2.9 3.7 3.7 0 011.1-3 3.4 3.4 0 012.7-1.2 5.5 5.5 0 012.9.8v-1.3a6.1 6.1 0 00-2.8-.5 5.3 5.3 0 00-3.7 1.4 5.6 5.6 0 00-1.4 3.8 4.9 4.9 0 001.3 3.7 4.6 4.6 0 003.4 1.4 6.4 6.4 0 003.4-.9z"/><path fill="none" stroke="#606060" stroke-linecap="round" stroke-linejoin="round" stroke-width="1.01" d="M1468.9 859.7h-17.3v13.9h7.2l1.8 2 1.8-2h6.5z"/><path fill="none" stroke="gray" stroke-linecap="square" stroke-width="1.98" d="M1488.9 887.7v-41.4"/><path fill="#1a1a1a" d="M1492.3 101.7v786.7H101.2V101.7zm1-1H100.2v788.7h1393.1z"/><path fill="url(#g)" d="M1290.6 874.8a7.2 7.2 0 007.2-7.2 7.3 7.3 0 00-7.2-7.3 7.3 7.3 0 00-7.3 7.3 7.3 7.3 0 007.3 7.2z"/><path fill="url(#h)" d="M1301.3 872.5a5.3 5.3 0 01-3.5 2.5c-1 .1-5.3.1-13.1-.1a5.8 5.8 0 01-4.6-2.3l12.4-5.4z"/><path fill="url(#i)" d="M1292.5 867.2l2.8-1.2a4.1 4.1 0 011.9-.4 4.6 4.6 0 014.7 4.6 6 6 0 01-.6 2.3z"/><path fill="url(#j)" d="M1280.1 872.6a6.8 6.8 0 01-1-3.5 5.7 5.7 0 015.7-5.7 5.5 5.5 0 013.3 1.1l4.4 2.7z"/><path fill="#fff" d="M859.5 533.3a2.8 2.8 0 01-2.3-1 3.2 3.2 0 01-.9-2.4 4 4 0 01.9-2.7 3.3 3.3 0 012.4-1 3.1 3.1 0 012.3 1 3.5 3.5 0 01.9 2.5 3.6 3.6 0 01-.9 2.6 3 3 0 01-2.4 1zm.1-6.3a2.4 2.4 0 00-1.8.7 3.5 3.5 0 00-.7 2.1 3.2 3.2 0 00.7 2 2.1 2.1 0 001.7.8 2.5 2.5 0 001.8-.7 4 4 0 000-4.2 2.1 2.1 0 00-1.7-.7zm8.5 6.2v-3a3.3 3.3 0 00-.4-1.5 1.7 1.7 0 00-1.3-.5 1.8 1.8 0 00-1.6.9v-.8h-.8v4.9h.8v-2.8a1.5 1.5 0 01.4-1.1 1.2 1.2 0 011-.5c.7 0 1.1.6 1.1 1.6v2.8zm5.4-2.3H870a1.7 1.7 0 00.5 1.3 1.3 1.3 0 001.1.5 2 2 0 001.5-.6v.7a2.3 2.3 0 01-1.7.5 1.9 1.9 0 01-1.6-.7 2.4 2.4 0 01-.6-1.8 2.5 2.5 0 01.7-1.9 1.9 1.9 0 011.6-.7 2 2 0 011.5.6 2.9 2.9 0 01.5 1.7zm-.8-.6a1.2 1.2 0 00-1.2-1.5 1.8 1.8 0 00-1 .4 3.7 3.7 0 00-.5 1.1zm7.6 2.9v-6.9h-.8v5.9a.9.9 0 00-.3-.5l-3.4-5.4h-1v6.9h.8v-5a2.2 2.2 0 00-.1-.9h.1a.5.5 0 00.2.4l3.5 5.5zm3.7.1a2.1 2.1 0 01-1.7-.7 2.5 2.5 0 01-.7-1.8 2.7 2.7 0 01.7-1.9 2.4 2.4 0 011.8-.7 1.9 1.9 0 011.7.7 2.1 2.1 0 01.7 1.8 2.9 2.9 0 01-.7 1.9 2.1 2.1 0 01-1.8.7zm.1-4.5a1.4 1.4 0 00-1.2.6 2 2 0 00-.5 1.4 1.7 1.7 0 00.5 1.3 1.4 1.4 0 001.2.6 1.3 1.3 0 001.1-.5 2.2 2.2 0 00.5-1.4 2.3 2.3 0 00-.5-1.5 1.3 1.3 0 00-1.1-.5zm5.9 4.3v-.6h-.5c-.3 0-.5 0-.6-.2a1 1 0 01-.2-.7V529h1.3v-.7h-1.3v-1.4l-.7.2v1.2h-.9v.7h.9v2.9c0 .9.4 1.4 1.2 1.4zm4.9-2.2h-3.4a2.2 2.2 0 00.4 1.3 1.7 1.7 0 001.2.5 2.4 2.4 0 001.5-.6v.7a2.3 2.3 0 01-1.7.5 1.9 1.9 0 01-1.6-.7 2.4 2.4 0 01-.6-1.8 2.9 2.9 0 01.6-1.9 2.1 2.1 0 011.6-.7 1.8 1.8 0 011.5.6 2.3 2.3 0 01.5 1.7zm-.8-.6a1.8 1.8 0 00-.3-1.1 1.3 1.3 0 00-.9-.4 1.5 1.5 0 00-.9.4 2.2 2.2 0 00-.5 1.1z"/><g clip-path="url(#k)"><path fill="url(#l)" d="M885 492.4h7.5v7.9H885z"/><path fill="url(#m)" d="M885 484.6h7.5v7.8H885z"/><path fill="url(#n)" d="M885 500.3h7.5v7.8H885z"/><path fill="url(#a)" d="M885 508.1h7.5v7.8H885z"/><path fill="url(#o)" d="M867.5 484.8H885v31h-17.5a1.5 1.5 0 01-1.5-1.5v-28.1a1.5 1.5 0 011.5-1.4z"/></g><g clip-path="url(#k)"><path fill-opacity=".2" d="M859.1 490.9H874a1.5 1.5 0 011.5 1.5v15c0 .8-2.5 3.3-3.3 3.3h-15a1.5 1.5 0 01-1.5-1.5v-14.9c0-.8 2.6-3.4 3.4-3.4z"/></g><path fill="url(#p)" d="M858.5 491.3h15a1.5 1.5 0 011.5 1.5v14.9a1.5 1.5 0 01-1.5 1.5h-15a1.5 1.5 0 01-1.5-1.5v-14.9a1.5 1.5 0 011.5-1.5z"/><path fill="url(#q)" d="M858.5 491.1h15a1.5 1.5 0 011.5 1.5v15.3a1.5 1.5 0 01-1.5 1.5h-15a1.5 1.5 0 01-1.5-1.5v-15.3a1.5 1.5 0 011.5-1.5z"/><path fill="url(#b)" d="M869.9 504.7H868l-4.2-6.5v6.5h-1.7v-9.1h1.8l4.3 6.5v-6.5h1.7z"/><rect width="11" height="11" x="856.4" y="510.3" fill="#fff" rx="1"/><path fill="#37659f" d="M861.3 520.1s-4.5-3.2-.2-6.8l-1.9-1.9h5.9v6.3l-1.9-1.9c-2.9-.2-1.9 4.3-1.9 4.3z"/><path fill="#fff" d="M716.9 531.7v-1l.4.3.5.2h1l1.1-.2a1.2 1.2 0 00.4-.8.8.8 0 00-.2-.5l-.3-.4-.5-.3-.6-.3-.7-.4-.6-.4-.3-.5a1.5 1.5 0 01-.1-.7 1.1 1.1 0 01.2-.8l.5-.6.8-.3h.8l1.5.2v.9a2.5 2.5 0 00-1.6-.4h-.9l-.4.4c-.1.1-.1.2-.1.4a.7.7 0 00.1.5l.3.3.4.3.7.4.7.3.6.5.3.5a1.9 1.9 0 01.2.7 2.9 2.9 0 01-.2.9 1.2 1.2 0 01-.5.5l-.8.4h-2.7zm9.5.2l-2.4-2.5 2.2-2.4h-1l-2 2.3h-.1v-4.6h-.7v7.2h.7v-2.3h.1l2.1 2.3zm4.7-4.9h-.8l-1.4 3.8c0 .2-.1.3-.1.4a.8.8 0 01-.1-.4l-1.3-3.8h-.9l1.9 4.9-.4 1a1.1 1.1 0 01-.9.7h-.4v.7h.5c.7 0 1.3-.5 1.7-1.5l2.2-5.7zm1.6 4.2a1.8 1.8 0 001.5.9 1.9 1.9 0 001.6-.8 3 3 0 00.6-2 2.3 2.3 0 00-.5-1.7 1.8 1.8 0 00-1.5-.7 2.1 2.1 0 00-1.7 1v-.9h-.8v7.2h.8zm0-1.9a2.1 2.1 0 01.4-1.2 1.6 1.6 0 011.1-.5 1.2 1.2 0 011.1.5 2.1 2.1 0 01.3 1.2 2.1 2.1 0 01-.4 1.5 1.1 1.1 0 01-1.1.6 1.3 1.3 0 01-1-.4 2.1 2.1 0 01-.4-1.1zm8.9.4v-.4a2.6 2.6 0 00-.5-1.7 1.8 1.8 0 00-1.5-.7 2.1 2.1 0 00-1.6.8 2.6 2.6 0 00-.6 1.8 3.6 3.6 0 00.5 1.9 2.4 2.4 0 001.7.7 2.9 2.9 0 001.7-.5v-.8a2.4 2.4 0 01-1.5.6 1.7 1.7 0 01-1.2-.5 1.5 1.5 0 01-.4-1.2zm-.8-.7h-2.6a1.4 1.4 0 01.5-1 1.2 1.2 0 011.8 0 1.5 1.5 0 01.3 1z"/><path fill="url(#r)" d="M723.2 502.4a9 9 0 10-8.9-9 8.9 8.9 0 008.9 9z"/><path fill="url(#s)" d="M735.2 514.5a8.9 8.9 0 10-9-8.9 8.9 8.9 0 009 8.9z"/><path fill="url(#t)" d="M729.3 513.6a13.9 13.9 0 10-13.9-13.9 13.8 13.8 0 0013.9 13.9z"/><path fill="url(#u)" d="M728.8 507.7a13.4 13.4 0 01-3.9-.7l-.7-.4a1.6 1.6 0 01-.5-1.6 1.1 1.1 0 011.1-.8 2.7 2.7 0 011.2.3 7.4 7.4 0 002.1.7 3.8 3.8 0 002.1-.1 1.6 1.6 0 001.2-1.9 1.5 1.5 0 00-.7-1 15.5 15.5 0 00-2.2-1.2l-2.8-1.3a4.2 4.2 0 01-1.7-1.8 3.7 3.7 0 011.1-4.7 6.6 6.6 0 013-1.2 9.8 9.8 0 014.2.3l1.1.5a1.3 1.3 0 01.5 1.6 1.1 1.1 0 01-1.5.6l-1.4-.5a6.2 6.2 0 00-2.7-.1l-.6.2a1.5 1.5 0 00-.2 2.7 12.9 12.9 0 001.6.9 13.3 13.3 0 013.2 1.5 4.3 4.3 0 012 2 4.1 4.1 0 01-2.5 5.5 7.9 7.9 0 01-3 .5"/><rect width="11" height="11" x="711.4" y="510.3" fill="#fff" rx="1"/><path fill="#37659f" d="M716.3 520.1s-4.5-3.2-.1-6.8l-1.9-1.9h5.8v6.3l-1.9-1.9c-2.9-.2-1.9 4.3-1.9 4.3z"/><circle cx="800.8" cy="499.9" r="16.5" fill="#fff"/><rect width="11" height="11" x="780.2" y="510.3" fill="#fff" rx="1"/><path fill="#37659f" d="M785 520.1s-4.5-3.2-.1-6.8l-1.9-1.9h5.8v6.3l-1.9-1.9c-2.9-.2-1.9 4.3-1.9 4.3z"/></svg>