<svg xmlns="http://www.w3.org/2000/svg" xmlns:xlink="http://www.w3.org/1999/xlink" viewBox="0 0 1296.9 999.73"><linearGradient id="d" x1="10718.1" x2="12058.99" y1="-12224.84" y2="-12230.75" gradientTransform="matrix(.1968 0 0 -.1968 -1582.74 -1446.57)" gradientUnits="userSpaceOnUse"><stop offset="0" stop-color="#191919"/><stop offset=".16" stop-color="#3d3d3d"/><stop offset=".24" stop-color="#191919"/><stop offset=".46" stop-color="#4e4e4e"/><stop offset=".66" stop-color="#191919"/><stop offset=".75" stop-color="#393939"/><stop offset="1" stop-color="#191919"/></linearGradient><linearGradient id="e" x1="9032.52" x2="13647.18" y1="-12225.2" y2="-12225.2" gradientTransform="matrix(.1968 0 0 -.1968 -1582.74 -1446.57)" gradientUnits="userSpaceOnUse"><stop offset="0"/><stop offset="1" stop-opacity="0"/></linearGradient><linearGradient id="a" x1="-10900.33" x2="-10935.7" y1="-12575.7" y2="-12420.93" gradientTransform="rotate(180 -868.22 -723.29) scale(.1968)" gradientUnits="userSpaceOnUse"><stop offset="0" stop-color="#313131"/><stop offset="1" stop-color="#a6a6a6"/></linearGradient><linearGradient id="f" x1="-12071.4" x2="-10267.35" y1="-12300.65" y2="-12300.65" gradientTransform="rotate(180 -868.23 -723.29) scale(.1968)" gradientUnits="userSpaceOnUse"><stop offset="0" stop-color="#7b7b7b"/><stop offset=".17" stop-color="#121212"/><stop offset=".2" stop-color="#7b7b7b"/><stop offset=".24" stop-color="#161616"/><stop offset=".74" stop-color="#2f2f2f"/><stop offset="1" stop-color="#2a2a2a"/></linearGradient><linearGradient id="g" x1="12555.46" x2="12520.32" y1="-12570.21" y2="-12416.39" gradientTransform="matrix(.1968 0 0 -.1968 -1582.75 -1446.58)" xlink:href="#a"/><linearGradient id="h" x1="11369.17" x2="13186.9" y1="-12300.64" y2="-12300.64" gradientTransform="matrix(.1968 0 0 -.1968 -1582.73 -1446.58)" gradientUnits="userSpaceOnUse"><stop offset="0" stop-color="#7b7b7b"/><stop offset=".17" stop-color="#121212"/><stop offset=".2" stop-color="#656565"/><stop offset=".24" stop-color="#161616"/><stop offset=".74" stop-color="#2f2f2f"/><stop offset="1" stop-color="#2a2a2a"/></linearGradient><linearGradient id="i" x1="4755.1" x2="4755.1" y1="-6585.22" y2="-6525.36" gradientTransform="matrix(.4491 0 0 -.3358 -1483.73 -1258.25)" gradientUnits="userSpaceOnUse"><stop offset="0" stop-color="#939393"/><stop offset="1" stop-color="#999"/></linearGradient><linearGradient id="j" x1="4755.1" x2="4755.1" y1="-6583.13" y2="-6529.89" gradientTransform="matrix(.4491 0 0 -.3358 -1483.73 -1258.25)" gradientUnits="userSpaceOnUse"><stop offset="0" stop-color="#676767"/><stop offset="1" stop-color="#bdbdbd"/></linearGradient><linearGradient id="k" x1="11342.95" x2="11352.35" y1="-11842.83" y2="-11154.12" gradientTransform="matrix(.1968 0 0 -.1968 -1582.75 -1446.58)" gradientUnits="userSpaceOnUse"><stop offset="0" stop-color="#767676"/><stop offset=".56" stop-color="#2f2f2f"/></linearGradient><linearGradient id="l" x1="11344.53" x2="11344.53" y1="-12109.52" y2="-11706.37" gradientTransform="matrix(.1968 0 0 -.1968 -1582.75 -1446.58)" gradientUnits="userSpaceOnUse"><stop offset="0" stop-color="#4a4a4a"/><stop offset="1" stop-color="#616161"/></linearGradient><linearGradient id="m" x1="11330.7" x2="11330.7" y1="-11587.86" y2="-7379.13" gradientTransform="matrix(.1968 0 0 -.1968 -1581.43 -1446.58)" gradientUnits="userSpaceOnUse"><stop offset="0" stop-color="#202020"/><stop offset="1" stop-color="#343434"/></linearGradient><linearGradient id="n" x1="11330.7" x2="11330.7" y1="-11443.78" y2="-7559.78" gradientTransform="matrix(.1968 0 0 -.1968 -1581.43 -1446.58)" gradientUnits="userSpaceOnUse"><stop offset="0" stop-color="#616161"/><stop offset="1" stop-color="#202020"/></linearGradient><radialGradient id="b" cx="-6599.73" cy="2178.07" r="7.18" gradientTransform="rotate(-135 -2205.29 647.26) scale(.5918 .9765)" gradientUnits="userSpaceOnUse"><stop offset="0" stop-color="#ccc"/><stop offset="1" stop-color="#c1c1c1" stop-opacity="0"/></radialGradient><radialGradient id="o" cx="-1084.98" cy="-1164.28" r="7.21" gradientTransform="rotate(-45 -97.07 -1317.4) scale(.5918 -.9766)" xlink:href="#b"/><linearGradient id="p" x1="8091.18" x2="11210.57" y1="-7366.15" y2="-7366.15" gradientTransform="matrix(.1968 0 0 -.1968 -1581.43 -1446.58)" gradientUnits="userSpaceOnUse"><stop offset="0" stop-color="#afafaf"/><stop offset="1" stop-color="#bebebe"/></linearGradient><linearGradient id="q" x1="8054.64" x2="11210.57" y1="-10417.94" y2="-10417.94" gradientTransform="matrix(.1968 0 0 -.1968 -1581.43 -1204)" gradientUnits="userSpaceOnUse"><stop offset="0" stop-color="#929292"/><stop offset="1" stop-color="#8a8a8a"/></linearGradient><linearGradient id="r" x1="11330.7" x2="11330.7" y1="-10435.23" y2="-10414.35" gradientTransform="matrix(.1968 0 0 -.1968 -1581.43 -1204)" gradientUnits="userSpaceOnUse"><stop offset="0" stop-color="#5a5a5a"/><stop offset="1" stop-color="#8a8a8a" stop-opacity="0"/></linearGradient><linearGradient id="s" x1="11330.7" x2="11330.7" y1="-10433.6" y2="-10402.24" gradientTransform="matrix(.1968 0 0 -.1968 -1581.43 -1204)" gradientUnits="userSpaceOnUse"><stop offset="0" stop-color="#6f6f6f" stop-opacity="0"/><stop offset="1" stop-color="#ebebeb"/></linearGradient><linearGradient id="t" x1="648.46" x2="648.46" y1="803.63" y2="45.86" gradientUnits="userSpaceOnUse"><stop offset="0" stop-color="#2c0225"/><stop offset=".26" stop-color="#400444"/><stop offset=".5" stop-color="#5e0c5a"/><stop offset=".75" stop-color="#7e1854"/><stop offset="1" stop-color="#b12b26"/></linearGradient><linearGradient id="u" x1="648.46" x2="648.46" y1="603.62" y2="46.19" gradientUnits="userSpaceOnUse"><stop offset=".5"/><stop offset="1" stop-opacity="0"/></linearGradient><linearGradient id="v" x1="68.89" x2="68.89" y1="803.5" y2="64.83" gradientUnits="userSpaceOnUse"><stop offset="0" stop-color="#21151f"/><stop offset="1" stop-color="#461f20"/></linearGradient><linearGradient id="w" x1="-3773.2" x2="-3740.06" y1="1316.62" y2="1355.35" gradientTransform="matrix(0 -1 -1 0 1401.33 -3430.67)" gradientUnits="userSpaceOnUse"><stop offset="0" stop-color="#f37e40"/><stop offset="1" stop-color="#f34f17"/></linearGradient><clipPath id="x"><path d="M84.25 323.13c0-6.2-.64-6.86-6.84-6.83H60.23c-6.2-.03-6.84.64-6.84 6.83v11.6c0 6.18.64 6.82 6.84 6.82H77.4c6.2 0 6.84-.64 6.84-6.83z"/></clipPath><linearGradient id="c" x1="68.82" x2="68.82" y1="667.07" y2="641.83" gradientTransform="matrix(1 0 0 -1 0 983.38)" gradientUnits="userSpaceOnUse"><stop offset="0" stop-color="#fff"/><stop offset=".13" stop-color="#fff" stop-opacity=".1"/><stop offset=".93" stop-color="#fff" stop-opacity=".1"/><stop offset="1" stop-color="#fff" stop-opacity=".5"/></linearGradient><linearGradient id="y" x1="-166.97" x2="-149.88" y1="300.09" y2="269.88" gradientTransform="matrix(.9449 0 0 -.9449 218.51 645.35)" gradientUnits="userSpaceOnUse"><stop offset="0" stop-color="#1a7fd4"/><stop offset="1" stop-color="#37a6e6"/></linearGradient><linearGradient id="z" x1="4833.1" x2="4833.1" y1="-6660.24" y2="-6789.28" gradientTransform="matrix(.2391 0 0 -.2391 -1086.84 -1231.87)" xlink:href="#c"/><linearGradient id="A" x1="586.46" x2="620.12" y1="4466.19" y2="4499.85" gradientTransform="matrix(0 1 1 0 -4414.05 -417.95)" gradientUnits="userSpaceOnUse"><stop offset="0" stop-color="#948b74"/><stop offset="1" stop-color="#aea795"/></linearGradient><linearGradient id="B" x1="587.86" x2="618.72" y1="4483.02" y2="4483.02" gradientTransform="matrix(0 1 1 0 -4414.05 -417.95)" xlink:href="#c"/><radialGradient id="C" cx="-19562.07" cy="-20129.06" r="112.2" gradientTransform="matrix(.031 -.1159 -.0664 -.0178 -662.82 -2384.18)" gradientUnits="userSpaceOnUse"><stop offset="0" stop-color="#fee581"/><stop offset="1" stop-color="#eab305"/></radialGradient><radialGradient id="D" cx="15527.64" cy="-20509.3" r="39.27" gradientTransform="matrix(.0889 .0238 .0238 -.0889 -822.84 -1961.4)" gradientUnits="userSpaceOnUse"><stop offset="0" stop-color="#4d4d4d"/><stop offset=".57" stop-color="#333"/><stop offset="1" stop-color="#1a1a1a"/></radialGradient><clipPath id="E"><path d="M63.2 217.6c-6.19 0-6.85.64-6.82 6.84v17.18c-.03 6.2.63 6.84 6.82 6.84h11.6c6.19 0 6.82-.64 6.82-6.84v-17.18c0-6.2-.63-6.84-6.82-6.84z"/></clipPath><linearGradient id="F" x1="69" x2="69" y1="765.78" y2="734.92" xlink:href="#c"/><linearGradient id="G" x1="61.91" x2="73.51" y1="717.32" y2="686.47" gradientTransform="matrix(1 0 0 -1 0 983.38)" gradientUnits="userSpaceOnUse"><stop offset="0" stop-color="#f2f2f2"/><stop offset="1" stop-color="#fff"/></linearGradient><linearGradient id="H" x1="75.55" x2="63.09" y1="686.76" y2="718.31" gradientTransform="matrix(1 0 0 -1 0 983.38)" gradientUnits="userSpaceOnUse"><stop offset="0" stop-color="#259dd2"/><stop offset="1" stop-color="#065d8d"/></linearGradient><linearGradient id="I" x1="-620.35" x2="-620.35" y1="2453.11" y2="2436.28" gradientTransform="matrix(1.5555 0 0 -1.6667 1033.9 4356.95)" gradientUnits="userSpaceOnUse"><stop offset="0" stop-color="#0369a3"/><stop offset="1" stop-color="#047fc6"/></linearGradient><linearGradient id="J" x1="-575.16" x2="-575.16" y1="1918.21" y2="1916.11" gradientTransform="matrix(1.5 0 0 -1.3333 935.18 2835.14)" gradientUnits="userSpaceOnUse"><stop offset="0" stop-color="#63bbee"/><stop offset="1" stop-color="#aadcf7"/></linearGradient><linearGradient id="K" x1="-452.12" x2="-452.12" y1="379.52" y2="376.02" gradientTransform="matrix(1.5 0 0 -1.5333 750.6 859.66)" gradientUnits="userSpaceOnUse"><stop offset="0" stop-color="#666"/><stop offset="1" stop-color="#333"/></linearGradient><clipPath id="L"><path d="M63.14 265.6c-6.19 0-6.85.63-6.82 6.83v17.18c-.03 6.2.63 6.84 6.82 6.84h11.6c6.19 0 6.82-.64 6.82-6.84v-17.18c0-6.2-.63-6.84-6.82-6.84z"/></clipPath><linearGradient id="M" x1="68.94" x2="68.94" y1="717.78" y2="686.93" xlink:href="#c"/><linearGradient id="N" x1="79.42" x2="57.42" y1="834.46" y2="856.45" gradientTransform="matrix(1 0 0 -1 0 983.38)" gradientUnits="userSpaceOnUse"><stop offset="0" stop-color="#130036"/><stop offset=".23" stop-color="#18023b"/><stop offset=".51" stop-color="#26094a"/><stop offset=".82" stop-color="#3d1563"/><stop offset="1" stop-color="#4e1d75"/></linearGradient><linearGradient id="O" x1="53.37" x2="59.9" y1="849.12" y2="849.12" gradientTransform="matrix(1 0 0 -1 0 983.38)" gradientUnits="userSpaceOnUse"><stop offset="0" stop-color="#3156a8"/><stop offset=".25" stop-color="#3351a4"/><stop offset=".54" stop-color="#3b4397"/><stop offset=".85" stop-color="#472c82"/><stop offset="1" stop-color="#4e1d75"/></linearGradient><radialGradient id="P" cx="60.09" cy="1476.94" r="11.73" gradientTransform="matrix(1 0 0 -1.45 0 2278.37)" gradientUnits="userSpaceOnUse"><stop offset=".17" stop-color="#14cdda"/><stop offset=".55" stop-color="#2061bd"/><stop offset=".65" stop-color="#2658ac"/><stop offset=".86" stop-color="#373f81"/><stop offset="1" stop-color="#432d62"/></radialGradient><linearGradient id="Q" x1="58.09" x2="78.31" y1="854.27" y2="854.27" gradientTransform="matrix(1 0 0 -1 0 983.38)" gradientUnits="userSpaceOnUse"><stop offset="0" stop-color="#2061bd"/><stop offset=".18" stop-color="#2b51ac"/><stop offset=".68" stop-color="#442c84"/><stop offset=".94" stop-color="#4e1d75"/></linearGradient><linearGradient id="R" x1="61.07" x2="74.98" y1="859.04" y2="846.95" gradientTransform="matrix(1 0 0 -1 0 983.38)" gradientUnits="userSpaceOnUse"><stop offset=".02" stop-color="#48a8e0"/><stop offset=".39" stop-color="#2061bd"/><stop offset=".5" stop-color="#2b51ac"/><stop offset=".79" stop-color="#442c84"/><stop offset=".94" stop-color="#4e1d75"/></linearGradient><linearGradient id="S" x1="54.67" x2="81.94" y1="815.81" y2="856.23" gradientTransform="matrix(1 0 0 -1 0 983.38)" gradientUnits="userSpaceOnUse"><stop offset=".38" stop-color="#3156a8"/><stop offset="1" stop-color="#4e1d75"/></linearGradient><linearGradient id="T" x1="65.28" x2="80.35" y1="823.9" y2="857.76" gradientTransform="matrix(1 0 0 -1 0 983.38)" gradientUnits="userSpaceOnUse"><stop offset="0" stop-color="#29abe2"/><stop offset=".77" stop-color="#385aa6"/><stop offset=".86" stop-color="#414293"/><stop offset="1" stop-color="#4e1d75"/></linearGradient><linearGradient id="U" x1="58.61" x2="59.43" y1="849.57" y2="849.1" gradientTransform="matrix(1 0 0 -1 0 983.38)" gradientUnits="userSpaceOnUse"><stop offset="0" stop-color="#b0dcd6"/><stop offset="1" stop-color="#53ace0"/></linearGradient><linearGradient id="V" x1="76.21" x2="74.56" y1="859.06" y2="859.41" gradientTransform="matrix(1 0 0 -1 0 983.38)" gradientUnits="userSpaceOnUse"><stop offset="0" stop-color="#3092b9"/><stop offset=".22" stop-color="#258db6"/><stop offset=".66" stop-color="#1685b1"/><stop offset="1" stop-color="#1082af"/></linearGradient><linearGradient id="W" x1="63.08" x2="64.44" y1="857.01" y2="851.57" gradientTransform="matrix(1 0 0 -1 0 983.38)" gradientUnits="userSpaceOnUse"><stop offset=".01" stop-color="#1398d1" stop-opacity="0"/><stop offset=".25" stop-color="#1187c2" stop-opacity=".62"/><stop offset=".64" stop-color="#3f6499" stop-opacity=".71"/><stop offset="1" stop-color="#2f4282" stop-opacity=".5"/></linearGradient><linearGradient id="X" x1="108.9" x2="108.14" y1="976.46" y2="976.88" gradientTransform="scale(1 -1) rotate(-2 -31643.4 1766.56)" gradientUnits="userSpaceOnUse"><stop offset="0" stop-color="#f9c21b"/><stop offset=".15" stop-color="#f3ba1b"/><stop offset=".38" stop-color="#e3a41b"/><stop offset=".66" stop-color="#c9801c"/><stop offset=".99" stop-color="#a44e1c"/><stop offset="1" stop-color="#a34c1c"/></linearGradient><linearGradient id="Y" x1="80.34" x2="75.28" y1="844.33" y2="855.7" gradientTransform="matrix(1 0 0 -1 0 983.38)" gradientUnits="userSpaceOnUse"><stop offset="0" stop-color="#409ec3"/><stop offset=".62" stop-color="#2061bd"/></linearGradient><linearGradient id="Z" x1="76.28" x2="72.66" y1="848.06" y2="859.22" gradientTransform="matrix(1 0 0 -1 0 983.38)" gradientUnits="userSpaceOnUse"><stop offset="0" stop-color="#14b2da"/><stop offset=".4" stop-color="#297ccc"/><stop offset=".51" stop-color="#256fc5"/><stop offset=".65" stop-color="#2164bf"/><stop offset=".82" stop-color="#2061bd"/><stop offset=".98" stop-color="#2061bd"/></linearGradient><linearGradient id="aa" x1="77.6" x2="51.16" y1="905.06" y2="879.54" gradientTransform="matrix(1 0 0 -1 3.7 983.37)" gradientUnits="userSpaceOnUse"><stop offset=".05" stop-color="#fff44f"/><stop offset=".11" stop-color="#ffe847"/><stop offset=".23" stop-color="#ffc830"/><stop offset=".37" stop-color="#ff980e"/><stop offset=".4" stop-color="#ff8b16"/><stop offset=".46" stop-color="#ff672a"/><stop offset=".53" stop-color="#ff3647"/><stop offset=".7" stop-color="#e31587"/></linearGradient><radialGradient id="ab" cx="-7898.62" cy="9430.5" r="33.21" gradientTransform="matrix(1 0 0 -1 7978.7 9507.37)" gradientUnits="userSpaceOnUse"><stop offset=".13" stop-color="#ffbd4f"/><stop offset=".19" stop-color="#ffac31"/><stop offset=".25" stop-color="#ff9d17"/><stop offset=".28" stop-color="#ff980e"/><stop offset=".4" stop-color="#ff563b"/><stop offset=".47" stop-color="#ff3750"/><stop offset=".71" stop-color="#f5156c"/><stop offset=".78" stop-color="#eb0878"/><stop offset=".86" stop-color="#e50080"/></radialGradient><radialGradient id="ac" cx="-7910.75" cy="9416.92" r="33.21" gradientTransform="matrix(1 0 0 -1 7978.7 9507.37)" gradientUnits="userSpaceOnUse"><stop offset=".3" stop-color="#960e18"/><stop offset=".35" stop-color="#b11927" stop-opacity=".74"/><stop offset=".43" stop-color="#db293d" stop-opacity=".34"/><stop offset=".5" stop-color="#f5334b" stop-opacity=".09"/><stop offset=".53" stop-color="#ff3750" stop-opacity="0"/></radialGradient><radialGradient id="ad" cx="-7906.75" cy="9438.03" r="24.06" gradientTransform="matrix(1 0 0 -1 7978.7 9507.37)" gradientUnits="userSpaceOnUse"><stop offset=".13" stop-color="#fff44f"/><stop offset=".25" stop-color="#ffdc3e"/><stop offset=".51" stop-color="#ff9d12"/><stop offset=".53" stop-color="#ff980e"/></radialGradient><radialGradient id="ae" cx="-7914.43" cy="9408.25" r="15.81" gradientTransform="matrix(1 0 0 -1 7978.7 9507.37)" gradientUnits="userSpaceOnUse"><stop offset=".35" stop-color="#3a8ee6"/><stop offset=".47" stop-color="#5c79f0"/><stop offset=".67" stop-color="#9059ff"/><stop offset="1" stop-color="#c139e6"/></radialGradient><radialGradient id="af" cx="-8448.75" cy="9396.24" r="8.38" gradientTransform="matrix(.972 -.235 -.275 -1.138 10865.9 8795.19)" gradientUnits="userSpaceOnUse"><stop offset=".21" stop-color="#9059ff" stop-opacity="0"/><stop offset=".28" stop-color="#8c4ff3" stop-opacity=".06"/><stop offset=".75" stop-color="#7716a8" stop-opacity=".45"/><stop offset=".97" stop-color="#6e008b" stop-opacity=".6"/></radialGradient><radialGradient id="ag" cx="-7911.17" cy="9431.86" r="11.37" gradientTransform="matrix(1 0 0 -1 7978.7 9507.37)" gradientUnits="userSpaceOnUse"><stop offset="0" stop-color="#ffe226"/><stop offset=".12" stop-color="#ffdb27"/><stop offset=".29" stop-color="#ffc82a"/><stop offset=".5" stop-color="#ffa930"/><stop offset=".73" stop-color="#ff7e37"/><stop offset=".79" stop-color="#ff7139"/></radialGradient><radialGradient id="ah" cx="-7902.23" cy="9439.07" r="48.53" gradientTransform="matrix(1 0 0 -1 7978.7 9507.37)" gradientUnits="userSpaceOnUse"><stop offset=".11" stop-color="#fff44f"/><stop offset=".46" stop-color="#ff980e"/><stop offset=".62" stop-color="#ff5634"/><stop offset=".72" stop-color="#ff3647"/><stop offset=".9" stop-color="#e31587"/></radialGradient><radialGradient id="ai" cx="-7509.03" cy="14013.43" r="35.55" gradientTransform="matrix(.105 .995 .653 -.069 -8289.95 8509.4)" gradientUnits="userSpaceOnUse"><stop offset="0" stop-color="#fff44f"/><stop offset=".06" stop-color="#ffe847"/><stop offset=".17" stop-color="#ffc830"/><stop offset=".3" stop-color="#ff980e"/><stop offset=".36" stop-color="#ff8b16"/><stop offset=".46" stop-color="#ff672a"/><stop offset=".57" stop-color="#ff3647"/><stop offset=".74" stop-color="#e31587"/></radialGradient><radialGradient id="aj" cx="-7911.44" cy="9427.64" r="30.3" gradientTransform="matrix(1 0 0 -1 7978.7 9507.37)" gradientUnits="userSpaceOnUse"><stop offset=".14" stop-color="#fff44f"/><stop offset=".48" stop-color="#ff980e"/><stop offset=".59" stop-color="#ff5634"/><stop offset=".66" stop-color="#ff3647"/><stop offset=".9" stop-color="#e31587"/></radialGradient><radialGradient id="ak" cx="-7903.44" cy="9425.87" r="33.16" gradientTransform="matrix(1 0 0 -1 7978.7 9507.37)" gradientUnits="userSpaceOnUse"><stop offset=".09" stop-color="#fff44f"/><stop offset=".23" stop-color="#ffe141"/><stop offset=".51" stop-color="#ffaf1e"/><stop offset=".63" stop-color="#ff980e"/></radialGradient><linearGradient id="al" x1="77.28" x2="54.78" y1="905.19" y2="882.69" gradientTransform="matrix(1 0 0 -1 3.7 983.37)" gradientUnits="userSpaceOnUse"><stop offset=".17" stop-color="#fff44f" stop-opacity=".8"/><stop offset=".27" stop-color="#fff44f" stop-opacity=".63"/><stop offset=".49" stop-color="#fff44f" stop-opacity=".22"/><stop offset=".6" stop-color="#fff44f" stop-opacity="0"/></linearGradient><linearGradient id="am" x1="-22820.06" x2="-23166.72" y1="22259.1" y2="22259.1" gradientTransform="rotate(-90 -1957.84 -148.08) scale(.1133)" gradientUnits="userSpaceOnUse"><stop offset="0" stop-color="#b3b3b3"/><stop offset="1" stop-color="#d9d9d9"/></linearGradient><clipPath id="an"><path d="M705.9 483.37c-6.18 0-6.85.63-6.82 6.84v17.18c-.03 6.2.64 6.83 6.83 6.83h11.6c6.18 0 6.82-.63 6.82-6.83V490.2c0-6.2-.64-6.84-6.83-6.84z"/></clipPath><linearGradient id="ao" x1="711.71" x2="711.71" y1="500.01" y2="469.15" xlink:href="#c"/><linearGradient id="ap" x1="-231.03" x2="-198.77" y1="113.49" y2="143.64" gradientTransform="matrix(1 0 0 -1 800 623.38)" gradientUnits="userSpaceOnUse"><stop offset="0" stop-color="#2c001e"/><stop offset=".11" stop-color="#2c001e"/><stop offset=".19" stop-color="#370626"/><stop offset=".3" stop-color="#55163b"/><stop offset=".37" stop-color="#772953"/><stop offset=".45" stop-color="#7c2b51"/><stop offset=".52" stop-color="#8b314b"/><stop offset=".6" stop-color="#8b314b"/><stop offset=".67" stop-color="#a33a41"/><stop offset=".8" stop-color="#c44732"/><stop offset=".91" stop-color="#e65524"/><stop offset="1" stop-color="#e65524"/></linearGradient><linearGradient id="aq" x1="-227.05" x2="-194.8" y1="134.44" y2="109.9" gradientTransform="matrix(1 0 0 -1 800 623.38)" gradientUnits="userSpaceOnUse"><stop offset="0" stop-color="#666"/><stop offset="1" stop-color="#7a7a7a"/></linearGradient><path fill="url(#d)" fill-rule="evenodd" stroke="url(#e)" stroke-miterlimit="3.91" stroke-width=".68" d="M1102.93 978.51l-90.84 20.46h-8.32l-262.98-26.34c-8.32-.2-17.02-.85-25.45.1-34.53 3.91-95.7 4.22-133.4-.34l-26.4.24-268.78 26.1h-7.51L195 979.6l13.32-15.74c5.85-6.93 14.28-9.17 25.66-10.2l310.18-27.35c5.27-.44 10.06-3 14.3-6.53h194.2a28.85 28.85 0 0017.19 7.28l287.34 25.28c15.4 1.36 26.64 2.52 35.07 12.95z"/><path fill="url(#a)" fill-rule="evenodd" d="M194.9 979.25l84.35 19.48 13.66.2c9.1-15.75 21.1-19.38 38.08-20.96l224.85-20.4a121.87 121.87 0 0125.47.06c15.82 1.78 45.82 2.95 67.94 3.08l.07-42.32H544a28.33 28.33 0 01-17.2 7.26l-287.37 25.34c-15.34 1.3-26.58 2.47-35.07 12.94z"/><path fill="url(#f)" fill-rule="evenodd" d="M284.42 999h8.76c9.11-15.82 20.75-18.08 37.8-19.66l224.79-20.4a126.7 126.7 0 0125.47.06c15.83 1.78 45.84 2.5 66.05 2.92l-.23-8.69-59.86-2.04c-11.1-.4-23.49-2.4-32.32-1.64l-228 19.93c-15.34 1.3-28.22 7.06-35.41 18.42l-7.05 11.1z"/><path fill="none" stroke="gray" stroke-linecap="round" stroke-miterlimit="10" stroke-width="2" d="M649.39 953.32l-63.42-2.12c-11.03-.42-23.42-2.4-32.26-1.65l-228 19.93c-15.4 1.3-28.21 7.06-35.47 18.42l-6.38 10.83"/><path fill="url(#g)" fill-rule="evenodd" d="M1102.53 978l-90.47 20.93h-8.36c-9.1-15.75-21.1-19.38-38.08-20.96l-224.85-20.4a121.87 121.87 0 00-25.47.06c-15.83 1.78-45.82 2.95-67.94 3.08l-.07-42.32h105.33a28.33 28.33 0 0017.2 7.26l287.37 25.34c15.34 1.3 26.57 2.47 35.07 12.94z"/><path fill="url(#h)" fill-rule="evenodd" d="M1012.2 999h-8.77c-9.11-15.82-20.76-18.08-37.8-19.66l-224.79-20.4a126.71 126.71 0 00-25.48.06c-15.82 1.78-47.87 2.5-68.07 2.92l-.72-8.69 61.09-2.64c12.84.2 25.24-1.8 34.07-1.04l228 19.93c15.34 1.3 28.22 7.06 35.4 18.42l7.06 11.1z"/><path fill="none" stroke="gray" stroke-linecap="round" stroke-miterlimit="10" stroke-width="2" d="M647.06 953.23l63.58-2.03c11.03-.42 23.42-2.4 32.26-1.65l228 19.93c15.4 1.3 28.21 7.06 35.47 18.42l6.21 10.48"/><path fill="url(#i)" stroke="url(#j)" stroke-miterlimit="3.91" stroke-width=".68" d="M740.86 938.14c0 6.11-39.86 11.07-89.07 11.07s-89.08-4.96-89.08-11.07c0-6.16 39.87-11.12 89.08-11.12s89.07 4.96 89.07 11.12z"/><path fill="url(#k)" d="M569.96 783.95h159.79a1.23 1.23 0 011.23 1.23v152.25a1.23 1.23 0 01-1.23 1.23c-53.15-3.01-106.57-2.46-159.79 0a1.23 1.23 0 01-1.23-1.23V785.18a1.23 1.23 0 011.23-1.23z"/><path fill="none" stroke="url(#l)" stroke-miterlimit="10" stroke-width=".99" d="M569.96 783.94h159.79a1.22 1.22 0 011.23 1.22v151.79a1.22 1.22 0 01-1.23 1.21 1498.13 1498.13 0 00-159.79 0 1.22 1.22 0 01-1.23-1.21v-151.8a1.22 1.22 0 011.23-1.2z"/><rect width="1296.9" height="837.61" y="6.16" fill="url(#m)" rx="3.66"/><path fill="url(#n)" d="M42.7 42.02h1211.5a3.66 3.66 0 013.66 3.66v758.59a3.66 3.66 0 01-3.66 3.66H42.7a3.66 3.66 0 01-3.66-3.66V45.68a3.66 3.66 0 013.66-3.66z"/><path fill="url(#b)" d="M40.66 800.55a9.4 9.4 0 00-1.62 2.55c-.02 3.53 1.02 5.07 5.97 4.83a11.92 11.92 0 001.66-1.37c5.37-5.36-2.95-.97-3.07-8.11a10.84 10.84 0 00-2.94 2.1z"/><path fill="url(#o)" d="M1256.04 800.55a9.37 9.37 0 011.83 2.3c.2 3.26-.9 5.58-6.18 5.08a11.93 11.93 0 01-1.66-1.37c-5.66-5.36 3-.55 3.06-8.11a10.84 10.84 0 012.95 2.1z"/><path fill="url(#p)" d="M2.29 0h1292.32a1.26 1.26 0 011.26 1.26V4.9a1.26 1.26 0 01-1.26 1.26H2.29A1.26 1.26 0 011.03 4.9V1.26A1.26 1.26 0 012.29 0z"/><path fill="url(#q)" d="M2.29 843.16h1292.32a1.26 1.26 0 011.26 1.26v3.64a1.26 1.26 0 01-1.26 1.26H2.29a1.26 1.26 0 01-1.26-1.26v-3.64a1.26 1.26 0 011.26-1.26z"/><path fill="url(#r)" d="M2.29 843.16h1292.32a1.26 1.26 0 011.26 1.26v3.64a1.26 1.26 0 01-1.26 1.26H2.29a1.26 1.26 0 01-1.26-1.26v-3.64a1.26 1.26 0 011.26-1.26z"/><path fill="url(#s)" d="M2.29 843.16h1292.32a1.26 1.26 0 011.26 1.26v3.64a1.26 1.26 0 01-1.26 1.26H2.29a1.26 1.26 0 01-1.26-1.26v-3.64a1.26 1.26 0 011.26-1.26z" opacity=".66"/><rect width="1209.64" height="757.77" x="43.64" y="45.86" fill="url(#t)" rx="4.31"/><path fill="url(#u)" d="M317.8 603.62L43.64 298.42V46.18h43.4zm661.33 0l274.15-305.2V46.18h-43.4z" opacity=".04"/><path fill="#fff" d="M400.63 803.73l-82.83-200.1 179.74 200.1zm495.66 0l82.84-200.1-179.75 200.1zM43.64 46.19v440.57L434.6 46.19zm1209.64 0v440.57L862.33 46.19z" opacity=".02"/><path fill="#e99d82" d="M894.3 387.19l-18.52-15.47 62.72-10.35.85-.14-.67-3.87-66.88 11.04-23.44-19.57 38.05-92.35 2.23-39.11 24.01-74.88-54.04-14.03-46.25 23.32-47.35 44.9-27.7-13.42-80.97-10.07-69.93 17.8-62.16-70.68-31.33 21.04-1.64 67.45 9.94 23.2-32.94 100.92 7.16 40.28-17.43 17.9.13 18.29 3.65 5.76-268.6-100.37-1.36 3.67 273.41 102.13 1.16 1.83-3.83 7.71-204.66-23.26h-.83l-.13 1.1-.34-.03-.25 2.22.34.03-.07.57 204.13 23.02-4.77 9.63-140.21 15.4.35 3.9 137.79-15.13-3.52 7.09.76 2.26-76.46 31.53 1.5 3.62 76.2-31.43 4.4 13.11-61.02 43.88 2.23 3.18 60.09-43.18 5.73 17.08 12.06 3.1 29.09 35.21 59.19 7.52 11.3-6.56.31 29.61 3.92-.02-.35-31.85 21.94-12.75.17.04 2.59 22.58 4.14-.67-2.52-21 36.3 7.87 20.15 75.16 5.2 124.67 71.9-14.61 136-87.75.31-.2 77.4-92.15 31.78-73.84zM646.11 523.54l-41.07-8.92-.08-.65 39.58-12.66 29.6 30.33 2.79-2.84-28.18-28.83 76.96-24.62 38.9 14.37-98.25 109.93zm-138.9 4.85l-27.87-33.75 11.44 2.16 2.07.4h.02l3.73-8.1 34.82 4.22 5.9 6.74h.01l37.72-4.17.35 32.25-12.66 7.3zm-39.87-37.77l-11.81-35.47 8.96-18.08 12.9 21.3.32-.2-.03.11 19.9 4.6 8.4 1.94-13.96 30.74-20.6-3.9zm511.2-29.94l-28.47 66.45-42-102.37-12.26-29.87zm-52.65 11.34l23.37 57-.44 1.03-75.67 90.08-79.76-179.97 99.24 8.28h.78l.5-4.05-100.83-8.35 37.7-56.89 38.36-6.33 21.96 18.33 2.38 1.89zM767.4 486.58l-35.65-13.16 24.1-7.7 33.27-25.88-20.99 45.92zm-261.62-133.1h38.24l13.31 10.6-58.15 25.23-18.43-14.58-.49-2.7 3.14-4.15zm133.44-109.2l20.02 50.67-24.12 19.86-.14-.01-.01.14-.1.08.08.1-6.86 65.45-54.04 9.24-.7-14.4 15.74-74.8zm21.16 51.62l60.26 2.18h.32l35.24-34.68.07.02 34.7-65.15 5.56 32.1 4.65 26.36 4.37 26.96.04.06-8.27 96.95-144.22 23.8-23.59-23.58 6.85-65.25zM620.4 432.28l-1.36 3.67 20.08 7.42-7.68 19.57-30.22-35.14 27.69-45.44 22.44 22.44-28.35 4.68.65 3.87 29.13-4.81-6.04 15.4-23.23-1.93h-.8l-.5 3.87 23.02 1.92-4.68 11.92zm-18.33 57.56l-2.48-20.73-3.78.67 2.53 22.08-19.4 2.14-.23-21.53h-3.91l.23 21.96-37.09 4.09-29.42-33.61 23.36-2.06.2-.02h.09l6.71-5.22-.02-.04 38.4-29.72 22.7.7 30.62 35.63-8.94 8.05L608 458.28l-2.78 2.76 13.49 13.82-13.1 11.78zm-63.12-73.21l3.49 6.07 20.77-9.62 10.65-21.77 53.45-9.13-27.36 44.92-22.91-.7h-.27l-38.6 29.88-16.77-31.82zm61.4 11.23h.02l-.02.03zm185.37 7.57l-124.37-28.3 167.47-27.66-37.41 56.43zm-127.98-27.71l117.65 26.86-127.12-10.52 6.2-15.8zm-85.11-17.2l-10.5 21.46-19.09 8.84-9.22-16.02-19.78 8.84 22.99 43.53-5.49 4.25-23.85 2.09-.42-3.88-7.38-69.04 58.74-25.47 13.3 10.59zm29.65 101.08l13.65-12.28 3.8-3.42 23.67 24.25-38.62 12.35zm20.38-18.32l9.7-8.72.02.01 8.12-20.7 83 30.66-75.89 24.27zm132.61-8.91l-25.72 8.23-87.62-32.37 4.82-12.3 140.27 11.7zm77.88-89.59l10.2-23.5 21.82 18.22zm-1.82.3l-32.6 5.38 8.22-96.18 73.41-26.1-35.86 86.55zM807.8 163.02l-17.06 32.46v.05l-.11.2v.1l-33.59 63.05 9.03-56.13zm-71.97 25.23l28.84 14.06-9.7 60.28-34.58 34.02-59.77-2.16-20.25-51.22 93.9-55.17zm-96.74 54.04l-51.2 57.5-.14.13-15.58 74.14-27.72-22.03h-39.09l-20.4 13.17 34.12-62.64 10.74-60.22 55.3-45.75 71.51-18.18 75.27 9.36zm-101.45-34.22l-14.18-27.63 1.33-51.77 57.56 65.43zm-31.18 24.06l30.88-22.37 46.12-14.4.4.47-55.38 45.73-10.6 59.69-24.67-28.5zm-13.78 42.24l24.63 28.43-34.98 64.18.04.02-2.43 3.13-6.54-36.65zm-29.77 118.88L479.88 376l18.43 14.58 7.86 72.7-19.6-4.46-7.05-1.62 12.93-43.89-18.8-10.18-4.43 14.9-6.31-10zm7.49 26.64l1.48-5.21 15.29 11.43-8.8 29.8-13.08-20.44 6.57-13.26zm108.56 75.57l19.55-2.17 2.34 20.42-.32-.06-21.24 12.24zm189.92-8.33l.42-.47 20.49-44.78-9.63 49.42zm-31.62 221.22l-65.16 13.16-5-119.05-.3-1.12 99.28-111.08 13.32 4.92-41.47 212.74zm43.5-212.66l10.94 4.04 1.35-3.67-11.53-4.26 10.1-51.79 80.17 180.63.32.71-132.5 85.48z" opacity=".16"/><path fill="#fff" d="M398.57 359.69a1.41 1.41 0 011.15-1.64 1.39 1.39 0 011.6 1.13v.04a1.39 1.39 0 01-1.12 1.6h-.26a1.41 1.41 0 01-1.37-1.13zm11.2-1.93a1.39 1.39 0 011.12-1.6h.01a1.39 1.39 0 011.61 1.12v.01a1.39 1.39 0 01-1.12 1.61h-.24a1.39 1.39 0 01-1.39-1.14zm11.18-1.9a1.39 1.39 0 011.13-1.6l.01-.01a1.39 1.39 0 011.61 1.12v.02a1.39 1.39 0 01-1.12 1.6l-.02.01h-.22a1.41 1.41 0 01-1.39-1.14zm11.2-1.9a1.39 1.39 0 011.11-1.6l.02-.01a1.41 1.41 0 011.64 1.14 1.41 1.41 0 01-1.15 1.61h-.24a1.43 1.43 0 01-1.39-1.14zm11.18-1.93a1.43 1.43 0 011.16-1.6 1.39 1.39 0 011.61 1.12v.01a1.41 1.41 0 01-1.14 1.64h-.24a1.41 1.41 0 01-1.4-1.17zm11.19-1.9a1.39 1.39 0 011.12-1.6h.02a1.39 1.39 0 011.6 1.12l.01.01a1.41 1.41 0 01-1.14 1.61h-.25a1.39 1.39 0 01-1.36-1.14zm11.19-1.9a1.39 1.39 0 011.12-1.6l.02-.01a1.39 1.39 0 011.6 1.12v.02a1.39 1.39 0 01-1.11 1.6l-.02.01h-.25a1.39 1.39 0 01-1.36-1.14zm11.19-1.92a1.39 1.39 0 011.12-1.61h.02a1.41 1.41 0 011.6 1.14 1.41 1.41 0 01-1.13 1.63h-.25a1.36 1.36 0 01-1.36-1.16zm11.18-1.9a1.39 1.39 0 011.13-1.61h.02a1.39 1.39 0 011.6 1.12v.01a1.39 1.39 0 01-1.12 1.61h-.26a1.36 1.36 0 01-1.37-1.14zm11.2-1.9a1.39 1.39 0 011.12-1.62h.01a1.39 1.39 0 011.61 1.12v.02a1.39 1.39 0 01-1.12 1.61h-.26a1.41 1.41 0 01-1.37-1.2zm11.18-1.93a1.37 1.37 0 011.1-1.59h.04a1.39 1.39 0 011.61 1.12v.02a1.39 1.39 0 01-1.12 1.6l-.02.01h-.22a1.41 1.41 0 01-1.39-1.16zm11.2-1.9a1.39 1.39 0 011.11-1.61h.02a1.39 1.39 0 011.61 1.12v.02a1.39 1.39 0 01-1.12 1.6h-.26a1.39 1.39 0 01-1.37-1.14zm11.18-1.9a1.39 1.39 0 011.12-1.62h.02a1.39 1.39 0 011.6 1.13l.01.01a1.39 1.39 0 01-1.12 1.61h-.24a1.41 1.41 0 01-1.39-1.14zm11.19-1.9a1.41 1.41 0 011.14-1.64 1.43 1.43 0 011.63 1.16 1.43 1.43 0 01-1.16 1.61h-.22a1.41 1.41 0 01-1.4-1.14zm11.19-1.93a1.41 1.41 0 011.14-1.61 1.41 1.41 0 011.63 1.14 1.41 1.41 0 01-1.16 1.6h-.23a1.39 1.39 0 01-1.38-1.13zm11.19-1.9a1.41 1.41 0 011.16-1.62 1.39 1.39 0 011.6 1.13l.01.01a1.43 1.43 0 01-1.16 1.62h-.23a1.41 1.41 0 01-1.38-1.15zm11.18-1.9a1.41 1.41 0 011.15-1.62 1.41 1.41 0 011.63 1.14 1.39 1.39 0 01-1.12 1.61h-.27a1.43 1.43 0 01-1.39-1.14zm11.2-1.93a1.39 1.39 0 011.12-1.61h.01a1.39 1.39 0 011.61 1.12v.02a1.39 1.39 0 01-1.12 1.6h-.26a1.37 1.37 0 01-1.37-1.13zm11.18-1.9a1.39 1.39 0 011.13-1.61h.01a1.39 1.39 0 011.61 1.12v.02a1.39 1.39 0 01-1.12 1.6h-.26a1.39 1.39 0 01-1.37-1.13zm11.2-1.9a1.39 1.39 0 011.12-1.61h.01a1.39 1.39 0 011.61 1.12v.01a1.39 1.39 0 01-1.12 1.61h-.26a1.39 1.39 0 01-1.37-1.14zm11.18-1.93a1.39 1.39 0 011.12-1.6l.02-.01a1.41 1.41 0 011.61 1.14 1.41 1.41 0 01-1.14 1.63h-.24a1.37 1.37 0 01-1.37-1.16zm-314.34 23.9a1.43 1.43 0 011.12-1.66 1.41 1.41 0 011.63 1.12 1.39 1.39 0 01-1.08 1.63h-.28a1.41 1.41 0 01-1.39-1.1zm11.2-2.24a1.41 1.41 0 011.09-1.66 1.41 1.41 0 011.65 1.1 1.41 1.41 0 01-1.1 1.66h-.28a1.41 1.41 0 01-1.41-1.05zm11.18-2.24a1.39 1.39 0 011.09-1.63 1.41 1.41 0 011.66 1.1 1.43 1.43 0 01-1.12 1.65h-.35a1.41 1.41 0 01-1.37-1.05zm11.19-2.24a1.39 1.39 0 011.09-1.63 1.36 1.36 0 011.63 1.05v.05a1.36 1.36 0 01-1.04 1.62l-.05.01h-.27a1.39 1.39 0 01-1.5-.98zm11.19-2.23a1.41 1.41 0 011.12-1.64 1.39 1.39 0 011.63 1.1 1.36 1.36 0 01-1.04 1.62l-.06.01h-.29a1.39 1.39 0 01-1.56-.94zm11.19-2.24a1.36 1.36 0 011.04-1.62l.05-.01a1.41 1.41 0 011.66 1.1 1.41 1.41 0 01-1.12 1.63h-.58a1.39 1.39 0 01-1.3-.9zm11.18-2.24a1.41 1.41 0 011.1-1.65 1.41 1.41 0 011.63 1.12 1.39 1.39 0 01-1.08 1.63h-.59a1.41 1.41 0 01-1.35-.85zm11.2-2.24a1.39 1.39 0 011.08-1.63h.01a1.39 1.39 0 011.63 1.09 1.41 1.41 0 01-1.1 1.66h-.57a1.39 1.39 0 01-1.4-.85zm11.18-2.23a1.41 1.41 0 011.1-1.64 1.41 1.41 0 011.65 1.1 1.41 1.41 0 01-1.1 1.66h-.6a1.41 1.41 0 01-1.45-.81zm11.2-2.24a1.36 1.36 0 011.04-1.62l.05-.01a1.41 1.41 0 011.65 1.1 1.41 1.41 0 01-1.12 1.63h-.26a1.41 1.41 0 01-1.82-.74zM419.9 323a1.36 1.36 0 011.04-1.62l.06-.01a1.36 1.36 0 011.62 1.04l.01.05a1.37 1.37 0 01-1.68 2.06h-.27a1.39 1.39 0 01-1.27-1.12zm11.19-2.24a1.43 1.43 0 011.12-1.65 1.43 1.43 0 011.63 1.12 1.39 1.39 0 01-1.7 2.05h-.29a1.39 1.39 0 01-1.32-1.07zm11.19-2.23a1.41 1.41 0 011.1-1.66 1.43 1.43 0 011.65 1.1 1.43 1.43 0 01-1.7 2.08h-.3a1.41 1.41 0 01-1.36-1.03zm11.19-2.24a1.41 1.41 0 011.1-1.66 1.36 1.36 0 011.62 1.05v.05a1.41 1.41 0 01-1.09 1.65h-.27a1.41 1.41 0 01-1.94-.43l-.07-.13zm11.19-2.24a1.39 1.39 0 011.08-1.63h.01a1.39 1.39 0 011.63 1.09 1.41 1.41 0 01-1.1 1.66h-.26a1.39 1.39 0 01-2.06-.56zM692.3 296.72l-32.18-1.55-24.8 20.41-1.45 10.92-2.9 29.1 15.3-13.86h31.33l27.7-27.7 15.67-16.11zm-32.27 39.27a33.57 33.57 0 01-4.47-17.07 29.72 29.72 0 015.5-17.17 33.57 33.57 0 015.15 17.46 26.38 26.38 0 01-6.18 16.78zm-157.56-22.24c0-7.46 1.9-10.83 3.94-13.54 3.78 5.64 3.76 16.33 3.76 16.33l7.79-14.1-17.3-18.97-10.16 30.41 7.05 26.72 7.7-14.39a49.23 49.23 0 01-2.78-12.46z" opacity=".26"/><path fill="url(#v)" d="M43.64 64.83h50.49V803.5H47.79a4.15 4.15 0 01-4.15-4.16V64.83z"/><path fill="#1d1d1d" d="M47.94 45.86h1201.04a4.3 4.3 0 014.3 4.3v14.67H43.64V50.16a4.3 4.3 0 014.3-4.3z"/><path d="M85.3 323.48a24 24 0 00-.2-3.8 3.75 3.75 0 00-3.54-3.54 23.53 23.53 0 00-3.8-.19H59.88a23.52 23.52 0 00-3.8.2 3.75 3.75 0 00-3.54 3.53 24 24 0 00-.2 3.8v12.3a23.93 23.93 0 00.2 3.79 3.75 3.75 0 003.54 3.53 24.02 24.02 0 003.8.2h17.88a24.03 24.03 0 003.8-.2 3.75 3.75 0 003.53-3.53 23.93 23.93 0 00.2-3.8z" opacity=".1"/><path fill="url(#w)" d="M53.04 335.07c0 5.78.64 6.86 6.84 6.83h17.88c6.2.03 6.84-1.05 6.84-6.83v-12.3c0-5.77-.64-6.82-6.84-6.82H59.88c-6.2 0-6.84 1.05-6.84 6.82z"/><path fill="#fff" d="M53.05 328.92v6.14c-.03 6.77 1.27 6.84 8.3 6.84H76.3c7.02 0 8.3-.11 8.3-6.84v-6.14z" opacity=".1"/><path d="M66.98 321.26c-.68 1.42-1.2 2.43-1.81 3.89q-.94 2.15-1.9 4.53l-.74 1.89c-.15.35-.32.76-.59 1.48-.44 1.19-.74 1.9-1.24 3.22-.18.46-.38.97-.7 1.84h3.73l1.58-4.38 3.5-.16 2.45.11 1.07.05 1.58 4.38h3.72c-.31-.87-.51-1.38-.7-1.84-.5-1.32-.8-2.03-1.24-3.22-.27-.72-.44-1.13-.59-1.48l-.73-1.9c-.64-1.58-1.14-2.67-1.76-4.1-.4-.95-.83-1.88-1.26-2.81l-.13-.31-.06-.1-.5-1.09zm1.84 3.48l.04.09v.02q.77 1.73 1.5 3.58l.59 1.47c.15.36.3.74.59 1.56l-.88.03h-.04l-1.8.07-2.72-.1c.58-1.64.6-1.5 1.18-3.03q.72-1.85 1.5-3.58v-.02l.04-.09z" opacity=".2"/><path fill="#fff9f2" d="M66.98 320.56c-.68 1.42-1.2 2.43-1.81 3.88q-.94 2.16-1.9 4.54l-.74 1.89c-.15.34-.32.76-.58 1.48-.45 1.18-.75 1.9-1.25 3.22-.18.46-.38.97-.7 1.84h3.73l1.57-4.38 3.52-.16 3.51.16 1.58 4.38h3.72c-.31-.87-.51-1.38-.7-1.84-.5-1.32-.8-2.04-1.24-3.22a27.2 27.2 0 00-.59-1.48l-.73-1.9c-.64-1.58-1.14-2.67-1.76-4.1q-.93-2.19-1.95-4.31h-3.62zm1.84 3.48l.04.09v.02q.77 1.73 1.5 3.58c.58 1.53.6 1.39 1.18 3.03l-2.72.1-2.72-.1c.58-1.64.6-1.5 1.18-3.03q.72-1.85 1.5-3.58v-.02l.04-.09z"/><path fill="#f34f17" d="M70.62 320.6l-1.8 3.42c.5 1.13 1.06 2.5 1.54 3.71.58 1.53.6 1.39 1.18 3.03l-.92.03.64 2.19 1.07.05 1.58 4.38h3.72c-.31-.87-.51-1.38-.7-1.84-.5-1.32-.8-2.04-1.24-3.22a27.2 27.2 0 00-.59-1.48l-.73-1.9c-.64-1.58-1.14-2.67-1.76-4.1q-.67-1.58-1.4-3.12z" opacity=".1"/><path d="M60.7 331.03h16.17a1.74 1.74 0 011.73 1.75 1.74 1.74 0 01-1.73 1.75H60.7a1.74 1.74 0 01-1.74-1.75 1.74 1.74 0 011.74-1.75z" opacity=".2"/><path fill="#fff" d="M60.7 330.33h16.17a1.74 1.74 0 011.73 1.75 1.74 1.74 0 01-1.73 1.75H60.7a1.74 1.74 0 01-1.74-1.75 1.74 1.74 0 011.74-1.75z"/><path fill="#f34f17" d="M60.96 331.73c-.3 0-.56.16-.56.35s.25.35.56.35h15.76c.29 0 .51-.14.51-.32v-.06c0-.18-.22-.32-.5-.32z" opacity=".2"/><path fill="none" stroke="#000" stroke-width=".7" d="M84.6 322.78c0-5.78-.64-6.86-6.84-6.83H59.88c-6.2-.03-6.84 1.05-6.84 6.83v12.3c0 5.77.64 6.82 6.84 6.82h17.88c6.2 0 6.84-1.05 6.84-6.83z" opacity=".4"/><g clip-path="url(#x)"><path fill="none" stroke="url(#c)" stroke-width="1.4" d="M84.25 323.13c0-6.2-.64-6.86-6.84-6.83H60.23c-6.2-.03-6.84.64-6.84 6.83v11.6c0 6.18.64 6.82 6.84 6.82H77.4c6.2 0 6.84-.64 6.84-6.83z" opacity=".7"/></g><path fill="none" stroke="#fee8bc" stroke-linecap="round" stroke-width="1.4" d="M63.9 317.7s0-4.9 4.92-4.9 4.9 4.9 4.9 4.9"/><circle cx="68.9" cy="376.93" r="16.13" opacity=".1"/><circle cx="68.9" cy="376.23" r="15.78" fill="url(#y)"/><path fill="#fff" d="M53.55 377.63a15.42 15.42 0 0030.71 0z" opacity=".1"/><path fill="#fff" d="M69.34 367.12a9.66 9.66 0 00-2.4.3 9.3 9.3 0 00-1.85.7l.57 1.58a7.38 7.38 0 013.36-.85 3.07 3.07 0 012.26.78 2.63 2.63 0 01.78 1.96 2.84 2.84 0 01-.34 1.38 5.3 5.3 0 01-.81 1.17q-.49.54-1.03 1.08a10.17 10.17 0 00-1 1.11h-.01a5.82 5.82 0 00-.78 1.26 3.78 3.78 0 00-.28 1.48 5.57 5.57 0 00.09.94h1.73l-.01-.1v-.3a3.7 3.7 0 01.36-1.67 6.15 6.15 0 01.89-1.36 11.85 11.85 0 011.15-1.2 11.5 11.5 0 001.1-1.17 6.75 6.75 0 00.85-1.28 3.55 3.55 0 00.33-1.56 4.88 4.88 0 00-.24-1.45 3.25 3.25 0 00-.76-1.38 4.12 4.12 0 00-1.52-1h-.01a6.04 6.04 0 00-2.43-.42zm-.43 15.82a1.48 1.48 0 00-1.18.48 1.7 1.7 0 000 2.28 1.7 1.7 0 002.36 0 1.7 1.7 0 000-2.28 1.48 1.48 0 00-1.18-.48z"/><circle cx="68.9" cy="376.23" r="15.78" fill="none" stroke="#000" stroke-linejoin="round" stroke-width=".7" opacity=".4"/><path fill="url(#z)" d="M68.9 360.8a15.43 15.43 0 00-15.42 15.43A15.43 15.43 0 1068.9 360.8zm0 .67a14.76 14.76 0 0114.76 14.76 14.76 14.76 0 01-14.76 14.76 14.76 14.76 0 01-14.75-14.76 14.76 14.76 0 0114.75-14.76z"/><path d="M61.72 169.9a34.03 34.03 0 00-4.48.2 5.65 5.65 0 00-2.88 1.08 3.94 3.94 0 00-1.28 2.39 19.17 19.17 0 00-.23 3.72v17.5a19.16 19.16 0 00.23 3.72 3.94 3.94 0 001.28 2.39 5.65 5.65 0 002.88 1.06 34.01 34.01 0 004.48.2h14.5a33.92 33.92 0 004.48-.2 5.62 5.62 0 002.88-1.07 3.95 3.95 0 001.28-2.38 19.56 19.56 0 00.24-3.72v-17.5a19.57 19.57 0 00-.24-3.72 3.95 3.95 0 00-1.28-2.4 5.62 5.62 0 00-2.88-1.06 33.94 33.94 0 00-4.47-.2z" opacity=".1"/><path fill="url(#A)" d="M61.5 169.56c-7.02 0-8.34.63-8.3 6.83v17.89c-.04 6.2 1.28 6.83 8.3 6.83h14.95c7.02 0 8.3-.63 8.3-6.83v-17.89c0-6.2-1.28-6.83-8.3-6.83z"/><path fill="#fff" d="M77.7 169.58l-24.5 23.21v1.49c0 6.2 1.28 6.83 8.3 6.83h14.95c7.02 0 8.34-.63 8.3-6.83v-17.89c.04-5.8-1.17-6.71-7.05-6.81z" opacity=".05"/><path d="M61.95 176.22a6.63 6.63 0 00-3.08.4 1.97 1.97 0 00-.88 1.05 4.84 4.84 0 00-.24 1.7v13.33a4.84 4.84 0 00.24 1.7 1.98 1.98 0 00.88 1.05 4.31 4.31 0 002.04.4h15.08a6.62 6.62 0 003.09-.4 1.98 1.98 0 00.88-1.05 4.84 4.84 0 00.23-1.7v-11.22a4.84 4.84 0 00-.23-1.7 2.03 2.03 0 00-.6-.86 1.82 1.82 0 00-.28-.2 2.67 2.67 0 00-.63-.24 11.05 11.05 0 00-2.46-.16h-7.08l-2.12-2.1h-4.84z" opacity=".3"/><path fill="#e3dfd5" d="M61.95 175.52a6.62 6.62 0 00-3.08.4 1.98 1.98 0 00-.88 1.05 4.83 4.83 0 00-.24 1.7v5.96H80.2v-3.85a4.84 4.84 0 00-.23-1.7 1.98 1.98 0 00-.88-1.05 6.63 6.63 0 00-3.09-.4h-7.08l-2.12-2.11h-4.84z"/><path fill="#faf8f6" d="M76 177.62a6.63 6.63 0 013.08.4 1.98 1.98 0 01.88 1.06 4.84 4.84 0 01.23 1.7V192a4.83 4.83 0 01-.23 1.7 1.98 1.98 0 01-.88 1.05 6.63 6.63 0 01-3.09.4H60.91a4.31 4.31 0 01-2.04-.4 1.98 1.98 0 01-.88-1.05 4.83 4.83 0 01-.24-1.7v-9.12a4.83 4.83 0 01.24-1.7 1.98 1.98 0 01.88-1.05 6.62 6.62 0 013.08-.4h4.92l2.13-2.1h7z"/><path fill="#fff" d="M61.95 175.52a6.63 6.63 0 00-3.08.4 1.97 1.97 0 00-.88 1.05 4.84 4.84 0 00-.24 1.7v.7a4.84 4.84 0 01.24-1.7 1.97 1.97 0 01.88-1.04 6.63 6.63 0 013.08-.41h4.84l1.81 1.8.4-.4h-.09l-2.12-2.1z" opacity=".4"/><path fill="#fdfdfd" d="M69 177.62l-2.13 2.1h-4.92a6.63 6.63 0 00-3.08.41 1.98 1.98 0 00-.88 1.05 4.84 4.84 0 00-.24 1.7v.7a4.84 4.84 0 01.24-1.7 1.98 1.98 0 01.88-1.05 6.63 6.63 0 013.08-.4h4.92l2.13-2.1h7a6.62 6.62 0 013.08.4 1.97 1.97 0 01.88 1.05 4.84 4.84 0 01.23 1.7v-.7a4.84 4.84 0 00-.23-1.7 1.97 1.97 0 00-.88-1.05 6.62 6.62 0 00-3.09-.4z"/><path fill="none" stroke="#000" stroke-width=".7" d="M61.5 169.56c-7.02 0-8.34.63-8.3 6.83v17.89c-.04 6.2 1.28 6.83 8.3 6.83h14.95c7.02 0 8.3-.63 8.3-6.83v-17.89c0-6.2-1.28-6.83-8.3-6.83z" opacity=".4"/><path fill="url(#B)" d="M61.5 169.9c-3.5 0-5.52.2-6.58 1.03a3.13 3.13 0 00-1.09 1.86 15.55 15.55 0 00-.28 3.6v17.89a15.55 15.55 0 00.28 3.6 3.13 3.13 0 001.09 1.86c1.06.83 3.08 1.02 6.58 1.02h14.95c3.5 0 5.51-.2 6.57-1.02a3.15 3.15 0 001.08-1.86 15.81 15.81 0 00.3-3.6v-17.89a15.81 15.81 0 00-.3-3.6 3.15 3.15 0 00-1.08-1.86c-1.06-.83-3.07-1.02-6.57-1.02zm1.68.78c4.87 0 9.76 0 14.62.04 1.5.05 3.13-.1 4.5.65a3.15 3.15 0 011.25 2.5c.12 1.54.06 3.11.1 4.68.01 5.94.05 11.9-.06 17.84-.11 1.04-.27 2.32-1.26 2.9a8.42 8.42 0 01-3.68.67c-6.66.05-13.34.06-20 0a6.78 6.78 0 01-3.25-.8 4.08 4.08 0 01-1.06-2.93c-.09-6.31-.06-12.63-.03-18.94.07-1.67-.18-3.44.49-5.02.47-1.06 1.73-1.3 2.76-1.45 1.87-.22 3.75-.1 5.62-.14z"/><path d="M62.85 217.25a23.99 23.99 0 00-3.8.2 3.75 3.75 0 00-3.53 3.54 23.54 23.54 0 00-.2 3.8v17.88a23.53 23.53 0 00.2 3.8 3.75 3.75 0 003.53 3.53 24 24 0 003.8.2h12.3a23.93 23.93 0 003.8-.2 3.75 3.75 0 003.52-3.53 24.01 24.01 0 00.2-3.8V224.8a24.02 24.02 0 00-.2-3.8 3.75 3.75 0 00-3.53-3.54 23.93 23.93 0 00-3.8-.2z" opacity=".1"/><path fill="#e3dfd5" d="M62.85 217.25c-5.77 0-6.86.64-6.82 6.84v17.88c-.03 6.2 1.05 6.84 6.82 6.84h12.3c5.77 0 6.82-.64 6.82-6.84v-17.88c0-6.2-1.05-6.84-6.82-6.84z"/><path fill="#4d4d4d" d="M68.95 222.18a11.22 11.22 0 0111.22 11.22 11.22 11.22 0 01-11.22 11.22 11.22 11.22 0 01-11.22-11.22 11.22 11.22 0 0111.22-11.22z"/><circle cx="68.95" cy="233.4" r="9.82" fill="#191622"/><circle cx="68.95" cy="233.4" r="8.41" fill="#4d4d4d"/><circle cx="68.94" cy="233.44" r="7.72" fill="url(#C)" transform="rotate(-15 68.94 233.44)"/><circle cx="68.94" cy="233.44" r="3.51"/><circle cx="68.94" cy="233.44" r="2.81" fill="url(#D)" transform="rotate(-15 68.94 233.44)"/><path fill="none" stroke="#000" stroke-width=".7" d="M62.85 217.25c-5.77 0-6.86.64-6.82 6.84v17.88c-.03 6.2 1.05 6.84 6.82 6.84h12.3c5.77 0 6.82-.64 6.82-6.84v-17.88c0-6.2-1.05-6.84-6.82-6.84z" opacity=".4"/><g clip-path="url(#E)"><path fill="none" stroke="url(#F)" stroke-width="1.4" d="M63.2 217.6c-6.19 0-6.85.64-6.82 6.84v17.18c-.03 6.2.63 6.84 6.82 6.84h11.6c6.19 0 6.82-.64 6.82-6.84v-17.18c0-6.2-.63-6.84-6.82-6.84z" opacity=".7"/></g><path d="M75.6 265.15a1.74 1.74 0 00-.25.02l-.06.01-.05.02a1.67 1.67 0 00-1.1 1.26 1.69 1.69 0 00.36 1.43l-.25-.25h-.01c-.2-.2-.4-.37-.59-.54v-.01l-.58-.47a8 8 0 00-.58-.42 6.26 6.26 0 00-.61-.34 5.63 5.63 0 00-.65-.28 5.77 5.77 0 00-.7-.19h-.01a6.75 6.75 0 00-.75-.11 8.88 8.88 0 00-.83-.04h-5.8c-2.91 0-4.81.1-6.07 1.29a4.42 4.42 0 00-1.2 2.43 15.85 15.85 0 00-.25 3.47v17.88a19.49 19.49 0 00.25 3.82 4.42 4.42 0 001.2 2.43 3.42 3.42 0 00.51.4h.01a3.93 3.93 0 00.57.3h.01a5.16 5.16 0 00.64.23l.7.16h.01l.78.1.85.06H61.22c.59.03 1.23.04 1.93.04H75.1c2.9 0 4.43-.1 5.68-1.26a4.37 4.37 0 001.21-2.4 19.01 19.01 0 00.28-3.75v-13.26a4.7 4.7 0 00-1.62-3.19c-.27-.27-.54-.51-.78-.74l-.2-.18h.02-.01l-.04-.04a1.72 1.72 0 002.74-1.22v-1.51c0-1.15.03-1.66-.02-2.37a3.13 3.13 0 00-.51-1.79 2.42 2.42 0 00-1.6-.83 13.34 13.34 0 00-2.13-.14h-2.35l-.16-.02zm-17.23 30.77h-.04zm-.02 1.4h.05-.05z" opacity=".1"/><path fill="url(#G)" d="M66.6 266.02c-2.4.04-4.8-.05-7.2.12a2.58 2.58 0 00-2.22 1.57c-.62 1.55-.35 3.18-.43 4.8 0 6.65-.06 13.28.04 19.92.04 1.23.42 2.81 1.76 3.24 1.71.55 3.54.29 5.3.38 4.65 0 9.31.06 13.95-.08 1.1-.13 2.48-.38 2.86-1.59a14.23 14.23 0 00.52-4.53c.09-4.45.02-8.93.01-13.39-.52-1.36-1.73-2.21-2.67-3.25-2.14-2.08-4.16-4.3-6.44-6.23a4.15 4.15 0 00-2.86-.94c-.87-.03-1.74-.02-2.61-.02z"/><path fill="url(#H)" d="M75.6 265.15a.93.93 0 00-.53 1.7l5.27 5.27a1.05 1.05 0 001.68-.69v-1.48c.02-4.6.24-4.69-3.92-4.78h-2.34a1.03 1.03 0 00-.16-.02zm-12.81.1c-5.77 0-6.85.63-6.82 6.83v17.88c-.03 6.2 1.05 6.84 6.82 6.84h12.3c5.73 0 6.8-.63 6.82-6.72v-13.25c0-1.37-1.2-2.53-2.18-3.4v-.01l-5.98-5.98c-1.57-1.48-2.66-2.2-4.81-2.2zm7.9 2.45l8.77 8.76v15.78a3.91 3.91 0 01-.47 1.64 3.91 3.91 0 01-1.64.46H60.52a3.91 3.91 0 01-1.63-.46 3.91 3.91 0 01-.47-1.64V269.8a3.9 3.9 0 01.47-1.64 3.91 3.91 0 011.63-.46z"/><path fill="#fff" d="M55.97 281.02v8.94c-.03 6.2 1.05 6.84 6.82 6.84h12.3c5.73 0 6.8-.63 6.82-6.72v-9.06z" opacity=".1"/><path fill="url(#I)" d="M60.52 276.81v1.4h5.61v-1.4zm7.02 0v7.02h9.81v-7.02zm-7.02 2.8v1.41h5.61v-1.4zm0 2.81v1.4h5.61v-1.4zm0 2.8v1.41h16.83v-1.4zm0 2.81v1.4h16.83v-1.4zm0 2.8v1.41h12.63v-1.4z"/><path fill="url(#J)" d="M68.24 277.51h8.41v5.61h-8.41z"/><path fill="url(#K)" d="M73.15 281.72l-2.46-3.15-2.45 3.85v.7h8.41v-.7l-1.75-2.1z"/><path fill="#e9b913" d="M76.65 279.62a2.1 2.1 0 01-2.1-2.1h2.1z"/><path fill="#fff" d="M56.32 281.02v8.6c-.03 6.2.63 6.83 6.82 6.83h11.6c6.19 0 6.82-.64 6.82-6.84v-8.59z" opacity=".1"/><path fill="none" stroke="#000" stroke-width=".7" d="M62.8 265.24c-2.9 0-4.6.16-5.6 1.1a2.8 2.8 0 00-.5.68c-.04.06-.08.1-.1.17v0a4.23 4.23 0 00-.23.55 6.19 6.19 0 00-.16.65 19.18 19.18 0 00-.23 2.59q-.02.52-.01 1.1v18.98c.02.7.06 1.3.12 1.84q.05.4.12.75a5.09 5.09 0 00.38 1.2 2.86 2.86 0 00.61.86 2.7 2.7 0 00.4.31 3.77 3.77 0 001.04.44h0a16.75 16.75 0 004.15.34h12.3a38.74 38.74 0 002.62-.1h.14a8.33 8.33 0 001.36-.24 4.5 4.5 0 00.55-.18 3.26 3.26 0 00.48-.25 2.7 2.7 0 00.4-.3 2.65 2.65 0 00.3-.35l.04-.04h0a3.1 3.1 0 00.28-.46 4.15 4.15 0 00.22-.55 6.1 6.1 0 00.17-.63 9.33 9.33 0 00.19-1.5l.01-.08v-.02c.04-.6.06-1.26.06-2.02v-13.25c0-1.37-1.2-2.53-2.17-3.4l-.01-.01-5.97-5.98c-1.58-1.48-2.67-2.2-4.82-2.2zM75.6 265.15a.93.93 0 00-.53 1.7l5.27 5.27a1.05 1.05 0 001.68-.69v-1.48c.02-4.6.24-4.69-3.92-4.78h-2.34a1.04 1.04 0 00-.16-.01z" opacity=".4"/><g clip-path="url(#L)"><path fill="url(#M)" d="M62.8 265.24c-5.78 0-6.86.64-6.83 6.84v17.88c-.03 6.2 1.05 6.84 6.82 6.84h12.3c5.73 0 6.8-.63 6.82-6.72v-12.55a3.63 3.63 0 00-1.05-2.29v14.37a23.36 23.36 0 01-.18 3.57 2.4 2.4 0 01-2.38 2.38 23.26 23.26 0 01-3.56.19h-11.6a23.33 23.33 0 01-3.57-.19 2.96 2.96 0 01-1.68-.7 2.92 2.92 0 01-.7-1.68 22.87 22.87 0 01-.17-3.57v-17.18a22.87 22.87 0 01.17-3.57 2.92 2.92 0 01.7-1.68 2.96 2.96 0 011.69-.7 23.31 23.31 0 013.56-.19h8.6a7.73 7.73 0 00-4.15-1.05z" opacity=".3"/></g><path fill="#fff" d="M75.5 265.5l-.1.1a.8.8 0 00-.22.77.9.9 0 00.08.1.64.64 0 01.14-.18l.1-.08 1.9.02a20.3 20.3 0 013 .13c.96.16 1.17.46 1.25 1.73a58.45 58.45 0 000-.7c-.08-1.27-.3-1.58-1.25-1.74a20.3 20.3 0 00-3-.13z" opacity=".3"/><path fill="url(#N)" d="M77.95 126.02a14.03 14.03 0 00-5.95-1.87 15.9 15.9 0 00-3.97.04h-.52l.06-.06a.8.8 0 00-.18.06c-.38 0-.75.02-1.12.04a6.35 6.35 0 01.93-.85 3.23 3.23 0 00-1.4.9q-.64.05-1.27.15a6.76 6.76 0 011.95-1.83s-1.21-.25-3.1 1.65c-.16.16-.3.33-.45.5-5.5 1.33-9.45 4.89-9.45 9.07a8.5 8.5 0 00.02 2.62c-.1 1.44.12 5.36.12 5.36s1.5 8.07 7.23 9.47a21.92 21.92 0 01-1.77-4.46 6.67 6.67 0 003.92 2.18 30.27 30.27 0 00-1.75-2.65l13.03 4.39c6.81-2.93 6.02-2.66 7.48-4.25 3.23-3.49 3.68-5.47 2.87-11.31-.55-3.95-3.47-7.86-6.68-9.15z"/><path fill="#fbfbfb" d="M55.09 129.7l-1.95 11.07 1.08 3.34 21.54 7.16 3.99-16.98z"/><path fill="#999" d="M55.15 130.08c.1.23.07.29 0 .29a.38.38 0 01-.1-.02.37.37 0 00-.09-.02c-.06 0-.02.08.31.5.48.61 7.49 11.2 7.87 11.2 3.27-1.17 17.14-5.93 17.14-5.93l-1.42-2.07z"/><path fill="#f8f8f8" d="M55.35 129.82a2.89 2.89 0 00.59 1.14c.48.6 6.95 10.4 7.27 10.31 4.24-1.12 19.61-7.1 19.61-7.1z"/><path fill="#999" d="M74.99 151.02l-20.47-6.8.07.47 20.62 6.86z"/><path fill="url(#O)" d="M59.9 129.36s-7.44 2.19-4.03 9.78a13.16 13.16 0 01-2.5-3.27c-.04-.08 1.56-5.76 1.56-5.76z"/><path fill="url(#P)" d="M55.87 139.14a2.74 2.74 0 01-2.02-1.2c-.42 7.04 2.45 11.14 7 13.33-1.49-.17-8.89-4.07-8.89-13.46 0-8 6.34-15.13 16.26-15.46.06.45-4.92 1.57-5.08 2.1a10.01 10.01 0 01-1.3 2.43c-.64.98.91 1.8-.23 2.07-1.71.4-4 .17-5.69 2.37a6.47 6.47 0 00-.05 7.82z"/><path fill="url(#Q)" d="M70.82 122.61c-6.42-.5-9.73 2.08-11.85 5.07a3.71 3.71 0 00-.42 3.29 2.24 2.24 0 01.09 1.29 4.24 4.24 0 01-.16.73 2.33 2.33 0 00-.36.92 2.02 2.02 0 00.47 1.75 5.96 5.96 0 012.16-1.58c1.18-.46 1.95-1.16 3.43-1.92 2-1.02 4.37.53 8.84-.93 1.38-.45 4.54-5.14 5.3-5.32-2.1-2.31-5.66-3.16-7.5-3.3z"/><path fill="#3f6499" d="M66.58 121.14a4 4 0 00-1.65 1.56 10.13 10.13 0 012.14-.94s-.3.15-.68.95a7.26 7.26 0 011.08-.35 3.34 3.34 0 00-.1.88 5.95 5.95 0 00-4.03.7c-.36-1.88 3.24-2.8 3.24-2.8z"/><path fill="url(#R)" d="M71.14 122.33a15.74 15.74 0 00-5.01.06 3.4 3.4 0 01.95-.63 5.52 5.52 0 00-2.2.94 9.86 9.86 0 00-1.01.39 6.44 6.44 0 01.65-.75 6.33 6.33 0 012.06-1.2c-1.05-.08-4.57.83-6.7 5.12-.34.42-.67.86-.97 1.3a3.83 3.83 0 00-.44 3.4 5.37 5.37 0 01.02 1.93 2.64 2.64 0 00-.4 1.16 1.8 1.8 0 00.5 1.54 4.3 4.3 0 012.01-1.78c1.42-.59 2.01-1.2 3.54-1.98 2.07-1.06 9.34 2.4 13.96.88 1.42-.46-.54-6.51.23-6.7a12.38 12.38 0 00-7.19-3.68z"/><path fill="url(#S)" d="M85.56 135.35c-1.14-5.95-6.62-11.36-11.02-11.66-1.96-.14-1.36.87-2.58 1.25-5.27 1.64-5.35 2.6-5.35 2.6 11.18.53 11.34 11.57 8.35 14.37.84-.2 1.76-1.23 2.6-2.85-.1.68-.2 1.51-.32 2.44-.38 2.83.12 8.75-8.03 12.72 0 0 4.46-.37 6.67-2.86a7.38 7.38 0 01-3.37 3.19 16.43 16.43 0 009.62-5.47 15.36 15.36 0 003.43-13.73z"/><path fill="url(#T)" d="M74.67 146.21s3.63-1.02 4.8-2.98c-.14 2.29-2.22 4.64-2.22 4.64s3.03-.62 4.33-2.75c-.17 1.92-2.5 4.53-2.5 4.53 2.38-.43 8.38-4.22 6.48-14.3-1.12-5.95-6.62-11.36-11.02-11.66-1.96-.13-1.36.87-2.58 1.25-5.27 1.65-5.35 2.6-5.35 2.6 11.18.53 14.15 6.38 8.35 14.2.84-.19 1.18-.65 1.81-1.4a8.67 8.67 0 01-2.1 5.87z"/><path fill="url(#U)" d="M60.3 132.91a1.77 1.77 0 01-1.12.34.9.9 0 01-.65-.68 3.2 3.2 0 01-.04.32 2.64 2.64 0 00-.4 1.16 1.97 1.97 0 00.5 1.6 4.86 4.86 0 012-1.84c-.38-.14-.29-.9-.29-.9z"/><path fill="url(#V)" d="M74.46 123.67a2.7 2.7 0 011.18.21c.41.19 1.11.51.55.65a1.18 1.18 0 01-1.17-.32c-.28-.24-.94-.44-.56-.54z" opacity=".12"/><path fill="url(#W)" d="M60.36 132.82s3.57-5.87 6.79-7.45c.3-.15-4.46 1.26-6.38 3.38-1.13 1.25-.53 3.71-.4 4.07z"/><path fill="#f2f2f2" d="M60.36 132.82h.01c.93-.57 2.5-.9 3.01-1.93a18.39 18.39 0 013.77-5.52c-3.22 1.58-6.79 7.45-6.79 7.45z" opacity=".1"/><path fill="#2f4282" d="M60.7 131.75a1.5 1.5 0 01.29-1.88 1.15 1.15 0 011.3-.13c.37.36.14 1.12-.18 1.55a1.4 1.4 0 01-1.4.46z"/><path fill="url(#X)" d="M61.07 131.69a1.03 1.03 0 01.2-1.3.8.8 0 01.9-.1c.25.26.1.78-.13 1.08a.97.97 0 01-.97.32z"/><path d="M61.96 130.96a.5.5 0 11-.48-.5.5.5 0 01.48.5z"/><circle cx="61.15" cy="130.81" r=".16" fill="#fff"/><path fill="url(#Y)" d="M83.4 130.08c-2.43-3.7-4.37-4.65-4.37-4.65s.1 2.7 1.45 4c.15.15-1.62-1.15-1.62-1.15a3.54 3.54 0 00.49 2.68 2.54 2.54 0 00-.42-.46 5 5 0 00-2.13 1.8 9.15 9.15 0 00-.43-.75 10.86 10.86 0 00-1 4.89c.24 4.26-.8 5.83-.8 5.83a7.94 7.94 0 004.1-4.47 4.74 4.74 0 01-.02 2.98 7.8 7.8 0 002.7-4.7 5.27 5.27 0 01.38 2.56 8.4 8.4 0 001.46-4.14c.66.46.72 2.26.72 2.26s2.1-2.7-.5-6.68z"/><path fill="url(#Z)" d="M81.03 127.49a7.24 7.24 0 00-2.75-2.56 11.63 11.63 0 00-4.04-1.74s-2.28.42-1.89 1.05a.52.52 0 00.14.13c-2-.92-3.13 1.19-3.13 1.19a2.76 2.76 0 00-2.93 2c-.05.15.5.06.8.12a16.02 16.02 0 013.94 1.54 8.06 8.06 0 013.23 3.52 14.09 14.09 0 01.98 3.76s1.82-2.5 1.39-3.8c.72.46.86 2.06.86 2.06a5.64 5.64 0 00.86-3.57 2.25 2.25 0 01.97 1.74 4.69 4.69 0 00.52-3.5 3.26 3.26 0 011.14 1.72 5.05 5.05 0 00-.09-3.66z"/><path fill="url(#aa)" d="M83.41 84.25a8.94 8.94 0 00-3.2-4.03 16.55 16.55 0 011.62 4.83v.03c-1.8-4.49-4.85-6.3-7.35-10.24a19.35 19.35 0 01-.55-.94 2.9 2.9 0 01-.24-.63.04.04 0 00-.03-.04.06.06 0 00-.03 0h-.02a11.63 11.63 0 00-5.48 8.85 7.97 7.97 0 00-4.38 1.69 4.76 4.76 0 00-.41-.31 7.38 7.38 0 01-.05-3.9 11.8 11.8 0 00-3.83 2.96h-.01c-.63-.8-.59-3.43-.55-3.99a2.85 2.85 0 00-.53.29 11.6 11.6 0 00-1.56 1.33 13.92 13.92 0 00-1.49 1.79 13.45 13.45 0 00-2.14 4.82l-.02.1c-.03.15-.14.85-.15 1a.34.34 0 010 .04 15.17 15.17 0 00-.27 2.2v.08a15.93 15.93 0 0031.63 2.69l.07-.62a16.38 16.38 0 00-1.03-8zM65.05 96.72l.22.1.01.02-.23-.12zm16.78-11.63v-.02.02z"/><path fill="url(#ab)" d="M83.41 84.25a8.94 8.94 0 00-3.2-4.03 16.55 16.55 0 011.62 4.83v.04a14.43 14.43 0 01-.5 10.75 13.7 13.7 0 01-13.16 7.73A16.04 16.04 0 0152.9 90.55 6.87 6.87 0 0153 87.9a11.87 11.87 0 00-.26 2.2v.08a15.93 15.93 0 0031.63 2.69l.07-.62a16.38 16.38 0 00-1.03-8z"/><path fill="url(#ac)" d="M83.41 84.25a8.94 8.94 0 00-3.2-4.03 16.55 16.55 0 011.62 4.83v.04a14.43 14.43 0 01-.5 10.75 13.7 13.7 0 01-13.16 7.73A16.04 16.04 0 0152.9 90.55 6.87 6.87 0 0153 87.9a11.87 11.87 0 00-.26 2.2v.08a15.93 15.93 0 0031.63 2.69l.07-.62a16.38 16.38 0 00-1.03-8z"/><path fill="url(#ad)" d="M75.67 86.12l.1.08a8.67 8.67 0 00-1.48-1.93c-4.95-4.96-1.3-10.74-.68-11.03v-.01a11.63 11.63 0 00-5.48 8.85c.19-.02.37-.03.56-.03a8.04 8.04 0 016.98 4.07z"/><path fill="url(#ae)" d="M68.7 87.11a3.84 3.84 0 01-1.92 1.77c-4.52 0-5.26 2.74-5.26 2.74a6.73 6.73 0 003.75 5.2l.27.14.47.19a7.09 7.09 0 002.07.4 6.6 6.6 0 003.75-12.36 5.5 5.5 0 013.84.93 8.04 8.04 0 00-6.98-4.07c-.19 0-.37.01-.56.03a7.97 7.97 0 00-4.38 1.69c.24.2.51.48 1.1 1.05 1.07 1.06 3.84 2.16 3.85 2.3z"/><path fill="url(#af)" d="M68.7 87.11a3.84 3.84 0 01-1.92 1.77c-4.52 0-5.26 2.74-5.26 2.74a6.73 6.73 0 003.75 5.2l.27.14.47.19a7.09 7.09 0 002.07.4 6.6 6.6 0 003.75-12.36 5.5 5.5 0 013.84.93 8.04 8.04 0 00-6.98-4.07c-.19 0-.37.01-.56.03a7.97 7.97 0 00-4.38 1.69c.24.2.51.48 1.1 1.05 1.07 1.06 3.84 2.16 3.85 2.3z"/><path fill="url(#ag)" d="M63 83.24l.33.21a7.39 7.39 0 01-.04-3.89 11.8 11.8 0 00-3.84 2.96 7.85 7.85 0 013.55.72z"/><path fill="url(#ah)" d="M52.89 90.55a16.04 16.04 0 0015.29 13.02 13.7 13.7 0 0013.16-7.73 14.43 14.43 0 00.5-10.75v-.03.02c.56 3.7-1.32 7.27-4.25 9.68v.02c-5.72 4.66-11.2 2.81-12.3 2.06l-.23-.12a7.24 7.24 0 01-4.42-7.23 4.09 4.09 0 01-3.77-2.37 6 6 0 015.85-.24 7.93 7.93 0 005.99.24c-.01-.13-2.78-1.24-3.86-2.3-.58-.57-.86-.84-1.1-1.05a4.76 4.76 0 00-.4-.31l-.34-.22a7.84 7.84 0 00-3.55-.71c-.64-.8-.6-3.44-.56-4a2.85 2.85 0 00-.53.3 11.6 11.6 0 00-1.55 1.32 13.92 13.92 0 00-1.5 1.79 13.45 13.45 0 00-2.14 4.82 11.92 11.92 0 00-.3 3.8z"/><path fill="url(#ai)" d="M74.29 84.27a8.67 8.67 0 011.48 1.93c.09.06.17.13.24.2 3.61 3.32 1.72 8.03 1.58 8.36 2.93-2.41 4.8-5.99 4.24-9.68-1.8-4.49-4.85-6.3-7.35-10.24a19.35 19.35 0 01-.55-.94 2.9 2.9 0 01-.24-.63.04.04 0 00-.03-.04.06.06 0 00-.03 0h-.02c-.62.3-4.27 6.09.68 11.04z"/><path fill="url(#aj)" d="M76 86.4a3.18 3.18 0 00-.23-.2l-.1-.08a5.5 5.5 0 00-3.84-.93 6.6 6.6 0 01-3.75 12.36 7.09 7.09 0 01-2.07-.4q-.24-.09-.47-.2a5.78 5.78 0 01-.27-.12h.01c1.1.76 6.58 2.6 12.3-2.05v-.02c.15-.33 2.04-5.04-1.57-8.37z"/><path fill="url(#ak)" d="M61.52 91.62s.74-2.74 5.26-2.74a3.84 3.84 0 001.92-1.77 7.93 7.93 0 01-5.98-.23 6 6 0 00-5.86.23 4.09 4.09 0 003.78 2.38 7.24 7.24 0 004.41 7.23l.22.1a6.72 6.72 0 01-3.75-5.2z"/><path fill="url(#al)" d="M83.41 84.25a8.94 8.94 0 00-3.2-4.03 16.55 16.55 0 011.62 4.83v.03c-1.8-4.49-4.85-6.3-7.35-10.24a19.35 19.35 0 01-.55-.94 2.9 2.9 0 01-.24-.63.04.04 0 00-.03-.04.06.06 0 00-.03 0h-.02a11.63 11.63 0 00-5.48 8.85c.19-.02.37-.03.56-.03a8.04 8.04 0 016.98 4.07 5.5 5.5 0 00-3.84-.93 6.6 6.6 0 01-3.75 12.36 7.09 7.09 0 01-2.07-.4q-.24-.09-.47-.2a5.78 5.78 0 01-.27-.12h.01l-.23-.11.22.1a6.72 6.72 0 01-3.75-5.2s.74-2.74 5.26-2.74a3.84 3.84 0 001.92-1.77c0-.13-2.78-1.23-3.86-2.3-.58-.56-.85-.84-1.1-1.04a4.76 4.76 0 00-.4-.32 7.38 7.38 0 01-.05-3.89 11.8 11.8 0 00-3.83 2.96h-.01c-.63-.8-.59-3.43-.55-3.99a2.85 2.85 0 00-.53.29 11.6 11.6 0 00-1.56 1.33 13.92 13.92 0 00-1.49 1.79 13.45 13.45 0 00-2.14 4.82l-.02.1-.18 1.01a18.5 18.5 0 00-.24 2.22v.09a15.93 15.93 0 0031.63 2.69l.07-.62a16.38 16.38 0 00-1.03-8zm-1.58.82v.02z"/><path fill="#fff" d="M122.83 50.3a4.42 4.42 0 00-2.05.26 1.32 1.32 0 00-.6.7 3.23 3.23 0 00-.15 1.13V58a3.23 3.23 0 00.16 1.14 1.32 1.32 0 00.59.7 4.42 4.42 0 002.05.27h5.62a4.42 4.42 0 002.06-.27 1.32 1.32 0 00.59-.7 3.23 3.23 0 00.15-1.14v-4.2a3.23 3.23 0 00-.15-1.14.99.99 0 00-.05-.1l-.02-.04a1.29 1.29 0 00-.52-.56 4.42 4.42 0 00-2.06-.27h-2.13l-1.42-1.4h-2.07zm.01.7h1.78l1.23 1.22-.88.88h-2.14a4.42 4.42 0 00-2.05.27c-.02 0-.03.02-.05.03v-1a2.67 2.67 0 01.12-.9.54.54 0 01.27-.32 4.76 4.76 0 011.72-.19zm3.83 1.4h1.77a4.76 4.76 0 011.73.18.54.54 0 01.27.33 2.66 2.66 0 01.11.89V58a2.67 2.67 0 01-.11.9.54.54 0 01-.27.32 4.75 4.75 0 01-1.72.19h-5.61a4.75 4.75 0 01-1.72-.19.54.54 0 01-.27-.33 2.67 2.67 0 01-.11-.89v-2.8a2.66 2.66 0 01.1-.89.54.54 0 01.28-.33 4.76 4.76 0 011.72-.18h2.41zM1203.65 50.54l-2.46 2.57h-1.84a3.93 3.93 0 000 4.2h1.84l2.46 2.58z"/><path fill="#fff" d="M1205.42 53.06l-.5.5.25.24a2.1 2.1 0 010 2.97l-.25.25.5.5.25-.25a2.8 2.8 0 000-3.97z" opacity=".5"/><path fill="#fff" d="M1206.9 51.57l-.49.5.25.24a4.2 4.2 0 010 5.95l-.25.25.5.5.24-.25a4.9 4.9 0 000-6.94z" opacity=".5"/><path fill="#fff" d="M1184.14 51.08a8.49 8.49 0 00-5.2 1.77l-.18.14.15.18 5.22 6.79 5.38-6.97-.18-.14a8.49 8.49 0 00-5.2-1.77zM1222.87 58.8v-4.92h4.2v4.91z"/><path fill="#fff" d="M1221.46 58.33a2.94 2.94 0 00.19 1.37.88.88 0 00.47.4 2.15 2.15 0 00.75.1h4.2a2.15 2.15 0 00.76-.1.88.88 0 00.47-.4 2.94 2.94 0 00.18-1.37v-6.1a2.95 2.95 0 00-.18-1.38.88.88 0 00-.47-.39 2.2 2.2 0 00-.76-.08h-.7v-.7h-2.8v.7h-.7a2.2 2.2 0 00-.75.08.88.88 0 00-.47.4 2.94 2.94 0 00-.19 1.36zm.7-.01v-6.1a3.07 3.07 0 01.1-1.03.18.18 0 01.1-.07 2.16 2.16 0 01.51-.04h4.2a2.16 2.16 0 01.51.04.18.18 0 01.1.07 3.14 3.14 0 01.1 1.03v6.1a3.11 3.11 0 01-.1 1.04.18.18 0 01-.1.07 1.55 1.55 0 01-.5.06h-4.2a1.56 1.56 0 01-.52-.06.18.18 0 01-.1-.07 3.08 3.08 0 01-.1-1.04zM1236.44 53.81h6.25a25.97 25.97 0 01-3.12 4.09 25.97 25.97 0 01-3.13-4.09zM60.05 767.7c-1.13 0-1.7 0-1.7 1.32v1.59c0 1.32.57 1.32 1.7 1.32h.82c1.13 0 1.7 0 1.7-1.32v-1.59c0-1.27-.57-1.31-1.7-1.31zm8.44 0c-1.13 0-1.7 0-1.7 1.32v1.59c0 1.32.57 1.32 1.7 1.32h.82c1.13 0 1.7 0 1.7-1.32v-1.59c0-1.27-.57-1.31-1.7-1.31zm8.44 0c-1.13 0-1.7 0-1.7 1.32v1.59c0 1.32.57 1.32 1.7 1.32h.82c1.13 0 1.7 0 1.7-1.32v-1.59c0-1.27-.57-1.31-1.7-1.31zm-16.88 8.45c-1.13 0-1.7 0-1.7 1.32v1.58c0 1.32.57 1.32 1.7 1.32h.82c1.13 0 1.7 0 1.7-1.32v-1.58c0-1.28-.57-1.32-1.7-1.32zm8.44 0c-1.13 0-1.7 0-1.7 1.32v1.58c0 1.32.57 1.32 1.7 1.32h.82c1.13 0 1.7 0 1.7-1.32v-1.58c0-1.28-.57-1.32-1.7-1.32zm8.44 0c-1.13 0-1.7 0-1.7 1.32v1.58c0 1.32.57 1.32 1.7 1.32h.82c1.13 0 1.7 0 1.7-1.32v-1.58c0-1.28-.57-1.32-1.7-1.32zm-16.88 8.44c-1.13 0-1.7 0-1.7 1.32v1.58c0 1.32.57 1.32 1.7 1.32h.82c1.13 0 1.7 0 1.7-1.32v-1.58c0-1.28-.57-1.32-1.7-1.32zm8.44 0c-1.13 0-1.7 0-1.7 1.32v1.58c0 1.32.57 1.32 1.7 1.32h.82c1.13 0 1.7 0 1.7-1.32v-1.58c0-1.28-.57-1.32-1.7-1.32zm8.44 0c-1.13 0-1.7 0-1.7 1.32v1.58c0 1.32.57 1.32 1.7 1.32h.82c1.13 0 1.7 0 1.7-1.32v-1.58c0-1.28-.57-1.32-1.7-1.32z"/><path fill="gray" d="M161.1 53.89h6.24a25.97 25.97 0 01-3.12 4.08 25.97 25.97 0 01-3.13-4.08z"/><path fill="none" d="M160.05 52.74h8.33v6.13h-8.33z"/><path fill="#fff" d="M57.85 59.6l-.33-.93-.33-.93h-3.3l-.66 1.86h-1.07l.8-2.14q.36-.98.71-1.87l.7-1.68q.34-.8.73-1.6h.93q.38.8.73 1.6t.7 1.68l.72 1.87.79 2.14zm-.95-2.7l-.67-1.77q-.33-.85-.69-1.65-.37.79-.7 1.65t-.66 1.77zM62.14 59.73a2.98 2.98 0 01-1.17-.21 2.34 2.34 0 01-.84-.6 2.44 2.44 0 01-.5-.89 3.73 3.73 0 01-.18-1.15 3.47 3.47 0 01.19-1.16 2.73 2.73 0 01.52-.9 2.33 2.33 0 01.82-.6 2.67 2.67 0 011.1-.22 4.36 4.36 0 01.73.06 3.4 3.4 0 01.7.2l-.22.83a2.37 2.37 0 00-.5-.17 2.86 2.86 0 00-.62-.06 1.56 1.56 0 00-1.26.51 2.27 2.27 0 00-.44 1.5 3.07 3.07 0 00.1.82 1.67 1.67 0 00.32.63 1.4 1.4 0 00.55.4 2.11 2.11 0 00.82.15 3.1 3.1 0 00.7-.08 2.55 2.55 0 00.5-.16l.14.82a1.03 1.03 0 01-.24.1 3.29 3.29 0 01-.36.09q-.2.04-.43.06a3.88 3.88 0 01-.43.03zM65.57 54.13h2.07v.82h-2.07v2.53a3.04 3.04 0 00.06.68 1.01 1.01 0 00.19.42.68.68 0 00.31.21 1.4 1.4 0 00.44.06 2.08 2.08 0 00.71-.1l.38-.14.19.81a3.69 3.69 0 01-.52.19 2.93 2.93 0 01-.84.1 2.55 2.55 0 01-.92-.14 1.34 1.34 0 01-.58-.42 1.7 1.7 0 01-.31-.7 4.61 4.61 0 01-.1-.96V52.6l.99-.17zM69.36 53.14a.63.63 0 01-.44-.17.69.69 0 010-.94.66.66 0 01.89 0 .69.69 0 010 .94.63.63 0 01-.45.17zm.5 6.46h-.98v-5.47h.98zM75.81 54.13a27.6 27.6 0 01-.96 2.95q-.55 1.4-1.07 2.52h-.88q-.52-1.11-1.07-2.52a27.6 27.6 0 01-.96-2.95h1.05q.12.52.3 1.1t.37 1.16q.19.57.4 1.1t.37.97q.18-.42.38-.96t.4-1.11q.19-.57.36-1.16t.3-1.1zM77.3 53.14a.63.63 0 01-.44-.17.69.69 0 010-.94.66.66 0 01.9 0 .69.69 0 010 .94.63.63 0 01-.46.17zm.5 6.46h-.98v-5.47h.98zM80.4 54.13h2.07v.82H80.4v2.53a3.04 3.04 0 00.06.68 1.01 1.01 0 00.19.42.68.68 0 00.31.21 1.4 1.4 0 00.45.06 2.08 2.08 0 00.7-.1l.38-.14.19.81a3.68 3.68 0 01-.52.19 2.93 2.93 0 01-.84.1 2.55 2.55 0 01-.92-.14 1.34 1.34 0 01-.58-.42 1.7 1.7 0 01-.31-.7 4.61 4.61 0 01-.1-.96V52.6l.99-.17zM84.2 53.14a.63.63 0 01-.45-.17.69.69 0 010-.94.66.66 0 01.89 0 .69.69 0 010 .94.63.63 0 01-.45.17zm.49 6.46h-.98v-5.47h.98zM86.07 56.88a3.48 3.48 0 01.2-1.27 2.64 2.64 0 01.56-.9 2.26 2.26 0 01.8-.54 2.5 2.5 0 01.93-.17 2.1 2.1 0 011.7.68 3.17 3.17 0 01.58 2.1v.17a1.44 1.44 0 01-.01.18h-3.74a2 2 0 00.49 1.3 1.81 1.81 0 001.35.44 3.59 3.59 0 00.86-.1 3.07 3.07 0 00.54-.17l.13.82a2.9 2.9 0 01-.62.2 4.47 4.47 0 01-1.02.1 3.22 3.22 0 01-1.23-.2 2.3 2.3 0 01-.86-.6 2.42 2.42 0 01-.5-.9 3.8 3.8 0 01-.16-1.14zm3.75-.54a1.64 1.64 0 00-.33-1.09 1.14 1.14 0 00-.94-.42 1.3 1.3 0 00-.6.13 1.4 1.4 0 00-.43.34 1.57 1.57 0 00-.28.48 2.37 2.37 0 00-.13.56zM93.52 58.9a1.93 1.93 0 00.9-.16.53.53 0 00.28-.5.67.67 0 00-.28-.57 4.5 4.5 0 00-.94-.48 14.8 14.8 0 01-.6-.25 2.1 2.1 0 01-.5-.31 1.34 1.34 0 01-.34-.44 1.37 1.37 0 01-.13-.62 1.4 1.4 0 01.54-1.15 2.29 2.29 0 011.46-.42 4.1 4.1 0 01.47.02l.43.07.35.07.24.08-.18.84a2.46 2.46 0 00-.5-.17 3.2 3.2 0 00-.8-.1 1.5 1.5 0 00-.72.17.54.54 0 00-.3.5.7.7 0 00.06.32.72.72 0 00.21.25 1.73 1.73 0 00.35.2q.21.1.5.2.4.15.7.3a2.17 2.17 0 01.52.33 1.27 1.27 0 01.34.45 1.66 1.66 0 01.11.66 1.3 1.3 0 01-.56 1.15 2.8 2.8 0 01-1.6.39 4.2 4.2 0 01-1.14-.12q-.41-.12-.56-.19l.18-.84.54.2a3.1 3.1 0 00.97.12z"/><path d="M705.9 483.37a24 24 0 00-3.79.2 3.75 3.75 0 00-3.54 3.54 23.53 23.53 0 00-.19 3.8v17.18a23.52 23.52 0 00.2 3.8 3.75 3.75 0 003.53 3.53 23.98 23.98 0 003.8.2h11.6a23.93 23.93 0 003.79-.2 3.75 3.75 0 003.52-3.53 24.02 24.02 0 00.2-3.8v-17.18a24.03 24.03 0 00-.2-3.8 3.75 3.75 0 00-3.52-3.54 23.93 23.93 0 00-3.8-.2z" opacity=".1"/><path fill="url(#am)" d="M717.5 483.02a23.8 23.8 0 013.74.2 3.4 3.4 0 013.25 3.24 23.32 23.32 0 01.19 3.75v17.18a23.32 23.32 0 01-.2 3.74 3.4 3.4 0 01-3.24 3.24 23.8 23.8 0 01-3.74.2h-11.6a23.72 23.72 0 01-3.73-.2 3.4 3.4 0 01-3.24-3.24 23.86 23.86 0 01-.2-3.74V490.2a23.86 23.86 0 01.2-3.75 3.4 3.4 0 013.24-3.24 23.72 23.72 0 013.73-.2z"/><path fill="none" stroke="#000" stroke-width=".7" d="M705.9 483.02a23.8 23.8 0 00-3.73.2 3.4 3.4 0 00-3.25 3.24 23.34 23.34 0 00-.19 3.75v17.18a23.32 23.32 0 00.2 3.74 3.4 3.4 0 003.24 3.24 23.8 23.8 0 003.74.2h11.6a23.72 23.72 0 003.73-.2 3.4 3.4 0 003.24-3.24 23.86 23.86 0 00.2-3.74V490.2a23.86 23.86 0 00-.2-3.75 3.4 3.4 0 00-3.24-3.24 23.72 23.72 0 00-3.74-.2z" opacity=".4"/><g clip-path="url(#an)"><path fill="none" stroke="url(#ao)" stroke-width="1.4" d="M705.9 483.37c-6.18 0-6.85.63-6.82 6.84v17.18c-.03 6.2.64 6.83 6.83 6.83h11.6c6.18 0 6.82-.63 6.82-6.83V490.2c0-6.2-.64-6.84-6.83-6.84z" opacity=".4"/></g><path fill="#fff" d="M704.55 486.17a7.58 7.58 0 00-2.75.3.87.87 0 00-.43.53 4.67 4.67 0 000 2.56.87.87 0 00.43.53 7.58 7.58 0 002.75.3h14.32a7.58 7.58 0 002.74-.3.86.86 0 00.44-.53 4.67 4.67 0 000-2.56.87.87 0 00-.44-.53 7.58 7.58 0 00-2.75-.3z" opacity=".2"/><path fill="#28851e" d="M710.73 497.05a.97.97 0 01.51.35l1.72 2.98-.89.53h2.94l1.47-2.55-.9.51-.9-1.59a.5.5 0 00-.46-.23zm-1.02.18a1.26 1.26 0 00-1.07.51l-1.35 2.36 2.59 1.5 1.64-2.87-.65-1.1a1.48 1.48 0 00-1.16-.4zm7 3.64l-2.6 1.5 1.64 2.8h1.4a1.44 1.44 0 00.92-1.98zm-11.52.62l.93.55-.6 1.01a1.57 1.57 0 00.89 2.14h1.38l.94-1.62.93.5-1.5-2.58zm8.44 3.03l-1.5 2.59 1.5 2.56v-1.08h1.84a.46.46 0 00.43-.26l1.66-2.94a.77.77 0 01-.48.18h-3.45zm-7.65.9c.07.1.06.08 1.61 2.84.11.16.25.35.45.33h3.3v-3.02h-4.91a.58.58 0 01-.45-.15z"/><path d="M704.55 485.47a7.58 7.58 0 00-2.75.3.87.87 0 00-.43.53 4.67 4.67 0 000 2.56.87.87 0 00.43.53 7.58 7.58 0 002.75.29h14.32a7.58 7.58 0 002.74-.3.86.86 0 00.44-.52 4.67 4.67 0 000-2.56.87.87 0 00-.44-.53 7.58 7.58 0 00-2.75-.3z" opacity=".4"/><path fill="#fff" d="M688 522.77l.42.56.53.75c.17.23.36.57.54.87a8.8 8.8 0 01.46.87h-1.12q-.2-.4-.45-.8t-.5-.79a17.2 17.2 0 00-.95-1.27l-.28.01h-1.2v2.85h-1.02v-7.18a5.8 5.8 0 01.96-.14q.53-.04.97-.04a3.98 3.98 0 012.34.58 1.99 1.99 0 01.8 1.73 2.02 2.02 0 01-.38 1.24 2.27 2.27 0 01-1.13.76zm-1.55-3.41q-.66 0-1 .03v2.74h.72a7.65 7.65 0 00.95-.05 2.14 2.14 0 00.7-.2 1.07 1.07 0 00.46-.41 1.4 1.4 0 00.15-.71 1.35 1.35 0 00-.15-.69 1.17 1.17 0 00-.43-.43 1.86 1.86 0 00-.63-.22 4.4 4.4 0 00-.77-.06zM695.33 525.67q-.33.08-.89.18a7.7 7.7 0 01-1.27.1 2.7 2.7 0 01-1.07-.2 1.7 1.7 0 01-.69-.51 2.11 2.11 0 01-.38-.8 4.14 4.14 0 01-.11-1.01v-3.07h.97v2.86a2.48 2.48 0 00.32 1.43 1.23 1.23 0 001.06.43 5.15 5.15 0 00.91-.07.78.78 0 00.18-.04v-4.62h.97zM698 520.6a2.63 2.63 0 01.54-.25 2.55 2.55 0 01.83-.12 2.49 2.49 0 011.05.2 2.18 2.18 0 01.77.6 2.6 2.6 0 01.48.9 3.9 3.9 0 01.16 1.16 3.44 3.44 0 01-.2 1.2 2.5 2.5 0 01-.54.9 2.42 2.42 0 01-.86.56 3.08 3.08 0 01-1.14.2 6.94 6.94 0 01-1.21-.1q-.53-.09-.86-.18v-7.84l.97-.17zm0 4.37a3.3 3.3 0 00.41.08 5.08 5.08 0 00.67.04 1.62 1.62 0 001.26-.52 2.12 2.12 0 00.47-1.48 3.56 3.56 0 00-.08-.79 1.8 1.8 0 00-.27-.64 1.34 1.34 0 00-.5-.42 1.58 1.58 0 00-.71-.15 1.95 1.95 0 00-.74.14 2.04 2.04 0 00-.52.28zM704.2 520.6a2.64 2.64 0 01.53-.25 2.55 2.55 0 01.84-.12 2.49 2.49 0 011.04.2 2.17 2.17 0 01.78.6 2.57 2.57 0 01.48.9 3.9 3.9 0 01.16 1.16 3.45 3.45 0 01-.2 1.2 2.51 2.51 0 01-.55.9 2.41 2.41 0 01-.86.56 3.07 3.07 0 01-1.14.2 6.95 6.95 0 01-1.2-.1q-.53-.09-.87-.18v-7.84l.98-.17zm0 4.37a3.24 3.24 0 00.4.08 5.08 5.08 0 00.67.04 1.62 1.62 0 001.27-.52 2.12 2.12 0 00.47-1.48 3.5 3.5 0 00-.08-.79 1.78 1.78 0 00-.28-.64 1.33 1.33 0 00-.49-.42 1.57 1.57 0 00-.72-.15 1.95 1.95 0 00-.73.14 2.06 2.06 0 00-.52.28zM709.9 519.37a.63.63 0 01-.45-.18.69.69 0 010-.93.66.66 0 01.89 0 .69.69 0 010 .93.63.63 0 01-.45.18zm.49 6.45h-.98v-5.47h.98zM713.34 525.12a1.92 1.92 0 00.89-.16.53.53 0 00.29-.5.67.67 0 00-.28-.57 4.53 4.53 0 00-.94-.47l-.6-.26a2.14 2.14 0 01-.5-.31 1.34 1.34 0 01-.34-.43 1.36 1.36 0 01-.13-.62 1.4 1.4 0 01.54-1.16 2.3 2.3 0 011.46-.42 4.08 4.08 0 01.46.02 6.4 6.4 0 011.02.22l-.18.84a2.4 2.4 0 00-.49-.17 3.19 3.19 0 00-.8-.1 1.5 1.5 0 00-.73.17.54.54 0 00-.3.51.7.7 0 00.07.32.73.73 0 00.2.24 1.78 1.78 0 00.36.2c.14.07.3.14.5.2q.4.16.7.3a2.18 2.18 0 01.52.33 1.27 1.27 0 01.33.46 1.66 1.66 0 01.12.65 1.3 1.3 0 01-.57 1.15 2.8 2.8 0 01-1.6.4 4.21 4.21 0 01-1.14-.13q-.4-.12-.55-.18l.18-.85c.1.05.29.1.53.2a3.1 3.1 0 00.98.12zM716.76 525.82v-7.99l.98-.17v2.8a3.34 3.34 0 01.58-.16 3.4 3.4 0 01.62-.06 2.78 2.78 0 011.08.18 1.7 1.7 0 01.7.52 2 2 0 01.35.8 4.6 4.6 0 01.1 1.01v3.07h-.97v-2.86a4.64 4.64 0 00-.07-.86 1.47 1.47 0 00-.22-.58.9.9 0 00-.42-.32 1.86 1.86 0 00-.66-.1 2.69 2.69 0 00-.32.02 7.34 7.34 0 00-.77.16v4.54zM727.23 525.89a12.24 12.24 0 01-1.5-.1 4.01 4.01 0 01-.47-.08v-7.07a4.24 4.24 0 01.46-.08l.51-.06q.26-.03.51-.03h.48a7.07 7.07 0 011.18.09 2.98 2.98 0 01.96.32 1.73 1.73 0 01.63.6 1.67 1.67 0 01.23.9 1.61 1.61 0 01-.28.98 1.7 1.7 0 01-.76.57 2.2 2.2 0 011.02.6 1.64 1.64 0 01.38 1.16 1.86 1.86 0 01-.8 1.65 4.6 4.6 0 01-2.55.55zm-.96-4.28h1.07a4.63 4.63 0 00.72-.06 1.75 1.75 0 00.58-.19 1.06 1.06 0 00.4-.35 1.01 1.01 0 00.13-.56.92.92 0 00-.14-.53 1.06 1.06 0 00-.41-.35 2.21 2.21 0 00-.6-.2 4.12 4.12 0 00-.74-.06l-.61.01-.4.04zm0 .82v2.56a7.73 7.73 0 001.02.05 6 6 0 00.86-.06 2.4 2.4 0 00.7-.2 1.24 1.24 0 00.5-.42 1.13 1.13 0 00.18-.66 1.24 1.24 0 00-.14-.6 1.02 1.02 0 00-.4-.4 1.91 1.91 0 00-.6-.21 4.62 4.62 0 00-.8-.06zM732.44 519.37a.63.63 0 01-.44-.18.69.69 0 010-.93.66.66 0 01.89 0 .69.69 0 010 .93.63.63 0 01-.45.18zm.5 6.45h-.98v-5.47h.98zM734.62 520.51q.34-.08.9-.18a7.7 7.7 0 011.28-.1 2.78 2.78 0 011.08.2 1.7 1.7 0 01.7.5 2 2 0 01.35.8 4.6 4.6 0 01.1 1.02v3.07h-.97v-2.86a4.64 4.64 0 00-.07-.86 1.47 1.47 0 00-.22-.58.9.9 0 00-.42-.32 1.86 1.86 0 00-.66-.1 5.32 5.32 0 00-.92.07l-.17.04v4.61h-.98z"/><path d="M579.14 484.7c-2.03 0-3.54-.06-4.67.8a3.38 3.38 0 00-1.16 1.9 12.57 12.57 0 00-.3 3.14v17.5a19.42 19.42 0 00.19 3.25 3.36 3.36 0 00.97 2.01 3.54 3.54 0 002.03.77 27.45 27.45 0 002.94.09h20a27.01 27.01 0 002.9-.1 3.59 3.59 0 002.03-.75 3.38 3.38 0 001-2 18.45 18.45 0 00.2-3.27v-13l-.02-.43.01-1.32a28.24 28.24 0 00-.08-3.13 3.8 3.8 0 00-.76-2.12 3.37 3.37 0 00-2.03-1.03 18.29 18.29 0 00-3.26-.2h-11.15l-2.1-2.1z" opacity=".1"/><path fill="url(#ap)" d="M579.14 484c-2.03 0-3.54-.06-4.67.79a3.38 3.38 0 00-1.16 1.9 12.57 12.57 0 00-.3 3.15v6.09h32.26v-1.6l-.01-.42v-1.32a28.25 28.25 0 00-.08-3.13 3.8 3.8 0 00-.76-2.12 3.37 3.37 0 00-2.03-1.03 18.28 18.28 0 00-3.26-.2h-11.15l-2.1-2.1z"/><path fill="#fff" d="M588.4 488.91l-2.11 2.1h-7.15c-4.77 0-5.43 0-5.43 5.43v.7c0-5.42.66-5.42 5.43-5.42h7.15l2.1-2.1h10.74c4.69 0 5.43 0 5.43 5.42v-.7c0-5.43-.74-5.43-5.43-5.43z" opacity=".3"/><path fill="url(#aq)" d="M599.14 488.91c2.03 0 3.54-.06 4.66.79a3.38 3.38 0 011.17 1.9 12.57 12.57 0 01.3 3.15v12.59a19.42 19.42 0 01-.19 3.25 3.36 3.36 0 01-.97 2.01 3.54 3.54 0 01-2.03.77 27.44 27.44 0 01-2.94.09h-20a27.01 27.01 0 01-2.9-.1 3.59 3.59 0 01-2.03-.75 3.38 3.38 0 01-1-2.01 18.45 18.45 0 01-.2-3.26v-8.1l.01-.42v-1.32a28.22 28.22 0 01.07-3.13 3.8 3.8 0 01.77-2.12 3.37 3.37 0 012.03-1.03 10.75 10.75 0 013.26-.2h6.94l2.1-2.1z"/><path fill="#fff" d="M605.22 504.34l-8.41 8.42h3.28c4.65 0 5.13-.48 5.13-5.12z" opacity=".05"/><path d="M573 506.63v.7a19.43 19.43 0 00.2 3.26 3.36 3.36 0 00.97 2.01 3.54 3.54 0 002.03.77 27.45 27.45 0 002.94.09h20a27.01 27.01 0 002.9-.1 3.59 3.59 0 002.03-.75 3.38 3.38 0 001-2.01 18.45 18.45 0 00.2-3.26v-.7a18.47 18.47 0 01-.2 3.26 3.38 3.38 0 01-1 2 3.59 3.59 0 01-2.03.77 27.01 27.01 0 01-2.9.09h-20a27.42 27.42 0 01-2.94-.1 3.54 3.54 0 01-2.03-.76 3.36 3.36 0 01-.97-2 19.4 19.4 0 01-.2-3.27z" opacity=".2"/><path fill="#fff" d="M588.2 488.91l-2.1 2.1h-6.95a10.75 10.75 0 00-3.26.2 3.37 3.37 0 00-2.03 1.04 3.8 3.8 0 00-.77 2.12c-.05.46-.07.98-.08 1.56h.03c.01-.3.02-.6.05-.86a3.8 3.8 0 01.77-2.12 3.37 3.37 0 012.03-1.03 10.75 10.75 0 013.26-.2h6.94l2.1-2.1h10.95c2.03 0 3.54-.07 4.66.78a3.38 3.38 0 011.17 1.9 12.57 12.57 0 01.3 3.15v-.7a12.57 12.57 0 00-.3-3.15 3.38 3.38 0 00-1.17-1.9c-1.12-.85-2.63-.79-4.66-.79z" opacity=".2"/><path fill="#732206" d="M588.2 488.21l-2.1 2.1h-6.95a10.75 10.75 0 00-3.26.2 3.37 3.37 0 00-2.03 1.04 3.8 3.8 0 00-.77 2.12c-.05.46-.07.98-.08 1.56h.03c.01-.3.02-.6.05-.86a3.8 3.8 0 01.77-2.12 3.37 3.37 0 012.03-1.03 10.75 10.75 0 013.26-.2h6.94l2.1-2.1h10.95c2.03 0 3.54-.07 4.66.78a3.38 3.38 0 011.17 1.9 12.57 12.57 0 01.3 3.15v-.7a12.57 12.57 0 00-.3-3.15 3.38 3.38 0 00-1.17-1.9c-1.12-.85-2.63-.79-4.66-.79z" opacity=".1"/><path fill="#fff" d="M579.14 484c-2.03 0-3.54-.06-4.67.79a3.38 3.38 0 00-1.16 1.9 12.57 12.57 0 00-.3 3.15v.7a12.57 12.57 0 01.3-3.14 3.38 3.38 0 011.16-1.9c1.13-.86 2.64-.8 4.67-.8h6.74l2.1 2.11h11.15a18.29 18.29 0 013.26.2 3.37 3.37 0 012.03 1.03 3.8 3.8 0 01.76 2.12c.05.43.07.9.08 1.4a20.02 20.02 0 00-.08-2.1 3.8 3.8 0 00-.76-2.12 3.37 3.37 0 00-2.03-1.03 18.3 18.3 0 00-3.26-.2h-11.15l-2.1-2.1zm26.12 10.08v.96-.7-.26z" opacity=".2"/><path fill="none" d="M583.48 495.93h11.22v11.22h-11.22z"/><g fill="#fff"><path d="M593.3 499.43v-1.4h-1.4zM584.88 500.84v5.6h6.32v-.7h-5.61v-5.37zm7.72-.7v6.3h.7v-5.6z"/><path d="M589.1 502.23l.42-.09a3.69 3.69 0 01.6-.04 1.29 1.29 0 01.52.09.76.76 0 01.33.24.9.9 0 01.18.38 2.2 2.2 0 01.05.48v2.6h-2.1z"/><path fill-rule="evenodd" d="M589.1 496.13l-5.52 5.51.5.5 5.01-5.02 5.01 5.02.5-.5z"/><path d="M581.64 524.94v.88h-4.38v-7.28h1.02v6.4zM583.14 519.37a.63.63 0 01-.45-.18.69.69 0 010-.93.66.66 0 01.9 0 .69.69 0 010 .93.63.63 0 01-.45.18zm.5 6.45h-.99v-5.46h.98zM585.32 520.51l.89-.18a7.8 7.8 0 011.28-.1 2.77 2.77 0 011.09.2 1.7 1.7 0 01.69.5 2 2 0 01.36.8 4.63 4.63 0 01.1 1.02v3.07h-.97v-2.86a4.68 4.68 0 00-.07-.86 1.47 1.47 0 00-.23-.58.9.9 0 00-.42-.32 1.86 1.86 0 00-.65-.1 5.34 5.34 0 00-1.1.1v4.62h-.97zM595.7 525.67l-.88.18a7.7 7.7 0 01-1.28.1 2.7 2.7 0 01-1.06-.2 1.7 1.7 0 01-.7-.51 2.11 2.11 0 01-.37-.8 4.13 4.13 0 01-.12-1.01v-3.07h.98v2.86a2.48 2.48 0 00.31 1.43 1.23 1.23 0 001.07.43 5.3 5.3 0 00.9-.07.82.82 0 00.18-.04v-4.61h.98zM600.66 525.82q-.11-.23-.28-.51l-.37-.58a23.31 23.31 0 00-.82-1.16l-.41.57-.4.6-.37.58-.28.5h-1.01a13.5 13.5 0 01.88-1.45q.5-.74 1.01-1.42l-1.8-2.6h1.1l1.3 1.92 1.32-1.91h1.04l-1.77 2.53 1.04 1.45a12.58 12.58 0 01.9 1.48zM136.2 59.6v-7.29h4.4v.88h-3.38v2.2h3v.86h-3v3.35zM142.27 53.14a.63.63 0 01-.44-.17.69.69 0 010-.94.66.66 0 01.9 0 .69.69 0 010 .94.63.63 0 01-.46.17zm.5 6.46h-.98v-5.47h.98zM146.1 59.7a1.88 1.88 0 01-1.3-.38 1.54 1.54 0 01-.37-1.15v-6.56l.98-.17V58a1.57 1.57 0 00.04.4.55.55 0 00.14.26.6.6 0 00.25.14 2.64 2.64 0 00.39.08zM147.02 56.88a3.48 3.48 0 01.2-1.27 2.64 2.64 0 01.56-.9 2.26 2.26 0 01.8-.54 2.5 2.5 0 01.93-.17 2.1 2.1 0 011.7.68 3.17 3.17 0 01.58 2.1v.17a1.42 1.42 0 010 .18h-3.75a2 2 0 00.5 1.3 1.81 1.81 0 001.34.44 3.59 3.59 0 00.87-.1 3.07 3.07 0 00.53-.17l.13.82a2.9 2.9 0 01-.62.2 4.47 4.47 0 01-1.02.1 3.22 3.22 0 01-1.23-.2 2.3 2.3 0 01-.86-.6 2.42 2.42 0 01-.5-.9 3.8 3.8 0 01-.16-1.14zm3.75-.54a1.64 1.64 0 00-.33-1.09 1.14 1.14 0 00-.94-.42 1.3 1.3 0 00-.6.13 1.4 1.4 0 00-.43.34 1.57 1.57 0 00-.28.48 2.37 2.37 0 00-.13.56zM154.48 58.9a1.93 1.93 0 00.88-.16.53.53 0 00.3-.5.67.67 0 00-.29-.57 4.51 4.51 0 00-.94-.48 14.8 14.8 0 01-.6-.25 2.1 2.1 0 01-.5-.31 1.34 1.34 0 01-.34-.44 1.37 1.37 0 01-.12-.62 1.4 1.4 0 01.53-1.15 2.29 2.29 0 011.46-.42 4.1 4.1 0 01.47.02l.43.07.35.07.24.08-.18.84a2.46 2.46 0 00-.5-.17 3.2 3.2 0 00-.8-.1 1.5 1.5 0 00-.72.17.54.54 0 00-.3.5.7.7 0 00.06.32.72.72 0 00.21.25 1.73 1.73 0 00.36.2q.2.1.5.2.39.15.7.3a2.16 2.16 0 01.51.33 1.27 1.27 0 01.34.45 1.66 1.66 0 01.11.66 1.3 1.3 0 01-.56 1.15 2.8 2.8 0 01-1.6.39 4.2 4.2 0 01-1.14-.12q-.41-.12-.56-.19l.18-.84.54.2a3.1 3.1 0 00.98.12zM623.22 53.35a1.82 1.82 0 01-.15.73 3.48 3.48 0 01-.4.7 7.06 7.06 0 01-.57.67l-.63.65-.42.42c-.16.16-.3.33-.44.5a4.32 4.32 0 00-.36.5.86.86 0 00-.14.43h3.36v.83h-4.42a.78.78 0 01-.01-.13v-.11a2.56 2.56 0 01.16-.92 3.77 3.77 0 01.43-.8 5.7 5.7 0 01.59-.72l.64-.66.5-.5a5.27 5.27 0 00.42-.49 2.43 2.43 0 00.3-.51 1.43 1.43 0 00.1-.56 1.28 1.28 0 00-.1-.53 1.03 1.03 0 00-.66-.59 1.65 1.65 0 00-.48-.07 1.75 1.75 0 00-.56.09 2.69 2.69 0 00-.45.2 1.86 1.86 0 00-.33.22l-.21.19-.49-.7a2.61 2.61 0 01.29-.25 2.75 2.75 0 01.45-.3 3.27 3.27 0 01.59-.22 2.53 2.53 0 01.7-.1 2.45 2.45 0 011.72.53 1.94 1.94 0 01.57 1.5zM626.62 58.06a1.97 1.97 0 001.34-.36 1.42 1.42 0 00.24-1.67 1.3 1.3 0 00-.44-.43 1.95 1.95 0 00-.64-.23 4.01 4.01 0 00-.74-.07h-.25v-.8h.35a2.87 2.87 0 00.54-.06 1.56 1.56 0 00.5-.18 1.18 1.18 0 00.43-1.48 1 1 0 00-.28-.34 1.06 1.06 0 00-.4-.2 1.95 1.95 0 00-.48-.06 2.22 2.22 0 00-.86.15 3.76 3.76 0 00-.6.3l-.37-.74a3.48 3.48 0 01.76-.37 4.13 4.13 0 01.52-.14 2.87 2.87 0 01.58-.06 3.13 3.13 0 011 .14 1.87 1.87 0 01.7.4 1.64 1.64 0 01.4.61 2.1 2.1 0 01.14.77 1.5 1.5 0 01-.32.97 2.13 2.13 0 01-.8.61 2.39 2.39 0 01.55.25 1.73 1.73 0 01.46.4 2.04 2.04 0 01.32.55 1.95 1.95 0 01.12.7 2.34 2.34 0 01-.16.89 1.8 1.8 0 01-.51.7 2.46 2.46 0 01-.86.46 4.25 4.25 0 01-1.78.12q-.29-.04-.54-.1t-.44-.13a2.37 2.37 0 01-.28-.1l.2-.85a5.73 5.73 0 00.59.22 3.27 3.27 0 001.01.13zM638.38 58.78q-.18-.47-.33-.93t-.33-.93h-3.3l-.67 1.86h-1.06l.79-2.14.72-1.87q.35-.88.7-1.69t.73-1.6h.93q.38.8.73 1.6t.7 1.7q.35.87.72 1.86t.79 2.14zm-.96-2.7q-.33-.92-.66-1.78t-.7-1.64q-.36.79-.7 1.64t-.65 1.78zM645.24 56.05a3.87 3.87 0 01-.16 1.15 2.6 2.6 0 01-.48.9 2.18 2.18 0 01-.78.6 2.48 2.48 0 01-1.04.2 2.55 2.55 0 01-.84-.12 2.63 2.63 0 01-.54-.24v2.18h-.98v-7.24q.35-.09.87-.19a6.43 6.43 0 011.2-.1 3.08 3.08 0 011.14.2 2.43 2.43 0 01.86.57 2.51 2.51 0 01.56.9 3.48 3.48 0 01.19 1.2zm-1.02 0a2.1 2.1 0 00-.47-1.47 1.63 1.63 0 00-1.27-.51 5.68 5.68 0 00-.68.03 2.85 2.85 0 00-.4.07v3.45a2 2 0 00.52.29 1.94 1.94 0 00.73.13 1.58 1.58 0 00.72-.15 1.32 1.32 0 00.5-.42 1.8 1.8 0 00.27-.63 3.5 3.5 0 00.08-.79zM648.64 53.2a3.14 3.14 0 01.6.05l.3.05a1.77 1.77 0 01.2.05l-.18.85a3.33 3.33 0 00-.38-.1 3.41 3.41 0 00-.69-.05 2.6 2.6 0 00-.54.05l-.35.08v4.6h-.98v-5.24a6.6 6.6 0 01.86-.24 5.53 5.53 0 011.16-.1zM652.8 55.13a5.14 5.14 0 01.64-2.82 2.12 2.12 0 013.59 0 5.14 5.14 0 01.64 2.82 5.14 5.14 0 01-.64 2.82 2.12 2.12 0 01-3.6 0 5.14 5.14 0 01-.64-2.82zm3.84 0a9.13 9.13 0 00-.07-1.14 3.76 3.76 0 00-.23-.93 1.65 1.65 0 00-.43-.64 1.08 1.08 0 00-1.35 0 1.64 1.64 0 00-.44.64 3.76 3.76 0 00-.23.93 9.48 9.48 0 000 2.27 3.76 3.76 0 00.23.94 1.64 1.64 0 00.44.64 1.08 1.08 0 001.35 0 1.65 1.65 0 00.43-.64 3.76 3.76 0 00.23-.94 9.12 9.12 0 00.07-1.13zM659.18 53a6.51 6.51 0 001.16-.6 4.77 4.77 0 001.05-.91h.7v7.29h-.99v-5.93a2.77 2.77 0 01-.3.24 4.3 4.3 0 01-.4.24 6.67 6.67 0 01-.92.4zM666.13 54.01a.72.72 0 01-.19.5.74.74 0 01-1.03 0 .74.74 0 010-1 .74.74 0 011.03 0 .72.72 0 01.2.5zm0 4.2a.72.72 0 01-.19.5.74.74 0 01-1.03 0 .74.74 0 010-1 .74.74 0 011.03 0 .72.72 0 01.2.5zM667.7 53a6.5 6.5 0 001.16-.6 4.77 4.77 0 001.05-.91h.69v7.29h-.98v-5.93a2.78 2.78 0 01-.3.24 4.31 4.31 0 01-.4.24 6.67 6.67 0 01-.92.4zM674.37 58.78a10.3 10.3 0 01.3-1.77 14.81 14.81 0 01.58-1.81 14 14 0 01.76-1.63 7.64 7.64 0 01.82-1.23h-3.55v-.85h4.64v.8a7.98 7.98 0 00-.77 1.1 13.08 13.08 0 00-.8 1.58 13.99 13.99 0 00-.63 1.85 9.85 9.85 0 00-.33 1.96z"/><circle cx="648.45" cy="499.65" r="16.27"/><path d="M633.41 525.82l-.34-.93-.32-.93h-3.3l-.67 1.86h-1.06l.79-2.14q.37-.99.72-1.86.35-.89.7-1.7t.73-1.58h.93q.38.78.73 1.59l.7 1.69q.36.89.72 1.86l.79 2.14zm-.96-2.7l-.66-1.77q-.33-.86-.7-1.65-.36.8-.7 1.65l-.65 1.77zM640.27 523.1a3.87 3.87 0 01-.16 1.15 2.6 2.6 0 01-.48.9 2.16 2.16 0 01-.78.6 2.47 2.47 0 01-1.04.2 2.55 2.55 0 01-.84-.13 2.64 2.64 0 01-.54-.24v2.2h-.98v-7.26a18 18 0 01.87-.18 6.38 6.38 0 011.2-.1 3.07 3.07 0 011.14.2 2.42 2.42 0 01.86.57 2.5 2.5 0 01.56.9 3.45 3.45 0 01.19 1.19zm-1.02 0a2.1 2.1 0 00-.47-1.47 1.63 1.63 0 00-1.27-.52 5.65 5.65 0 00-.68.03 2.82 2.82 0 00-.4.08v3.45a2.02 2.02 0 00.52.28 1.93 1.93 0 00.73.14 1.57 1.57 0 00.72-.15 1.33 1.33 0 00.5-.42 1.8 1.8 0 00.27-.64 3.46 3.46 0 00.08-.78zM646.47 523.1a3.87 3.87 0 01-.17 1.15 2.6 2.6 0 01-.48.9 2.16 2.16 0 01-.77.6 2.47 2.47 0 01-1.05.2 2.55 2.55 0 01-.83-.13 2.64 2.64 0 01-.54-.24v2.2h-.98v-7.26a18 18 0 01.87-.18 6.38 6.38 0 011.2-.1 3.07 3.07 0 011.14.2 2.42 2.42 0 01.86.57 2.5 2.5 0 01.55.9 3.45 3.45 0 01.2 1.19zm-1.03 0a2.1 2.1 0 00-.47-1.47 1.63 1.63 0 00-1.26-.52 5.65 5.65 0 00-.69.03 2.82 2.82 0 00-.4.08v3.45a2.02 2.02 0 00.52.28 1.93 1.93 0 00.74.14 1.57 1.57 0 00.72-.15 1.33 1.33 0 00.49-.42 1.8 1.8 0 00.27-.64 3.46 3.46 0 00.08-.78zM650.34 518.54h1.02v7.28h-1.02zM655.48 525.95a2.97 2.97 0 01-1.16-.21 2.33 2.33 0 01-.84-.59 2.45 2.45 0 01-.51-.9 3.73 3.73 0 01-.17-1.15 3.47 3.47 0 01.18-1.16 2.73 2.73 0 01.52-.9 2.35 2.35 0 01.83-.6 2.67 2.67 0 011.09-.22 4.37 4.37 0 01.73.06 3.47 3.47 0 01.7.2l-.21.83a2.3 2.3 0 00-.51-.17 2.83 2.83 0 00-.62-.06 1.56 1.56 0 00-1.26.52 2.27 2.27 0 00-.43 1.5 3.05 3.05 0 00.1.81 1.66 1.66 0 00.31.63 1.4 1.4 0 00.55.4 2.11 2.11 0 00.83.15 3.06 3.06 0 00.7-.08 2.58 2.58 0 00.5-.15l.13.82a1.01 1.01 0 01-.24.1 3.44 3.44 0 01-.36.08 5.9 5.9 0 01-.42.06 4 4 0 01-.44.03zM662.69 523.09a3.46 3.46 0 01-.2 1.18 2.68 2.68 0 01-.53.9 2.33 2.33 0 01-.81.59 2.7 2.7 0 01-2.06 0 2.34 2.34 0 01-.82-.59 2.7 2.7 0 01-.53-.9 3.76 3.76 0 010-2.35 2.7 2.7 0 01.53-.91 2.34 2.34 0 01.82-.59 2.7 2.7 0 012.06 0 2.33 2.33 0 01.81.59 2.67 2.67 0 01.54.9 3.48 3.48 0 01.19 1.18zm-1.02 0a2.36 2.36 0 00-.42-1.47 1.45 1.45 0 00-2.26 0 2.8 2.8 0 000 2.94 1.45 1.45 0 002.26 0 2.35 2.35 0 00.41-1.47zM664.06 520.51l.9-.18a7.8 7.8 0 011.28-.1 2.76 2.76 0 011.08.2 1.7 1.7 0 01.7.5 2.01 2.01 0 01.36.8 4.6 4.6 0 01.1 1.02v3.07h-.98v-2.86a4.63 4.63 0 00-.07-.86 1.48 1.48 0 00-.22-.58.9.9 0 00-.42-.32 1.86 1.86 0 00-.65-.1 5.32 5.32 0 00-1.1.1v4.62h-.98z"/></g></svg>