<svg xmlns="http://www.w3.org/2000/svg" xmlns:xlink="http://www.w3.org/1999/xlink" fill-rule="evenodd" stroke-linecap="square" clip-rule="evenodd" viewBox="0 0 1733 1116"><defs><path id="reuse-0" d="M938 540.9h26.5c1 0 1.7.8 1.7 1.7v31.7c0 1-.8 1.7-1.7 1.7H938c-.9 0-1.6-.8-1.6-1.7v-31.7c0-1 .7-1.7 1.6-1.7z"/></defs><linearGradient id="b" x1="0" x2="1" y1="0" y2="0" gradientTransform="matrix(1576.17 0 0 981.767 73.9 558.3)" gradientUnits="userSpaceOnUse"><stop offset="0" stop-color="#181818"/><stop offset="1"/></linearGradient><linearGradient id="c" x1="0" x2="1" y1="0" y2="0" gradientTransform="rotate(90 371.8 485.8) scale(17.6836)" gradientUnits="userSpaceOnUse"><stop offset="0" stop-color="#131318" stop-opacity=".7"/><stop offset="1" stop-color="#424247" stop-opacity=".7"/></linearGradient><radialGradient id="d" cx="857.6" cy="122.8" r="7.2" gradientUnits="userSpaceOnUse"><stop offset="0" stop-color="#333" stop-opacity=".7"/><stop offset=".9" stop-color="#666" stop-opacity=".7"/><stop offset="1" stop-color="#666" stop-opacity=".7"/></radialGradient><radialGradient id="e" cx="0" cy="0" r="1" gradientTransform="matrix(1377.96 -514.829 307.915 736.532 131.2 963.6)" gradientUnits="userSpaceOnUse"><stop offset="0" stop-color="#fff"/><stop offset=".3" stop-color="#478bde"/><stop offset=".8" stop-color="#0a3c95"/><stop offset="1" stop-color="#021d74"/></radialGradient><linearGradient id="f" x1="0" x2="1" y1="0" y2="0" gradientTransform="rotate(-134.9 871.3 184.4) scale(28.4187)" gradientUnits="userSpaceOnUse"><stop offset="0" stop-color="#0d58bf"/><stop offset="1" stop-color="#0a3070"/></linearGradient><linearGradient id="g" x1="0" x2="1" y1="0" y2="0" gradientTransform="rotate(10.4 -4434.2 7833.5) scale(22.5455)" gradientUnits="userSpaceOnUse"><stop offset="0" stop-color="#007fc0"/><stop offset="1" stop-color="#00e6ff"/></linearGradient><linearGradient id="h" x1="0" x2="1" y1="0" y2="0" gradientTransform="scale(13.10903) rotate(43.4 -36.6 164.2)" gradientUnits="userSpaceOnUse"><stop offset="0" stop-color="#0094f2"/><stop offset="1" stop-color="#00c8ff"/></linearGradient><linearGradient id="i" x1="0" x2="1" y1="0" y2="0" gradientTransform="rotate(27.7 -1194.8 3167.6) scale(13.45958)" gradientUnits="userSpaceOnUse"><stop offset="0" stop-color="#004fa7"/><stop offset="1" stop-color="#006dd9"/></linearGradient><linearGradient id="j" x1="0" x2="1" y1="0" y2="0" gradientTransform="matrix(-5.07509 -15.0431 14.9612 -5.10288 784.2 556.1)" gradientUnits="userSpaceOnUse"><stop offset="0" stop-color="#0359de"/><stop offset="1" stop-color="#0045a7"/></linearGradient><linearGradient id="k" x1="0" x2="1" y1="0" y2="0" gradientTransform="matrix(-24.2157 -25.6431 25.5034 -24.3484 810 577.8)" gradientUnits="userSpaceOnUse"><stop offset="0" stop-color="#006af3"/><stop offset="1" stop-color="#025fad"/></linearGradient><linearGradient id="l" x1="0" x2="1" y1="0" y2="0" gradientTransform="matrix(27.5536 32.7348 -32.5564 27.7045 776.5 541.1)" gradientUnits="userSpaceOnUse"><stop offset="0" stop-color="#0071c2"/><stop offset="1" stop-color="#00b9ff"/></linearGradient><linearGradient id="a"><stop offset="0" stop-color="#f0f0f0"/><stop offset="1" stop-color="#fff"/></linearGradient><linearGradient id="m" x1="0" x2="1" y1="0" y2="0" gradientTransform="matrix(8.34594 0 0 8.39165 787.4 558)" gradientUnits="userSpaceOnUse" xlink:href="#a"/><linearGradient id="o" x1="0" x2="1" y1="0" y2="0" gradientTransform="matrix(-11.5615 -12.39 12.3225 -11.6249 968.4 560.6)" gradientUnits="userSpaceOnUse"><stop offset="0" stop-color="#c024f9"/><stop offset="1" stop-color="#920fc7"/></linearGradient><linearGradient id="p" x1="0" x2="1" y1="0" y2="0" gradientTransform="matrix(11.8771 12.7284 -12.659 11.9421 956.7 539.3)" gradientUnits="userSpaceOnUse"><stop offset="0" stop-color="#ad3ad1"/><stop offset="1" stop-color="#d64dfc"/><stop offset="1" stop-color="#d64dfc"/></linearGradient><linearGradient id="q" x1="0" x2="1" y1="0" y2="0" gradientTransform="matrix(-11.5615 -12.39 12.3225 -11.6249 968.4 569.4)" gradientUnits="userSpaceOnUse"><stop offset="0" stop-color="#9a00e9"/><stop offset="1" stop-color="#7500bc"/></linearGradient><linearGradient id="r" x1="0" x2="1" y1="0" y2="0" gradientTransform="matrix(-11.5615 -12.39 12.3225 -11.6249 968.4 578.3)" gradientUnits="userSpaceOnUse"><stop offset="0" stop-color="#7419bd"/><stop offset=".1" stop-color="#7419bd"/><stop offset="1" stop-color="#62129f"/></linearGradient><radialGradient id="s" cx="0" cy="0" r="1" gradientTransform="matrix(56.132 0 0 56.4395 957.8 572)" gradientUnits="userSpaceOnUse"><stop offset="0" stop-color="#f96dff"/><stop offset="1" stop-color="#9130b2"/></radialGradient><linearGradient id="t" x1="0" x2="1" y1="0" y2="0" gradientTransform="matrix(6.05683 0 0 6.09 934.5 558.3)" gradientUnits="userSpaceOnUse" xlink:href="#a"/><clipPath id="n"><use xlink:href="#reuse-0"/></clipPath><path fill="url(#b)" d="M1650 105.4c0-21-17-38-38-38H111.8c-21 0-38 17-38 38V1011c0 21 17 38 38 38H1612c21 0 38-17 38-38z"/><path fill="#404040" d="M1653 105.4a41 41 0 00-41-41H111.8a41 41 0 00-41 41V1011a41 41 0 0041 41H1612a41 41 0 0041-41zm-3 0c0-21-17-38-38-38H111.8c-21 0-38 17-38 38V1011c0 21 17 38 38 38H1612c21 0 38-17 38-38z"/><path fill="#e6e6e6" fill-rule="nonzero" d="M879.8 992.9v16.9l-19.4-2.8v-14.2zm-19.4-16.2l19.4-2.8v17l-19.4.2zm-1.7 16v14.1l-14.6-2v-12.2zM844 979l14.6-2v14l-14.6.2z"/><path fill="url(#c)" d="M847.8 122.8a9.9 9.9 0 1019.7 0 9.9 9.9 0 00-19.7 0z"/><path fill="#131318" fill-opacity=".7" fill-rule="nonzero" d="M857.6 113a9.9 9.9 0 100 19.7 9.9 9.9 0 000-19.7m0 19.7a10 10 0 110-19.8 10 10 0 010 19.8"/><path fill="#131318" fill-opacity=".7" fill-rule="nonzero" d="M861.6 122.8a4 4 0 11-7.9 0 4 4 0 017.9 0"/><path fill="gray" fill-opacity=".7" fill-rule="nonzero" d="M857.6 119a4 4 0 100 7.7 4 4 0 000-7.8m0 8a4 4 0 110-8 4 4 0 010 8" opacity=".3"/><path fill="url(#d)" d="M853.7 122.8a4 4 0 108 0 4 4 0 00-8 0z"/><path fill="#131318" fill-opacity=".7" fill-rule="nonzero" d="M857.6 118.9a4 4 0 100 7.9 4 4 0 000-8m0 8a4 4 0 110-8 4 4 0 010 8"/><path fill="#d6e3ec" fill-rule="nonzero" d="M170.5 899.3h1375v43h-1375z"/><path fill="#fff" fill-rule="nonzero" d="M229.9 899.3h322.3v43H230z"/><path fill="#606060" fill-rule="nonzero" d="M209.2 921.4v10.9l-12.5-1.8v-9zm-12.5-10.3l12.5-1.8v10.9h-12.5zm-1 10.2v9l-9.4-1.2v-7.8zm-9.4-8.8l9.3-1.2v9h-9.3z"/><path fill="none" stroke="gray" stroke-width="1.9" d="M1541.6 941.3v-41"/><circle cx="256.3" cy="917.8" r="5.5" fill="none" stroke="#606060" stroke-linecap="round" stroke-linejoin="round" stroke-miterlimit="1.5" stroke-width="1.5"/><path fill="none" stroke="#606060" stroke-linecap="round" stroke-linejoin="round" stroke-miterlimit="1.5" stroke-width="1.5" d="M245.8 929.3l6.7-7.4"/><circle cx="577.5" cy="920.8" r="7.8" fill="none" stroke="#606060" stroke-linecap="round" stroke-linejoin="round" stroke-miterlimit="1.5" stroke-width="2"/><g fill-rule="nonzero"><path fill="#606060" d="M275.6 925.5v-1.4l.5.4a4.9 4.9 0 002.1.5c.7 0 1.3-.1 1.6-.4s.5-.6.5-1.1l-.1-.7-.5-.5-.8-.5a68.3 68.3 0 00-2.6-1.6l-.5-.7c-.2-.3-.2-.6-.2-1s0-.8.3-1.1c.2-.4.4-.7.8-.9l1-.4a5 5 0 011.3-.2c1 0 1.7.1 2.1.3v1.3c-.6-.4-1.3-.6-2.2-.6l-.8.1-.6.3a1.3 1.3 0 00-.7 1.1l.1.7.5.5.6.4a31.3 31.3 0 002 1l.8.7.5.7c.2.3.2.6.2 1 0 .5 0 1-.2 1.2l-.8.9-1.1.4a6.1 6.1 0 01-3.8-.4zM289 922.7h-5c0 .7.3 1.4.7 1.8.4.4 1 .6 1.6.6.8 0 1.5-.2 2.2-.8v1a4 4 0 01-2.4.8 3 3 0 01-2.4-1 4 4 0 01-.8-2.7c0-1 .3-2 .9-2.7.6-.6 1.4-1 2.3-1s1.6.3 2.1.9c.5.6.8 1.4.8 2.5zm-1.2-1c0-.6-.1-1.1-.4-1.5-.3-.4-.8-.5-1.3-.5s-1 .1-1.4.5c-.3.4-.6.9-.6 1.5zM295.7 925.9h-1v-1.1h-.1c-.5.8-1.2 1.3-2.2 1.3-.7 0-1.2-.2-1.6-.6a2 2 0 01-.6-1.5c0-1.3.8-2 2.3-2.3l2.1-.3c0-1.1-.5-1.7-1.4-1.7-.9 0-1.7.2-2.3.8v-1.1c.7-.5 1.5-.7 2.4-.7 1.6 0 2.4.9 2.4 2.6zm-1-3.6l-1.8.3c-.5 0-.9.2-1.2.4-.2.2-.4.5-.4 1 0 .3.2.6.4.8.2.2.6.3 1 .3.5 0 1-.2 1.4-.6.3-.4.5-.9.5-1.5zM301.5 920l-.8-.2c-.5 0-1 .2-1.2.7-.4.4-.5 1-.5 1.8v3.6h-1.1v-7h1v1.4h.1c.2-.5.4-.9.7-1.1.4-.3.7-.5 1.1-.5l.7.1zM307.5 925.6c-.5.3-1.2.5-1.9.5-1 0-1.8-.4-2.4-1-.6-.7-1-1.5-1-2.5 0-1.2.4-2.1 1-2.8.7-.7 1.6-1 2.7-1 .6 0 1.2 0 1.6.3v1.1c-.5-.4-1-.5-1.6-.5-.7 0-1.3.2-1.8.7s-.7 1.2-.7 2c0 .9.2 1.5.7 2 .4.5 1 .7 1.7.7.6 0 1.2-.2 1.7-.6zM315 925.9h-1v-4c0-1.5-.6-2.2-1.7-2.2-.5 0-1 .2-1.4.6-.4.4-.5 1-.5 1.6v4h-1.2v-10.4h1.2v4.5c.5-.8 1.3-1.3 2.3-1.3 1.6 0 2.4 1 2.4 2.9zM332.9 916L330 926h-1.4l-2-7.2-.2-1c0 .3 0 .7-.2 1l-2 7.2H323l-3-9.8h1.3l2.1 7.5.2 1 .3-1 2.1-7.5h1.1l2.1 7.6.2.9c0-.3 0-.6.2-1l2-7.5zM334.7 917a.7.7 0 01-.7-.6c0-.3 0-.4.2-.6l.5-.2a.7.7 0 01.8.8c0 .2 0 .3-.2.5s-.4.2-.6.2zm.6 8.9h-1.1v-7h1zM343.4 925.9h-1.1v-4c0-1.5-.6-2.2-1.7-2.2-.5 0-1 .2-1.3.6-.4.4-.6 1-.6 1.6v4h-1.1v-7h1.1v1.1c.6-.8 1.3-1.3 2.3-1.3.8 0 1.4.3 1.8.8.4.4.6 1.2.6 2.1zM351.5 925.9h-1.1v-1.2c-.5 1-1.4 1.4-2.4 1.4s-1.6-.3-2.2-1c-.5-.6-.8-1.5-.8-2.5 0-1.2.3-2.1 1-2.8.5-.7 1.3-1 2.3-1 1 0 1.6.3 2 1h.1v-4.3h1.1zm-1.1-3.2v-1c0-.6-.2-1-.6-1.5-.3-.3-.8-.5-1.4-.5a2 2 0 00-1.6.7c-.4.5-.6 1.2-.6 2.1 0 .8.2 1.4.6 2 .3.4.9.6 1.5.6s1.1-.2 1.5-.7.6-1 .6-1.7zM356.7 926c-1 0-1.8-.3-2.4-1-.7-.6-1-1.4-1-2.5 0-1.2.3-2.1 1-2.8.6-.7 1.5-1 2.6-1 1 0 1.9.3 2.5 1s.8 1.5.8 2.7c0 1-.3 2-1 2.7-.5.6-1.4 1-2.5 1zm.1-6.3c-.7 0-1.3.2-1.7.7a3 3 0 00-.6 2c0 .9.2 1.5.6 2 .4.5 1 .7 1.7.7a2 2 0 001.7-.7 3 3 0 00.6-2c0-.9-.2-1.6-.6-2a2 2 0 00-1.7-.7zM370.9 918.9l-2.1 7h-1.2l-1.4-5-.1-.7-.2.7-1.6 5h-1.1l-2.1-7h1.1l1.5 5.3.1.6.2-.7 1.6-5.2h1l1.5 5.3v.6h.1c0-.2 0-.4.2-.6l1.4-5.3zM371.8 925.6v-1.2c.6.5 1.3.7 2 .7 1 0 1.5-.3 1.5-1l-.1-.4-.4-.4c-.2 0-.3-.2-.5-.3a32.9 32.9 0 00-1.4-.6l-.6-.4-.4-.6-.1-.7c0-.3 0-.6.2-.8l.6-.7.9-.4h1a4 4 0 011.6.2v1.2a3.2 3.2 0 00-2.3-.5l-.5.2a1 1 0 00-.3.3v.9l.3.3.5.3.6.2.9.4.6.4c.2.1.3.4.4.6l.1.7c0 .4 0 .7-.2 1l-.6.6c-.2.2-.6.3-.9.3a4.4 4.4 0 01-3-.3zM387 925.9h-1v-1.1h-.1c-.5.8-1.2 1.3-2.2 1.3-.7 0-1.2-.2-1.6-.6a2 2 0 01-.6-1.5c0-1.3.8-2 2.3-2.3l2.1-.3c0-1.1-.5-1.7-1.4-1.7-.9 0-1.6.2-2.3.8v-1.1c.7-.5 1.5-.7 2.4-.7 1.6 0 2.4.9 2.4 2.6zm-1-3.6l-1.8.3c-.5 0-.9.2-1.2.4-.2.2-.4.5-.4 1 0 .3.2.6.4.8s.6.3 1 .3a2 2 0 002-2zM395 925.9h-1.1v-4c0-1.5-.6-2.2-1.7-2.2-.5 0-1 .2-1.4.6-.3.4-.5 1-.5 1.6v4h-1.1v-7h1v1.1h.1c.5-.8 1.3-1.3 2.3-1.3.8 0 1.4.3 1.8.8.4.4.6 1.2.6 2.1zM403.1 925.9H402v-1.2c-.6 1-1.4 1.4-2.4 1.4s-1.6-.3-2.2-1c-.5-.6-.8-1.5-.8-2.5 0-1.2.3-2.1 1-2.8.5-.7 1.3-1 2.3-1 1 0 1.6.3 2 1v-4.3h1.2zm-1.1-3.2v-1c0-.6-.2-1-.6-1.5-.3-.3-.8-.5-1.4-.5a2 2 0 00-1.6.7c-.4.5-.6 1.2-.6 2.1 0 .8.2 1.4.6 2 .3.4.8.6 1.5.6a2 2 0 001.5-.7c.4-.4.6-1 .6-1.7zM412.5 925.8c-.3.2-.6.3-1 .3-1.3 0-1.9-.7-1.9-2.1v-4.2h-1.2v-1h1.2v-1.6l1.1-.4v2h1.8v1h-1.8v4c0 .5.1.8.3 1 .1.2.4.3.8.3.3 0 .5 0 .7-.2zM419.8 925.9h-1v-4c0-1.5-.6-2.2-1.7-2.2-.6 0-1 .2-1.4.6-.4.4-.6 1-.6 1.6v4h-1v-10.4h1v4.5c.6-.8 1.4-1.3 2.4-1.3 1.6 0 2.3 1 2.3 2.9zM427.6 922.7h-5c0 .7.3 1.4.7 1.8.4.4 1 .6 1.6.6.8 0 1.6-.2 2.2-.8v1a4 4 0 01-2.4.8 3 3 0 01-2.4-1 4 4 0 01-.8-2.7c0-1 .3-2 1-2.7.5-.6 1.3-1 2.2-1s1.7.3 2.2.9c.5.6.7 1.4.7 2.5zm-1.1-1c0-.6-.2-1.1-.5-1.5-.3-.4-.7-.5-1.3-.5-.5 0-1 .1-1.3.5-.4.4-.6.9-.7 1.5zM442 918.9l-2 7h-1.3l-1.4-5-.1-.7-.2.7-1.6 5h-1l-2.2-7h1.2l1.4 5.3.1.6.2-.7 1.6-5.2h1l1.5 5.3.1.6.2-.6 1.4-5.3zM449 922.7h-5c0 .7.2 1.4.6 1.8.4.4 1 .6 1.7.6.8 0 1.5-.2 2.2-.8v1a4 4 0 01-2.5.8 3 3 0 01-2.3-1 4 4 0 01-.9-2.7c0-1 .4-2 1-2.7a3 3 0 012.3-1c.9 0 1.6.3 2.1.9s.8 1.4.8 2.5zm-1.2-1c0-.6-.1-1.1-.4-1.5-.4-.4-.8-.5-1.3-.5-.6 0-1 .1-1.4.5-.4.4-.6.9-.7 1.5zM451.8 924.9v1h-1.1v-10.4h1.1v4.6c.6-1 1.4-1.4 2.5-1.4.9 0 1.6.3 2 1 .6.6.8 1.4.8 2.5 0 1.2-.2 2.1-.8 2.8s-1.4 1-2.4 1c-.9 0-1.6-.3-2-1.1zm0-2.8v1c0 .5.2 1 .6 1.4.3.4.8.6 1.4.6.7 0 1.2-.2 1.6-.8.4-.5.6-1.2.6-2.1 0-.8-.2-1.4-.6-1.9-.3-.4-.8-.6-1.4-.6a2 2 0 00-1.6.6c-.4.5-.6 1-.6 1.7z"/><path fill="#4d4d4d" d="M1441.6 914c0 .9-.1 1.6-.3 2.2-.1.7-.3 1.2-.6 1.6s-.6.8-1 1a3 3 0 01-2.8 0l-1-.9-.5-1.5c-.2-.6-.3-1.3-.3-2.1 0-.9.1-1.6.3-2.3.1-.7.3-1.2.6-1.7l1-1 1.5-.3c2 0 3 1.7 3 5zm-1.2.2c0-2.8-.7-4.2-2-4.2-1.4 0-2.1 1.4-2.1 4.2 0 2.7.7 4 2 4 1.4 0 2.1-1.3 2.1-4zM1449 913.5c0 .9 0 1.7-.2 2.4s-.5 1.3-.8 1.8a3.5 3.5 0 01-3 1.5c-.6 0-1.2-.1-1.7-.4v-1c.6.3 1.1.4 1.8.4.4 0 .8 0 1.2-.3s.6-.4.8-.8c.3-.3.5-.7.6-1.3l.2-1.7c-.5.8-1.2 1.3-2.2 1.3a3 3 0 01-1.2-.3c-.4-.1-.7-.3-.9-.6-.3-.3-.5-.6-.6-1l-.2-1.2c0-.5 0-1 .2-1.3.2-.4.4-.8.7-1a3.1 3.1 0 013.6-.7l1 .9c.2.4.4.8.5 1.4.2.5.2 1.2.2 1.9zm-1.2-1l-.1-1a2.2 2.2 0 00-1-1.4l-.9-.1a2 2 0 00-.7.1 2 2 0 00-1 1.2l-.2.8c0 .4 0 .7.2 1a1.9 1.9 0 001 1.1l.8.2.8-.2.6-.4.4-.6.1-.7zM1451.2 913.4c-.2 0-.4-.1-.5-.3l-.2-.5c0-.2 0-.4.2-.5.1-.2.3-.3.5-.3l.6.3.2.5c0 .2 0 .4-.2.5-.2.2-.3.3-.6.3zm0 5.8c-.2 0-.4-.1-.5-.3l-.2-.5c0-.2 0-.4.2-.6l.5-.2c.2 0 .4 0 .6.2s.2.4.2.6l-.2.5c-.2.2-.3.3-.6.3zM1458.6 909.2v6.5h1.3v1h-1.3v2.3h-1.1v-2.3h-4.6v-1a57.1 57.1 0 003.6-5l.9-1.5zm-4.5 6.5h3.4v-4.9l-1 1.7a32.4 32.4 0 01-2.4 3.2zM1465.6 911.7l-.1-.7c-.1-.2-.2-.5-.4-.6l-.6-.3a2.4 2.4 0 00-1.3 0 3.8 3.8 0 00-1.7 1V910l1-.7a4 4 0 012.6 0l.9.5c.3.2.4.5.6.8s.2.7.2 1.2c0 .3 0 .7-.2 1 0 .3-.2.6-.4.9l-.6.8-1 .8a29 29 0 00-1.9 1.5l-.3.6-.1.7h4.9v1h-6.1v-.5l.1-1 .5-1 .8-.9a20.8 20.8 0 012.2-1.7 3.2 3.2 0 00.8-1.4l.1-.8zM1424.9 928.1c0 .8 0 1.5-.2 2.2-.2.6-.4 1.2-.7 1.6s-.6.8-1 1a3 3 0 01-2.7 0c-.4-.2-.8-.5-1-1-.3-.4-.5-.9-.6-1.5-.2-.6-.2-1.3-.2-2 0-1 0-1.7.2-2.3.1-.7.3-1.2.6-1.7.3-.4.6-.8 1-1l1.5-.3c2 0 3 1.6 3 5zm-1.2.1c0-2.8-.6-4.2-2-4.2s-2 1.4-2 4.3c0 2.6.6 4 2 4s2-1.4 2-4zM1430.4 933h-1.1v-8.4l-.4.3-.5.3-.7.3-.7.2v-1.1a6.7 6.7 0 001.6-.7 9.8 9.8 0 001.4-.9h.4zM1434.6 933.2c-.2 0-.4 0-.6-.2l-.2-.6c0-.3 0-.3.2-.5s.4-.2.6-.2l.5.2.2.5c0 .2 0 .4-.2.6l-.5.2zM1443 928.1l-.1 2.2c-.2.6-.4 1.2-.7 1.6s-.6.8-1 1a3 3 0 01-2.7 0c-.4-.2-.8-.5-1-1-.3-.4-.5-.9-.6-1.5-.2-.6-.2-1.3-.2-2 0-1 0-1.7.2-2.3.1-.7.3-1.2.6-1.7.3-.4.6-.8 1-1l1.5-.3c2 0 3 1.6 3 5zm-1 .1c0-2.8-.7-4.2-2-4.2-1.5 0-2.2 1.4-2.2 4.3 0 2.6.7 4 2 4 1.5 0 2.1-1.4 2.1-4zM1448.6 933h-1.1v-8.4l-.4.3-.5.3-.7.3-.7.2v-1.1a6.7 6.7 0 001.6-.7 9.8 9.8 0 001.4-.9h.4zM1452.8 933.2c-.2 0-.4 0-.6-.2l-.2-.6c0-.3 0-.3.2-.5s.4-.2.6-.2l.5.2.2.5c0 .2 0 .4-.2.6l-.5.2zM1459.6 925.8c0-.3 0-.6-.2-.8l-.3-.6-.6-.3a2.4 2.4 0 00-1.4 0 3.8 3.8 0 00-1.7 1.1V924l1-.7a4 4 0 012.6 0c.4 0 .7.2 1 .4s.4.6.5.9a3.6 3.6 0 010 2.2l-.3.9-.7.8-1 .7a29 29 0 00-1.8 1.5l-.4.7v.7h4.8v1h-6v-.5-1.1l.5-1 .8-.8a20.8 20.8 0 012.2-1.7 3.2 3.2 0 00.9-1.4v-.8zM1468.9 928.1c0 .8-.1 1.5-.3 2.2-.1.6-.3 1.2-.6 1.6s-.6.8-1 1a3 3 0 01-2.8 0c-.3-.2-.7-.5-1-1l-.5-1.5c-.2-.6-.3-1.3-.3-2 0-1 .1-1.7.3-2.3.1-.7.3-1.2.6-1.7.3-.4.6-.8 1-1l1.5-.3c2 0 3 1.6 3 5zm-1.2.1c0-2.8-.7-4.2-2-4.2-1.4 0-2.1 1.4-2.1 4.3 0 2.6.7 4 2 4 1.4 0 2.1-1.4 2.1-4zM1474.7 925.8l-.1-.8-.4-.6-.6-.3a2.4 2.4 0 00-1.3 0 3.8 3.8 0 00-1.7 1.1V924l1-.7a4 4 0 012.6 0c.3 0 .6.2.9.4s.4.6.6.9.2.7.2 1.1c0 .4 0 .7-.2 1 0 .4-.2.7-.4 1l-.6.8-1 .7a29 29 0 00-1.9 1.5l-.3.7-.1.7h4.9v1h-6.1v-.5l.1-1.1.5-1 .8-.8a20.8 20.8 0 012.2-1.7 3.2 3.2 0 00.8-1.4l.1-.8zM1482 933h-1.1v-8.4l-.4.3c-.1.2-.4.2-.6.3a9.9 9.9 0 01-1.3.5v-1.1a6.7 6.7 0 001.6-.7 9.8 9.8 0 001.4-.9h.4zM1378.7 925.7h-5.2v-9.8h5v1h-3.9v3.3h3.6v1h-3.6v3.5h4.1zM1388.5 925.7h-1.4l-5-7.8-.4-.7v8.5h-1.1v-9.8h1.5l5 7.7.3.6v-8.4h1.1zM1398.5 925c-1 .6-2.1.9-3.3.9-1.4 0-2.6-.5-3.4-1.4s-1.3-2.1-1.3-3.6.5-2.8 1.4-3.7 2.2-1.5 3.7-1.5c1 0 2 .2 2.7.5v1.3c-.8-.5-1.8-.8-2.8-.8-1.1 0-2 .4-2.8 1.2-.7.7-1 1.7-1 3 0 1.2.3 2.2 1 2.9.6.7 1.5 1 2.6 1 .8 0 1.5-.1 2-.4v-2.8h-2.1v-1h3.3z"/></g><path fill="none" stroke="#606060" stroke-linecap="round" stroke-linejoin="round" stroke-miterlimit="1.5" d="M1521.8 913.6h-17.1v13.6h7l1.9 2 1.7-2h6.5z"/><path fill="url(#e)" d="M170.5 164.4h1375v735h-1375z"/><ellipse cx="886" cy="122.8" fill="#1a1a1a" rx="3" ry="2.9"/><path fill="url(#f)" fill-rule="nonzero" d="M1345.7 928.4a7.1 7.1 0 100-14.2 7.1 7.1 0 000 14.2z"/><path fill="url(#g)" fill-rule="nonzero" d="M1356.2 926.1a5 5 0 01-3.4 2.4c-1 .2-5.2.2-12.9 0-1.8 0-3.4-1-4.5-2.3l12.2-5.3z"/><path fill="url(#h)" fill-rule="nonzero" d="M1347.6 921l2.8-1.3c.5-.2 1.2-.4 1.8-.4a4.6 4.6 0 014 6.8z"/><path fill="url(#i)" fill-rule="nonzero" d="M1335.4 926.2a6 6 0 01-1-3.4 5.6 5.6 0 018.9-4.5l4.3 2.6z"/><path fill="url(#j)" fill-rule="nonzero" d="M783.3 560.8c5.5 0 10-4.5 10-10s-4.5-9.9-10-9.9-9.8 4.4-9.8 10c0 5.4 4.4 9.9 9.8 9.9z"/><path fill="url(#k)" fill-rule="nonzero" d="M796.6 574.3c5.4 0 9.9-4.5 9.9-10a9.9 9.9 0 10-19.8 0c0 5.5 4.4 10 9.9 10z"/><path fill="url(#l)" fill-rule="nonzero" d="M790 573.2a15.4 15.4 0 000-30.8 15.4 15.4 0 000 30.8z"/><path fill="url(#m)" fill-rule="nonzero" d="M789.5 566.7c-1.4 0-2.9-.2-4.3-.8a4 4 0 01-.8-.5c-.5-.4-.7-1-.5-1.7 0-.5.6-.9 1.2-.9.4 0 .9.1 1.3.3.8.4 1.5.7 2.3.9a5 5 0 002.4-.2c1-.3 1.5-1.2 1.3-2.1 0-.5-.4-.8-.8-1.1-.7-.6-1.6-1-2.4-1.3l-3-1.5c-.9-.4-1.6-1-2-2a4.3 4.3 0 011.2-5.2c1-.8 2.2-1.2 3.4-1.3 1.6-.3 3.1-.2 4.7.3.4 0 .8.3 1.1.5.6.4.9 1.1.6 1.8-.2.7-1 1-1.7.7l-1.6-.5c-1-.3-2-.4-3-.2a3 3 0 00-.5.3c-1.4.6-1.5 2.1-.3 3 .5.4 1.2.6 1.8.9 1.2.5 2.4 1 3.6 1.7.9.5 1.7 1.2 2.1 2.3.9 2.1.2 5-2.8 6-1 .4-2.1.6-3.3.6"/><path fill="#fff" fill-rule="nonzero" d="M776.7 592.1v-1l.4.3.6.2a4 4 0 001 .1c.5 0 1 0 1.2-.2s.4-.5.4-.9c0-.2 0-.4-.2-.5 0-.2-.2-.3-.3-.4l-.6-.4c-.3 0-.4-.2-.6-.3l-.8-.4c-.3-.1-.4-.3-.5-.4l-.4-.6-.2-.7.3-.9.5-.6.9-.4h.9c.7 0 1.2 0 1.6.2v1c-.5-.3-1-.5-1.7-.5h-.6c-.2 0-.3.2-.5.3l-.3.3-.2.5.1.5.4.4c.2 0 .3.2.5.3a21.2 21.2 0 001.4.8l.6.4.4.6.2.7c0 .4 0 .7-.2 1l-.6.6-.8.3-1 .1a4 4 0 01-1 0l-.5-.2-.4-.2zM786.9 592.4h-1.2l-2.3-2.5v2.5h-.9v-7.8h.9v5l2.2-2.4h1.1l-2.4 2.5zM792 587.2l-2.5 6c-.4 1.1-1 1.7-1.8 1.7l-.6-.1v-.8l.5.1c.5 0 .8-.2 1-.7l.4-1-2-5.2h.9l1.4 4 .1.4.2-.4 1.4-4zM793.7 591.6v3.2h-.9v-7.6h.9v.9c.4-.7 1-1 1.8-1a2 2 0 011.6.6c.4.5.5 1.1.5 2 0 .8-.2 1.5-.6 2-.4.6-1 .8-1.7.8s-1.2-.3-1.6-.9zm0-2v.7c0 .4.1.8.4 1 .3.4.6.5 1 .5.6 0 1-.2 1.3-.6.2-.4.4-.9.4-1.6 0-.6-.1-1-.4-1.4-.3-.3-.7-.5-1.1-.5-.5 0-.9.2-1.2.5-.3.4-.4.8-.4 1.3zM803.2 590h-3.7c0 .6.2 1 .5 1.3.3.4.7.5 1.2.5.6 0 1.1-.2 1.6-.6v.8a3 3 0 01-1.8.5c-.7 0-1.3-.2-1.7-.7a3 3 0 01-.7-2c0-.8.3-1.5.7-2 .5-.5 1-.8 1.7-.8a2 2 0 011.6.7c.4.4.6 1 .6 1.8zm-.9-.7c0-.5 0-.9-.3-1.2-.2-.2-.6-.4-1-.4s-.7.2-1 .5a2 2 0 00-.5 1z"/><circle cx="866.7" cy="558" r="18" fill="#fff"/><path fill="#fff" fill-rule="nonzero" d="M852.5 592.4h-1l-.8-2h-3l-.8 2h-1l2.9-7.3h.8zm-2-2.8l-1.2-3.2-.1-.5-.1.5-1.2 3.2zM854.3 591.6v3.2h-.9v-7.6h.9v.9c.4-.7 1-1 1.8-1a2 2 0 011.6.6c.4.5.6 1.1.6 2 0 .8-.2 1.5-.7 2-.4.6-1 .8-1.7.8s-1.2-.3-1.6-.9zm0-2v.7c0 .4.1.8.4 1 .3.4.6.5 1 .5.6 0 1-.2 1.3-.6.3-.4.4-.9.4-1.6 0-.6-.1-1-.4-1.4-.3-.3-.6-.5-1-.5-.6 0-1 .2-1.3.5-.3.4-.4.8-.4 1.3zM860.5 591.6v3.2h-.9v-7.6h.8v.9c.5-.7 1-1 1.9-1a2 2 0 011.6.6c.3.5.5 1.1.5 2 0 .8-.2 1.5-.6 2-.4.6-1 .8-1.8.8-.6 0-1.2-.3-1.5-.9zm0-2v.7c0 .4 0 .8.4 1 .3.4.6.5 1 .5.6 0 1-.2 1.2-.6.3-.4.5-.9.5-1.6 0-.6-.2-1-.4-1.4-.3-.3-.7-.5-1.1-.5-.5 0-1 .2-1.2.5-.3.4-.5.8-.5 1.3zM868.8 585h.8v7.4h-.8zM875 592.2c-.4.2-.9.3-1.4.3-.8 0-1.4-.2-1.8-.7-.5-.5-.7-1.1-.7-1.9 0-.9.2-1.6.7-2s1.2-.9 2-.9c.5 0 .9.1 1.2.3v.8c-.4-.2-.8-.4-1.2-.4-.6 0-1 .2-1.3.6-.4.4-.6.9-.6 1.5s.2 1.1.5 1.5.8.5 1.3.5 1-.1 1.3-.4zM878.5 592.5c-.8 0-1.4-.2-1.9-.7s-.7-1.2-.7-2 .3-1.5.8-2c.4-.5 1-.8 1.9-.8.8 0 1.4.3 1.8.8.5.4.7 1.1.7 2 0 .8-.2 1.5-.7 2-.5.5-1.1.7-2 .7zm0-4.8c-.5 0-1 .2-1.2.6s-.5.9-.5 1.5.1 1.1.5 1.5c.3.3.7.5 1.2.5.6 0 1-.2 1.3-.5.3-.4.4-.9.4-1.5 0-.7-.1-1.2-.4-1.5-.3-.4-.7-.6-1.3-.6zM886.8 592.4h-.9v-3c0-1.1-.4-1.7-1.2-1.7-.4 0-.7.2-1 .5-.3.3-.4.7-.4 1.2v3h-.9v-5.2h.9v.8c.4-.6 1-1 1.7-1 .6 0 1 .2 1.3.6.3.4.5.9.5 1.6z"/><use fill-rule="nonzero" xlink:href="#reuse-0"/><g fill-rule="nonzero" clip-path="url(#n)"><path fill="url(#o)" d="M957.8 549.6h8.4v8.8h-8.4z"/><path fill="url(#p)" d="M957.8 540.7h8.4v8.9h-8.4z"/><path fill="url(#q)" d="M957.8 558.4h8.4v9h-8.4z"/><path fill="url(#r)" d="M957.8 567.3h8.4v8.9h-8.4z"/><path fill="url(#s)" d="M938 540.9h19.8v35H938c-.9 0-1.6-.7-1.6-1.6v-31.7c0-1 .7-1.7 1.6-1.7z"/></g><path fill="#6a15ad" fill-rule="nonzero" d="M928 548h16.8c.9 0 1.6.8 1.6 1.8V567c0 1-.7 1.7-1.6 1.7h-16.9c-.9 0-1.6-.8-1.6-1.7v-17.3c0-1 .7-1.7 1.6-1.7z"/><path fill="url(#t)" fill-rule="nonzero" d="M940.8 563.5h-2.1l-4.8-7.4v7.4h-2v-10.3h2.1l4.9 7.3v-7.3h1.9z"/><path fill="#fff" fill-rule="nonzero" d="M929.7 593.9c-1 0-1.9-.4-2.5-1-.6-.7-1-1.6-1-2.7a4 4 0 011-2.9c.7-.7 1.5-1 2.6-1 1 0 1.9.3 2.5 1 .6.7 1 1.6 1 2.7a4 4 0 01-1 2.8c-.7.7-1.5 1-2.6 1zm0-6.8c-.7 0-1.3.2-1.8.8-.5.6-.7 1.3-.7 2.2s.2 1.6.7 2.2c.4.5 1 .8 1.8.8s1.4-.3 2-.8c.4-.5.6-1.3.6-2.2 0-1-.2-1.7-.7-2.2-.4-.6-1-.8-1.8-.8zM938.9 593.7h-.8v-3c0-1-.4-1.6-1.3-1.6-.4 0-.7.1-1 .5s-.4.7-.4 1.2v3h-.9v-5.3h.9v.9c.4-.7 1-1 1.7-1 .6 0 1 .2 1.3.5.3.4.5 1 .5 1.6zM944.7 591.3H941c0 .6.2 1 .5 1.4.3.3.7.5 1.2.5.6 0 1.1-.2 1.6-.6v.8a3 3 0 01-1.8.5c-.7 0-1.3-.3-1.7-.7a3 3 0 01-.7-2c0-.9.3-1.5.7-2 .5-.6 1-.8 1.7-.8s1.3.2 1.6.6.6 1.1.6 1.9zm-.9-.7c0-.5 0-.8-.3-1.1-.2-.3-.6-.4-1-.4s-.7.1-1 .4a2 2 0 00-.5 1.1zM952 593.7h-1l-3.8-5.8-.3-.5v6.3h-.8v-7.3h1.1l3.7 5.8.3.5V586.4h.8zM956 593.9c-.8 0-1.4-.3-1.8-.8s-.7-1.1-.7-2c0-.8.2-1.5.7-2 .5-.5 1.1-.7 2-.7.7 0 1.3.2 1.8.7.4.5.6 1.2.6 2s-.2 1.5-.7 2-1.1.8-1.9.8zm0-4.8c-.5 0-.9.2-1.2.5-.3.4-.5 1-.5 1.6 0 .6.2 1 .5 1.4.3.4.7.6 1.3.6.5 0 1-.2 1.2-.6s.5-.8.5-1.5c0-.6-.2-1.1-.5-1.5s-.7-.5-1.2-.5zM962.4 593.7l-.8.2c-1 0-1.4-.6-1.4-1.6v-3h-.9v-.8h1v-1.3l.8-.2v1.5h1.3v.7h-1.3v3c0 .3 0 .6.2.7 0 .2.3.3.5.3l.6-.2zM967.7 591.3H964c0 .6.2 1 .5 1.4.3.3.7.5 1.2.5.6 0 1.2-.2 1.7-.6v.8a3 3 0 01-1.9.5c-.7 0-1.3-.3-1.7-.7a3 3 0 01-.6-2c0-.9.2-1.5.7-2 .4-.6 1-.8 1.7-.8a2 2 0 011.6.6c.3.5.5 1.1.5 1.9zm-.8-.7c0-.5-.1-.8-.4-1.1-.2-.3-.5-.4-1-.4-.3 0-.7.1-1 .4a2 2 0 00-.5 1.1z"/><path fill="none" stroke="#1a1a1a" stroke-linecap="butt" stroke-linejoin="round" stroke-miterlimit="2" d="M170.4 164.4h1375v778h-1375z"/></svg>